<svg width="200" height="200" viewBox="0 0 200 200" fill="none" xmlns="http://www.w3.org/2000/svg">
<g clip-path="url(#clip0)">
<path d="M163.08 57.4125C163.063 57.6449 162.837 57.8267 162.603 57.8267H161.392C161.134 57.8267 160.932 57.607 160.948 57.3494C163.019 23.3873 144.271 24.5918 144.271 24.5918L144.268 24.5565L144.266 24.5918C144.266 24.5918 141.942 24.4428 139.021 25.7307C138.678 25.8822 138.327 26.054 137.969 26.2484C132.735 29.0868 126.332 36.7484 127.588 57.3494C127.604 57.607 127.401 57.8267 127.144 57.8267H125.933C125.699 57.8267 125.506 57.6449 125.489 57.4125C125.252 54.1777 124.131 32.8216 135.034 25.1853C135.322 24.9832 135.59 24.7913 135.894 24.6095C138.102 23.2913 140.65 22.506 143.933 22.4757V22.4731C143.933 22.4731 144.134 22.4757 144.186 22.4757C144.238 22.4757 144.438 22.4731 144.438 22.4731V22.4757C164.893 22.6726 163.369 53.4731 163.08 57.4125Z" fill="white"/>
<path d="M182.052 38.6169H108.423V118.551H182.052V38.6169Z" fill="#F24F28"/>
<path d="M182.072 38.6169C182.072 38.6169 172.477 43.1952 182.072 47.0614V38.6169Z" fill="#F89D87"/>
<path d="M177.783 43.158V48.0418L186.478 48.0494C186.478 48.0494 178.541 46.7034 177.783 43.158Z" fill="#F57557"/>
<path d="M120.528 43.5425L120.463 47.9819H115.186C115.186 47.9819 120.596 45.7748 120.528 43.5425Z" fill="#E88F52"/>
<path d="M108.594 38.6169V118.806C114.149 119.251 115.518 125.155 115.518 125.155L115.313 48.0437C130.472 41.7382 108.594 38.6169 108.594 38.6169Z" fill="#FAAD76"/>
<path d="M188.79 48.0408H115.161V127.975H188.79V48.0408Z" fill="#FBC4B7"/>
<path d="M134.091 69.1654C132.703 69.1654 131.567 68.029 131.567 66.6402C131.567 65.2538 132.703 64.1174 134.091 64.1174C135.48 64.1174 136.615 65.2538 136.615 66.6402C136.615 68.029 135.48 69.1654 134.091 69.1654Z" fill="#252728"/>
<path d="M169.665 69.1644C168.275 69.1644 167.139 68.028 167.139 66.6366C167.139 65.2477 168.275 64.1113 169.665 64.1113C171.054 64.1113 172.191 65.2477 172.191 66.6366C172.191 68.028 171.054 69.1644 169.665 69.1644Z" fill="#252728"/>
<path d="M188.79 54.5654H115.161V55.9013H188.79V54.5654Z" fill="#F24F28"/>
<path d="M188.79 57.843H115.161V59.1789H188.79V57.843Z" fill="#F24F28"/>
<path d="M170.22 67.5165H169.009C168.752 67.5165 168.549 67.2968 168.565 67.0418C170.637 33.0797 151.888 34.2842 151.888 34.2842L151.885 34.2489L151.883 34.2842C151.883 34.2842 133.134 33.0797 135.206 67.0418C135.221 67.2968 135.019 67.5165 134.762 67.5165H133.551C133.317 67.5165 133.123 67.3347 133.106 67.1024C132.818 63.163 131.218 32.365 151.608 32.1681V32.1655C151.799 32.1655 151.747 32.1681 151.799 32.1681C151.851 32.1681 151.99 32.1655 151.99 32.1655V32.1681C172.559 32.365 170.954 63.1655 170.665 67.1024C170.648 67.3347 170.454 67.5165 170.22 67.5165Z" fill="#E4E6E7"/>
<path d="M190.331 132.278L198.686 152.223C198.709 152.278 198.728 152.331 198.743 152.384C199.032 153.437 197.752 154.268 195.766 154.271L115.436 154.412C113.447 154.415 112.223 153.591 112.589 152.538C112.607 152.485 112.63 152.43 112.657 152.377L122.482 132.42C122.493 132.397 122.505 132.374 122.518 132.352C123.109 131.256 124.793 130.374 126.331 130.372L186.643 130.243C188.177 130.24 189.791 131.114 190.3 132.21C190.311 132.233 190.321 132.256 190.331 132.278Z" fill="#51B3A7"/>
<path d="M192.94 146.558C191.663 146.841 190.426 147.235 189.274 147.74C186.842 148.788 185.123 150.157 184.203 151.619L127.161 151.72C126.345 150.263 124.722 148.902 122.361 147.864C121.021 147.26 119.547 146.821 118.014 146.541L122.47 136.866C124.075 136.581 125.734 136.134 127.37 135.528C130.146 134.475 132.406 133.104 133.97 131.637L178.874 131.543C180.326 133.005 182.48 134.369 185.174 135.409C186.495 135.912 187.841 136.301 189.168 136.578L192.94 146.558ZM190.301 131.52C189.792 130.424 188.177 129.551 186.644 129.553L177.392 129.573L135.602 129.662L126.331 129.682C124.794 129.685 123.11 130.566 122.518 131.662C122.506 131.685 122.494 131.707 122.482 131.73L119.784 137.207L115.35 146.212L112.657 151.687C112.646 151.71 112.635 151.733 112.626 151.755L112.625 151.758C112.612 151.788 112.6 151.818 112.589 151.849L112.587 151.856L112.582 151.871C112.573 151.899 112.565 151.927 112.558 151.955L112.552 151.983C112.547 152.005 112.541 152.031 112.538 152.053L112.533 152.086L112.526 152.149L112.525 152.187L112.524 152.243L112.527 152.283L112.531 152.334L112.538 152.376L112.547 152.424L112.557 152.467L112.57 152.513L112.586 152.556L112.603 152.599L112.623 152.642L112.644 152.685L112.668 152.725L112.692 152.765L112.721 152.806L112.749 152.844L112.782 152.884L112.814 152.919L112.851 152.96L112.887 152.995L112.928 153.033L112.967 153.066L113.013 153.101L113.055 153.134L113.104 153.167L113.15 153.197L113.203 153.23L113.252 153.26L113.309 153.291L113.362 153.318L113.421 153.346L113.478 153.374L113.54 153.399L113.601 153.424L113.667 153.45L113.731 153.472C113.753 153.48 113.776 153.488 113.799 153.495C113.821 153.503 113.844 153.51 113.867 153.515C113.891 153.523 113.914 153.531 113.937 153.538C113.961 153.543 113.986 153.551 114.01 153.556C114.034 153.563 114.057 153.568 114.082 153.576C114.107 153.581 114.133 153.586 114.159 153.594C114.183 153.599 114.207 153.604 114.233 153.609C114.259 153.614 114.286 153.619 114.314 153.624C114.339 153.629 114.363 153.634 114.389 153.639C114.417 153.644 114.446 153.649 114.475 153.652C114.5 153.657 114.525 153.662 114.551 153.664C114.58 153.669 114.611 153.672 114.641 153.677C114.667 153.68 114.692 153.682 114.718 153.685C114.749 153.69 114.782 153.692 114.814 153.695C114.839 153.697 114.865 153.7 114.89 153.702C114.925 153.705 114.96 153.707 114.995 153.71C115.019 153.71 115.043 153.712 115.068 153.715C115.108 153.715 115.148 153.717 115.188 153.717L115.25 153.72C115.311 153.722 115.373 153.722 115.436 153.722H115.437L127.782 153.702L183.441 153.604L195.767 153.581C195.83 153.581 195.893 153.581 195.954 153.578L196.014 153.576C196.055 153.576 196.096 153.573 196.137 153.571C196.161 153.571 196.185 153.568 196.209 153.566C196.244 153.563 196.279 153.561 196.315 153.558C196.34 153.556 196.365 153.553 196.39 153.551C196.423 153.548 196.456 153.546 196.488 153.541C196.514 153.538 196.539 153.536 196.564 153.533C196.595 153.528 196.626 153.523 196.657 153.52C196.682 153.515 196.707 153.513 196.732 153.508C196.762 153.503 196.791 153.498 196.82 153.493C196.846 153.49 196.87 153.485 196.894 153.48C196.923 153.475 196.951 153.47 196.978 153.462C197.003 153.457 197.027 153.452 197.051 153.447C197.078 153.442 197.105 153.435 197.131 153.43C197.155 153.424 197.178 153.417 197.202 153.412C197.228 153.404 197.253 153.397 197.278 153.389C197.302 153.384 197.324 153.376 197.347 153.369C197.372 153.364 197.396 153.356 197.42 153.349L197.487 153.326C197.509 153.318 197.533 153.311 197.555 153.301L197.619 153.278L197.685 153.25L197.746 153.225L197.807 153.197L197.866 153.169L197.924 153.142L197.98 153.111L198.034 153.081L198.087 153.048L198.137 153.018L198.186 152.983L198.233 152.95L198.279 152.914L198.322 152.879L198.365 152.844L198.403 152.808L198.442 152.77L198.478 152.733L198.512 152.692L198.544 152.654L198.575 152.614L198.603 152.571L198.629 152.531L198.654 152.488L198.676 152.447L198.697 152.402L198.715 152.361L198.732 152.313L198.745 152.273L198.758 152.222L198.767 152.182L198.775 152.129L198.78 152.089L198.784 152.031L198.785 151.995L198.783 151.932L198.781 151.899C198.778 151.876 198.775 151.851 198.771 151.828L198.768 151.803C198.763 151.775 198.756 151.748 198.749 151.717L198.743 151.695C198.735 151.664 198.725 151.634 198.714 151.604H198.714C198.705 151.581 198.696 151.556 198.687 151.533L196.391 146.061L192.621 137.063L190.331 131.591C190.322 131.566 190.312 131.543 190.301 131.52Z" fill="#75C3B9"/>
<path d="M188.378 130.575L196.733 150.52C196.756 150.573 196.775 150.626 196.789 150.681C197.08 151.732 195.799 152.563 193.813 152.565L113.483 152.707C111.494 152.712 110.27 151.886 110.636 150.833C110.655 150.78 110.677 150.727 110.703 150.671L120.529 130.717C120.54 130.694 120.552 130.669 120.565 130.646C121.156 129.55 122.84 128.671 124.378 128.666L184.69 128.54C186.224 128.535 187.838 129.411 188.347 130.505C188.358 130.527 188.368 130.553 188.378 130.575Z" fill="#51B3A7"/>
<path d="M190.987 144.853C189.71 145.138 188.474 145.53 187.322 146.037C184.889 147.085 183.17 148.454 182.25 149.913L125.209 150.017C124.392 148.56 122.769 147.196 120.408 146.158C119.068 145.557 117.594 145.118 116.061 144.835L120.517 135.163C122.122 134.876 123.782 134.431 125.417 133.823C128.193 132.772 130.453 131.398 132.017 129.934L176.921 129.84C178.373 131.3 180.527 132.666 183.221 133.706C184.542 134.206 185.888 134.595 187.215 134.873L190.987 144.853ZM188.348 129.815C187.839 128.722 186.225 127.848 184.691 127.85L175.439 127.871L133.65 127.959L124.379 127.977C122.841 127.982 121.157 128.86 120.566 129.956C120.553 129.979 120.541 130.004 120.53 130.027L117.831 135.502L113.397 144.507L110.705 149.982C110.694 150.004 110.683 150.03 110.673 150.052H110.673C110.659 150.085 110.647 150.116 110.636 150.143L110.634 150.153L110.63 150.169C110.621 150.196 110.612 150.224 110.605 150.252L110.599 150.277C110.594 150.302 110.588 150.325 110.585 150.348L110.581 150.381L110.573 150.444L110.572 150.482L110.571 150.537L110.574 150.578L110.578 150.631L110.585 150.671L110.594 150.722L110.605 150.765L110.617 150.807L110.633 150.853L110.65 150.896L110.67 150.936L110.691 150.979L110.715 151.022L110.74 151.06L110.769 151.103L110.796 151.138L110.83 151.179L110.861 151.217L110.899 151.254L110.934 151.29L110.976 151.328L111.014 151.36L111.06 151.396L111.102 151.429L111.151 151.464L111.197 151.494L111.25 151.527L111.299 151.555L111.356 151.585L111.409 151.613L111.469 151.643L111.526 151.669L111.588 151.696L111.649 151.722L111.714 151.744L111.779 151.767C111.801 151.777 111.823 151.785 111.846 151.792C111.868 151.797 111.891 151.805 111.914 151.812C111.938 151.82 111.961 151.825 111.984 151.833C112.008 151.84 112.033 151.845 112.057 151.853C112.081 151.858 112.105 151.866 112.129 151.871C112.154 151.878 112.18 151.883 112.206 151.888C112.23 151.893 112.255 151.898 112.28 151.906C112.306 151.911 112.334 151.916 112.36 151.921C112.386 151.926 112.411 151.931 112.436 151.934C112.464 151.939 112.493 151.944 112.522 151.949C112.547 151.951 112.572 151.956 112.598 151.959C112.628 151.964 112.658 151.967 112.688 151.972C112.714 151.974 112.739 151.979 112.765 151.982C112.797 151.984 112.829 151.987 112.861 151.989C112.886 151.992 112.912 151.994 112.938 151.997C112.972 151.999 113.007 152.002 113.042 152.004C113.066 152.007 113.09 152.007 113.115 152.009C113.155 152.012 113.196 152.012 113.235 152.014L113.297 152.017C113.359 152.017 113.42 152.02 113.483 152.02H113.484L125.83 151.997L181.488 151.898L193.814 151.878C193.878 151.878 193.94 151.876 194.001 151.873L194.061 151.871C194.103 151.871 194.144 151.868 194.184 151.866C194.208 151.866 194.232 151.863 194.256 151.86C194.291 151.86 194.327 151.858 194.362 151.855C194.388 151.853 194.412 151.85 194.437 151.848C194.47 151.843 194.503 151.84 194.535 151.838C194.561 151.833 194.586 151.83 194.611 151.828C194.642 151.823 194.674 151.82 194.704 151.815C194.73 151.812 194.754 151.807 194.779 151.805C194.808 151.8 194.838 151.795 194.868 151.79C194.893 151.785 194.917 151.78 194.942 151.775C194.97 151.77 194.998 151.764 195.026 151.759C195.05 151.754 195.074 151.749 195.098 151.742C195.125 151.737 195.152 151.732 195.179 151.724C195.203 151.719 195.226 151.711 195.25 151.706C195.275 151.699 195.301 151.694 195.326 151.686C195.349 151.679 195.372 151.671 195.394 151.666C195.419 151.658 195.443 151.651 195.467 151.643L195.534 151.621C195.557 151.613 195.58 151.605 195.603 151.598L195.667 151.573L195.732 151.547L195.794 151.522L195.855 151.494L195.914 151.467L195.971 151.436L196.027 151.406L196.081 151.376L196.134 151.345L196.184 151.312L196.233 151.28L196.28 151.244L196.326 151.211L196.369 151.176L196.412 151.138L196.451 151.103L196.489 151.065L196.525 151.027L196.56 150.989L196.592 150.949L196.622 150.908L196.651 150.868L196.677 150.828L196.701 150.785L196.724 150.742L196.745 150.699L196.762 150.656L196.779 150.608L196.792 150.568L196.805 150.517L196.814 150.477L196.822 150.424L196.827 150.386L196.831 150.328L196.832 150.292L196.83 150.227L196.828 150.196C196.825 150.171 196.822 150.148 196.818 150.123L196.815 150.098C196.81 150.07 196.803 150.042 196.796 150.015L196.792 149.999L196.791 149.992C196.782 149.961 196.772 149.931 196.761 149.898H196.761C196.753 149.876 196.743 149.853 196.734 149.83L194.438 144.358L190.668 135.358L188.379 129.886C188.369 129.863 188.359 129.84 188.348 129.815Z" fill="#75C3B9"/>
<path d="M190.331 129.007L198.686 148.951C198.709 149.004 198.728 149.06 198.743 149.113C199.032 150.163 197.752 150.994 195.766 150.999L115.436 151.141C113.447 151.143 112.223 150.317 112.589 149.267C112.607 149.211 112.63 149.158 112.657 149.103L122.482 129.148C122.493 129.125 122.505 129.103 122.518 129.078C123.109 127.982 124.793 127.103 126.331 127.1L186.643 126.971C188.177 126.969 189.791 127.843 190.3 128.936C190.311 128.961 190.321 128.984 190.331 129.007Z" fill="#51B3A7"/>
<path d="M192.94 143.284C191.663 143.57 190.426 143.961 189.274 144.469C186.842 145.517 185.123 146.885 184.203 148.347L127.161 148.448C126.345 146.991 124.722 145.63 122.361 144.59C121.021 143.989 119.547 143.549 118.014 143.267L122.47 133.595C124.075 133.307 125.734 132.863 127.37 132.254C130.146 131.203 132.406 129.83 133.97 128.365L178.874 128.272C180.326 129.731 182.48 131.097 185.174 132.138C186.495 132.64 187.841 133.027 189.168 133.307L192.94 143.284ZM190.301 128.249C189.792 127.153 188.177 126.279 186.644 126.282L177.392 126.302L135.602 126.39L126.331 126.411C124.794 126.413 123.11 127.294 122.518 128.388C122.506 128.413 122.494 128.436 122.482 128.459L119.784 133.933L115.35 142.938L112.657 148.416C112.646 148.438 112.635 148.461 112.626 148.484L112.625 148.486C112.612 148.517 112.6 148.547 112.589 148.577L112.587 148.585L112.582 148.6C112.573 148.628 112.565 148.655 112.558 148.683L112.552 148.709C112.547 148.734 112.541 148.756 112.538 148.779L112.533 148.815L112.526 148.875L112.525 148.913L112.524 148.969L112.527 149.009L112.531 149.062L112.538 149.105L112.547 149.153L112.557 149.196L112.57 149.241L112.586 149.284L112.603 149.327L112.623 149.37L112.644 149.411L112.668 149.453L112.692 149.491L112.721 149.534L112.749 149.572L112.782 149.613L112.814 149.648L112.851 149.686L112.887 149.721L112.928 149.759L112.967 149.792L113.013 149.83L113.055 149.86L113.104 149.895L113.15 149.926L113.203 149.959L113.252 149.986L113.309 150.019L113.362 150.044L113.421 150.075L113.478 150.1L113.54 150.128L113.601 150.153L113.667 150.178L113.731 150.201C113.753 150.208 113.776 150.216 113.799 150.224C113.821 150.231 113.844 150.236 113.867 150.244C113.891 150.251 113.914 150.259 113.937 150.264C113.961 150.272 113.986 150.277 114.01 150.284C114.034 150.289 114.057 150.297 114.082 150.302C114.107 150.31 114.133 150.315 114.159 150.32C114.183 150.325 114.207 150.332 114.233 150.337C114.259 150.342 114.286 150.347 114.314 150.352C114.339 150.357 114.363 150.363 114.389 150.365C114.417 150.37 114.446 150.375 114.475 150.38C114.5 150.383 114.525 150.388 114.551 150.393C114.58 150.395 114.611 150.4 114.641 150.403C114.667 150.405 114.692 150.411 114.718 150.413C114.749 150.416 114.782 150.418 114.814 150.423C114.839 150.423 114.865 150.428 114.89 150.428C114.925 150.431 114.96 150.433 114.995 150.436C115.019 150.438 115.043 150.441 115.068 150.441C115.108 150.443 115.148 150.443 115.188 150.446L115.25 150.448C115.311 150.448 115.373 150.451 115.436 150.451H115.437L127.782 150.428L183.441 150.33L195.767 150.31C195.83 150.31 195.893 150.307 195.954 150.307L196.014 150.304C196.055 150.302 196.096 150.302 196.137 150.299C196.161 150.297 196.185 150.294 196.209 150.294C196.244 150.292 196.279 150.289 196.315 150.287C196.34 150.284 196.365 150.282 196.39 150.279C196.423 150.274 196.456 150.272 196.488 150.269C196.514 150.267 196.539 150.262 196.564 150.259C196.595 150.256 196.626 150.251 196.657 150.246C196.682 150.244 196.707 150.239 196.732 150.236C196.762 150.231 196.791 150.226 196.82 150.221C196.846 150.216 196.87 150.211 196.894 150.206C196.923 150.201 196.951 150.196 196.978 150.191C197.003 150.186 197.027 150.181 197.051 150.176C197.078 150.168 197.105 150.163 197.131 150.155C197.155 150.15 197.178 150.145 197.202 150.138C197.228 150.133 197.253 150.125 197.278 150.118C197.302 150.113 197.324 150.105 197.347 150.097C197.372 150.09 197.396 150.082 197.42 150.075L197.487 150.052C197.509 150.044 197.533 150.037 197.555 150.029L197.619 150.004L197.685 149.979L197.746 149.953L197.807 149.926L197.866 149.898L197.924 149.868L197.98 149.837L198.034 149.807L198.087 149.777L198.137 149.744L198.186 149.711L198.233 149.678L198.279 149.643L198.322 149.607L198.365 149.572L198.403 149.534L198.442 149.496L198.478 149.458L198.512 149.421L198.544 149.38L198.575 149.34L198.603 149.299L198.629 149.259L198.654 149.216L198.676 149.176L198.697 149.13L198.715 149.087L198.732 149.042L198.745 148.999L198.758 148.948L198.767 148.911L198.775 148.855L198.78 148.817L198.784 148.759L198.785 148.724L198.783 148.658L198.781 148.628C198.778 148.602 198.775 148.58 198.771 148.554L198.768 148.529C198.763 148.501 198.756 148.474 198.749 148.446L198.743 148.423C198.735 148.393 198.725 148.363 198.714 148.332L198.714 148.33C198.705 148.307 198.696 148.284 198.687 148.262L196.391 142.789L192.621 133.789L190.331 128.317C190.322 128.294 190.312 128.272 190.301 128.249Z" fill="#75C3B9"/>
<path d="M189.672 127.304L198.027 147.248C198.049 147.304 198.069 147.357 198.083 147.41C198.373 148.463 197.093 149.294 195.107 149.296L114.777 149.438C112.788 149.44 111.564 148.617 111.929 147.564C111.948 147.511 111.971 147.455 111.997 147.402L121.822 127.445C121.834 127.423 121.846 127.4 121.859 127.377C122.45 126.281 124.134 125.4 125.671 125.397L185.984 125.269C187.518 125.266 189.132 126.14 189.641 127.236C189.652 127.258 189.662 127.281 189.672 127.304Z" fill="#51B3A7"/>
<path d="M192.28 141.584C191.003 141.867 189.767 142.261 188.615 142.766C186.183 143.814 184.463 145.182 183.544 146.645L126.502 146.746C125.686 145.288 124.062 143.927 121.701 142.889C120.361 142.286 118.887 141.847 117.355 141.566L121.81 131.892C123.416 131.604 125.075 131.16 126.71 130.551C129.486 129.501 131.747 128.129 133.31 126.662L178.214 126.571C179.666 128.031 181.821 129.395 184.514 130.435C185.835 130.937 187.182 131.326 188.508 131.604L192.28 141.584ZM189.641 126.546C189.132 125.45 187.518 124.576 185.984 124.579L176.732 124.599L134.943 124.687L125.672 124.708C124.134 124.71 122.451 125.591 121.859 126.687C121.846 126.71 121.834 126.733 121.823 126.756L119.124 132.233L114.691 141.238L111.998 146.713C111.987 146.735 111.976 146.758 111.966 146.781L111.966 146.783C111.953 146.814 111.941 146.844 111.93 146.874L111.928 146.882L111.923 146.897C111.914 146.925 111.905 146.953 111.898 146.98L111.893 147.008C111.887 147.031 111.882 147.056 111.878 147.079L111.874 147.112L111.867 147.175L111.866 147.213L111.865 147.268L111.867 147.309L111.872 147.359L111.878 147.402L111.887 147.45L111.898 147.493L111.911 147.538L111.927 147.581L111.944 147.624L111.963 147.667L111.984 147.708L112.009 147.751L112.033 147.791L112.062 147.831L112.09 147.869L112.123 147.91L112.155 147.945L112.192 147.985L112.228 148.018L112.269 148.056L112.308 148.091L112.353 148.127L112.396 148.16L112.445 148.193L112.491 148.223L112.544 148.256L112.593 148.286L112.649 148.316L112.702 148.344L112.762 148.372L112.819 148.4L112.881 148.425L112.942 148.45L113.007 148.475L113.072 148.498C113.094 148.506 113.117 148.513 113.139 148.521C113.161 148.528 113.185 148.536 113.208 148.541C113.231 148.549 113.254 148.556 113.278 148.564C113.302 148.569 113.326 148.576 113.351 148.581C113.375 148.589 113.398 148.594 113.423 148.602C113.448 148.607 113.473 148.612 113.499 148.619C113.524 148.624 113.548 148.629 113.573 148.634C113.6 148.639 113.627 148.645 113.654 148.65C113.679 148.655 113.704 148.66 113.729 148.665C113.758 148.67 113.786 148.672 113.815 148.677C113.84 148.682 113.866 148.685 113.892 148.69C113.921 148.695 113.952 148.698 113.982 148.7C114.007 148.705 114.033 148.708 114.059 148.71C114.09 148.715 114.122 148.718 114.154 148.72C114.18 148.723 114.205 148.725 114.231 148.728C114.265 148.73 114.3 148.733 114.335 148.735C114.359 148.735 114.384 148.738 114.408 148.738C114.448 148.74 114.489 148.743 114.529 148.743L114.591 148.746C114.652 148.748 114.714 148.748 114.776 148.748H114.778L127.123 148.725L182.782 148.629L195.108 148.607C195.171 148.607 195.233 148.607 195.295 148.604L195.355 148.602C195.396 148.602 195.437 148.599 195.477 148.597C195.501 148.594 195.525 148.594 195.549 148.591C195.585 148.589 195.62 148.586 195.656 148.584C195.681 148.581 195.705 148.579 195.731 148.576C195.763 148.574 195.797 148.571 195.829 148.566C195.855 148.564 195.879 148.561 195.904 148.559C195.935 148.554 195.967 148.549 195.998 148.546C196.023 148.541 196.048 148.538 196.072 148.533C196.102 148.528 196.132 148.523 196.161 148.518C196.186 148.516 196.211 148.511 196.235 148.506C196.264 148.501 196.292 148.496 196.319 148.488C196.344 148.483 196.368 148.478 196.392 148.473C196.419 148.468 196.446 148.46 196.472 148.455C196.496 148.448 196.519 148.443 196.543 148.437C196.568 148.43 196.594 148.422 196.619 148.415C196.642 148.41 196.665 148.402 196.688 148.395C196.712 148.389 196.737 148.382 196.761 148.374L196.827 148.352C196.85 148.344 196.873 148.336 196.896 148.326L196.96 148.304L197.025 148.276L197.087 148.251L197.148 148.223L197.207 148.195L197.265 148.167L197.321 148.137L197.374 148.107L197.427 148.074L197.477 148.044L197.527 148.008L197.573 147.975L197.62 147.94L197.663 147.905L197.705 147.869L197.744 147.831L197.783 147.796L197.818 147.758L197.853 147.718L197.885 147.68L197.915 147.639L197.944 147.597L197.97 147.556L197.995 147.513L198.017 147.473L198.038 147.427L198.055 147.387L198.073 147.339L198.086 147.299L198.098 147.248L198.107 147.208L198.116 147.155L198.121 147.114L198.124 147.056L198.125 147.021L198.123 146.958L198.121 146.925C198.119 146.902 198.115 146.877 198.112 146.854L198.108 146.829C198.103 146.801 198.097 146.773 198.09 146.743L198.086 146.728L198.084 146.72C198.076 146.69 198.066 146.66 198.055 146.629H198.054C198.046 146.604 198.037 146.581 198.027 146.559L195.732 141.086L191.962 132.086L189.672 126.614C189.662 126.591 189.652 126.569 189.641 126.546Z" fill="#75C3B9"/>
<path d="M191.503 125.601L199.858 145.545C199.881 145.599 199.9 145.652 199.915 145.707C200.204 146.758 198.924 147.588 196.938 147.591L116.608 147.732C114.619 147.737 113.395 146.912 113.761 145.859C113.779 145.806 113.802 145.753 113.829 145.697L123.653 125.742C123.665 125.717 123.677 125.694 123.69 125.672C124.281 124.576 125.965 123.697 127.502 123.692L187.815 123.566C189.349 123.561 190.963 124.437 191.472 125.53C191.483 125.553 191.493 125.578 191.503 125.601Z" fill="#51B3A7"/>
<path d="M194.112 139.879C192.835 140.164 191.598 140.555 190.446 141.063C188.014 142.111 186.295 143.48 185.375 144.939L128.333 145.043C127.517 143.586 125.894 142.222 123.533 141.184C122.193 140.583 120.719 140.144 119.186 139.861L123.642 130.189C125.247 129.901 126.906 129.457 128.542 128.848C131.318 127.798 133.578 126.424 135.142 124.959L180.046 124.866C181.498 126.325 183.652 127.692 186.346 128.732C187.667 129.232 189.013 129.621 190.34 129.899L194.112 139.879ZM191.473 124.841C190.964 123.747 189.349 122.873 187.816 122.876L178.564 122.896L136.775 122.985L127.504 123.002C125.966 123.007 124.282 123.886 123.69 124.982C123.678 125.005 123.666 125.03 123.654 125.053L120.955 130.527L116.522 139.533L113.83 145.007C113.818 145.03 113.807 145.055 113.798 145.078H113.797C113.784 145.108 113.772 145.141 113.761 145.169L113.759 145.179L113.754 145.194C113.745 145.222 113.737 145.25 113.73 145.278L113.724 145.303C113.719 145.328 113.713 145.351 113.71 145.373L113.706 145.406L113.699 145.469L113.697 145.507L113.696 145.563L113.699 145.603L113.703 145.656L113.71 145.697L113.719 145.745L113.729 145.788L113.742 145.833L113.758 145.879L113.775 145.921L113.795 145.962L113.816 146.005L113.84 146.048L113.864 146.086L113.893 146.129L113.922 146.164L113.954 146.204L113.986 146.242L114.024 146.28L114.059 146.315L114.1 146.353L114.139 146.386L114.184 146.421L114.227 146.454L114.276 146.49L114.322 146.52L114.375 146.553L114.425 146.581L114.481 146.611L114.534 146.639L114.593 146.669L114.65 146.694L114.712 146.722L114.773 146.745L114.838 146.77L114.903 146.793C114.926 146.8 114.948 146.81 114.971 146.815C114.993 146.823 115.016 146.831 115.039 146.838C115.063 146.846 115.085 146.851 115.109 146.858C115.133 146.866 115.158 146.871 115.182 146.879C115.206 146.884 115.229 146.891 115.254 146.896C115.279 146.904 115.305 146.909 115.331 146.914C115.355 146.919 115.379 146.924 115.405 146.932C115.431 146.937 115.458 146.942 115.485 146.947C115.51 146.952 115.535 146.957 115.561 146.959C115.589 146.964 115.618 146.969 115.647 146.974C115.672 146.977 115.697 146.982 115.723 146.985C115.753 146.99 115.783 146.992 115.813 146.997C115.839 147 115.864 147.002 115.89 147.007C115.922 147.01 115.954 147.012 115.986 147.015C116.011 147.017 116.036 147.02 116.062 147.022C116.097 147.025 116.132 147.028 116.166 147.03C116.191 147.033 116.215 147.033 116.24 147.035C116.28 147.038 116.32 147.038 116.36 147.04L116.422 147.043C116.483 147.043 116.545 147.045 116.608 147.045H116.609L128.954 147.022L184.613 146.924L196.939 146.904C197.002 146.904 197.065 146.901 197.126 146.899L197.186 146.896C197.227 146.896 197.268 146.894 197.308 146.891C197.333 146.891 197.357 146.889 197.381 146.886C197.416 146.884 197.452 146.884 197.487 146.879C197.512 146.879 197.537 146.876 197.562 146.873C197.595 146.868 197.628 146.866 197.66 146.863C197.686 146.861 197.711 146.856 197.736 146.853C197.767 146.848 197.799 146.846 197.829 146.841C197.854 146.838 197.879 146.833 197.904 146.828C197.933 146.825 197.963 146.82 197.993 146.815C198.018 146.81 198.042 146.805 198.066 146.8C198.095 146.795 198.123 146.79 198.15 146.785C198.175 146.78 198.199 146.775 198.223 146.767C198.25 146.762 198.277 146.757 198.303 146.75C198.327 146.745 198.35 146.737 198.374 146.732C198.4 146.724 198.425 146.719 198.45 146.712C198.474 146.704 198.496 146.697 198.519 146.692C198.544 146.684 198.568 146.676 198.592 146.669L198.659 146.646C198.682 146.639 198.705 146.631 198.728 146.623L198.792 146.598L198.856 146.573L198.918 146.545L198.979 146.52L199.038 146.492L199.096 146.462L199.152 146.432L199.206 146.401L199.258 146.371L199.309 146.338L199.358 146.305L199.405 146.27L199.451 146.237L199.494 146.202L199.537 146.164L199.576 146.129L199.614 146.091L199.65 146.053L199.684 146.015L199.716 145.974L199.747 145.934L199.775 145.894L199.801 145.853L199.826 145.81L199.848 145.767L199.87 145.724L199.887 145.682L199.904 145.634L199.917 145.593L199.93 145.543L199.939 145.502L199.947 145.449L199.952 145.411L199.955 145.353L199.957 145.315L199.955 145.252L199.953 145.222C199.95 145.197 199.947 145.174 199.943 145.149L199.94 145.123C199.934 145.096 199.928 145.068 199.921 145.04L199.917 145.025L199.915 145.017C199.907 144.987 199.897 144.957 199.886 144.924H199.885C199.877 144.901 199.868 144.879 199.859 144.856L197.563 139.381L193.793 130.384L191.504 124.911C191.494 124.889 191.484 124.863 191.473 124.841Z" fill="#75C3B9"/>
<path d="M190.062 123.77L198.418 143.714C198.44 143.77 198.459 143.823 198.474 143.876C198.764 144.929 197.483 145.76 195.498 145.762L115.168 145.904C113.179 145.906 111.955 145.081 112.32 144.03C112.339 143.977 112.362 143.922 112.388 143.868L122.213 123.911C122.224 123.889 122.237 123.866 122.249 123.843C122.841 122.747 124.524 121.866 126.062 121.863L186.374 121.735C187.908 121.732 189.523 122.606 190.031 123.702C190.043 123.725 190.053 123.747 190.062 123.77Z" fill="#51B3A7"/>
<path d="M192.671 138.05C191.394 138.333 190.157 138.727 189.006 139.232C186.574 140.28 184.854 141.648 183.934 143.111L126.893 143.212C126.077 141.755 124.453 140.393 122.092 139.356C120.752 138.752 119.278 138.313 117.746 138.032L122.201 128.358C123.807 128.07 125.466 127.626 127.101 127.017C129.877 125.967 132.137 124.595 133.701 123.128L178.605 123.035C180.057 124.497 182.211 125.861 184.905 126.901C186.227 127.404 187.573 127.792 188.899 128.07L192.671 138.05ZM190.032 123.012C189.523 121.916 187.909 121.042 186.375 121.045L177.123 121.065L135.334 121.154L126.063 121.174C124.525 121.176 122.841 122.058 122.25 123.154C122.237 123.176 122.225 123.199 122.213 123.222L119.515 128.699L115.081 137.701L112.389 143.179C112.377 143.201 112.367 143.224 112.357 143.247L112.356 143.249C112.343 143.28 112.331 143.31 112.321 143.34L112.318 143.348L112.314 143.363C112.305 143.391 112.296 143.419 112.289 143.446L112.283 143.474C112.278 143.497 112.273 143.52 112.269 143.545L112.265 143.578L112.258 143.641L112.257 143.676L112.256 143.734L112.258 143.775L112.262 143.825L112.269 143.868L112.278 143.916L112.289 143.959L112.302 144.005L112.317 144.047L112.334 144.09L112.354 144.133L112.375 144.174L112.399 144.217L112.424 144.257L112.453 144.297L112.481 144.335L112.514 144.376L112.546 144.411L112.583 144.451L112.618 144.484L112.66 144.522L112.698 144.558L112.744 144.593L112.786 144.626L112.835 144.659L112.882 144.689L112.934 144.722L112.984 144.752L113.04 144.782L113.093 144.81L113.153 144.838L113.21 144.866L113.272 144.891L113.333 144.916L113.398 144.941L113.462 144.964C113.485 144.972 113.507 144.979 113.53 144.987C113.552 144.994 113.576 145.002 113.599 145.007C113.622 145.015 113.645 145.022 113.668 145.03C113.692 145.035 113.717 145.042 113.741 145.047C113.765 145.055 113.789 145.06 113.813 145.068C113.838 145.073 113.864 145.078 113.89 145.085C113.915 145.09 113.939 145.095 113.964 145.1C113.99 145.106 114.017 145.111 114.045 145.116C114.07 145.121 114.095 145.126 114.12 145.131C114.148 145.136 114.177 145.138 114.206 145.143C114.231 145.148 114.257 145.151 114.282 145.156C114.312 145.161 114.342 145.164 114.373 145.166C114.398 145.171 114.423 145.174 114.449 145.176C114.481 145.181 114.513 145.184 114.545 145.186C114.571 145.189 114.596 145.191 114.622 145.194C114.656 145.196 114.691 145.199 114.726 145.201C114.75 145.201 114.775 145.204 114.799 145.204C114.839 145.207 114.879 145.209 114.919 145.209L114.982 145.212C115.042 145.214 115.105 145.214 115.167 145.214H115.169L127.514 145.191L183.173 145.095L195.499 145.073C195.562 145.073 195.624 145.073 195.685 145.07L195.745 145.068C195.787 145.065 195.828 145.065 195.868 145.063C195.892 145.06 195.916 145.06 195.94 145.058C195.975 145.055 196.011 145.052 196.046 145.05C196.072 145.047 196.096 145.045 196.122 145.042C196.154 145.04 196.187 145.037 196.22 145.032C196.246 145.03 196.27 145.027 196.295 145.025C196.326 145.02 196.358 145.015 196.388 145.012C196.413 145.007 196.438 145.005 196.463 144.999C196.493 144.994 196.523 144.989 196.552 144.984C196.577 144.982 196.601 144.977 196.626 144.972C196.654 144.967 196.682 144.962 196.71 144.954C196.735 144.949 196.758 144.944 196.783 144.939C196.809 144.934 196.836 144.926 196.862 144.921C196.887 144.914 196.91 144.909 196.934 144.901C196.959 144.896 196.985 144.888 197.01 144.881C197.033 144.876 197.056 144.868 197.078 144.861C197.103 144.853 197.128 144.848 197.152 144.84L197.218 144.818C197.241 144.81 197.264 144.8 197.287 144.792L197.351 144.77L197.416 144.742L197.477 144.717L197.539 144.689L197.598 144.661L197.656 144.633L197.711 144.603L197.765 144.573L197.818 144.54L197.868 144.507L197.917 144.474L197.964 144.441L198.01 144.406L198.053 144.371L198.096 144.335L198.135 144.297L198.173 144.262L198.209 144.224L198.244 144.184L198.276 144.146L198.306 144.106L198.335 144.063L198.361 144.022L198.385 143.979L198.408 143.939L198.429 143.893L198.446 143.853L198.463 143.805L198.477 143.765L198.489 143.714L198.498 143.674L198.506 143.621L198.512 143.58L198.515 143.522L198.516 143.487L198.514 143.424L198.512 143.391C198.509 143.368 198.506 143.343 198.502 143.32L198.499 143.292C198.494 143.265 198.488 143.239 198.48 143.209L198.477 143.194L198.475 143.186C198.466 143.156 198.456 143.126 198.445 143.095L198.445 143.093C198.437 143.07 198.428 143.047 198.418 143.025L196.123 137.552L192.352 128.553L190.063 123.08C190.053 123.058 190.043 123.035 190.032 123.012Z" fill="#75C3B9"/>
<path d="M190.844 121.811L199.199 141.755C199.222 141.808 199.24 141.864 199.255 141.917C199.546 142.967 198.264 143.798 196.279 143.803L115.949 143.945C113.96 143.947 112.736 143.121 113.101 142.071C113.121 142.015 113.143 141.962 113.17 141.907L122.994 121.952C123.006 121.929 123.018 121.907 123.031 121.881C123.622 120.786 125.306 119.907 126.843 119.904L187.156 119.775C188.689 119.773 190.304 120.647 190.813 121.743C190.824 121.765 190.834 121.788 190.844 121.811Z" fill="#51B3A7"/>
<path d="M193.453 136.088C192.175 136.374 190.939 136.768 189.787 137.273C187.355 138.321 185.635 139.689 184.716 141.151L127.674 141.252C126.858 139.795 125.234 138.434 122.873 137.394C121.534 136.793 120.06 136.353 118.527 136.071L122.983 126.399C124.588 126.111 126.247 125.667 127.882 125.058C130.659 124.007 132.918 122.634 134.483 121.169L179.386 121.076C180.838 122.535 182.992 123.901 185.686 124.942C187.008 125.444 188.354 125.831 189.68 126.111L193.453 136.088ZM190.813 121.053C190.304 119.957 188.69 119.083 187.156 119.086L177.904 119.106L136.115 119.194L126.844 119.214C125.307 119.217 123.623 120.098 123.031 121.194C123.018 121.217 123.006 121.24 122.995 121.262L120.296 126.737L115.863 135.742L113.17 141.22C113.159 141.242 113.148 141.265 113.138 141.288L113.138 141.29C113.125 141.321 113.113 141.351 113.102 141.381L113.1 141.389L113.095 141.404C113.086 141.432 113.077 141.459 113.07 141.487L113.065 141.512C113.059 141.538 113.054 141.56 113.05 141.583L113.046 141.619L113.039 141.679L113.038 141.717L113.037 141.773L113.039 141.813L113.044 141.866L113.05 141.909L113.059 141.957L113.07 142L113.083 142.045L113.098 142.088L113.115 142.131L113.136 142.174L113.156 142.215L113.181 142.257L113.205 142.295L113.234 142.338L113.262 142.376L113.295 142.417L113.327 142.452L113.364 142.492L113.399 142.525L113.441 142.563L113.48 142.596L113.525 142.634L113.567 142.664L113.617 142.699L113.663 142.73L113.716 142.762L113.765 142.79L113.821 142.823L113.874 142.851L113.934 142.879L113.991 142.904L114.053 142.932L114.114 142.957L114.179 142.982L114.244 143.005C114.266 143.012 114.288 143.02 114.311 143.028C114.334 143.035 114.357 143.04 114.38 143.048C114.403 143.055 114.426 143.063 114.45 143.068C114.474 143.076 114.498 143.081 114.522 143.088C114.547 143.093 114.57 143.101 114.595 143.106C114.62 143.113 114.645 143.119 114.671 143.124C114.696 143.131 114.72 143.136 114.745 143.141C114.772 143.146 114.799 143.151 114.826 143.156C114.851 143.161 114.876 143.167 114.901 143.172C114.93 143.174 114.959 143.179 114.987 143.184C115.013 143.189 115.038 143.192 115.063 143.197C115.093 143.199 115.123 143.204 115.154 143.207C115.179 143.212 115.205 143.215 115.231 143.217C115.262 143.22 115.295 143.222 115.327 143.227C115.352 143.227 115.377 143.232 115.403 143.232C115.437 143.237 115.472 143.237 115.507 143.24C115.532 143.242 115.556 143.245 115.581 143.245C115.62 143.247 115.661 143.247 115.701 143.25L115.763 143.252C115.824 143.255 115.886 143.255 115.948 143.255H115.95L128.295 143.232L183.954 143.136L196.28 143.113C196.343 143.113 196.405 143.111 196.467 143.111L196.527 143.108C196.568 143.106 196.609 143.106 196.649 143.103C196.673 143.101 196.697 143.098 196.721 143.098C196.757 143.096 196.792 143.093 196.828 143.091C196.853 143.088 196.878 143.086 196.903 143.083C196.935 143.081 196.968 143.076 197.001 143.073C197.027 143.071 197.052 143.066 197.076 143.063C197.108 143.06 197.139 143.055 197.169 143.05C197.195 143.048 197.219 143.043 197.244 143.04C197.274 143.035 197.304 143.03 197.333 143.025C197.358 143.02 197.383 143.015 197.407 143.012C197.436 143.005 197.464 143 197.491 142.995C197.516 142.99 197.54 142.985 197.564 142.98C197.591 142.972 197.618 142.967 197.644 142.959C197.668 142.954 197.691 142.949 197.715 142.942C197.741 142.937 197.766 142.929 197.791 142.922C197.814 142.917 197.837 142.909 197.86 142.901C197.884 142.894 197.909 142.886 197.933 142.879L197.999 142.856C198.022 142.848 198.045 142.841 198.068 142.833L198.132 142.808L198.197 142.783L198.259 142.757L198.32 142.73L198.379 142.702L198.437 142.672L198.493 142.641L198.547 142.611L198.599 142.581L198.65 142.548L198.699 142.515L198.745 142.482L198.791 142.447L198.835 142.411L198.877 142.376L198.916 142.338L198.955 142.3L198.99 142.262L199.025 142.225L199.057 142.184L199.087 142.146L199.116 142.103L199.142 142.063L199.167 142.02L199.189 141.98L199.21 141.934L199.227 141.894L199.244 141.846L199.258 141.803L199.27 141.752L199.279 141.714L199.288 141.659L199.293 141.621L199.296 141.563L199.297 141.528L199.295 141.462L199.293 141.432C199.291 141.406 199.287 141.384 199.284 141.358L199.28 141.333C199.275 141.305 199.269 141.278 199.261 141.25L199.258 141.235L199.256 141.227C199.247 141.197 199.237 141.167 199.227 141.136L199.226 141.134C199.218 141.111 199.209 141.088 199.199 141.066L196.904 135.593L193.134 126.593L190.844 121.121C190.835 121.098 190.825 121.076 190.813 121.053Z" fill="#75C3B9"/>
<path d="M188.768 119.845L197.123 139.787C197.146 139.843 197.165 139.896 197.18 139.951C197.47 141.002 196.189 141.833 194.204 141.835L113.874 141.977C111.885 141.982 110.661 141.156 111.026 140.103C111.045 140.05 111.067 139.997 111.094 139.941L120.919 119.987C120.931 119.964 120.942 119.939 120.955 119.916C121.547 118.82 123.231 117.941 124.768 117.936L185.08 117.81C186.614 117.805 188.229 118.681 188.737 119.775C188.749 119.797 188.759 119.82 188.768 119.845Z" fill="#51B3A7"/>
<path d="M188.768 119.156L197.124 139.1C197.147 139.153 197.166 139.209 197.18 139.262C197.47 140.312 196.19 141.143 194.204 141.148L113.874 141.29C111.885 141.292 110.661 140.466 111.026 139.413C111.045 139.36 111.068 139.307 111.094 139.252L120.919 119.297C120.931 119.274 120.943 119.249 120.955 119.226C121.547 118.13 123.231 117.252 124.768 117.247L185.081 117.12C186.614 117.118 188.229 117.992 188.738 119.085C188.749 119.11 188.759 119.133 188.768 119.156Z" fill="#BCE2DD"/>
<path d="M191.378 134.123C190.101 134.408 188.864 134.8 187.712 135.307C185.28 136.355 183.56 137.724 182.641 139.183L125.599 139.287C124.783 137.83 123.159 136.466 120.799 135.428C119.459 134.827 117.984 134.388 116.452 134.105L120.907 124.434C122.513 124.146 124.172 123.701 125.807 123.093C128.584 122.042 130.844 120.668 132.407 119.204L177.311 119.11C178.764 120.57 180.918 121.936 183.612 122.976C184.933 123.476 186.279 123.865 187.606 124.143L191.378 134.123ZM188.738 119.085C188.229 117.992 186.615 117.118 185.081 117.12L175.829 117.141L134.04 117.229L124.769 117.247C123.232 117.252 121.548 118.13 120.956 119.226C120.943 119.249 120.931 119.274 120.92 119.297L118.221 124.772L113.788 133.777L111.095 139.252C111.084 139.274 111.073 139.3 111.064 139.322H111.063C111.05 139.355 111.038 139.386 111.027 139.413L111.025 139.423L111.02 139.439C111.011 139.466 111.003 139.494 110.995 139.522L110.99 139.547C110.984 139.572 110.979 139.595 110.975 139.618L110.971 139.651L110.964 139.714L110.963 139.752L110.962 139.807L110.965 139.848L110.969 139.901L110.975 139.941L110.984 139.992L110.995 140.035L111.008 140.077L111.024 140.12L111.04 140.166L111.06 140.209L111.081 140.249L111.106 140.292L111.13 140.33L111.159 140.373L111.187 140.408L111.22 140.449L111.252 140.487L111.289 140.524L111.324 140.56L111.366 140.598L111.405 140.63L111.45 140.666L111.493 140.699L111.542 140.734L111.588 140.764L111.64 140.797L111.69 140.825L111.746 140.855L111.799 140.883L111.859 140.913L111.916 140.939L111.978 140.966L112.039 140.992L112.104 141.014L112.169 141.037C112.191 141.047 112.213 141.055 112.237 141.062C112.259 141.067 112.282 141.075 112.305 141.082C112.328 141.09 112.351 141.095 112.375 141.103C112.399 141.11 112.424 141.115 112.448 141.123C112.472 141.128 112.495 141.136 112.52 141.141C112.545 141.148 112.571 141.153 112.596 141.158C112.621 141.163 112.645 141.171 112.67 141.176C112.697 141.181 112.724 141.186 112.751 141.191C112.776 141.196 112.801 141.201 112.827 141.204C112.855 141.209 112.884 141.214 112.912 141.219C112.938 141.221 112.963 141.226 112.988 141.229C113.018 141.234 113.049 141.237 113.079 141.242C113.105 141.244 113.13 141.249 113.156 141.252C113.187 141.254 113.22 141.257 113.251 141.259C113.277 141.262 113.302 141.264 113.328 141.267C113.362 141.269 113.398 141.272 113.432 141.274C113.457 141.277 113.481 141.277 113.506 141.279C113.546 141.282 113.586 141.282 113.626 141.285L113.688 141.287C113.749 141.287 113.811 141.29 113.874 141.29H113.875L126.22 141.267L181.879 141.168L194.205 141.148C194.268 141.148 194.33 141.146 194.392 141.143H194.452C194.493 141.141 194.534 141.138 194.574 141.136C194.599 141.136 194.622 141.133 194.647 141.13C194.682 141.13 194.717 141.128 194.753 141.125C194.778 141.123 194.803 141.12 194.828 141.118C194.86 141.113 194.893 141.11 194.926 141.108C194.952 141.103 194.977 141.1 195.002 141.098C195.033 141.093 195.064 141.09 195.094 141.085C195.12 141.082 195.145 141.077 195.17 141.075C195.199 141.07 195.229 141.065 195.258 141.06C195.283 141.055 195.308 141.05 195.332 141.045C195.361 141.04 195.389 141.035 195.416 141.029C195.441 141.024 195.465 141.019 195.489 141.012C195.516 141.007 195.542 141.002 195.569 140.994C195.593 140.989 195.616 140.981 195.64 140.976C195.665 140.969 195.691 140.964 195.716 140.956C195.739 140.949 195.762 140.944 195.785 140.936C195.81 140.928 195.834 140.921 195.858 140.913L195.925 140.891C195.947 140.883 195.971 140.875 195.993 140.868L196.057 140.843L196.122 140.817L196.184 140.792L196.245 140.764L196.304 140.737L196.362 140.706L196.418 140.676L196.472 140.646L196.524 140.615L196.575 140.582L196.624 140.55L196.671 140.514L196.717 140.481L196.76 140.446L196.802 140.411L196.841 140.373L196.88 140.335L196.916 140.297L196.95 140.259L196.982 140.219L197.012 140.178L197.041 140.138L197.067 140.098L197.092 140.055L197.114 140.012L197.135 139.969L197.153 139.926L197.17 139.878L197.183 139.838L197.196 139.787L197.205 139.747L197.213 139.694L197.218 139.656L197.221 139.598L197.223 139.562L197.22 139.497L197.218 139.466C197.216 139.441 197.213 139.418 197.209 139.393L197.206 139.368C197.2 139.34 197.194 139.312 197.186 139.285L197.181 139.262C197.173 139.231 197.162 139.201 197.152 139.168H197.151C197.143 139.146 197.134 139.123 197.124 139.1L194.829 133.628L191.059 124.628L188.769 119.156C188.759 119.133 188.75 119.11 188.738 119.085Z" fill="#75C3B9"/>
<path d="M163.234 128.708C163.234 131.971 159.075 134.617 153.943 134.617C148.813 134.617 144.653 131.971 144.653 128.708C144.653 125.443 148.813 122.797 153.943 122.797C159.075 122.797 163.234 125.443 163.234 128.708Z" fill="#75C3B9"/>
<path d="M138.539 128.63C138.554 129.868 136.809 130.891 134.641 130.918C132.474 130.944 130.703 129.964 130.689 128.729C130.673 127.492 132.418 126.469 134.586 126.441C136.754 126.413 138.524 127.396 138.539 128.63Z" fill="#5D9DA4"/>
<path d="M134.662 131.508C132.013 131.541 129.849 130.344 129.831 128.831C129.812 127.321 131.945 126.068 134.594 126.038C137.244 126.005 139.407 127.202 139.426 128.715C139.444 130.225 137.312 131.475 134.662 131.508ZM134.592 125.788C131.701 125.823 129.374 127.19 129.395 128.839C129.415 130.485 131.774 131.793 134.665 131.758C137.556 131.722 139.882 130.356 139.862 128.71C139.842 127.061 137.482 125.753 134.592 125.788Z" fill="#5D9DA4"/>
<path d="M175.79 128.881C175.737 130.116 173.939 131.043 171.773 130.952C169.607 130.861 167.893 129.785 167.946 128.55C167.998 127.313 169.796 126.386 171.962 126.477C174.128 126.571 175.842 127.646 175.79 128.881Z" fill="#75C3B9"/>
<path d="M171.766 131.537C169.119 131.423 167.024 130.11 167.088 128.6C167.151 127.09 169.349 125.956 171.997 126.07C174.644 126.181 176.739 127.494 176.675 129.004C176.611 130.514 174.414 131.648 171.766 131.537ZM172.007 125.82C169.119 125.699 166.721 126.936 166.652 128.583C166.582 130.229 168.867 131.663 171.755 131.785C174.644 131.906 177.041 130.671 177.111 129.022C177.18 127.376 174.895 125.941 172.007 125.82Z" fill="#75C3B9"/>
<path d="M58.3304 107.563V150.253C58.3304 151.556 57.9228 152.786 57.1705 153.619C56.6364 154.212 55.866 154.543 54.94 154.543H7.13366C4.90184 154.543 3.02734 152.485 3.02734 150.253V107.563C3.02734 106.642 3.38265 105.826 3.89477 105.129C4.62229 104.134 5.82558 103.533 7.13366 103.533H54.94C55.1852 103.533 55.4155 103.5 55.6309 103.546C57.2377 103.869 58.1309 105.308 58.268 107.066C58.2827 107.238 58.3304 107.387 58.3304 107.563Z" fill="#F9F6F6"/>
<path d="M13.3046 154.547H7.13366C4.90184 154.547 3.02734 152.489 3.02734 150.257V140.729L13.3046 154.547Z" fill="#22272B"/>
<path d="M13.3046 154.547H7.13366C4.90184 154.547 3.02734 152.489 3.02734 150.257V140.729L13.3046 154.547Z" fill="#0C4B5B"/>
<path d="M30.9177 154.546H22.6084L3.02734 128.021V116.675L30.9177 154.546Z" fill="#22272B"/>
<path d="M27.5367 154.546H22.6084L3.02734 128.021V116.675L27.5367 149.955V154.546Z" fill="#0C4B5B"/>
<path d="M48.5402 154.544H40.2331L3.95508 105.089C4.6826 104.095 5.83412 103.534 7.1422 103.534H11.0568L48.5402 154.544Z" fill="#22272B"/>
<path d="M48.5294 154.544H40.2224L34.9946 147.418V136.125L48.5294 154.544ZM27.5345 137.249L11.6943 115.656H19.9529L27.5345 125.971V137.249Z" fill="#0C4B5B"/>
<path d="M58.3394 143.837V150.254C58.3394 151.557 57.9318 152.882 57.1795 153.716L20.3613 103.534H28.6709L58.3394 143.837Z" fill="#22272B"/>
<path d="M57.1835 153.716L57.1449 153.663L35.0098 123.494V115.656H37.5974L58.3434 143.837V150.254C58.3434 151.557 57.9358 152.883 57.1835 153.716Z" fill="#0C4B5B"/>
<path d="M58.3285 119.781V131.127L37.9639 103.534H46.2735L58.3285 119.781Z" fill="#22272B"/>
<path d="M58.3433 131.128L46.9238 115.656H55.2817L58.3433 119.782V131.128Z" fill="#0C4B5B"/>
<path d="M34.9992 113.959H27.5391V154.623H34.9992V113.959Z" fill="#F57557"/>
<path d="M31.2691 113.959H27.5391V154.623H31.2691V113.959Z" fill="#F24F28"/>
<path d="M58.3333 115.655V107.564C58.3333 107.387 58.2856 107.238 58.271 107.067C58.1338 105.309 57.2407 103.87 55.6338 103.546C55.5442 103.529 55.4518 103.521 55.3568 103.521C55.2237 103.521 55.0859 103.534 54.9429 103.534H7.13662C6.19899 103.534 5.34192 103.822 4.66364 104.352C4.37273 104.572 4.11414 104.834 3.89773 105.13C3.38561 105.827 3.0303 106.642 3.0303 107.564V113.738C1.26237 113.266 0 111.647 0 109.726V101.62C0 99.3267 1.88889 97.4731 4.18207 97.4731H57.9414C60.2318 97.4731 62.1212 99.3267 62.1212 101.62V109.726C62.1212 111.521 60.9682 113.051 59.3687 113.627C59.2535 113.67 59.1697 113.705 59.0492 113.741C58.8071 113.804 58.3333 113.844 58.3333 113.862V115.655Z" fill="#C9CFD3"/>
<path d="M58.3304 115.656H55.2688L46.2753 103.534H37.9657L46.9109 115.656H37.5844L28.6619 103.534H20.3523L28.0011 113.959H27.5367V115.656H19.9551L11.0483 103.534H7.13366H54.94C55.0829 103.534 55.2208 103.522 55.3539 103.522C55.4488 103.522 55.5412 103.529 55.6309 103.547C57.2377 103.87 58.1309 105.31 58.268 107.067C58.2827 107.239 58.3304 107.388 58.3304 107.565V115.656ZM11.6965 115.656H3.02734V107.565C3.02734 106.643 3.38265 105.827 3.89477 105.13C4.11118 104.835 4.36977 104.572 4.66068 104.353C4.39275 104.562 4.1526 104.81 3.94654 105.09L11.6965 115.656Z" fill="#DFDBDB"/>
<path d="M19.9637 115.655L11.0568 103.534H7.1422C5.83412 103.534 4.6826 104.095 3.95508 105.089C4.16114 104.809 4.40129 104.562 4.66922 104.352C5.3475 103.822 6.20457 103.534 7.1422 103.534H11.0568L19.9637 115.655Z" fill="#22262A"/>
<path d="M19.9637 115.655H11.7051L3.95508 105.089C4.6826 104.095 5.83412 103.534 7.1422 103.534H11.0568L19.9637 115.655Z" fill="#093844"/>
<path d="M37.5934 115.655H35.0058V113.958H28.0101L20.3613 103.534H28.6709L37.5934 115.655Z" fill="#093844"/>
<path d="M55.2669 115.655H46.9091L37.9639 103.534H46.2735L55.2669 115.655Z" fill="#093844"/>
<path d="M34.9992 115.656H31.2691V113.959H27.5391V115.656V113.959H34.9992V115.656Z" fill="#F24D26"/>
<path d="M31.2691 113.959H27.5391V115.656H31.2691V113.959Z" fill="#D8340D"/>
<path d="M62.1212 101.62V109.726C62.1212 111.521 60.9684 113.051 59.3687 113.627C59.2535 113.67 59.129 113.705 59.0091 113.741C58.7667 113.804 58.5131 113.976 58.2561 113.993C58.153 114.003 58.0467 114.14 57.9414 114.14H4.18207C3.93965 114.14 3.70202 113.988 3.47172 113.945C3.35657 113.925 3.24394 113.834 3.13359 113.804L3.10505 113.771C1.32677 113.299 0 111.647 0 109.726V101.62C0 99.3267 1.88914 97.4731 4.18207 97.4731H57.9414C60.2321 97.4731 62.1212 99.3267 62.1212 101.62Z" fill="#0C4B5B"/>
<path d="M28.8086 95.3226L17.5157 87.3377C17.5157 87.3377 10.8543 81.7746 9.1624 88.3175C9.1624 88.3175 6.95609 92.1736 7.85836 97.9817H29.9647C29.9647 97.9817 28.724 97.1534 28.8086 95.3226Z" fill="#F57557"/>
<path d="M14.8926 85.8939L21.7163 77.9419L28.7656 94.1288L29.1603 96.3283L27.0454 95.1136L14.8926 85.8939Z" fill="#F24F28"/>
<path d="M34.408 95.3226L45.7009 87.3377C45.7009 87.3377 52.3626 81.7746 54.0542 88.3175C54.0542 88.3175 56.2608 92.1736 55.3583 97.9817H33.252C33.252 97.9817 34.4926 97.1534 34.408 95.3226Z" fill="#F57557"/>
<path d="M48.3009 85.8939L41.4774 77.9419L34.4282 94.1288L34.0332 96.3283L36.1481 95.1136L48.3009 85.8939Z" fill="#F24F28"/>
<path d="M22.6387 97.7726H23.12L23.1238 97.7322C23.1238 97.4645 22.9067 97.2473 22.6387 97.2473H16.6488C16.3327 97.2473 16.0738 97.5074 16.0738 97.8231L14.3799 110.24C14.3799 110.555 14.6173 110.712 14.9077 110.586L17.0145 109.677C17.3049 109.55 17.7827 109.545 18.0761 109.661L20.4112 110.598C20.7046 110.717 20.9448 110.555 20.9448 110.24L22.6387 97.7726Z" fill="#F24F28"/>
<path d="M39.1814 97.7726H38.7003L38.6963 97.7322C38.6963 97.4645 38.9135 97.2473 39.1814 97.2473H45.1715C45.4877 97.2473 45.7465 97.5074 45.7465 97.8231L47.864 106.709C47.864 107.025 47.6263 107.182 47.3359 107.055L45.2291 106.146C44.9387 106.023 44.4609 106.015 44.1678 106.134L41.8327 107.071C41.539 107.189 41.2988 107.025 41.2988 106.709L39.1814 97.7726Z" fill="#F24F28"/>
<path d="M34.9994 97.2822C34.9994 97.8959 34.5189 98.3933 33.9262 98.3933H28.6125C28.0196 98.3933 27.5391 97.8959 27.5391 97.2822V93.5575C27.5391 92.9438 28.0196 92.4438 28.6125 92.4438H33.9262C34.5189 92.4438 34.9994 92.9438 34.9994 93.5575V97.2822Z" fill="#F89D87"/>
<path d="M161.181 106.567C161.181 120.933 149.534 132.579 135.168 132.579C120.801 132.579 109.155 120.933 109.155 106.567C109.155 92.2007 120.801 80.5542 135.168 80.5542C149.534 80.5542 161.181 92.2007 161.181 106.567Z" fill="#FABF35"/>
<path d="M135.159 130.33C122.033 130.33 111.392 119.691 111.392 106.565C111.392 93.4384 122.033 82.797 135.159 82.797C148.285 82.797 158.927 93.4384 158.927 106.565C158.927 119.691 148.285 130.33 135.159 130.33ZM135.159 81.9031C121.539 81.9031 110.498 92.9435 110.498 106.565C110.498 120.183 121.539 131.224 135.159 131.224C148.779 131.224 159.82 120.183 159.82 106.565C159.82 92.9435 148.779 81.9031 135.159 81.9031Z" fill="#FCEF99"/>
<path d="M135.174 132.578C129.313 132.578 123.905 130.638 119.556 127.368C123.905 130.638 129.313 132.578 135.174 132.578C135.202 132.578 135.229 132.575 135.256 132.575C135.229 132.575 135.202 132.578 135.174 132.578Z" fill="#83C3CA"/>
<path d="M135.278 132.573H135.331H135.278ZM135.364 132.573H135.412H135.364ZM135.447 132.573H135.494H135.447ZM135.53 132.573C135.544 132.571 135.56 132.571 135.575 132.571C135.56 132.571 135.545 132.571 135.53 132.573ZM135.611 132.571H135.656H135.611ZM135.694 132.568H135.738H135.694ZM135.774 132.568C135.789 132.568 135.804 132.566 135.819 132.566C135.804 132.566 135.789 132.568 135.774 132.568ZM135.856 132.566C135.871 132.566 135.886 132.566 135.901 132.563C135.886 132.566 135.871 132.566 135.856 132.566ZM135.937 132.563H135.983H135.937ZM136.018 132.561C136.034 132.561 136.05 132.561 136.066 132.558C136.05 132.561 136.034 132.561 136.018 132.561ZM136.098 132.558C136.115 132.558 136.132 132.558 136.148 132.555C136.132 132.558 136.115 132.558 136.098 132.558ZM136.18 132.555C136.198 132.555 136.217 132.553 136.235 132.553C136.216 132.553 136.198 132.555 136.18 132.555ZM136.26 132.553C136.282 132.55 136.305 132.55 136.328 132.548C136.305 132.55 136.283 132.55 136.26 132.553ZM136.341 132.548C136.395 132.545 136.449 132.543 136.504 132.54C136.45 132.543 136.395 132.545 136.341 132.548ZM136.526 132.54C136.545 132.538 136.565 132.538 136.585 132.535C136.565 132.538 136.545 132.538 136.526 132.54ZM136.609 132.535C136.628 132.535 136.647 132.533 136.666 132.533C136.647 132.533 136.628 132.535 136.609 132.535ZM136.692 132.53C136.711 132.53 136.729 132.528 136.747 132.528C136.729 132.528 136.711 132.53 136.692 132.53ZM136.776 132.525C136.793 132.525 136.809 132.523 136.827 132.523C136.81 132.523 136.792 132.525 136.776 132.525ZM136.858 132.52C136.874 132.52 136.892 132.518 136.908 132.518C136.891 132.518 136.875 132.52 136.858 132.52ZM136.938 132.515C136.956 132.515 136.972 132.513 136.99 132.513C136.972 132.513 136.955 132.515 136.938 132.515ZM137.018 132.51C137.035 132.507 137.053 132.507 137.07 132.505C137.053 132.507 137.036 132.507 137.018 132.51ZM137.1 132.505C137.117 132.502 137.133 132.502 137.15 132.5C137.133 132.502 137.116 132.502 137.1 132.505ZM137.181 132.497C137.199 132.497 137.215 132.495 137.233 132.492C137.215 132.495 137.198 132.497 137.181 132.497ZM137.26 132.492C137.279 132.49 137.297 132.487 137.316 132.487C137.297 132.487 137.279 132.49 137.26 132.492ZM137.34 132.485C137.361 132.482 137.382 132.482 137.404 132.48C137.383 132.482 137.361 132.482 137.34 132.485ZM137.419 132.477C137.443 132.477 137.467 132.475 137.491 132.472C137.468 132.475 137.443 132.477 137.419 132.477ZM137.5 132.472C137.609 132.462 137.716 132.452 137.824 132.439C137.716 132.452 137.608 132.462 137.5 132.472ZM137.839 132.439C137.861 132.437 137.884 132.434 137.905 132.432C137.883 132.434 137.861 132.437 137.839 132.439ZM137.921 132.429C137.942 132.429 137.963 132.427 137.985 132.424C137.964 132.427 137.942 132.429 137.921 132.429ZM138.005 132.422C138.026 132.419 138.044 132.417 138.064 132.414C138.045 132.417 138.025 132.419 138.005 132.422ZM138.086 132.412C138.106 132.412 138.125 132.409 138.144 132.406C138.125 132.409 138.106 132.412 138.086 132.412ZM138.167 132.404C138.187 132.401 138.206 132.399 138.226 132.396C138.206 132.399 138.186 132.401 138.167 132.404ZM138.246 132.394C138.267 132.391 138.286 132.389 138.307 132.386C138.287 132.389 138.266 132.391 138.246 132.394ZM138.326 132.384C138.348 132.381 138.367 132.379 138.388 132.376C138.367 132.379 138.347 132.381 138.326 132.384ZM138.406 132.374C138.427 132.371 138.449 132.369 138.47 132.366C138.449 132.369 138.427 132.371 138.406 132.374ZM138.485 132.364C138.509 132.361 138.534 132.359 138.557 132.356C138.533 132.359 138.51 132.361 138.485 132.364ZM138.563 132.356C138.725 132.333 138.887 132.311 139.048 132.288C138.887 132.311 138.726 132.333 138.563 132.356ZM139.05 132.288C139.075 132.283 139.101 132.28 139.126 132.275C139.101 132.28 139.076 132.283 139.05 132.288ZM139.137 132.273C139.16 132.27 139.183 132.268 139.207 132.263C139.184 132.265 139.16 132.27 139.137 132.273ZM139.216 132.26C139.239 132.257 139.262 132.255 139.286 132.25C139.262 132.255 139.239 132.257 139.216 132.26ZM139.297 132.247C139.32 132.245 139.344 132.24 139.366 132.237C139.344 132.24 139.32 132.245 139.297 132.247ZM139.376 132.235C139.4 132.232 139.422 132.227 139.446 132.225C139.423 132.227 139.399 132.232 139.376 132.235ZM139.456 132.222C139.48 132.22 139.504 132.215 139.527 132.21C139.504 132.215 139.48 132.22 139.456 132.222ZM139.535 132.21C139.559 132.204 139.583 132.202 139.607 132.197C139.583 132.202 139.559 132.204 139.535 132.21ZM139.615 132.197C139.64 132.192 139.665 132.187 139.69 132.182C139.665 132.187 139.64 132.192 139.615 132.197ZM139.693 132.182C139.907 132.144 140.119 132.106 140.331 132.063C140.119 132.103 139.907 132.144 139.693 132.182ZM140.331 132.063C140.357 132.058 140.382 132.05 140.408 132.045C140.382 132.05 140.357 132.058 140.331 132.063ZM140.414 132.045C140.438 132.04 140.462 132.035 140.486 132.03C140.462 132.035 140.438 132.04 140.414 132.045ZM140.493 132.028C140.517 132.023 140.541 132.018 140.565 132.013C140.541 132.018 140.517 132.023 140.493 132.028ZM140.573 132.013C140.596 132.007 140.621 132.002 140.645 131.997C140.621 132.002 140.596 132.007 140.573 132.013ZM140.65 131.995C140.674 131.99 140.699 131.985 140.723 131.98C140.699 131.985 140.675 131.99 140.65 131.995ZM140.73 131.977C140.754 131.972 140.779 131.967 140.804 131.962C140.779 131.967 140.754 131.972 140.73 131.977ZM140.807 131.962C141.044 131.909 141.278 131.853 141.512 131.795C141.278 131.853 141.043 131.909 140.807 131.962ZM141.514 131.795C141.539 131.788 141.565 131.783 141.589 131.775C141.564 131.783 141.539 131.788 141.514 131.795ZM141.594 131.775C141.617 131.768 141.641 131.763 141.665 131.757C141.641 131.763 141.617 131.768 141.594 131.775ZM141.674 131.755C141.697 131.747 141.719 131.742 141.742 131.737C141.719 131.742 141.697 131.747 141.674 131.755ZM141.751 131.735C141.774 131.727 141.798 131.722 141.82 131.717C141.797 131.722 141.774 131.727 141.751 131.735ZM141.827 131.715C141.852 131.707 141.875 131.702 141.899 131.694C141.875 131.702 141.851 131.707 141.827 131.715ZM141.904 131.694C141.928 131.687 141.952 131.682 141.976 131.674C141.952 131.682 141.928 131.687 141.904 131.694ZM141.982 131.672C142.187 131.616 142.392 131.558 142.595 131.5C142.392 131.558 142.187 131.616 141.982 131.672ZM142.602 131.497C142.625 131.49 142.647 131.482 142.67 131.477C142.647 131.482 142.625 131.49 142.602 131.497ZM142.682 131.472C142.703 131.467 142.723 131.46 142.744 131.454C142.724 131.46 142.703 131.467 142.682 131.472ZM142.76 131.449C142.78 131.442 142.799 131.437 142.818 131.432C142.799 131.437 142.78 131.442 142.76 131.449ZM142.837 131.424C142.856 131.419 142.874 131.414 142.892 131.409C142.874 131.414 142.856 131.419 142.837 131.424ZM142.914 131.401C142.932 131.396 142.95 131.391 142.968 131.384C142.95 131.391 142.932 131.396 142.914 131.401ZM142.988 131.379C143.007 131.374 143.024 131.366 143.043 131.361C143.025 131.366 143.006 131.374 142.988 131.379ZM143.063 131.353C143.082 131.348 143.1 131.343 143.119 131.336C143.101 131.343 143.082 131.348 143.063 131.353ZM143.137 131.331C143.156 131.326 143.174 131.318 143.193 131.313C143.175 131.318 143.156 131.326 143.137 131.331ZM143.213 131.305C143.233 131.3 143.254 131.293 143.275 131.285C143.254 131.293 143.233 131.3 143.213 131.305ZM143.285 131.283C143.308 131.275 143.33 131.268 143.352 131.26C143.33 131.268 143.308 131.275 143.285 131.283ZM143.361 131.257C143.411 131.242 143.46 131.225 143.51 131.207C143.46 131.225 143.411 131.242 143.361 131.257ZM143.517 131.204C143.539 131.197 143.563 131.189 143.585 131.182C143.562 131.189 143.54 131.197 143.517 131.204ZM143.597 131.179C143.617 131.172 143.637 131.164 143.657 131.156C143.637 131.164 143.617 131.172 143.597 131.179ZM143.68 131.149C143.697 131.144 143.713 131.139 143.73 131.131C143.713 131.139 143.697 131.144 143.68 131.149ZM143.758 131.124C143.772 131.119 143.787 131.114 143.801 131.109C143.787 131.114 143.772 131.119 143.758 131.124ZM143.834 131.096C143.848 131.091 143.861 131.086 143.874 131.081C143.861 131.086 143.847 131.091 143.834 131.096ZM143.908 131.071C143.92 131.066 143.933 131.061 143.945 131.055C143.933 131.061 143.92 131.066 143.908 131.071ZM143.982 131.043C143.994 131.038 144.006 131.035 144.017 131.03C144.006 131.035 143.993 131.038 143.982 131.043ZM144.056 131.018C144.067 131.013 144.077 131.007 144.088 131.005C144.077 131.007 144.066 131.013 144.056 131.018ZM144.129 130.99C144.14 130.985 144.149 130.982 144.16 130.977C144.149 130.982 144.139 130.985 144.129 130.99ZM144.201 130.962C144.211 130.96 144.22 130.957 144.229 130.952C144.22 130.957 144.211 130.96 144.201 130.962ZM144.274 130.937C144.282 130.934 144.291 130.929 144.299 130.927C144.291 130.929 144.282 130.932 144.274 130.937ZM144.346 130.909C144.352 130.906 144.359 130.904 144.365 130.901C144.359 130.904 144.353 130.906 144.346 130.909ZM144.418 130.881C144.421 130.881 144.422 130.879 144.425 130.879C144.423 130.879 144.421 130.881 144.418 130.881ZM144.835 130.72H144.835H144.835ZM144.903 130.692H144.904H144.903ZM144.971 130.664H144.973H144.971Z" fill="#83C3CA"/>
<path d="M109.155 106.566V106.49V106.566ZM109.156 106.472C109.156 106.447 109.156 106.424 109.156 106.399C109.156 106.424 109.156 106.447 109.156 106.472ZM109.156 106.389C109.156 106.366 109.156 106.344 109.156 106.321C109.156 106.344 109.156 106.366 109.156 106.389ZM109.157 106.308C109.157 106.283 109.157 106.258 109.157 106.235C109.157 106.26 109.157 106.283 109.157 106.308ZM109.157 106.217C109.158 106.197 109.158 106.177 109.158 106.157C109.158 106.177 109.158 106.197 109.157 106.217ZM109.159 106.141C109.159 106.116 109.159 106.093 109.16 106.071C109.159 106.093 109.159 106.119 109.159 106.141ZM109.16 106.05C109.161 106.028 109.161 106.005 109.161 105.982C109.161 106.005 109.161 106.028 109.16 106.05ZM109.162 105.965C109.163 105.944 109.163 105.927 109.163 105.909C109.163 105.927 109.163 105.947 109.162 105.965ZM109.164 105.881C109.165 105.861 109.165 105.841 109.166 105.818C109.165 105.841 109.165 105.861 109.164 105.881ZM109.167 105.788C109.167 105.775 109.167 105.762 109.168 105.747C109.167 105.762 109.167 105.775 109.167 105.788ZM109.169 105.709C109.17 105.692 109.17 105.677 109.17 105.659C109.17 105.674 109.17 105.692 109.169 105.709ZM109.172 105.618C109.172 105.608 109.172 105.601 109.173 105.591C109.172 105.601 109.172 105.608 109.172 105.618ZM109.176 105.52C109.176 105.512 109.176 105.505 109.176 105.5C109.176 105.505 109.176 105.512 109.176 105.52ZM109.179 105.454C109.179 105.449 109.179 105.444 109.179 105.439C109.179 105.444 109.179 105.449 109.179 105.454ZM109.183 105.351C109.183 105.348 109.183 105.346 109.184 105.341C109.183 105.346 109.183 105.348 109.183 105.351Z" fill="#FBB683"/>
<path d="M135.168 132.579C129.307 132.579 123.898 130.64 119.549 127.37C118.906 126.885 118.287 126.375 117.693 125.834C112.449 121.074 109.155 114.205 109.155 106.567V106.491C109.155 106.486 109.155 106.478 109.156 106.473C109.156 106.448 109.156 106.425 109.156 106.4V106.39C109.156 106.367 109.156 106.344 109.156 106.322C109.157 106.319 109.157 106.314 109.157 106.309C109.157 106.284 109.157 106.261 109.157 106.236V106.218C109.158 106.198 109.158 106.178 109.158 106.157C109.159 106.152 109.159 106.147 109.159 106.142C109.159 106.12 109.159 106.094 109.16 106.072C109.16 106.064 109.16 106.056 109.16 106.051C109.161 106.029 109.161 106.006 109.161 105.983C109.162 105.976 109.162 105.971 109.162 105.966C109.163 105.948 109.163 105.928 109.163 105.91C109.164 105.9 109.164 105.892 109.164 105.882C109.165 105.862 109.165 105.842 109.166 105.819C109.166 105.809 109.166 105.799 109.167 105.789C109.167 105.776 109.167 105.764 109.168 105.748C109.168 105.736 109.169 105.723 109.169 105.71C109.17 105.693 109.17 105.675 109.17 105.66C109.171 105.645 109.172 105.632 109.172 105.62C109.172 105.609 109.172 105.602 109.173 105.592C109.174 105.567 109.175 105.544 109.176 105.521C109.176 105.514 109.176 105.506 109.176 105.501C109.177 105.486 109.178 105.471 109.179 105.455C109.179 105.45 109.179 105.445 109.179 105.44C109.181 105.41 109.182 105.382 109.183 105.352C109.183 105.349 109.183 105.347 109.184 105.342C109.373 101.251 110.509 97.4049 112.376 94.0186L113.451 94.8696C111.573 98.3494 110.507 102.334 110.507 106.567C110.507 120.185 121.548 131.226 135.168 131.226C141.464 131.226 147.21 128.867 151.568 124.983L152.643 125.834C150.407 127.862 147.816 129.508 144.973 130.668H144.972C144.949 130.675 144.926 130.685 144.904 130.695H144.903C144.881 130.703 144.858 130.713 144.835 130.723H144.835C144.699 130.776 144.562 130.829 144.425 130.882C144.423 130.882 144.421 130.885 144.419 130.885C144.401 130.892 144.383 130.897 144.366 130.905C144.36 130.907 144.352 130.91 144.346 130.913C144.33 130.918 144.315 130.925 144.299 130.93C144.291 130.933 144.282 130.938 144.274 130.94C144.259 130.945 144.244 130.95 144.23 130.955C144.22 130.96 144.211 130.963 144.201 130.966C144.188 130.971 144.174 130.976 144.16 130.981C144.149 130.986 144.14 130.988 144.129 130.993C144.115 130.998 144.101 131.003 144.088 131.008C144.077 131.011 144.067 131.016 144.056 131.021C144.043 131.024 144.031 131.029 144.017 131.034C144.006 131.039 143.994 131.041 143.983 131.046C143.97 131.051 143.958 131.056 143.946 131.059C143.933 131.064 143.92 131.069 143.908 131.074C143.897 131.077 143.886 131.082 143.874 131.084C143.861 131.089 143.848 131.094 143.834 131.099C143.823 131.104 143.813 131.107 143.801 131.112C143.787 131.117 143.772 131.122 143.758 131.127C143.749 131.13 143.74 131.132 143.73 131.135C143.714 131.142 143.697 131.147 143.681 131.152C143.672 131.155 143.665 131.157 143.657 131.16C143.637 131.168 143.617 131.175 143.598 131.183C143.593 131.183 143.589 131.185 143.585 131.185C143.563 131.193 143.539 131.2 143.517 131.208C143.515 131.21 143.513 131.21 143.51 131.21C143.46 131.228 143.411 131.246 143.361 131.261C143.358 131.264 143.355 131.264 143.352 131.264C143.33 131.271 143.308 131.279 143.286 131.286C143.282 131.286 143.278 131.289 143.275 131.289C143.254 131.296 143.233 131.304 143.213 131.309C143.207 131.311 143.2 131.314 143.193 131.317C143.174 131.322 143.156 131.329 143.137 131.334C143.131 131.337 143.125 131.339 143.12 131.339C143.1 131.347 143.082 131.352 143.063 131.357C143.057 131.359 143.05 131.362 143.043 131.365C143.024 131.37 143.007 131.377 142.988 131.382C142.982 131.385 142.975 131.387 142.968 131.387C142.95 131.395 142.932 131.4 142.914 131.405C142.907 131.407 142.899 131.41 142.892 131.413C142.874 131.418 142.856 131.423 142.838 131.428C142.831 131.43 142.825 131.433 142.819 131.435C142.799 131.44 142.78 131.445 142.76 131.453C142.755 131.453 142.749 131.455 142.745 131.458C142.723 131.463 142.703 131.471 142.682 131.476C142.678 131.478 142.674 131.478 142.67 131.481C142.647 131.486 142.625 131.493 142.602 131.501C142.6 131.501 142.598 131.501 142.595 131.503C142.392 131.561 142.187 131.62 141.982 131.675C141.98 131.678 141.977 131.678 141.976 131.678C141.952 131.685 141.928 131.69 141.904 131.698H141.899C141.875 131.705 141.852 131.71 141.827 131.718C141.825 131.718 141.823 131.718 141.82 131.721C141.798 131.726 141.774 131.731 141.751 131.738C141.749 131.738 141.745 131.738 141.742 131.741C141.72 131.746 141.697 131.751 141.674 131.758C141.671 131.758 141.668 131.758 141.665 131.761C141.641 131.766 141.617 131.771 141.594 131.779H141.589C141.565 131.786 141.539 131.791 141.514 131.799H141.512C141.278 131.857 141.044 131.912 140.807 131.966H140.804C140.779 131.971 140.755 131.976 140.73 131.981C140.728 131.983 140.725 131.983 140.723 131.983C140.699 131.988 140.674 131.993 140.65 131.998C140.648 131.998 140.647 132.001 140.645 132.001C140.621 132.006 140.597 132.011 140.573 132.016H140.565C140.541 132.021 140.518 132.026 140.494 132.031C140.491 132.034 140.489 132.034 140.487 132.034C140.463 132.039 140.439 132.044 140.415 132.049H140.408C140.382 132.054 140.357 132.061 140.331 132.067H140.331C140.119 132.109 139.907 132.147 139.693 132.185H139.69C139.665 132.19 139.64 132.195 139.615 132.2H139.607C139.583 132.205 139.559 132.208 139.535 132.213H139.527C139.504 132.218 139.48 132.223 139.457 132.226C139.453 132.226 139.449 132.228 139.446 132.228C139.422 132.231 139.4 132.236 139.376 132.238C139.373 132.241 139.37 132.241 139.367 132.241C139.344 132.243 139.32 132.248 139.297 132.251C139.294 132.253 139.29 132.253 139.286 132.253C139.262 132.258 139.24 132.261 139.216 132.264C139.213 132.266 139.21 132.266 139.207 132.266C139.184 132.271 139.161 132.274 139.137 132.276C139.134 132.279 139.13 132.279 139.126 132.279C139.101 132.284 139.075 132.286 139.05 132.291H139.048C138.887 132.314 138.725 132.337 138.564 132.359H138.558C138.534 132.362 138.509 132.365 138.486 132.367C138.481 132.37 138.475 132.37 138.47 132.37C138.449 132.372 138.427 132.375 138.406 132.377C138.4 132.38 138.394 132.38 138.388 132.38C138.367 132.382 138.348 132.385 138.326 132.387C138.32 132.39 138.314 132.39 138.307 132.39C138.287 132.392 138.267 132.395 138.246 132.397C138.239 132.397 138.233 132.4 138.226 132.4C138.206 132.402 138.187 132.405 138.167 132.407C138.16 132.407 138.152 132.407 138.145 132.41C138.125 132.413 138.106 132.415 138.087 132.415C138.079 132.418 138.072 132.418 138.065 132.418C138.044 132.42 138.026 132.423 138.005 132.425C137.998 132.425 137.992 132.425 137.985 132.428C137.964 132.43 137.943 132.433 137.921 132.433C137.916 132.435 137.911 132.435 137.905 132.435C137.884 132.438 137.861 132.44 137.84 132.443H137.824C137.716 132.455 137.609 132.466 137.5 132.476H137.492C137.468 132.478 137.444 132.481 137.42 132.481C137.414 132.483 137.409 132.483 137.404 132.483C137.382 132.486 137.362 132.486 137.34 132.488C137.332 132.488 137.324 132.491 137.316 132.491C137.297 132.491 137.28 132.493 137.261 132.496H137.233C137.215 132.498 137.199 132.501 137.181 132.501C137.17 132.501 137.161 132.503 137.15 132.503C137.133 132.506 137.117 132.506 137.1 132.508H137.071C137.053 132.511 137.035 132.511 137.018 132.514C137.009 132.514 136.999 132.514 136.99 132.516C136.972 132.516 136.956 132.519 136.938 132.519C136.928 132.519 136.918 132.521 136.909 132.521C136.892 132.521 136.874 132.524 136.858 132.524C136.847 132.524 136.837 132.526 136.827 132.526C136.81 132.526 136.793 132.529 136.776 132.529C136.766 132.529 136.757 132.531 136.747 132.531C136.729 132.531 136.711 132.534 136.693 132.534C136.684 132.534 136.675 132.534 136.666 132.536C136.647 132.536 136.628 132.539 136.609 132.539H136.585C136.565 132.541 136.545 132.541 136.526 132.544H136.504C136.449 132.546 136.396 132.549 136.341 132.551H136.328C136.306 132.554 136.283 132.554 136.26 132.556H136.235C136.217 132.556 136.198 132.559 136.18 132.559H136.148C136.132 132.561 136.115 132.561 136.098 132.561H136.066C136.05 132.564 136.034 132.564 136.018 132.564C136.006 132.564 135.995 132.564 135.983 132.567H135.901C135.886 132.569 135.871 132.569 135.857 132.569H135.819C135.805 132.569 135.789 132.572 135.774 132.572H135.694C135.682 132.574 135.669 132.574 135.656 132.574H135.575C135.561 132.574 135.545 132.574 135.53 132.577H135.249C135.222 132.577 135.195 132.579 135.168 132.579ZM135.168 130.332C122.041 130.332 111.4 119.693 111.4 106.567C111.4 102.544 112.4 98.7534 114.164 95.4327L150.855 124.42C146.67 128.099 141.179 130.332 135.168 130.332Z" fill="#FBC54F"/>
<path d="M135.159 131.223C121.539 131.223 110.498 120.183 110.498 106.564C110.498 102.332 111.564 98.3467 113.443 94.8669L114.155 95.4301C112.391 98.7508 111.392 102.541 111.392 106.564C111.392 119.69 122.033 130.329 135.159 130.329C141.17 130.329 146.661 128.097 150.847 124.417L151.559 124.981C147.201 128.864 141.455 131.223 135.159 131.223Z" fill="#FCF1A5"/>
<path d="M152.917 106.564C152.917 116.369 144.968 124.319 135.162 124.319C125.356 124.319 117.407 116.369 117.407 106.564C117.407 96.7556 125.356 88.8062 135.162 88.8062C144.968 88.8062 152.917 96.7556 152.917 106.564Z" fill="#E2AF5C"/>
<path d="M152.54 106.568C152.54 115.79 145.063 123.265 135.84 123.265C126.617 123.265 119.141 115.79 119.141 106.568C119.141 97.3429 126.617 89.8682 135.84 89.8682C145.063 89.8682 152.54 97.3429 152.54 106.568Z" fill="#FCEF99"/>
<path d="M134.415 116.236C132.35 116.142 130.36 115.68 128.446 114.852V110.155C129.54 110.71 130.728 111.175 132.01 111.549C133.292 111.92 134.419 112.107 135.39 112.107C136.192 112.107 136.779 112.011 137.151 111.817C137.524 111.625 137.71 111.301 137.71 110.849C137.71 110.536 137.576 110.274 137.307 110.056C137.038 109.839 136.59 109.594 135.963 109.322C135.336 109.046 134.49 108.718 133.425 108.332C132.227 107.887 131.261 107.39 130.525 106.839C129.79 106.286 129.255 105.67 128.92 104.986C128.585 104.301 128.418 103.45 128.418 102.433C128.418 100.877 128.918 99.6625 129.917 98.7837C130.916 97.9074 132.415 97.3645 134.415 97.1574V94.0186H137.342V97.1297C139.218 97.2332 141.109 97.6953 143.013 98.516L141.33 102.546C139.36 101.66 137.583 101.218 135.999 101.218C135.244 101.218 134.714 101.309 134.408 101.493C134.101 101.678 133.948 101.948 133.948 102.306C133.948 102.617 134.059 102.875 134.28 103.077C134.502 103.279 134.886 103.506 135.433 103.756C135.98 104.006 136.739 104.296 137.71 104.625C139.68 105.324 141.094 106.117 141.953 107.008C142.81 107.9 143.24 109.046 143.24 110.453C143.24 112.036 142.738 113.324 141.733 114.314C140.729 115.304 139.265 115.918 137.342 116.152V119.935H134.415V116.236Z" fill="#E2AF5C"/>
<path d="M122.473 28.3207V143.586C122.473 149.667 117.173 154.543 110.722 154.543H63.2599C56.8089 154.543 51.5137 149.667 51.5137 143.586V28.3207C51.5137 26.9545 51.8074 25.5757 52.2904 24.3712C53.9553 20.2045 58.2579 17.1692 63.2599 17.1692H110.722C114.709 17.1692 118.266 19.1237 120.372 21.9974C121.677 23.7727 122.473 26 122.473 28.3207Z" fill="#3D4042"/>
<path d="M95.6137 24.8375C95.6137 25.7693 94.9455 26.5244 94.1251 26.5244H79.4432C78.6213 26.5244 77.9541 25.7693 77.9541 24.8375C77.9541 23.9057 78.6213 23.1506 79.4432 23.1506H94.1251C94.9455 23.1506 95.6137 23.9057 95.6137 24.8375Z" fill="#F7F7F8"/>
<path d="M113.134 24.7752C113.134 25.8484 112.243 26.7171 111.145 26.7171C110.046 26.7171 109.155 25.8484 109.155 24.7752C109.155 23.7019 110.046 22.8333 111.145 22.8333C112.243 22.8333 113.134 23.7019 113.134 24.7752Z" fill="#F7F7F8"/>
<path d="M105.199 24.7348C105.216 25.3184 104.743 25.8085 104.143 25.8262C103.543 25.8439 103.044 25.3815 103.028 24.7954C103.011 24.2093 103.483 23.7217 104.083 23.7065C104.683 23.6889 105.182 24.1487 105.199 24.7348Z" fill="#F7F7F8"/>
<path d="M102.147 24.7043C102.164 25.2904 101.692 25.7805 101.091 25.7957C100.492 25.8134 99.9927 25.351 99.976 24.7674C99.9593 24.1813 100.432 23.6937 101.031 23.676C101.632 23.6583 102.131 24.1181 102.147 24.7043Z" fill="#F7F7F8"/>
<path d="M119.476 31.0181H54.5166V138.978H119.476V31.0181Z" fill="#F7F7F8"/>
<path d="M94.5469 149.474H79.4315C78.2698 149.474 77.3193 148.522 77.3193 147.36V145.342C77.3193 144.181 78.2698 143.231 79.4315 143.231H94.5469C95.7087 143.231 96.659 144.181 96.659 145.342V147.36C96.659 148.522 95.7087 149.474 94.5469 149.474Z" fill="#DDE5EA"/>
<path d="M78.0518 24.6212C78.0518 25.553 78.7189 26.2626 79.5409 26.2626H86.8798V22.9797H79.5409C78.7189 22.9797 78.0518 23.6893 78.0518 24.6212Z" fill="#E4E6E7"/>
<path d="M86.8642 30.8105H54.541V138.891H86.8642V30.8105Z" fill="#E4E6E7"/>
<path d="M77.2705 145.19V147.21C77.2705 148.372 78.3599 149.243 79.5215 149.243H86.8665V143.182H79.5215C78.3599 143.182 77.2705 144.028 77.2705 145.19Z" fill="#C1CED3"/>
<path d="M79.5223 149.492C78.3606 149.492 77.2712 148.614 77.2712 147.452V145.432C77.2712 144.27 78.3606 143.432 79.5223 143.432H86.8672V139.139H54.544V31.058H86.8672V26.5126H79.5283C78.7063 26.5126 78.0392 25.803 78.0392 24.8712C78.0392 23.9394 78.7063 23.2298 79.5283 23.2298H86.8672V17.1692H63.348C56.897 17.1692 51.5137 22.3333 51.5137 28.4141V143.679C51.5137 149.76 56.897 154.543 63.348 154.543H86.8672V149.492H79.5223Z" fill="#252728"/>
<path d="M98.8934 84.967H73.4863V97.9039H98.8934V84.967Z" fill="#F9F6F6"/>
<path d="M76.2903 95.727C76.5401 96.924 77.3499 97.9038 78.0901 97.9038C78.8302 97.9038 79.2891 96.9139 79.1095 95.7043L78.0494 88.5553C77.8699 87.3457 76.9608 86.3533 76.0292 86.3533C75.0979 86.3533 74.5401 87.3356 74.7898 88.5326L76.2903 95.727ZM82.0669 95.6866C82.1706 96.9063 82.8613 97.9038 83.6015 97.9038C84.3416 97.9038 84.9222 96.9038 84.8916 95.6816L84.7143 88.578C84.6838 87.3558 83.8966 86.3533 82.9651 86.3533C82.0335 86.3533 81.3565 87.3507 81.4603 88.5704L82.0669 95.6866ZM87.8517 95.6816C87.8052 96.9038 88.3727 97.9038 89.1128 97.9038C89.853 97.9038 90.5565 96.9088 90.6762 95.6917L91.3767 88.5679C91.4966 87.3507 90.8325 86.3533 89.9009 86.3533C88.9694 86.3533 88.1691 87.3558 88.1227 88.578L87.8517 95.6816ZM93.6328 95.7093C93.4378 96.9164 93.8838 97.9038 94.6242 97.9038C95.3643 97.9038 96.1866 96.9265 96.4514 95.7321L98.0489 88.5275C98.3136 87.3305 97.7681 86.3533 96.8368 86.3533C95.9052 86.3533 94.9835 87.3432 94.7886 88.5502L93.6328 95.7093ZM101.99 80.8533C103.213 80.8533 103.945 81.8154 103.615 82.9947L98.7509 100.399C98.5121 101.255 97.7062 101.848 96.7858 101.848H75.3408C74.4204 101.848 73.6146 101.255 73.3759 100.399L68.5115 82.9947C68.1823 81.8154 68.9138 80.8533 70.1373 80.8533H101.99Z" fill="#252728"/>
<path d="M72.9208 82.3337C72.7195 82.0862 72.7332 81.6948 72.9511 81.4675L85.57 68.2099C85.7882 67.9802 86.1312 67.9978 86.3324 68.2453C86.5337 68.4928 86.52 68.8817 86.3021 69.1115L73.6832 82.369C73.4652 82.5963 73.1223 82.5812 72.9208 82.3337Z" fill="#252728"/>
<path d="M99.9218 82.2126C100.163 82.0156 100.22 81.6318 100.049 81.3565L89.5528 64.5686C89.3809 64.2959 89.0422 64.2303 88.8006 64.4247C88.5586 64.6217 88.5016 65.0055 88.6735 65.2808L99.1695 82.0686C99.3415 82.3439 99.6798 82.407 99.9218 82.2126Z" fill="#252728"/>
<path d="M152.253 182.758L118.066 148.889L122.299 144.617L156.485 178.483L152.253 182.758Z" fill="#252728"/>
<path d="M90.0146 116.87L115.317 176.352L122.438 148.989L149.729 141.615L90.0146 116.87Z" fill="#252728"/>
</g>
<defs>
<clipPath id="clip0">
<rect width="200" height="200" fill="white"/>
</clipPath>
</defs>
</svg>
