<svg width="200" height="200" viewBox="0 0 200 200" fill="none" xmlns="http://www.w3.org/2000/svg">
<path d="M73.3757 43.4614H148.807V67.4482H73.3757V43.4614ZM150.127 37.3472C149.894 37.2861 149.652 37.241 149.408 37.2144C149.325 37.2038 149.243 37.1985 149.161 37.1932C149.049 37.1852 148.94 37.1826 148.829 37.1826H72.7781C72.6665 37.1826 72.555 37.1879 72.4461 37.1932C72.3637 37.1985 72.2814 37.2065 72.1991 37.2144C71.9547 37.2436 71.713 37.2888 71.4793 37.3502C68.9613 37.9953 67.041 40.4814 67.041 43.4774V71.7961L67.0437 147.793C67.0437 151.289 69.6546 154.062 72.7807 154.062H148.831C151.955 154.062 154.568 151.286 154.568 147.793L154.566 71.7961V43.4774C154.566 40.4814 152.645 37.9953 150.127 37.3472Z" fill="#51B3A7"/>
<path d="M148.82 43.457H73.3887V67.4437H148.82V43.457Z" fill="#BCE2DD"/>
<path d="M129.703 78.1343V86.5035C129.703 87.728 128.707 88.7134 127.482 88.7134H115.748C115.257 88.7134 114.802 88.562 114.436 88.2884C114.332 88.214 114.223 88.1343 114.136 88.0414C113.748 87.6403 113.501 87.1011 113.501 86.5035V78.1343C113.501 76.9099 114.524 75.9644 115.748 75.9644H127.482C127.873 75.9644 128.239 76.0361 128.558 76.214C128.842 76.3707 129.084 76.5726 129.273 76.8329C129.546 77.2021 129.703 77.643 129.703 78.1343Z" fill="#F9F6F6"/>
<path d="M129.715 78.1409V86.5101C129.715 87.7345 128.719 88.7199 127.495 88.7199H115.76C115.134 88.7199 114.565 88.4649 114.159 88.0453C114.087 87.9709 114.023 87.8647 113.965 87.785C114.331 88.0559 114.786 88.1887 115.277 88.1887H127.011C128.238 88.1887 129.184 87.2511 129.184 86.0267V77.6575C129.184 77.1661 129.046 76.712 128.772 76.3428C129.33 76.7491 129.715 77.4025 129.715 78.1409Z" fill="#F9F6F6"/>
<path d="M128.728 76.3226C128.428 76.1659 128.029 75.9614 127.641 75.9614H115.907C114.68 75.9614 113.764 77.0663 113.764 78.2934V86.6626C113.764 87.2602 114.061 87.7941 114.412 88.1978C113.729 87.818 113.232 87.0929 113.232 86.2589V77.8897C113.232 76.6653 114.157 75.6958 115.384 75.6958H127.118C127.745 75.6958 128.324 75.9003 128.728 76.3226Z" fill="#F9F6F6"/>
<path d="M150.43 78.1343V86.5035C150.43 87.728 149.325 88.7134 148.101 88.7134H136.367C135.875 88.7134 135.421 88.562 135.052 88.2884C134.948 88.214 134.898 88.1343 134.808 88.0414C134.42 87.6403 134.229 87.1011 134.229 86.5035V78.1343C134.229 76.9099 135.14 75.9644 136.364 75.9644H148.101C148.489 75.9644 148.855 76.0361 149.174 76.214C149.458 76.3707 149.756 76.5726 149.944 76.8329C150.218 77.2021 150.43 77.643 150.43 78.1343Z" fill="#F9F6F6"/>
<path d="M150.432 78.1409V86.5101C150.432 87.7345 149.327 88.7199 148.103 88.7199H136.368C135.739 88.7199 135.171 88.4649 134.764 88.0426C134.695 87.9709 134.631 87.8647 134.57 87.7823C134.94 88.0559 135.394 88.1887 135.885 88.1887H147.619C148.844 88.1887 149.901 87.2511 149.901 86.0267V77.6575C149.901 77.1661 149.763 76.712 149.489 76.3428C150.047 76.7491 150.432 77.4025 150.432 78.1409Z" fill="#F9F6F6"/>
<path d="M149.343 76.3226C149.043 76.1659 148.645 75.9614 148.254 75.9614H136.52C135.296 75.9614 134.223 77.0663 134.223 78.2934V86.6626C134.223 87.2602 134.52 87.7941 134.871 88.1978C134.188 87.818 133.691 87.0929 133.691 86.2589V77.8897C133.691 76.6653 134.772 75.6958 135.997 75.6958H147.731C148.358 75.6958 148.94 75.9003 149.343 76.3226Z" fill="#F9F6F6"/>
<path d="M109 78.1343V86.5035C109 87.728 108.115 88.7134 106.891 88.7134H95.1564C94.665 88.7134 94.2109 88.562 93.8417 88.2884C93.7381 88.214 93.5761 88.1343 93.4884 88.0414C93.1006 87.643 92.7979 87.1011 92.7979 86.5062V78.1343C92.7979 76.9099 93.9293 75.9644 95.1564 75.9644H106.891C107.279 75.9644 107.648 76.0361 107.966 76.214C108.248 76.3707 108.434 76.5752 108.623 76.8329C108.896 77.2021 109 77.643 109 78.1343Z" fill="#F9F6F6"/>
<path d="M109.001 78.1409V86.5101C109.001 87.7345 108.116 88.7199 106.892 88.7199H95.1575C94.528 88.7199 93.9596 88.4649 93.5559 88.0453C93.4842 87.9709 93.4205 87.8647 93.3594 87.785C93.7286 88.0559 94.1828 88.1887 94.6741 88.1887H106.409C107.633 88.1887 108.735 87.2511 108.735 86.0294V77.6575C108.735 77.1661 108.464 76.712 108.191 76.3428C108.748 76.7491 109.001 77.4052 109.001 78.1409Z" fill="#F9F6F6"/>
<path d="M108.136 76.3226C107.836 76.1659 107.438 75.9614 107.047 75.9614H95.3128C94.0884 75.9614 93.0605 77.069 93.0605 78.2934V86.6626C93.0605 87.2602 93.358 87.7967 93.7086 88.2004C93.026 87.8206 92.5293 87.0955 92.5293 86.2615V77.8897C92.5293 76.6653 93.5651 75.6958 94.7896 75.6958H106.524C107.151 75.6958 107.732 75.9003 108.136 76.3226Z" fill="#F9F6F6"/>
<path d="M88.8093 78.4879V86.8597C88.8093 88.0815 87.6805 88.9819 86.4534 88.9819H74.719C74.2276 88.9819 73.7734 88.873 73.4069 88.5994C73.3033 88.5251 73.2635 88.4666 73.1758 88.3763C72.788 87.9753 72.6074 87.4573 72.6074 86.8597V78.4905C72.6074 77.2635 73.4945 76.2329 74.719 76.2329H86.4534C86.8438 76.2329 87.2104 76.3498 87.5291 76.5251C87.8133 76.6818 88.1214 76.9075 88.31 77.1652C88.5835 77.5344 88.8093 77.9992 88.8093 78.4879Z" fill="#F9F6F6"/>
<path d="M88.8106 78.4827V86.8546C88.8106 88.0763 87.6818 88.9767 86.4547 88.9767H74.7203C74.0935 88.9767 73.5251 88.7643 73.1187 88.3446C73.047 88.2729 72.9832 88.2782 72.9248 88.1959C73.294 88.4668 73.7482 88.7111 74.2369 88.7111H85.9713C87.1984 88.7111 88.2794 87.5929 88.2794 86.3712V78.002C88.2794 77.5106 88.1413 77.0538 87.8677 76.6846C88.4255 77.0909 88.8106 77.747 88.8106 78.4827Z" fill="#F9F6F6"/>
<path d="M87.6958 76.724C87.3957 76.5673 86.9999 76.4956 86.6095 76.4956H74.8751C73.6507 76.4956 72.6015 77.4225 72.6015 78.647V87.0161C72.6015 87.6138 72.899 88.1503 73.2496 88.554C72.567 88.1742 72.0703 87.4491 72.0703 86.6151V78.2459C72.0703 77.0188 73.1274 75.9644 74.3519 75.9644H86.0862C86.7131 75.9644 87.2921 76.3017 87.6958 76.724Z" fill="#F9F6F6"/>
<path d="M129.703 98.2637V106.633C129.703 107.857 128.709 108.904 127.482 108.904H115.748C115.257 108.904 114.802 108.721 114.436 108.447C114.332 108.375 114.226 108.277 114.136 108.187C113.748 107.786 113.501 107.23 113.501 106.633V98.2637C113.501 97.0366 114.524 96.1548 115.748 96.1548H127.482C127.873 96.1548 128.239 96.1973 128.558 96.3726C128.842 96.5293 129.084 96.7179 129.273 96.9782C129.546 97.3447 129.703 97.7723 129.703 98.2637Z" fill="#F9F6F6"/>
<path d="M129.715 98.2581V106.627C129.715 107.852 128.722 108.898 127.495 108.898H115.76C115.134 108.898 114.565 108.611 114.159 108.192C114.09 108.12 114.023 108.03 113.965 107.947C114.334 108.218 114.788 108.367 115.277 108.367H127.014C128.238 108.367 129.184 107.368 129.184 106.144V97.7747C129.184 97.2833 129.046 96.8265 128.772 96.46C129.33 96.8637 129.715 97.5197 129.715 98.2581Z" fill="#F9F6F6"/>
<path d="M128.73 96.5131C128.428 96.3563 128.032 96.1518 127.641 96.1518H115.907C114.683 96.1518 113.764 97.1957 113.764 98.4201V106.792C113.764 107.39 114.061 107.923 114.412 108.327C113.729 107.947 113.232 107.222 113.232 106.388V98.019C113.232 96.7946 114.159 95.8862 115.384 95.8862H127.118C127.745 95.8862 128.324 96.0907 128.73 96.5131Z" fill="#F9F6F6"/>
<path d="M150.43 98.261V106.633C150.43 107.855 149.325 108.904 148.101 108.904H136.367C135.875 108.904 135.421 108.721 135.052 108.447C134.948 108.373 134.898 108.277 134.808 108.187C134.42 107.786 134.229 107.23 134.229 106.633V98.2637C134.229 97.0366 135.14 96.1548 136.367 96.1548H148.101C148.489 96.1548 148.858 96.1973 149.177 96.3726C149.458 96.5293 149.756 96.7179 149.944 96.9755C150.218 97.3447 150.43 97.7723 150.43 98.261Z" fill="#F9F6F6"/>
<path d="M150.432 98.2581V106.63C150.432 107.852 149.327 108.901 148.103 108.901H136.368C135.739 108.901 135.171 108.614 134.767 108.194C134.695 108.123 134.631 108.032 134.57 107.95C134.94 108.221 135.394 108.37 135.885 108.37H147.619C148.844 108.37 149.901 107.371 149.901 106.147V97.7774C149.901 97.286 149.763 96.8292 149.489 96.46C150.047 96.8663 150.432 97.5224 150.432 98.2581Z" fill="#F9F6F6"/>
<path d="M149.343 96.5131C149.043 96.3563 148.645 96.1518 148.254 96.1518H136.52C135.296 96.1518 134.223 97.1957 134.223 98.4201V106.789C134.223 107.387 134.52 107.923 134.871 108.327C134.188 107.947 133.691 107.222 133.691 106.388V98.019C133.691 96.7919 134.772 95.8862 135.997 95.8862H147.731C148.358 95.8862 148.94 96.0907 149.343 96.5131Z" fill="#F9F6F6"/>
<path d="M109 98.2637V106.633C109 107.857 108.115 108.904 106.891 108.904H95.1564C94.665 108.904 94.2109 108.721 93.8417 108.45C93.7381 108.375 93.5761 108.277 93.4884 108.187C93.1006 107.786 92.7979 107.23 92.7979 106.633V98.2637C92.7979 97.0392 93.9293 96.1548 95.1564 96.1548H106.891C107.279 96.1548 107.648 96.1973 107.966 96.3726C108.248 96.5293 108.437 96.7179 108.623 96.9782C108.896 97.3447 109 97.7723 109 98.2637Z" fill="#F9F6F6"/>
<path d="M109.001 98.2581V106.627C109.001 107.852 108.116 108.898 106.892 108.898H95.1575C94.528 108.898 93.9596 108.611 93.5559 108.192C93.4842 108.12 93.4205 108.03 93.3594 107.947C93.7286 108.218 94.1828 108.367 94.6741 108.367H106.409C107.633 108.367 108.735 107.368 108.735 106.144V97.7747C108.735 97.2833 108.464 96.8292 108.191 96.46C108.748 96.8637 109.001 97.5197 109.001 98.2581Z" fill="#F9F6F6"/>
<path d="M108.136 96.5131C107.836 96.3563 107.438 96.1518 107.047 96.1518H95.3128C94.0884 96.1518 93.0605 97.1957 93.0605 98.4201V106.792C93.0605 107.39 93.358 107.923 93.7086 108.327C93.026 107.947 92.5293 107.222 92.5293 106.388V98.019C92.5293 96.7946 93.5651 95.8862 94.7896 95.8862H106.524C107.151 95.8862 107.732 96.0907 108.136 96.5131Z" fill="#F9F6F6"/>
<path d="M88.5407 98.2637V106.633C88.5407 107.857 87.5022 108.904 86.2751 108.904H74.5407C74.0494 108.904 73.5978 108.721 73.2286 108.45C73.1251 108.375 73.0401 108.28 72.9524 108.187C72.5646 107.786 72.3389 107.23 72.3389 106.633V98.2637C72.3389 97.0392 73.3163 96.1548 74.5407 96.1548H86.2751C86.6656 96.1548 87.0321 96.1973 87.3508 96.3752C87.635 96.5293 87.898 96.7179 88.0865 96.9782C88.3601 97.3473 88.5407 97.7723 88.5407 98.2637Z" fill="#F9F6F6"/>
<path d="M88.5494 98.2581V106.627C88.5494 107.852 87.5109 108.898 86.2838 108.898H74.5494C73.9226 108.898 73.3542 108.611 72.9478 108.192C72.8787 108.12 72.8123 108.03 72.7539 107.947C73.1231 108.218 73.5773 108.367 74.0686 108.367H85.8031C87.0275 108.367 88.0182 107.368 88.0182 106.144V97.7747C88.0182 97.2833 87.8801 96.8292 87.6065 96.46C88.1643 96.8663 88.5494 97.5197 88.5494 98.2581Z" fill="#F9F6F6"/>
<path d="M87.5232 96.5131C87.223 96.3563 86.8246 96.1518 86.4342 96.1518H74.6998C73.4754 96.1518 72.6015 97.1957 72.6015 98.4227V106.792C72.6015 107.39 72.899 107.923 73.2496 108.327C72.567 107.947 72.0703 107.222 72.0703 106.388V98.019C72.0703 96.7946 72.9521 95.8862 74.1766 95.8862H85.9109C86.5378 95.8862 87.1168 96.0907 87.5232 96.5131Z" fill="#F9F6F6"/>
<path d="M129.703 118.387V126.759C129.703 127.981 128.709 129.091 127.485 129.091H115.748C115.259 129.091 114.805 128.876 114.436 128.605C114.332 128.531 114.226 128.419 114.136 128.326C113.748 127.925 113.501 127.357 113.501 126.759V118.387C113.501 117.163 114.524 116.077 115.748 116.077H127.482C127.873 116.077 128.239 116.22 128.558 116.398C128.842 116.552 129.084 116.791 129.273 117.051C129.546 117.421 129.703 117.896 129.703 118.387Z" fill="#F9F6F6"/>
<path d="M129.715 118.387V126.759C129.715 127.981 128.722 129.091 127.497 129.091H115.76C115.134 129.091 114.565 128.773 114.159 128.353C114.09 128.281 114.023 128.207 113.965 128.125C114.334 128.395 114.788 128.56 115.28 128.56H127.014C128.238 128.56 129.184 127.498 129.184 126.276V117.904C129.184 117.415 129.046 116.959 128.772 116.589C129.33 116.996 129.715 117.652 129.715 118.387Z" fill="#F9F6F6"/>
<path d="M128.73 116.568C128.43 116.411 128.032 116.339 127.641 116.339H115.907C114.683 116.339 113.764 117.322 113.764 118.546V126.916C113.764 127.513 114.061 128.05 114.412 128.454C113.729 128.074 113.232 127.349 113.232 126.515V118.143C113.232 116.918 114.159 115.808 115.384 115.808H127.118C127.745 115.808 128.327 116.145 128.73 116.568Z" fill="#F9F6F6"/>
<path d="M109 118.387V126.759C109 127.981 108.115 129.091 106.891 129.091H95.1564C94.665 129.091 94.2109 128.876 93.8417 128.605C93.7407 128.531 93.5761 128.419 93.4884 128.326C93.1006 127.925 92.7979 127.357 92.7979 126.759V118.387C92.7979 117.163 93.932 116.077 95.1564 116.077H106.891C107.281 116.077 107.648 116.22 107.966 116.398C108.251 116.555 108.437 116.794 108.623 117.051C108.896 117.421 109 117.899 109 118.387Z" fill="#F9F6F6"/>
<path d="M108.998 118.387V126.759C108.998 127.981 108.114 129.091 106.889 129.091H95.1549C94.528 129.091 93.9596 128.775 93.5533 128.353C93.4816 128.281 93.4178 128.207 93.3594 128.125C93.7259 128.395 94.1801 128.56 94.6715 128.56H106.406C107.63 128.56 108.733 127.498 108.733 126.276V117.907C108.733 117.415 108.462 116.959 108.188 116.589C108.746 116.996 108.998 117.652 108.998 118.387Z" fill="#F9F6F6"/>
<path d="M108.136 116.568C107.836 116.411 107.438 116.339 107.05 116.339H95.3128C94.0884 116.339 93.0605 117.322 93.0605 118.546V126.916C93.0605 127.513 93.358 128.05 93.7086 128.454C93.026 128.074 92.5293 127.349 92.5293 126.515V118.145C92.5293 116.918 93.5651 115.808 94.7896 115.808H106.527C107.151 115.808 107.732 116.145 108.136 116.568Z" fill="#F9F6F6"/>
<path d="M88.5407 118.39V126.759C88.5407 127.981 87.5022 129.091 86.2778 129.091H74.5407C74.052 129.091 73.5978 128.876 73.2286 128.605C73.1251 128.531 73.0401 128.419 72.9524 128.326C72.5646 127.928 72.3389 127.357 72.3389 126.759V118.39C72.3389 117.163 73.3163 116.077 74.5407 116.077H86.2778C86.6656 116.077 87.0321 116.22 87.3508 116.398C87.635 116.555 87.898 116.794 88.0865 117.051C88.3601 117.421 88.5407 117.899 88.5407 118.39Z" fill="#F9F6F6"/>
<path d="M88.5494 118.39V126.759C88.5494 127.981 87.5109 129.091 86.2864 129.091H74.5494C73.9226 129.091 73.3542 128.775 72.9478 128.353C72.8787 128.281 72.8123 128.207 72.7539 128.125C73.1231 128.395 73.5773 128.56 74.0686 128.56H85.8031C87.0275 128.56 88.0182 127.5 88.0182 126.276V117.907C88.0182 117.415 87.8801 116.959 87.6065 116.589C88.1643 116.996 88.5494 117.652 88.5494 118.39Z" fill="#F9F6F6"/>
<path d="M87.5232 116.568C87.223 116.411 86.8246 116.339 86.4342 116.339H74.6998C73.4754 116.339 72.6015 117.322 72.6015 118.546V126.918C72.6015 127.513 72.899 128.05 73.2496 128.454C72.567 128.074 72.0703 127.349 72.0703 126.515V118.145C72.0703 116.918 72.9521 115.808 74.1766 115.808H85.9109C86.5378 115.808 87.1195 116.145 87.5232 116.568Z" fill="#F9F6F6"/>
<path d="M129.703 138.505V146.874C129.703 148.098 128.709 149.004 127.485 149.004H115.751C115.259 149.004 114.805 148.892 114.436 148.619C114.332 148.544 114.226 148.483 114.136 148.393C113.748 147.992 113.501 147.471 113.501 146.874V138.505C113.501 137.28 114.524 136.255 115.748 136.255H127.485C127.873 136.255 128.239 136.366 128.558 136.544C128.842 136.701 129.084 136.924 129.273 137.182C129.546 137.551 129.703 138.013 129.703 138.505Z" fill="#F9F6F6"/>
<path d="M129.715 138.505V146.874C129.715 148.098 128.722 149.004 127.497 149.004H115.763C115.134 149.004 114.565 148.789 114.159 148.369C114.09 148.295 114.026 148.303 113.965 148.22C114.334 148.491 114.788 148.738 115.28 148.738H127.014C128.238 148.738 129.184 147.615 129.184 146.39V138.021C129.184 137.53 129.046 137.076 128.772 136.707C129.33 137.113 129.715 137.766 129.715 138.505Z" fill="#F9F6F6"/>
<path d="M128.73 136.746C128.43 136.589 128.032 136.518 127.641 136.518H115.907C114.683 136.518 113.764 137.437 113.764 138.664V147.033C113.764 147.63 114.061 148.164 114.412 148.568C113.729 148.188 113.232 147.463 113.232 146.629V138.26C113.232 137.035 114.159 135.986 115.384 135.986H127.118C127.745 135.986 128.327 136.324 128.73 136.746Z" fill="#F9F6F6"/>
<path d="M109 138.505V146.874C109 148.098 108.115 149.004 106.891 149.004H95.1564C94.665 149.004 94.2109 148.892 93.8417 148.619C93.7407 148.544 93.5761 148.483 93.4884 148.393C93.1006 147.992 92.7979 147.471 92.7979 146.874V138.505C92.7979 137.28 93.932 136.255 95.1564 136.255H106.891C107.281 136.255 107.648 136.366 107.966 136.544C108.251 136.701 108.437 136.924 108.625 137.184C108.899 137.551 109 138.013 109 138.505Z" fill="#F9F6F6"/>
<path d="M108.998 138.505V146.874C108.998 148.098 108.114 149.004 106.889 149.004H95.1549C94.528 149.004 93.9596 148.789 93.5533 148.369C93.4816 148.295 93.4178 148.303 93.3594 148.22C93.7259 148.491 94.1801 148.738 94.6715 148.738H106.406C107.633 148.738 108.733 147.615 108.733 146.39V138.021C108.733 137.53 108.462 137.076 108.188 136.707C108.746 137.113 108.998 137.766 108.998 138.505Z" fill="#F9F6F6"/>
<path d="M108.136 136.746C107.836 136.589 107.438 136.518 107.05 136.518H95.3155C94.0884 136.518 93.0605 137.437 93.0605 138.664V147.033C93.0605 147.63 93.358 148.164 93.7086 148.568C93.026 148.188 92.5293 147.463 92.5293 146.629V138.26C92.5293 137.035 93.5652 135.986 94.7922 135.986H106.527C107.151 135.986 107.732 136.324 108.136 136.746Z" fill="#F9F6F6"/>
<path d="M88.5407 138.505V146.874C88.5407 148.098 87.5022 149.004 86.2778 149.004H74.5434C74.052 149.004 73.5978 148.892 73.2286 148.619C73.1251 148.544 73.0401 148.483 72.9524 148.393C72.5646 147.992 72.3389 147.471 72.3389 146.876V138.505C72.3389 137.28 73.3163 136.255 74.5434 136.255H86.2778C86.6656 136.255 87.0347 136.366 87.3508 136.544C87.635 136.701 87.898 136.924 88.0865 137.184C88.3601 137.551 88.5407 138.013 88.5407 138.505Z" fill="#F9F6F6"/>
<path d="M88.5494 138.505V146.874C88.5494 148.098 87.5109 149.004 86.2864 149.004H74.552C73.9226 149.004 73.3542 148.789 72.9505 148.369C72.8787 148.295 72.815 148.303 72.7539 148.22C73.1231 148.491 73.5773 148.738 74.0686 148.738H85.8031C87.0275 148.738 88.0182 147.615 88.0182 146.393V138.021C88.0182 137.53 87.8801 137.076 87.6065 136.707C88.1643 137.113 88.5494 137.769 88.5494 138.505Z" fill="#F9F6F6"/>
<path d="M87.5232 136.746C87.223 136.589 86.8246 136.518 86.4342 136.518H74.6998C73.4754 136.518 72.6015 137.439 72.6015 138.664V147.033C72.6015 147.63 72.899 148.167 73.2496 148.571C72.567 148.191 72.0703 147.466 72.0703 146.632V138.26C72.0703 137.035 72.9521 135.986 74.1766 135.986H85.9109C86.5378 135.986 87.1195 136.324 87.5232 136.746Z" fill="#F9F6F6"/>
<path d="M148.507 117.92V146.932C148.507 147.973 147.657 148.746 146.613 148.746H137.123C136.767 148.746 136.435 148.727 136.151 148.552C135.933 148.422 135.742 148.289 135.593 148.085C135.365 147.774 135.229 147.407 135.229 146.993V117.936C135.229 116.895 136.082 116.077 137.123 116.077H146.613C147.012 116.077 147.381 116.178 147.689 116.39C147.909 116.544 148.095 116.73 148.236 116.958C148.406 117.245 148.507 117.564 148.507 117.92Z" fill="#F9F6F6"/>
<path d="M148.523 117.913L148.526 147.018C148.526 148.059 147.649 148.898 146.606 148.898H137.116C136.491 148.898 135.934 148.587 135.586 148.117C135.554 148.072 135.525 148.027 135.498 147.979C135.782 148.155 136.117 148.253 136.473 148.253H145.96C147.004 148.253 147.857 147.4 147.857 146.359V117.267C147.857 116.912 147.742 116.593 147.572 116.309C148.165 116.651 148.523 117.228 148.523 117.913Z" fill="#D3D3D3"/>
<path d="M147.632 116.377C147.326 116.162 147.031 116.064 146.633 116.064L137.127 116.072C136.086 116.072 135.222 116.892 135.222 117.939V147.14L135.228 147.182C135.294 147.631 135.454 147.952 135.679 148.26C135.183 147.915 134.766 147.36 134.766 146.715V117.49C134.766 116.444 135.618 115.588 136.662 115.588H146.149C146.776 115.588 147.286 115.902 147.632 116.377Z" fill="white"/>
<path d="M138.867 81.4111H141.266V78.7231H142.894V81.4111H145.305V83.2331H142.894V85.9077H141.266V83.2331H138.867V81.4111Z" fill="#0C4B5B"/>
<path d="M145.305 101.428H138.867V103.322H145.305V101.428Z" fill="#0C4B5B"/>
<path d="M138.867 132.906H145.481V134.482H138.867V132.906ZM138.867 130.444H145.481V132.017H138.867V130.444Z" fill="#0C4B5B"/>
<path fill-rule="evenodd" clip-rule="evenodd" d="M125.504 67.4678H116.211L116.224 67.4438H125.518L125.504 67.4678Z" fill="#5B656D"/>
<path d="M116.235 67.4473L131.072 43.5668H139.962L125.529 67.4473H116.235Z" fill="#98D2CB"/>
<path d="M80.4688 67.4437L96.6122 43.457H114.139L99.085 67.4437H80.4688Z" fill="#98D2CB"/>
<path d="M42.0518 101.758V134.135H74.3758C74.2536 151.93 59.9083 166.061 42.227 166.061C24.4685 166.061 9.98535 151.668 9.98535 133.909C9.98535 116.151 24.2563 101.758 42.0518 101.758Z" fill="#F24F28"/>
<path d="M46.3135 97.5464C64.109 97.5464 77.854 112.056 77.854 129.762C77.854 129.836 77.9177 130.147 77.9177 130.147H46.3135V97.5464Z" fill="#F89D87"/>
<path d="M181.466 32.7758C173.322 32.9431 166.772 39.4717 166.772 47.5038C166.772 55.6417 173.495 62.2396 181.787 62.2396C184.18 62.2396 186.44 61.6868 188.448 60.7094L181.131 47.5038L181.466 32.7758Z" fill="#F89D87"/>
<path d="M183.708 30.481L183.203 46.4013L198.513 50.813C198.972 49.2169 199.192 47.5221 199.123 45.7718C198.791 37.3601 191.995 30.7359 183.708 30.481Z" fill="#FBC4B7"/>
<path d="M193.145 62.095L182.593 47.4121L199.772 53.3431" fill="#5D9DA4"/>
<path d="M199.772 53.3431L182.593 47.4121L193.145 62.095C196.184 59.9247 198.521 56.8809 199.772 53.3431Z" fill="#F24F28"/>
<path d="M164.617 127.955C163.565 127.859 162.556 127.575 161.597 127.107L161.706 124.706C162.253 125.014 162.848 125.28 163.496 125.5C164.144 125.721 164.715 125.843 165.212 125.864C165.621 125.883 165.923 125.846 166.12 125.755C166.314 125.665 166.417 125.506 166.428 125.275C166.433 125.115 166.372 124.977 166.239 124.86C166.107 124.743 165.884 124.608 165.57 124.451C165.254 124.297 164.829 124.109 164.293 123.888C163.692 123.633 163.209 123.357 162.845 123.057C162.481 122.759 162.224 122.43 162.067 122.071C161.91 121.716 161.846 121.277 161.87 120.757C161.905 119.96 162.189 119.349 162.72 118.924C163.251 118.499 164.03 118.255 165.057 118.196L165.129 116.589L166.627 116.658L166.556 118.249C167.512 118.345 168.468 118.627 169.424 119.089L168.471 121.113C167.482 120.613 166.585 120.345 165.775 120.308C165.39 120.292 165.116 120.326 164.954 120.411C164.792 120.499 164.71 120.635 164.699 120.818C164.694 120.977 164.744 121.11 164.853 121.219C164.962 121.328 165.153 121.453 165.427 121.593C165.7 121.734 166.083 121.899 166.571 122.09C167.562 122.494 168.269 122.932 168.686 123.407C169.105 123.883 169.297 124.48 169.265 125.2C169.227 126.01 168.941 126.656 168.404 127.139C167.868 127.623 167.105 127.901 166.117 127.978L166.03 129.915L164.532 129.846L164.617 127.955Z" fill="#0C4B5B"/>
<path d="M45.9366 55.4552C43.0097 55.1896 40.2126 54.4063 37.5488 53.1046L37.849 46.4352C39.3682 47.2961 41.0256 48.0318 42.8237 48.6424C44.6192 49.2533 46.2075 49.5906 47.586 49.6517C48.7255 49.7048 49.5648 49.6042 50.1066 49.3545C50.6484 49.1046 50.9326 48.6557 50.9618 48.0129C50.9831 47.572 50.8078 47.1895 50.4413 46.8629C50.0721 46.5388 49.4532 46.1619 48.5794 45.7314C47.7055 45.304 46.5263 44.7805 45.0362 44.1646C43.3656 43.4578 42.0243 42.6902 41.0147 41.8589C40.0057 41.0275 39.2859 40.1165 38.8529 39.1258C38.4227 38.1327 38.2394 36.9133 38.3058 35.4658C38.4038 33.2586 39.1929 31.5614 40.6668 30.3821C42.1435 29.2002 44.3058 28.5255 47.1584 28.3582L47.3602 23.9014L51.517 24.0899L51.3177 28.5069C53.9764 28.7752 56.6325 29.5508 59.2859 30.839L56.6351 36.4565C53.8941 35.07 51.3974 34.3263 49.1478 34.2254C48.0774 34.1776 47.3177 34.2732 46.8715 34.5149C46.4253 34.7566 46.1889 35.1311 46.1677 35.6411C46.1464 36.082 46.2872 36.4538 46.59 36.7566C46.8901 37.0594 47.4213 37.4047 48.1836 37.7954C48.9432 38.1856 50.003 38.6451 51.3602 39.1763C54.1146 40.2945 56.0721 41.5109 57.2328 42.8336C58.3961 44.154 58.93 45.8111 58.8397 47.806C58.7387 50.0554 57.9446 51.8509 56.4545 53.1922C54.9645 54.5338 52.8476 55.3117 50.0986 55.5216L49.8569 60.8977L45.7002 60.7091L45.9366 55.4552Z" fill="#0C4B5B"/>
<path d="M176.099 104.361C174.327 104.202 172.633 103.727 171.021 102.938L171.201 98.9007C172.12 99.4212 173.124 99.8675 174.213 100.237C175.302 100.606 176.264 100.81 177.098 100.848C177.788 100.879 178.295 100.818 178.625 100.667C178.951 100.516 179.124 100.245 179.143 99.8542C179.153 99.5886 179.05 99.3548 178.827 99.1583C178.604 98.9617 178.229 98.7333 177.7 98.473C177.169 98.2154 176.455 97.8967 175.554 97.5248C174.542 97.0972 173.73 96.6297 173.119 96.1277C172.508 95.6258 172.072 95.0733 171.809 94.473C171.549 93.8701 171.437 93.1317 171.477 92.2579C171.538 90.9192 172.014 89.8914 172.909 89.1769C173.801 88.4624 175.111 88.0534 176.84 87.9524L176.962 85.2539L179.48 85.3681L179.358 88.0428C180.967 88.2048 182.577 88.6749 184.184 89.4531L182.58 92.8555C180.917 92.0162 179.406 91.5673 178.043 91.5062C177.395 91.477 176.936 91.5354 176.665 91.6815C176.394 91.8276 176.253 92.0534 176.237 92.3615C176.226 92.6297 176.311 92.8555 176.495 93.0388C176.678 93.222 176.999 93.4319 177.459 93.6656C177.921 93.902 178.561 94.1809 179.384 94.5022C181.052 95.1795 182.237 95.9179 182.941 96.7174C183.645 97.5169 183.969 98.5208 183.913 99.7293C183.852 101.092 183.371 102.178 182.468 102.991C181.568 103.804 180.285 104.274 178.619 104.404L178.473 107.658L175.955 107.543L176.099 104.361Z" fill="#0C4B5B"/>
<path d="M22.8729 82.2818C21.5794 82.1623 20.3417 81.817 19.165 81.2407L19.2978 78.2951C19.9672 78.6749 20.7 78.999 21.4944 79.2699C22.2883 79.5408 22.9924 79.6895 23.6004 79.7161C24.1053 79.74 24.4742 79.6949 24.7162 79.5833C24.9549 79.4744 25.08 79.2752 25.0933 78.991C25.1013 78.7971 25.0243 78.6271 24.862 78.4837C24.7002 78.3403 24.4267 78.1729 24.0389 77.9844C23.6537 77.7931 23.1332 77.5621 22.4745 77.2911C21.7361 76.9777 21.1435 76.6378 20.6976 76.2712C20.2514 75.9047 19.9326 75.501 19.7414 75.0627C19.5499 74.6245 19.4705 74.0853 19.4994 73.4452C19.5422 72.4704 19.8901 71.7214 20.5435 71.1982C21.1943 70.6749 22.1502 70.3775 23.4118 70.3057L23.5024 68.335L25.3374 68.4173L25.25 70.3695C26.4267 70.489 27.598 70.8316 28.7719 71.4L27.6004 73.8834C26.3892 73.2699 25.2846 72.9432 24.2909 72.898C23.8184 72.8768 23.4835 72.9193 23.2843 73.0255C23.088 73.1318 22.9844 73.2991 22.9738 73.5222C22.9658 73.7188 23.0269 73.8834 23.1597 74.0162C23.2925 74.149 23.5289 74.3031 23.8636 74.4757C24.2009 74.6484 24.6681 74.8502 25.2686 75.0866C26.4877 75.5806 27.351 76.1172 27.866 76.7015C28.3788 77.2858 28.6152 78.0189 28.5754 78.9007C28.53 79.8941 28.1796 80.6882 27.5209 81.2805C26.8622 81.8728 25.9244 82.2181 24.7109 82.3111L24.6046 84.6856L22.7666 84.6032L22.8729 82.2818Z" fill="#0C4B5B"/>
<path d="M54.4666 75.3425C54.4666 78.134 52.2036 80.3943 49.4148 80.3943C46.6233 80.3943 44.3604 78.134 44.3604 75.3425C44.3604 72.551 46.6233 70.2881 49.4148 70.2881C52.2036 70.2881 54.4666 72.551 54.4666 75.3425Z" fill="#0C4B5B"/>
<path d="M171.448 71.2327C171.448 73.817 169.352 75.9153 166.765 75.9153C164.181 75.9153 162.085 73.817 162.085 71.2327C162.085 68.6484 164.181 66.5527 166.765 66.5527C169.352 66.5527 171.448 68.6484 171.448 71.2327Z" fill="#0C4B5B"/>
<path d="M96.621 168.245C96.621 171.464 94.0127 174.075 90.791 174.075C87.5718 174.075 84.9609 171.464 84.9609 168.245C84.9609 165.023 87.5718 162.415 90.791 162.415C94.0127 162.415 96.621 165.023 96.621 168.245Z" fill="#0C4B5B"/>
</svg>
