<svg width="494" height="386" viewBox="0 0 494 386" fill="none" xmlns="http://www.w3.org/2000/svg">
<g filter="url(#filter0_d)">
<rect x="60" y="30" width="374" height="266" rx="20" fill="white"/>
</g>
<line x1="107.5" y1="62" x2="107.5" y2="245" stroke="#DDE4E8"/>
<line x1="156.5" y1="62" x2="156.5" y2="245" stroke="#EFF2F4"/>
<line x1="205.5" y1="62" x2="205.5" y2="245" stroke="#EFF2F4"/>
<line x1="254.5" y1="62" x2="254.5" y2="245" stroke="#EFF2F4"/>
<line x1="303.5" y1="62" x2="303.5" y2="245" stroke="#EFF2F4"/>
<line x1="352.5" y1="62" x2="352.5" y2="245" stroke="#EFF2F4"/>
<path d="M95.5463 79.12C94.9863 79.12 94.4703 79.008 93.9983 78.784C93.5343 78.56 93.1823 78.26 92.9423 77.884L93.4703 77.176C93.7023 77.504 93.9943 77.76 94.3463 77.944C94.7063 78.12 95.0943 78.208 95.5103 78.208C96.0703 78.208 96.5103 78.032 96.8303 77.68C97.1583 77.32 97.3223 76.836 97.3223 76.228C97.3223 75.644 97.1743 75.184 96.8783 74.848C96.5823 74.504 96.1823 74.332 95.6783 74.332C95.3663 74.332 95.0703 74.408 94.7903 74.56C94.5183 74.704 94.3063 74.9 94.1543 75.148H93.2303L93.6263 70.6H98.1743V71.512H94.6223L94.4063 73.96C94.5663 73.808 94.7863 73.688 95.0663 73.6C95.3543 73.512 95.6503 73.468 95.9543 73.468C96.7143 73.468 97.3223 73.716 97.7783 74.212C98.2343 74.708 98.4623 75.372 98.4623 76.204C98.4623 76.788 98.3423 77.3 98.1023 77.74C97.8623 78.18 97.5223 78.52 97.0823 78.76C96.6423 79 96.1303 79.12 95.5463 79.12ZM96.6023 111.56H92.7503V110.624L96.3623 104.6H97.7063V110.648H98.6543V111.56H97.7063V113H96.6023V111.56ZM96.6023 110.648V105.884L93.7583 110.648H96.6023ZM95.6183 147.12C95.0263 147.12 94.4943 147.012 94.0223 146.796C93.5583 146.572 93.2143 146.268 92.9903 145.884L93.5423 145.236C93.7503 145.532 94.0383 145.768 94.4063 145.944C94.7823 146.12 95.1743 146.208 95.5823 146.208C96.1103 146.208 96.5303 146.064 96.8423 145.776C97.1623 145.488 97.3223 145.116 97.3223 144.66C97.3223 144.156 97.1223 143.76 96.7223 143.472C96.3303 143.184 95.7903 143.04 95.1023 143.04H94.6703V142.164H95.0903C95.6743 142.164 96.1423 142.02 96.4943 141.732C96.8463 141.436 97.0223 141.056 97.0223 140.592C97.0223 140.208 96.8983 139.912 96.6503 139.704C96.4023 139.496 96.0543 139.392 95.6063 139.392C95.1983 139.392 94.8183 139.48 94.4663 139.656C94.1143 139.824 93.8303 140.06 93.6143 140.364L93.0743 139.716C93.3303 139.332 93.6903 139.032 94.1543 138.816C94.6263 138.592 95.1423 138.48 95.7023 138.48C96.4303 138.48 97.0143 138.664 97.4543 139.032C97.9023 139.392 98.1263 139.872 98.1263 140.472C98.1263 140.944 97.9823 141.368 97.6943 141.744C97.4143 142.112 97.0223 142.384 96.5183 142.56C97.1343 142.696 97.6063 142.952 97.9343 143.328C98.2703 143.696 98.4383 144.156 98.4383 144.708C98.4383 145.18 98.3223 145.6 98.0903 145.968C97.8583 146.328 97.5263 146.612 97.0943 146.82C96.6703 147.02 96.1783 147.12 95.6183 147.12ZM93.1703 180.052C93.7463 179.636 94.3183 179.14 94.8863 178.564C95.4623 177.98 95.9503 177.36 96.3503 176.704C96.7503 176.048 96.9503 175.428 96.9503 174.844C96.9503 174.396 96.8223 174.044 96.5663 173.788C96.3103 173.524 95.9623 173.392 95.5223 173.392C95.1223 173.392 94.7423 173.488 94.3823 173.68C94.0303 173.872 93.7503 174.128 93.5423 174.448L92.9543 173.788C93.2023 173.38 93.5543 173.06 94.0103 172.828C94.4743 172.596 94.9823 172.48 95.5343 172.48C96.3183 172.48 96.9383 172.692 97.3943 173.116C97.8503 173.532 98.0783 174.096 98.0783 174.808C98.0783 175.656 97.7423 176.54 97.0703 177.46C96.4063 178.38 95.5903 179.268 94.6223 180.124H98.4503V181H93.1703V180.052ZM93.9503 214.124H95.3903V207.896L93.7343 208.868V207.86L95.7863 206.6H96.4943V214.124H97.9223V215H93.9503V214.124Z" fill="#8FA4B2"/>
<path d="M123.89 263.12C123.546 263.12 123.206 263.064 122.87 262.952C122.542 262.832 122.274 262.68 122.066 262.496L122.486 261.704C122.646 261.856 122.85 261.98 123.098 262.076C123.354 262.164 123.606 262.208 123.854 262.208C124.326 262.208 124.666 262.048 124.874 261.728C125.09 261.4 125.198 260.868 125.198 260.132V254.6H126.302V260.324C126.302 261.292 126.11 262 125.726 262.448C125.342 262.896 124.73 263.12 123.89 263.12ZM129.764 263.12C129.172 263.12 128.688 262.948 128.312 262.604C127.936 262.26 127.748 261.816 127.748 261.272C127.748 260.672 127.972 260.208 128.42 259.88C128.876 259.552 129.52 259.388 130.352 259.388H131.588V259.076C131.588 258.628 131.468 258.288 131.228 258.056C130.996 257.816 130.656 257.696 130.208 257.696C129.848 257.696 129.516 257.772 129.212 257.924C128.916 258.068 128.668 258.28 128.468 258.56L127.952 257.936C128.224 257.592 128.556 257.332 128.948 257.156C129.34 256.972 129.776 256.88 130.256 256.88C131.008 256.88 131.588 257.064 131.996 257.432C132.404 257.8 132.608 258.328 132.608 259.016V261.836C132.608 262.148 132.656 262.536 132.752 263H131.864C131.792 262.816 131.74 262.536 131.708 262.16H131.684C131.46 262.472 131.184 262.712 130.856 262.88C130.528 263.04 130.164 263.12 129.764 263.12ZM129.92 262.316C130.224 262.316 130.504 262.26 130.76 262.148C131.016 262.028 131.216 261.868 131.36 261.668C131.512 261.468 131.588 261.248 131.588 261.008V260.12H130.316C129.812 260.12 129.424 260.22 129.152 260.42C128.88 260.62 128.744 260.904 128.744 261.272C128.744 261.592 128.848 261.848 129.056 262.04C129.272 262.224 129.56 262.316 129.92 262.316ZM134.152 258.512C134.152 257.752 134.136 257.248 134.104 257H135.052C135.084 257.264 135.1 257.62 135.1 258.068H135.136C135.312 257.7 135.58 257.412 135.94 257.204C136.308 256.988 136.716 256.88 137.164 256.88C137.868 256.88 138.396 257.108 138.748 257.564C139.1 258.02 139.276 258.7 139.276 259.604V263H138.256V259.592C138.256 258.952 138.148 258.476 137.932 258.164C137.716 257.852 137.388 257.696 136.948 257.696C136.612 257.696 136.308 257.784 136.036 257.96C135.764 258.128 135.552 258.368 135.4 258.68C135.248 258.984 135.172 259.328 135.172 259.712V263H134.152V258.512Z" fill="#8FA4B2"/>
<path d="M171.316 254.6H176.416V255.512H172.42V258.464H176.152V259.376H172.42V263H171.316V254.6ZM182.725 260.396H178.405C178.461 261.004 178.641 261.468 178.945 261.788C179.249 262.1 179.669 262.256 180.205 262.256C180.925 262.256 181.497 261.972 181.921 261.404L182.497 261.956C182.265 262.324 181.941 262.612 181.525 262.82C181.117 263.02 180.665 263.12 180.169 263.12C179.281 263.12 178.593 262.848 178.105 262.304C177.617 261.76 177.373 260.996 177.373 260.012C177.373 259.036 177.617 258.272 178.105 257.72C178.601 257.16 179.281 256.88 180.145 256.88C180.953 256.88 181.585 257.156 182.041 257.708C182.497 258.252 182.725 259.016 182.725 260V260.396ZM181.789 259.556C181.789 258.98 181.637 258.528 181.333 258.2C181.037 257.872 180.625 257.708 180.097 257.708C179.601 257.708 179.205 257.876 178.909 258.212C178.621 258.548 178.453 259.024 178.405 259.64H181.789V259.556ZM186.728 263.12C186.352 263.12 185.988 263.024 185.636 262.832C185.284 262.632 185.02 262.372 184.844 262.052H184.82C184.828 262.308 184.82 262.624 184.796 263H183.86C183.884 262.736 183.896 262.232 183.896 261.488V254.096H184.916V257.804H184.94C185.34 257.188 185.944 256.88 186.752 256.88C187.52 256.88 188.128 257.152 188.576 257.696C189.024 258.232 189.248 258.964 189.248 259.892C189.248 260.892 189.02 261.68 188.564 262.256C188.116 262.832 187.504 263.12 186.728 263.12ZM186.584 262.304C187.096 262.304 187.496 262.092 187.784 261.668C188.08 261.244 188.228 260.66 188.228 259.916C188.228 259.204 188.08 258.652 187.784 258.26C187.496 257.86 187.096 257.66 186.584 257.66C186.088 257.66 185.684 257.832 185.372 258.176C185.068 258.512 184.916 258.956 184.916 259.508V260.6C184.916 261.12 185.064 261.536 185.36 261.848C185.664 262.152 186.072 262.304 186.584 262.304Z" fill="#8FA4B2"/>
<path d="M227.637 254.6V263H226.557V256.64L224.205 263H223.437L221.085 256.64V263H220.005V254.6H221.277L223.821 261.608L226.365 254.6H227.637ZM231.103 263.12C230.511 263.12 230.027 262.948 229.651 262.604C229.275 262.26 229.087 261.816 229.087 261.272C229.087 260.672 229.311 260.208 229.759 259.88C230.215 259.552 230.859 259.388 231.691 259.388H232.927V259.076C232.927 258.628 232.807 258.288 232.567 258.056C232.335 257.816 231.995 257.696 231.547 257.696C231.187 257.696 230.855 257.772 230.551 257.924C230.255 258.068 230.007 258.28 229.807 258.56L229.291 257.936C229.563 257.592 229.895 257.332 230.287 257.156C230.679 256.972 231.115 256.88 231.595 256.88C232.347 256.88 232.927 257.064 233.335 257.432C233.743 257.8 233.947 258.328 233.947 259.016V261.836C233.947 262.148 233.995 262.536 234.091 263H233.203C233.131 262.816 233.079 262.536 233.047 262.16H233.023C232.799 262.472 232.523 262.712 232.195 262.88C231.867 263.04 231.503 263.12 231.103 263.12ZM231.259 262.316C231.563 262.316 231.843 262.26 232.099 262.148C232.355 262.028 232.555 261.868 232.699 261.668C232.851 261.468 232.927 261.248 232.927 261.008V260.12H231.655C231.151 260.12 230.763 260.22 230.491 260.42C230.219 260.62 230.083 260.904 230.083 261.272C230.083 261.592 230.187 261.848 230.395 262.04C230.611 262.224 230.899 262.316 231.259 262.316ZM235.575 258.464C235.575 257.784 235.563 257.296 235.539 257H236.487C236.519 257.32 236.535 257.672 236.535 258.056V258.176H236.571C236.723 257.76 236.967 257.44 237.303 257.216C237.639 256.992 238.035 256.88 238.491 256.88C238.619 256.88 238.735 256.892 238.839 256.916V257.756C238.735 257.732 238.595 257.72 238.419 257.72C238.083 257.72 237.775 257.824 237.495 258.032C237.215 258.232 236.995 258.508 236.835 258.86C236.675 259.212 236.595 259.596 236.595 260.012V263H235.575V258.464Z" fill="#8FA4B2"/>
<path d="M274.267 261.188H271.003L270.439 263H269.263L272.119 254.6H273.151L276.007 263H274.831L274.267 261.188ZM273.979 260.288L272.635 255.98L271.291 260.288H273.979ZM276.963 258.512C276.963 258 276.947 257.496 276.915 257H277.851C277.875 257.296 277.887 257.612 277.887 257.948H277.911C278.079 257.628 278.339 257.372 278.691 257.18C279.043 256.98 279.423 256.88 279.831 256.88C280.607 256.88 281.215 257.156 281.655 257.708C282.095 258.26 282.315 259.024 282.315 260C282.315 260.632 282.211 261.184 282.003 261.656C281.795 262.12 281.499 262.48 281.115 262.736C280.739 262.992 280.299 263.12 279.795 263.12C279.379 263.12 279.015 263.04 278.703 262.88C278.391 262.72 278.163 262.496 278.019 262.208H277.983V265.904H276.963V258.512ZM279.639 262.34C280.151 262.34 280.555 262.128 280.851 261.704C281.147 261.272 281.295 260.692 281.295 259.964C281.295 259.236 281.151 258.676 280.863 258.284C280.575 257.892 280.171 257.696 279.651 257.696C279.163 257.696 278.763 257.856 278.451 258.176C278.139 258.496 277.983 258.904 277.983 259.4V260.492C277.983 261.044 278.135 261.492 278.439 261.836C278.743 262.172 279.143 262.34 279.639 262.34ZM283.55 258.464C283.55 257.784 283.538 257.296 283.514 257H284.462C284.494 257.32 284.51 257.672 284.51 258.056V258.176H284.546C284.698 257.76 284.942 257.44 285.278 257.216C285.614 256.992 286.01 256.88 286.466 256.88C286.594 256.88 286.71 256.892 286.814 256.916V257.756C286.71 257.732 286.57 257.72 286.394 257.72C286.058 257.72 285.75 257.824 285.47 258.032C285.19 258.232 284.97 258.508 284.81 258.86C284.65 259.212 284.57 259.596 284.57 260.012V263H283.55V258.464Z" fill="#8FA4B2"/>
<path d="M324.963 254.6V263H323.883V256.64L321.531 263H320.763L318.411 256.64V263H317.331V254.6H318.603L321.147 261.608L323.691 254.6H324.963ZM328.43 263.12C327.838 263.12 327.354 262.948 326.978 262.604C326.602 262.26 326.414 261.816 326.414 261.272C326.414 260.672 326.638 260.208 327.086 259.88C327.542 259.552 328.186 259.388 329.018 259.388H330.254V259.076C330.254 258.628 330.134 258.288 329.894 258.056C329.662 257.816 329.322 257.696 328.874 257.696C328.514 257.696 328.182 257.772 327.878 257.924C327.582 258.068 327.334 258.28 327.134 258.56L326.618 257.936C326.89 257.592 327.222 257.332 327.614 257.156C328.006 256.972 328.442 256.88 328.922 256.88C329.674 256.88 330.254 257.064 330.662 257.432C331.07 257.8 331.274 258.328 331.274 259.016V261.836C331.274 262.148 331.322 262.536 331.418 263H330.53C330.458 262.816 330.406 262.536 330.374 262.16H330.35C330.126 262.472 329.85 262.712 329.522 262.88C329.194 263.04 328.83 263.12 328.43 263.12ZM328.586 262.316C328.89 262.316 329.17 262.26 329.426 262.148C329.682 262.028 329.882 261.868 330.026 261.668C330.178 261.468 330.254 261.248 330.254 261.008V260.12H328.982C328.478 260.12 328.09 260.22 327.818 260.42C327.546 260.62 327.41 260.904 327.41 261.272C327.41 261.592 327.514 261.848 327.722 262.04C327.938 262.224 328.226 262.316 328.586 262.316ZM337.51 257L335.338 263.108C334.786 264.652 333.934 265.424 332.782 265.424C332.574 265.424 332.35 265.396 332.11 265.34V264.56C332.254 264.608 332.43 264.632 332.638 264.632C333.046 264.632 333.394 264.484 333.682 264.188C333.97 263.892 334.246 263.392 334.51 262.688L332.278 257H333.37L334.978 261.596L336.406 257H337.51Z" fill="#8FA4B2"/>
<path d="M368.662 263.12C368.318 263.12 367.978 263.064 367.642 262.952C367.314 262.832 367.046 262.68 366.838 262.496L367.258 261.704C367.418 261.856 367.622 261.98 367.87 262.076C368.126 262.164 368.378 262.208 368.626 262.208C369.098 262.208 369.438 262.048 369.646 261.728C369.862 261.4 369.97 260.868 369.97 260.132V254.6H371.074V260.324C371.074 261.292 370.882 262 370.498 262.448C370.114 262.896 369.502 263.12 368.662 263.12ZM374.871 263.12C374.183 263.12 373.659 262.896 373.299 262.448C372.947 262 372.771 261.34 372.771 260.468V257H373.791V260.48C373.791 261.696 374.223 262.304 375.087 262.304C375.423 262.304 375.727 262.22 375.999 262.052C376.271 261.876 376.483 261.636 376.635 261.332C376.787 261.02 376.863 260.672 376.863 260.288V257H377.883V261.728C377.883 262.128 377.919 262.552 377.991 263H377.055C376.983 262.648 376.943 262.292 376.935 261.932H376.899C376.723 262.3 376.451 262.592 376.083 262.808C375.723 263.016 375.319 263.12 374.871 263.12ZM379.38 258.512C379.38 257.752 379.364 257.248 379.332 257H380.28C380.312 257.264 380.328 257.62 380.328 258.068H380.364C380.54 257.7 380.808 257.412 381.168 257.204C381.536 256.988 381.944 256.88 382.392 256.88C383.096 256.88 383.624 257.108 383.976 257.564C384.328 258.02 384.504 258.7 384.504 259.604V263H383.484V259.592C383.484 258.952 383.376 258.476 383.16 258.164C382.944 257.852 382.616 257.696 382.176 257.696C381.84 257.696 381.536 257.784 381.264 257.96C380.992 258.128 380.78 258.368 380.628 258.68C380.476 258.984 380.4 259.328 380.4 259.712V263H379.38V258.512Z" fill="#8FA4B2"/>
<line x1="107" y1="245.5" x2="402" y2="245.5" stroke="#DDE4E8"/>
<line x1="107" y1="211.5" x2="402" y2="211.5" stroke="#EFF2F4"/>
<line x1="107" y1="177.5" x2="402" y2="177.5" stroke="#EFF2F4"/>
<line x1="107" y1="143.5" x2="402" y2="143.5" stroke="#EFF2F4"/>
<line x1="107" y1="109.5" x2="402" y2="109.5" stroke="#EFF2F4"/>
<line x1="107" y1="75.5" x2="402" y2="75.5" stroke="#EFF2F4"/>
<rect x="119" y="173.383" width="5" height="71.6173" fill="#2BD7B8"/>
<rect x="127" y="165.188" width="5" height="79.8124" fill="#2D5D7C"/>
<rect x="135" y="160.199" width="5" height="84.8006" fill="#33B9E3"/>
<rect x="143" y="186.922" width="5" height="58.0778" fill="#EF5939"/>
<rect x="168" y="163.289" width="5" height="81.7111" fill="#2BD7B8"/>
<rect x="176" y="153.939" width="5" height="91.0611" fill="#2D5D7C"/>
<rect x="184" y="148.248" width="5" height="96.7524" fill="#33B9E3"/>
<rect x="192" y="178.737" width="5" height="66.2632" fill="#EF5939"/>
<rect x="217" y="130.605" width="5" height="114.396" fill="#2BD7B8"/>
<rect x="225" y="117.514" width="5" height="127.486" fill="#2D5D7C"/>
<rect x="233" y="109.547" width="5" height="135.453" fill="#33B9E3"/>
<rect x="241" y="152.232" width="5" height="92.7685" fill="#EF5939"/>
<rect x="266" y="148.389" width="5" height="96.6113" fill="#2BD7B8"/>
<rect x="274" y="137.334" width="5" height="107.666" fill="#2D5D7C"/>
<rect x="282" y="130.604" width="5" height="114.396" fill="#33B9E3"/>
<rect x="290" y="166.654" width="5" height="78.3465" fill="#EF5939"/>
<rect x="315" y="108.014" width="5" height="136.986" fill="#2BD7B8"/>
<rect x="323" y="92.3387" width="5" height="152.661" fill="#2D5D7C"/>
<rect x="331" y="82.7974" width="5" height="162.203" fill="#33B9E3"/>
<rect x="339" y="133.912" width="5" height="111.088" fill="#EF5939"/>
<rect x="364" y="95.5168" width="5" height="149.483" fill="#2BD7B8"/>
<rect x="372" y="78.4118" width="5" height="166.588" fill="#2D5D7C"/>
<rect x="380" y="68" width="5" height="177" fill="#33B9E3"/>
<rect x="388" y="123.777" width="5" height="121.223" fill="#EF5939"/>
<defs>
<filter id="filter0_d" x="0" y="0" width="494" height="386" filterUnits="userSpaceOnUse" color-interpolation-filters="sRGB">
<feFlood flood-opacity="0" result="BackgroundImageFix"/>
<feColorMatrix in="SourceAlpha" type="matrix" values="0 0 0 0 0 0 0 0 0 0 0 0 0 0 0 0 0 0 127 0"/>
<feOffset dy="30"/>
<feGaussianBlur stdDeviation="30"/>
<feColorMatrix type="matrix" values="0 0 0 0 0.12549 0 0 0 0 0.290196 0 0 0 0 0.396078 0 0 0 0.07 0"/>
<feBlend mode="normal" in2="BackgroundImageFix" result="effect1_dropShadow"/>
<feBlend mode="normal" in="SourceGraphic" in2="effect1_dropShadow" result="shape"/>
</filter>
</defs>
</svg>
