<svg width="690" height="675" viewBox="0 0 690 675" fill="none" xmlns="http://www.w3.org/2000/svg">
<g filter="url(#filter0_d)">
<rect x="256" y="319" width="374" height="266" rx="20" fill="white"/>
</g>
<line x1="303.5" y1="351" x2="303.5" y2="534" stroke="#DDE4E8"/>
<line x1="352.5" y1="351" x2="352.5" y2="534" stroke="#EFF2F4"/>
<line x1="401.5" y1="351" x2="401.5" y2="534" stroke="#EFF2F4"/>
<line x1="450.5" y1="351" x2="450.5" y2="534" stroke="#EFF2F4"/>
<line x1="499.5" y1="351" x2="499.5" y2="534" stroke="#EFF2F4"/>
<line x1="548.5" y1="351" x2="548.5" y2="534" stroke="#EFF2F4"/>
<path d="M291.546 368.12C290.986 368.12 290.47 368.008 289.998 367.784C289.534 367.56 289.182 367.26 288.942 366.884L289.47 366.176C289.702 366.504 289.994 366.76 290.346 366.944C290.706 367.12 291.094 367.208 291.51 367.208C292.07 367.208 292.51 367.032 292.83 366.68C293.158 366.32 293.322 365.836 293.322 365.228C293.322 364.644 293.174 364.184 292.878 363.848C292.582 363.504 292.182 363.332 291.678 363.332C291.366 363.332 291.07 363.408 290.79 363.56C290.518 363.704 290.306 363.9 290.154 364.148H289.23L289.626 359.6H294.174V360.512H290.622L290.406 362.96C290.566 362.808 290.786 362.688 291.066 362.6C291.354 362.512 291.65 362.468 291.954 362.468C292.714 362.468 293.322 362.716 293.778 363.212C294.234 363.708 294.462 364.372 294.462 365.204C294.462 365.788 294.342 366.3 294.102 366.74C293.862 367.18 293.522 367.52 293.082 367.76C292.642 368 292.13 368.12 291.546 368.12ZM292.602 400.56H288.75V399.624L292.362 393.6H293.706V399.648H294.654V400.56H293.706V402H292.602V400.56ZM292.602 399.648V394.884L289.758 399.648H292.602ZM291.618 436.12C291.026 436.12 290.494 436.012 290.022 435.796C289.558 435.572 289.214 435.268 288.99 434.884L289.542 434.236C289.75 434.532 290.038 434.768 290.406 434.944C290.782 435.12 291.174 435.208 291.582 435.208C292.11 435.208 292.53 435.064 292.842 434.776C293.162 434.488 293.322 434.116 293.322 433.66C293.322 433.156 293.122 432.76 292.722 432.472C292.33 432.184 291.79 432.04 291.102 432.04H290.67V431.164H291.09C291.674 431.164 292.142 431.02 292.494 430.732C292.846 430.436 293.022 430.056 293.022 429.592C293.022 429.208 292.898 428.912 292.65 428.704C292.402 428.496 292.054 428.392 291.606 428.392C291.198 428.392 290.818 428.48 290.466 428.656C290.114 428.824 289.83 429.06 289.614 429.364L289.074 428.716C289.33 428.332 289.69 428.032 290.154 427.816C290.626 427.592 291.142 427.48 291.702 427.48C292.43 427.48 293.014 427.664 293.454 428.032C293.902 428.392 294.126 428.872 294.126 429.472C294.126 429.944 293.982 430.368 293.694 430.744C293.414 431.112 293.022 431.384 292.518 431.56C293.134 431.696 293.606 431.952 293.934 432.328C294.27 432.696 294.438 433.156 294.438 433.708C294.438 434.18 294.322 434.6 294.09 434.968C293.858 435.328 293.526 435.612 293.094 435.82C292.67 436.02 292.178 436.12 291.618 436.12ZM289.17 469.052C289.746 468.636 290.318 468.14 290.886 467.564C291.462 466.98 291.95 466.36 292.35 465.704C292.75 465.048 292.95 464.428 292.95 463.844C292.95 463.396 292.822 463.044 292.566 462.788C292.31 462.524 291.962 462.392 291.522 462.392C291.122 462.392 290.742 462.488 290.382 462.68C290.03 462.872 289.75 463.128 289.542 463.448L288.954 462.788C289.202 462.38 289.554 462.06 290.01 461.828C290.474 461.596 290.982 461.48 291.534 461.48C292.318 461.48 292.938 461.692 293.394 462.116C293.85 462.532 294.078 463.096 294.078 463.808C294.078 464.656 293.742 465.54 293.07 466.46C292.406 467.38 291.59 468.268 290.622 469.124H294.45V470H289.17V469.052ZM289.95 503.124H291.39V496.896L289.734 497.868V496.86L291.786 495.6H292.494V503.124H293.922V504H289.95V503.124Z" fill="#8FA4B2"/>
<path d="M319.89 552.12C319.546 552.12 319.206 552.064 318.87 551.952C318.542 551.832 318.274 551.68 318.066 551.496L318.486 550.704C318.646 550.856 318.85 550.98 319.098 551.076C319.354 551.164 319.606 551.208 319.854 551.208C320.326 551.208 320.666 551.048 320.874 550.728C321.09 550.4 321.198 549.868 321.198 549.132V543.6H322.302V549.324C322.302 550.292 322.11 551 321.726 551.448C321.342 551.896 320.73 552.12 319.89 552.12ZM325.764 552.12C325.172 552.12 324.688 551.948 324.312 551.604C323.936 551.26 323.748 550.816 323.748 550.272C323.748 549.672 323.972 549.208 324.42 548.88C324.876 548.552 325.52 548.388 326.352 548.388H327.588V548.076C327.588 547.628 327.468 547.288 327.228 547.056C326.996 546.816 326.656 546.696 326.208 546.696C325.848 546.696 325.516 546.772 325.212 546.924C324.916 547.068 324.668 547.28 324.468 547.56L323.952 546.936C324.224 546.592 324.556 546.332 324.948 546.156C325.34 545.972 325.776 545.88 326.256 545.88C327.008 545.88 327.588 546.064 327.996 546.432C328.404 546.8 328.608 547.328 328.608 548.016V550.836C328.608 551.148 328.656 551.536 328.752 552H327.864C327.792 551.816 327.74 551.536 327.708 551.16H327.684C327.46 551.472 327.184 551.712 326.856 551.88C326.528 552.04 326.164 552.12 325.764 552.12ZM325.92 551.316C326.224 551.316 326.504 551.26 326.76 551.148C327.016 551.028 327.216 550.868 327.36 550.668C327.512 550.468 327.588 550.248 327.588 550.008V549.12H326.316C325.812 549.12 325.424 549.22 325.152 549.42C324.88 549.62 324.744 549.904 324.744 550.272C324.744 550.592 324.848 550.848 325.056 551.04C325.272 551.224 325.56 551.316 325.92 551.316ZM330.152 547.512C330.152 546.752 330.136 546.248 330.104 546H331.052C331.084 546.264 331.1 546.62 331.1 547.068H331.136C331.312 546.7 331.58 546.412 331.94 546.204C332.308 545.988 332.716 545.88 333.164 545.88C333.868 545.88 334.396 546.108 334.748 546.564C335.1 547.02 335.276 547.7 335.276 548.604V552H334.256V548.592C334.256 547.952 334.148 547.476 333.932 547.164C333.716 546.852 333.388 546.696 332.948 546.696C332.612 546.696 332.308 546.784 332.036 546.96C331.764 547.128 331.552 547.368 331.4 547.68C331.248 547.984 331.172 548.328 331.172 548.712V552H330.152V547.512Z" fill="#8FA4B2"/>
<path d="M367.316 543.6H372.416V544.512H368.42V547.464H372.152V548.376H368.42V552H367.316V543.6ZM378.725 549.396H374.405C374.461 550.004 374.641 550.468 374.945 550.788C375.249 551.1 375.669 551.256 376.205 551.256C376.925 551.256 377.497 550.972 377.921 550.404L378.497 550.956C378.265 551.324 377.941 551.612 377.525 551.82C377.117 552.02 376.665 552.12 376.169 552.12C375.281 552.12 374.593 551.848 374.105 551.304C373.617 550.76 373.373 549.996 373.373 549.012C373.373 548.036 373.617 547.272 374.105 546.72C374.601 546.16 375.281 545.88 376.145 545.88C376.953 545.88 377.585 546.156 378.041 546.708C378.497 547.252 378.725 548.016 378.725 549V549.396ZM377.789 548.556C377.789 547.98 377.637 547.528 377.333 547.2C377.037 546.872 376.625 546.708 376.097 546.708C375.601 546.708 375.205 546.876 374.909 547.212C374.621 547.548 374.453 548.024 374.405 548.64H377.789V548.556ZM382.728 552.12C382.352 552.12 381.988 552.024 381.636 551.832C381.284 551.632 381.02 551.372 380.844 551.052H380.82C380.828 551.308 380.82 551.624 380.796 552H379.86C379.884 551.736 379.896 551.232 379.896 550.488V543.096H380.916V546.804H380.94C381.34 546.188 381.944 545.88 382.752 545.88C383.52 545.88 384.128 546.152 384.576 546.696C385.024 547.232 385.248 547.964 385.248 548.892C385.248 549.892 385.02 550.68 384.564 551.256C384.116 551.832 383.504 552.12 382.728 552.12ZM382.584 551.304C383.096 551.304 383.496 551.092 383.784 550.668C384.08 550.244 384.228 549.66 384.228 548.916C384.228 548.204 384.08 547.652 383.784 547.26C383.496 546.86 383.096 546.66 382.584 546.66C382.088 546.66 381.684 546.832 381.372 547.176C381.068 547.512 380.916 547.956 380.916 548.508V549.6C380.916 550.12 381.064 550.536 381.36 550.848C381.664 551.152 382.072 551.304 382.584 551.304Z" fill="#8FA4B2"/>
<path d="M423.637 543.6V552H422.557V545.64L420.205 552H419.437L417.085 545.64V552H416.005V543.6H417.277L419.821 550.608L422.365 543.6H423.637ZM427.103 552.12C426.511 552.12 426.027 551.948 425.651 551.604C425.275 551.26 425.087 550.816 425.087 550.272C425.087 549.672 425.311 549.208 425.759 548.88C426.215 548.552 426.859 548.388 427.691 548.388H428.927V548.076C428.927 547.628 428.807 547.288 428.567 547.056C428.335 546.816 427.995 546.696 427.547 546.696C427.187 546.696 426.855 546.772 426.551 546.924C426.255 547.068 426.007 547.28 425.807 547.56L425.291 546.936C425.563 546.592 425.895 546.332 426.287 546.156C426.679 545.972 427.115 545.88 427.595 545.88C428.347 545.88 428.927 546.064 429.335 546.432C429.743 546.8 429.947 547.328 429.947 548.016V550.836C429.947 551.148 429.995 551.536 430.091 552H429.203C429.131 551.816 429.079 551.536 429.047 551.16H429.023C428.799 551.472 428.523 551.712 428.195 551.88C427.867 552.04 427.503 552.12 427.103 552.12ZM427.259 551.316C427.563 551.316 427.843 551.26 428.099 551.148C428.355 551.028 428.555 550.868 428.699 550.668C428.851 550.468 428.927 550.248 428.927 550.008V549.12H427.655C427.151 549.12 426.763 549.22 426.491 549.42C426.219 549.62 426.083 549.904 426.083 550.272C426.083 550.592 426.187 550.848 426.395 551.04C426.611 551.224 426.899 551.316 427.259 551.316ZM431.575 547.464C431.575 546.784 431.563 546.296 431.539 546H432.487C432.519 546.32 432.535 546.672 432.535 547.056V547.176H432.571C432.723 546.76 432.967 546.44 433.303 546.216C433.639 545.992 434.035 545.88 434.491 545.88C434.619 545.88 434.735 545.892 434.839 545.916V546.756C434.735 546.732 434.595 546.72 434.419 546.72C434.083 546.72 433.775 546.824 433.495 547.032C433.215 547.232 432.995 547.508 432.835 547.86C432.675 548.212 432.595 548.596 432.595 549.012V552H431.575V547.464Z" fill="#8FA4B2"/>
<path d="M470.267 550.188H467.003L466.439 552H465.263L468.119 543.6H469.151L472.007 552H470.831L470.267 550.188ZM469.979 549.288L468.635 544.98L467.291 549.288H469.979ZM472.963 547.512C472.963 547 472.947 546.496 472.915 546H473.851C473.875 546.296 473.887 546.612 473.887 546.948H473.911C474.079 546.628 474.339 546.372 474.691 546.18C475.043 545.98 475.423 545.88 475.831 545.88C476.607 545.88 477.215 546.156 477.655 546.708C478.095 547.26 478.315 548.024 478.315 549C478.315 549.632 478.211 550.184 478.003 550.656C477.795 551.12 477.499 551.48 477.115 551.736C476.739 551.992 476.299 552.12 475.795 552.12C475.379 552.12 475.015 552.04 474.703 551.88C474.391 551.72 474.163 551.496 474.019 551.208H473.983V554.904H472.963V547.512ZM475.639 551.34C476.151 551.34 476.555 551.128 476.851 550.704C477.147 550.272 477.295 549.692 477.295 548.964C477.295 548.236 477.151 547.676 476.863 547.284C476.575 546.892 476.171 546.696 475.651 546.696C475.163 546.696 474.763 546.856 474.451 547.176C474.139 547.496 473.983 547.904 473.983 548.4V549.492C473.983 550.044 474.135 550.492 474.439 550.836C474.743 551.172 475.143 551.34 475.639 551.34ZM479.55 547.464C479.55 546.784 479.538 546.296 479.514 546H480.462C480.494 546.32 480.51 546.672 480.51 547.056V547.176H480.546C480.698 546.76 480.942 546.44 481.278 546.216C481.614 545.992 482.01 545.88 482.466 545.88C482.594 545.88 482.71 545.892 482.814 545.916V546.756C482.71 546.732 482.57 546.72 482.394 546.72C482.058 546.72 481.75 546.824 481.47 547.032C481.19 547.232 480.97 547.508 480.81 547.86C480.65 548.212 480.57 548.596 480.57 549.012V552H479.55V547.464Z" fill="#8FA4B2"/>
<path d="M520.963 543.6V552H519.883V545.64L517.531 552H516.763L514.411 545.64V552H513.331V543.6H514.603L517.147 550.608L519.691 543.6H520.963ZM524.43 552.12C523.838 552.12 523.354 551.948 522.978 551.604C522.602 551.26 522.414 550.816 522.414 550.272C522.414 549.672 522.638 549.208 523.086 548.88C523.542 548.552 524.186 548.388 525.018 548.388H526.254V548.076C526.254 547.628 526.134 547.288 525.894 547.056C525.662 546.816 525.322 546.696 524.874 546.696C524.514 546.696 524.182 546.772 523.878 546.924C523.582 547.068 523.334 547.28 523.134 547.56L522.618 546.936C522.89 546.592 523.222 546.332 523.614 546.156C524.006 545.972 524.442 545.88 524.922 545.88C525.674 545.88 526.254 546.064 526.662 546.432C527.07 546.8 527.274 547.328 527.274 548.016V550.836C527.274 551.148 527.322 551.536 527.418 552H526.53C526.458 551.816 526.406 551.536 526.374 551.16H526.35C526.126 551.472 525.85 551.712 525.522 551.88C525.194 552.04 524.83 552.12 524.43 552.12ZM524.586 551.316C524.89 551.316 525.17 551.26 525.426 551.148C525.682 551.028 525.882 550.868 526.026 550.668C526.178 550.468 526.254 550.248 526.254 550.008V549.12H524.982C524.478 549.12 524.09 549.22 523.818 549.42C523.546 549.62 523.41 549.904 523.41 550.272C523.41 550.592 523.514 550.848 523.722 551.04C523.938 551.224 524.226 551.316 524.586 551.316ZM533.51 546L531.338 552.108C530.786 553.652 529.934 554.424 528.782 554.424C528.574 554.424 528.35 554.396 528.11 554.34V553.56C528.254 553.608 528.43 553.632 528.638 553.632C529.046 553.632 529.394 553.484 529.682 553.188C529.97 552.892 530.246 552.392 530.51 551.688L528.278 546H529.37L530.978 550.596L532.406 546H533.51Z" fill="#8FA4B2"/>
<path d="M564.662 552.12C564.318 552.12 563.978 552.064 563.642 551.952C563.314 551.832 563.046 551.68 562.838 551.496L563.258 550.704C563.418 550.856 563.622 550.98 563.87 551.076C564.126 551.164 564.378 551.208 564.626 551.208C565.098 551.208 565.438 551.048 565.646 550.728C565.862 550.4 565.97 549.868 565.97 549.132V543.6H567.074V549.324C567.074 550.292 566.882 551 566.498 551.448C566.114 551.896 565.502 552.12 564.662 552.12ZM570.871 552.12C570.183 552.12 569.659 551.896 569.299 551.448C568.947 551 568.771 550.34 568.771 549.468V546H569.791V549.48C569.791 550.696 570.223 551.304 571.087 551.304C571.423 551.304 571.727 551.22 571.999 551.052C572.271 550.876 572.483 550.636 572.635 550.332C572.787 550.02 572.863 549.672 572.863 549.288V546H573.883V550.728C573.883 551.128 573.919 551.552 573.991 552H573.055C572.983 551.648 572.943 551.292 572.935 550.932H572.899C572.723 551.3 572.451 551.592 572.083 551.808C571.723 552.016 571.319 552.12 570.871 552.12ZM575.38 547.512C575.38 546.752 575.364 546.248 575.332 546H576.28C576.312 546.264 576.328 546.62 576.328 547.068H576.364C576.54 546.7 576.808 546.412 577.168 546.204C577.536 545.988 577.944 545.88 578.392 545.88C579.096 545.88 579.624 546.108 579.976 546.564C580.328 547.02 580.504 547.7 580.504 548.604V552H579.484V548.592C579.484 547.952 579.376 547.476 579.16 547.164C578.944 546.852 578.616 546.696 578.176 546.696C577.84 546.696 577.536 546.784 577.264 546.96C576.992 547.128 576.78 547.368 576.628 547.68C576.476 547.984 576.4 548.328 576.4 548.712V552H575.38V547.512Z" fill="#8FA4B2"/>
<line x1="303" y1="534.5" x2="598" y2="534.5" stroke="#DDE4E8"/>
<line x1="303" y1="500.5" x2="598" y2="500.5" stroke="#EFF2F4"/>
<line x1="303" y1="466.5" x2="598" y2="466.5" stroke="#EFF2F4"/>
<line x1="303" y1="432.5" x2="598" y2="432.5" stroke="#EFF2F4"/>
<line x1="303" y1="398.5" x2="598" y2="398.5" stroke="#EFF2F4"/>
<line x1="303" y1="364.5" x2="598" y2="364.5" stroke="#EFF2F4"/>
<path d="M303 508C303.85 505.723 304.635 503.341 305.629 501.118C306.046 500.186 307.813 503.332 308.034 503.602C310.95 507.162 314.16 501.748 315.977 499.256C316.7 498.265 316.509 498.915 316.984 499.618C317.557 500.467 319.399 495.888 319.501 495.634C319.681 495.183 321.175 490.196 322.018 490.408C322.79 490.603 322.486 490.483 322.969 489.425C324.637 485.772 327.47 482.362 329.905 479.129C330.393 478.481 333.35 473.716 333.932 474.679C336.769 479.375 339.282 476.871 342.881 473.799C343.603 473.183 348.791 467.466 349.929 468.263C351.728 469.524 352.508 472.097 354.124 473.592C355.861 475.199 360.326 469.291 363.382 472.118C366.127 474.657 371.282 471.227 374.261 470.41C379.502 468.974 382.03 480.289 387.489 476.361C390.616 474.111 392.675 470.868 395.74 468.599C396.841 467.784 396.642 468.968 397.754 468.781C401.08 468.221 404.289 464.465 406.591 462.468C406.838 462.254 409.404 459.526 410.283 460.036C411.563 460.78 411.666 465.26 412.241 466.504C414.338 471.041 418.902 463.241 420.351 461.589C421.771 459.97 421.464 460.341 422.421 461.226C423.213 461.959 432.159 449.858 432.713 450.516C434.356 452.47 434.101 452.793 436.069 450.568C440.384 445.689 443.92 440.337 447.927 435.253C452.241 429.778 448.929 437.725 453.716 436.443C457.34 435.472 458.273 435.035 460.177 438.228C461.293 440.099 463.142 443.385 465.546 444.126C466.638 444.463 467.548 443.503 468.567 443.66C469.576 443.816 470.248 446.461 471.084 447.179C473.544 449.292 481.27 441.672 482.243 446.351C482.938 449.694 483.601 454.365 486.214 456.984C488.117 458.891 493.65 452.504 494.661 451.499C494.93 451.231 498.853 446.581 499.359 447.282C500.005 448.178 500.349 448.264 501.429 448.214C503.287 448.128 504.227 449.258 506.239 448.783C510.717 447.725 514.456 445.032 518.517 443.117C520.672 442.101 523.615 440.579 526.18 440.841C527.74 441 527.109 442.036 527.858 442.729C528.003 442.864 533.53 431.848 534.039 430.906C534.526 430.004 537.631 423.259 539.324 426.25C540.509 428.341 542.721 425.868 544.191 424.956C547.178 423.104 549.104 423.185 551.966 425.267C555.013 427.484 556.626 426.491 559.741 424.542C560.953 423.784 566.032 418.988 567.571 419.316C568.969 419.615 568.464 422.612 569.809 423.145C571.66 423.879 575.999 414.074 578.367 416.16C580.196 417.771 581.445 413.106 583.121 415.1C584.88 417.192 587.289 413.917 589.106 412.642C592.401 410.33 591.242 414.538 592.239 414.142C593.515 413.636 594.753 414.262 595.707 412.978C596.109 412.437 597.263 410.459 598 411.141" stroke="#33B9E3" stroke-linecap="round" stroke-linejoin="round"/>
<path d="M303 447.416C304.421 445.668 304.802 444.711 305.713 447.209C306.064 448.172 307.565 453.762 309.312 451.441C311.18 448.959 312.766 446.334 314.738 443.907C316.277 442.012 316.49 442.339 318.503 443.7C322.166 446.177 325.71 449.565 330.047 451.002C333.374 452.104 334.988 448.378 336.774 446.435C338.072 445.024 338.301 444.507 338.989 446.332C340.29 449.784 341.195 450.174 344.664 448.293C346.794 447.138 348.839 445.599 351.281 445.094C354.597 444.407 357.478 438.909 358.7 436.373C359.024 435.702 360.069 431.515 361.302 432.09C362.761 432.77 366.084 427.352 366.645 426.414C367.161 425.553 367.437 423.307 368.362 424.815C368.99 425.839 370.095 429.092 371.712 427.859C372.533 427.233 376.644 422.466 377.636 422.957C379.447 423.854 378.368 428.093 380.958 428.736C382.469 429.112 385.906 425.948 387.048 425.253C389.071 424.024 389.371 424.003 391.007 425.666C392.462 427.145 393.488 428.834 395.769 427.833C396.824 427.371 397.835 426.807 398.842 426.26C399.32 426 399.838 424.918 400.171 425.331C401.015 426.38 401.148 428.419 402.053 429.665C403.28 431.352 403.567 431.515 405.652 431.445C408.662 431.345 409.756 434.401 413.071 433.742C417.378 432.885 422.022 430.116 426.581 430.723C431.729 431.408 437.349 425.931 441.475 423.318C444.84 421.187 444.94 437.463 450.057 430.31C451.048 428.924 452.777 424.432 454.68 423.886C455.982 423.513 455.256 425.462 456.923 423.68C457.782 422.76 460.744 418.107 462.072 418.107C463.633 418.107 464.106 421.325 465.948 421.409C468.456 421.523 469.876 418.091 472.592 418.468C476.075 418.951 474.211 422.446 477.464 419.035C477.914 418.563 480.366 415.201 481.174 415.475C482.339 415.87 483.178 418.333 484.717 417.281C486.573 416.013 487.845 413.875 489.258 412.224C490.686 410.554 492.023 410.251 493.189 408.303C494.265 406.503 496.374 402.831 498.504 401.904C498.995 401.69 499.854 403.66 499.888 403.71C501.401 405.944 503.368 408.298 505.646 409.902C508.195 411.697 510.742 406.983 512.014 405.516C513.063 404.305 514.117 402.956 515.363 401.904C516.308 401.107 517.625 404.179 517.883 404.562C518.63 405.673 520.944 409.953 523.06 409.257C524.202 408.882 525.915 407.086 527.24 407.58C530.481 408.789 534.357 402.965 537.289 405.697C541.324 409.457 545.417 411.821 551.131 409.773C553.617 408.882 555.776 407.15 558.301 406.419C560.025 405.921 560.336 407.265 561.125 408.303C561.747 409.12 562.83 405.203 563.008 404.794C563.651 403.308 564.856 400.486 566.856 400.072C569.689 399.486 574.378 393.916 576.905 396.847C578.56 398.768 580.845 400.995 583.438 401.801C584.323 402.076 585.524 399.912 586.013 399.427C586.741 398.707 587.381 399.129 588.283 399.35C589.525 399.655 589.382 399.18 590.415 398.757C592.663 397.835 592.838 397.029 595.204 398.653C596.658 399.652 596.524 399.341 598 398.653" stroke="#2D5D7C" stroke-linecap="round" stroke-linejoin="round"/>
<path d="M303 484.625C304.548 482.519 306.426 478.813 308.766 477.27C310.079 476.405 311.435 479.316 312.133 479.973C313.913 481.65 318.517 478.224 320.327 477.66C325.055 476.187 328.927 479.437 333.626 479.843C336.814 480.119 339.875 479.531 343.034 479.531C344.476 479.531 347.861 489.04 348.58 490.29C349.707 492.248 352.223 498.173 355.229 495.175C357.09 493.32 358.868 488.244 361.382 487.275C361.833 487.102 363.303 492.124 363.589 492.629C363.946 493.258 365.397 491.97 366.072 492.213C368.642 493.135 372.591 492.074 374.626 493.824C377.765 496.524 381.095 497.611 385.22 497.722C387.354 497.78 387.069 501.691 389.8 500.893C390.947 500.557 392.177 499.751 393.387 500.321C394.496 500.843 394.938 501.287 396.201 500.581C397.63 499.782 398.909 498.672 400.147 497.644C401.722 496.337 404.113 493.075 406.217 492.603C409.348 491.901 409.372 500.818 411.763 500.269C412.665 500.061 414.081 497.531 414.467 497.047C416.508 494.483 418.651 491.81 421.171 489.64C423.038 488.033 423.545 486.569 424.565 484.001C425.569 481.473 426.184 479.979 428.014 478.128C430.451 475.662 431.892 472.533 434.111 469.968C434.576 469.431 435.86 473.892 436.07 474.386C436.398 475.158 441.354 469.403 441.671 468.981C442.971 467.248 444.016 463.777 445.837 465.888C446.919 467.143 448.228 467.228 449.507 466.278C451.701 464.648 452.12 464.113 454.197 466.07C455.228 467.041 455.872 466.921 457.067 466.278C459.682 464.87 459.702 467.728 460.653 469.734C461.62 471.772 462.352 470.631 463.302 471.631C465.368 473.806 466.17 477.045 469.317 478.258C472.11 479.334 472.612 482.317 474.118 484.625C476.906 488.897 481.397 482.205 484.188 480.285C485.806 479.172 486.267 479.757 487.251 479.375C491.234 477.831 494.273 476.157 497.79 473.294C500.204 471.331 502.617 469.422 505.24 467.707C506.144 467.116 509.326 464.52 510.703 464.693C511.372 464.777 512.545 472.348 512.855 473.346C513.477 475.352 515.458 470.701 515.918 470.046C519.433 465.039 525.094 461.445 530.955 459.21C533.843 458.108 535.66 458.285 537.797 456.169C539.459 454.524 542.007 450.096 544.253 449.283C544.808 449.082 547.231 449.406 548.033 449.283C549.644 449.036 550.147 448.355 551.316 449.335C552.293 450.152 553.855 448.268 554.489 447.775C555.587 446.924 556.196 448.687 557.166 448.971C559.299 449.594 561.793 447.196 563.815 446.892C564.776 446.747 565.183 448.344 565.94 447.671C569.423 444.573 567.383 458.195 570.63 454.272C572.631 451.854 574.676 449.417 577.279 447.541C578.251 446.841 578.491 448.102 579.128 448.607C580.077 449.36 581.978 446.858 582.549 446.32C584.033 444.922 583.501 446.965 583.708 448.035C584.394 451.588 586.922 442.459 587.681 444.605C588.479 446.86 589.652 446.88 591.654 446.372C592.35 446.196 593.165 446.999 593.751 446.684C594.338 446.368 594.592 444.779 595.02 444.241C595.632 443.473 595.799 444.803 596.289 444.605C596.866 444.372 597.379 444.397 598 444.397" stroke="#EF5939" stroke-linecap="round" stroke-linejoin="round"/>
<path d="M303 470C303.789 469.037 310.611 461.037 311.678 462.402C313.381 464.581 313.054 465.117 316.487 464.14C318.701 463.509 320.91 462.851 323.148 462.298C324.754 461.902 324.526 462.583 325.884 462.947C329.181 463.831 329.762 456.625 333.125 457.294C336.544 457.974 338.41 453.206 342.3 453.767C344.649 454.106 347.65 453.884 349.403 455.142C350.689 456.064 353.746 458.742 355.345 457.242C358.226 454.539 361.066 451.933 364.051 449.333C364.826 448.658 365.349 449.391 366.179 449.255C368.671 448.849 370.668 445.182 372.922 444.069C376.05 442.525 376.907 438.542 378.118 435.356C379.554 431.581 380.695 428.089 383.203 424.88C383.535 424.456 385.8 420.886 386.409 421.094C388.941 421.958 391.07 423.805 394.065 422.935C398.903 421.53 400.162 415.68 402.909 412.329C403.767 411.283 406.468 410.792 407.662 410.151C411.396 408.149 415.195 406.465 419.132 404.861C421.45 403.917 423.012 407.376 424.825 408.699C428.138 411.116 433.485 394.6 437.206 396.823C438.081 397.345 439.114 396.724 440.164 396.46C443.243 395.684 447.75 392.834 450.887 393.115C452.578 393.266 453.514 396.584 455.419 397.134C456.567 397.465 458.828 394.364 459.648 393.763C461.691 392.265 461.843 392.717 462.301 394.748C462.666 396.365 464.378 393.172 465.175 392.622C466.389 391.785 466.366 392.518 467.497 392.518C469.339 392.518 471.064 391.623 472.803 392.051C478.042 393.341 483.886 392.985 489.247 392.985C491.027 392.985 492.619 393.426 493.808 392.311C494.63 391.539 495.376 391.898 496.267 390.262C496.618 389.619 499.504 381.8 500.772 383.624C501.907 385.257 502.546 388.099 504.476 389.147C504.997 389.43 506.017 387.496 506.355 387.228C507.452 386.357 507.908 390.552 508.842 390.081C509.723 389.636 510.457 387.09 511.551 388.629C512.005 389.268 513.507 392.177 514.674 391.325C515.455 390.755 517.326 388.369 518.184 388.369C519.198 388.369 518.61 389.531 519.925 388.992C521.421 388.377 521.802 387.504 523.241 388.654C524.026 389.282 526.227 391.844 527.359 391.844C529.875 391.844 532.833 389.75 535.098 388.888C537.984 387.789 537.303 389.218 539.298 391.844C540.145 392.957 541.892 396.103 543.776 395.682C545.008 395.406 545.846 396.936 547.009 396.693C547.935 396.5 548.743 395.315 549.524 394.826C550.202 394.402 553.507 391.807 554.223 392.311C554.962 392.831 555.063 392.86 555.577 392.155C557.456 389.578 560.493 384.559 564.559 385.88C566.716 386.581 568.839 385.054 570.805 384.324C571.915 383.912 572.229 384.646 573.237 384.583C574.068 384.531 576.547 382.76 576.913 383.027C577.886 383.737 578.328 384.964 579.594 384.117C581.026 383.156 582.51 385.617 583.794 386.165C584.519 386.474 585.497 385.569 586.254 385.569C586.529 385.569 587.345 386.277 587.553 386.45C588.808 387.497 590.998 385.998 592.251 385.517C594.593 384.617 594.83 383.746 596.01 385.776C596.474 386.574 597.156 386.45 598 386.45" stroke="#2BD7B8" stroke-linecap="round" stroke-linejoin="round"/>
<g filter="url(#filter1_d)">
<rect x="135" y="245" width="445" height="177" rx="20" fill="white"/>
</g>
<path d="M166.929 326.481C168.905 315.386 173.965 305.072 181.531 296.72C189.096 288.368 198.86 282.315 209.706 279.255C220.552 276.195 232.04 276.25 242.855 279.416C253.67 282.582 263.376 288.729 270.859 297.155L226 337L166.929 326.481Z" fill="#2BD7B8"/>
<path d="M263.099 304.478C269.755 311.845 274.067 321.026 275.486 330.852C276.906 340.678 275.368 350.704 271.068 359.653L226 338L263.099 304.478Z" fill="#2D5D7C"/>
<path d="M266.814 355.954C264.325 361.313 260.804 366.13 256.454 370.13C252.103 374.129 247.007 377.232 241.457 379.262L226 337L266.814 355.954Z" fill="#33B9E3"/>
<path d="M243.376 386.863C234.726 389.995 225.405 390.8 216.347 389.196C207.289 387.592 198.811 383.636 191.762 377.725C184.714 371.813 179.343 364.153 176.187 355.512C173.03 346.871 172.2 337.553 173.779 328.49L225.5 337.5L243.376 386.863Z" fill="#EF5939"/>
<circle cx="225.5" cy="337.5" r="41.5" fill="white"/>
<path d="M204.39 348C204.47 345.088 204.822 342.528 205.446 340.32C206.07 338.112 207.062 336.088 208.422 334.248H201.438V331.2H213.126V333.6C211.558 335.248 210.35 337.352 209.502 339.912C208.67 342.456 208.254 345.152 208.254 348H204.39ZM220.957 348.24C219.741 348.24 218.669 348.032 217.741 347.616C216.813 347.184 216.093 346.584 215.581 345.816C215.069 345.048 214.813 344.16 214.813 343.152C214.813 342.288 215.061 341.48 215.557 340.728C216.069 339.96 216.725 339.424 217.525 339.12C216.901 338.864 216.381 338.392 215.965 337.704C215.565 337.016 215.365 336.312 215.365 335.592C215.365 334.68 215.597 333.872 216.061 333.168C216.525 332.464 217.181 331.92 218.029 331.536C218.877 331.152 219.853 330.96 220.957 330.96C222.061 330.96 223.037 331.152 223.885 331.536C224.733 331.92 225.389 332.464 225.853 333.168C226.317 333.872 226.549 334.68 226.549 335.592C226.549 336.312 226.341 337.016 225.925 337.704C225.525 338.392 225.013 338.864 224.389 339.12C225.189 339.424 225.837 339.96 226.333 340.728C226.845 341.48 227.101 342.288 227.101 343.152C227.101 344.16 226.845 345.048 226.333 345.816C225.821 346.584 225.101 347.184 224.173 347.616C223.245 348.032 222.173 348.24 220.957 348.24ZM220.957 337.8C221.485 337.8 221.909 337.624 222.229 337.272C222.565 336.92 222.733 336.464 222.733 335.904C222.733 335.344 222.565 334.888 222.229 334.536C221.909 334.184 221.485 334.008 220.957 334.008C220.429 334.008 219.997 334.184 219.661 334.536C219.341 334.888 219.181 335.344 219.181 335.904C219.181 336.464 219.341 336.92 219.661 337.272C219.997 337.624 220.429 337.8 220.957 337.8ZM220.957 345.192C221.645 345.192 222.197 344.976 222.613 344.544C223.045 344.096 223.261 343.512 223.261 342.792C223.261 342.072 223.045 341.496 222.613 341.064C222.197 340.616 221.645 340.392 220.957 340.392C220.269 340.392 219.709 340.616 219.277 341.064C218.861 341.496 218.653 342.072 218.653 342.792C218.653 343.512 218.861 344.096 219.277 344.544C219.709 344.976 220.269 345.192 220.957 345.192ZM233.181 340.992C232.317 340.992 231.549 340.784 230.877 340.368C230.221 339.936 229.701 339.344 229.317 338.592C228.949 337.824 228.765 336.952 228.765 335.976C228.765 335 228.949 334.136 229.317 333.384C229.701 332.616 230.221 332.024 230.877 331.608C231.549 331.176 232.317 330.96 233.181 330.96C234.045 330.96 234.805 331.176 235.461 331.608C236.133 332.024 236.653 332.616 237.021 333.384C237.405 334.136 237.597 335 237.597 335.976C237.597 336.952 237.405 337.824 237.021 338.592C236.653 339.344 236.133 339.936 235.461 340.368C234.805 340.784 234.045 340.992 233.181 340.992ZM242.781 331.2H246.741L236.469 348.312H232.509L242.781 331.2ZM233.181 338.352C233.549 338.352 233.845 338.136 234.069 337.704C234.309 337.256 234.429 336.68 234.429 335.976C234.429 335.272 234.309 334.704 234.069 334.272C233.845 333.824 233.549 333.6 233.181 333.6C232.813 333.6 232.509 333.824 232.269 334.272C232.045 334.704 231.933 335.272 231.933 335.976C231.933 336.68 232.045 337.256 232.269 337.704C232.509 338.136 232.813 338.352 233.181 338.352ZM246.189 348.216C245.325 348.216 244.557 348.008 243.885 347.592C243.229 347.16 242.709 346.568 242.325 345.816C241.957 345.048 241.773 344.176 241.773 343.2C241.773 342.224 241.957 341.36 242.325 340.608C242.709 339.84 243.229 339.248 243.885 338.832C244.557 338.4 245.325 338.184 246.189 338.184C247.053 338.184 247.813 338.4 248.469 338.832C249.141 339.248 249.661 339.84 250.029 340.608C250.413 341.36 250.605 342.224 250.605 343.2C250.605 344.176 250.413 345.048 250.029 345.816C249.661 346.568 249.141 347.16 248.469 347.592C247.813 348.008 247.053 348.216 246.189 348.216ZM246.189 345.576C246.557 345.576 246.853 345.36 247.077 344.928C247.317 344.48 247.437 343.904 247.437 343.2C247.437 342.496 247.317 341.928 247.077 341.496C246.853 341.048 246.557 340.824 246.189 340.824C245.821 340.824 245.517 341.048 245.277 341.496C245.053 341.928 244.941 342.496 244.941 343.2C244.941 343.904 245.053 344.48 245.277 344.928C245.517 345.36 245.821 345.576 246.189 345.576Z" fill="#204A65"/>
<circle cx="332" cy="322" r="24" fill="#EFF2F4"/>
<path d="M332 298C337.211 298 342.281 299.696 346.443 302.832C350.605 305.969 353.633 310.374 355.07 315.384C356.507 320.393 356.274 325.734 354.407 330.599C352.539 335.465 349.139 339.59 344.72 342.352L332 322L332 298Z" fill="#2BD7B8"/>
<circle cx="332" cy="322" r="21" fill="white"/>
<path d="M320.943 325.656H322.567V319.202L320.705 320.294V318.712L323.183 317.2H324.331V325.656H325.941V327H320.943V325.656ZM327.909 325.656C328.544 325.199 329.188 324.653 329.841 324.018C330.504 323.383 331.064 322.702 331.521 321.974C331.978 321.246 332.207 320.555 332.207 319.902C332.207 319.463 332.081 319.118 331.829 318.866C331.577 318.605 331.236 318.474 330.807 318.474C330.368 318.474 329.948 318.591 329.547 318.824C329.155 319.048 328.838 319.351 328.595 319.734L327.643 318.726C327.96 318.203 328.399 317.797 328.959 317.508C329.519 317.209 330.14 317.06 330.821 317.06C331.81 317.06 332.585 317.307 333.145 317.802C333.714 318.297 333.999 318.978 333.999 319.846C333.999 321.423 332.753 323.36 330.261 325.656H334.363V327H327.909V325.656ZM336.163 325.852C337.003 325.675 337.764 325.357 338.445 324.9C339.136 324.433 339.616 323.883 339.887 323.248C339.738 323.351 339.556 323.439 339.341 323.514C339.126 323.579 338.907 323.612 338.683 323.612C338.039 323.612 337.474 323.472 336.989 323.192C336.504 322.912 336.13 322.525 335.869 322.03C335.608 321.526 335.477 320.957 335.477 320.322C335.477 319.687 335.612 319.123 335.883 318.628C336.154 318.133 336.536 317.751 337.031 317.48C337.535 317.2 338.118 317.06 338.781 317.06C339.472 317.06 340.074 317.219 340.587 317.536C341.11 317.844 341.511 318.287 341.791 318.866C342.08 319.445 342.225 320.112 342.225 320.868C342.225 321.988 341.978 323.005 341.483 323.92C340.998 324.825 340.316 325.567 339.439 326.146C338.562 326.715 337.558 327.065 336.429 327.196L336.163 325.852ZM338.781 322.282C339.266 322.282 339.654 322.105 339.943 321.75C340.242 321.395 340.391 320.924 340.391 320.336C340.391 319.776 340.242 319.328 339.943 318.992C339.654 318.656 339.266 318.488 338.781 318.488C338.305 318.488 337.922 318.656 337.633 318.992C337.353 319.328 337.213 319.776 337.213 320.336C337.213 320.924 337.353 321.395 337.633 321.75C337.922 322.105 338.305 322.282 338.781 322.282Z" fill="#204A65"/>
<path d="M328.488 354.2V364H327.228V356.58L324.484 364H323.588L320.844 356.58V364H319.584V354.2H321.068L324.036 362.376L327.004 354.2H328.488ZM336.368 360.962H331.328C331.393 361.671 331.603 362.213 331.958 362.586C332.313 362.95 332.803 363.132 333.428 363.132C334.268 363.132 334.935 362.801 335.43 362.138L336.102 362.782C335.831 363.211 335.453 363.547 334.968 363.79C334.492 364.023 333.965 364.14 333.386 364.14C332.35 364.14 331.547 363.823 330.978 363.188C330.409 362.553 330.124 361.662 330.124 360.514C330.124 359.375 330.409 358.484 330.978 357.84C331.557 357.187 332.35 356.86 333.358 356.86C334.301 356.86 335.038 357.182 335.57 357.826C336.102 358.461 336.368 359.352 336.368 360.5V360.962ZM335.276 359.982C335.276 359.31 335.099 358.783 334.744 358.4C334.399 358.017 333.918 357.826 333.302 357.826C332.723 357.826 332.261 358.022 331.916 358.414C331.58 358.806 331.384 359.361 331.328 360.08H335.276V359.982ZM337.706 358.764C337.706 357.877 337.688 357.289 337.65 357H338.756C338.794 357.308 338.812 357.723 338.812 358.246H338.854C339.06 357.817 339.372 357.481 339.792 357.238C340.222 356.986 340.698 356.86 341.22 356.86C342.042 356.86 342.658 357.126 343.068 357.658C343.479 358.19 343.684 358.983 343.684 360.038V364H342.494V360.024C342.494 359.277 342.368 358.722 342.116 358.358C341.864 357.994 341.482 357.812 340.968 357.812C340.576 357.812 340.222 357.915 339.904 358.12C339.587 358.316 339.34 358.596 339.162 358.96C338.985 359.315 338.896 359.716 338.896 360.164V364H337.706V358.764Z" fill="#8FA4B2"/>
<circle cx="396" cy="322" r="24" fill="#EFF2F4"/>
<path d="M396 298C399.923 298 403.786 298.962 407.251 300.801C410.716 302.64 413.678 305.3 415.877 308.549C418.075 311.798 419.444 315.537 419.863 319.437C420.282 323.338 419.738 327.281 418.28 330.923L396 322L396 298Z" fill="#2D5D7C"/>
<circle cx="396" cy="322" r="21" fill="white"/>
<path d="M388.412 325.852C389.252 325.675 390.013 325.357 390.694 324.9C391.385 324.433 391.865 323.883 392.136 323.248C391.987 323.351 391.805 323.439 391.59 323.514C391.375 323.579 391.156 323.612 390.932 323.612C390.288 323.612 389.723 323.472 389.238 323.192C388.753 322.912 388.379 322.525 388.118 322.03C387.857 321.526 387.726 320.957 387.726 320.322C387.726 319.687 387.861 319.123 388.132 318.628C388.403 318.133 388.785 317.751 389.28 317.48C389.784 317.2 390.367 317.06 391.03 317.06C391.721 317.06 392.323 317.219 392.836 317.536C393.359 317.844 393.76 318.287 394.04 318.866C394.329 319.445 394.474 320.112 394.474 320.868C394.474 321.988 394.227 323.005 393.732 323.92C393.247 324.825 392.565 325.567 391.688 326.146C390.811 326.715 389.807 327.065 388.678 327.196L388.412 325.852ZM391.03 322.282C391.515 322.282 391.903 322.105 392.192 321.75C392.491 321.395 392.64 320.924 392.64 320.336C392.64 319.776 392.491 319.328 392.192 318.992C391.903 318.656 391.515 318.488 391.03 318.488C390.554 318.488 390.171 318.656 389.882 318.992C389.602 319.328 389.462 319.776 389.462 320.336C389.462 320.924 389.602 321.395 389.882 321.75C390.171 322.105 390.554 322.282 391.03 322.282ZM397.464 327C397.511 325.292 397.725 323.771 398.108 322.436C398.491 321.092 399.149 319.818 400.082 318.614H395.672V317.2H402.196V318.418C401.235 319.435 400.502 320.686 399.998 322.17C399.494 323.654 399.242 325.264 399.242 327H397.464Z" fill="#204A65"/>
<path d="M383.328 354.2L381.298 364H380.024L377.91 355.964L375.782 364H374.508L372.464 354.2H373.85L375.222 362.026L377.252 354.2H378.554L380.57 361.998L381.942 354.2H383.328ZM387.339 364.14C386.649 364.14 386.047 363.995 385.533 363.706C385.029 363.407 384.637 362.983 384.357 362.432C384.087 361.881 383.951 361.237 383.951 360.5C383.951 359.763 384.087 359.119 384.357 358.568C384.637 358.017 385.029 357.597 385.533 357.308C386.047 357.009 386.649 356.86 387.339 356.86C388.385 356.86 389.211 357.187 389.817 357.84C390.433 358.493 390.741 359.38 390.741 360.5C390.741 361.62 390.433 362.507 389.817 363.16C389.211 363.813 388.385 364.14 387.339 364.14ZM387.339 363.23C388.03 363.23 388.571 362.987 388.963 362.502C389.355 362.017 389.551 361.349 389.551 360.5C389.551 359.651 389.355 358.983 388.963 358.498C388.571 358.013 388.03 357.77 387.339 357.77C386.658 357.77 386.121 358.013 385.729 358.498C385.337 358.983 385.141 359.651 385.141 360.5C385.141 361.349 385.337 362.017 385.729 362.502C386.121 362.987 386.658 363.23 387.339 363.23ZM392.094 358.764C392.094 358.055 392.071 357.467 392.024 357H393.088C393.126 357.373 393.144 357.789 393.144 358.246H393.186C393.373 357.817 393.667 357.481 394.068 357.238C394.47 356.986 394.918 356.86 395.412 356.86C395.907 356.86 396.332 356.986 396.686 357.238C397.041 357.49 397.279 357.84 397.4 358.288C397.596 357.849 397.895 357.504 398.296 357.252C398.698 356.991 399.15 356.86 399.654 356.86C400.42 356.86 401.017 357.107 401.446 357.602C401.885 358.097 402.104 358.787 402.104 359.674V364H400.928V359.772C400.928 359.137 400.793 358.652 400.522 358.316C400.261 357.98 399.878 357.812 399.374 357.812C398.88 357.812 398.474 357.999 398.156 358.372C397.839 358.736 397.68 359.207 397.68 359.786V364H396.504V359.828C396.504 359.147 396.383 358.643 396.14 358.316C395.898 357.98 395.529 357.812 395.034 357.812C394.726 357.812 394.437 357.905 394.166 358.092C393.896 358.279 393.676 358.526 393.508 358.834C393.35 359.142 393.27 359.473 393.27 359.828V364H392.094V358.764ZM409.732 360.962H404.692C404.758 361.671 404.968 362.213 405.322 362.586C405.677 362.95 406.167 363.132 406.792 363.132C407.632 363.132 408.3 362.801 408.794 362.138L409.466 362.782C409.196 363.211 408.818 363.547 408.332 363.79C407.856 364.023 407.329 364.14 406.75 364.14C405.714 364.14 404.912 363.823 404.342 363.188C403.773 362.553 403.488 361.662 403.488 360.514C403.488 359.375 403.773 358.484 404.342 357.84C404.921 357.187 405.714 356.86 406.722 356.86C407.665 356.86 408.402 357.182 408.934 357.826C409.466 358.461 409.732 359.352 409.732 360.5V360.962ZM408.64 359.982C408.64 359.31 408.463 358.783 408.108 358.4C407.763 358.017 407.282 357.826 406.666 357.826C406.088 357.826 405.626 358.022 405.28 358.414C404.944 358.806 404.748 359.361 404.692 360.08H408.64V359.982ZM411.07 358.764C411.07 357.877 411.052 357.289 411.014 357H412.12C412.158 357.308 412.176 357.723 412.176 358.246H412.218C412.424 357.817 412.736 357.481 413.156 357.238C413.586 356.986 414.062 356.86 414.584 356.86C415.406 356.86 416.022 357.126 416.432 357.658C416.843 358.19 417.048 358.983 417.048 360.038V364H415.858V360.024C415.858 359.277 415.732 358.722 415.48 358.358C415.228 357.994 414.846 357.812 414.332 357.812C413.94 357.812 413.586 357.915 413.268 358.12C412.951 358.316 412.704 358.596 412.526 358.96C412.349 359.315 412.26 359.716 412.26 360.164V364H411.07V358.764Z" fill="#8FA4B2"/>
<circle cx="460" cy="322" r="24" fill="#EFF2F4"/>
<path d="M460 298C465.262 298 470.379 299.73 474.562 302.923C478.745 306.116 481.763 310.595 483.151 315.671L460 322L460 298Z" fill="#33B9E3"/>
<circle cx="460" cy="322" r="21" fill="white"/>
<path d="M455.17 327.14C454.479 327.14 453.873 326.986 453.35 326.678C452.837 326.361 452.435 325.917 452.146 325.348C451.866 324.779 451.726 324.121 451.726 323.374C451.726 322.329 451.987 321.339 452.51 320.406C453.033 319.463 453.742 318.689 454.638 318.082C455.543 317.475 456.537 317.116 457.62 317.004L457.788 318.348C456.995 318.497 456.271 318.801 455.618 319.258C454.974 319.706 454.489 320.266 454.162 320.938C454.274 320.845 454.428 320.765 454.624 320.7C454.829 320.625 455.044 320.588 455.268 320.588C456.267 320.588 457.051 320.887 457.62 321.484C458.189 322.081 458.474 322.875 458.474 323.864C458.474 324.508 458.339 325.077 458.068 325.572C457.797 326.067 457.41 326.454 456.906 326.734C456.411 327.005 455.833 327.14 455.17 327.14ZM455.142 325.712C455.627 325.712 456.015 325.544 456.304 325.208C456.593 324.872 456.738 324.419 456.738 323.85C456.738 323.29 456.593 322.842 456.304 322.506C456.015 322.17 455.627 322.002 455.142 322.002C454.666 322.002 454.283 322.17 453.994 322.506C453.705 322.842 453.56 323.29 453.56 323.85C453.56 324.419 453.705 324.872 453.994 325.208C454.283 325.544 454.666 325.712 455.142 325.712ZM463.704 325.418H459.322V324.116L463.522 317.2H465.468V324.004H466.532V325.418H465.468V327H463.704V325.418ZM463.704 324.004V319.51L460.974 324.004H463.704Z" fill="#204A65"/>
<path d="M446.538 354.2H449.128C450.286 354.2 451.144 354.396 451.704 354.788C452.274 355.171 452.558 355.759 452.558 356.552C452.558 357.103 452.437 357.555 452.194 357.91C451.952 358.265 451.574 358.54 451.06 358.736V358.778C451.714 358.955 452.19 359.24 452.488 359.632C452.796 360.015 452.95 360.537 452.95 361.2C452.95 362.143 452.68 362.847 452.138 363.314C451.597 363.771 450.776 364 449.674 364H446.538V354.2ZM449.45 358.33C450.048 358.33 450.5 358.19 450.808 357.91C451.116 357.621 451.27 357.201 451.27 356.65C451.27 356.155 451.102 355.796 450.766 355.572C450.43 355.348 449.898 355.236 449.17 355.236H447.826V358.33H449.45ZM449.716 362.964C451.023 362.964 451.676 362.367 451.676 361.172C451.676 360.528 451.471 360.057 451.06 359.758C450.659 359.459 450.02 359.31 449.142 359.31H447.826V362.964H449.716ZM457.54 364.14C456.85 364.14 456.248 363.995 455.734 363.706C455.23 363.407 454.838 362.983 454.558 362.432C454.288 361.881 454.152 361.237 454.152 360.5C454.152 359.763 454.288 359.119 454.558 358.568C454.838 358.017 455.23 357.597 455.734 357.308C456.248 357.009 456.85 356.86 457.54 356.86C458.586 356.86 459.412 357.187 460.018 357.84C460.634 358.493 460.942 359.38 460.942 360.5C460.942 361.62 460.634 362.507 460.018 363.16C459.412 363.813 458.586 364.14 457.54 364.14ZM457.54 363.23C458.231 363.23 458.772 362.987 459.164 362.502C459.556 362.017 459.752 361.349 459.752 360.5C459.752 359.651 459.556 358.983 459.164 358.498C458.772 358.013 458.231 357.77 457.54 357.77C456.859 357.77 456.322 358.013 455.93 358.498C455.538 358.983 455.342 359.651 455.342 360.5C455.342 361.349 455.538 362.017 455.93 362.502C456.322 362.987 456.859 363.23 457.54 363.23ZM467.619 357L465.085 364.126C464.441 365.927 463.447 366.828 462.103 366.828C461.86 366.828 461.599 366.795 461.319 366.73V365.82C461.487 365.876 461.692 365.904 461.935 365.904C462.411 365.904 462.817 365.731 463.153 365.386C463.489 365.041 463.811 364.457 464.119 363.636L461.515 357H462.789L464.665 362.362L466.331 357H467.619ZM470.571 364.14C470.049 364.14 469.573 364.033 469.143 363.818C468.723 363.603 468.425 363.319 468.247 362.964L469.017 362.432C469.176 362.684 469.395 362.88 469.675 363.02C469.955 363.16 470.259 363.23 470.585 363.23C470.977 363.23 471.299 363.118 471.551 362.894C471.813 362.661 471.943 362.371 471.943 362.026C471.943 361.746 471.841 361.513 471.635 361.326C471.43 361.139 471.066 360.948 470.543 360.752C469.75 360.463 469.19 360.159 468.863 359.842C468.546 359.525 468.387 359.133 468.387 358.666C468.387 358.125 468.602 357.691 469.031 357.364C469.461 357.028 470.03 356.86 470.739 356.86C471.197 356.86 471.612 356.958 471.985 357.154C472.368 357.35 472.662 357.621 472.867 357.966L472.139 358.498C471.813 358.013 471.346 357.77 470.739 357.77C470.394 357.77 470.109 357.849 469.885 358.008C469.671 358.167 469.563 358.372 469.563 358.624C469.563 358.876 469.675 359.091 469.899 359.268C470.123 359.436 470.539 359.637 471.145 359.87C471.864 360.141 472.373 360.439 472.671 360.766C472.97 361.083 473.119 361.489 473.119 361.984C473.119 362.637 472.886 363.16 472.419 363.552C471.953 363.944 471.337 364.14 470.571 364.14Z" fill="#8FA4B2"/>
<circle cx="524" cy="322" r="24" fill="#EFF2F4"/>
<path d="M524 298C527.455 298 530.869 298.746 534.01 300.187C537.15 301.628 539.942 303.73 542.195 306.349L524 322L524 298Z" fill="#EF5939"/>
<circle cx="524" cy="322" r="21" fill="white"/>
<path d="M519.87 325.418H515.488V324.116L519.688 317.2H521.634V324.004H522.698V325.418H521.634V327H519.87V325.418ZM519.87 324.004V319.51L517.14 324.004H519.87ZM526.92 327.14C525.865 327.14 525.03 326.879 524.414 326.356C523.798 325.833 523.49 325.129 523.49 324.242C523.49 323.701 523.63 323.206 523.91 322.758C524.199 322.31 524.591 321.988 525.086 321.792C524.713 321.633 524.405 321.353 524.162 320.952C523.929 320.541 523.812 320.112 523.812 319.664C523.812 319.151 523.938 318.698 524.19 318.306C524.451 317.905 524.815 317.597 525.282 317.382C525.758 317.167 526.304 317.06 526.92 317.06C527.536 317.06 528.077 317.167 528.544 317.382C529.02 317.597 529.384 317.905 529.636 318.306C529.897 318.698 530.028 319.151 530.028 319.664C530.028 320.112 529.907 320.541 529.664 320.952C529.431 321.353 529.127 321.633 528.754 321.792C529.249 321.988 529.641 322.31 529.93 322.758C530.219 323.206 530.364 323.701 530.364 324.242C530.364 325.129 530.051 325.833 529.426 326.356C528.81 326.879 527.975 327.14 526.92 327.14ZM526.92 321.176C527.331 321.176 527.657 321.055 527.9 320.812C528.152 320.56 528.278 320.229 528.278 319.818C528.278 319.417 528.152 319.095 527.9 318.852C527.657 318.6 527.331 318.474 526.92 318.474C526.519 318.474 526.192 318.6 525.94 318.852C525.697 319.095 525.576 319.417 525.576 319.818C525.576 320.229 525.697 320.56 525.94 320.812C526.192 321.055 526.519 321.176 526.92 321.176ZM526.92 325.712C527.433 325.712 527.839 325.563 528.138 325.264C528.446 324.965 528.6 324.564 528.6 324.06C528.6 323.547 528.451 323.145 528.152 322.856C527.853 322.557 527.443 322.408 526.92 322.408C526.407 322.408 526.001 322.557 525.702 322.856C525.403 323.145 525.254 323.547 525.254 324.06C525.254 324.564 525.403 324.965 525.702 325.264C526.001 325.563 526.407 325.712 526.92 325.712Z" fill="#204A65"/>
<path d="M518.124 358.932V364H517.256L517.046 363.384C516.738 363.627 516.374 363.813 515.954 363.944C515.544 364.075 515.105 364.14 514.638 364.14C513.798 364.14 513.07 363.939 512.454 363.538C511.838 363.127 511.367 362.544 511.04 361.788C510.714 361.032 510.55 360.136 510.55 359.1C510.55 358.083 510.723 357.196 511.068 356.44C511.423 355.684 511.918 355.101 512.552 354.69C513.196 354.27 513.948 354.06 514.806 354.06C515.534 354.06 516.178 354.195 516.738 354.466C517.298 354.737 517.709 355.11 517.97 355.586L517.256 356.3C517.014 355.917 516.682 355.628 516.262 355.432C515.852 355.227 515.371 355.124 514.82 355.124C513.887 355.124 513.159 355.474 512.636 356.174C512.114 356.874 511.852 357.849 511.852 359.1C511.852 360.369 512.104 361.359 512.608 362.068C513.122 362.777 513.836 363.132 514.75 363.132C515.18 363.132 515.572 363.071 515.926 362.95C516.29 362.829 516.598 362.651 516.85 362.418V359.884H514.512V358.932H518.124ZM520.683 355.782C520.421 355.782 520.216 355.712 520.067 355.572C519.917 355.432 519.843 355.241 519.843 354.998C519.843 354.755 519.917 354.564 520.067 354.424C520.216 354.275 520.421 354.2 520.683 354.2C520.944 354.2 521.149 354.275 521.299 354.424C521.457 354.564 521.537 354.755 521.537 354.998C521.537 355.241 521.457 355.432 521.299 355.572C521.149 355.712 520.944 355.782 520.683 355.782ZM520.095 357H521.285V364H520.095V357ZM523.344 358.708C523.344 357.915 523.33 357.345 523.302 357H524.408C524.446 357.373 524.464 357.784 524.464 358.232V358.372H524.506C524.684 357.887 524.968 357.513 525.36 357.252C525.752 356.991 526.214 356.86 526.746 356.86C526.896 356.86 527.031 356.874 527.152 356.902V357.882C527.031 357.854 526.868 357.84 526.662 357.84C526.27 357.84 525.911 357.961 525.584 358.204C525.258 358.437 525.001 358.759 524.814 359.17C524.628 359.581 524.534 360.029 524.534 360.514V364H523.344V358.708ZM529.793 364.14C528.785 364.14 528.281 363.547 528.281 362.362V353.612H529.471V362.348C529.471 362.675 529.522 362.908 529.625 363.048C529.737 363.179 529.923 363.244 530.185 363.244C530.39 363.244 530.623 363.188 530.885 363.076L531.067 363.79C530.712 364.023 530.287 364.14 529.793 364.14ZM533.902 364.14C533.379 364.14 532.903 364.033 532.474 363.818C532.054 363.603 531.755 363.319 531.578 362.964L532.348 362.432C532.506 362.684 532.726 362.88 533.006 363.02C533.286 363.16 533.589 363.23 533.916 363.23C534.308 363.23 534.63 363.118 534.882 362.894C535.143 362.661 535.274 362.371 535.274 362.026C535.274 361.746 535.171 361.513 534.966 361.326C534.76 361.139 534.396 360.948 533.874 360.752C533.08 360.463 532.52 360.159 532.194 359.842C531.876 359.525 531.718 359.133 531.718 358.666C531.718 358.125 531.932 357.691 532.362 357.364C532.791 357.028 533.36 356.86 534.07 356.86C534.527 356.86 534.942 356.958 535.316 357.154C535.698 357.35 535.992 357.621 536.198 357.966L535.47 358.498C535.143 358.013 534.676 357.77 534.07 357.77C533.724 357.77 533.44 357.849 533.216 358.008C533.001 358.167 532.894 358.372 532.894 358.624C532.894 358.876 533.006 359.091 533.23 359.268C533.454 359.436 533.869 359.637 534.476 359.87C535.194 360.141 535.703 360.439 536.002 360.766C536.3 361.083 536.45 361.489 536.45 361.984C536.45 362.637 536.216 363.16 535.75 363.552C535.283 363.944 534.667 364.14 533.902 364.14Z" fill="#8FA4B2"/>
<g filter="url(#filter2_d)">
<rect x="60" y="30" width="374" height="266" rx="20" fill="white"/>
</g>
<line x1="107.5" y1="62" x2="107.5" y2="245" stroke="#DDE4E8"/>
<line x1="156.5" y1="62" x2="156.5" y2="245" stroke="#EFF2F4"/>
<line x1="205.5" y1="62" x2="205.5" y2="245" stroke="#EFF2F4"/>
<line x1="254.5" y1="62" x2="254.5" y2="245" stroke="#EFF2F4"/>
<line x1="303.5" y1="62" x2="303.5" y2="245" stroke="#EFF2F4"/>
<line x1="352.5" y1="62" x2="352.5" y2="245" stroke="#EFF2F4"/>
<path d="M95.5463 79.12C94.9863 79.12 94.4703 79.008 93.9983 78.784C93.5343 78.56 93.1823 78.26 92.9423 77.884L93.4703 77.176C93.7023 77.504 93.9943 77.76 94.3463 77.944C94.7063 78.12 95.0943 78.208 95.5103 78.208C96.0703 78.208 96.5103 78.032 96.8303 77.68C97.1583 77.32 97.3223 76.836 97.3223 76.228C97.3223 75.644 97.1743 75.184 96.8783 74.848C96.5823 74.504 96.1823 74.332 95.6783 74.332C95.3663 74.332 95.0703 74.408 94.7903 74.56C94.5183 74.704 94.3063 74.9 94.1543 75.148H93.2303L93.6263 70.6H98.1743V71.512H94.6223L94.4063 73.96C94.5663 73.808 94.7863 73.688 95.0663 73.6C95.3543 73.512 95.6503 73.468 95.9543 73.468C96.7143 73.468 97.3223 73.716 97.7783 74.212C98.2343 74.708 98.4623 75.372 98.4623 76.204C98.4623 76.788 98.3423 77.3 98.1023 77.74C97.8623 78.18 97.5223 78.52 97.0823 78.76C96.6423 79 96.1303 79.12 95.5463 79.12ZM96.6023 111.56H92.7503V110.624L96.3623 104.6H97.7063V110.648H98.6543V111.56H97.7063V113H96.6023V111.56ZM96.6023 110.648V105.884L93.7583 110.648H96.6023ZM95.6183 147.12C95.0263 147.12 94.4943 147.012 94.0223 146.796C93.5583 146.572 93.2143 146.268 92.9903 145.884L93.5423 145.236C93.7503 145.532 94.0383 145.768 94.4063 145.944C94.7823 146.12 95.1743 146.208 95.5823 146.208C96.1103 146.208 96.5303 146.064 96.8423 145.776C97.1623 145.488 97.3223 145.116 97.3223 144.66C97.3223 144.156 97.1223 143.76 96.7223 143.472C96.3303 143.184 95.7903 143.04 95.1023 143.04H94.6703V142.164H95.0903C95.6743 142.164 96.1423 142.02 96.4943 141.732C96.8463 141.436 97.0223 141.056 97.0223 140.592C97.0223 140.208 96.8983 139.912 96.6503 139.704C96.4023 139.496 96.0543 139.392 95.6063 139.392C95.1983 139.392 94.8183 139.48 94.4663 139.656C94.1143 139.824 93.8303 140.06 93.6143 140.364L93.0743 139.716C93.3303 139.332 93.6903 139.032 94.1543 138.816C94.6263 138.592 95.1423 138.48 95.7023 138.48C96.4303 138.48 97.0143 138.664 97.4543 139.032C97.9023 139.392 98.1263 139.872 98.1263 140.472C98.1263 140.944 97.9823 141.368 97.6943 141.744C97.4143 142.112 97.0223 142.384 96.5183 142.56C97.1343 142.696 97.6063 142.952 97.9343 143.328C98.2703 143.696 98.4383 144.156 98.4383 144.708C98.4383 145.18 98.3223 145.6 98.0903 145.968C97.8583 146.328 97.5263 146.612 97.0943 146.82C96.6703 147.02 96.1783 147.12 95.6183 147.12ZM93.1703 180.052C93.7463 179.636 94.3183 179.14 94.8863 178.564C95.4623 177.98 95.9503 177.36 96.3503 176.704C96.7503 176.048 96.9503 175.428 96.9503 174.844C96.9503 174.396 96.8223 174.044 96.5663 173.788C96.3103 173.524 95.9623 173.392 95.5223 173.392C95.1223 173.392 94.7423 173.488 94.3823 173.68C94.0303 173.872 93.7503 174.128 93.5423 174.448L92.9543 173.788C93.2023 173.38 93.5543 173.06 94.0103 172.828C94.4743 172.596 94.9823 172.48 95.5343 172.48C96.3183 172.48 96.9383 172.692 97.3943 173.116C97.8503 173.532 98.0783 174.096 98.0783 174.808C98.0783 175.656 97.7423 176.54 97.0703 177.46C96.4063 178.38 95.5903 179.268 94.6223 180.124H98.4503V181H93.1703V180.052ZM93.9503 214.124H95.3903V207.896L93.7343 208.868V207.86L95.7863 206.6H96.4943V214.124H97.9223V215H93.9503V214.124Z" fill="#8FA4B2"/>
<path d="M123.89 263.12C123.546 263.12 123.206 263.064 122.87 262.952C122.542 262.832 122.274 262.68 122.066 262.496L122.486 261.704C122.646 261.856 122.85 261.98 123.098 262.076C123.354 262.164 123.606 262.208 123.854 262.208C124.326 262.208 124.666 262.048 124.874 261.728C125.09 261.4 125.198 260.868 125.198 260.132V254.6H126.302V260.324C126.302 261.292 126.11 262 125.726 262.448C125.342 262.896 124.73 263.12 123.89 263.12ZM129.764 263.12C129.172 263.12 128.688 262.948 128.312 262.604C127.936 262.26 127.748 261.816 127.748 261.272C127.748 260.672 127.972 260.208 128.42 259.88C128.876 259.552 129.52 259.388 130.352 259.388H131.588V259.076C131.588 258.628 131.468 258.288 131.228 258.056C130.996 257.816 130.656 257.696 130.208 257.696C129.848 257.696 129.516 257.772 129.212 257.924C128.916 258.068 128.668 258.28 128.468 258.56L127.952 257.936C128.224 257.592 128.556 257.332 128.948 257.156C129.34 256.972 129.776 256.88 130.256 256.88C131.008 256.88 131.588 257.064 131.996 257.432C132.404 257.8 132.608 258.328 132.608 259.016V261.836C132.608 262.148 132.656 262.536 132.752 263H131.864C131.792 262.816 131.74 262.536 131.708 262.16H131.684C131.46 262.472 131.184 262.712 130.856 262.88C130.528 263.04 130.164 263.12 129.764 263.12ZM129.92 262.316C130.224 262.316 130.504 262.26 130.76 262.148C131.016 262.028 131.216 261.868 131.36 261.668C131.512 261.468 131.588 261.248 131.588 261.008V260.12H130.316C129.812 260.12 129.424 260.22 129.152 260.42C128.88 260.62 128.744 260.904 128.744 261.272C128.744 261.592 128.848 261.848 129.056 262.04C129.272 262.224 129.56 262.316 129.92 262.316ZM134.152 258.512C134.152 257.752 134.136 257.248 134.104 257H135.052C135.084 257.264 135.1 257.62 135.1 258.068H135.136C135.312 257.7 135.58 257.412 135.94 257.204C136.308 256.988 136.716 256.88 137.164 256.88C137.868 256.88 138.396 257.108 138.748 257.564C139.1 258.02 139.276 258.7 139.276 259.604V263H138.256V259.592C138.256 258.952 138.148 258.476 137.932 258.164C137.716 257.852 137.388 257.696 136.948 257.696C136.612 257.696 136.308 257.784 136.036 257.96C135.764 258.128 135.552 258.368 135.4 258.68C135.248 258.984 135.172 259.328 135.172 259.712V263H134.152V258.512Z" fill="#8FA4B2"/>
<path d="M171.316 254.6H176.416V255.512H172.42V258.464H176.152V259.376H172.42V263H171.316V254.6ZM182.725 260.396H178.405C178.461 261.004 178.641 261.468 178.945 261.788C179.249 262.1 179.669 262.256 180.205 262.256C180.925 262.256 181.497 261.972 181.921 261.404L182.497 261.956C182.265 262.324 181.941 262.612 181.525 262.82C181.117 263.02 180.665 263.12 180.169 263.12C179.281 263.12 178.593 262.848 178.105 262.304C177.617 261.76 177.373 260.996 177.373 260.012C177.373 259.036 177.617 258.272 178.105 257.72C178.601 257.16 179.281 256.88 180.145 256.88C180.953 256.88 181.585 257.156 182.041 257.708C182.497 258.252 182.725 259.016 182.725 260V260.396ZM181.789 259.556C181.789 258.98 181.637 258.528 181.333 258.2C181.037 257.872 180.625 257.708 180.097 257.708C179.601 257.708 179.205 257.876 178.909 258.212C178.621 258.548 178.453 259.024 178.405 259.64H181.789V259.556ZM186.728 263.12C186.352 263.12 185.988 263.024 185.636 262.832C185.284 262.632 185.02 262.372 184.844 262.052H184.82C184.828 262.308 184.82 262.624 184.796 263H183.86C183.884 262.736 183.896 262.232 183.896 261.488V254.096H184.916V257.804H184.94C185.34 257.188 185.944 256.88 186.752 256.88C187.52 256.88 188.128 257.152 188.576 257.696C189.024 258.232 189.248 258.964 189.248 259.892C189.248 260.892 189.02 261.68 188.564 262.256C188.116 262.832 187.504 263.12 186.728 263.12ZM186.584 262.304C187.096 262.304 187.496 262.092 187.784 261.668C188.08 261.244 188.228 260.66 188.228 259.916C188.228 259.204 188.08 258.652 187.784 258.26C187.496 257.86 187.096 257.66 186.584 257.66C186.088 257.66 185.684 257.832 185.372 258.176C185.068 258.512 184.916 258.956 184.916 259.508V260.6C184.916 261.12 185.064 261.536 185.36 261.848C185.664 262.152 186.072 262.304 186.584 262.304Z" fill="#8FA4B2"/>
<path d="M227.637 254.6V263H226.557V256.64L224.205 263H223.437L221.085 256.64V263H220.005V254.6H221.277L223.821 261.608L226.365 254.6H227.637ZM231.103 263.12C230.511 263.12 230.027 262.948 229.651 262.604C229.275 262.26 229.087 261.816 229.087 261.272C229.087 260.672 229.311 260.208 229.759 259.88C230.215 259.552 230.859 259.388 231.691 259.388H232.927V259.076C232.927 258.628 232.807 258.288 232.567 258.056C232.335 257.816 231.995 257.696 231.547 257.696C231.187 257.696 230.855 257.772 230.551 257.924C230.255 258.068 230.007 258.28 229.807 258.56L229.291 257.936C229.563 257.592 229.895 257.332 230.287 257.156C230.679 256.972 231.115 256.88 231.595 256.88C232.347 256.88 232.927 257.064 233.335 257.432C233.743 257.8 233.947 258.328 233.947 259.016V261.836C233.947 262.148 233.995 262.536 234.091 263H233.203C233.131 262.816 233.079 262.536 233.047 262.16H233.023C232.799 262.472 232.523 262.712 232.195 262.88C231.867 263.04 231.503 263.12 231.103 263.12ZM231.259 262.316C231.563 262.316 231.843 262.26 232.099 262.148C232.355 262.028 232.555 261.868 232.699 261.668C232.851 261.468 232.927 261.248 232.927 261.008V260.12H231.655C231.151 260.12 230.763 260.22 230.491 260.42C230.219 260.62 230.083 260.904 230.083 261.272C230.083 261.592 230.187 261.848 230.395 262.04C230.611 262.224 230.899 262.316 231.259 262.316ZM235.575 258.464C235.575 257.784 235.563 257.296 235.539 257H236.487C236.519 257.32 236.535 257.672 236.535 258.056V258.176H236.571C236.723 257.76 236.967 257.44 237.303 257.216C237.639 256.992 238.035 256.88 238.491 256.88C238.619 256.88 238.735 256.892 238.839 256.916V257.756C238.735 257.732 238.595 257.72 238.419 257.72C238.083 257.72 237.775 257.824 237.495 258.032C237.215 258.232 236.995 258.508 236.835 258.86C236.675 259.212 236.595 259.596 236.595 260.012V263H235.575V258.464Z" fill="#8FA4B2"/>
<path d="M274.267 261.188H271.003L270.439 263H269.263L272.119 254.6H273.151L276.007 263H274.831L274.267 261.188ZM273.979 260.288L272.635 255.98L271.291 260.288H273.979ZM276.963 258.512C276.963 258 276.947 257.496 276.915 257H277.851C277.875 257.296 277.887 257.612 277.887 257.948H277.911C278.079 257.628 278.339 257.372 278.691 257.18C279.043 256.98 279.423 256.88 279.831 256.88C280.607 256.88 281.215 257.156 281.655 257.708C282.095 258.26 282.315 259.024 282.315 260C282.315 260.632 282.211 261.184 282.003 261.656C281.795 262.12 281.499 262.48 281.115 262.736C280.739 262.992 280.299 263.12 279.795 263.12C279.379 263.12 279.015 263.04 278.703 262.88C278.391 262.72 278.163 262.496 278.019 262.208H277.983V265.904H276.963V258.512ZM279.639 262.34C280.151 262.34 280.555 262.128 280.851 261.704C281.147 261.272 281.295 260.692 281.295 259.964C281.295 259.236 281.151 258.676 280.863 258.284C280.575 257.892 280.171 257.696 279.651 257.696C279.163 257.696 278.763 257.856 278.451 258.176C278.139 258.496 277.983 258.904 277.983 259.4V260.492C277.983 261.044 278.135 261.492 278.439 261.836C278.743 262.172 279.143 262.34 279.639 262.34ZM283.55 258.464C283.55 257.784 283.538 257.296 283.514 257H284.462C284.494 257.32 284.51 257.672 284.51 258.056V258.176H284.546C284.698 257.76 284.942 257.44 285.278 257.216C285.614 256.992 286.01 256.88 286.466 256.88C286.594 256.88 286.71 256.892 286.814 256.916V257.756C286.71 257.732 286.57 257.72 286.394 257.72C286.058 257.72 285.75 257.824 285.47 258.032C285.19 258.232 284.97 258.508 284.81 258.86C284.65 259.212 284.57 259.596 284.57 260.012V263H283.55V258.464Z" fill="#8FA4B2"/>
<path d="M324.963 254.6V263H323.883V256.64L321.531 263H320.763L318.411 256.64V263H317.331V254.6H318.603L321.147 261.608L323.691 254.6H324.963ZM328.43 263.12C327.838 263.12 327.354 262.948 326.978 262.604C326.602 262.26 326.414 261.816 326.414 261.272C326.414 260.672 326.638 260.208 327.086 259.88C327.542 259.552 328.186 259.388 329.018 259.388H330.254V259.076C330.254 258.628 330.134 258.288 329.894 258.056C329.662 257.816 329.322 257.696 328.874 257.696C328.514 257.696 328.182 257.772 327.878 257.924C327.582 258.068 327.334 258.28 327.134 258.56L326.618 257.936C326.89 257.592 327.222 257.332 327.614 257.156C328.006 256.972 328.442 256.88 328.922 256.88C329.674 256.88 330.254 257.064 330.662 257.432C331.07 257.8 331.274 258.328 331.274 259.016V261.836C331.274 262.148 331.322 262.536 331.418 263H330.53C330.458 262.816 330.406 262.536 330.374 262.16H330.35C330.126 262.472 329.85 262.712 329.522 262.88C329.194 263.04 328.83 263.12 328.43 263.12ZM328.586 262.316C328.89 262.316 329.17 262.26 329.426 262.148C329.682 262.028 329.882 261.868 330.026 261.668C330.178 261.468 330.254 261.248 330.254 261.008V260.12H328.982C328.478 260.12 328.09 260.22 327.818 260.42C327.546 260.62 327.41 260.904 327.41 261.272C327.41 261.592 327.514 261.848 327.722 262.04C327.938 262.224 328.226 262.316 328.586 262.316ZM337.51 257L335.338 263.108C334.786 264.652 333.934 265.424 332.782 265.424C332.574 265.424 332.35 265.396 332.11 265.34V264.56C332.254 264.608 332.43 264.632 332.638 264.632C333.046 264.632 333.394 264.484 333.682 264.188C333.97 263.892 334.246 263.392 334.51 262.688L332.278 257H333.37L334.978 261.596L336.406 257H337.51Z" fill="#8FA4B2"/>
<path d="M368.662 263.12C368.318 263.12 367.978 263.064 367.642 262.952C367.314 262.832 367.046 262.68 366.838 262.496L367.258 261.704C367.418 261.856 367.622 261.98 367.87 262.076C368.126 262.164 368.378 262.208 368.626 262.208C369.098 262.208 369.438 262.048 369.646 261.728C369.862 261.4 369.97 260.868 369.97 260.132V254.6H371.074V260.324C371.074 261.292 370.882 262 370.498 262.448C370.114 262.896 369.502 263.12 368.662 263.12ZM374.871 263.12C374.183 263.12 373.659 262.896 373.299 262.448C372.947 262 372.771 261.34 372.771 260.468V257H373.791V260.48C373.791 261.696 374.223 262.304 375.087 262.304C375.423 262.304 375.727 262.22 375.999 262.052C376.271 261.876 376.483 261.636 376.635 261.332C376.787 261.02 376.863 260.672 376.863 260.288V257H377.883V261.728C377.883 262.128 377.919 262.552 377.991 263H377.055C376.983 262.648 376.943 262.292 376.935 261.932H376.899C376.723 262.3 376.451 262.592 376.083 262.808C375.723 263.016 375.319 263.12 374.871 263.12ZM379.38 258.512C379.38 257.752 379.364 257.248 379.332 257H380.28C380.312 257.264 380.328 257.62 380.328 258.068H380.364C380.54 257.7 380.808 257.412 381.168 257.204C381.536 256.988 381.944 256.88 382.392 256.88C383.096 256.88 383.624 257.108 383.976 257.564C384.328 258.02 384.504 258.7 384.504 259.604V263H383.484V259.592C383.484 258.952 383.376 258.476 383.16 258.164C382.944 257.852 382.616 257.696 382.176 257.696C381.84 257.696 381.536 257.784 381.264 257.96C380.992 258.128 380.78 258.368 380.628 258.68C380.476 258.984 380.4 259.328 380.4 259.712V263H379.38V258.512Z" fill="#8FA4B2"/>
<line x1="107" y1="245.5" x2="402" y2="245.5" stroke="#DDE4E8"/>
<line x1="107" y1="211.5" x2="402" y2="211.5" stroke="#EFF2F4"/>
<line x1="107" y1="177.5" x2="402" y2="177.5" stroke="#EFF2F4"/>
<line x1="107" y1="143.5" x2="402" y2="143.5" stroke="#EFF2F4"/>
<line x1="107" y1="109.5" x2="402" y2="109.5" stroke="#EFF2F4"/>
<line x1="107" y1="75.5" x2="402" y2="75.5" stroke="#EFF2F4"/>
<rect x="119" y="173.383" width="5" height="71.6173" fill="#2BD7B8"/>
<rect x="127" y="165.188" width="5" height="79.8124" fill="#2D5D7C"/>
<rect x="135" y="160.199" width="5" height="84.8006" fill="#33B9E3"/>
<rect x="143" y="186.922" width="5" height="58.0778" fill="#EF5939"/>
<rect x="168" y="163.289" width="5" height="81.7111" fill="#2BD7B8"/>
<rect x="176" y="153.939" width="5" height="91.0611" fill="#2D5D7C"/>
<rect x="184" y="148.248" width="5" height="96.7524" fill="#33B9E3"/>
<rect x="192" y="178.737" width="5" height="66.2632" fill="#EF5939"/>
<rect x="217" y="130.604" width="5" height="114.396" fill="#2BD7B8"/>
<rect x="225" y="117.515" width="5" height="127.486" fill="#2D5D7C"/>
<rect x="233" y="109.547" width="5" height="135.453" fill="#33B9E3"/>
<rect x="241" y="152.231" width="5" height="92.7685" fill="#EF5939"/>
<rect x="266" y="148.389" width="5" height="96.6113" fill="#2BD7B8"/>
<rect x="274" y="137.334" width="5" height="107.666" fill="#2D5D7C"/>
<rect x="282" y="130.604" width="5" height="114.396" fill="#33B9E3"/>
<rect x="290" y="166.654" width="5" height="78.3465" fill="#EF5939"/>
<rect x="315" y="108.014" width="5" height="136.986" fill="#2BD7B8"/>
<rect x="323" y="92.3389" width="5" height="152.661" fill="#2D5D7C"/>
<rect x="331" y="82.7975" width="5" height="162.203" fill="#33B9E3"/>
<rect x="339" y="133.912" width="5" height="111.088" fill="#EF5939"/>
<rect x="364" y="95.5168" width="5" height="149.483" fill="#2BD7B8"/>
<rect x="372" y="78.4117" width="5" height="166.588" fill="#2D5D7C"/>
<rect x="380" y="68" width="5" height="177" fill="#33B9E3"/>
<rect x="388" y="123.777" width="5" height="121.223" fill="#EF5939"/>
<defs>
<filter id="filter0_d" x="196" y="289" width="494" height="386" filterUnits="userSpaceOnUse" color-interpolation-filters="sRGB">
<feFlood flood-opacity="0" result="BackgroundImageFix"/>
<feColorMatrix in="SourceAlpha" type="matrix" values="0 0 0 0 0 0 0 0 0 0 0 0 0 0 0 0 0 0 127 0"/>
<feOffset dy="30"/>
<feGaussianBlur stdDeviation="30"/>
<feColorMatrix type="matrix" values="0 0 0 0 0.12549 0 0 0 0 0.290196 0 0 0 0 0.396078 0 0 0 0.07 0"/>
<feBlend mode="normal" in2="BackgroundImageFix" result="effect1_dropShadow"/>
<feBlend mode="normal" in="SourceGraphic" in2="effect1_dropShadow" result="shape"/>
</filter>
<filter id="filter1_d" x="75" y="215" width="565" height="297" filterUnits="userSpaceOnUse" color-interpolation-filters="sRGB">
<feFlood flood-opacity="0" result="BackgroundImageFix"/>
<feColorMatrix in="SourceAlpha" type="matrix" values="0 0 0 0 0 0 0 0 0 0 0 0 0 0 0 0 0 0 127 0"/>
<feOffset dy="30"/>
<feGaussianBlur stdDeviation="30"/>
<feColorMatrix type="matrix" values="0 0 0 0 0.12549 0 0 0 0 0.290196 0 0 0 0 0.396078 0 0 0 0.07 0"/>
<feBlend mode="normal" in2="BackgroundImageFix" result="effect1_dropShadow"/>
<feBlend mode="normal" in="SourceGraphic" in2="effect1_dropShadow" result="shape"/>
</filter>
<filter id="filter2_d" x="0" y="0" width="494" height="386" filterUnits="userSpaceOnUse" color-interpolation-filters="sRGB">
<feFlood flood-opacity="0" result="BackgroundImageFix"/>
<feColorMatrix in="SourceAlpha" type="matrix" values="0 0 0 0 0 0 0 0 0 0 0 0 0 0 0 0 0 0 127 0"/>
<feOffset dy="30"/>
<feGaussianBlur stdDeviation="30"/>
<feColorMatrix type="matrix" values="0 0 0 0 0.12549 0 0 0 0 0.290196 0 0 0 0 0.396078 0 0 0 0.07 0"/>
<feBlend mode="normal" in2="BackgroundImageFix" result="effect1_dropShadow"/>
<feBlend mode="normal" in="SourceGraphic" in2="effect1_dropShadow" result="shape"/>
</filter>
</defs>
</svg>
