<?xml version="1.0" encoding="UTF-8"?>
<svg xmlns="http://www.w3.org/2000/svg" xmlns:xlink="http://www.w3.org/1999/xlink" width="128pt" height="40pt" viewBox="0 0 128 40" version="1.1">
<g id="surface1">
<path style=" stroke:none;fill-rule:nonzero;fill:rgb(0.392157%,14.117647%,40%);fill-opacity:1;" d="M 6.0625 24.675781 C 5.621094 24.449219 5.082031 24.625 4.859375 25.070312 L 1.5625 31.59375 C 1.335938 32.039062 1.511719 32.582031 1.953125 32.804688 C 2.390625 33.03125 2.929688 32.855469 3.15625 32.414062 L 6.453125 25.886719 C 6.679688 25.445312 6.503906 24.902344 6.0625 24.675781 Z M 6.0625 24.675781 "/>
<path style=" stroke:none;fill-rule:nonzero;fill:rgb(0.392157%,14.117647%,40%);fill-opacity:1;" d="M 2.746094 22.976562 C 2.308594 22.75 1.769531 22.925781 1.542969 23.371094 L 0.0976562 26.230469 C -0.125 26.675781 0.046875 27.21875 0.488281 27.441406 C 0.929688 27.667969 1.46875 27.492188 1.691406 27.050781 L 3.136719 24.1875 C 3.363281 23.746094 3.1875 23.203125 2.746094 22.976562 Z M 2.746094 22.976562 "/>
<path style=" stroke:none;fill-rule:nonzero;fill:rgb(0.392157%,14.117647%,40%);fill-opacity:1;" d="M 19.855469 31.746094 C 20.296875 31.972656 20.472656 32.511719 20.246094 32.957031 L 16.949219 39.480469 C 16.722656 39.925781 16.1875 40.101562 15.746094 39.875 C 15.304688 39.648438 15.128906 39.109375 15.355469 38.664062 L 18.652344 32.140625 C 18.878906 31.695312 19.417969 31.519531 19.855469 31.746094 Z M 19.855469 31.746094 "/>
<path style=" stroke:none;fill-rule:nonzero;fill:rgb(0.392157%,14.117647%,40%);fill-opacity:1;" d="M 23.171875 33.445312 C 23.613281 33.671875 23.789062 34.210938 23.5625 34.65625 L 22.117188 37.515625 C 21.894531 37.960938 21.355469 38.136719 20.914062 37.910156 C 20.472656 37.6875 20.296875 37.144531 20.523438 36.699219 L 21.96875 33.839844 C 22.191406 33.394531 22.730469 33.21875 23.171875 33.445312 Z M 23.171875 33.445312 "/>
<path style=" stroke:none;fill-rule:nonzero;fill:rgb(100%,84.705882%,0%);fill-opacity:1;" d="M 17.421875 7.21875 L 18.75 8.90625 L 13.371094 19.542969 L 11.636719 18.65625 Z M 17.421875 7.21875 "/>
<path style=" stroke:none;fill-rule:nonzero;fill:rgb(100%,100%,100%);fill-opacity:1;" d="M 26.765625 5.160156 L 27.574219 10.441406 L 25.046875 10.335938 L 23.714844 8.019531 C 23.535156 7.710938 23.199219 7.539062 22.847656 7.574219 L 20.203125 7.851562 L 18.632812 5.855469 L 23.347656 3.40625 Z M 26.765625 5.160156 "/>
<path style=" stroke:none;fill-rule:nonzero;fill:rgb(100%,84.705882%,0%);fill-opacity:1;" d="M 20.382812 9.644531 L 22.457031 9.425781 L 23.441406 11.136719 L 17.992188 21.914062 L 14.964844 20.363281 Z M 20.382812 9.644531 "/>
<path style=" stroke:none;fill-rule:nonzero;fill:rgb(100%,84.705882%,0%);fill-opacity:1;" d="M 24.941406 12.132812 L 27.195312 12.226562 L 21.410156 23.664062 L 19.585938 22.730469 Z M 24.941406 12.132812 "/>
<path style=" stroke:none;fill-rule:nonzero;fill:rgb(100%,84.705882%,0%);fill-opacity:1;" d="M 4.914062 20.121094 C 4.910156 20.042969 4.917969 19.851562 5.105469 19.722656 L 11.253906 15.441406 L 7.972656 21.933594 L 5.15625 20.492188 C 4.953125 20.386719 4.921875 20.199219 4.914062 20.121094 Z M 4.914062 20.121094 "/>
<path style=" stroke:none;fill-rule:nonzero;fill:rgb(100%,100%,100%);fill-opacity:1;" d="M 10.824219 20.261719 L 20.597656 25.269531 L 19.339844 27.761719 L 16.914062 26.515625 L 11.992188 23.996094 L 9.566406 22.75 Z M 10.824219 20.261719 "/>
<path style=" stroke:none;fill-rule:nonzero;fill:rgb(100%,36.470588%,13.333333%);fill-opacity:1;" d="M 14.660156 32.152344 L 14.15625 31.621094 C 13.855469 31.304688 13.367188 31.253906 13.003906 31.5 L 10.378906 33.3125 L 10.289062 30.109375 C 10.28125 29.773438 10.085938 29.480469 9.800781 29.332031 C 9.714844 29.289062 9.617188 29.257812 9.515625 29.242188 L 8.792969 29.144531 L 11.78125 25.90625 L 15.5 27.8125 Z M 14.660156 32.152344 "/>
<path style=" stroke:none;fill-rule:nonzero;fill:rgb(100%,84.705882%,0%);fill-opacity:1;" d="M 24.1875 30 C 24.125 30.039062 23.953125 30.125 23.75 30.019531 L 20.933594 28.578125 L 24.214844 22.085938 L 24.398438 29.609375 C 24.402344 29.839844 24.253906 29.957031 24.1875 30 Z M 24.1875 30 "/>
<path style=" stroke:none;fill-rule:nonzero;fill:rgb(0.392157%,14.117647%,40%);fill-opacity:1;" d="M 26.1875 29.566406 L 25.925781 18.707031 L 29.421875 11.792969 C 29.421875 11.789062 29.425781 11.785156 29.425781 11.78125 C 29.433594 11.765625 29.4375 11.75 29.445312 11.730469 C 29.460938 11.699219 29.472656 11.664062 29.484375 11.628906 C 29.488281 11.609375 29.492188 11.589844 29.496094 11.570312 C 29.503906 11.53125 29.511719 11.492188 29.511719 11.453125 C 29.515625 11.441406 29.515625 11.433594 29.515625 11.421875 C 29.519531 11.417969 29.515625 11.410156 29.515625 11.40625 C 29.519531 11.355469 29.515625 11.300781 29.507812 11.246094 L 29.507812 11.242188 C 29.507812 11.238281 29.507812 11.238281 29.507812 11.238281 L 28 1.382812 C 27.921875 0.867188 27.597656 0.414062 27.132812 0.175781 C 26.667969 -0.0625 26.117188 -0.0585938 25.65625 0.179688 L 16.855469 4.753906 C 16.851562 4.753906 16.851562 4.753906 16.851562 4.753906 L 16.847656 4.757812 C 16.796875 4.78125 16.753906 4.8125 16.710938 4.84375 C 16.707031 4.847656 16.703125 4.847656 16.699219 4.851562 C 16.691406 4.859375 16.683594 4.867188 16.675781 4.875 C 16.648438 4.902344 16.617188 4.929688 16.59375 4.957031 C 16.578125 4.972656 16.566406 4.988281 16.554688 5 C 16.53125 5.03125 16.511719 5.0625 16.492188 5.09375 C 16.484375 5.109375 16.472656 5.121094 16.464844 5.136719 C 16.464844 5.140625 16.460938 5.144531 16.457031 5.148438 L 12.960938 12.066406 L 4.089844 18.238281 C 3.4375 18.695312 3.078125 19.441406 3.128906 20.242188 C 3.183594 21.039062 3.636719 21.734375 4.347656 22.097656 L 7.957031 23.949219 L 10.125 25.058594 L 6.304688 29.191406 C 6.078125 29.441406 6.003906 29.792969 6.117188 30.109375 C 6.230469 30.425781 6.507812 30.65625 6.839844 30.699219 L 8.523438 30.925781 L 8.636719 35.015625 C 8.648438 35.347656 8.835938 35.644531 9.125 35.792969 C 9.417969 35.941406 9.765625 35.921875 10.039062 35.734375 L 13.390625 33.417969 L 14.5625 34.65625 C 14.792969 34.898438 15.140625 34.992188 15.460938 34.898438 C 15.78125 34.804688 16.023438 34.535156 16.085938 34.207031 L 17.160156 28.664062 L 19.328125 29.773438 L 22.9375 31.625 C 23.644531 31.988281 24.46875 31.949219 25.144531 31.523438 C 25.816406 31.097656 26.207031 30.363281 26.1875 29.566406 Z M 17.421875 7.21875 L 18.75 8.90625 L 13.371094 19.542969 L 11.636719 18.65625 Z M 26.765625 5.160156 L 27.574219 10.441406 L 25.046875 10.335938 L 23.714844 8.019531 C 23.535156 7.710938 23.199219 7.539062 22.847656 7.574219 L 20.203125 7.851562 L 18.632812 5.855469 L 23.347656 3.40625 Z M 20.382812 9.644531 L 22.457031 9.425781 L 23.441406 11.136719 L 17.992188 21.914062 L 14.964844 20.363281 Z M 24.941406 12.132812 L 27.195312 12.226562 L 21.410156 23.664062 L 19.585938 22.730469 Z M 4.914062 20.121094 C 4.910156 20.042969 4.917969 19.851562 5.105469 19.722656 L 11.253906 15.441406 L 7.972656 21.933594 L 5.15625 20.492188 C 4.953125 20.386719 4.921875 20.199219 4.914062 20.121094 Z M 10.824219 20.261719 L 20.597656 25.269531 L 19.339844 27.761719 L 16.914062 26.515625 L 11.992188 23.996094 L 9.566406 22.75 Z M 14.660156 32.152344 L 14.15625 31.621094 C 13.855469 31.304688 13.367188 31.253906 13.003906 31.5 L 10.378906 33.3125 L 10.289062 30.109375 C 10.28125 29.773438 10.085938 29.480469 9.800781 29.332031 C 9.714844 29.289062 9.617188 29.257812 9.515625 29.242188 L 8.792969 29.144531 L 11.78125 25.90625 L 15.5 27.8125 Z M 24.1875 30 C 24.125 30.039062 23.953125 30.125 23.75 30.019531 L 20.933594 28.578125 L 24.214844 22.085938 L 24.398438 29.609375 C 24.402344 29.839844 24.253906 29.957031 24.1875 30 Z M 24.1875 30 "/>
<path style=" stroke:none;fill-rule:nonzero;fill:rgb(0.392157%,14.117647%,40%);fill-opacity:1;" d="M 48.523438 13.125 C 49.5 13.367188 50.253906 13.824219 50.785156 14.492188 C 51.3125 15.160156 51.578125 15.992188 51.578125 16.988281 C 51.578125 18.242188 51.15625 19.253906 50.316406 20.023438 C 49.476562 20.789062 48.261719 21.175781 46.679688 21.175781 L 40.445312 21.175781 L 40.445312 6.015625 L 45.875 6.015625 C 47.472656 6.015625 48.691406 6.328125 49.53125 6.957031 C 50.375 7.582031 50.792969 8.5 50.792969 9.710938 C 50.792969 10.449219 50.609375 11.125 50.242188 11.738281 C 49.875 12.351562 49.300781 12.804688 48.523438 13.105469 Z M 43.371094 8.664062 L 43.371094 12.230469 L 45.515625 12.230469 C 46.148438 12.230469 46.6875 12.078125 47.125 11.769531 C 47.5625 11.464844 47.78125 11.019531 47.78125 10.4375 C 47.78125 9.253906 46.960938 8.664062 45.324219 8.664062 Z M 45.789062 18.527344 C 46.609375 18.527344 47.257812 18.363281 47.742188 18.035156 C 48.222656 17.710938 48.460938 17.230469 48.460938 16.605469 C 48.460938 15.992188 48.238281 15.515625 47.792969 15.164062 C 47.347656 14.816406 46.6875 14.640625 45.8125 14.640625 L 43.371094 14.640625 L 43.371094 18.527344 Z M 45.789062 18.527344 "/>
<path style=" stroke:none;fill-rule:nonzero;fill:rgb(0.392157%,14.117647%,40%);fill-opacity:1;" d="M 53.445312 21.175781 L 53.445312 5.460938 L 56.222656 5.460938 L 56.222656 21.175781 Z M 53.445312 21.175781 "/>
<path style=" stroke:none;fill-rule:nonzero;fill:rgb(0.392157%,14.117647%,40%);fill-opacity:1;" d="M 66.019531 10.757812 L 68.777344 10.757812 L 68.777344 21.175781 L 66.148438 21.175781 L 66.148438 19.914062 L 66.082031 19.914062 C 65.363281 20.867188 64.328125 21.347656 62.988281 21.347656 C 61.546875 21.347656 60.359375 20.851562 59.433594 19.863281 C 58.507812 18.871094 58.046875 17.582031 58.046875 15.988281 C 58.046875 14.421875 58.507812 13.128906 59.433594 12.113281 C 60.359375 11.09375 61.523438 10.585938 62.921875 10.585938 C 64.210938 10.585938 65.21875 11.035156 65.957031 11.929688 L 66.019531 11.929688 Z M 63.496094 18.847656 C 64.230469 18.847656 64.851562 18.585938 65.363281 18.058594 C 65.871094 17.53125 66.125 16.847656 66.125 16.007812 C 66.125 15.167969 65.878906 14.472656 65.382812 13.914062 C 64.886719 13.359375 64.265625 13.082031 63.515625 13.082031 C 62.753906 13.082031 62.117188 13.351562 61.609375 13.882812 C 61.101562 14.417969 60.84375 15.125 60.84375 16.007812 C 60.84375 16.847656 61.09375 17.53125 61.585938 18.058594 C 62.082031 18.585938 62.71875 18.847656 63.496094 18.847656 Z M 63.496094 18.847656 "/>
<path style=" stroke:none;fill-rule:nonzero;fill:rgb(0.392157%,14.117647%,40%);fill-opacity:1;" d="M 74.3125 21.347656 C 72.683594 21.347656 71.285156 20.839844 70.113281 19.828125 L 71.46875 17.886719 C 72.316406 18.699219 73.273438 19.105469 74.332031 19.105469 C 74.726562 19.105469 75.039062 19.027344 75.265625 18.867188 C 75.492188 18.710938 75.605469 18.507812 75.605469 18.25 C 75.605469 18.023438 75.46875 17.832031 75.203125 17.671875 C 74.933594 17.515625 74.4375 17.324219 73.71875 17.097656 C 72.714844 16.753906 71.933594 16.332031 71.375 15.828125 C 70.816406 15.320312 70.535156 14.613281 70.535156 13.703125 C 70.535156 12.777344 70.890625 12.027344 71.597656 11.449219 C 72.304688 10.875 73.195312 10.585938 74.269531 10.585938 C 75.683594 10.585938 76.941406 11.019531 78.042969 11.886719 L 76.707031 13.9375 C 75.929688 13.195312 75.101562 12.828125 74.226562 12.828125 C 73.972656 12.828125 73.738281 12.894531 73.527344 13.03125 C 73.3125 13.164062 73.207031 13.359375 73.207031 13.617188 C 73.207031 13.816406 73.332031 13.996094 73.578125 14.160156 C 73.828125 14.324219 74.226562 14.511719 74.777344 14.726562 C 75.34375 14.941406 75.757812 15.101562 76.027344 15.207031 C 76.296875 15.3125 76.613281 15.472656 76.984375 15.675781 C 77.351562 15.882812 77.609375 16.082031 77.757812 16.273438 C 77.90625 16.46875 78.039062 16.71875 78.160156 17.03125 C 78.28125 17.347656 78.339844 17.703125 78.339844 18.101562 C 78.339844 19.070312 77.996094 19.851562 77.3125 20.449219 C 76.625 21.046875 75.625 21.347656 74.3125 21.347656 Z M 74.3125 21.347656 "/>
<path style=" stroke:none;fill-rule:nonzero;fill:rgb(0.392157%,14.117647%,40%);fill-opacity:1;" d="M 83.152344 21.347656 C 82.234375 21.347656 81.511719 21.054688 80.992188 20.46875 C 80.46875 19.886719 80.207031 19.027344 80.207031 17.886719 L 80.207031 13.0625 L 78.976562 13.0625 L 78.976562 10.757812 L 80.207031 10.757812 L 80.207031 7.339844 L 82.960938 7.039062 L 82.960938 10.757812 L 85.78125 10.757812 L 85.78125 13.0625 L 82.960938 13.0625 L 82.960938 17.503906 C 82.960938 18.386719 83.265625 18.828125 83.875 18.828125 C 84.269531 18.828125 84.707031 18.707031 85.1875 18.464844 L 85.910156 20.707031 C 85.117188 21.132812 84.199219 21.347656 83.152344 21.347656 Z M 83.152344 21.347656 "/>
<path style=" stroke:none;fill-rule:nonzero;fill:rgb(0.392157%,14.117647%,40%);fill-opacity:1;" d="M 99.671875 21.347656 C 97.410156 21.347656 95.566406 20.617188 94.136719 19.15625 C 92.710938 17.699219 91.996094 15.84375 91.996094 13.59375 C 91.996094 11.332031 92.710938 9.472656 94.136719 8.011719 C 95.566406 6.554688 97.410156 5.824219 99.671875 5.824219 C 101.90625 5.824219 103.738281 6.542969 105.175781 7.980469 C 106.609375 9.417969 107.328125 11.289062 107.328125 13.59375 C 107.328125 15.902344 106.609375 17.769531 105.175781 19.199219 C 103.738281 20.628906 101.90625 21.347656 99.671875 21.347656 Z M 99.691406 18.546875 C 100.992188 18.546875 102.074219 18.078125 102.9375 17.140625 C 103.800781 16.199219 104.230469 15.019531 104.230469 13.59375 C 104.230469 12.171875 103.800781 10.992188 102.9375 10.050781 C 102.074219 9.113281 100.992188 8.640625 99.691406 8.640625 C 98.351562 8.640625 97.246094 9.121094 96.386719 10.074219 C 95.523438 11.027344 95.089844 12.199219 95.089844 13.59375 C 95.089844 14.992188 95.523438 16.164062 96.386719 17.117188 C 97.246094 18.070312 98.351562 18.546875 99.691406 18.546875 Z M 99.691406 18.546875 "/>
<path style=" stroke:none;fill-rule:nonzero;fill:rgb(0.392157%,14.117647%,40%);fill-opacity:1;" d="M 109.617188 21.175781 L 109.617188 13.0625 L 108.535156 13.0625 L 108.535156 10.757812 L 109.617188 10.757812 L 109.617188 8.960938 C 109.617188 7.753906 109.898438 6.835938 110.464844 6.207031 C 111.03125 5.582031 111.835938 5.269531 112.882812 5.269531 C 113.914062 5.269531 114.804688 5.523438 115.554688 6.039062 L 115.003906 8.214844 C 114.410156 7.917969 113.894531 7.765625 113.457031 7.765625 C 112.75 7.765625 112.394531 8.230469 112.394531 9.15625 L 112.394531 10.757812 L 114.707031 10.757812 L 114.707031 13.0625 L 112.394531 13.0625 L 112.394531 21.175781 Z M 109.617188 21.175781 "/>
<path style=" stroke:none;fill-rule:nonzero;fill:rgb(0.392157%,14.117647%,40%);fill-opacity:1;" d="M 116.464844 21.175781 L 116.464844 13.0625 L 115.386719 13.0625 L 115.386719 10.757812 L 116.464844 10.757812 L 116.464844 8.960938 C 116.464844 7.753906 116.75 6.835938 117.316406 6.207031 C 117.878906 5.582031 118.6875 5.269531 119.730469 5.269531 C 120.765625 5.269531 121.65625 5.523438 122.402344 6.039062 L 121.851562 8.214844 C 121.257812 7.917969 120.742188 7.765625 120.304688 7.765625 C 119.597656 7.765625 119.246094 8.230469 119.246094 9.15625 L 119.246094 10.757812 L 121.554688 10.757812 L 121.554688 13.0625 L 119.246094 13.0625 L 119.246094 21.175781 Z M 116.464844 21.175781 "/>
<path style=" stroke:none;fill-rule:nonzero;fill:rgb(0.392157%,14.117647%,40%);fill-opacity:1;" d="M 43.601562 33.640625 L 43.601562 26.1875 L 41.097656 26.1875 L 41.097656 25.238281 L 47.140625 25.238281 L 47.140625 26.1875 L 44.625 26.1875 L 44.625 33.640625 Z M 43.601562 33.640625 "/>
<path style=" stroke:none;fill-rule:nonzero;fill:rgb(0.392157%,14.117647%,40%);fill-opacity:1;" d="M 51.078125 27.878906 L 52.027344 27.878906 L 52.027344 33.640625 L 51.078125 33.640625 L 51.078125 32.683594 L 51.066406 32.683594 C 50.585938 33.367188 49.960938 33.710938 49.183594 33.710938 C 48.503906 33.710938 47.972656 33.511719 47.597656 33.113281 C 47.222656 32.714844 47.035156 32.113281 47.035156 31.308594 L 47.035156 27.878906 L 47.984375 27.878906 L 47.984375 31.039062 C 47.984375 31.675781 48.101562 32.136719 48.332031 32.414062 C 48.5625 32.695312 48.914062 32.835938 49.382812 32.835938 C 49.855469 32.835938 50.253906 32.640625 50.582031 32.25 C 50.910156 31.859375 51.078125 31.332031 51.078125 30.671875 Z M 51.078125 27.878906 "/>
<path style=" stroke:none;fill-rule:nonzero;fill:rgb(0.392157%,14.117647%,40%);fill-opacity:1;" d="M 55.402344 33.710938 C 54.40625 33.710938 53.910156 33.117188 53.910156 31.925781 L 53.910156 28.707031 L 53.179688 28.707031 L 53.179688 27.878906 L 53.910156 27.878906 L 53.910156 25.914062 L 54.859375 25.808594 L 54.859375 27.878906 L 56.765625 27.878906 L 56.765625 28.707031 L 54.859375 28.707031 L 54.859375 31.78125 C 54.859375 32.136719 54.914062 32.398438 55.019531 32.5625 C 55.125 32.730469 55.308594 32.8125 55.566406 32.8125 C 55.863281 32.8125 56.183594 32.714844 56.53125 32.515625 L 56.789062 33.355469 C 56.363281 33.59375 55.902344 33.710938 55.402344 33.710938 Z M 55.402344 33.710938 "/>
<path style=" stroke:none;fill-rule:nonzero;fill:rgb(0.392157%,14.117647%,40%);fill-opacity:1;" d="M 60.40625 33.710938 C 59.53125 33.710938 58.816406 33.429688 58.269531 32.871094 C 57.71875 32.3125 57.445312 31.609375 57.445312 30.765625 C 57.445312 29.921875 57.722656 29.21875 58.269531 28.652344 C 58.816406 28.089844 59.53125 27.808594 60.40625 27.808594 C 61.253906 27.808594 61.957031 28.082031 62.511719 28.636719 C 63.066406 29.1875 63.347656 29.898438 63.347656 30.765625 C 63.347656 31.632812 63.066406 32.339844 62.511719 32.890625 C 61.957031 33.4375 61.253906 33.710938 60.40625 33.710938 Z M 60.40625 32.835938 C 60.964844 32.835938 61.433594 32.640625 61.8125 32.25 C 62.191406 31.859375 62.382812 31.363281 62.382812 30.765625 C 62.382812 30.15625 62.195312 29.660156 61.820312 29.273438 C 61.441406 28.886719 60.972656 28.695312 60.40625 28.695312 C 59.820312 28.695312 59.339844 28.894531 58.96875 29.292969 C 58.597656 29.691406 58.410156 30.179688 58.410156 30.765625 C 58.410156 31.347656 58.597656 31.839844 58.96875 32.238281 C 59.339844 32.636719 59.820312 32.835938 60.40625 32.835938 Z M 60.40625 32.835938 "/>
<path style=" stroke:none;fill-rule:nonzero;fill:rgb(0.392157%,14.117647%,40%);fill-opacity:1;" d="M 67.648438 27.808594 C 67.765625 27.808594 67.84375 27.8125 67.882812 27.820312 L 67.882812 28.882812 C 67.710938 28.867188 67.585938 28.859375 67.507812 28.859375 C 66.972656 28.859375 66.550781 29.046875 66.238281 29.417969 C 65.921875 29.785156 65.765625 30.269531 65.765625 30.859375 L 65.765625 33.640625 L 64.816406 33.640625 L 64.816406 27.878906 L 65.765625 27.878906 L 65.765625 28.894531 L 65.777344 28.894531 C 66.226562 28.167969 66.847656 27.808594 67.648438 27.808594 Z M 67.648438 27.808594 "/>
<path style=" stroke:none;fill-rule:nonzero;fill:rgb(0.392157%,14.117647%,40%);fill-opacity:1;" d="M 69.574219 26.8125 C 69.378906 26.8125 69.214844 26.746094 69.085938 26.617188 C 68.957031 26.488281 68.894531 26.328125 68.894531 26.136719 C 68.894531 25.949219 68.957031 25.789062 69.085938 25.660156 C 69.214844 25.527344 69.378906 25.464844 69.574219 25.464844 C 69.761719 25.464844 69.921875 25.53125 70.058594 25.664062 C 70.191406 25.800781 70.257812 25.957031 70.257812 26.136719 C 70.257812 26.328125 70.191406 26.488281 70.058594 26.617188 C 69.921875 26.746094 69.761719 26.8125 69.574219 26.8125 Z M 69.09375 33.640625 L 69.09375 27.878906 L 70.046875 27.878906 L 70.046875 33.640625 Z M 69.09375 33.640625 "/>
<path style=" stroke:none;fill-rule:nonzero;fill:rgb(0.392157%,14.117647%,40%);fill-opacity:1;" d="M 74.992188 27.808594 C 75.628906 27.808594 76.128906 28.011719 76.496094 28.417969 C 76.867188 28.824219 77.050781 29.425781 77.050781 30.222656 L 77.050781 33.640625 L 76.097656 33.640625 L 76.097656 30.492188 C 76.097656 29.292969 75.632812 28.695312 74.699219 28.695312 C 74.152344 28.695312 73.714844 28.878906 73.386719 29.246094 C 73.0625 29.609375 72.902344 30.117188 72.902344 30.765625 L 72.902344 33.640625 L 71.949219 33.640625 L 71.949219 27.878906 L 72.902344 27.878906 L 72.902344 28.882812 L 72.914062 28.882812 C 73.414062 28.164062 74.105469 27.808594 74.992188 27.808594 Z M 74.992188 27.808594 "/>
<path style=" stroke:none;fill-rule:nonzero;fill:rgb(0.392157%,14.117647%,40%);fill-opacity:1;" d="M 83.113281 27.878906 L 84.054688 27.878906 L 84.054688 33.203125 C 84.054688 34.085938 83.824219 34.78125 83.367188 35.292969 C 82.90625 35.800781 82.199219 36.054688 81.246094 36.054688 C 80.382812 36.054688 79.609375 35.84375 78.917969 35.425781 L 79.140625 34.539062 C 79.855469 34.941406 80.539062 35.144531 81.199219 35.144531 C 81.816406 35.144531 82.292969 34.984375 82.625 34.664062 C 82.957031 34.34375 83.125 33.941406 83.125 33.449219 L 83.125 32.644531 L 83.101562 32.644531 C 82.625 33.238281 81.976562 33.535156 81.164062 33.535156 C 80.378906 33.535156 79.722656 33.269531 79.1875 32.742188 C 78.65625 32.210938 78.390625 31.527344 78.390625 30.683594 C 78.390625 29.863281 78.648438 29.175781 79.171875 28.628906 C 79.691406 28.082031 80.339844 27.808594 81.117188 27.808594 C 81.921875 27.808594 82.582031 28.097656 83.089844 28.683594 L 83.113281 28.683594 Z M 81.234375 32.632812 C 81.804688 32.632812 82.265625 32.445312 82.621094 32.074219 C 82.972656 31.699219 83.148438 31.21875 83.148438 30.636719 C 83.148438 30.066406 82.964844 29.605469 82.601562 29.246094 C 82.238281 28.886719 81.78125 28.707031 81.234375 28.707031 C 80.691406 28.707031 80.246094 28.890625 79.894531 29.257812 C 79.539062 29.625 79.363281 30.085938 79.363281 30.648438 C 79.363281 31.246094 79.542969 31.726562 79.90625 32.089844 C 80.265625 32.453125 80.707031 32.632812 81.234375 32.632812 Z M 81.234375 32.632812 "/>
</g>
</svg>
