<?xml version="1.0" encoding="UTF-8"?>
<svg xmlns="http://www.w3.org/2000/svg" xmlns:xlink="http://www.w3.org/1999/xlink" width="200pt" height="200pt" viewBox="0 0 200 200" version="1.1">
<defs>
<linearGradient id="linear0" gradientUnits="userSpaceOnUse" x1="2757.0881" y1="1581.9213" x2="2609.5415" y2="3729.5317" gradientTransform="matrix(0.0539084,0,0,0.0539084,0,0)">
<stop offset="0" style="stop-color:rgb(0%,83.137255%,67.843137%);stop-opacity:1;"/>
<stop offset="1" style="stop-color:rgb(0%,4.705882%,74.901961%);stop-opacity:1;"/>
</linearGradient>
<clipPath id="clip1">
  <path d="M 119 90 L 174 90 L 174 147 L 119 147 Z M 119 90 "/>
</clipPath>
<clipPath id="clip2">
  <path d="M 172.539062 94.332031 C 171.828125 92.992188 170.390625 91.828125 169.046875 91.15625 C 159.523438 86.402344 149.605469 106.320312 149.214844 111.523438 C 148.820312 116.730469 147.222656 117.832031 138.503906 117.035156 C 129.785156 116.234375 131.582031 122.386719 131.40625 125.476562 C 131.230469 128.566406 132.152344 131.617188 125.40625 131.96875 C 118.664062 132.324219 119.933594 134.792969 119.933594 134.792969 C 119.933594 134.792969 125.925781 149.71875 126.761719 146.078125 C 127.59375 142.441406 130.757812 137.734375 140.234375 141.195312 C 144.316406 142.6875 151.253906 143.316406 154.390625 139.582031 C 155.121094 138.714844 155.972656 137.277344 156.160156 136.144531 C 156.421875 134.566406 155.945312 133.046875 155.984375 131.476562 C 156.066406 127.824219 160.082031 126.78125 162.710938 125.40625 C 164.085938 124.6875 165.472656 123.9375 166.695312 122.976562 C 169.230469 120.980469 169.839844 117.960938 169.242188 114.90625 C 168.953125 113.4375 168.398438 111.78125 168.632812 110.269531 C 168.882812 108.648438 170.027344 106.761719 170.742188 105.28125 C 171.300781 104.121094 171.902344 102.984375 172.328125 101.765625 C 173.121094 99.496094 173.726562 96.570312 172.539062 94.332031 Z M 172.539062 94.332031 "/>
</clipPath>
<filter id="alpha" filterUnits="objectBoundingBox" x="0%" y="0%" width="100%" height="100%">
  <feColorMatrix type="matrix" in="SourceGraphic" values="0 0 0 0 1 0 0 0 0 1 0 0 0 0 1 0 0 0 1 0"/>
</filter>
<mask id="mask0">
  <g filter="url(#alpha)">
<rect x="0" y="0" width="200" height="200" style="fill:rgb(0%,0%,0%);fill-opacity:0.8;stroke:none;"/>
  </g>
</mask>
<clipPath id="clip3">
  <rect x="0" y="0" width="200" height="200"/>
</clipPath>
<g id="surface5" clip-path="url(#clip3)">
<path style=" stroke:none;fill-rule:nonzero;fill:rgb(100%,100%,100%);fill-opacity:1;" d="M 116.648438 140.421875 C 116.574219 140.417969 116.507812 140.355469 116.5 140.277344 C 116.492188 140.191406 116.558594 140.117188 116.644531 140.109375 C 116.695312 140.101562 122.023438 139.613281 128.46875 137.839844 C 134.410156 136.210938 142.542969 133.128906 147.5625 127.710938 C 151.753906 123.183594 157.214844 115.097656 162.546875 105.519531 C 167.328125 96.929688 170.253906 90.324219 170.324219 88.902344 C 170.328125 88.816406 170.398438 88.75 170.488281 88.753906 C 170.574219 88.757812 170.640625 88.832031 170.636719 88.917969 C 170.558594 90.582031 167.125 97.941406 162.824219 105.671875 C 157.480469 115.269531 152 123.378906 147.792969 127.921875 C 142.722656 133.398438 134.527344 136.503906 128.546875 138.144531 C 122.074219 139.921875 116.726562 140.414062 116.671875 140.421875 C 116.664062 140.421875 116.65625 140.421875 116.648438 140.421875 Z M 116.648438 140.421875 "/>
<path style=" stroke:none;fill-rule:nonzero;fill:rgb(100%,100%,100%);fill-opacity:1;" d="M 161.8125 107.289062 C 161.714844 107.289062 161.65625 107.21875 161.660156 107.132812 C 161.664062 107.015625 162.078125 95.65625 158.28125 91.480469 C 158.222656 91.417969 158.226562 91.320312 158.289062 91.261719 C 158.355469 91.203125 158.453125 91.210938 158.511719 91.273438 C 162.394531 95.542969 161.992188 106.671875 161.976562 107.144531 C 161.972656 107.230469 161.902344 107.289062 161.816406 107.289062 C 161.816406 107.289062 161.8125 107.289062 161.8125 107.289062 Z M 161.8125 107.289062 "/>
<path style=" stroke:none;fill-rule:nonzero;fill:rgb(100%,100%,100%);fill-opacity:1;" d="M 155.304688 117.933594 C 155.238281 117.933594 155.179688 117.890625 155.160156 117.824219 C 155.136719 117.742188 155.179688 117.652344 155.265625 117.628906 C 155.300781 117.617188 158.90625 116.523438 162.996094 116.042969 C 168.523438 115.394531 172.253906 116.121094 174.085938 118.195312 C 174.140625 118.261719 174.136719 118.359375 174.070312 118.417969 C 174.003906 118.476562 173.90625 118.46875 173.847656 118.402344 C 169.636719 113.628906 155.5 117.882812 155.355469 117.929688 C 155.339844 117.933594 155.320312 117.9375 155.304688 117.933594 Z M 155.304688 117.933594 "/>
<path style=" stroke:none;fill-rule:nonzero;fill:rgb(100%,100%,100%);fill-opacity:1;" d="M 133.925781 136.410156 C 133.910156 136.410156 133.894531 136.40625 133.875 136.398438 C 133.796875 136.367188 133.757812 136.277344 133.789062 136.195312 C 133.804688 136.152344 135.476562 131.902344 136.433594 127.085938 C 137.3125 122.671875 137.753906 116.871094 134.871094 114.300781 C 134.804688 114.242188 134.800781 114.140625 134.855469 114.078125 C 134.914062 114.011719 135.015625 114.007812 135.078125 114.066406 C 137.480469 116.207031 138.042969 120.613281 136.742188 127.152344 C 135.777344 131.992188 134.097656 136.269531 134.078125 136.3125 C 134.054688 136.375 133.992188 136.414062 133.925781 136.410156 Z M 133.925781 136.410156 "/>
<path style=" stroke:none;fill-rule:nonzero;fill:rgb(100%,100%,100%);fill-opacity:1;" d="M 142.742188 132.070312 C 142.675781 132.066406 142.617188 132.019531 142.597656 131.953125 C 142.578125 131.867188 142.628906 131.78125 142.714844 131.761719 C 143.324219 131.609375 157.699219 128.066406 161.675781 130.617188 C 161.75 130.664062 161.769531 130.761719 161.722656 130.835938 C 161.675781 130.90625 161.578125 130.929688 161.503906 130.882812 C 157.640625 128.402344 142.9375 132.027344 142.789062 132.066406 C 142.773438 132.070312 142.757812 132.070312 142.742188 132.070312 Z M 142.742188 132.070312 "/>
</g>
<linearGradient id="linear1" gradientUnits="userSpaceOnUse" x1="2018.6257" y1="1955.21" x2="3043.5146" y2="1955.21" gradientTransform="matrix(0.0539084,0,0,0.0539084,0,0)">
<stop offset="0" style="stop-color:rgb(99.607843%,27.058824%,45.882353%);stop-opacity:1;"/>
<stop offset="1" style="stop-color:rgb(99.607843%,44.705882%,27.058824%);stop-opacity:1;"/>
</linearGradient>
<clipPath id="clip4">
  <path d="M 108 60 L 165 60 L 165 151 L 108 151 Z M 108 60 "/>
</clipPath>
<clipPath id="clip5">
  <path d="M 156.574219 62.761719 C 155.050781 61.40625 152.695312 60.613281 150.6875 60.398438 C 136.445312 58.878906 133.292969 88.644531 135.246094 95.390625 C 137.195312 102.140625 135.699219 104.277344 124.328125 107.367188 C 112.960938 110.453125 118.113281 117.363281 119.34375 121.34375 C 120.574219 125.320312 123.171875 128.734375 114.832031 132.347656 C 106.496094 135.957031 109.257812 138.476562 109.257812 138.476562 C 109.257812 138.476562 123.824219 154.480469 123.164062 149.5 C 122.507812 144.519531 124.285156 137.097656 137.859375 137.015625 C 143.707031 136.980469 152.746094 134.515625 154.949219 128.335938 C 155.460938 126.894531 155.859375 124.683594 155.5625 123.164062 C 155.152344 121.058594 153.839844 119.363281 153.148438 117.367188 C 151.539062 112.722656 156.109375 109.523438 158.78125 106.550781 C 160.175781 105 161.570312 103.40625 162.660156 101.621094 C 164.921875 97.910156 164.269531 93.820312 162.078125 90.25 C 161.03125 88.535156 159.550781 86.703125 159.136719 84.691406 C 158.691406 82.527344 159.25 79.613281 159.453125 77.414062 C 159.613281 75.6875 159.839844 73.96875 159.804688 72.230469 C 159.738281 69 159.125 65.03125 156.574219 62.761719 Z M 156.574219 62.761719 "/>
</clipPath>
<mask id="mask1">
  <g filter="url(#alpha)">
<rect x="0" y="0" width="200" height="200" style="fill:rgb(0%,0%,0%);fill-opacity:0.8;stroke:none;"/>
  </g>
</mask>
<clipPath id="clip6">
  <rect x="0" y="0" width="200" height="200"/>
</clipPath>
<g id="surface8" clip-path="url(#clip6)">
<path style=" stroke:none;fill-rule:nonzero;fill:rgb(100%,100%,100%);fill-opacity:1;" d="M 107.761719 147.113281 C 107.660156 147.144531 107.550781 147.097656 107.507812 147.003906 C 107.457031 146.898438 107.5 146.773438 107.605469 146.722656 C 107.671875 146.691406 114.152344 143.570312 121.449219 138.3125 C 128.171875 133.464844 136.980469 125.761719 140.761719 116.570312 C 143.921875 108.898438 147.011719 96.136719 149.234375 81.558594 C 151.230469 68.484375 151.816406 58.785156 151.234375 56.960938 C 151.199219 56.847656 151.257812 56.730469 151.371094 56.695312 C 151.480469 56.660156 151.601562 56.71875 151.636719 56.832031 C 152.320312 58.964844 151.449219 69.855469 149.652344 81.621094 C 147.421875 96.230469 144.328125 109.027344 141.152344 116.734375 C 137.332031 126.015625 128.460938 133.78125 121.691406 138.660156 C 114.363281 143.9375 107.851562 147.070312 107.789062 147.101562 C 107.777344 147.105469 107.769531 147.109375 107.761719 147.113281 Z M 107.761719 147.113281 "/>
<path style=" stroke:none;fill-rule:nonzero;fill:rgb(100%,100%,100%);fill-opacity:1;" d="M 149.136719 84.152344 C 149.027344 84.1875 148.90625 84.128906 148.871094 84.015625 C 148.824219 83.871094 144.011719 69.347656 137.261719 65.871094 C 137.160156 65.816406 137.117188 65.691406 137.171875 65.585938 C 137.226562 65.484375 137.351562 65.441406 137.457031 65.496094 C 144.359375 69.054688 149.074219 83.28125 149.273438 83.886719 C 149.308594 83.996094 149.25 84.117188 149.136719 84.152344 Z M 149.136719 84.152344 "/>
<path style=" stroke:none;fill-rule:nonzero;fill:rgb(100%,100%,100%);fill-opacity:1;" d="M 145.933594 100.613281 C 145.847656 100.640625 145.753906 100.613281 145.699219 100.539062 C 145.628906 100.449219 145.644531 100.316406 145.738281 100.246094 C 145.777344 100.214844 149.8125 97.140625 154.742188 94.613281 C 161.40625 91.203125 166.449219 90.367188 169.730469 92.125 C 169.835938 92.179688 169.875 92.304688 169.820312 92.410156 C 169.761719 92.511719 169.636719 92.550781 169.53125 92.496094 C 161.980469 88.453125 146.15625 100.457031 145.996094 100.582031 C 145.976562 100.59375 145.953125 100.605469 145.933594 100.613281 Z M 145.933594 100.613281 "/>
<path style=" stroke:none;fill-rule:nonzero;fill:rgb(100%,100%,100%);fill-opacity:1;" d="M 127.660156 133.945312 C 127.636719 133.953125 127.613281 133.957031 127.589844 133.953125 C 127.472656 133.953125 127.378906 133.855469 127.382812 133.738281 C 127.382812 133.679688 127.496094 127.53125 126.441406 121.011719 C 125.472656 115.035156 123.304688 107.511719 118.464844 105.625 C 118.355469 105.582031 118.300781 105.460938 118.34375 105.351562 C 118.386719 105.242188 118.507812 105.1875 118.617188 105.230469 C 122.65625 106.804688 125.425781 112.09375 126.859375 120.949219 C 127.917969 127.503906 127.804688 133.6875 127.804688 133.746094 C 127.804688 133.839844 127.742188 133.917969 127.660156 133.945312 Z M 127.660156 133.945312 "/>
<path style=" stroke:none;fill-rule:nonzero;fill:rgb(100%,100%,100%);fill-opacity:1;" d="M 136.738281 124.332031 C 136.648438 124.359375 136.550781 124.328125 136.496094 124.25 C 136.433594 124.152344 136.457031 124.023438 136.550781 123.957031 C 137.25 123.476562 153.707031 112.261719 159.921875 113.613281 C 160.035156 113.636719 160.109375 113.75 160.082031 113.863281 C 160.058594 113.976562 159.945312 114.050781 159.832031 114.023438 C 153.792969 112.714844 136.960938 124.1875 136.792969 124.304688 C 136.773438 124.316406 136.753906 124.324219 136.738281 124.332031 Z M 136.738281 124.332031 "/>
</g>
<mask id="mask2">
  <g filter="url(#alpha)">
<rect x="0" y="0" width="200" height="200" style="fill:rgb(0%,0%,0%);fill-opacity:0.478431;stroke:none;"/>
  </g>
</mask>
<clipPath id="clip7">
  <rect x="0" y="0" width="200" height="200"/>
</clipPath>
<g id="surface11" clip-path="url(#clip7)">
<path style=" stroke:none;fill-rule:nonzero;fill:rgb(100%,100%,100%);fill-opacity:1;" d="M 108.265625 123.5625 C 101.824219 119.839844 96.761719 124.558594 91.875 119.90625 C 88.910156 117.082031 90.367188 114.980469 86.722656 110.765625 C 82.683594 106.09375 80.054688 107.664062 75.996094 103.460938 C 70.863281 98.148438 73.429688 94.015625 69.011719 90.199219 C 63.648438 85.570312 57.867188 89.855469 52.761719 85.414062 C 50.5625 83.5 49.355469 80.71875 48.722656 77.757812 L 43.730469 77.757812 C 42.855469 77.757812 42.144531 78.519531 42.144531 79.460938 L 42.144531 145.953125 C 42.144531 146.894531 42.855469 147.601562 43.730469 147.535156 L 128.871094 141.042969 C 129.289062 141.011719 129.65625 140.75 129.894531 140.371094 C 123.664062 140.125 119.835938 137.882812 117.386719 135.5625 C 112.597656 131.023438 113.429688 126.546875 108.265625 123.5625 Z M 108.265625 123.5625 "/>
</g>
<linearGradient id="linear2" gradientUnits="userSpaceOnUse" x1="781.7595" y1="2741.2314" x2="3254.2383" y2="2741.2314" gradientTransform="matrix(0.0539084,0,0,0.0539084,0,0)">
<stop offset="0.494" style="stop-color:rgb(92.156863%,93.72549%,94.901961%);stop-opacity:1;"/>
<stop offset="1" style="stop-color:rgb(100%,100%,100%);stop-opacity:1;"/>
</linearGradient>
<linearGradient id="linear3" gradientUnits="userSpaceOnUse" x1="2494.7488" y1="2704.1404" x2="2067.4243" y2="2267.5759" gradientTransform="matrix(0.0539084,0,0,0.0539084,0,0)">
<stop offset="0" style="stop-color:rgb(100%,100%,100%);stop-opacity:1;"/>
<stop offset="0.9964" style="stop-color:rgb(92.156863%,93.72549%,94.901961%);stop-opacity:1;"/>
</linearGradient>
<linearGradient id="linear4" gradientUnits="userSpaceOnUse" x1="1675.2427" y1="2218.5894" x2="1668.3131" y2="2483.6475" gradientTransform="matrix(0.0539084,0,0,0.0539084,0,0)">
<stop offset="0" style="stop-color:rgb(100%,100%,100%);stop-opacity:1;"/>
<stop offset="0.9964" style="stop-color:rgb(92.156863%,93.72549%,94.901961%);stop-opacity:1;"/>
</linearGradient>
<linearGradient id="linear5" gradientUnits="userSpaceOnUse" x1="1372.5289" y1="1712.9194" x2="2519.3779" y2="1712.9194" gradientTransform="matrix(0.0539084,0,0,0.0539084,0,0)">
<stop offset="0" style="stop-color:rgb(100%,100%,100%);stop-opacity:1;"/>
<stop offset="0.9964" style="stop-color:rgb(92.156863%,93.72549%,94.901961%);stop-opacity:1;"/>
</linearGradient>
<linearGradient id="linear6" gradientUnits="userSpaceOnUse" x1="1663.5721" y1="1538.4893" x2="2782.7026" y2="1538.4893" gradientTransform="matrix(0.0539084,0,0,0.0539084,0,0)">
<stop offset="0" style="stop-color:rgb(100%,100%,100%);stop-opacity:1;"/>
<stop offset="0.9964" style="stop-color:rgb(92.156863%,93.72549%,94.901961%);stop-opacity:1;"/>
</linearGradient>
<clipPath id="clip8">
  <path d="M 94 81 L 147 81 L 147 96 L 94 96 Z M 94 81 "/>
</clipPath>
<clipPath id="clip9">
  <path d="M 146.558594 50.339844 L 93.328125 49.808594 C 92.886719 49.804688 92.480469 50.148438 92.480469 50.582031 L 92.480469 95.132812 C 92.480469 95.566406 92.925781 95.90625 93.367188 95.890625 L 146.515625 94.367188 C 146.917969 94.355469 147.210938 94.011719 147.210938 93.597656 L 147.210938 51.09375 C 147.210938 50.683594 146.960938 50.34375 146.558594 50.339844 Z M 146.558594 50.339844 "/>
</clipPath>
<linearGradient id="linear7" gradientUnits="userSpaceOnUse" x1="1748.3591" y1="1724.9786" x2="2726.0083" y2="1724.9786" gradientTransform="matrix(0.0539084,0,0,0.0539084,0,0)">
<stop offset="0.0036" style="stop-color:rgb(33.333333%,76.470588%,100%);stop-opacity:1;"/>
<stop offset="1" style="stop-color:rgb(24.705882%,29.803922%,100%);stop-opacity:1;"/>
</linearGradient>
<clipPath id="clip10">
  <path d="M 112 69 L 130 69 L 130 87 L 112 87 Z M 112 69 "/>
</clipPath>
<clipPath id="clip11">
  <path d="M 146.558594 50.339844 L 93.328125 49.808594 C 92.886719 49.804688 92.480469 50.148438 92.480469 50.582031 L 92.480469 95.132812 C 92.480469 95.566406 92.925781 95.90625 93.367188 95.890625 L 146.515625 94.367188 C 146.917969 94.355469 147.210938 94.011719 147.210938 93.597656 L 147.210938 51.09375 C 147.210938 50.683594 146.960938 50.34375 146.558594 50.339844 Z M 146.558594 50.339844 "/>
</clipPath>
<linearGradient id="linear8" gradientUnits="userSpaceOnUse" x1="2246.5854" y1="1339.5236" x2="2248.4031" y2="1692.1737" gradientTransform="matrix(0.0539084,0,0,0.0539084,0,0)">
<stop offset="0.0036" style="stop-color:rgb(95.294118%,43.529412%,33.72549%);stop-opacity:1;"/>
<stop offset="1" style="stop-color:rgb(100%,76.862745%,26.666667%);stop-opacity:1;"/>
</linearGradient>
<clipPath id="clip12">
  <path d="M 114 55 L 130 55 L 130 76 L 114 76 Z M 114 55 "/>
</clipPath>
<clipPath id="clip13">
  <path d="M 146.558594 50.339844 L 93.328125 49.808594 C 92.886719 49.804688 92.480469 50.148438 92.480469 50.582031 L 92.480469 95.132812 C 92.480469 95.566406 92.925781 95.90625 93.367188 95.890625 L 146.515625 94.367188 C 146.917969 94.355469 147.210938 94.011719 147.210938 93.597656 L 147.210938 51.09375 C 147.210938 50.683594 146.960938 50.34375 146.558594 50.339844 Z M 146.558594 50.339844 "/>
</clipPath>
<linearGradient id="linear9" gradientUnits="userSpaceOnUse" x1="2312.1738" y1="854.1101" x2="2223.2922" y2="1403.0146" gradientTransform="matrix(0.0539084,0,0,0.0539084,0,0)">
<stop offset="0.0036" style="stop-color:rgb(95.294118%,43.529412%,33.72549%);stop-opacity:1;"/>
<stop offset="1" style="stop-color:rgb(100%,76.862745%,26.666667%);stop-opacity:1;"/>
</linearGradient>
<clipPath id="clip14">
  <path d="M 111 51 L 131 51 L 131 67 L 111 67 Z M 111 51 "/>
</clipPath>
<clipPath id="clip15">
  <path d="M 146.558594 50.339844 L 93.328125 49.808594 C 92.886719 49.804688 92.480469 50.148438 92.480469 50.582031 L 92.480469 95.132812 C 92.480469 95.566406 92.925781 95.90625 93.367188 95.890625 L 146.515625 94.367188 C 146.917969 94.355469 147.210938 94.011719 147.210938 93.597656 L 147.210938 51.09375 C 147.210938 50.683594 146.960938 50.34375 146.558594 50.339844 Z M 146.558594 50.339844 "/>
</clipPath>
<linearGradient id="linear10" gradientUnits="userSpaceOnUse" x1="2265.0659" y1="967.5305" x2="2221.4363" y2="1236.974" gradientTransform="matrix(0.0539084,0,0,0.0539084,0,0)">
<stop offset="0" style="stop-color:rgb(26.666667%,29.411765%,54.901961%);stop-opacity:1;"/>
<stop offset="0.9964" style="stop-color:rgb(14.901961%,14.901961%,30.980392%);stop-opacity:1;"/>
</linearGradient>
<clipPath id="clip16">
  <path d="M 128 64 L 131 64 L 131 69 L 128 69 Z M 128 64 "/>
</clipPath>
<clipPath id="clip17">
  <path d="M 146.558594 50.339844 L 93.328125 49.808594 C 92.886719 49.804688 92.480469 50.148438 92.480469 50.582031 L 92.480469 95.132812 C 92.480469 95.566406 92.925781 95.90625 93.367188 95.890625 L 146.515625 94.367188 C 146.917969 94.355469 147.210938 94.011719 147.210938 93.597656 L 147.210938 51.09375 C 147.210938 50.683594 146.960938 50.34375 146.558594 50.339844 Z M 146.558594 50.339844 "/>
</clipPath>
<linearGradient id="linear11" gradientUnits="userSpaceOnUse" x1="2451.0769" y1="878.2673" x2="2362.9331" y2="1422.6166" gradientTransform="matrix(0.0539084,0,0,0.0539084,0,0)">
<stop offset="0.0036" style="stop-color:rgb(95.294118%,43.529412%,33.72549%);stop-opacity:1;"/>
<stop offset="1" style="stop-color:rgb(100%,76.862745%,26.666667%);stop-opacity:1;"/>
</linearGradient>
<clipPath id="clip18">
  <path d="M 112 64 L 116 64 L 116 69 L 112 69 Z M 112 64 "/>
</clipPath>
<clipPath id="clip19">
  <path d="M 146.558594 50.339844 L 93.328125 49.808594 C 92.886719 49.804688 92.480469 50.148438 92.480469 50.582031 L 92.480469 95.132812 C 92.480469 95.566406 92.925781 95.90625 93.367188 95.890625 L 146.515625 94.367188 C 146.917969 94.355469 147.210938 94.011719 147.210938 93.597656 L 147.210938 51.09375 C 147.210938 50.683594 146.960938 50.34375 146.558594 50.339844 Z M 146.558594 50.339844 "/>
</clipPath>
<linearGradient id="linear12" gradientUnits="userSpaceOnUse" x1="2181.7788" y1="831.858" x2="2092.3462" y2="1384.165" gradientTransform="matrix(0.0539084,0,0,0.0539084,0,0)">
<stop offset="0.0036" style="stop-color:rgb(95.294118%,43.529412%,33.72549%);stop-opacity:1;"/>
<stop offset="1" style="stop-color:rgb(100%,76.862745%,26.666667%);stop-opacity:1;"/>
</linearGradient>
<clipPath id="clip20">
  <path d="M 112 81 L 130 81 L 130 96 L 112 96 Z M 112 81 "/>
</clipPath>
<clipPath id="clip21">
  <path d="M 146.558594 50.339844 L 93.328125 49.808594 C 92.886719 49.804688 92.480469 50.148438 92.480469 50.582031 L 92.480469 95.132812 C 92.480469 95.566406 92.925781 95.90625 93.367188 95.890625 L 146.515625 94.367188 C 146.917969 94.355469 147.210938 94.011719 147.210938 93.597656 L 147.210938 51.09375 C 147.210938 50.683594 146.960938 50.34375 146.558594 50.339844 Z M 146.558594 50.339844 "/>
</clipPath>
<clipPath id="clip22">
  <path d="M 118 86 L 124 86 L 124 96 L 118 96 Z M 118 86 "/>
</clipPath>
<clipPath id="clip23">
  <path d="M 146.558594 50.339844 L 93.328125 49.808594 C 92.886719 49.804688 92.480469 50.148438 92.480469 50.582031 L 92.480469 95.132812 C 92.480469 95.566406 92.925781 95.90625 93.367188 95.890625 L 146.515625 94.367188 C 146.917969 94.355469 147.210938 94.011719 147.210938 93.597656 L 147.210938 51.09375 C 147.210938 50.683594 146.960938 50.34375 146.558594 50.339844 Z M 146.558594 50.339844 "/>
</clipPath>
<linearGradient id="linear13" gradientUnits="userSpaceOnUse" x1="2249.71" y1="1637.2311" x2="2251.2495" y2="1935.9402" gradientTransform="matrix(0.0539084,0,0,0.0539084,0,0)">
<stop offset="0" style="stop-color:rgb(19.215686%,9.803922%,26.666667%);stop-opacity:1;"/>
<stop offset="0.5554" style="stop-color:rgb(43.529412%,16.862745%,37.647059%);stop-opacity:1;"/>
<stop offset="1" style="stop-color:rgb(62.745098%,22.352941%,46.27451%);stop-opacity:1;"/>
</linearGradient>
<clipPath id="clip24">
  <path d="M 119 83 L 124 83 L 124 87 L 119 87 Z M 119 83 "/>
</clipPath>
<clipPath id="clip25">
  <path d="M 146.558594 50.339844 L 93.328125 49.808594 C 92.886719 49.804688 92.480469 50.148438 92.480469 50.582031 L 92.480469 95.132812 C 92.480469 95.566406 92.925781 95.90625 93.367188 95.890625 L 146.515625 94.367188 C 146.917969 94.355469 147.210938 94.011719 147.210938 93.597656 L 147.210938 51.09375 C 147.210938 50.683594 146.960938 50.34375 146.558594 50.339844 Z M 146.558594 50.339844 "/>
</clipPath>
<linearGradient id="linear14" gradientUnits="userSpaceOnUse" x1="2248.5559" y1="1551.9131" x2="2248.9226" y2="1623.0586" gradientTransform="matrix(0.0539084,0,0,0.0539084,0,0)">
<stop offset="0" style="stop-color:rgb(19.215686%,9.803922%,26.666667%);stop-opacity:1;"/>
<stop offset="0.5554" style="stop-color:rgb(43.529412%,16.862745%,37.647059%);stop-opacity:1;"/>
<stop offset="1" style="stop-color:rgb(62.745098%,22.352941%,46.27451%);stop-opacity:1;"/>
</linearGradient>
<mask id="mask3">
  <g filter="url(#alpha)">
<rect x="0" y="0" width="200" height="200" style="fill:rgb(0%,0%,0%);fill-opacity:0.301961;stroke:none;"/>
  </g>
</mask>
<clipPath id="clip26">
  <rect x="0" y="0" width="200" height="200"/>
</clipPath>
<g id="surface14" clip-path="url(#clip26)">
<path style=" stroke:none;fill-rule:nonzero;fill:rgb(100%,100%,100%);fill-opacity:1;" d="M 143.152344 114.65625 C 142.902344 116.949219 142.820312 119.011719 142.875 120.863281 C 142.902344 121.785156 142.964844 122.65625 143.054688 123.476562 L 88.53125 126.421875 C 87.117188 126.5 85.945312 125.449219 85.945312 124.078125 L 85.945312 39.253906 C 85.945312 37.878906 87.078125 36.789062 88.492188 36.820312 L 92.289062 36.898438 C 92.925781 37.390625 93.566406 37.980469 94.15625 38.679688 C 94.636719 39.253906 95.097656 39.90625 95.511719 40.640625 C 95.816406 41.191406 96.105469 41.789062 96.359375 42.4375 C 97.109375 44.347656 97.597656 46.71875 97.65625 49.65625 C 97.664062 50.21875 97.664062 50.796875 97.640625 51.398438 C 97.042969 67.941406 98.632812 77.515625 116.8125 82.035156 C 127.359375 84.65625 135.59375 87.59375 139.972656 94.371094 C 142.941406 98.960938 144.164062 105.339844 143.152344 114.65625 Z M 143.152344 114.65625 "/>
</g>
<linearGradient id="linear15" gradientUnits="userSpaceOnUse" x1="36.5373" y1="2664.6636" x2="490.4734" y2="1615.7948" gradientTransform="matrix(-0.0539084,0,0,0.0539084,101.799272,0)">
<stop offset="0" style="stop-color:rgb(26.666667%,29.411765%,54.901961%);stop-opacity:1;"/>
<stop offset="0.9964" style="stop-color:rgb(24.313725%,25.490196%,46.666667%);stop-opacity:1;"/>
</linearGradient>
<mask id="mask4">
  <g filter="url(#alpha)">
<rect x="0" y="0" width="200" height="200" style="fill:rgb(0%,0%,0%);fill-opacity:0.2;stroke:none;"/>
  </g>
</mask>
<linearGradient id="linear16" gradientUnits="userSpaceOnUse" x1="143.0486" y1="2442.5994" x2="427.2239" y2="1785.9814" gradientTransform="matrix(-0.0539084,0,0,0.0539084,101.799272,0)">
<stop offset="0" style="stop-color:rgb(26.666667%,29.411765%,54.901961%);stop-opacity:1;"/>
<stop offset="0.9964" style="stop-color:rgb(24.313725%,25.490196%,46.666667%);stop-opacity:1;"/>
</linearGradient>
<clipPath id="clip27">
  <rect x="0" y="0" width="200" height="200"/>
</clipPath>
<g id="surface17" clip-path="url(#clip27)">
<path style=" stroke:none;fill-rule:nonzero;fill:url(#linear16);" d="M 72.386719 103.011719 L 72.320312 104.332031 C 72.320312 104.332031 73.671875 105.121094 75.621094 106.089844 C 79.269531 109.234375 84.769531 112.894531 87.953125 109.847656 C 90.492188 107.417969 91.074219 104.292969 91.023438 101.773438 C 90.636719 100.289062 89.664062 99.375 87.953125 99.515625 C 87.953125 99.515625 85.292969 98.855469 82.023438 101.636719 C 78.75 104.421875 79.570312 96.613281 74.289062 95.460938 C 73.71875 95.335938 73.214844 95.332031 72.769531 95.417969 L 72.417969 102.40625 L 71.949219 102.542969 C 71.949219 102.542969 72.105469 102.71875 72.386719 103.011719 Z M 72.386719 103.011719 "/>
</g>
<linearGradient id="linear17" gradientUnits="userSpaceOnUse" x1="-900.7192" y1="3399.4431" x2="-799.4109" y2="3399.4431" gradientTransform="matrix(-0.0536927,0.00483558,0.00483558,0.0536927,-4.754216,-8.649795)">
<stop offset="0" style="stop-color:rgb(26.666667%,29.411765%,54.901961%);stop-opacity:1;"/>
<stop offset="0.9964" style="stop-color:rgb(14.901961%,14.901961%,30.980392%);stop-opacity:1;"/>
</linearGradient>
<linearGradient id="linear18" gradientUnits="userSpaceOnUse" x1="-1333.5898" y1="3309.8777" x2="-1289.1423" y2="3217.8816" gradientTransform="matrix(-0.053779,0.00374124,0.00374124,0.053779,-27.176097,-3.270571)">
<stop offset="0" style="stop-color:rgb(100%,76.862745%,26.666667%);stop-opacity:1;"/>
<stop offset="0.9964" style="stop-color:rgb(95.294118%,43.529412%,33.72549%);stop-opacity:1;"/>
</linearGradient>
<linearGradient id="linear19" gradientUnits="userSpaceOnUse" x1="-1280.8219" y1="3696.1775" x2="-1173.1891" y2="3696.1775" gradientTransform="matrix(-0.0526685,0.0114987,0.0114987,0.0526685,-31.088146,-11.356102)">
<stop offset="0" style="stop-color:rgb(26.666667%,29.411765%,54.901961%);stop-opacity:1;"/>
<stop offset="0.9964" style="stop-color:rgb(14.901961%,14.901961%,30.980392%);stop-opacity:1;"/>
</linearGradient>
<linearGradient id="linear20" gradientUnits="userSpaceOnUse" x1="-1472.2446" y1="3520.342" x2="-1426.8562" y2="3426.3984" gradientTransform="matrix(-0.0533369,0.00783288,0.00783288,0.0533369,-30.736237,-6.936302)">
<stop offset="0" style="stop-color:rgb(100%,76.862745%,26.666667%);stop-opacity:1;"/>
<stop offset="0.9964" style="stop-color:rgb(95.294118%,43.529412%,33.72549%);stop-opacity:1;"/>
</linearGradient>
<linearGradient id="linear21" gradientUnits="userSpaceOnUse" x1="4371.6309" y1="2740.6016" x2="4084.5532" y2="2093.4597" gradientTransform="matrix(0.0538329,0.00287332,-0.00287332,0.0538329,-149.990156,-1.040458)">
<stop offset="0" style="stop-color:rgb(26.666667%,29.411765%,54.901961%);stop-opacity:1;"/>
<stop offset="0.9964" style="stop-color:rgb(24.313725%,25.490196%,46.666667%);stop-opacity:1;"/>
</linearGradient>
<mask id="mask5">
  <g filter="url(#alpha)">
<rect x="0" y="0" width="200" height="200" style="fill:rgb(0%,0%,0%);fill-opacity:0.301961;stroke:none;"/>
  </g>
</mask>
<linearGradient id="linear22" gradientUnits="userSpaceOnUse" x1="4327.1123" y1="2760.3491" x2="4040.0347" y2="2113.2083" gradientTransform="matrix(0.0538329,0.00287332,-0.00287332,0.0538329,-149.990156,-1.040458)">
<stop offset="0" style="stop-color:rgb(26.666667%,29.411765%,54.901961%);stop-opacity:1;"/>
<stop offset="0.9964" style="stop-color:rgb(24.313725%,25.490196%,46.666667%);stop-opacity:1;"/>
</linearGradient>
<clipPath id="clip28">
  <rect x="0" y="0" width="200" height="200"/>
</clipPath>
<g id="surface20" clip-path="url(#clip28)">
<path style=" stroke:none;fill-rule:nonzero;fill:url(#linear22);" d="M 69.753906 151.40625 C 68.753906 147.453125 66.832031 146.410156 66.765625 142.679688 C 66.714844 140.042969 67.664062 139.828125 67.601562 137.300781 C 67.503906 133.472656 65.261719 131.464844 64.136719 129.054688 C 62.945312 126.511719 62.488281 122.425781 65.695312 115.628906 C 63.28125 116.003906 60.867188 116.375 58.453125 116.75 C 59.050781 124.925781 60.648438 131.105469 62.054688 135.332031 C 63.621094 140.035156 65.210938 143.121094 65.769531 148.878906 C 66.121094 152.496094 65.757812 153.980469 66.457031 156.941406 C 67.585938 161.714844 70.265625 165.195312 72.417969 167.429688 C 72.648438 167.378906 72.878906 167.332031 73.109375 167.28125 C 70.78125 164.503906 69.960938 162.023438 69.753906 160.007812 C 69.414062 156.734375 70.757812 155.386719 69.753906 151.40625 Z M 69.753906 151.40625 "/>
</g>
<linearGradient id="linear23" gradientUnits="userSpaceOnUse" x1="3770.7195" y1="3162.6238" x2="3483.6348" y2="2515.4663" gradientTransform="matrix(0.053779,-0.00374124,0.00374124,0.053779,-145.856113,5.012744)">
<stop offset="0" style="stop-color:rgb(26.666667%,29.411765%,54.901961%);stop-opacity:1;"/>
<stop offset="0.9964" style="stop-color:rgb(24.313725%,25.490196%,46.666667%);stop-opacity:1;"/>
</linearGradient>
<linearGradient id="linear24" gradientUnits="userSpaceOnUse" x1="580.6261" y1="622.1895" x2="1002.6176" y2="2591.4756" gradientTransform="matrix(-0.0539084,0,0,0.0539084,101.799272,0)">
<stop offset="0" style="stop-color:rgb(26.666667%,29.411765%,54.901961%);stop-opacity:1;"/>
<stop offset="0.9964" style="stop-color:rgb(24.313725%,25.490196%,46.666667%);stop-opacity:1;"/>
</linearGradient>
<mask id="mask6">
  <g filter="url(#alpha)">
<rect x="0" y="0" width="200" height="200" style="fill:rgb(0%,0%,0%);fill-opacity:0.301961;stroke:none;"/>
  </g>
</mask>
<linearGradient id="linear25" gradientUnits="userSpaceOnUse" x1="3515.1855" y1="2275.3054" x2="3954.1328" y2="1261.0696" gradientTransform="matrix(0.0539084,0,0,0.0539084,-137.182615,0)">
<stop offset="0" style="stop-color:rgb(26.666667%,29.411765%,54.901961%);stop-opacity:1;"/>
<stop offset="0.9964" style="stop-color:rgb(24.313725%,25.490196%,46.666667%);stop-opacity:1;"/>
</linearGradient>
<clipPath id="clip29">
  <rect x="0" y="0" width="200" height="200"/>
</clipPath>
<g id="surface23" clip-path="url(#clip29)">
<path style=" stroke:none;fill-rule:nonzero;fill:url(#linear25);" d="M 68.199219 123.199219 C 64.851562 121.773438 64.871094 118.816406 61.746094 117.582031 C 57.285156 115.824219 52.355469 119.914062 51.585938 118.777344 C 50.785156 117.597656 56.671875 113.980469 55.890625 110.414062 C 55.265625 107.578125 51.15625 108.078125 48.957031 104.199219 C 46.871094 100.515625 48.894531 97.113281 47.046875 95.832031 C 46.382812 95.375 45.214844 95.191406 42.996094 96.167969 C 44.542969 100.996094 45.652344 105.253906 45.730469 110.53125 C 45.753906 111.9375 45.738281 115.867188 45.96875 121.648438 C 46.121094 125.394531 46.277344 127.542969 47.523438 128.101562 C 48.820312 128.683594 49.875 126.894531 53.019531 125.828125 C 55.332031 125.046875 57.660156 125.257812 62.222656 125.710938 C 69.027344 126.382812 69.511719 127.347656 70.84375 126.550781 C 71.710938 126.03125 72.125 125.25 72.402344 123.75 C 71.035156 123.898438 69.589844 123.792969 68.199219 123.199219 Z M 68.199219 123.199219 "/>
</g>
<linearGradient id="linear26" gradientUnits="userSpaceOnUse" x1="3852.2681" y1="70.933" x2="3863.5676" y2="-230.0554" gradientTransform="matrix(0.0482156,0.0241024,-0.0241024,0.0482156,-127.962841,-9.865019)">
<stop offset="0" style="stop-color:rgb(100%,76.862745%,26.666667%);stop-opacity:1;"/>
<stop offset="0.9964" style="stop-color:rgb(95.294118%,43.529412%,33.72549%);stop-opacity:1;"/>
</linearGradient>
<linearGradient id="linear27" gradientUnits="userSpaceOnUse" x1="3138.9563" y1="1181.5118" x2="3252.0542" y2="1181.5118" gradientTransform="matrix(-0.0528841,0.0104528,0.0104528,0.0528841,216.831978,-21.218512)">
<stop offset="0" style="stop-color:rgb(26.666667%,29.411765%,54.901961%);stop-opacity:1;"/>
<stop offset="0.9964" style="stop-color:rgb(24.313725%,25.490196%,46.666667%);stop-opacity:1;"/>
</linearGradient>
<linearGradient id="linear28" gradientUnits="userSpaceOnUse" x1="2539.4861" y1="984.5048" x2="2535.9629" y2="1268.3658" gradientTransform="matrix(0.0527601,-0.0110674,0.0110674,0.0527601,-84.563935,50.903466)">
<stop offset="0" style="stop-color:rgb(100%,76.862745%,26.666667%);stop-opacity:1;"/>
<stop offset="0.9964" style="stop-color:rgb(95.294118%,43.529412%,33.72549%);stop-opacity:1;"/>
</linearGradient>
<linearGradient id="linear29" gradientUnits="userSpaceOnUse" x1="3144.7012" y1="1219.0643" x2="3240.197" y2="1219.0643" gradientTransform="matrix(-0.0528841,0.0104528,0.0104528,0.0528841,216.831978,-21.218512)">
<stop offset="0" style="stop-color:rgb(26.666667%,29.411765%,54.901961%);stop-opacity:1;"/>
<stop offset="0.9964" style="stop-color:rgb(24.313725%,25.490196%,46.666667%);stop-opacity:1;"/>
</linearGradient>
<linearGradient id="linear30" gradientUnits="userSpaceOnUse" x1="-1119.3743" y1="909.9011" x2="-1115.3859" y2="945.457" gradientTransform="matrix(-0.0533423,0.00781671,0.00781671,0.0533423,-4.585795,36.434453)">
<stop offset="0" style="stop-color:rgb(100%,76.862745%,26.666667%);stop-opacity:1;"/>
<stop offset="1" style="stop-color:rgb(95.294118%,43.529412%,33.72549%);stop-opacity:1;"/>
</linearGradient>
<linearGradient id="linear31" gradientUnits="userSpaceOnUse" x1="2337.9109" y1="1558.5017" x2="2399.3743" y2="1558.5017" gradientTransform="matrix(-0.0539084,0,0,0.0539084,187.659434,0)">
<stop offset="0" style="stop-color:rgb(100%,56.470588%,52.156863%);stop-opacity:1;"/>
<stop offset="1" style="stop-color:rgb(98.431373%,43.529412%,73.333333%);stop-opacity:1;"/>
</linearGradient>
<linearGradient id="linear32" gradientUnits="userSpaceOnUse" x1="2331.9844" y1="1532.8171" x2="2337.2617" y2="1784.3828" gradientTransform="matrix(-0.0539084,0,0,0.0539084,187.659434,0)">
<stop offset="0" style="stop-color:rgb(100%,56.470588%,52.156863%);stop-opacity:1;"/>
<stop offset="1" style="stop-color:rgb(98.431373%,43.529412%,73.333333%);stop-opacity:1;"/>
</linearGradient>
<mask id="mask7">
  <g filter="url(#alpha)">
<rect x="0" y="0" width="200" height="200" style="fill:rgb(0%,0%,0%);fill-opacity:0.301961;stroke:none;"/>
  </g>
</mask>
<linearGradient id="linear33" gradientUnits="userSpaceOnUse" x1="2290.2444" y1="1716.6162" x2="2365.5166" y2="1716.6162" gradientTransform="matrix(-0.0539084,0,0,0.0539084,187.659434,0)">
<stop offset="0" style="stop-color:rgb(100%,56.470588%,52.156863%);stop-opacity:1;"/>
<stop offset="1" style="stop-color:rgb(98.431373%,43.529412%,73.333333%);stop-opacity:1;"/>
</linearGradient>
<clipPath id="clip30">
  <rect x="0" y="0" width="200" height="200"/>
</clipPath>
<g id="surface26" clip-path="url(#clip30)">
<path style=" stroke:none;fill-rule:nonzero;fill:url(#linear33);" d="M 60.136719 95.265625 C 60.886719 96.683594 61.757812 98.1875 62.625 99.769531 C 63.261719 98.3125 63.769531 96.882812 64.195312 95.5 L 61.335938 85.308594 C 61.058594 85.371094 60.40625 85.667969 60.488281 87.054688 C 60.59375 88.847656 62.5 92.003906 61.421875 93.269531 C 60.996094 93.765625 60.515625 94.503906 60.136719 95.265625 Z M 60.136719 95.265625 "/>
</g>
<linearGradient id="linear34" gradientUnits="userSpaceOnUse" x1="901.6102" y1="528.4961" x2="1329.6633" y2="2526.0701" gradientTransform="matrix(-0.0539084,0,0,0.0539084,101.799272,0)">
<stop offset="0" style="stop-color:rgb(26.666667%,29.411765%,54.901961%);stop-opacity:1;"/>
<stop offset="0.9964" style="stop-color:rgb(24.313725%,25.490196%,46.666667%);stop-opacity:1;"/>
</linearGradient>
<linearGradient id="linear35" gradientUnits="userSpaceOnUse" x1="1026.6838" y1="1974.6605" x2="2216.4167" y2="1974.6605" gradientTransform="matrix(-0.0528733,0.0105175,0.0105175,0.0528733,131.483833,-13.125132)">
<stop offset="0.1" style="stop-color:rgb(9.411765%,9.803922%,51.372549%);stop-opacity:1;"/>
<stop offset="0.3176" style="stop-color:rgb(8.627451%,12.156863%,52.941176%);stop-opacity:1;"/>
<stop offset="0.5954" style="stop-color:rgb(5.882353%,18.039216%,57.254902%);stop-opacity:1;"/>
<stop offset="0.9046" style="stop-color:rgb(1.568627%,28.235294%,63.921569%);stop-opacity:1;"/>
<stop offset="1" style="stop-color:rgb(0%,32.156863%,66.666667%);stop-opacity:1;"/>
</linearGradient>
<linearGradient id="linear36" gradientUnits="userSpaceOnUse" x1="-70.5755" y1="1599.1432" x2="1157.0021" y2="1599.1432" gradientTransform="matrix(-0.0528733,0.0105175,0.0105175,0.0528733,131.483833,-13.125132)">
<stop offset="0.1" style="stop-color:rgb(9.411765%,9.803922%,51.372549%);stop-opacity:1;"/>
<stop offset="0.3176" style="stop-color:rgb(8.627451%,12.156863%,52.941176%);stop-opacity:1;"/>
<stop offset="0.5954" style="stop-color:rgb(5.882353%,18.039216%,57.254902%);stop-opacity:1;"/>
<stop offset="0.9046" style="stop-color:rgb(1.568627%,28.235294%,63.921569%);stop-opacity:1;"/>
<stop offset="1" style="stop-color:rgb(0%,32.156863%,66.666667%);stop-opacity:1;"/>
</linearGradient>
<mask id="mask8">
  <g filter="url(#alpha)">
<rect x="0" y="0" width="200" height="200" style="fill:rgb(0%,0%,0%);fill-opacity:0.301961;stroke:none;"/>
  </g>
</mask>
<linearGradient id="linear37" gradientUnits="userSpaceOnUse" x1="93.4685" y1="2007.5719" x2="1207.7609" y2="2007.5719" gradientTransform="matrix(-0.0539084,0,0,0.0539084,101.799272,0)">
<stop offset="0" style="stop-color:rgb(53.72549%,22.352941%,46.27451%);stop-opacity:1;"/>
<stop offset="1" style="stop-color:rgb(19.215686%,9.803922%,26.666667%);stop-opacity:1;"/>
</linearGradient>
<clipPath id="clip31">
  <rect x="0" y="0" width="200" height="200"/>
</clipPath>
<g id="surface29" clip-path="url(#clip31)">
<path style=" stroke:none;fill-rule:nonzero;fill:url(#linear37);" d="M 93.746094 90.261719 L 86.660156 94.054688 C 86.621094 96.5625 85.890625 98.140625 85.046875 99.183594 C 81.867188 103.097656 76.097656 100.664062 69.738281 105.777344 C 66.546875 108.34375 67.457031 109.390625 64.378906 111.351562 C 59.289062 114.589844 56.175781 112.125 51.679688 115.046875 C 47.132812 118 47.496094 122.359375 44.664062 122.765625 C 43.453125 122.9375 41.738281 122.371094 39.359375 119.410156 L 38.199219 120.03125 C 36.78125 120.792969 36.273438 122.519531 37.0625 123.886719 L 37.558594 124.742188 C 38.347656 126.105469 40.125 126.589844 41.535156 125.828125 L 96.761719 96.007812 Z M 93.746094 90.261719 "/>
</g>
<linearGradient id="linear38" gradientUnits="userSpaceOnUse" x1="-5868.1265" y1="2791.3618" x2="-6486.2432" y2="2099.2827" gradientTransform="matrix(0.0512022,0.0168679,-0.0168679,0.0512022,483.14469,67.935838)">
<stop offset="0.1" style="stop-color:rgb(9.411765%,9.803922%,51.372549%);stop-opacity:1;"/>
<stop offset="0.3176" style="stop-color:rgb(8.627451%,12.156863%,52.941176%);stop-opacity:1;"/>
<stop offset="0.5954" style="stop-color:rgb(5.882353%,18.039216%,57.254902%);stop-opacity:1;"/>
<stop offset="0.9046" style="stop-color:rgb(1.568627%,28.235294%,63.921569%);stop-opacity:1;"/>
<stop offset="1" style="stop-color:rgb(0%,32.156863%,66.666667%);stop-opacity:1;"/>
</linearGradient>
<linearGradient id="linear39" gradientUnits="userSpaceOnUse" x1="-6776.7632" y1="1780.8867" x2="-5938.4443" y2="2703.7422" gradientTransform="matrix(0.0512022,0.0168679,-0.0168679,0.0512022,483.14469,67.935838)">
<stop offset="0.1" style="stop-color:rgb(9.411765%,9.803922%,51.372549%);stop-opacity:1;"/>
<stop offset="0.3176" style="stop-color:rgb(8.627451%,12.156863%,52.941176%);stop-opacity:1;"/>
<stop offset="0.5954" style="stop-color:rgb(5.882353%,18.039216%,57.254902%);stop-opacity:1;"/>
<stop offset="0.9046" style="stop-color:rgb(1.568627%,28.235294%,63.921569%);stop-opacity:1;"/>
<stop offset="1" style="stop-color:rgb(0%,32.156863%,66.666667%);stop-opacity:1;"/>
</linearGradient>
<linearGradient id="linear40" gradientUnits="userSpaceOnUse" x1="-3883.2861" y1="1482.629" x2="-3863.8071" y2="1372.3698" gradientTransform="matrix(0.0461078,-0.0279353,0.0279353,0.0461078,181.567121,-54.122588)">
<stop offset="0" style="stop-color:rgb(100%,76.862745%,26.666667%);stop-opacity:1;"/>
<stop offset="0.9964" style="stop-color:rgb(95.294118%,43.529412%,33.72549%);stop-opacity:1;"/>
</linearGradient>
<linearGradient id="linear41" gradientUnits="userSpaceOnUse" x1="-1092.1265" y1="-3587.8589" x2="-1023.8942" y2="-3425.2229" gradientTransform="matrix(-0.0181941,0.0507439,-0.0507439,-0.0181941,-110.654086,90.077305)">
<stop offset="0" style="stop-color:rgb(100%,76.862745%,26.666667%);stop-opacity:1;"/>
<stop offset="0.9964" style="stop-color:rgb(95.294118%,43.529412%,33.72549%);stop-opacity:1;"/>
</linearGradient>
<linearGradient id="linear42" gradientUnits="userSpaceOnUse" x1="1955.4916" y1="2808.8867" x2="1971.7806" y2="2566.3638" gradientTransform="matrix(0.0539084,0,0,0.0539084,0,0)">
<stop offset="0" style="stop-color:rgb(26.666667%,29.411765%,54.901961%);stop-opacity:1;"/>
<stop offset="0.9964" style="stop-color:rgb(14.901961%,14.901961%,30.980392%);stop-opacity:1;"/>
</linearGradient>
<linearGradient id="linear43" gradientUnits="userSpaceOnUse" x1="1873.9425" y1="2723.7144" x2="1885.3058" y2="2554.5298" gradientTransform="matrix(0.0539084,0,0,0.0539084,0,0)">
<stop offset="0.1" style="stop-color:rgb(9.411765%,9.803922%,51.372549%);stop-opacity:1;"/>
<stop offset="0.3176" style="stop-color:rgb(8.627451%,12.156863%,52.941176%);stop-opacity:1;"/>
<stop offset="0.5954" style="stop-color:rgb(5.882353%,18.039216%,57.254902%);stop-opacity:1;"/>
<stop offset="0.9046" style="stop-color:rgb(1.568627%,28.235294%,63.921569%);stop-opacity:1;"/>
<stop offset="1" style="stop-color:rgb(0%,32.156863%,66.666667%);stop-opacity:1;"/>
</linearGradient>
<linearGradient id="linear44" gradientUnits="userSpaceOnUse" x1="1815.4594" y1="2602.5159" x2="1941.1238" y2="2669.8884" gradientTransform="matrix(0.0539084,0,0,0.0539084,0,0)">
<stop offset="0.1" style="stop-color:rgb(19.215686%,9.803922%,26.666667%);stop-opacity:1;"/>
<stop offset="0.267" style="stop-color:rgb(21.568627%,10.588235%,27.843137%);stop-opacity:1;"/>
<stop offset="0.4803" style="stop-color:rgb(27.45098%,12.941176%,31.372549%);stop-opacity:1;"/>
<stop offset="0.7186" style="stop-color:rgb(38.039216%,16.470588%,37.254902%);stop-opacity:1;"/>
<stop offset="0.9736" style="stop-color:rgb(52.156863%,21.568627%,45.490196%);stop-opacity:1;"/>
<stop offset="1" style="stop-color:rgb(53.72549%,22.352941%,46.27451%);stop-opacity:1;"/>
</linearGradient>
<linearGradient id="linear45" gradientUnits="userSpaceOnUse" x1="1779.9092" y1="2837.5342" x2="1798.3783" y2="2562.5542" gradientTransform="matrix(0.0539084,0,0,0.0539084,0,0)">
<stop offset="0" style="stop-color:rgb(26.666667%,29.411765%,54.901961%);stop-opacity:1;"/>
<stop offset="0.9964" style="stop-color:rgb(14.901961%,14.901961%,30.980392%);stop-opacity:1;"/>
</linearGradient>
<linearGradient id="linear46" gradientUnits="userSpaceOnUse" x1="1647.605" y1="2814.2664" x2="1576.376" y2="2163.165" gradientTransform="matrix(0.0539084,0,0,0.0539084,0,0)">
<stop offset="0.1" style="stop-color:rgb(19.215686%,9.803922%,26.666667%);stop-opacity:1;"/>
<stop offset="0.6853" style="stop-color:rgb(42.745098%,18.431373%,40%);stop-opacity:1;"/>
<stop offset="1" style="stop-color:rgb(53.72549%,22.352941%,46.27451%);stop-opacity:1;"/>
</linearGradient>
<linearGradient id="linear47" gradientUnits="userSpaceOnUse" x1="1956.1104" y1="3087.5454" x2="1485.4382" y2="2825.4661" gradientTransform="matrix(0.0539084,0,0,0.0539084,0,0)">
<stop offset="0.1" style="stop-color:rgb(9.411765%,9.803922%,51.372549%);stop-opacity:1;"/>
<stop offset="0.3176" style="stop-color:rgb(8.627451%,12.156863%,52.941176%);stop-opacity:1;"/>
<stop offset="0.5954" style="stop-color:rgb(5.882353%,18.039216%,57.254902%);stop-opacity:1;"/>
<stop offset="0.9046" style="stop-color:rgb(1.568627%,28.235294%,63.921569%);stop-opacity:1;"/>
<stop offset="1" style="stop-color:rgb(0%,32.156863%,66.666667%);stop-opacity:1;"/>
</linearGradient>
<mask id="mask9">
  <g filter="url(#alpha)">
<rect x="0" y="0" width="200" height="200" style="fill:rgb(0%,0%,0%);fill-opacity:0.301961;stroke:none;"/>
  </g>
</mask>
<linearGradient id="linear48" gradientUnits="userSpaceOnUse" x1="1531.1426" y1="2720.6807" x2="1674.2556" y2="2960.6704" gradientTransform="matrix(0.0539084,0,0,0.0539084,0,0)">
<stop offset="0" style="stop-color:rgb(0%,0.392157%,58.039216%);stop-opacity:1;"/>
<stop offset="1" style="stop-color:rgb(8.235294%,44.705882%,100%);stop-opacity:1;"/>
</linearGradient>
<clipPath id="clip32">
  <rect x="0" y="0" width="200" height="200"/>
</clipPath>
<g id="surface32" clip-path="url(#clip32)">
<path style=" stroke:none;fill-rule:nonzero;fill:url(#linear48);" d="M 93.101562 159.386719 L 88.324219 144.007812 L 86.972656 144.4375 C 87.304688 145.792969 87.464844 148.003906 87.539062 149.234375 C 87.859375 154.46875 88.921875 155.925781 88.40625 159.578125 C 87.980469 162.617188 87.042969 163.027344 87.125 165.070312 C 87.214844 167.296875 88.417969 169.160156 89.851562 170.625 L 90.203125 170.855469 Z M 93.101562 159.386719 "/>
</g>
<linearGradient id="linear49" gradientUnits="userSpaceOnUse" x1="1884.7196" y1="2432.8689" x2="1937.1879" y2="3137.0515" gradientTransform="matrix(0.0539084,0,0,0.0539084,0,0)">
<stop offset="0.1" style="stop-color:rgb(9.411765%,9.803922%,51.372549%);stop-opacity:1;"/>
<stop offset="0.3176" style="stop-color:rgb(8.627451%,12.156863%,52.941176%);stop-opacity:1;"/>
<stop offset="0.5954" style="stop-color:rgb(5.882353%,18.039216%,57.254902%);stop-opacity:1;"/>
<stop offset="0.9046" style="stop-color:rgb(1.568627%,28.235294%,63.921569%);stop-opacity:1;"/>
<stop offset="1" style="stop-color:rgb(0%,32.156863%,66.666667%);stop-opacity:1;"/>
</linearGradient>
<mask id="mask10">
  <g filter="url(#alpha)">
<rect x="0" y="0" width="200" height="200" style="fill:rgb(0%,0%,0%);fill-opacity:0.2;stroke:none;"/>
  </g>
</mask>
<linearGradient id="linear50" gradientUnits="userSpaceOnUse" x1="1796.7311" y1="2832.478" x2="2177.6724" y2="3125.9907" gradientTransform="matrix(0.0539084,0,0,0.0539084,0,0)">
<stop offset="0" style="stop-color:rgb(19.215686%,9.803922%,26.666667%);stop-opacity:1;"/>
<stop offset="1" style="stop-color:rgb(53.72549%,22.352941%,46.27451%);stop-opacity:1;"/>
</linearGradient>
<clipPath id="clip33">
  <rect x="0" y="0" width="200" height="200"/>
</clipPath>
<g id="surface35" clip-path="url(#clip33)">
<path style=" stroke:none;fill-rule:nonzero;fill:url(#linear50);" d="M 114.597656 144.007812 L 105.746094 144.007812 C 105.582031 144.507812 105.335938 145.199219 104.972656 145.980469 C 101.011719 154.488281 91.953125 155.558594 92.117188 156.957031 C 92.359375 159.046875 112.539062 156.082031 113.050781 158.953125 C 113.300781 160.339844 109.039062 163.492188 104.589844 164.683594 C 99.257812 166.113281 95.339844 164.3125 92.734375 167.523438 C 91.851562 168.609375 91.464844 169.882812 91.273438 170.746094 L 118.734375 168.382812 Z M 114.597656 144.007812 "/>
</g>
<linearGradient id="linear51" gradientUnits="userSpaceOnUse" x1="1702.1986" y1="2790.1929" x2="1858.2352" y2="2784.1333" gradientTransform="matrix(0.0539084,0,0,0.0539084,0,0)">
<stop offset="0.1" style="stop-color:rgb(19.215686%,9.803922%,26.666667%);stop-opacity:1;"/>
<stop offset="0.6853" style="stop-color:rgb(42.745098%,18.431373%,40%);stop-opacity:1;"/>
<stop offset="1" style="stop-color:rgb(53.72549%,22.352941%,46.27451%);stop-opacity:1;"/>
</linearGradient>
<linearGradient id="linear52" gradientUnits="userSpaceOnUse" x1="1947.1981" y1="3336.8425" x2="1890.7057" y2="2701.981" gradientTransform="matrix(0.0539084,0,0,0.0539084,0,0)">
<stop offset="0.1" style="stop-color:rgb(9.411765%,9.803922%,51.372549%);stop-opacity:1;"/>
<stop offset="0.3176" style="stop-color:rgb(8.627451%,12.156863%,52.941176%);stop-opacity:1;"/>
<stop offset="0.5954" style="stop-color:rgb(5.882353%,18.039216%,57.254902%);stop-opacity:1;"/>
<stop offset="0.9046" style="stop-color:rgb(1.568627%,28.235294%,63.921569%);stop-opacity:1;"/>
<stop offset="1" style="stop-color:rgb(0%,32.156863%,66.666667%);stop-opacity:1;"/>
</linearGradient>
<mask id="mask11">
  <g filter="url(#alpha)">
<rect x="0" y="0" width="200" height="200" style="fill:rgb(0%,0%,0%);fill-opacity:0.101961;stroke:none;"/>
  </g>
</mask>
<linearGradient id="linear53" gradientUnits="userSpaceOnUse" x1="1974.6331" y1="3483.1096" x2="1878.9551" y2="2608.5217" gradientTransform="matrix(0.0539084,0,0,0.0539084,0,0)">
<stop offset="0" style="stop-color:rgb(19.215686%,9.803922%,26.666667%);stop-opacity:1;"/>
<stop offset="1" style="stop-color:rgb(53.72549%,22.352941%,46.27451%);stop-opacity:1;"/>
</linearGradient>
<clipPath id="clip34">
  <rect x="0" y="0" width="200" height="200"/>
</clipPath>
<g id="surface38" clip-path="url(#clip34)">
<path style=" stroke:none;fill-rule:nonzero;fill:url(#linear53);" d="M 116.910156 155.8125 L 115.394531 144.308594 C 115.292969 143.691406 114.84375 143.25 114.320312 143.25 L 89.03125 143.25 C 88.734375 143.25 88.386719 143.207031 87.992188 143.320312 C 87.886719 143.351562 87.71875 143.40625 87.644531 143.476562 C 87.644531 143.476562 88.476562 143.261719 88.789062 144.007812 C 88.820312 144.078125 88.847656 144.167969 88.871094 144.261719 C 91.273438 144.363281 93.675781 144.289062 96.078125 144.457031 C 100.824219 144.78125 105.625 144.78125 110.105469 146.839844 C 111.539062 147.5 112.523438 149.867188 112.132812 150.960938 C 111.855469 151.75 110.898438 151.6875 110.5625 152.722656 C 110.210938 153.808594 111.054688 154.550781 110.699219 155.3125 C 110.332031 156.113281 109.207031 155.734375 107.386719 156.304688 C 106.382812 156.621094 105.613281 157.082031 105.132812 157.414062 L 115.996094 157.164062 C 116.183594 157.160156 116.367188 157.097656 116.519531 156.96875 C 116.839844 156.707031 116.984375 156.246094 116.910156 155.8125 Z M 116.910156 155.8125 "/>
</g>
<linearGradient id="linear54" gradientUnits="userSpaceOnUse" x1="2100.7217" y1="3020.7737" x2="1817.3539" y2="2872.6497" gradientTransform="matrix(0.0539084,0,0,0.0539084,0,0)">
<stop offset="0" style="stop-color:rgb(100%,76.862745%,26.666667%);stop-opacity:1;"/>
<stop offset="0.9964" style="stop-color:rgb(95.294118%,43.529412%,33.72549%);stop-opacity:1;"/>
</linearGradient>
<linearGradient id="linear55" gradientUnits="userSpaceOnUse" x1="1846.9836" y1="2895.4397" x2="2135.0615" y2="2998.5264" gradientTransform="matrix(0.0539084,0,0,0.0539084,0,0)">
<stop offset="0" style="stop-color:rgb(100%,76.862745%,26.666667%);stop-opacity:1;"/>
<stop offset="0.9964" style="stop-color:rgb(95.294118%,43.529412%,33.72549%);stop-opacity:1;"/>
</linearGradient>
</defs>
<g id="surface1">
<path style=" stroke:none;fill-rule:nonzero;fill:rgb(95.686275%,96.862745%,98.039216%);fill-opacity:1;" d="M 127.300781 27.746094 C 115.894531 25.203125 104.035156 23.984375 92.4375 24.761719 C 82.160156 25.449219 70.511719 27.332031 62.238281 34.066406 C 58.296875 37.277344 53.597656 43.046875 52.308594 48.136719 C 52.308594 48.136719 45.523438 74.925781 31.949219 80.667969 C 18.378906 86.410156 8.953125 184.382812 111.875 174.816406 C 111.875 174.816406 172.328125 172.308594 175.964844 100.089844 C 176.847656 82.644531 176.355469 63.46875 165.820312 48.882812 C 157.75 37.703125 146.441406 32.734375 133.445312 29.253906 C 131.414062 28.710938 129.363281 28.207031 127.300781 27.746094 Z M 127.300781 27.746094 "/>
<path style=" stroke:none;fill-rule:nonzero;fill:url(#linear0);" d="M 172.539062 94.332031 C 171.828125 92.992188 170.390625 91.828125 169.046875 91.15625 C 159.523438 86.402344 149.605469 106.320312 149.214844 111.523438 C 148.820312 116.730469 147.222656 117.832031 138.503906 117.035156 C 129.785156 116.234375 131.582031 122.386719 131.40625 125.476562 C 131.230469 128.566406 132.152344 131.617188 125.40625 131.96875 C 118.664062 132.324219 119.933594 134.792969 119.933594 134.792969 C 119.933594 134.792969 125.925781 149.71875 126.761719 146.078125 C 127.59375 142.441406 130.757812 137.734375 140.234375 141.195312 C 144.316406 142.6875 151.253906 143.316406 154.390625 139.582031 C 155.121094 138.714844 155.972656 137.277344 156.160156 136.144531 C 156.421875 134.566406 155.945312 133.046875 155.984375 131.476562 C 156.066406 127.824219 160.082031 126.78125 162.710938 125.40625 C 164.085938 124.6875 165.472656 123.9375 166.695312 122.976562 C 169.230469 120.980469 169.839844 117.960938 169.242188 114.90625 C 168.953125 113.4375 168.398438 111.78125 168.632812 110.269531 C 168.882812 108.648438 170.027344 106.761719 170.742188 105.28125 C 171.300781 104.121094 171.902344 102.984375 172.328125 101.765625 C 173.121094 99.496094 173.726562 96.570312 172.539062 94.332031 Z M 172.539062 94.332031 "/>
<g clip-path="url(#clip1)" clip-rule="nonzero">
<g clip-path="url(#clip2)" clip-rule="nonzero">
<use xlink:href="#surface5" mask="url(#mask0)"/>
</g>
</g>
<path style=" stroke:none;fill-rule:nonzero;fill:url(#linear1);" d="M 156.574219 62.761719 C 155.050781 61.40625 152.695312 60.613281 150.6875 60.398438 C 136.445312 58.878906 133.292969 88.644531 135.246094 95.390625 C 137.195312 102.140625 135.699219 104.277344 124.328125 107.367188 C 112.960938 110.453125 118.113281 117.363281 119.34375 121.34375 C 120.574219 125.320312 123.171875 128.734375 114.832031 132.347656 C 106.496094 135.957031 109.257812 138.476562 109.257812 138.476562 C 109.257812 138.476562 123.824219 154.480469 123.164062 149.5 C 122.507812 144.519531 124.285156 137.097656 137.859375 137.015625 C 143.707031 136.980469 152.746094 134.515625 154.949219 128.335938 C 155.460938 126.894531 155.859375 124.683594 155.5625 123.164062 C 155.152344 121.058594 153.839844 119.363281 153.148438 117.367188 C 151.539062 112.722656 156.109375 109.523438 158.78125 106.550781 C 160.175781 105 161.570312 103.40625 162.660156 101.621094 C 164.921875 97.910156 164.269531 93.820312 162.078125 90.25 C 161.03125 88.535156 159.550781 86.703125 159.136719 84.691406 C 158.691406 82.527344 159.25 79.613281 159.453125 77.414062 C 159.613281 75.6875 159.839844 73.96875 159.804688 72.230469 C 159.738281 69 159.125 65.03125 156.574219 62.761719 Z M 156.574219 62.761719 "/>
<g clip-path="url(#clip4)" clip-rule="nonzero">
<g clip-path="url(#clip5)" clip-rule="nonzero">
<use xlink:href="#surface8" mask="url(#mask1)"/>
</g>
</g>
<path style=" stroke:none;fill-rule:nonzero;fill:rgb(66.666667%,73.333333%,80%);fill-opacity:1;" d="M 175.429688 146.777344 L 42.144531 145.605469 L 42.144531 149.070312 C 42.144531 150.011719 42.726562 150.8125 43.511719 150.953125 L 81.203125 157.78125 C 81.648438 157.859375 82.101562 157.882812 82.554688 157.84375 L 173.980469 150.0625 C 174.796875 149.992188 175.429688 149.1875 175.429688 148.222656 Z M 175.429688 146.777344 "/>
<path style=" stroke:none;fill-rule:nonzero;fill:rgb(66.666667%,73.333333%,80%);fill-opacity:1;" d="M 127.0625 141.15625 L 43.523438 147.496094 C 42.027344 147.609375 40.8125 146.40625 40.8125 144.804688 L 40.8125 80.65625 C 40.8125 79.054688 42.027344 77.757812 43.523438 77.757812 L 127.0625 77.757812 C 128.292969 77.757812 129.289062 78.933594 129.289062 80.378906 L 129.289062 138.367188 C 129.289062 139.8125 128.292969 141.0625 127.0625 141.15625 Z M 127.0625 141.15625 "/>
<path style=" stroke:none;fill-rule:nonzero;fill:rgb(100%,100%,100%);fill-opacity:1;" d="M 128.394531 141.15625 L 44.855469 147.496094 C 43.359375 147.609375 42.144531 146.40625 42.144531 144.804688 L 42.144531 80.65625 C 42.144531 79.054688 43.359375 77.757812 44.855469 77.757812 L 128.394531 77.757812 C 129.625 77.757812 130.621094 78.933594 130.621094 80.378906 L 130.621094 138.367188 C 130.621094 139.8125 129.625 141.0625 128.394531 141.15625 Z M 128.394531 141.15625 "/>
<path style=" stroke:none;fill-rule:nonzero;fill:rgb(74.901961%,78.431373%,83.921569%);fill-opacity:1;" d="M 125.789062 137.070312 L 47.984375 142.578125 C 46.765625 142.664062 45.777344 141.671875 45.777344 140.367188 L 45.777344 84.203125 C 45.777344 82.898438 46.765625 81.832031 47.984375 81.828125 L 125.789062 81.484375 C 126.808594 81.476562 127.628906 82.441406 127.628906 83.628906 L 127.628906 134.78125 C 127.628906 135.972656 126.808594 136.996094 125.789062 137.070312 Z M 125.789062 137.070312 "/>
<path style=" stroke:none;fill-rule:nonzero;fill:rgb(100%,100%,100%);fill-opacity:1;" d="M 89.574219 79.511719 C 89.574219 80.109375 89.144531 80.59375 88.613281 80.59375 C 88.082031 80.597656 87.648438 80.113281 87.648438 79.515625 C 87.648438 78.917969 88.082031 78.433594 88.613281 78.433594 C 89.144531 78.433594 89.574219 78.917969 89.574219 79.511719 Z M 89.574219 79.511719 "/>
<use xlink:href="#surface11" mask="url(#mask2)"/>
<path style=" stroke:none;fill-rule:nonzero;fill:url(#linear2);" d="M 131.722656 140.867188 L 42.144531 147.542969 L 81.203125 154.617188 C 81.648438 154.699219 82.101562 154.71875 82.554688 154.679688 L 175.429688 146.777344 L 133.148438 140.914062 C 132.675781 140.847656 132.199219 140.832031 131.722656 140.867188 Z M 131.722656 140.867188 "/>
<path style=" stroke:none;fill-rule:nonzero;fill:rgb(84.705882%,87.058824%,90.980392%);fill-opacity:1;" d="M 55.214844 147.710938 L 129.792969 142.070312 L 152.875 145.246094 L 78.9375 151.273438 Z M 55.214844 147.710938 "/>
<path style=" stroke:none;fill-rule:nonzero;fill:rgb(91.764706%,92.941176%,95.294118%);fill-opacity:1;" d="M 55.125 58.292969 L 55.125 142.203125 C 55.125 143.609375 56.378906 144.671875 57.863281 144.570312 L 120.78125 140.328125 C 122.113281 140.238281 123.300781 139.085938 123.300781 137.757812 L 123.300781 58.484375 Z M 55.125 58.292969 "/>
<path style=" stroke:none;fill-rule:nonzero;fill:rgb(84.705882%,87.058824%,90.980392%);fill-opacity:1;" d="M 120.800781 53.136719 L 57.90625 52.671875 C 56.421875 52.660156 55.125 53.792969 55.125 55.199219 L 55.125 58.292969 L 123.300781 58.484375 L 123.300781 55.5625 C 123.300781 54.234375 122.136719 53.144531 120.800781 53.136719 Z M 120.800781 53.136719 "/>
<path style=" stroke:none;fill-rule:nonzero;fill:url(#linear3);" d="M 56.621094 58.296875 L 56.621094 142.105469 C 56.621094 143.511719 57.867188 144.570312 59.347656 144.46875 L 121.917969 140.238281 C 123.25 140.148438 124.234375 139 124.234375 137.667969 L 124.234375 58.488281 Z M 56.621094 58.296875 "/>
<path style=" stroke:none;fill-rule:nonzero;fill:url(#linear4);" d="M 59.046875 58.304688 L 59.046875 140.199219 C 59.046875 141.019531 59.746094 141.636719 60.605469 141.578125 L 121.246094 137.628906 C 122.023438 137.578125 122.742188 136.910156 122.742188 136.132812 L 122.742188 58.484375 Z M 59.046875 58.304688 "/>
<path style=" stroke:none;fill-rule:nonzero;fill:rgb(84.705882%,87.058824%,90.980392%);fill-opacity:1;" d="M 118.957031 65.542969 L 63.078125 65.726562 C 62.609375 65.726562 62.222656 66.085938 62.222656 66.53125 L 62.222656 112.21875 C 62.222656 112.660156 62.597656 113.003906 63.0625 112.984375 L 118.957031 110.640625 C 119.382812 110.621094 119.753906 110.265625 119.753906 109.84375 L 119.753906 66.304688 C 119.753906 65.882812 119.378906 65.542969 118.957031 65.542969 Z M 118.957031 65.542969 "/>
<path style=" stroke:none;fill-rule:nonzero;fill:rgb(74.901961%,78.431373%,83.921569%);fill-opacity:1;" d="M 121.941406 53.144531 L 59.292969 52.679688 C 57.808594 52.667969 56.621094 53.800781 56.621094 55.207031 L 56.621094 58.296875 L 124.234375 58.488281 L 124.234375 55.566406 C 124.234375 54.238281 123.269531 53.15625 121.941406 53.144531 Z M 121.941406 53.144531 "/>
<path style=" stroke:none;fill-rule:nonzero;fill:rgb(84.705882%,87.058824%,90.980392%);fill-opacity:1;" d="M 87.625 125.492188 L 62.222656 126.847656 L 62.222656 122.839844 L 87.625 121.570312 Z M 87.625 125.492188 "/>
<path style=" stroke:none;fill-rule:nonzero;fill:rgb(84.705882%,87.058824%,90.980392%);fill-opacity:1;" d="M 106.863281 128.710938 L 62.222656 131.253906 L 62.222656 128.851562 L 106.863281 126.394531 Z M 106.863281 128.710938 "/>
<path style=" stroke:none;fill-rule:nonzero;fill:rgb(84.705882%,87.058824%,90.980392%);fill-opacity:1;" d="M 106.863281 132.765625 L 62.222656 135.460938 L 62.222656 133.058594 L 106.863281 130.449219 Z M 106.863281 132.765625 "/>
<path style=" stroke:none;fill-rule:nonzero;fill:rgb(100%,100%,100%);fill-opacity:1;" d="M 61.578125 55.480469 C 61.578125 56.144531 61.011719 56.679688 60.3125 56.675781 C 59.609375 56.675781 59.042969 56.132812 59.042969 55.46875 C 59.042969 54.800781 59.609375 54.265625 60.3125 54.269531 C 61.011719 54.273438 61.578125 54.816406 61.578125 55.480469 Z M 61.578125 55.480469 "/>
<path style=" stroke:none;fill-rule:nonzero;fill:rgb(100%,100%,100%);fill-opacity:1;" d="M 65.789062 55.5 C 65.789062 56.164062 65.222656 56.699219 64.527344 56.695312 C 63.832031 56.691406 63.265625 56.152344 63.265625 55.488281 C 63.265625 54.824219 63.832031 54.292969 64.527344 54.296875 C 65.222656 54.300781 65.789062 54.839844 65.789062 55.5 Z M 65.789062 55.5 "/>
<path style=" stroke:none;fill-rule:nonzero;fill:rgb(100%,100%,100%);fill-opacity:1;" d="M 69.964844 55.523438 C 69.964844 56.183594 69.40625 56.714844 68.714844 56.710938 C 68.023438 56.710938 67.464844 56.171875 67.464844 55.511719 C 67.464844 54.847656 68.023438 54.316406 68.714844 54.320312 C 69.40625 54.324219 69.964844 54.863281 69.964844 55.523438 Z M 69.964844 55.523438 "/>
<path style=" stroke:none;fill-rule:nonzero;fill:rgb(91.764706%,92.941176%,95.294118%);fill-opacity:1;" d="M 70.066406 51.167969 L 70.066406 134.054688 C 70.066406 135.449219 71.300781 136.503906 72.75 136.414062 L 134.050781 132.632812 C 135.351562 132.554688 136.375 131.421875 136.375 130.105469 L 136.375 51.746094 Z M 70.066406 51.167969 "/>
<path style=" stroke:none;fill-rule:nonzero;fill:rgb(84.705882%,87.058824%,90.980392%);fill-opacity:1;" d="M 134.074219 46.445312 L 72.71875 45.628906 C 71.269531 45.609375 70.066406 46.722656 70.066406 48.113281 L 70.066406 51.167969 L 136.375 51.746094 L 136.375 48.855469 C 136.375 47.542969 135.378906 46.460938 134.074219 46.445312 Z M 134.074219 46.445312 "/>
<path style=" stroke:none;fill-rule:nonzero;fill:rgb(100%,100%,100%);fill-opacity:1;" d="M 71.5625 51.179688 L 71.5625 133.96875 C 71.5625 135.359375 72.773438 136.414062 74.21875 136.324219 L 135.460938 132.554688 C 136.761719 132.472656 137.871094 131.34375 137.871094 130.027344 L 137.871094 51.757812 Z M 71.5625 51.179688 "/>
<path style=" stroke:none;fill-rule:nonzero;fill:url(#linear5);" d="M 73.992188 51.203125 L 73.992188 132.101562 C 73.992188 132.910156 74.632812 133.527344 75.476562 133.476562 L 134.519531 129.96875 C 135.28125 129.921875 135.816406 129.265625 135.816406 128.496094 L 135.816406 51.738281 Z M 73.992188 51.203125 "/>
<path style=" stroke:none;fill-rule:nonzero;fill:rgb(84.705882%,87.058824%,90.980392%);fill-opacity:1;" d="M 132.230469 58.699219 L 77.738281 58.554688 C 77.285156 58.554688 76.980469 58.90625 76.980469 59.34375 L 76.980469 104.480469 C 76.980469 104.917969 77.359375 105.257812 77.816406 105.242188 L 132.226562 103.273438 C 132.640625 103.261719 132.828125 102.910156 132.828125 102.492188 L 132.828125 59.457031 C 132.828125 59.039062 132.644531 58.699219 132.230469 58.699219 Z M 132.230469 58.699219 "/>
<path style=" stroke:none;fill-rule:nonzero;fill:rgb(74.901961%,78.431373%,83.921569%);fill-opacity:1;" d="M 135.480469 46.460938 L 74.238281 45.648438 C 72.792969 45.628906 71.5625 46.738281 71.5625 48.128906 L 71.5625 51.179688 L 137.871094 51.757812 L 137.871094 48.871094 C 137.871094 47.558594 136.78125 46.480469 135.480469 46.460938 Z M 135.480469 46.460938 "/>
<path style=" stroke:none;fill-rule:nonzero;fill:rgb(84.705882%,87.058824%,90.980392%);fill-opacity:1;" d="M 101.820312 117.757812 L 76.980469 118.929688 L 76.980469 114.972656 L 101.820312 113.878906 Z M 101.820312 117.757812 "/>
<path style=" stroke:none;fill-rule:nonzero;fill:rgb(84.705882%,87.058824%,90.980392%);fill-opacity:1;" d="M 120.6875 121.0625 L 76.980469 123.285156 L 76.980469 120.910156 L 120.6875 118.773438 Z M 120.6875 121.0625 "/>
<path style=" stroke:none;fill-rule:nonzero;fill:rgb(84.705882%,87.058824%,90.980392%);fill-opacity:1;" d="M 120.6875 125.070312 L 76.980469 127.445312 L 76.980469 125.066406 L 120.6875 122.777344 Z M 120.6875 125.070312 "/>
<path style=" stroke:none;fill-rule:nonzero;fill:rgb(100%,100%,100%);fill-opacity:1;" d="M 76.386719 48.425781 C 76.386719 49.082031 75.832031 49.609375 75.152344 49.601562 C 74.464844 49.59375 73.910156 49.054688 73.910156 48.398438 C 73.910156 47.742188 74.464844 47.214844 75.152344 47.222656 C 75.832031 47.230469 76.386719 47.769531 76.386719 48.425781 Z M 76.386719 48.425781 "/>
<path style=" stroke:none;fill-rule:nonzero;fill:rgb(100%,100%,100%);fill-opacity:1;" d="M 80.492188 48.472656 C 80.492188 49.125 79.945312 49.648438 79.265625 49.644531 C 78.585938 49.636719 78.035156 49.097656 78.035156 48.445312 C 78.035156 47.789062 78.585938 47.265625 79.265625 47.273438 C 79.945312 47.28125 80.492188 47.816406 80.492188 48.472656 Z M 80.492188 48.472656 "/>
<path style=" stroke:none;fill-rule:nonzero;fill:rgb(100%,100%,100%);fill-opacity:1;" d="M 84.574219 48.515625 C 84.574219 49.167969 84.027344 49.691406 83.351562 49.683594 C 82.675781 49.675781 82.128906 49.140625 82.128906 48.488281 C 82.128906 47.835938 82.679688 47.3125 83.351562 47.320312 C 84.027344 47.328125 84.574219 47.863281 84.574219 48.515625 Z M 84.574219 48.515625 "/>
<path style=" stroke:none;fill-rule:nonzero;fill:rgb(91.764706%,92.941176%,95.294118%);fill-opacity:1;" d="M 150.382812 43.316406 L 150.382812 120.714844 C 150.382812 122.011719 149.484375 123.121094 148.210938 123.1875 L 88.464844 126.421875 C 87.050781 126.5 85.945312 125.449219 85.945312 124.078125 L 85.945312 42.269531 Z M 150.382812 43.316406 "/>
<path style=" stroke:none;fill-rule:nonzero;fill:rgb(84.705882%,87.058824%,90.980392%);fill-opacity:1;" d="M 150.382812 40.464844 L 150.382812 43.316406 L 85.945312 42.269531 L 85.945312 39.253906 C 85.945312 37.878906 87.078125 36.789062 88.492188 36.820312 L 148.222656 38.066406 C 149.496094 38.09375 150.382812 39.164062 150.382812 40.464844 Z M 150.382812 40.464844 "/>
<path style=" stroke:none;fill-rule:nonzero;fill:rgb(100%,100%,100%);fill-opacity:1;" d="M 151.878906 43.339844 L 151.878906 120.648438 C 151.878906 121.945312 150.867188 123.050781 149.597656 123.121094 L 89.972656 126.347656 C 88.5625 126.421875 87.4375 125.375 87.4375 124.003906 L 87.4375 42.292969 Z M 151.878906 43.339844 "/>
<path style=" stroke:none;fill-rule:nonzero;fill:url(#linear6);" d="M 89.679688 42.328125 L 89.679688 122.175781 C 89.679688 122.976562 90.320312 123.589844 91.140625 123.546875 L 148.722656 120.558594 C 149.464844 120.523438 150.011719 119.878906 150.011719 119.121094 L 150.011719 43.3125 Z M 89.679688 42.328125 "/>
<path style=" stroke:none;fill-rule:nonzero;fill:rgb(84.705882%,87.058824%,90.980392%);fill-opacity:1;" d="M 146.558594 50.15625 L 93.328125 49.613281 C 92.886719 49.609375 92.480469 49.953125 92.480469 50.386719 L 92.480469 94.9375 C 92.480469 95.371094 92.925781 95.710938 93.367188 95.695312 L 146.515625 94.179688 C 146.917969 94.167969 147.210938 93.824219 147.210938 93.414062 L 147.210938 50.90625 C 147.210938 50.496094 146.960938 50.160156 146.558594 50.15625 Z M 146.558594 50.15625 "/>
<path style=" stroke:none;fill-rule:nonzero;fill:rgb(74.901961%,78.431373%,83.921569%);fill-opacity:1;" d="M 151.878906 40.488281 L 151.878906 43.339844 L 87.4375 42.292969 L 87.4375 39.28125 C 87.4375 37.90625 88.546875 36.820312 89.957031 36.847656 L 149.59375 38.09375 C 150.863281 38.117188 151.878906 39.191406 151.878906 40.488281 Z M 151.878906 40.488281 "/>
<path style=" stroke:none;fill-rule:nonzero;fill:rgb(84.705882%,87.058824%,90.980392%);fill-opacity:1;" d="M 116.765625 108.238281 L 92.480469 109.203125 L 92.480469 105.292969 L 116.765625 104.410156 Z M 116.765625 108.238281 "/>
<path style=" stroke:none;fill-rule:nonzero;fill:rgb(84.705882%,87.058824%,90.980392%);fill-opacity:1;" d="M 135.253906 111.652344 L 92.480469 113.5 L 92.480469 111.15625 L 135.253906 109.394531 Z M 135.253906 111.652344 "/>
<path style=" stroke:none;fill-rule:nonzero;fill:rgb(84.705882%,87.058824%,90.980392%);fill-opacity:1;" d="M 135.253906 115.609375 L 92.480469 117.605469 L 92.480469 115.257812 L 135.253906 113.351562 Z M 135.253906 115.609375 "/>
<path style=" stroke:none;fill-rule:nonzero;fill:rgb(100%,100%,100%);fill-opacity:1;" d="M 92.046875 39.605469 C 92.046875 40.253906 91.507812 40.769531 90.839844 40.757812 C 90.175781 40.746094 89.632812 40.210938 89.632812 39.5625 C 89.632812 38.910156 90.175781 38.398438 90.839844 38.410156 C 91.507812 38.421875 92.046875 38.957031 92.046875 39.605469 Z M 92.046875 39.605469 "/>
<path style=" stroke:none;fill-rule:nonzero;fill:rgb(100%,100%,100%);fill-opacity:1;" d="M 96.046875 39.679688 C 96.046875 40.324219 95.511719 40.839844 94.851562 40.828125 C 94.1875 40.816406 93.652344 40.28125 93.652344 39.636719 C 93.652344 38.988281 94.1875 38.476562 94.851562 38.488281 C 95.511719 38.5 96.046875 39.035156 96.046875 39.679688 Z M 96.046875 39.679688 "/>
<path style=" stroke:none;fill-rule:nonzero;fill:rgb(100%,100%,100%);fill-opacity:1;" d="M 100.023438 39.753906 C 100.023438 40.398438 99.488281 40.910156 98.832031 40.898438 C 98.175781 40.886719 97.640625 40.355469 97.640625 39.710938 C 97.640625 39.066406 98.175781 38.554688 98.832031 38.566406 C 99.488281 38.578125 100.023438 39.109375 100.023438 39.753906 Z M 100.023438 39.753906 "/>
<g clip-path="url(#clip8)" clip-rule="nonzero">
<g clip-path="url(#clip9)" clip-rule="nonzero">
<path style=" stroke:none;fill-rule:nonzero;fill:url(#linear7);" d="M 146.246094 92.105469 C 146.003906 88.601562 143.71875 85.625 140.433594 84.542969 C 123.214844 78.886719 108.199219 82.949219 100.261719 86.1875 C 96.734375 87.625 94.382812 91.015625 94.347656 94.746094 L 94.25 104.261719 L 146.953125 102.378906 Z M 146.246094 92.105469 "/>
</g>
</g>
<g clip-path="url(#clip10)" clip-rule="nonzero">
<g clip-path="url(#clip11)" clip-rule="nonzero">
<path style=" stroke:none;fill-rule:nonzero;fill:url(#linear8);" d="M 117.878906 70.121094 L 117.011719 76.683594 C 116.757812 80.855469 112.675781 82.574219 112.675781 82.574219 C 117.46875 88.121094 126.515625 87.492188 129.644531 81.972656 C 127.484375 81.230469 125.050781 77.90625 124.957031 75.523438 L 124.734375 69.988281 Z M 117.878906 70.121094 "/>
</g>
</g>
<g clip-path="url(#clip12)" clip-rule="nonzero">
<g clip-path="url(#clip13)" clip-rule="nonzero">
<path style=" stroke:none;fill-rule:nonzero;fill:url(#linear9);" d="M 129.011719 64.203125 C 129.011719 69.664062 125.789062 75.621094 121.765625 75.734375 C 117.691406 75.851562 114.351562 69.945312 114.351562 64.359375 C 114.351562 58.773438 117.691406 55.726562 121.765625 55.738281 C 125.789062 55.75 129.011719 58.742188 129.011719 64.203125 Z M 129.011719 64.203125 "/>
</g>
</g>
<g clip-path="url(#clip14)" clip-rule="nonzero">
<g clip-path="url(#clip15)" clip-rule="nonzero">
<path style=" stroke:none;fill-rule:nonzero;fill:url(#linear10);" d="M 114.128906 65.773438 C 114.539062 65.703125 114.949219 65.632812 115.359375 65.558594 C 115.171875 65.105469 114.394531 63.089844 115.359375 61.3125 C 116.285156 59.609375 118.460938 58.777344 120.117188 58.882812 C 121.988281 59.003906 123.109375 59.878906 124.046875 59.195312 C 124.570312 58.816406 124.742188 58.121094 124.800781 57.585938 C 124.84375 57.929688 124.9375 58.4375 125.179688 59 C 125.871094 60.613281 127.042969 60.945312 127.679688 62.007812 C 128.109375 62.722656 128.386719 63.921875 127.679688 66.046875 C 128.035156 66.023438 128.386719 65.996094 128.738281 65.96875 C 129.109375 64.777344 129.554688 63.089844 129.832031 61.027344 C 130.242188 57.96875 130.523438 55.863281 129.359375 54.832031 C 129.125 54.628906 128.097656 53.8125 125.625 54.566406 C 125.042969 53.945312 123.816406 52.808594 121.925781 52.226562 C 121.269531 52.023438 118.003906 51.015625 115.089844 53.121094 C 113.101562 54.554688 111.539062 57.257812 112.042969 59.492188 C 112.308594 60.675781 113.035156 61.203125 113.671875 63.484375 C 113.941406 64.449219 114.066406 65.257812 114.128906 65.773438 Z M 114.128906 65.773438 "/>
</g>
</g>
<g clip-path="url(#clip16)" clip-rule="nonzero">
<g clip-path="url(#clip17)" clip-rule="nonzero">
<path style=" stroke:none;fill-rule:nonzero;fill:url(#linear11);" d="M 128.011719 66.230469 C 128.011719 66.230469 128.472656 63.832031 129.878906 64.054688 C 131.273438 64.277344 129.269531 68.21875 128.011719 68.710938 Z M 128.011719 66.230469 "/>
</g>
</g>
<g clip-path="url(#clip18)" clip-rule="nonzero">
<g clip-path="url(#clip19)" clip-rule="nonzero">
<path style=" stroke:none;fill-rule:nonzero;fill:url(#linear12);" d="M 115.273438 66.40625 C 115.273438 66.40625 114.792969 63.972656 113.320312 64.230469 C 111.84375 64.488281 113.957031 68.476562 115.273438 68.9375 Z M 115.273438 66.40625 "/>
</g>
</g>
<g clip-path="url(#clip20)" clip-rule="nonzero">
<g clip-path="url(#clip21)" clip-rule="nonzero">
<path style=" stroke:none;fill-rule:nonzero;fill:rgb(100%,100%,100%);fill-opacity:1;" d="M 129.644531 81.976562 L 123.832031 94.636719 L 121.222656 100.308594 L 118.707031 95.082031 L 112.679688 82.574219 C 114.898438 83.214844 117.070312 83.492188 119.078125 83.558594 C 120.621094 83.605469 122.070312 83.527344 123.367188 83.378906 C 127.054688 82.960938 129.546875 82.011719 129.644531 81.976562 Z M 129.644531 81.976562 "/>
</g>
</g>
<g clip-path="url(#clip22)" clip-rule="nonzero">
<g clip-path="url(#clip23)" clip-rule="nonzero">
<path style=" stroke:none;fill-rule:nonzero;fill:url(#linear13);" d="M 123.902344 94.636719 L 121.257812 100.308594 L 118.722656 95.085938 L 120.234375 86.539062 L 122.742188 86.386719 Z M 123.902344 94.636719 "/>
</g>
</g>
<g clip-path="url(#clip24)" clip-rule="nonzero">
<g clip-path="url(#clip25)" clip-rule="nonzero">
<path style=" stroke:none;fill-rule:nonzero;fill:url(#linear14);" d="M 119.019531 83.398438 L 120.15625 86.535156 L 122.574219 86.484375 L 123.410156 83.203125 Z M 119.019531 83.398438 "/>
</g>
</g>
<use xlink:href="#surface14" mask="url(#mask3)"/>
<path style=" stroke:none;fill-rule:nonzero;fill:url(#linear15);" d="M 72.386719 103.011719 L 72.320312 104.332031 C 72.320312 104.332031 73.671875 105.121094 75.621094 106.089844 C 79.269531 109.234375 84.769531 112.894531 87.953125 109.847656 C 90.492188 107.417969 91.074219 104.292969 91.023438 101.773438 C 90.976562 99.265625 90.292969 97.359375 90.292969 97.359375 L 87.339844 98.152344 C 82.871094 89.492188 73.425781 82.417969 73.425781 82.417969 L 72.769531 95.417969 L 72.417969 102.40625 L 71.949219 102.542969 C 71.949219 102.542969 72.105469 102.71875 72.386719 103.011719 Z M 72.386719 103.011719 "/>
<use xlink:href="#surface17" mask="url(#mask4)"/>
<path style=" stroke:none;fill-rule:nonzero;fill:url(#linear17);" d="M 54.941406 168.710938 C 54.65625 168.972656 54.636719 169.582031 54.625 169.980469 C 54.621094 170.15625 54.617188 170.246094 54.640625 170.304688 C 54.8125 170.753906 55.699219 170.746094 57.09375 170.804688 C 59.292969 170.894531 59.957031 171.027344 60.109375 170.691406 C 60.25 170.375 59.832031 169.898438 59.785156 169.847656 C 59.53125 169.566406 59.234375 169.476562 58.667969 169.324219 C 57.613281 169.050781 56.90625 168.90625 56.691406 168.863281 C 55.351562 168.589844 55.125 168.542969 54.941406 168.710938 Z M 54.941406 168.710938 "/>
<path style=" stroke:none;fill-rule:nonzero;fill:url(#linear18);" d="M 56.484375 166.515625 L 56.570312 169.023438 C 56.5 169.140625 55.742188 169.460938 55.167969 169.121094 L 54.734375 166.636719 Z M 56.484375 166.515625 "/>
<path style=" stroke:none;fill-rule:nonzero;fill:url(#linear19);" d="M 73.484375 168.367188 C 73.105469 168.742188 72.984375 169.464844 73.277344 169.839844 C 73.5625 170.207031 74.035156 169.96875 75.339844 170.074219 C 76.730469 170.191406 77.078125 170.542969 78.039062 170.332031 C 78.429688 170.246094 79.121094 170.023438 79.121094 169.75 C 79.121094 169.558594 78.785156 169.4375 77.652344 168.992188 C 76.050781 168.359375 76.058594 168.328125 75.714844 168.253906 C 74.851562 168.0625 73.984375 167.871094 73.484375 168.367188 Z M 73.484375 168.367188 "/>
<path style=" stroke:none;fill-rule:nonzero;fill:url(#linear20);" d="M 74.5 166.136719 L 75.074219 168.503906 C 75.015625 168.625 74.28125 169.003906 73.683594 168.707031 L 72.765625 166.390625 Z M 74.5 166.136719 "/>
<path style=" stroke:none;fill-rule:nonzero;fill:url(#linear21);" d="M 71.003906 114.808594 C 70.6875 122.640625 70.75 131.464844 71.519531 141.09375 C 72.28125 150.609375 73.601562 159.242188 75.136719 166.851562 C 74.230469 167.042969 73.324219 167.234375 72.417969 167.429688 C 70.265625 165.195312 67.585938 161.714844 66.457031 156.941406 C 65.757812 153.980469 66.121094 152.496094 65.769531 148.878906 C 65.210938 143.121094 63.621094 140.035156 62.054688 135.332031 C 60.648438 131.105469 59.050781 124.925781 58.453125 116.75 C 62.636719 116.101562 66.820312 115.457031 71.003906 114.808594 Z M 71.003906 114.808594 "/>
<use xlink:href="#surface20" mask="url(#mask5)"/>
<path style=" stroke:none;fill-rule:nonzero;fill:url(#linear23);" d="M 61.949219 114.320312 C 60.871094 124.242188 59.878906 134.355469 58.988281 144.65625 C 58.320312 152.382812 57.722656 160.015625 57.195312 167.554688 C 56.277344 167.617188 55.359375 167.683594 54.441406 167.746094 C 53.644531 166.058594 52.609375 163.484375 51.980469 160.226562 C 51.214844 156.269531 51.5625 153.960938 51.351562 149.890625 C 51.113281 145.324219 50.472656 144.296875 49.542969 138.503906 C 47.660156 126.746094 46.71875 120.867188 49.707031 117.402344 C 50.675781 116.277344 53.675781 113.484375 61.949219 114.320312 Z M 61.949219 114.320312 "/>
<path style=" stroke:none;fill-rule:nonzero;fill:url(#linear24);" d="M 38.554688 83.894531 C 39.546875 86.070312 40.753906 88.964844 41.90625 92.441406 C 42.707031 94.851562 43.4375 97.058594 44.042969 99.226562 C 45.023438 102.734375 45.667969 106.140625 45.730469 110.128906 C 45.753906 111.535156 45.738281 115.464844 45.96875 121.242188 C 46.121094 124.988281 46.277344 127.140625 47.523438 127.695312 C 48.820312 128.277344 49.875 126.492188 53.019531 125.425781 C 55.332031 124.644531 57.660156 124.851562 62.222656 125.304688 C 69.027344 125.980469 69.511719 126.941406 70.84375 126.148438 C 72.894531 124.921875 72.40625 122.253906 73.570312 112.054688 C 74.285156 105.796875 74.585938 105.730469 74.898438 101.296875 C 75.210938 96.867188 75.171875 93.113281 75.058594 90.34375 C 74.566406 87.582031 74.070312 84.816406 73.578125 82.058594 C 69.925781 81.035156 65.316406 80.113281 59.953125 79.894531 C 53.199219 79.613281 47.347656 80.53125 42.75 81.699219 C 42.226562 81.832031 41.71875 81.96875 41.226562 82.109375 C 40.394531 82.496094 39.53125 83.128906 38.554688 83.894531 Z M 38.554688 83.894531 "/>
<use xlink:href="#surface23" mask="url(#mask6)"/>
<path style=" stroke:none;fill-rule:nonzero;fill:rgb(100%,100%,100%);fill-opacity:1;" d="M 53.515625 80.382812 C 53.511719 81.78125 55.605469 86.53125 59.199219 93.472656 C 60.195312 95.394531 61.382812 97.5 62.625 99.769531 C 63.261719 98.3125 63.769531 96.882812 64.195312 95.5 C 66.117188 87.933594 64.976562 81.699219 64.742188 80.792969 C 64.71875 80.714844 64.433594 80.648438 64.433594 80.648438 C 60.175781 79.242188 54.65625 80.03125 53.515625 80.382812 Z M 53.515625 80.382812 "/>
<path style=" stroke:none;fill-rule:nonzero;fill:url(#linear26);" d="M 59.339844 73.90625 C 59.265625 75.527344 59.015625 76.804688 58.796875 77.675781 C 58.550781 78.671875 58.394531 78.925781 58.203125 79.128906 C 57.914062 79.433594 57.488281 79.675781 55.132812 80.128906 C 53.851562 80.375 53.691406 80.359375 53.65625 80.480469 C 53.488281 81.085938 56.824219 83.355469 60.414062 83.042969 C 62.609375 82.855469 64.660156 81.714844 64.570312 81.054688 C 64.484375 80.390625 62.289062 80.628906 61.703125 79.40625 C 61.296875 78.554688 61.863281 77.40625 62.515625 76.464844 C 61.992188 75.347656 59.859375 75.023438 59.339844 73.90625 Z M 59.339844 73.90625 "/>
<path style=" stroke:none;fill-rule:nonzero;fill:url(#linear27);" d="M 62.765625 74.359375 C 63.179688 73.609375 63.039062 72.421875 62.347656 71.757812 C 61.75 71.1875 60.941406 71.210938 60.457031 71.222656 C 59.050781 71.257812 57.390625 72.085938 56.96875 73.441406 C 56.714844 74.246094 57.714844 75.699219 57.878906 75.964844 C 58.0625 76.261719 58.324219 76.335938 58.589844 76.542969 C 58.960938 76.832031 59.535156 77.289062 60.480469 78.058594 C 60.507812 77.789062 60.558594 77.453125 60.660156 77.078125 C 60.699219 76.933594 60.863281 76.375 61.160156 75.882812 C 61.753906 74.902344 62.371094 75.070312 62.765625 74.359375 Z M 62.765625 74.359375 "/>
<path style=" stroke:none;fill-rule:nonzero;fill:url(#linear28);" d="M 59.207031 77.480469 C 59.207031 77.480469 60.328125 78.839844 62.117188 78.464844 C 63.722656 78.128906 63.441406 74.464844 62.296875 73.84375 C 61.914062 73.636719 61.210938 73.628906 60.671875 73.867188 C 60.351562 74.003906 60.257812 74.160156 59.734375 74.378906 C 59.25 74.582031 59.101562 74.546875 58.96875 74.695312 C 58.800781 74.882812 58.71875 75.292969 59.1875 76.308594 C 58.832031 76.039062 58.445312 75.972656 58.199219 76.132812 C 58.160156 76.160156 58.0625 76.25 58.015625 76.375 C 57.847656 76.820312 58.300781 77.296875 59.207031 77.480469 Z M 59.207031 77.480469 "/>
<path style=" stroke:none;fill-rule:nonzero;fill:url(#linear29);" d="M 58.863281 74.488281 C 58.949219 74.535156 58.753906 74.859375 58.792969 75.273438 C 58.875 76.078125 59.820312 76.925781 60.65625 76.886719 C 61.152344 76.867188 61.246094 76.550781 62.039062 76.351562 C 62.53125 76.226562 62.957031 76.230469 63.226562 76.253906 C 63.605469 77.09375 63.492188 78 62.964844 78.492188 C 62.394531 79.019531 61.550781 78.867188 61.199219 78.804688 C 60.960938 78.761719 60.207031 78.628906 59.734375 78.023438 C 59.242188 77.386719 59.566406 76.914062 59.050781 76.511719 C 58.789062 76.308594 58.472656 76.25 58.117188 75.835938 C 58.019531 75.722656 57.953125 75.621094 57.910156 75.550781 C 58.265625 75.050781 58.738281 74.421875 58.863281 74.488281 Z M 58.863281 74.488281 "/>
<path style=" stroke:none;fill-rule:nonzero;fill:url(#linear30);" d="M 62.6875 76.660156 C 62.6875 76.660156 62.363281 76.894531 61.753906 76.945312 C 61.722656 76.949219 61.691406 76.960938 61.691406 76.976562 C 61.6875 77.035156 62.109375 77.238281 62.453125 77.085938 C 62.695312 76.980469 62.859375 76.710938 62.816406 76.65625 C 62.796875 76.632812 62.742188 76.644531 62.6875 76.660156 Z M 62.6875 76.660156 "/>
<path style=" stroke:none;fill-rule:nonzero;fill:url(#linear31);" d="M 61.625 82.871094 L 61.238281 85.164062 L 59.640625 85.164062 L 58.3125 82.996094 C 58.3125 82.996094 61.363281 83.113281 61.625 82.871094 Z M 61.625 82.871094 "/>
<path style=" stroke:none;fill-rule:nonzero;fill:url(#linear32);" d="M 59.199219 93.472656 C 59.5 94.050781 59.8125 94.652344 60.136719 95.265625 C 60.886719 96.683594 61.757812 98.1875 62.625 99.769531 C 63.261719 98.3125 63.769531 96.882812 64.195312 95.5 L 61.335938 85.308594 L 61.257812 85.148438 C 61.253906 85.132812 61.234375 85.121094 61.230469 85.109375 C 61.027344 84.660156 59.644531 85.109375 59.644531 85.109375 Z M 59.199219 93.472656 "/>
<use xlink:href="#surface26" mask="url(#mask7)"/>
<path style=" stroke:none;fill-rule:nonzero;fill:url(#linear34);" d="M 28.769531 116.480469 C 32.417969 119.855469 37.578125 119.761719 39.867188 119.554688 C 40.171875 118.804688 40.472656 118.054688 40.777344 117.304688 C 36.921875 114.472656 34.753906 110.257812 35.605469 106.660156 C 36.652344 102.222656 41.996094 99.953125 44.042969 99.226562 C 44.371094 99.113281 44.609375 99.035156 44.738281 98.992188 C 47.613281 98.078125 48.59375 98.679688 49.589844 97.617188 C 52.617188 94.378906 48.886719 82.515625 43.363281 81.730469 C 43.15625 81.699219 42.953125 81.691406 42.75 81.699219 C 42.242188 81.726562 41.738281 81.871094 41.226562 82.109375 C 40.394531 82.496094 39.53125 83.128906 38.554688 83.894531 C 37.910156 84.398438 37.21875 84.964844 36.449219 85.550781 C 34.105469 87.34375 30.25 90.292969 27.824219 95.566406 C 25.710938 100.167969 22.699219 110.859375 28.769531 116.480469 Z M 28.769531 116.480469 "/>
<path style=" stroke:none;fill-rule:nonzero;fill:url(#linear35);" d="M 37.558594 124.742188 L 37.0625 123.886719 C 36.273438 122.519531 36.78125 120.792969 38.199219 120.03125 L 93.746094 90.261719 L 96.761719 96.007812 L 41.535156 125.828125 C 40.125 126.589844 38.347656 126.105469 37.558594 124.742188 Z M 37.558594 124.742188 "/>
<path style=" stroke:none;fill-rule:nonzero;fill:url(#linear36);" d="M 135.363281 107.421875 C 119.515625 116.28125 99.453125 110.292969 90.621094 93.550781 C 81.574219 76.40625 87.945312 55.042969 104.765625 46.359375 C 121.28125 37.828125 141.136719 45.070312 149.210938 62.03125 C 157.101562 78.605469 150.9375 98.714844 135.363281 107.421875 Z M 133.007812 102.71875 C 146.164062 95.40625 151.355469 78.4375 144.65625 64.480469 C 137.828125 50.25 121.136719 44.253906 107.3125 51.441406 C 93.273438 58.738281 87.941406 76.589844 95.453125 90.949219 C 102.816406 105.027344 119.652344 110.140625 133.007812 102.71875 Z M 133.007812 102.71875 "/>
<use xlink:href="#surface29" mask="url(#mask8)"/>
<path style=" stroke:none;fill-rule:nonzero;fill:url(#linear38);" d="M 136.8125 108.726562 C 120.964844 117.585938 100.902344 111.597656 92.070312 94.855469 C 83.023438 77.710938 89.394531 56.347656 106.214844 47.660156 C 122.730469 39.132812 142.585938 46.371094 150.660156 63.332031 C 158.550781 79.910156 152.386719 100.019531 136.8125 108.726562 Z M 134.457031 104.023438 C 147.613281 96.710938 152.804688 79.742188 146.105469 65.785156 C 139.277344 51.554688 122.585938 45.558594 108.761719 52.746094 C 94.726562 60.042969 89.390625 77.894531 96.902344 92.253906 C 104.269531 106.332031 121.101562 111.441406 134.457031 104.023438 Z M 134.457031 104.023438 "/>
<path style=" stroke:none;fill-rule:nonzero;fill:url(#linear39);" d="M 135.980469 107.066406 C 121.015625 115.414062 102.09375 109.734375 93.78125 93.933594 C 85.28125 77.777344 91.285156 57.660156 107.117188 49.464844 C 122.679688 41.40625 141.417969 48.203125 149.050781 64.199219 C 156.523438 79.851562 150.703125 98.851562 135.980469 107.066406 Z M 134.457031 104.023438 C 147.613281 96.710938 152.804688 79.742188 146.105469 65.785156 C 139.277344 51.554688 122.585938 45.558594 108.761719 52.746094 C 94.726562 60.042969 89.390625 77.894531 96.902344 92.253906 C 104.269531 106.332031 121.101562 111.441406 134.457031 104.023438 Z M 134.457031 104.023438 "/>
<path style=" stroke:none;fill-rule:nonzero;fill:url(#linear40);" d="M 40.0625 119.074219 L 40.574219 117.804688 C 40.574219 117.804688 41.40625 117.855469 42.089844 117.367188 C 42.460938 117.097656 43.125 117.019531 43.316406 117.074219 C 43.507812 117.125 44.234375 117.09375 43.40625 117.488281 C 42.578125 117.882812 42.585938 118.175781 42.929688 118.5 C 43.277344 118.824219 44.585938 119.519531 45.058594 119.554688 C 45.53125 119.589844 44.679688 120.316406 44.203125 120.410156 C 43.726562 120.503906 42.945312 120.621094 41.980469 120.054688 C 41.625 119.847656 40.0625 119.074219 40.0625 119.074219 Z M 40.0625 119.074219 "/>
<path style=" stroke:none;fill-rule:nonzero;fill:url(#linear41);" d="M 89.042969 101.628906 C 89.042969 101.628906 90.730469 100.949219 91.378906 99.148438 C 92.023438 97.347656 90.917969 99.089844 89.359375 99.550781 C 87.804688 100.007812 87.804688 100.007812 87.804688 100.007812 C 87.804688 100.007812 86.152344 100.433594 86.34375 101.089844 C 86.539062 101.75 89.042969 101.628906 89.042969 101.628906 Z M 89.042969 101.628906 "/>
<path style=" stroke:none;fill-rule:nonzero;fill:url(#linear42);" d="M 105.003906 139.4375 C 105.003906 139.4375 107.027344 140.121094 107.242188 143.648438 C 106.910156 143.621094 106.140625 143.648438 106.140625 143.648438 C 106.140625 143.648438 106.28125 141.082031 104.84375 140.585938 C 104.957031 140.285156 105.003906 139.4375 105.003906 139.4375 Z M 105.003906 139.4375 "/>
<path style=" stroke:none;fill-rule:nonzero;fill:url(#linear43);" d="M 97.578125 139.226562 C 97.628906 139.867188 97.679688 140.511719 97.730469 141.152344 C 98.730469 140.863281 99.824219 140.53125 101 140.46875 C 102.527344 140.386719 103.929688 140.566406 105.175781 140.875 C 105.230469 140.792969 105.351562 140.601562 105.402344 140.28125 C 105.492188 139.769531 105.34375 139.34375 105.316406 139.269531 C 104.683594 139.035156 103.992188 138.835938 103.253906 138.703125 C 101.136719 138.316406 99.222656 138.699219 97.578125 139.226562 Z M 97.578125 139.226562 "/>
<path style=" stroke:none;fill-rule:nonzero;fill:url(#linear44);" d="M 97.484375 139.78125 C 97.488281 139.550781 97.503906 139.261719 97.578125 139.226562 C 97.648438 139.195312 97.742188 139.402344 97.785156 139.519531 C 97.800781 139.570312 97.839844 139.6875 97.863281 140.0625 C 97.890625 140.546875 97.855469 140.78125 97.824219 140.929688 C 97.804688 141.015625 97.773438 141.148438 97.730469 141.152344 C 97.695312 141.15625 97.664062 141.070312 97.617188 140.910156 C 97.554688 140.6875 97.476562 140.324219 97.484375 139.78125 Z M 97.484375 139.78125 "/>
<path style=" stroke:none;fill-rule:nonzero;fill:url(#linear45);" d="M 95.640625 143.839844 C 96.0625 143.925781 97.082031 144.171875 97.082031 144.171875 C 97.082031 144.171875 96.414062 141.917969 97.667969 140.875 C 97.703125 140.703125 97.734375 140.433594 97.695312 140.109375 C 97.664062 139.855469 97.601562 139.65625 97.546875 139.515625 C 97.011719 139.835938 95.855469 140.90625 95.640625 143.839844 Z M 95.640625 143.839844 "/>
<path style=" stroke:none;fill-rule:nonzero;fill:url(#linear46);" d="M 86.972656 144.4375 C 86.972656 144.4375 87.023438 143.25 88.769531 143.25 C 89.046875 143.46875 89.058594 144.4375 89.058594 144.4375 Z M 86.972656 144.4375 "/>
<path style=" stroke:none;fill-rule:nonzero;fill:url(#linear47);" d="M 85.417969 167.730469 L 90.203125 170.855469 L 93.101562 159.386719 L 88.324219 144.007812 L 86.972656 144.4375 L 84.914062 166.519531 C 84.871094 167.019531 85.070312 167.503906 85.417969 167.730469 Z M 85.417969 167.730469 "/>
<use xlink:href="#surface32" mask="url(#mask9)"/>
<path style=" stroke:none;fill-rule:nonzero;fill:url(#linear49);" d="M 88.324219 144.007812 L 114.597656 144.007812 L 118.734375 168.382812 L 90.203125 170.855469 Z M 88.324219 144.007812 "/>
<use xlink:href="#surface35" mask="url(#mask10)"/>
<path style=" stroke:none;fill-rule:nonzero;fill:url(#linear51);" d="M 88.769531 143.25 C 88.476562 143.25 88.0625 143.210938 87.609375 143.496094 C 87.515625 143.558594 87.429688 143.625 87.355469 143.691406 L 87.5625 143.613281 C 87.894531 143.507812 88.355469 143.648438 88.527344 144.007812 C 88.738281 144.449219 88.8125 145.476562 88.859375 145.984375 C 88.992188 147.429688 89.796875 156.417969 89.796875 156.417969 C 89.859375 157.175781 90.390625 157.75 91.023438 157.734375 L 115.460938 156.367188 C 115.644531 156.359375 115.828125 156.296875 115.984375 156.171875 C 116.300781 155.90625 116.445312 155.449219 116.371094 155.015625 L 115.132812 144.308594 C 115.03125 143.691406 114.582031 143.25 114.058594 143.25 Z M 88.769531 143.25 "/>
<path style=" stroke:none;fill-rule:nonzero;fill:url(#linear52);" d="M 89.03125 143.25 C 88.734375 143.25 88.386719 143.207031 87.992188 143.320312 C 87.886719 143.351562 87.71875 143.40625 87.644531 143.476562 C 87.644531 143.476562 88.476562 143.261719 88.789062 144.007812 C 88.980469 144.464844 89.074219 145.476562 89.121094 145.984375 C 89.253906 147.429688 90.058594 156.417969 90.058594 156.417969 C 90.121094 157.175781 90.652344 157.75 91.285156 157.734375 L 115.996094 157.164062 C 116.183594 157.160156 116.367188 157.097656 116.519531 156.96875 C 116.839844 156.707031 116.984375 156.246094 116.910156 155.8125 L 115.394531 144.308594 C 115.292969 143.691406 114.84375 143.25 114.320312 143.25 Z M 89.03125 143.25 "/>
<use xlink:href="#surface38" mask="url(#mask11)"/>
<path style=" stroke:none;fill-rule:nonzero;fill:url(#linear54);" d="M 105.082031 159.304688 L 101.988281 160.105469 L 101.660156 160.132812 C 101.332031 160.164062 101.046875 159.855469 101.035156 159.453125 L 100.898438 155.648438 C 100.882812 155.242188 101.144531 154.910156 101.472656 154.90625 L 101.804688 154.898438 L 104.914062 155.324219 C 105.210938 155.320312 105.460938 155.148438 105.476562 155.527344 L 105.601562 159.097656 C 105.617188 159.476562 105.378906 159.277344 105.082031 159.304688 Z M 105.082031 159.304688 "/>
<path style=" stroke:none;fill-rule:nonzero;fill:url(#linear55);" d="M 105.316406 159.832031 L 101.890625 160.132812 C 101.558594 160.164062 101.277344 159.855469 101.261719 159.453125 L 101.125 155.648438 C 101.113281 155.242188 101.371094 154.910156 101.703125 154.90625 L 105.140625 154.847656 C 105.4375 154.84375 105.6875 155.148438 105.703125 155.527344 L 105.832031 159.097656 C 105.84375 159.476562 105.613281 159.804688 105.316406 159.832031 Z M 105.316406 159.832031 "/>
</g>
</svg>
