<?xml version="1.0" encoding="UTF-8"?>
<svg xmlns="http://www.w3.org/2000/svg" xmlns:xlink="http://www.w3.org/1999/xlink" width="200pt" height="200pt" viewBox="0 0 200 200" version="1.1">
<defs>
<linearGradient id="linear0" gradientUnits="userSpaceOnUse" x1="2354.4834" y1="2474.6184" x2="3084.8721" y2="501.9938" gradientTransform="matrix(0.0539084,0,0,0.0539084,0,0)">
<stop offset="0" style="stop-color:rgb(0%,91.372549%,67.058824%);stop-opacity:1;"/>
<stop offset="1" style="stop-color:rgb(16.470588%,33.333333%,100%);stop-opacity:1;"/>
</linearGradient>
<clipPath id="clip1">
  <path d="M 109 34 L 169 34 L 169 135 L 109 135 Z M 109 34 "/>
</clipPath>
<clipPath id="clip2">
  <path d="M 159.140625 36.851562 C 157.410156 35.417969 154.785156 34.640625 152.570312 34.480469 C 136.84375 33.367188 134.550781 66.234375 136.960938 73.582031 C 139.371094 80.925781 137.808594 83.339844 125.421875 87.183594 C 113.039062 91.023438 118.980469 98.425781 120.488281 102.753906 C 122 107.078125 124.988281 110.734375 115.960938 115.035156 C 106.933594 119.335938 110.070312 121.996094 110.070312 121.996094 C 110.070312 121.996094 126.71875 139.027344 125.800781 133.574219 C 124.878906 128.125 126.546875 119.890625 141.472656 119.265625 C 147.902344 118.996094 157.75 115.929688 159.929688 109.042969 C 160.4375 107.441406 160.789062 104.992188 160.402344 103.332031 C 159.867188 101.03125 158.355469 99.21875 157.519531 97.050781 C 155.5625 92.003906 160.464844 88.304688 163.289062 84.929688 C 164.761719 83.167969 166.234375 81.363281 167.363281 79.355469 C 169.703125 75.183594 168.828125 70.710938 166.277344 66.867188 C 165.054688 65.023438 163.355469 63.070312 162.820312 60.871094 C 162.246094 58.507812 162.746094 55.28125 162.882812 52.851562 C 162.988281 50.945312 163.171875 49.046875 163.0625 47.136719 C 162.863281 43.582031 162.03125 39.242188 159.140625 36.851562 Z M 159.140625 36.851562 "/>
</clipPath>
<filter id="alpha" filterUnits="objectBoundingBox" x="0%" y="0%" width="100%" height="100%">
  <feColorMatrix type="matrix" in="SourceGraphic" values="0 0 0 0 1 0 0 0 0 1 0 0 0 0 1 0 0 0 1 0"/>
</filter>
<mask id="mask0">
  <g filter="url(#alpha)">
<rect x="0" y="0" width="200" height="200" style="fill:rgb(0%,0%,0%);fill-opacity:0.8;stroke:none;"/>
  </g>
</mask>
<clipPath id="clip3">
  <rect width="200" height="200"/>
</clipPath>
<g id="surface6" clip-path="url(#clip3)">
<path style=" stroke:none;fill-rule:nonzero;fill:rgb(100%,100%,100%);fill-opacity:1;" d="M 108.761719 131.554688 C 108.652344 131.59375 108.53125 131.550781 108.476562 131.445312 C 108.417969 131.332031 108.460938 131.191406 108.574219 131.132812 C 108.644531 131.09375 115.652344 127.40625 123.472656 121.335938 C 130.675781 115.742188 140.0625 106.917969 143.863281 96.664062 C 147.039062 88.097656 149.933594 73.9375 151.804688 57.8125 C 153.484375 43.355469 153.75 32.660156 153.035156 30.675781 C 152.992188 30.554688 153.054688 30.421875 153.175781 30.378906 C 153.296875 30.335938 153.429688 30.398438 153.472656 30.519531 C 154.308594 32.839844 153.777344 44.851562 152.265625 57.867188 C 150.390625 74.023438 147.484375 88.226562 144.300781 96.824219 C 140.460938 107.183594 131.007812 116.074219 123.75 121.707031 C 115.898438 127.804688 108.859375 131.507812 108.789062 131.542969 C 108.78125 131.546875 108.769531 131.550781 108.761719 131.554688 Z M 108.761719 131.554688 "/>
<path style=" stroke:none;fill-rule:nonzero;fill:rgb(100%,100%,100%);fill-opacity:1;" d="M 151.777344 60.613281 C 151.660156 60.660156 151.535156 60.625 151.492188 60.503906 C 151.433594 60.347656 145.574219 44.574219 138.011719 41.015625 C 137.898438 40.960938 137.851562 40.828125 137.90625 40.710938 C 137.960938 40.59375 138.097656 40.550781 138.214844 40.605469 C 145.945312 44.246094 151.6875 59.6875 151.929688 60.34375 C 151.972656 60.464844 151.902344 60.570312 151.78125 60.613281 C 151.78125 60.613281 151.78125 60.613281 151.777344 60.613281 Z M 151.777344 60.613281 "/>
<path style=" stroke:none;fill-rule:nonzero;fill:rgb(100%,100%,100%);fill-opacity:1;" d="M 148.921875 78.90625 C 148.832031 78.9375 148.726562 78.910156 148.664062 78.832031 C 148.582031 78.734375 148.59375 78.585938 148.695312 78.507812 C 148.738281 78.472656 153.054688 74.929688 158.378906 71.960938 C 165.574219 67.945312 171.085938 66.824219 174.769531 68.628906 C 174.882812 68.683594 174.929688 68.824219 174.875 68.941406 C 174.816406 69.054688 174.679688 69.101562 174.5625 69.046875 C 166.097656 64.894531 149.160156 78.726562 148.988281 78.863281 C 148.96875 78.882812 148.945312 78.894531 148.921875 78.90625 Z M 148.921875 78.90625 "/>
<path style=" stroke:none;fill-rule:nonzero;fill:rgb(100%,100%,100%);fill-opacity:1;" d="M 130.128906 116.289062 C 130.105469 116.296875 130.082031 116.300781 130.054688 116.300781 C 129.925781 116.304688 129.820312 116.203125 129.820312 116.074219 C 129.820312 116.003906 129.699219 109.238281 128.28125 102.109375 C 126.984375 95.574219 124.300781 87.382812 118.902344 85.496094 C 118.78125 85.457031 118.71875 85.324219 118.761719 85.203125 C 118.800781 85.078125 118.933594 85.015625 119.054688 85.058594 C 123.558594 86.632812 126.816406 92.339844 128.738281 102.023438 C 130.164062 109.195312 130.285156 116 130.285156 116.066406 C 130.285156 116.167969 130.222656 116.253906 130.128906 116.289062 Z M 130.128906 116.289062 "/>
<path style=" stroke:none;fill-rule:nonzero;fill:rgb(100%,100%,100%);fill-opacity:1;" d="M 139.738281 105.355469 C 139.644531 105.390625 139.535156 105.359375 139.472656 105.277344 C 139.398438 105.171875 139.417969 105.027344 139.523438 104.949219 C 140.269531 104.398438 157.933594 91.414062 164.820312 92.652344 C 164.945312 92.675781 165.03125 92.796875 165.007812 92.921875 C 164.984375 93.046875 164.863281 93.132812 164.738281 93.109375 C 158.046875 91.90625 139.980469 105.191406 139.796875 105.324219 C 139.78125 105.339844 139.757812 105.347656 139.738281 105.355469 Z M 139.738281 105.355469 "/>
</g>
<linearGradient id="linear1" gradientUnits="userSpaceOnUse" x1="1813.7922" y1="2279.8706" x2="3230.5176" y2="2279.8706" gradientTransform="matrix(0.0539084,0,0,0.0539084,0,0)">
<stop offset="0" style="stop-color:rgb(99.607843%,27.058824%,45.882353%);stop-opacity:1;"/>
<stop offset="1" style="stop-color:rgb(99.607843%,44.705882%,27.058824%);stop-opacity:1;"/>
</linearGradient>
<clipPath id="clip4">
  <path d="M 97 79 L 175 79 L 175 166 L 97 166 Z M 97 79 "/>
</clipPath>
<clipPath id="clip5">
  <path d="M 172.941406 85.261719 C 171.796875 83.328125 169.59375 81.707031 167.558594 80.808594 C 153.136719 74.4375 139.855469 104.59375 139.640625 112.320312 C 139.421875 120.046875 137.136719 121.789062 124.183594 121.214844 C 111.226562 120.640625 114.316406 129.613281 114.269531 134.195312 C 114.226562 138.78125 115.804688 143.230469 105.851562 144.222656 C 95.902344 145.214844 97.953125 148.78125 97.953125 148.78125 C 97.953125 148.78125 107.859375 170.441406 108.835938 165 C 109.816406 159.558594 114.171875 152.375 128.429688 156.835938 C 134.570312 158.757812 144.875 159.203125 149.253906 153.464844 C 150.273438 152.125 151.4375 149.941406 151.632812 148.25 C 151.910156 145.902344 151.101562 143.683594 151.042969 141.363281 C 150.914062 135.949219 156.777344 134.128906 160.574219 131.910156 C 162.558594 130.75 164.554688 129.546875 166.296875 128.039062 C 169.910156 124.90625 170.597656 120.402344 169.5 115.921875 C 168.972656 113.773438 168.035156 111.359375 168.277344 109.109375 C 168.535156 106.691406 170.097656 103.824219 171.046875 101.585938 C 171.792969 99.828125 172.605469 98.101562 173.152344 96.269531 C 174.167969 92.859375 174.855469 88.492188 172.941406 85.261719 Z M 172.941406 85.261719 "/>
</clipPath>
<mask id="mask1">
  <g filter="url(#alpha)">
<rect x="0" y="0" width="200" height="200" style="fill:rgb(0%,0%,0%);fill-opacity:0.8;stroke:none;"/>
  </g>
</mask>
<clipPath id="clip6">
  <rect width="200" height="200"/>
</clipPath>
<g id="surface9" clip-path="url(#clip6)">
<path style=" stroke:none;fill-rule:nonzero;fill:rgb(100%,100%,100%);fill-opacity:1;" d="M 93.488281 157.332031 C 93.371094 157.332031 93.273438 157.25 93.257812 157.132812 C 93.238281 157.003906 93.328125 156.886719 93.457031 156.871094 C 93.535156 156.859375 101.378906 155.761719 110.789062 152.695312 C 119.460938 149.867188 131.28125 144.742188 138.328125 136.375 C 144.210938 129.390625 151.726562 117.042969 158.945312 102.503906 C 165.417969 89.46875 169.285156 79.496094 169.285156 77.386719 C 169.285156 77.257812 169.390625 77.152344 169.519531 77.152344 C 169.648438 77.152344 169.75 77.257812 169.75 77.386719 C 169.75 79.851562 165.1875 90.976562 159.363281 102.710938 C 152.128906 117.28125 144.589844 129.660156 138.683594 136.675781 C 131.5625 145.125 119.660156 150.292969 110.925781 153.140625 C 101.476562 156.21875 93.597656 157.320312 93.519531 157.332031 C 93.507812 157.332031 93.496094 157.332031 93.488281 157.332031 Z M 93.488281 157.332031 "/>
<path style=" stroke:none;fill-rule:nonzero;fill:rgb(100%,100%,100%);fill-opacity:1;" d="M 157.972656 105.179688 C 157.84375 105.179688 157.742188 105.085938 157.742188 104.957031 C 157.738281 104.785156 157.558594 87.949219 151.652344 82.042969 C 151.558594 81.953125 151.558594 81.804688 151.652344 81.714844 C 151.742188 81.625 151.890625 81.625 151.980469 81.714844 C 158.023438 87.757812 158.199219 104.253906 158.207031 104.953125 C 158.207031 105.082031 158.101562 105.179688 157.972656 105.179688 Z M 157.972656 105.179688 "/>
<path style=" stroke:none;fill-rule:nonzero;fill:rgb(100%,100%,100%);fill-opacity:1;" d="M 149.09375 121.375 C 149 121.375 148.910156 121.316406 148.875 121.222656 C 148.832031 121.101562 148.894531 120.96875 149.015625 120.925781 C 149.066406 120.90625 154.328125 119.035156 160.34375 118.042969 C 168.472656 116.699219 174.042969 117.511719 176.894531 120.453125 C 176.984375 120.546875 176.980469 120.691406 176.886719 120.78125 C 176.796875 120.871094 176.648438 120.871094 176.558594 120.777344 C 169.996094 114.007812 149.378906 121.289062 149.171875 121.363281 C 149.148438 121.371094 149.121094 121.375 149.09375 121.375 Z M 149.09375 121.375 "/>
<path style=" stroke:none;fill-rule:nonzero;fill:rgb(100%,100%,100%);fill-opacity:1;" d="M 118.761719 150.199219 C 118.738281 150.199219 118.710938 150.191406 118.6875 150.183594 C 118.566406 150.144531 118.5 150.011719 118.542969 149.890625 C 118.566406 149.824219 120.742188 143.417969 121.820312 136.230469 C 122.8125 129.636719 123.058594 121.027344 118.617188 117.421875 C 118.515625 117.34375 118.5 117.195312 118.582031 117.097656 C 118.664062 116.996094 118.808594 116.980469 118.910156 117.0625 C 122.613281 120.066406 123.746094 126.539062 122.28125 136.304688 C 121.195312 143.535156 119.003906 149.976562 118.984375 150.039062 C 118.949219 150.136719 118.859375 150.199219 118.761719 150.199219 Z M 118.761719 150.199219 "/>
<path style=" stroke:none;fill-rule:nonzero;fill:rgb(100%,100%,100%);fill-opacity:1;" d="M 131.503906 143.160156 C 131.402344 143.160156 131.3125 143.097656 131.28125 142.996094 C 131.242188 142.871094 131.3125 142.742188 131.4375 142.707031 C 132.328125 142.4375 153.34375 136.195312 159.40625 139.695312 C 159.515625 139.757812 159.554688 139.898438 159.488281 140.011719 C 159.425781 140.121094 159.285156 140.160156 159.171875 140.097656 C 153.28125 136.699219 131.785156 143.085938 131.570312 143.152344 C 131.546875 143.15625 131.523438 143.160156 131.503906 143.160156 Z M 131.503906 143.160156 "/>
</g>
<linearGradient id="linear2" gradientUnits="userSpaceOnUse" x1="1298.5149" y1="1945.8887" x2="880.3348" y2="1991.5082" gradientTransform="matrix(-0.0539084,0,0,0.0539084,187.379062,0)">
<stop offset="0" style="stop-color:rgb(26.666667%,29.411765%,54.901961%);stop-opacity:1;"/>
<stop offset="0.9964" style="stop-color:rgb(14.901961%,14.901961%,30.980392%);stop-opacity:1;"/>
</linearGradient>
<linearGradient id="linear3" gradientUnits="userSpaceOnUse" x1="1666.9709" y1="891.7824" x2="632.9328" y2="4412.083" gradientTransform="matrix(-0.0539084,0,0,0.0539084,187.379062,0)">
<stop offset="0" style="stop-color:rgb(26.666667%,29.411765%,54.901961%);stop-opacity:1;"/>
<stop offset="0.9964" style="stop-color:rgb(14.901961%,14.901961%,30.980392%);stop-opacity:1;"/>
</linearGradient>
<linearGradient id="linear4" gradientUnits="userSpaceOnUse" x1="1279.4926" y1="805.0746" x2="64.2169" y2="4096.4453" gradientTransform="matrix(-0.0539084,0,0,0.0539084,187.379062,0)">
<stop offset="0" style="stop-color:rgb(100%,76.862745%,26.666667%);stop-opacity:1;"/>
<stop offset="0.9964" style="stop-color:rgb(95.294118%,43.529412%,33.72549%);stop-opacity:1;"/>
</linearGradient>
<linearGradient id="linear5" gradientUnits="userSpaceOnUse" x1="8521.0596" y1="8271.5459" x2="7689.8062" y2="9055.3906" gradientTransform="matrix(-0.0539084,0,0,-0.0539084,5.388027,982.988334)">
<stop offset="0" style="stop-color:rgb(19.215686%,9.803922%,26.666667%);stop-opacity:1;"/>
<stop offset="1" style="stop-color:rgb(53.72549%,22.352941%,46.27451%);stop-opacity:1;"/>
</linearGradient>
<linearGradient id="linear6" gradientUnits="userSpaceOnUse" x1="734.2134" y1="1315.7295" x2="1400.3253" y2="711.2507" gradientTransform="matrix(0.0539084,0,0,0.0539084,0,0)">
<stop offset="0" style="stop-color:rgb(99.607843%,27.058824%,45.882353%);stop-opacity:1;"/>
<stop offset="1" style="stop-color:rgb(99.607843%,44.705882%,27.058824%);stop-opacity:1;"/>
</linearGradient>
<mask id="mask2">
  <g filter="url(#alpha)">
<rect x="0" y="0" width="200" height="200" style="fill:rgb(0%,0%,0%);fill-opacity:0.501961;stroke:none;"/>
  </g>
</mask>
<clipPath id="clip7">
  <rect width="200" height="200"/>
</clipPath>
<g id="surface12" clip-path="url(#clip7)">
<path style=" stroke:none;fill-rule:nonzero;fill:rgb(100%,100%,100%);fill-opacity:1;" d="M 36.101562 59.03125 C 36.101562 49.609375 44.085938 41.96875 53.664062 41.972656 C 62.960938 41.972656 70.296875 49.207031 70.296875 58.132812 C 70.296875 67.058594 62.960938 74.679688 53.664062 75.171875 C 44.085938 75.675781 36.101562 68.457031 36.101562 59.03125 Z M 36.101562 59.03125 "/>
</g>
<mask id="mask3">
  <g filter="url(#alpha)">
<rect x="0" y="0" width="200" height="200" style="fill:rgb(0%,0%,0%);fill-opacity:0.501961;stroke:none;"/>
  </g>
</mask>
<clipPath id="clip8">
  <rect width="200" height="200"/>
</clipPath>
<g id="surface15" clip-path="url(#clip8)">
<path style=" stroke:none;fill-rule:nonzero;fill:rgb(100%,100%,100%);fill-opacity:1;" d="M 53.003906 43.417969 C 62.300781 43.421875 69.636719 50.65625 69.636719 59.582031 C 69.636719 61.703125 69.21875 63.75 68.460938 65.648438 C 69.636719 63.363281 70.296875 60.808594 70.296875 58.132812 C 70.296875 49.207031 62.960938 41.972656 53.664062 41.972656 C 46.277344 41.96875 39.839844 46.515625 37.28125 52.917969 C 40.179688 47.289062 46.1875 43.417969 53.003906 43.417969 Z M 53.003906 43.417969 "/>
</g>
<linearGradient id="linear7" gradientUnits="userSpaceOnUse" x1="-554.9016" y1="1841.3425" x2="-422.9021" y2="1975.6991" gradientTransform="matrix(-0.0539084,0,0,0.0539084,46.048334,0)">
<stop offset="0" style="stop-color:rgb(100%,76.862745%,26.666667%);stop-opacity:1;"/>
<stop offset="0.9964" style="stop-color:rgb(95.294118%,43.529412%,33.72549%);stop-opacity:1;"/>
</linearGradient>
<linearGradient id="linear8" gradientUnits="userSpaceOnUse" x1="-227.7117" y1="3117.5774" x2="-228.8239" y2="2819.5098" gradientTransform="matrix(-0.0539084,0,0,0.0539084,46.048334,0)">
<stop offset="0" style="stop-color:rgb(0%,91.372549%,67.058824%);stop-opacity:1;"/>
<stop offset="1" style="stop-color:rgb(16.470588%,33.333333%,100%);stop-opacity:1;"/>
</linearGradient>
<linearGradient id="linear9" gradientUnits="userSpaceOnUse" x1="-3296.2217" y1="3422.2427" x2="-3294.3804" y2="3267.5801" gradientTransform="matrix(-0.0537358,0.00430728,0.00430728,0.0537358,-135.133784,3.527574)">
<stop offset="0" style="stop-color:rgb(100%,76.862745%,26.666667%);stop-opacity:1;"/>
<stop offset="0.9964" style="stop-color:rgb(95.294118%,43.529412%,33.72549%);stop-opacity:1;"/>
</linearGradient>
<linearGradient id="linear10" gradientUnits="userSpaceOnUse" x1="-51.9819" y1="3116.9216" x2="-53.0942" y2="2818.854" gradientTransform="matrix(-0.0539084,0,0,0.0539084,46.048334,0)">
<stop offset="0" style="stop-color:rgb(0%,91.372549%,67.058824%);stop-opacity:1;"/>
<stop offset="1" style="stop-color:rgb(16.470588%,33.333333%,100%);stop-opacity:1;"/>
</linearGradient>
<linearGradient id="linear11" gradientUnits="userSpaceOnUse" x1="-3117.3809" y1="3424.3682" x2="-3115.5396" y2="3269.7039" gradientTransform="matrix(-0.0537358,0.00430728,0.00430728,0.0537358,-135.133784,3.527574)">
<stop offset="0" style="stop-color:rgb(100%,76.862745%,26.666667%);stop-opacity:1;"/>
<stop offset="0.9964" style="stop-color:rgb(95.294118%,43.529412%,33.72549%);stop-opacity:1;"/>
</linearGradient>
<linearGradient id="linear12" gradientUnits="userSpaceOnUse" x1="-192.7959" y1="2437.2888" x2="-83.5422" y2="2995.8469" gradientTransform="matrix(-0.0539084,0,0,0.0539084,46.048334,0)">
<stop offset="0" style="stop-color:rgb(19.215686%,9.803922%,86.666667%);stop-opacity:1;"/>
<stop offset="1" style="stop-color:rgb(34.117647%,22.352941%,83.529412%);stop-opacity:1;"/>
</linearGradient>
<mask id="mask4">
  <g filter="url(#alpha)">
<rect x="0" y="0" width="200" height="200" style="fill:rgb(0%,0%,0%);fill-opacity:0.301961;stroke:none;"/>
  </g>
</mask>
<linearGradient id="linear13" gradientUnits="userSpaceOnUse" x1="-3385.3862" y1="2924.8333" x2="-3220.7183" y2="2924.8333" gradientTransform="matrix(-0.0537358,0.00430728,0.00430728,0.0537358,-135.133784,3.527574)">
<stop offset="0" style="stop-color:rgb(19.215686%,9.803922%,26.666667%);stop-opacity:1;"/>
<stop offset="1" style="stop-color:rgb(53.72549%,22.352941%,46.27451%);stop-opacity:1;"/>
</linearGradient>
<clipPath id="clip9">
  <rect width="200" height="200"/>
</clipPath>
<g id="surface18" clip-path="url(#clip9)">
<path style=" stroke:none;fill-rule:nonzero;fill:url(#linear13);" d="M 49.300781 124.09375 C 50.53125 124.222656 51.761719 124.351562 52.988281 124.476562 C 55.203125 128.328125 55.820312 132.335938 55.429688 134.109375 C 54.882812 136.617188 53.429688 137.421875 53.507812 139.9375 C 53.585938 142.429688 55.054688 143.078125 55.988281 146.015625 C 56.632812 148.046875 56.460938 149.917969 56.09375 153.574219 C 55.355469 160.9375 53.578125 163.191406 55.066406 165.605469 C 55.492188 166.289062 56.253906 167.105469 57.746094 167.730469 C 57.710938 168.183594 57.675781 168.636719 57.636719 169.082031 C 56.804688 169.042969 55.972656 169.007812 55.136719 168.96875 C 53.933594 166.578125 52.511719 162.957031 52.382812 158.488281 C 52.246094 153.824219 53.65625 153.203125 53.570312 148.738281 C 53.453125 142.953125 51.027344 141.410156 49.734375 134.449219 C 49.238281 131.789062 48.90625 128.3125 49.300781 124.09375 Z M 49.300781 124.09375 "/>
</g>
<linearGradient id="linear14" gradientUnits="userSpaceOnUse" x1="-3292.4216" y1="2948.3552" x2="-3042.4402" y2="2948.3552" gradientTransform="matrix(-0.0537358,0.00430728,0.00430728,0.0537358,-135.133784,3.527574)">
<stop offset="0" style="stop-color:rgb(19.215686%,9.803922%,86.666667%);stop-opacity:1;"/>
<stop offset="1" style="stop-color:rgb(34.117647%,22.352941%,83.529412%);stop-opacity:1;"/>
</linearGradient>
<linearGradient id="linear15" gradientUnits="userSpaceOnUse" x1="-3059.6494" y1="3408.3694" x2="-2875.2939" y2="4592.3438" gradientTransform="matrix(-0.0537358,0.00430728,0.00430728,0.0537358,-135.133784,3.527574)">
<stop offset="0" style="stop-color:rgb(16.470588%,33.333333%,100%);stop-opacity:1;"/>
<stop offset="1" style="stop-color:rgb(0%,91.372549%,67.058824%);stop-opacity:1;"/>
</linearGradient>
<linearGradient id="linear16" gradientUnits="userSpaceOnUse" x1="-2790.0225" y1="2978.0249" x2="-3347.9243" y2="2177.0764" gradientTransform="matrix(-0.0537358,0.00430728,0.00430728,0.0537358,-135.133784,3.527574)">
<stop offset="0" style="stop-color:rgb(0%,91.372549%,67.058824%);stop-opacity:1;"/>
<stop offset="1" style="stop-color:rgb(16.470588%,33.333333%,100%);stop-opacity:1;"/>
</linearGradient>
<linearGradient id="linear17" gradientUnits="userSpaceOnUse" x1="167.4404" y1="2228.1665" x2="63.6492" y2="2368.3755" gradientTransform="matrix(-0.0539084,0,0,0.0539084,46.048334,0)">
<stop offset="0" style="stop-color:rgb(100%,76.862745%,26.666667%);stop-opacity:1;"/>
<stop offset="0.9964" style="stop-color:rgb(95.294118%,43.529412%,33.72549%);stop-opacity:1;"/>
</linearGradient>
<linearGradient id="linear18" gradientUnits="userSpaceOnUse" x1="-4522.6353" y1="5246.9668" x2="-4522.6353" y2="5087.4795" gradientTransform="matrix(-0.0420216,0.0337736,0.0337736,0.0420216,-314.345784,33.542022)">
<stop offset="0" style="stop-color:rgb(100%,76.862745%,26.666667%);stop-opacity:1;"/>
<stop offset="0.9964" style="stop-color:rgb(95.294118%,43.529412%,33.72549%);stop-opacity:1;"/>
</linearGradient>
<linearGradient id="linear19" gradientUnits="userSpaceOnUse" x1="-3260.1211" y1="2034.6805" x2="-3326.8308" y2="1865.2505" gradientTransform="matrix(-0.0537358,0.00430728,0.00430728,0.0537358,-135.133784,3.527574)">
<stop offset="0" style="stop-color:rgb(26.666667%,29.411765%,54.901961%);stop-opacity:1;"/>
<stop offset="0.9964" style="stop-color:rgb(24.313725%,25.490196%,46.666667%);stop-opacity:1;"/>
</linearGradient>
<linearGradient id="linear20" gradientUnits="userSpaceOnUse" x1="-4635.3701" y1="5201.0044" x2="-4560.8037" y2="5056.0146" gradientTransform="matrix(-0.0420216,0.0337736,0.0337736,0.0420216,-314.345784,33.542022)">
<stop offset="0" style="stop-color:rgb(100%,76.862745%,26.666667%);stop-opacity:1;"/>
<stop offset="0.9964" style="stop-color:rgb(95.294118%,43.529412%,33.72549%);stop-opacity:1;"/>
</linearGradient>
<linearGradient id="linear21" gradientUnits="userSpaceOnUse" x1="1315.825" y1="1978.0085" x2="2658.8752" y2="1978.0085" gradientTransform="matrix(0.0539084,0,0,0.0539084,0,0)">
<stop offset="0" style="stop-color:rgb(19.215686%,9.803922%,26.666667%);stop-opacity:1;"/>
<stop offset="1" style="stop-color:rgb(53.72549%,22.352941%,46.27451%);stop-opacity:1;"/>
</linearGradient>
<linearGradient id="linear22" gradientUnits="userSpaceOnUse" x1="2132.3562" y1="4619.5459" x2="1972.2142" y2="1845.6332" gradientTransform="matrix(0.0539084,0,0,0.0539084,0,0)">
<stop offset="0.0036" style="stop-color:rgb(95.294118%,43.529412%,33.72549%);stop-opacity:1;"/>
<stop offset="1" style="stop-color:rgb(100%,76.862745%,26.666667%);stop-opacity:1;"/>
</linearGradient>
<mask id="mask5">
  <g filter="url(#alpha)">
<rect x="0" y="0" width="200" height="200" style="fill:rgb(0%,0%,0%);fill-opacity:0.101961;stroke:none;"/>
  </g>
</mask>
<linearGradient id="linear23" gradientUnits="userSpaceOnUse" x1="1496.9965" y1="1831.9537" x2="2463.3054" y2="1831.9537" gradientTransform="matrix(0.0539084,0,0,0.0539084,0,0)">
<stop offset="0.0036" style="stop-color:rgb(95.294118%,43.529412%,33.72549%);stop-opacity:1;"/>
<stop offset="1" style="stop-color:rgb(100%,76.862745%,26.666667%);stop-opacity:1;"/>
</linearGradient>
<clipPath id="clip10">
  <rect width="200" height="200"/>
</clipPath>
<g id="surface21" clip-path="url(#clip10)">
<path style=" stroke:none;fill-rule:nonzero;fill:url(#linear23);" d="M 132.785156 96.613281 C 132.671875 96.578125 132.546875 96.558594 132.414062 96.554688 L 83.726562 95.203125 C 83.085938 95.183594 82.5 95.628906 82.410156 96.285156 L 81.453125 103.375 C 81.453125 103.390625 81.449219 103.410156 81.449219 103.425781 C 80.953125 103.289062 80.636719 102.820312 80.710938 102.257812 L 81.667969 95.171875 C 81.757812 94.515625 82.34375 94.070312 82.984375 94.089844 L 131.671875 95.441406 C 132.363281 95.460938 132.859375 95.941406 132.785156 96.613281 Z M 132.785156 96.613281 "/>
</g>
<mask id="mask6">
  <g filter="url(#alpha)">
<rect x="0" y="0" width="200" height="200" style="fill:rgb(0%,0%,0%);fill-opacity:0.101961;stroke:none;"/>
  </g>
</mask>
<linearGradient id="linear24" gradientUnits="userSpaceOnUse" x1="1462.837" y1="2085.4709" x2="2428.3989" y2="2085.4709" gradientTransform="matrix(0.0539084,0,0,0.0539084,0,0)">
<stop offset="0.0036" style="stop-color:rgb(95.294118%,43.529412%,33.72549%);stop-opacity:1;"/>
<stop offset="1" style="stop-color:rgb(100%,76.862745%,26.666667%);stop-opacity:1;"/>
</linearGradient>
<clipPath id="clip11">
  <rect width="200" height="200"/>
</clipPath>
<g id="surface24" clip-path="url(#clip11)">
<path style=" stroke:none;fill-rule:nonzero;fill:url(#linear24);" d="M 130.910156 110.742188 C 130.792969 110.699219 130.667969 110.667969 130.535156 110.664062 L 81.898438 108.703125 C 81.257812 108.675781 80.664062 109.242188 80.578125 109.898438 L 79.613281 117.125 C 79.605469 117.171875 79.601562 117.214844 79.601562 117.261719 C 79.109375 117.101562 78.796875 116.570312 78.871094 116.011719 L 79.835938 108.785156 C 79.921875 108.125 80.515625 107.5625 81.15625 107.589844 L 129.792969 109.550781 C 130.441406 109.578125 130.914062 110.121094 130.910156 110.742188 Z M 130.910156 110.742188 "/>
</g>
<linearGradient id="linear25" gradientUnits="userSpaceOnUse" x1="1937.4349" y1="2179.0728" x2="1721.5884" y2="3547.8577" gradientTransform="matrix(0.0539084,0,0,0.0539084,0,0)">
<stop offset="0.0036" style="stop-color:rgb(95.294118%,43.529412%,33.72549%);stop-opacity:1;"/>
<stop offset="1" style="stop-color:rgb(100%,76.862745%,26.666667%);stop-opacity:1;"/>
</linearGradient>
<linearGradient id="linear26" gradientUnits="userSpaceOnUse" x1="2008.4357" y1="753.9221" x2="2054.5334" y2="2126.605" gradientTransform="matrix(0.0539084,0,0,0.0539084,0,0)">
<stop offset="0.0036" style="stop-color:rgb(95.294118%,43.529412%,33.72549%);stop-opacity:1;"/>
<stop offset="1" style="stop-color:rgb(100%,76.862745%,26.666667%);stop-opacity:1;"/>
</linearGradient>
<mask id="mask7">
  <g filter="url(#alpha)">
<rect x="0" y="0" width="200" height="200" style="fill:rgb(0%,0%,0%);fill-opacity:0.4;stroke:none;"/>
  </g>
</mask>
<clipPath id="clip12">
  <rect width="200" height="200"/>
</clipPath>
<g id="surface27" clip-path="url(#clip12)">
<path style=" stroke:none;fill-rule:nonzero;fill:rgb(100%,100%,100%);fill-opacity:1;" d="M 142.1875 63.421875 L 131.0625 148.21875 C 130.878906 149.605469 129.503906 150.640625 128.09375 150.53125 L 94.898438 147.984375 C 93.320312 146.367188 92.023438 144.429688 91.097656 142.105469 C 90.640625 140.964844 90.308594 139.734375 90.085938 138.441406 C 89.46875 134.859375 89.707031 130.792969 90.609375 126.796875 C 91.300781 123.71875 92.382812 120.683594 93.769531 117.945312 C 94.878906 115.753906 96.183594 113.75 97.640625 112.070312 C 98.691406 110.855469 99.824219 109.679688 101.019531 108.527344 C 102.464844 107.132812 103.996094 105.773438 105.578125 104.425781 C 109.265625 101.285156 113.214844 98.214844 116.871094 94.972656 C 125.304688 87.488281 132.144531 79.128906 130.5 67.203125 C 130.445312 66.828125 129.933594 63.949219 129.277344 60.96875 L 139.859375 60.9375 C 141.277344 60.933594 142.367188 62.046875 142.1875 63.421875 Z M 142.1875 63.421875 "/>
</g>
</defs>
<g id="surface1">
<path style=" stroke:none;fill-rule:nonzero;fill:rgb(95.686275%,96.862745%,98.039216%);fill-opacity:1;" d="M 171.964844 82.976562 C 170.328125 62.835938 169.511719 52.765625 165.710938 46.253906 C 154.828125 27.597656 123.179688 23.160156 103.195312 24.863281 C 76.4375 27.140625 45.824219 42.523438 32.351562 72.222656 C 20.113281 99.195312 25.753906 129.730469 44.195312 149.703125 C 78 186.320312 147.730469 179.78125 164.765625 155.757812 C 171.5625 146.167969 172.050781 130.851562 172.773438 108.355469 C 173.117188 97.527344 172.441406 88.894531 171.964844 82.976562 Z M 171.964844 82.976562 "/>
<path style=" stroke:none;fill-rule:nonzero;fill:url(#linear0);" d="M 159.140625 36.851562 C 157.410156 35.417969 154.785156 34.640625 152.570312 34.480469 C 136.84375 33.367188 134.550781 66.234375 136.960938 73.582031 C 139.371094 80.925781 137.808594 83.339844 125.421875 87.183594 C 113.039062 91.023438 118.980469 98.425781 120.488281 102.753906 C 122 107.078125 124.988281 110.734375 115.960938 115.035156 C 106.933594 119.335938 110.070312 121.996094 110.070312 121.996094 C 110.070312 121.996094 126.71875 139.027344 125.800781 133.574219 C 124.878906 128.125 126.546875 119.890625 141.472656 119.265625 C 147.902344 118.996094 157.75 115.929688 159.929688 109.042969 C 160.4375 107.441406 160.789062 104.992188 160.402344 103.332031 C 159.867188 101.03125 158.355469 99.21875 157.519531 97.050781 C 155.5625 92.003906 160.464844 88.304688 163.289062 84.929688 C 164.761719 83.167969 166.234375 81.363281 167.363281 79.355469 C 169.703125 75.183594 168.828125 70.710938 166.277344 66.867188 C 165.054688 65.023438 163.355469 63.070312 162.820312 60.871094 C 162.246094 58.507812 162.746094 55.28125 162.882812 52.851562 C 162.988281 50.945312 163.171875 49.046875 163.0625 47.136719 C 162.863281 43.582031 162.03125 39.242188 159.140625 36.851562 Z M 159.140625 36.851562 "/>
<g clip-path="url(#clip1)" clip-rule="nonzero">
<g clip-path="url(#clip2)" clip-rule="nonzero">
<use xlink:href="#surface6" mask="url(#mask0)"/>
</g>
</g>
<path style=" stroke:none;fill-rule:nonzero;fill:url(#linear1);" d="M 172.941406 85.261719 C 171.796875 83.328125 169.59375 81.707031 167.558594 80.808594 C 153.136719 74.4375 139.855469 104.59375 139.640625 112.320312 C 139.421875 120.046875 137.136719 121.789062 124.183594 121.214844 C 111.226562 120.640625 114.316406 129.613281 114.269531 134.195312 C 114.226562 138.78125 115.804688 143.230469 105.851562 144.222656 C 95.902344 145.214844 97.953125 148.78125 97.953125 148.78125 C 97.953125 148.78125 107.859375 170.441406 108.835938 165 C 109.816406 159.558594 114.171875 152.375 128.429688 156.835938 C 134.570312 158.757812 144.875 159.203125 149.253906 153.464844 C 150.273438 152.125 151.4375 149.941406 151.632812 148.25 C 151.910156 145.902344 151.101562 143.683594 151.042969 141.363281 C 150.914062 135.949219 156.777344 134.128906 160.574219 131.910156 C 162.558594 130.75 164.554688 129.546875 166.296875 128.039062 C 169.910156 124.90625 170.597656 120.402344 169.5 115.921875 C 168.972656 113.773438 168.035156 111.359375 168.277344 109.109375 C 168.535156 106.691406 170.097656 103.824219 171.046875 101.585938 C 171.792969 99.828125 172.605469 98.101562 173.152344 96.269531 C 174.167969 92.859375 174.855469 88.492188 172.941406 85.261719 Z M 172.941406 85.261719 "/>
<g clip-path="url(#clip4)" clip-rule="nonzero">
<g clip-path="url(#clip5)" clip-rule="nonzero">
<use xlink:href="#surface9" mask="url(#mask1)"/>
</g>
</g>
<path style=" stroke:none;fill-rule:nonzero;fill:rgb(84.705882%,87.058824%,90.980392%);fill-opacity:1;" d="M 124.601562 30.941406 L 124.4375 32.128906 C 123.886719 32.15625 123.34375 32.226562 122.816406 32.34375 L 122.367188 31.234375 C 122.242188 30.933594 121.898438 30.789062 121.59375 30.914062 L 119.6875 31.699219 C 119.382812 31.824219 119.230469 32.175781 119.355469 32.476562 L 119.804688 33.601562 C 119.34375 33.894531 118.90625 34.226562 118.5 34.597656 L 117.542969 33.855469 C 117.285156 33.652344 116.910156 33.703125 116.703125 33.964844 L 115.421875 35.605469 C 115.21875 35.867188 115.261719 36.242188 115.519531 36.445312 L 116.480469 37.191406 C 116.226562 37.671875 116.011719 38.179688 115.835938 38.710938 L 114.617188 38.550781 C 114.289062 38.507812 113.984375 38.738281 113.933594 39.070312 L 113.628906 41.136719 C 113.578125 41.46875 113.804688 41.769531 114.132812 41.8125 L 115.359375 41.972656 C 115.371094 42.53125 115.433594 43.082031 115.542969 43.617188 L 114.394531 44.09375 C 114.085938 44.222656 113.933594 44.578125 114.054688 44.890625 L 114.820312 46.832031 C 114.941406 47.144531 115.292969 47.292969 115.601562 47.160156 L 116.75 46.679688 C 117.039062 47.152344 117.371094 47.59375 117.734375 48.007812 L 116.96875 49 C 116.761719 49.269531 116.808594 49.652344 117.070312 49.859375 L 118.710938 51.148438 C 118.972656 51.351562 119.355469 51.300781 119.5625 51.03125 L 120.316406 50.042969 C 120.800781 50.300781 121.3125 50.515625 121.84375 50.6875 L 121.671875 51.917969 C 121.625 52.253906 121.855469 52.566406 122.1875 52.609375 L 124.257812 52.878906 C 124.589844 52.921875 124.898438 52.683594 124.941406 52.347656 L 125.109375 51.125 C 125.671875 51.101562 126.226562 51.027344 126.765625 50.90625 L 127.21875 52.035156 C 127.347656 52.347656 127.699219 52.496094 128.007812 52.367188 L 129.941406 51.546875 C 130.25 51.417969 130.398438 51.058594 130.269531 50.746094 L 129.816406 49.621094 C 130.285156 49.316406 130.730469 48.972656 131.144531 48.589844 L 132.085938 49.324219 C 132.351562 49.53125 132.730469 49.476562 132.933594 49.210938 L 134.199219 47.53125 C 134.398438 47.265625 134.351562 46.882812 134.085938 46.675781 L 133.152344 45.953125 C 133.40625 45.457031 133.617188 44.933594 133.785156 44.390625 L 134.957031 44.542969 C 135.285156 44.589844 135.585938 44.351562 135.628906 44.019531 L 135.894531 41.949219 C 135.933594 41.617188 135.703125 41.316406 135.375 41.273438 L 134.210938 41.121094 C 134.1875 40.554688 134.113281 40 133.996094 39.460938 L 135.078125 39.007812 C 135.382812 38.882812 135.527344 38.53125 135.398438 38.222656 L 134.609375 36.3125 C 134.480469 36.007812 134.132812 35.863281 133.832031 35.992188 L 132.742188 36.445312 C 132.445312 35.980469 132.109375 35.539062 131.738281 35.132812 L 132.457031 34.195312 C 132.65625 33.933594 132.609375 33.5625 132.347656 33.359375 L 130.722656 32.113281 C 130.460938 31.914062 130.089844 31.960938 129.890625 32.222656 L 129.164062 33.160156 C 128.6875 32.914062 128.179688 32.707031 127.652344 32.542969 L 127.8125 31.363281 C 127.855469 31.035156 127.628906 30.738281 127.304688 30.695312 L 125.273438 30.429688 C 124.949219 30.386719 124.648438 30.617188 124.601562 30.941406 Z M 117.445312 40.574219 C 118.03125 36.488281 121.777344 33.625 125.820312 34.15625 C 129.859375 34.6875 132.699219 38.414062 132.15625 42.503906 C 131.609375 46.617188 127.851562 49.539062 123.769531 49.003906 C 119.683594 48.464844 116.851562 44.683594 117.445312 40.574219 Z M 117.445312 40.574219 "/>
<path style=" stroke:none;fill-rule:nonzero;fill:rgb(84.705882%,87.058824%,90.980392%);fill-opacity:1;" d="M 93.464844 30.296875 L 93.207031 32.136719 C 92.355469 32.175781 91.515625 32.285156 90.699219 32.46875 L 90.003906 30.753906 C 89.816406 30.285156 89.28125 30.0625 88.808594 30.257812 L 85.863281 31.46875 C 85.390625 31.664062 85.160156 32.203125 85.347656 32.671875 L 86.046875 34.410156 C 85.332031 34.863281 84.65625 35.378906 84.03125 35.949219 L 82.546875 34.800781 C 82.148438 34.492188 81.566406 34.566406 81.25 34.972656 L 79.269531 37.507812 C 78.953125 37.910156 79.019531 38.492188 79.421875 38.804688 L 80.90625 39.960938 C 80.511719 40.703125 80.179688 41.488281 79.910156 42.308594 L 78.023438 42.058594 C 77.519531 41.992188 77.046875 42.351562 76.96875 42.863281 L 76.496094 46.058594 C 76.421875 46.570312 76.769531 47.042969 77.277344 47.109375 L 79.171875 47.355469 C 79.191406 48.21875 79.285156 49.066406 79.453125 49.894531 L 77.679688 50.632812 C 77.199219 50.832031 76.964844 51.382812 77.152344 51.863281 L 78.335938 54.867188 C 78.527344 55.351562 79.070312 55.578125 79.546875 55.375 L 81.324219 54.632812 C 81.769531 55.359375 82.28125 56.046875 82.847656 56.683594 L 81.664062 58.21875 C 81.34375 58.636719 81.410156 59.230469 81.816406 59.546875 L 84.355469 61.539062 C 84.761719 61.855469 85.347656 61.777344 85.667969 61.359375 L 86.839844 59.832031 C 87.585938 60.230469 88.375 60.5625 89.199219 60.824219 L 88.933594 62.730469 C 88.859375 63.253906 89.21875 63.730469 89.730469 63.796875 L 92.933594 64.21875 C 93.445312 64.285156 93.917969 63.914062 93.988281 63.394531 L 94.246094 61.503906 C 95.117188 61.464844 95.976562 61.351562 96.808594 61.164062 L 97.511719 62.914062 C 97.707031 63.398438 98.25 63.625 98.730469 63.425781 L 101.71875 62.15625 C 102.195312 61.957031 102.421875 61.398438 102.226562 60.914062 L 101.523438 59.179688 C 102.253906 58.710938 102.9375 58.175781 103.578125 57.585938 L 105.035156 58.71875 C 105.445312 59.039062 106.03125 58.957031 106.34375 58.542969 L 108.300781 55.949219 C 108.613281 55.535156 108.535156 54.941406 108.128906 54.628906 L 106.679688 53.503906 C 107.074219 52.742188 107.402344 51.933594 107.660156 51.09375 L 109.472656 51.332031 C 109.980469 51.398438 110.445312 51.035156 110.511719 50.519531 L 110.921875 47.316406 C 110.984375 46.804688 110.628906 46.335938 110.121094 46.269531 L 108.316406 46.035156 C 108.28125 45.160156 108.171875 44.304688 107.984375 43.472656 L 109.660156 42.769531 C 110.128906 42.574219 110.351562 42.03125 110.15625 41.558594 L 108.933594 38.601562 C 108.738281 38.132812 108.199219 37.910156 107.730469 38.105469 L 106.046875 38.804688 C 105.589844 38.085938 105.070312 37.40625 104.496094 36.78125 L 105.605469 35.328125 C 105.917969 34.925781 105.839844 34.347656 105.4375 34.039062 L 102.925781 32.109375 C 102.523438 31.800781 101.949219 31.875 101.636719 32.277344 L 100.519531 33.730469 C 99.777344 33.347656 98.992188 33.027344 98.175781 32.773438 L 98.425781 30.949219 C 98.492188 30.445312 98.144531 29.984375 97.640625 29.917969 L 94.5 29.507812 C 94 29.441406 93.535156 29.792969 93.464844 30.296875 Z M 82.394531 45.191406 C 83.300781 38.875 89.097656 34.449219 95.34375 35.269531 C 101.589844 36.085938 105.980469 41.851562 105.140625 48.175781 C 104.296875 54.535156 98.488281 59.050781 92.171875 58.222656 C 85.855469 57.394531 81.480469 51.542969 82.394531 45.191406 Z M 82.394531 45.191406 "/>
<path style=" stroke:none;fill-rule:nonzero;fill:url(#linear2);" d="M 90.460938 48.101562 L 76.726562 162.253906 C 76.519531 163.96875 77.699219 165.5 79.351562 165.664062 L 136.554688 171.945312 C 140.058594 172.164062 141.980469 170.371094 142.195312 168.554688 L 156.613281 47.1875 C 156.828125 45.378906 155.109375 43.742188 151.589844 43.742188 L 93.867188 44.957031 C 92.195312 44.984375 90.664062 46.398438 90.460938 48.101562 Z M 90.460938 48.101562 "/>
<path style=" stroke:none;fill-rule:nonzero;fill:url(#linear3);" d="M 87.886719 47.90625 L 74.078125 162.628906 C 73.871094 164.351562 75.054688 165.890625 76.710938 166.058594 L 136.015625 171.960938 C 137.875 172.148438 139.578125 170.800781 139.796875 168.972656 L 154.296875 46.980469 C 154.511719 45.164062 153.148438 43.699219 151.265625 43.730469 L 91.304688 44.742188 C 89.628906 44.773438 88.089844 46.195312 87.886719 47.90625 Z M 87.886719 47.90625 "/>
<path style=" stroke:none;fill-rule:nonzero;fill:rgb(84.705882%,87.058824%,90.980392%);fill-opacity:1;" d="M 89.011719 54.234375 L 76.210938 160.605469 C 76.019531 162.214844 77.125 163.652344 78.679688 163.800781 L 134.453125 169.222656 C 136.179688 169.390625 137.765625 168.136719 137.96875 166.433594 L 151.367188 53.742188 C 151.570312 52.046875 150.300781 50.675781 148.554688 50.695312 L 92.210938 51.296875 C 90.640625 51.3125 89.203125 52.636719 89.011719 54.234375 Z M 89.011719 54.234375 "/>
<path style=" stroke:none;fill-rule:nonzero;fill:url(#linear4);" d="M 118.917969 47.828125 C 118.847656 48.4375 119.285156 48.925781 119.898438 48.917969 C 120.515625 48.910156 121.074219 48.410156 121.144531 47.796875 C 121.21875 47.183594 120.777344 46.695312 120.164062 46.707031 C 119.550781 46.714844 118.992188 47.214844 118.917969 47.828125 Z M 118.917969 47.828125 "/>
<path style=" stroke:none;fill-rule:nonzero;fill:rgb(100%,100%,100%);fill-opacity:1;" d="M 98.652344 125.636719 C 110.070312 104.527344 127.128906 98.207031 132.265625 76.453125 C 135.039062 64.691406 133.148438 53.4375 129.964844 44.089844 L 151.265625 43.730469 C 153.148438 43.699219 154.511719 45.164062 154.296875 46.980469 L 139.796875 168.972656 C 139.578125 170.800781 137.875 172.148438 136.015625 171.960938 L 89.398438 167.320312 C 89.050781 148.40625 93.5625 135.046875 98.652344 125.636719 Z M 98.652344 125.636719 "/>
<path style=" stroke:none;fill-rule:nonzero;fill:url(#linear5);" d="M 31.582031 60.011719 C 31.582031 48.796875 41.367188 39.703125 53.109375 39.703125 C 64.503906 39.707031 73.496094 48.320312 73.496094 58.941406 C 73.496094 69.566406 64.503906 78.640625 53.109375 79.222656 C 41.367188 79.824219 31.582031 71.230469 31.582031 60.011719 Z M 31.582031 60.011719 "/>
<path style=" stroke:none;fill-rule:nonzero;fill:url(#linear6);" d="M 32.847656 59.117188 C 32.847656 47.902344 42.351562 38.808594 53.753906 38.808594 C 64.816406 38.8125 73.550781 47.425781 73.550781 58.046875 C 73.550781 68.671875 64.816406 77.746094 53.753906 78.328125 C 42.351562 78.929688 32.847656 70.335938 32.847656 59.117188 Z M 32.847656 59.117188 "/>
<use xlink:href="#surface12" mask="url(#mask2)"/>
<use xlink:href="#surface15" mask="url(#mask3)"/>
<path style=" stroke:none;fill-rule:nonzero;fill:rgb(100%,100%,100%);fill-opacity:1;" d="M 45.722656 56.726562 L 45.722656 64.949219 C 45.722656 67.328125 47.722656 69.203125 50.183594 69.140625 L 56.28125 68.980469 C 58.714844 68.917969 60.679688 66.960938 60.679688 64.605469 L 60.679688 56.46875 Z M 51.339844 65.230469 L 52.472656 61.792969 C 51.988281 61.542969 51.660156 61.050781 51.660156 60.472656 C 51.660156 59.628906 52.367188 58.933594 53.238281 58.914062 C 54.109375 58.898438 54.816406 59.570312 54.816406 60.410156 C 54.816406 60.984375 54.488281 61.492188 54.003906 61.761719 L 55.132812 65.140625 Z M 51.339844 65.230469 "/>
<path style=" stroke:none;fill-rule:nonzero;fill:rgb(100%,100%,100%);fill-opacity:1;" d="M 58.945312 55.753906 C 58.296875 55.765625 57.773438 55.265625 57.773438 54.636719 C 57.773438 52.21875 55.742188 50.277344 53.238281 50.308594 C 50.726562 50.339844 48.675781 52.347656 48.675781 54.78125 C 48.675781 55.414062 48.144531 55.9375 47.488281 55.945312 C 46.832031 55.957031 46.296875 55.453125 46.296875 54.820312 C 46.296875 51.117188 49.417969 48.066406 53.238281 48.023438 C 57.039062 47.984375 60.113281 50.929688 60.113281 54.597656 C 60.113281 55.226562 59.589844 55.742188 58.945312 55.753906 Z M 58.945312 55.753906 "/>
<path style=" stroke:none;fill-rule:nonzero;fill:url(#linear7);" d="M 73.074219 102.667969 C 73.074219 102.667969 72.660156 101.113281 72.953125 100.714844 C 73.246094 100.316406 75.042969 98.726562 74.871094 99.246094 C 74.699219 99.765625 74.441406 100.109375 74.441406 100.109375 C 74.441406 100.109375 75.40625 100.558594 74.785156 101.234375 C 74.164062 101.910156 73.957031 102.0625 73.921875 102.667969 C 73.886719 103.273438 73.488281 103.480469 73.074219 102.667969 Z M 73.074219 102.667969 "/>
<path style=" stroke:none;fill-rule:nonzero;fill:url(#linear8);" d="M 55.804688 169.828125 C 55.804688 169.828125 55.585938 171.171875 55.613281 171.652344 C 55.640625 172.128906 60.953125 172.375 61.007812 172.015625 C 61.0625 171.65625 60.128906 171.085938 59.472656 170.886719 C 58.816406 170.683594 56.898438 170.148438 56.898438 170.148438 Z M 55.804688 169.828125 "/>
<path style=" stroke:none;fill-rule:nonzero;fill:url(#linear9);" d="M 57.09375 168.484375 L 56.925781 170.160156 C 56.925781 170.160156 56.308594 170.566406 55.761719 170.25 L 55.492188 168.429688 Z M 57.09375 168.484375 "/>
<path style=" stroke:none;fill-rule:nonzero;fill:url(#linear10);" d="M 46.324219 172.007812 C 46.324219 172.007812 46.101562 173.355469 46.128906 173.832031 C 46.160156 174.3125 51.472656 174.554688 51.527344 174.199219 C 51.582031 173.839844 50.648438 173.269531 49.992188 173.066406 C 49.335938 172.867188 47.414062 172.328125 47.414062 172.328125 Z M 46.324219 172.007812 "/>
<path style=" stroke:none;fill-rule:nonzero;fill:url(#linear11);" d="M 47.613281 170.667969 L 47.441406 172.339844 C 47.441406 172.339844 46.824219 172.746094 46.28125 172.433594 L 46.007812 170.613281 Z M 47.613281 170.667969 "/>
<path style=" stroke:none;fill-rule:nonzero;fill:url(#linear12);" d="M 56.128906 124.804688 C 56.742188 126.050781 57.359375 127.296875 57.972656 128.542969 C 58.464844 135.648438 58.710938 143.375 58.554688 151.640625 C 58.4375 157.789062 58.109375 163.613281 57.636719 169.082031 C 56.804688 169.042969 55.972656 169.007812 55.136719 168.96875 C 53.933594 166.578125 52.511719 162.957031 52.382812 158.488281 C 52.246094 153.824219 53.65625 153.203125 53.570312 148.742188 C 53.453125 142.953125 51.027344 141.410156 49.734375 134.449219 C 49.238281 131.789062 48.90625 128.3125 49.300781 124.09375 C 51.578125 124.332031 53.855469 124.570312 56.128906 124.804688 Z M 56.128906 124.804688 "/>
<use xlink:href="#surface18" mask="url(#mask4)"/>
<path style=" stroke:none;fill-rule:nonzero;fill:url(#linear14);" d="M 52.824219 127.046875 C 51.671875 133.335938 50.652344 140.066406 49.859375 147.203125 C 48.898438 155.820312 48.386719 163.941406 48.1875 171.484375 C 47.273438 171.511719 46.359375 171.539062 45.445312 171.5625 C 41.839844 164.4375 41.621094 159.605469 42.140625 156.460938 C 42.339844 155.246094 42.882812 152.871094 43.007812 149.320312 C 43.09375 146.84375 42.9375 144.957031 42.738281 142.695312 C 42.308594 137.726562 41.78125 136.640625 41.707031 132.84375 C 41.636719 129.277344 41.621094 127.472656 42.640625 126.421875 C 45.320312 123.648438 52.296875 126.800781 52.824219 127.046875 Z M 52.824219 127.046875 "/>
<path style=" stroke:none;fill-rule:nonzero;fill:rgb(24.705882%,66.27451%,96.078431%);fill-opacity:1;" d="M 72.59375 102.429688 C 73.203125 102.386719 73.8125 102.34375 74.417969 102.300781 C 75.855469 108.097656 74.824219 113.71875 71.589844 115.789062 C 66.53125 119.015625 57.132812 112.929688 55.09375 106.304688 C 54.203125 103.394531 54.40625 99.199219 56.191406 98.382812 C 56.6875 98.15625 57.457031 98.121094 59.125 99.058594 C 64.105469 101.851562 64.234375 107.136719 66.765625 107.585938 C 67.890625 107.785156 69.710938 107.066406 72.59375 102.429688 Z M 72.59375 102.429688 "/>
<path style=" stroke:none;fill-rule:nonzero;fill:url(#linear15);" d="M 58.671875 129.816406 C 59.546875 128.363281 58.449219 126.960938 58.199219 124.207031 C 57.914062 121.089844 59.117188 120.566406 60.304688 115.398438 C 61.09375 111.957031 61.855469 108.65625 60.949219 104.789062 C 60.515625 102.9375 59.777344 99.796875 57.175781 98.277344 C 55.835938 97.496094 54.003906 97.574219 50.394531 97.761719 C 45.929688 97.996094 43.699219 98.113281 42.035156 98.988281 C 41.792969 99.117188 36.726562 101.871094 36.378906 106.359375 C 36.023438 110.929688 41 111.542969 41.664062 117.636719 C 41.960938 120.371094 41.429688 124.578125 41.085938 127.308594 C 40.757812 129.929688 40.527344 130.597656 41.046875 131.390625 C 42.292969 133.304688 46.105469 132.757812 53.738281 131.667969 C 56.730469 131.242188 58.019531 130.902344 58.671875 129.816406 Z M 58.671875 129.816406 "/>
<path style=" stroke:none;fill-rule:nonzero;fill:url(#linear16);" d="M 47.0625 116.65625 C 46.738281 117.84375 45.578125 118.730469 44.773438 121.621094 C 44.597656 122.242188 43.355469 126.683594 44.964844 127.777344 C 45.898438 128.410156 46.734375 127.214844 48.992188 127.058594 C 52.90625 126.785156 54.769531 130.078125 57.328125 129.179688 C 57.769531 129.023438 58.355469 128.691406 58.941406 127.925781 C 59.058594 128.613281 59.035156 129.210938 58.671875 129.816406 C 58.019531 130.902344 56.730469 131.242188 53.738281 131.667969 C 46.105469 132.757812 42.292969 133.304688 41.046875 131.390625 C 40.527344 130.597656 40.757812 129.929688 41.085938 127.308594 C 41.429688 124.578125 41.960938 120.371094 41.664062 117.636719 C 41 111.542969 36.023438 110.929688 36.378906 106.359375 C 36.472656 105.140625 36.921875 104.050781 37.523438 103.105469 C 43.835938 105.660156 48.078125 112.925781 47.0625 116.65625 Z M 47.0625 116.65625 "/>
<path style=" stroke:none;fill-rule:nonzero;fill:url(#linear17);" d="M 39.089844 125.644531 L 40.351562 126.453125 C 40.578125 126.1875 41.105469 125.660156 41.925781 125.480469 C 42.847656 125.277344 43.90625 125.570312 43.933594 125.863281 C 43.953125 126.101562 43.308594 126.339844 43.207031 126.375 C 42.402344 126.671875 41.804688 126.425781 41.476562 126.75 C 41.363281 126.863281 41.21875 127.078125 40.886719 127.273438 C 40.800781 127.324219 40.710938 127.371094 40.664062 127.390625 C 40.125 127.601562 39.203125 126.664062 39.125 126.582031 Z M 39.089844 125.644531 "/>
<path style=" stroke:none;fill-rule:nonzero;fill:rgb(24.705882%,66.27451%,96.078431%);fill-opacity:1;" d="M 42.820312 109.082031 C 43.734375 106.894531 44.367188 103.542969 42.925781 98.566406 C 33.417969 102.3125 28.566406 111.195312 30.460938 118.238281 C 32.019531 124.039062 37.699219 126.867188 38.964844 127.460938 C 39.261719 126.792969 39.554688 126.121094 39.851562 125.449219 C 38.382812 123.816406 36.730469 121.398438 36.960938 118.640625 C 37.285156 114.816406 40.972656 113.511719 42.820312 109.082031 Z M 42.820312 109.082031 "/>
<path style=" stroke:none;fill-rule:nonzero;fill:url(#linear18);" d="M 50.160156 93.261719 C 50.160156 93.261719 50.085938 94.925781 49.570312 96.171875 C 49.101562 97.296875 46.648438 98.003906 46.152344 98.253906 C 45.652344 98.507812 47.082031 99.242188 48.519531 99.386719 C 49.953125 99.53125 54.054688 99.203125 54.792969 98.660156 C 55.53125 98.113281 54.199219 98.15625 53.175781 97.78125 C 52.148438 97.402344 51.558594 95.398438 51.738281 94.492188 C 51.917969 93.582031 50.160156 93.261719 50.160156 93.261719 Z M 50.160156 93.261719 "/>
<path style=" stroke:none;fill-rule:nonzero;fill:url(#linear19);" d="M 52.429688 92.660156 C 53.175781 91.925781 53.28125 91.839844 53.359375 91.589844 C 53.6875 90.574219 52.898438 89.183594 51.867188 88.839844 C 51.8125 88.820312 51.121094 88.601562 50.855469 88.902344 C 50.632812 89.15625 50.960938 89.507812 50.804688 90 C 50.65625 90.460938 50.257812 90.496094 49.519531 91.097656 C 48.910156 91.597656 48.53125 91.90625 48.441406 92.339844 C 48.261719 93.238281 49.347656 94.535156 50.308594 94.5 C 50.652344 94.488281 50.75 94.3125 52.429688 92.660156 Z M 52.429688 92.660156 "/>
<path style=" stroke:none;fill-rule:nonzero;fill:url(#linear20);" d="M 50.402344 94.640625 C 50.402344 94.640625 51.195312 95.535156 52.402344 95.238281 C 53.480469 94.972656 53.203125 92.496094 52.414062 92.101562 C 52.152344 91.96875 51.671875 91.980469 51.3125 92.152344 C 51.097656 92.253906 51.039062 92.363281 50.6875 92.523438 C 50.363281 92.671875 50.261719 92.648438 50.175781 92.753906 C 50.066406 92.886719 50.019531 93.167969 50.359375 93.84375 C 50.113281 93.671875 49.851562 93.632812 49.6875 93.75 C 49.660156 93.769531 49.597656 93.832031 49.566406 93.917969 C 49.464844 94.222656 49.785156 94.535156 50.402344 94.640625 Z M 50.402344 94.640625 "/>
<path style=" stroke:none;fill-rule:nonzero;fill:url(#linear21);" d="M 140.714844 61.078125 L 140.992188 62.582031 L 135.253906 62.597656 L 85.464844 62.714844 C 84.183594 62.71875 83.003906 63.777344 82.832031 65.082031 L 70.945312 144.515625 C 70.769531 145.832031 72.8125 147.835938 74.085938 147.9375 L 96.175781 149.632812 L 96.175781 149.605469 L 129.21875 152.140625 L 129.300781 152.175781 C 130.710938 152.285156 132.003906 151.261719 132.1875 149.871094 C 132.1875 149.871094 132.1875 149.878906 132.1875 149.875 L 143.320312 65.066406 C 143.5 63.6875 142.132812 61.074219 140.714844 61.078125 Z M 140.714844 61.078125 "/>
<path style=" stroke:none;fill-rule:nonzero;fill:url(#linear22);" d="M 131.0625 148.21875 C 130.878906 149.609375 129.585938 150.644531 128.175781 150.539062 L 72.90625 146.292969 C 71.632812 146.195312 70.746094 145.050781 70.925781 143.734375 L 81.730469 63.457031 C 81.90625 62.152344 83.082031 61.09375 84.363281 61.089844 L 139.941406 60.9375 C 141.363281 60.933594 142.367188 62.046875 142.1875 63.421875 Z M 131.0625 148.21875 "/>
<path style=" stroke:none;fill-rule:nonzero;fill:rgb(100%,100%,100%);fill-opacity:1;" d="M 131.796875 104.070312 C 131.707031 104.757812 131.0625 105.269531 130.359375 105.246094 L 81.71875 103.46875 C 81.074219 103.445312 80.625 102.917969 80.710938 102.261719 L 81.667969 95.171875 C 81.757812 94.515625 82.34375 94.070312 82.984375 94.089844 L 131.671875 95.441406 C 132.375 95.460938 132.871094 95.957031 132.78125 96.644531 Z M 131.796875 104.070312 "/>
<path style=" stroke:none;fill-rule:nonzero;fill:rgb(100%,100%,100%);fill-opacity:1;" d="M 129.914062 118.472656 C 129.820312 119.160156 129.179688 119.75 128.476562 119.714844 L 79.871094 117.3125 C 79.230469 117.28125 78.78125 116.667969 78.871094 116.007812 L 79.835938 108.785156 C 79.921875 108.125 80.515625 107.5625 81.15625 107.589844 L 129.792969 109.550781 C 130.496094 109.578125 130.992188 110.214844 130.902344 110.902344 Z M 129.914062 118.472656 "/>
<use xlink:href="#surface21" mask="url(#mask5)"/>
<use xlink:href="#surface24" mask="url(#mask6)"/>
<path style=" stroke:none;fill-rule:nonzero;fill:url(#linear25);" d="M 116.984375 130.144531 C 117.128906 129.058594 116.359375 128.054688 115.265625 127.992188 L 90.105469 126.546875 C 89.0625 126.488281 88.101562 127.367188 87.960938 128.425781 L 86.921875 136.253906 C 86.777344 137.3125 87.503906 138.328125 88.542969 138.398438 L 113.691406 140.117188 C 114.785156 140.195312 115.789062 139.269531 115.933594 138.183594 Z M 116.984375 130.144531 "/>
<path style=" stroke:none;fill-rule:nonzero;fill:url(#linear26);" d="M 118.886719 77.414062 C 118.554688 79.917969 117.269531 82.175781 115.441406 83.835938 C 113.472656 85.628906 110.878906 86.71875 108.179688 86.667969 C 105.496094 86.613281 103.238281 85.441406 101.785156 83.609375 C 100.449219 81.921875 99.792969 79.671875 100.121094 77.214844 C 100.804688 72.097656 105.507812 67.957031 110.667969 67.972656 C 115.875 67.984375 119.574219 72.210938 118.886719 77.414062 Z M 118.886719 77.414062 "/>
<path style=" stroke:none;fill-rule:nonzero;fill:rgb(100%,100%,100%);fill-opacity:1;" d="M 113.867188 74.574219 C 113.570312 76.8125 111.5 78.609375 109.253906 78.582031 C 107.019531 78.554688 105.453125 76.730469 105.746094 74.503906 C 106.042969 72.28125 108.09375 70.484375 110.332031 70.496094 C 112.578125 70.507812 114.164062 72.332031 113.867188 74.574219 Z M 113.867188 74.574219 "/>
<path style=" stroke:none;fill-rule:nonzero;fill:rgb(100%,100%,100%);fill-opacity:1;" d="M 115.441406 83.835938 C 113.472656 85.628906 110.878906 86.71875 108.179688 86.667969 C 105.496094 86.613281 103.238281 85.441406 101.785156 83.609375 C 103.449219 81.296875 106.1875 79.757812 109.09375 79.796875 C 112.019531 79.835938 114.375 81.457031 115.441406 83.835938 Z M 115.441406 83.835938 "/>
<use xlink:href="#surface27" mask="url(#mask7)"/>
</g>
</svg>
