<svg width="200" height="200" viewBox="0 0 200 200" fill="none" xmlns="http://www.w3.org/2000/svg">
<path d="M119.662 64.856H72.6318V82.3971H119.662V64.856Z" fill="#2E383E"/>
<path d="M121.122 42.0707C121.122 58.8644 109.797 72.4805 95.8269 72.4805C81.8569 72.4805 70.5322 58.8644 70.5322 42.0707C70.5322 25.2771 81.8569 11.6638 95.8269 11.6638C109.797 11.6638 121.122 25.2771 121.122 42.0707Z" fill="#F8D6B3"/>
<path d="M70.5078 41.9943C70.5078 58.785 81.9508 72.4041 95.8036 72.4041V11.5844C81.9508 11.5844 70.5078 25.2006 70.5078 41.9943Z" fill="#DFC2AA"/>
<path d="M129.762 88.7984C129.762 88.7984 124.555 76.2588 124.09 68.1837C124.09 68.1837 124.835 41.0841 124.959 34.4204C124.959 34.4204 124.883 24.2847 118.784 16.9802C118.784 16.9802 115.124 11.8547 109.558 12.0914C109.558 12.0914 105.976 6.55312 99.3427 5.90377C99.3427 5.90377 98.1941 5.7739 96.0928 5.7739C93.9918 5.7739 92.8429 5.90377 92.8429 5.90377C86.2103 6.55312 81.8034 9.39872 81.8034 9.39872C76.4605 12.354 73.023 16.709 73.023 16.709C66.9237 24.0134 67.2267 34.4204 67.2267 34.4204C67.3503 41.0841 68.096 68.1837 68.096 68.1837C67.6302 76.2588 62.4236 88.7984 62.4236 88.7984L58.1543 114.308C64.0247 119.318 79.5774 114.721 79.5774 114.721C85.657 113.075 87.2305 111.338 87.2305 111.338C84.0285 101.381 87.5093 83.2458 87.5093 83.2458C86.479 71.9153 80.6334 66.38 80.6334 66.38C76.5329 62.4261 75.3332 49.0553 75.3332 49.0553C74.2669 36.1866 78.6749 31.2082 78.6749 31.2082C84.9098 33.1303 90.7477 33.4911 96.0928 33.3323C101.438 33.4911 107.464 33.0755 113.698 31.1534C113.698 31.1534 117.919 36.1866 116.853 49.0553C116.853 49.0553 115.889 61.7133 111.789 65.6671C111.789 65.6671 113.026 64.0048 111.996 75.3352C111.996 75.3352 108.157 101.381 104.955 111.338C104.955 111.338 106.645 112.972 112.608 114.721C112.608 114.721 128.161 119.318 134.031 114.308L129.762 88.7984Z" fill="#252728"/>
<path d="M112.616 81.031L108.479 103.32H83.409L79.2725 81.0281C83.6502 80.3441 86.6652 80.1969 86.6652 80.1969L87.626 70.8607C87.626 70.8607 91.3521 72.4567 95.9111 72.4047C100.509 72.3528 104.16 70.7886 104.16 70.7886L105.396 80.22C105.396 80.22 108.332 80.3614 112.616 81.031Z" fill="#F8D6B3"/>
<path d="M117.996 99.7681H74.6094V171.202H117.996V99.7681Z" fill="white"/>
<path d="M125.038 45.2494H124.329C122.993 45.2494 121.899 44.1556 121.899 42.8194V35.3158C121.899 33.9795 122.993 32.8857 124.329 32.8857H125.038C126.374 32.8857 127.467 33.9795 127.467 35.3158V42.8194C127.467 44.1556 126.374 45.2494 125.038 45.2494Z" fill="#51B3A7"/>
<path d="M127.224 37.085C127.224 37.085 132.384 42.7617 128.1 51.9796C128.1 51.9796 122.375 63.6304 102.173 64.2855V62.3173C102.173 62.3173 131.948 61.7863 126.995 40.5655L127.224 37.085Z" fill="#51B3A7"/>
<path d="M102.189 65.7901H92.6418C91.1968 65.7901 90.0146 64.6068 90.0146 63.1609C90.0146 61.7179 91.1968 60.5347 92.6418 60.5347H102.189C103.634 60.5347 104.816 61.7179 104.816 63.1609C104.816 64.6068 103.634 65.7901 102.189 65.7901Z" fill="#51B3A7"/>
<path d="M145.752 122.311C145.752 122.311 144.74 139.725 142.58 146.464C142.58 146.464 138.334 165.414 117.379 172.326C112.701 173.867 107.192 174.811 100.712 174.808L95.8923 174.816L91.0926 174.808C84.4193 174.897 78.7705 173.933 74.0014 172.314C53.5899 165.394 49.243 146.464 49.243 146.464C47.0819 139.725 46.0652 122.311 46.0652 122.311C45.6533 117.342 45.7497 113.079 46.1671 109.443C47.804 95.1655 54.3705 90.5335 54.3705 90.5335C58.9593 86.8134 64.9206 84.4123 70.4727 82.8798L70.5388 82.8625L70.5694 82.851C70.6127 82.8394 70.6533 82.8308 70.6963 82.8163C73.7673 81.9765 76.7064 81.3069 79.2025 80.9144L79.2712 80.8105H79.2764L79.2839 80.9375L83.4204 103.321H83.415L95.0914 166.101L95.9607 170.378L96.8228 166.052L108.491 103.249L112.628 80.9981L112.635 81.001C115.175 81.3964 118.19 81.988 121.345 82.8654L121.373 82.874C126.887 84.4036 132.833 86.799 137.437 90.5335C137.437 90.5335 143.54 94.9087 145.353 109.523C145.798 113.134 145.986 117.365 145.752 122.311Z" fill="#F57557"/>
<path d="M95.9646 170.359L93.7456 166.076L70.0928 119.005L82.4226 108.584L74.5418 104.642L74.2521 103.245L70.4535 82.8782L70.4281 82.8609V82.858L70.5147 82.8494L70.6887 82.8147L79.2007 81.0052L79.3017 80.9937H79.3747L83.4662 103.245L95.1187 166.061L95.9646 170.359Z" fill="#F24F28"/>
<path d="M121.809 119.005L98.1819 166.027L95.9473 170.359L96.8093 166.041L108.477 103.245L112.614 80.9937L112.574 80.9965L121.204 82.8638V82.8696L117.538 103.245L117.321 104.642L109.46 108.584L121.809 119.005Z" fill="#F24F28"/>
<path d="M74.6216 172.011L74.0014 172.314C53.5899 165.393 49.243 146.464 49.243 146.464C47.0819 139.725 46.0652 122.311 46.0652 122.311C45.6533 117.341 45.7497 113.079 46.1671 109.442C46.1671 109.442 62.8868 131.081 74.6216 172.011Z" fill="#F24F28"/>
<path d="M145.738 122.311C145.738 122.311 144.726 139.725 142.565 146.464C142.565 146.464 138.32 165.413 117.364 172.325L116.724 172.011C128.458 131.081 145.178 109.442 145.178 109.442C145.178 109.442 145.234 109.468 145.339 109.523C145.783 113.133 145.972 117.364 145.738 122.311Z" fill="#F24F28"/>
<path fill-rule="evenodd" clip-rule="evenodd" d="M142.138 56.1462L142.389 56.3281C142.436 56.3627 142.478 56.406 142.512 56.4522L142.847 56.9312C142.866 56.9572 142.882 56.9861 142.896 57.0178L143.282 57.8778L143.305 57.9384L143.719 59.2689L144.069 60.5589L144.082 60.6195L144.215 61.4911C144.223 61.546 144.223 61.6037 144.213 61.6585L144.141 62.0799C144.126 62.1636 144.092 62.2444 144.039 62.3136C143.968 62.406 143.867 62.4724 143.752 62.5012L143.111 62.6686L143.076 62.6744L142.209 62.8389C142.07 62.8649 141.946 62.9457 141.868 63.064L141.584 63.4882C141.543 63.5488 141.515 63.621 141.503 63.6931L141.324 64.7523C141.315 64.8071 141.315 64.8591 141.322 64.911L141.551 66.5907L141.558 66.6311L142.049 68.9053L142.066 68.963L142.782 71.0553L142.811 71.1246L143.526 72.5272C143.552 72.5763 143.586 72.6224 143.626 72.6628L144.19 73.2169C144.272 73.2978 144.379 73.3468 144.494 73.3612L144.986 73.4247C145.076 73.4363 145.166 73.4247 145.25 73.3901L146.094 73.0496C146.121 73.038 146.15 73.0294 146.178 73.0207L146.262 73.0034C146.42 72.9688 146.586 73.0092 146.711 73.1102L146.887 73.2573C146.921 73.2833 146.951 73.3151 146.977 73.3497L147.436 73.9731C147.46 74.0048 147.48 74.0395 147.496 74.077L147.999 75.2487L148.012 75.2833L148.449 76.5301L148.465 76.5878L148.68 77.5344C148.687 77.5633 148.691 77.5921 148.692 77.6181L148.722 78.0943C148.729 78.2068 148.7 78.3165 148.64 78.4118L148.559 78.5387C148.485 78.6542 148.369 78.735 148.236 78.7667L147.111 79.0322C147.072 79.0409 147.032 79.0467 146.992 79.0467L145.434 79.0813C145.371 79.0813 145.002 79.0669 144.697 78.9947L144.267 78.8533C144.149 78.8216 144.036 78.7725 143.932 78.7061C143.843 78.6513 143.735 78.5936 143.493 78.3858L143.463 78.3569L142.763 77.6441C142.732 77.6152 142.567 77.4103 142.544 77.3757L141.333 75.4998L141.297 75.4305L140.09 72.7061L140.071 72.66L139.072 69.6672L139.058 69.6152L138.441 66.8706L138.433 66.8302L138.091 64.4089C138.087 64.38 138.085 64.354 138.086 64.3252L138.13 62.152L138.137 62.077L138.439 60.2703L138.45 60.2213L138.83 58.8014C138.839 58.7667 138.852 58.7321 138.869 58.7004L139.369 57.7162C139.392 57.6701 139.421 57.6296 139.455 57.5921L139.958 57.0582C139.996 57.0178 140.04 56.9832 140.089 56.9543L141.149 56.3771C141.195 56.3511 141.244 56.3338 141.295 56.3223L142.138 56.1462Z" fill="#0C4B5B"/>
<path fill-rule="evenodd" clip-rule="evenodd" d="M143.766 55.5176L144.065 55.6474C144.097 55.6619 144.125 55.6821 144.149 55.7052L144.491 56.0573C144.516 56.0832 144.535 56.1121 144.548 56.1467L144.8 56.8018L145.159 57.7138L145.51 58.5998L145.524 58.646L145.701 59.5349L145.872 60.5277L145.979 61.3704C145.982 61.3993 145.981 61.4252 145.976 61.4541L145.873 61.9822C145.857 62.063 145.807 62.1294 145.736 62.1669L145.373 62.3545C145.335 62.3747 145.293 62.3834 145.25 62.3834H144.905C144.804 62.3805 144.712 62.3228 144.669 62.2333C144.651 62.1929 144.642 62.1525 144.643 62.1092L144.656 61.7773L144.654 61.7398L144.59 61.1511L144.488 60.4469L144.484 60.4238L144.306 59.685L144.126 58.9433L144.122 58.9288L143.925 58.2708L143.916 58.2477L143.679 57.6676L143.671 57.6474L143.41 57.128L143.399 57.1049L143.227 56.6518C143.216 56.6229 143.2 56.5969 143.181 56.5739L142.903 56.2506C142.884 56.2275 142.869 56.2016 142.858 56.1756L142.816 56.0688C142.78 55.9765 142.799 55.8697 142.865 55.7975L142.876 55.786C142.903 55.7542 142.937 55.7311 142.974 55.7167L143.298 55.5897L143.361 55.5724L143.766 55.5176Z" fill="#0C4B5B"/>
<path fill-rule="evenodd" clip-rule="evenodd" d="M150.581 77.8834L150.686 77.4591L150.693 77.4158L150.725 76.9829L150.72 76.9108L150.598 76.3134L150.591 76.2874L150.379 75.6294L150.098 74.7549L150.085 74.7232L149.704 73.9209L149.693 73.9007L149.187 73.0262L149.154 72.9801L148.577 72.348L148.513 72.299L148.032 72.0248C147.97 71.9902 147.896 71.9815 147.828 72.0017L147.424 72.12C147.387 72.1316 147.354 72.1489 147.325 72.1749L147.111 72.3596C147.028 72.4346 146.999 72.5529 147.04 72.6568L147.078 72.7492L147.108 72.8069L147.347 73.1388L147.723 73.6236L147.74 73.6496L148.056 74.1749L148.076 74.2153L148.306 74.8156L148.551 75.4158L148.784 76.0017L148.792 76.0248L148.991 76.6886L148.998 76.7174L149.094 77.2398L149.189 77.7535L149.192 77.8285L149.153 78.2412L149.156 78.3134L149.158 78.3192C149.181 78.449 149.297 78.5414 149.428 78.5356L149.66 78.5241C149.697 78.5212 149.733 78.5125 149.766 78.4952L150.212 78.273C150.242 78.2586 150.269 78.2383 150.291 78.2124L150.581 77.8834Z" fill="#0C4B5B"/>
<path d="M187.469 61.7487C187.324 60.2422 187.03 58.7386 186.596 57.284C186.166 55.841 185.595 54.4327 184.898 53.0993C184.201 51.7631 183.372 50.4904 182.436 49.3129C181.49 48.1239 180.425 47.0243 179.27 46.043C176.868 43.9998 174.113 42.4817 171.081 41.5293C168.049 40.577 164.921 40.248 161.783 40.551C160.275 40.6953 158.772 40.9897 157.316 41.4226C155.875 41.8526 154.467 42.424 153.131 43.1224C151.796 43.8179 150.522 44.6462 149.346 45.5842C148.157 46.5308 147.057 47.5957 146.076 48.7501C145.086 49.9132 144.22 51.1599 143.481 52.4817L143.899 53.0762C143.924 53.1138 143.946 53.1513 143.964 53.1917L144.24 53.8064C149.097 44.3432 160.202 39.4687 170.694 42.7645C182.418 46.4471 188.937 58.9348 185.255 70.6607C181.573 82.3836 169.083 88.9031 157.359 85.2205C154.889 84.4471 152.651 83.2811 150.69 81.8122L149.498 82.095C149.447 82.1065 149.394 82.1123 149.341 82.1123L148.993 82.121C151.346 84.0719 154.028 85.5293 156.971 86.4557C160.004 87.4081 163.132 87.7371 166.27 87.437C167.778 87.2898 169.281 86.9983 170.736 86.5625C172.178 86.1325 173.586 85.5611 174.921 84.8656C176.256 84.1671 177.53 83.3389 178.707 82.4009C179.896 81.4572 180.995 80.3923 181.977 79.2379C184.018 76.8338 185.536 74.0806 186.489 71.0474C187.441 68.0171 187.771 64.8886 187.469 61.7487Z" fill="#0C4B5B"/>
<path d="M151.001 71.9836V69.3688L153.388 67.2101C157.422 63.6026 159.383 61.5276 159.439 59.3688C159.439 57.8624 158.53 56.6704 156.399 56.6704C154.808 56.6704 153.416 57.4641 152.45 58.2029L151.228 55.1062C152.62 54.0557 154.78 53.2043 157.28 53.2043C161.457 53.2043 163.758 55.6459 163.758 58.9994C163.758 62.0961 161.514 64.5694 158.843 66.9561L157.138 68.3761V68.4309H164.099V71.9836H151.001Z" fill="#0C4B5B"/>
<path d="M174.418 64.341V60.2487C174.418 59.1404 174.475 58.0034 174.56 56.8114H174.447C173.85 58.0034 173.367 59.0827 172.742 60.2487L170.27 64.2833V64.341H174.418ZM174.418 71.9832V67.5791H166.235V64.7653L173.225 53.5156H178.51V64.341H180.726V67.5791H178.51V71.9832H174.418Z" fill="#0C4B5B"/>
<path d="M164.088 43.0468C166.323 42.6024 168.557 42.1579 170.792 41.7135C168.577 41.1796 166.362 40.6428 164.148 40.1088L157.814 37.4451L157.679 37.5086L159.663 40.9429L159.98 41.4941L159.639 42.0309L157.52 45.3614L157.651 45.4537L164.088 43.0468Z" fill="#0C4B5B"/>
<path d="M173.129 82.9977C171.433 84.2618 169.737 85.5259 168.042 86.7899C170.111 86.3541 172.181 85.9184 174.25 85.4826L180.622 85.1882L180.71 85.0814L177.676 82.9948L177.19 82.6601L177.262 82.0742L177.71 78.435L177.563 78.4119L173.129 82.9977Z" fill="#0C4B5B"/>
<path d="M45.936 134.088C45.743 134.097 45.5522 134.209 45.3161 134.362C42.8789 135.944 40.4697 137.6 37.9415 139.012C32.859 141.846 27.5184 144.019 21.85 145.237C21.448 145.323 21.1626 145.439 21.147 146.013C21.0217 150.668 21.2896 155.245 22.2466 159.805C22.6705 161.826 23.2079 163.924 23.8428 165.655H45.7334L45.936 134.088Z" fill="#51B3A7"/>
<path d="M45.5566 194.065C53.0181 189.075 58.9595 182.599 63.4415 174.709C65.1047 171.78 66.4429 168.83 67.4857 165.656H45.7385L45.5566 194.065Z" fill="#51B3A7"/>
<path d="M70.221 145.904C70.1991 145.295 69.9604 145.127 69.4577 145.015C61.1143 143.119 53.5376 139.436 46.5593 134.362C46.316 134.186 46.1221 134.074 45.9301 134.082L45.7275 165.655H67.4747C69.5954 159.595 70.471 152.798 70.221 145.904Z" fill="#0C4B5B"/>
<path d="M23.8525 165.656C26.0185 172.293 29.383 178.077 33.8023 183.387C37.2231 187.497 41.0901 191.049 45.5613 194.042L45.7432 165.656H23.8525Z" fill="#0C4B5B"/>
<path d="M18.5945 12.9883H38.8877C49.0072 12.9883 57.4315 21.2711 57.4315 31.3923V32.6246C57.4315 42.7429 49.0072 51.0835 38.8877 51.0835H32.3198L36.4393 61.9782L20.7449 51.0835H18.5945C8.47532 51.0835 0 42.7429 0 32.6246V31.3923C0 21.2711 8.47532 12.9883 18.5945 12.9883Z" fill="#75C3B9"/>
<path d="M18.7911 32.9371C18.7911 34.9371 17.1698 36.5591 15.1695 36.5591C13.1695 36.5591 11.5479 34.9371 11.5479 32.9371C11.5479 30.9371 13.1695 29.3152 15.1695 29.3152C17.1698 29.3152 18.7911 30.9371 18.7911 32.9371Z" fill="white"/>
<path d="M32.3898 32.9371C32.3898 34.9371 30.7684 36.5591 28.7681 36.5591C26.7678 36.5591 25.1465 34.9371 25.1465 32.9371C25.1465 30.9371 26.7678 29.3152 28.7681 29.3152C30.7684 29.3152 32.3898 30.9371 32.3898 32.9371Z" fill="white"/>
<path d="M45.9643 32.9371C45.9643 34.9371 44.3426 36.5591 42.3423 36.5591C40.3423 36.5591 38.7207 34.9371 38.7207 32.9371C38.7207 30.9371 40.3423 29.3152 42.3423 29.3152C44.3426 29.3152 45.9643 30.9371 45.9643 32.9371Z" fill="white"/>
<path d="M57.45 32.8979C57.276 42.7104 48.9104 51.0798 38.9 51.0798H32.3314L36.45 61.9773L20.7557 51.0798H18.6047C8.59145 51.0798 0.271682 42.7104 0.0976562 32.8979H57.45Z" fill="#51B3A7"/>
<path d="M18.7909 32.8979C18.7909 34.9182 17.1678 36.5199 15.1695 36.5199C13.1681 36.5199 11.5479 34.9182 11.5479 32.8979H18.7909Z" fill="#E4E6E7"/>
<path d="M32.3895 32.8979C32.3895 34.9182 30.7696 36.5199 28.7681 36.5199C26.7667 36.5199 25.1465 34.9182 25.1465 32.8979H32.3895Z" fill="#E4E6E7"/>
<path d="M45.964 32.8979C45.964 34.9182 44.3438 36.5199 42.3423 36.5199C40.3441 36.5199 38.7207 34.9182 38.7207 32.8979H45.964Z" fill="#E4E6E7"/>
<path d="M118.117 174.301C118.747 173.141 120.087 172.575 121.116 173.034L125.773 175.124C126.8 175.585 127.124 176.898 126.495 178.059L121.955 186.431C125.926 186.278 130.173 184.142 133.269 180.336C134.003 179.432 134.632 178.486 135.156 177.513L135.174 177.484C135.545 176.893 135.809 176.269 136 175.655C136.197 175.023 136.283 174.373 136.296 173.753H136.297C136.28 173.323 136.29 172.95 136.221 172.558C136.146 171.45 136.059 169.842 136.102 168.852C136.174 167.23 136.95 164.956 136.95 164.956L145.951 153.891L145.971 153.906L154.867 143.002C154.867 143.002 157.086 140.567 159.623 140.05C162.161 139.533 164.203 139.314 164.203 139.314L164.201 139.311C165.457 139.196 166.737 138.653 167.831 137.767C168.483 137.239 169.048 136.613 169.525 135.857L169.527 135.854C173.684 130.437 174.154 123.568 170.896 119.3L166.342 127.672C165.71 128.829 164.368 129.395 163.341 128.933L158.686 126.835C157.66 126.373 157.339 125.06 157.969 123.903L162.522 115.533C158.551 115.684 154.3 117.813 151.199 121.614C150.464 122.515 149.832 123.461 149.308 124.434L149.289 124.463C148.917 125.051 148.652 125.675 148.461 126.292C148.263 126.924 148.176 127.571 148.162 128.191H148.161C148.177 128.624 148.167 128.997 148.235 129.389C148.308 130.494 148.393 132.105 148.348 133.095C148.274 134.714 147.494 136.988 147.494 136.988L138.468 148.05L138.447 148.036L129.568 158.953C129.568 158.953 127.353 161.392 124.816 161.911C122.279 162.431 120.238 162.656 120.238 162.656L120.24 162.659C118.984 162.777 117.705 163.32 116.612 164.209C115.961 164.737 115.397 165.363 114.921 166.119L114.919 166.122C110.77 171.548 110.31 178.417 113.575 182.679L118.117 174.301Z" fill="#D7D9DA"/>
<path d="M195.289 109.894L194.686 110.445L189.675 115.109C188.214 116.457 187.798 118.24 188.202 119.735L165.747 146.064L168.835 148.713L191.317 122.353C192.869 122.5 194.602 121.796 195.699 120.211L199.35 114.419L199.786 113.724L195.289 109.894Z" fill="#D7D9DA"/>
<path d="M166.158 145.564L164.131 143.839C163.656 143.434 162.893 143.492 162.388 144.084L162.156 144.358C162.128 144.39 162.115 144.436 162.09 144.471L162.072 144.514L162.03 144.586L162.004 144.632L161.973 144.693L161.945 144.748L161.94 144.759C161.913 144.814 161.891 144.872 161.871 144.929L161.865 144.947C161.856 144.976 161.847 145.004 161.84 145.033L161.836 145.045L161.826 145.091L161.798 145.123L161.763 145.186L161.483 144.947C161.216 144.722 160.791 144.73 160.508 145.062L141.758 167.077C139.529 169.694 139.333 173.423 141.431 175.209L143.883 177.296C145.98 179.082 149.613 178.283 151.842 175.665L170.592 153.651C170.875 153.316 170.833 152.909 170.566 152.684L170.161 152.338H170.158L170.253 152.277L170.294 152.251L170.371 152.208L170.408 152.188C170.437 152.17 170.467 152.153 170.495 152.136L170.566 152.087L170.608 152.055L170.668 152.009L170.706 151.977L170.769 151.919L170.777 151.87C170.807 151.838 170.814 151.789 170.843 151.755L171.075 151.484C171.549 150.927 171.587 150.274 171.196 149.862L169.99 148.828L169.257 148.202L169.259 148.199L166.171 145.55L166.158 145.564Z" fill="#F24F28"/>
<path d="M144.932 171.135C144.368 171.796 143.47 171.954 142.94 171.504C142.41 171.051 142.424 170.139 142.988 169.478L160.074 149.417C160.636 148.757 161.535 148.595 162.065 149.048C162.594 149.498 162.58 150.41 162.017 151.071L144.932 171.135Z" fill="#F89D87"/>
<path d="M149.306 174.859C148.743 175.52 147.874 175.707 147.345 175.254C146.815 174.804 146.86 173.918 147.423 173.257L164.509 153.194C165.071 152.533 165.94 152.348 166.469 152.798C166.999 153.251 166.954 154.137 166.392 154.798L149.306 174.859Z" fill="#F89D87"/>
<path d="M27.7727 99.825C27.726 99.8048 27.6792 99.7846 27.6331 99.7615C27.4913 99.6922 27.3537 99.6172 27.2201 99.5364C27.1534 99.496 27.0879 99.4556 27.0232 99.4123C26.9586 99.3661 26.8951 99.3228 26.8328 99.2767C26.8016 99.2536 26.7707 99.2276 26.7401 99.2045C26.5632 99.066 26.3964 98.9159 26.2406 98.7543C26.0847 98.5927 25.9401 98.4195 25.8077 98.2377C25.7548 98.1627 25.7038 98.0905 25.655 98.0126C25.5081 97.7875 25.3799 97.5451 25.2723 97.294C25.0209 96.7081 24.8818 96.0617 24.8818 95.3834C24.8818 93.9578 25.4957 92.6764 26.4732 91.7875C26.5592 91.7096 26.6483 91.6345 26.7401 91.5624C26.7707 91.5393 26.8016 91.5162 26.8328 91.4931C26.8951 91.4469 26.9586 91.4008 27.0232 91.3575C27.2169 91.2247 27.4206 91.1093 27.6331 91.0054C27.7038 90.9707 27.7753 90.939 27.8481 90.9101C28.429 90.6619 29.068 90.5263 29.7384 90.5263C30.5349 90.5263 31.2864 90.7197 31.9494 91.0573C32.0192 91.0948 32.0882 91.1324 32.156 91.1699C32.2576 91.2305 32.3569 91.2911 32.4538 91.3575C32.5185 91.4008 32.582 91.4469 32.6443 91.4931C32.6755 91.5162 32.7064 91.5393 32.7369 91.5624C32.7981 91.6114 32.8582 91.6605 32.9167 91.7124C33.0048 91.7875 33.0902 91.8683 33.1727 91.9491C33.2273 92.0039 33.2812 92.0617 33.3335 92.1194C33.4642 92.2608 33.5863 92.4137 33.6991 92.5725C33.7442 92.636 33.788 92.6995 33.8299 92.7658C33.8717 92.8322 33.9127 92.8986 33.9517 92.9679C34.0103 93.0689 34.0651 93.1728 34.1162 93.2795C34.4232 93.9145 34.5952 94.6302 34.5952 95.3834C34.5952 95.8019 34.5421 96.2088 34.4423 96.5984C34.4224 96.6764 34.4002 96.7514 34.3768 96.8293C34.3413 96.9419 34.3017 97.0544 34.2582 97.1641C34.2293 97.2391 34.1984 97.3113 34.1661 97.3834C34.1442 97.4296 34.1217 97.4787 34.0989 97.5248C34.0527 97.6172 34.0033 97.7096 33.9517 97.8019C33.9127 97.8683 33.8717 97.9347 33.8299 98.001C33.7964 98.053 33.7618 98.1049 33.726 98.1569C33.6948 98.2002 33.6631 98.2463 33.6302 98.2896C33.6071 98.3214 33.5831 98.3502 33.5592 98.382C33.511 98.4426 33.4616 98.5032 33.4108 98.5609C33.3851 98.5927 33.3592 98.6215 33.3335 98.6504C33.2812 98.7081 33.2273 98.7629 33.1727 98.8178C33.1453 98.8466 33.1173 98.8726 33.0893 98.8986C32.9768 99.0054 32.8593 99.1093 32.7369 99.2045C32.7064 99.2276 32.6755 99.2536 32.6443 99.2767C32.582 99.3228 32.5185 99.3661 32.4538 99.4123C32.3892 99.4556 32.3237 99.496 32.2567 99.5364C32.2235 99.5566 32.1898 99.5768 32.156 99.597C32.0882 99.6374 32.0192 99.672 31.9494 99.7096C31.2864 100.05 30.5349 100.241 29.7384 100.241C29.0977 100.241 28.4862 100.116 27.926 99.8914C27.8743 99.8712 27.8235 99.8481 27.7727 99.825ZM41.9055 92.6389H39.9664C39.7032 91.773 39.2711 90.6648 38.6997 89.7442L38.7058 89.799L40.0772 88.4599C40.382 88.154 40.382 87.6749 40.0772 87.369L37.6925 84.9938C37.3875 84.6879 36.8934 84.6908 36.5883 84.9967L35.1355 86.3705C34.1843 85.7904 33.1782 85.3806 32.0238 85.1324V83.1843C32.0238 82.7543 31.838 82.5378 31.4068 82.5378H28.0339C27.603 82.5378 27.1176 82.7543 27.1176 83.1843V85.1237C26.2518 85.3892 25.0876 85.8192 24.1673 86.3907L24.195 86.3849L22.8406 85.014C22.5358 84.7081 22.0501 84.7081 21.7453 85.014L19.3647 87.3979C19.0599 87.7038 19.0619 88.1973 19.3667 88.5032L20.739 89.7413C20.16 90.6908 19.7482 91.773 19.5017 92.6389H17.5531C17.1222 92.6389 17.0166 93.2536 17.0166 93.6836V97.0573C17.0166 97.4873 17.1222 97.8337 17.5531 97.8337H19.4925C19.7557 98.6995 20.1875 99.9318 20.7592 100.852L20.7528 100.861L19.3814 102.232C19.0766 102.538 19.0766 103.031 19.3814 103.337L21.7664 105.721C22.0714 106.027 22.5655 106.027 22.8703 105.721L24.1647 104.35C25.1159 104.93 26.2518 105.343 27.1176 105.588V107.539C27.1176 107.969 27.6209 108.512 28.0521 108.512H31.4247C31.8559 108.512 32.0238 107.969 32.0238 107.539V105.6C33.1782 105.334 34.2126 104.904 35.1326 104.333L35.1846 104.339L36.5785 105.71C36.8833 106.015 37.3892 106.015 37.6937 105.71L40.0844 103.326C40.3892 103.02 40.3921 102.526 40.087 102.22L38.7173 100.855C39.2963 99.9058 39.7107 98.6995 39.9574 97.8337H41.9055C42.3367 97.8337 42.702 97.47 42.702 97.04V93.6663C42.702 93.2363 42.3367 92.6389 41.9055 92.6389Z" fill="#0C4B5B"/>
</svg>
