<?xml version="1.0" encoding="UTF-8"?>
<svg xmlns="http://www.w3.org/2000/svg" xmlns:xlink="http://www.w3.org/1999/xlink" width="200pt" height="200pt" viewBox="0 0 200 200" version="1.1">
<defs>
<filter id="alpha" filterUnits="objectBoundingBox" x="0%" y="0%" width="100%" height="100%">
  <feColorMatrix type="matrix" in="SourceGraphic" values="0 0 0 0 1 0 0 0 0 1 0 0 0 0 1 0 0 0 1 0"/>
</filter>
<mask id="mask0">
  <g filter="url(#alpha)">
<rect x="0" y="0" width="200" height="200" style="fill:rgb(0%,0%,0%);fill-opacity:0.501961;stroke:none;"/>
  </g>
</mask>
<clipPath id="clip1">
  <rect width="200" height="200"/>
</clipPath>
<g id="surface6" clip-path="url(#clip1)">
<path style=" stroke:none;fill-rule:nonzero;fill:rgb(95.686275%,96.862745%,98.039216%);fill-opacity:1;" d="M 136.894531 55.660156 C 141.160156 56.644531 143.136719 69.488281 140.882812 80.488281 C 139.328125 88.058594 137.117188 88.203125 131.433594 101.019531 C 123.730469 118.394531 126.59375 120.847656 120.992188 126.917969 C 113.308594 135.25 105.425781 133.335938 101.195312 141.347656 C 98.332031 146.773438 99.160156 152.921875 100.402344 157.441406 C 98.816406 155.003906 96.347656 150.496094 95.660156 144.390625 C 95.214844 140.414062 94.402344 133.222656 98.539062 128.847656 C 103.503906 123.59375 110.816406 127.449219 114.222656 122.5625 C 116.15625 119.796875 114.421875 117.675781 113.972656 108.222656 C 113.523438 98.6875 113.296875 93.917969 115.878906 89.847656 C 120.484375 82.589844 128.761719 85.550781 131.597656 79.25 C 134.535156 72.722656 127.074219 66.34375 130.957031 59.730469 C 132.207031 57.59375 134.792969 55.175781 136.894531 55.660156 Z M 136.894531 55.660156 "/>
</g>
<linearGradient id="linear0" gradientUnits="userSpaceOnUse" x1="1213.767" y1="1858.422" x2="2557.2146" y2="1858.422" gradientTransform="matrix(0.0539084,0,0,0.0539084,0,0)">
<stop offset="0" style="stop-color:rgb(3.529412%,0%,83.137255%);stop-opacity:1;"/>
<stop offset="0.9964" style="stop-color:rgb(0%,91.372549%,87.45098%);stop-opacity:1;"/>
</linearGradient>
<mask id="mask1">
  <g filter="url(#alpha)">
<rect x="0" y="0" width="200" height="200" style="fill:rgb(0%,0%,0%);fill-opacity:0.501961;stroke:none;"/>
  </g>
</mask>
<clipPath id="clip2">
  <rect width="200" height="200"/>
</clipPath>
<g id="surface9" clip-path="url(#clip2)">
<path style=" stroke:none;fill-rule:nonzero;fill:rgb(95.686275%,96.862745%,98.039216%);fill-opacity:1;" d="M 89.789062 43.796875 C 85.117188 44.871094 82.953125 58.945312 85.421875 70.992188 C 87.121094 79.289062 89.546875 79.441406 95.773438 93.488281 C 104.210938 112.519531 101.074219 115.207031 107.210938 121.855469 C 115.628906 130.980469 124.261719 128.882812 128.894531 137.664062 C 132.03125 143.605469 131.125 150.339844 129.761719 155.292969 C 131.503906 152.621094 134.207031 147.683594 134.957031 140.996094 C 135.449219 136.640625 136.335938 128.761719 131.804688 123.96875 C 126.367188 118.214844 118.355469 122.433594 114.625 117.085938 C 112.507812 114.054688 114.410156 111.730469 114.898438 101.375 C 115.394531 90.929688 115.640625 85.703125 112.8125 81.246094 C 107.769531 73.296875 98.695312 76.539062 95.59375 69.640625 C 92.375 62.488281 100.546875 55.5 96.296875 48.253906 C 94.925781 45.914062 92.09375 43.265625 89.789062 43.796875 Z M 89.789062 43.796875 "/>
</g>
<linearGradient id="linear1" gradientUnits="userSpaceOnUse" x1="2202.3872" y1="2145.7815" x2="3658.4275" y2="2145.7815" gradientTransform="matrix(0.053779,0.00370889,-0.00370889,0.053779,-15.347822,-3.217418)">
<stop offset="0" style="stop-color:rgb(99.607843%,27.058824%,45.882353%);stop-opacity:1;"/>
<stop offset="1" style="stop-color:rgb(99.607843%,44.705882%,45.882353%);stop-opacity:1;"/>
</linearGradient>
<mask id="mask2">
  <g filter="url(#alpha)">
<rect x="0" y="0" width="200" height="200" style="fill:rgb(0%,0%,0%);fill-opacity:0.501961;stroke:none;"/>
  </g>
</mask>
<clipPath id="clip3">
  <rect width="200" height="200"/>
</clipPath>
<g id="surface12" clip-path="url(#clip3)">
<path style=" stroke:none;fill-rule:nonzero;fill:rgb(95.686275%,96.862745%,98.039216%);fill-opacity:1;" d="M 99.039062 155.550781 C 100.859375 156.003906 101.824219 151.070312 108.023438 144.589844 C 114.796875 137.515625 118.4375 138.390625 124.738281 132.027344 C 131.933594 124.761719 128.613281 122.183594 134.644531 116.558594 C 142.816406 108.933594 149.761719 112.878906 159.589844 103.953125 C 162.535156 101.277344 166.460938 97.609375 165.824219 93.105469 C 165.269531 89.203125 161.355469 85.1875 156.921875 85.179688 C 156.734375 85.179688 153.003906 85.230469 150.625 88.097656 C 147.703125 91.613281 150.214844 95.273438 147.507812 97.941406 C 146.089844 99.335938 143.878906 99.5 139.453125 99.824219 C 133.09375 100.289062 132.03125 98.945312 130.292969 100.105469 C 126.359375 102.734375 130.289062 110.589844 126.296875 113.851562 C 122.867188 116.648438 117.933594 112.519531 114.925781 115.199219 C 111.300781 118.433594 116.949219 125.828125 113.210938 131.234375 C 109.996094 135.886719 103.980469 133.054688 99.648438 137.917969 C 94.527344 143.660156 96.417969 154.902344 99.039062 155.550781 Z M 99.039062 155.550781 "/>
</g>
<linearGradient id="linear2" gradientUnits="userSpaceOnUse" x1="2286.6523" y1="2064.8845" x2="1436.3121" y2="3007.5083" gradientTransform="matrix(0.0529164,-0.0102965,0.0102965,0.0529164,17.701585,20.117439)">
<stop offset="0" style="stop-color:rgb(3.529412%,0%,83.137255%);stop-opacity:1;"/>
<stop offset="0.9964" style="stop-color:rgb(0%,91.372549%,87.45098%);stop-opacity:1;"/>
</linearGradient>
<mask id="mask3">
  <g filter="url(#alpha)">
<rect x="0" y="0" width="200" height="200" style="fill:rgb(0%,0%,0%);fill-opacity:0.501961;stroke:none;"/>
  </g>
</mask>
<clipPath id="clip4">
  <rect width="200" height="200"/>
</clipPath>
<g id="surface15" clip-path="url(#clip4)">
<path style=" stroke:none;fill-rule:nonzero;fill:rgb(95.686275%,96.862745%,98.039216%);fill-opacity:1;" d="M 120.609375 152.835938 C 121.71875 153.054688 122.042969 149.453125 125.523438 146.449219 C 129.511719 143 132.511719 144.769531 136.972656 142.046875 C 142.503906 138.675781 140.402344 134.429688 145.324219 131.007812 C 152.222656 126.214844 160.796875 131.464844 163.113281 127.546875 C 164.464844 125.257812 162.945312 121.089844 160.503906 119.726562 C 157.898438 118.277344 156.054688 121.03125 151.582031 120.378906 C 147.394531 119.769531 147.15625 117.082031 141.988281 115.730469 C 139.46875 115.070312 136.15625 114.207031 134.042969 115.828125 C 129.898438 119.003906 132.148438 130.34375 132.835938 133.800781 C 133.464844 136.984375 134.050781 138.222656 133.222656 139.519531 C 131.054688 142.914062 123.851562 139.410156 120.523438 143.078125 C 117.734375 146.144531 119.179688 152.550781 120.609375 152.835938 Z M 120.609375 152.835938 "/>
</g>
<linearGradient id="linear3" gradientUnits="userSpaceOnUse" x1="515.8622" y1="2273.6792" x2="2340.0225" y2="2273.6792" gradientTransform="matrix(0.0539084,0,0,0.0539084,0,0)">
<stop offset="0" style="stop-color:rgb(26.666667%,29.411765%,54.901961%);stop-opacity:1;"/>
<stop offset="0.9964" style="stop-color:rgb(14.901961%,14.901961%,30.980392%);stop-opacity:1;"/>
</linearGradient>
<linearGradient id="linear4" gradientUnits="userSpaceOnUse" x1="590.7843" y1="2261.6917" x2="2278.334" y2="2261.6917" gradientTransform="matrix(0.0539084,0,0,0.0539084,0,0)">
<stop offset="0" style="stop-color:rgb(24.705882%,88.235294%,100%);stop-opacity:1;"/>
<stop offset="0.9964" style="stop-color:rgb(11.764706%,32.941176%,84.313725%);stop-opacity:1;"/>
</linearGradient>
<mask id="mask4">
  <g filter="url(#alpha)">
<rect x="0" y="0" width="200" height="200" style="fill:rgb(0%,0%,0%);fill-opacity:0.478431;stroke:none;"/>
  </g>
</mask>
<clipPath id="clip5">
  <rect width="200" height="200"/>
</clipPath>
<g id="surface18" clip-path="url(#clip5)">
<path style=" stroke:none;fill-rule:nonzero;fill:rgb(100%,100%,100%);fill-opacity:1;" d="M 30.820312 160.152344 L 123.199219 153.351562 L 123.671875 153.316406 C 124.300781 153.269531 124.871094 152.960938 125.304688 152.488281 C 118.660156 152.125 114.53125 149.765625 111.867188 147.328125 C 106.515625 142.433594 107.445312 137.605469 101.675781 134.386719 C 94.480469 130.371094 88.824219 135.460938 83.367188 130.441406 C 80.054688 127.398438 81.679688 125.128906 77.609375 120.582031 C 73.097656 115.542969 70.160156 117.238281 65.628906 112.703125 C 59.894531 106.972656 62.761719 102.515625 57.824219 98.398438 C 51.835938 93.40625 45.375 98.027344 39.671875 93.242188 C 37.214844 91.175781 35.863281 88.171875 35.160156 84.980469 L 30.820312 84.980469 C 29.160156 84.980469 27.808594 86.378906 27.808594 88.105469 L 27.808594 157.25 C 27.808594 158.972656 29.160156 160.273438 30.820312 160.152344 Z M 30.820312 160.152344 "/>
</g>
<linearGradient id="linear5" gradientUnits="userSpaceOnUse" x1="515.8622" y1="2975.0742" x2="3263.885" y2="2975.0742" gradientTransform="matrix(0.0539084,0,0,0.0539084,0,0)">
<stop offset="0" style="stop-color:rgb(26.666667%,29.411765%,54.901961%);stop-opacity:1;"/>
<stop offset="0.9964" style="stop-color:rgb(14.901961%,14.901961%,30.980392%);stop-opacity:1;"/>
</linearGradient>
<linearGradient id="linear6" gradientUnits="userSpaceOnUse" x1="1838.6564" y1="1129.12" x2="3051.6196" y2="1129.12" gradientTransform="matrix(0.0539084,0,0,0.0539084,0,0)">
<stop offset="0" style="stop-color:rgb(100%,100%,100%);stop-opacity:1;"/>
<stop offset="0.9964" style="stop-color:rgb(92.156863%,93.72549%,94.901961%);stop-opacity:1;"/>
</linearGradient>
<mask id="mask5">
  <g filter="url(#alpha)">
<rect x="0" y="0" width="200" height="200" style="fill:rgb(0%,0%,0%);fill-opacity:0.501961;stroke:none;"/>
  </g>
</mask>
<clipPath id="clip6">
  <rect width="200" height="200"/>
</clipPath>
<g id="surface21" clip-path="url(#clip6)">
<path style=" stroke:none;fill-rule:nonzero;fill:rgb(100%,100%,100%);fill-opacity:1;" d="M 134.050781 43.609375 L 102.195312 43.0625 L 102.195312 45.109375 L 134.050781 45.597656 Z M 134.050781 43.609375 "/>
<path style=" stroke:none;fill-rule:nonzero;fill:rgb(100%,100%,100%);fill-opacity:1;" d="M 158.332031 44.03125 L 158.332031 45.972656 L 161.773438 46.027344 L 161.773438 44.089844 Z M 158.332031 44.03125 "/>
</g>
<mask id="mask6">
  <g filter="url(#alpha)">
<rect x="0" y="0" width="200" height="200" style="fill:rgb(0%,0%,0%);fill-opacity:0.501961;stroke:none;"/>
  </g>
</mask>
<clipPath id="clip7">
  <rect width="200" height="200"/>
</clipPath>
<g id="surface24" clip-path="url(#clip7)">
<path style=" stroke:none;fill-rule:nonzero;fill:rgb(100%,100%,100%);fill-opacity:1;" d="M 147.8125 87.757812 L 101.96875 88.878906 C 100.101562 88.925781 98.351562 87.410156 98.144531 85.410156 C 98.144531 85.367188 97.933594 85.324219 97.933594 85.28125 L 97.933594 36.753906 C 97.933594 35.953125 98.351562 35.210938 98.714844 34.589844 C 98.726562 34.574219 98.84375 34.558594 98.851562 34.542969 C 99.503906 33.464844 100.671875 32.773438 101.9375 32.808594 L 108.855469 32.992188 C 108.859375 33.007812 108.878906 33.023438 108.882812 33.042969 C 109.011719 33.460938 109.160156 33.890625 109.316406 34.324219 C 109.929688 36.042969 110.75 37.847656 111.847656 39.621094 C 111.914062 39.734375 111.984375 39.839844 112.054688 39.945312 C 112.863281 41.214844 113.722656 42.308594 114.621094 43.269531 C 115.339844 44.039062 116.082031 44.71875 116.839844 45.328125 C 117.730469 46.046875 118.648438 46.664062 119.585938 47.21875 C 126.316406 51.210938 133.875 51.734375 138.890625 59.742188 C 143.1875 66.605469 140.109375 70.207031 144.265625 80.703125 C 144.71875 81.847656 145.203125 82.9375 145.71875 83.980469 C 146.15625 84.871094 146.613281 85.726562 147.089844 86.550781 C 147.328125 86.960938 147.570312 87.367188 147.8125 87.757812 Z M 147.8125 87.757812 "/>
</g>
<clipPath id="clip8">
  <path d="M 109 39 L 156 39 L 156 85 L 109 85 Z M 109 39 "/>
</clipPath>
<clipPath id="clip9">
  <path d="M 158.527344 83.816406 L 105.648438 84.582031 L 105.648438 29.859375 L 158.527344 31.363281 Z M 158.527344 83.816406 "/>
</clipPath>
<linearGradient id="linear7" gradientUnits="userSpaceOnUse" x1="2743.6692" y1="683.2505" x2="2510.7275" y2="1139.428" gradientTransform="matrix(0.0539084,0,0,0.0539084,0,0)">
<stop offset="0" style="stop-color:rgb(67.058824%,19.215686%,42.745098%);stop-opacity:1;"/>
<stop offset="1" style="stop-color:rgb(47.45098%,17.647059%,23.921569%);stop-opacity:1;"/>
</linearGradient>
<clipPath id="clip10">
  <path d="M 105 29 L 159 29 L 159 85 L 105 85 Z M 105 29 "/>
</clipPath>
<clipPath id="clip11">
  <path d="M 158.527344 83.816406 L 105.648438 84.582031 L 105.648438 29.859375 L 158.527344 31.363281 Z M 158.527344 83.816406 "/>
</clipPath>
<mask id="mask7">
  <g filter="url(#alpha)">
<rect x="0" y="0" width="200" height="200" style="fill:rgb(0%,0%,0%);fill-opacity:0.701961;stroke:none;"/>
  </g>
</mask>
<linearGradient id="linear8" gradientUnits="userSpaceOnUse" x1="2749.2292" y1="674.4778" x2="2513.9346" y2="1135.2629" gradientTransform="matrix(0.0539084,0,0,0.0539084,0,0)">
<stop offset="0" style="stop-color:rgb(67.058824%,19.215686%,42.745098%);stop-opacity:1;"/>
<stop offset="1" style="stop-color:rgb(47.45098%,17.647059%,23.921569%);stop-opacity:1;"/>
</linearGradient>
<clipPath id="clip12">
  <rect width="200" height="200"/>
</clipPath>
<g id="surface27" clip-path="url(#clip12)">
<path style=" stroke:none;fill-rule:nonzero;fill:url(#linear8);" d="M 140.003906 72.914062 C 133.234375 72.441406 128.621094 78.902344 126.789062 77.316406 C 125.042969 75.8125 129.957031 70.660156 128.28125 64.679688 C 126.632812 58.792969 120.140625 57.527344 120.65625 54.203125 C 121.238281 50.441406 129.917969 49.574219 129.714844 46.8125 C 129.597656 45.183594 126.535156 44.789062 125.921875 42.1875 C 125.757812 41.480469 125.8125 40.785156 125.984375 40.136719 C 124.296875 41.476562 125.066406 44.714844 122.6875 46.289062 C 120.597656 47.671875 119.011719 45.832031 116.21875 47.371094 C 116.003906 47.492188 113.324219 49.027344 112.800781 52.015625 C 112.441406 54.058594 113.265625 55.761719 113.691406 56.640625 C 115.144531 59.644531 117.121094 59.855469 117.191406 61.449219 C 117.273438 63.382812 114.390625 63.925781 112.070312 66.71875 C 109.414062 69.917969 108.285156 75.117188 109.839844 78.308594 C 110.90625 80.503906 113.210938 81.679688 123.554688 83.273438 C 138.015625 85.5 145.226562 86.515625 150.398438 82.675781 C 152.394531 81.195312 154.742188 78.679688 155.246094 76.460938 C 154.242188 77.414062 153.253906 77.882812 152.335938 78.0625 C 148.039062 78.910156 146.046875 73.335938 140.003906 72.914062 Z M 140.003906 72.914062 "/>
</g>
<clipPath id="clip13">
  <path d="M 111 68 L 154 68 L 154 85 L 111 85 Z M 111 68 "/>
</clipPath>
<clipPath id="clip14">
  <path d="M 158.527344 83.816406 L 105.648438 84.582031 L 105.648438 29.859375 L 158.527344 31.363281 Z M 158.527344 83.816406 "/>
</clipPath>
<linearGradient id="linear9" gradientUnits="userSpaceOnUse" x1="2515.1658" y1="2148.2017" x2="2403.4927" y2="1338.5708" gradientTransform="matrix(0.0539084,0,0,0.0539084,0,0)">
<stop offset="0.0036" style="stop-color:rgb(89.019608%,55.294118%,86.666667%);stop-opacity:1;"/>
<stop offset="1" style="stop-color:rgb(58.431373%,44.313725%,96.470588%);stop-opacity:1;"/>
</linearGradient>
<clipPath id="clip15">
  <path d="M 123 59 L 139 59 L 139 78 L 123 78 Z M 123 59 "/>
</clipPath>
<clipPath id="clip16">
  <path d="M 158.527344 83.816406 L 105.648438 84.582031 L 105.648438 29.859375 L 158.527344 31.363281 Z M 158.527344 83.816406 "/>
</clipPath>
<linearGradient id="linear10" gradientUnits="userSpaceOnUse" x1="2443.9607" y1="1462.3995" x2="2427.615" y2="1107.7003" gradientTransform="matrix(0.0539084,0,0,0.0539084,0,0)">
<stop offset="0" style="stop-color:rgb(100%,76.862745%,26.666667%);stop-opacity:1;"/>
<stop offset="0.9964" style="stop-color:rgb(95.294118%,43.529412%,33.72549%);stop-opacity:1;"/>
</linearGradient>
<clipPath id="clip17">
  <path d="M 125 48 L 137 48 L 137 64 L 125 64 Z M 125 48 "/>
</clipPath>
<clipPath id="clip18">
  <path d="M 158.527344 83.816406 L 105.648438 84.582031 L 105.648438 29.859375 L 158.527344 31.363281 Z M 158.527344 83.816406 "/>
</clipPath>
<linearGradient id="linear11" gradientUnits="userSpaceOnUse" x1="2426.5073" y1="1150.5216" x2="2432.769" y2="910.7892" gradientTransform="matrix(0.0539084,0,0,0.0539084,0,0)">
<stop offset="0" style="stop-color:rgb(100%,76.862745%,26.666667%);stop-opacity:1;"/>
<stop offset="0.9964" style="stop-color:rgb(95.294118%,43.529412%,33.72549%);stop-opacity:1;"/>
</linearGradient>
<clipPath id="clip19">
  <path d="M 124 54 L 127 54 L 127 59 L 124 59 Z M 124 54 "/>
</clipPath>
<clipPath id="clip20">
  <path d="M 158.527344 83.816406 L 105.648438 84.582031 L 105.648438 29.859375 L 158.527344 31.363281 Z M 158.527344 83.816406 "/>
</clipPath>
<linearGradient id="linear12" gradientUnits="userSpaceOnUse" x1="2328.1584" y1="1125.3345" x2="2333.9255" y2="904.5347" gradientTransform="matrix(0.0539084,0,0,0.0539084,0,0)">
<stop offset="0" style="stop-color:rgb(100%,76.862745%,26.666667%);stop-opacity:1;"/>
<stop offset="0.9964" style="stop-color:rgb(95.294118%,43.529412%,33.72549%);stop-opacity:1;"/>
</linearGradient>
<clipPath id="clip21">
  <path d="M 134 55 L 138 55 L 138 59 L 134 59 Z M 134 55 "/>
</clipPath>
<clipPath id="clip22">
  <path d="M 158.527344 83.816406 L 105.648438 84.582031 L 105.648438 29.859375 L 158.527344 31.363281 Z M 158.527344 83.816406 "/>
</clipPath>
<linearGradient id="linear13" gradientUnits="userSpaceOnUse" x1="2522.1296" y1="1130.9899" x2="2527.8064" y2="913.655" gradientTransform="matrix(0.0539084,0,0,0.0539084,0,0)">
<stop offset="0" style="stop-color:rgb(100%,76.862745%,26.666667%);stop-opacity:1;"/>
<stop offset="0.9964" style="stop-color:rgb(95.294118%,43.529412%,33.72549%);stop-opacity:1;"/>
</linearGradient>
<linearGradient id="linear14" gradientUnits="userSpaceOnUse" x1="1884.8862" y1="2321.3096" x2="2880.6145" y2="2321.3096" gradientTransform="matrix(0.0539084,0,0,0.0539084,0,0)">
<stop offset="0" style="stop-color:rgb(100%,100%,100%);stop-opacity:1;"/>
<stop offset="0.9964" style="stop-color:rgb(92.156863%,93.72549%,94.901961%);stop-opacity:1;"/>
</linearGradient>
<mask id="mask8">
  <g filter="url(#alpha)">
<rect x="0" y="0" width="200" height="200" style="fill:rgb(0%,0%,0%);fill-opacity:0.501961;stroke:none;"/>
  </g>
</mask>
<clipPath id="clip23">
  <rect width="200" height="200"/>
</clipPath>
<g id="surface30" clip-path="url(#clip23)">
<path style=" stroke:none;fill-rule:nonzero;fill:rgb(100%,100%,100%);fill-opacity:1;" d="M 130.160156 110.386719 L 104.113281 111.332031 L 104.113281 113 L 130.160156 112.011719 Z M 130.160156 110.386719 "/>
<path style=" stroke:none;fill-rule:nonzero;fill:rgb(100%,100%,100%);fill-opacity:1;" d="M 150.175781 109.660156 L 150.175781 111.253906 L 153.023438 111.148438 L 153.023438 109.554688 Z M 150.175781 109.660156 "/>
</g>
<mask id="mask9">
  <g filter="url(#alpha)">
<rect x="0" y="0" width="200" height="200" style="fill:rgb(0%,0%,0%);fill-opacity:0.501961;stroke:none;"/>
  </g>
</mask>
<clipPath id="clip24">
  <rect width="200" height="200"/>
</clipPath>
<g id="surface33" clip-path="url(#clip24)">
<path style=" stroke:none;fill-rule:nonzero;fill:rgb(100%,100%,100%);fill-opacity:1;" d="M 141.175781 146.019531 L 103.621094 148.699219 C 103.375 148.714844 103.136719 148.699219 102.902344 148.652344 C 102.859375 148.648438 102.820312 148.636719 102.777344 148.625 C 102.691406 148.601562 102.609375 148.578125 102.53125 148.550781 C 102.449219 148.519531 102.371094 148.488281 102.289062 148.449219 C 102.175781 148.394531 102.0625 148.332031 101.953125 148.261719 C 101.882812 148.214844 101.8125 148.164062 101.746094 148.109375 C 101.679688 148.054688 101.613281 148 101.550781 147.9375 C 101.050781 147.460938 100.707031 146.785156 100.625 146.007812 C 100.625 145.972656 100.566406 145.933594 100.566406 145.898438 L 100.566406 106.378906 C 100.566406 106.34375 100.566406 106.308594 100.570312 106.273438 C 100.570312 106.234375 100.574219 106.195312 100.574219 106.152344 C 100.621094 105.582031 100.832031 105.050781 101.09375 104.589844 C 101.097656 104.574219 101.136719 104.5625 101.144531 104.550781 C 101.675781 103.640625 102.597656 103.027344 103.625 103 L 109.226562 102.839844 C 109.230469 102.855469 109.222656 102.867188 109.222656 102.878906 L 109.222656 102.882812 C 109.410156 103.21875 109.464844 103.5625 109.589844 103.90625 C 110.089844 105.28125 110.769531 106.71875 111.664062 108.117188 C 111.71875 108.207031 111.78125 108.289062 111.835938 108.375 C 112.5 109.375 113.199219 110.230469 113.933594 110.972656 C 114.519531 111.570312 115.128906 112.09375 115.75 112.558594 C 116.476562 113.105469 117.226562 113.574219 117.992188 113.984375 C 117.992188 113.984375 117.996094 113.984375 117.996094 113.984375 C 119.128906 114.597656 120.289062 115.085938 121.457031 115.535156 C 125.964844 117.265625 130.554688 118.367188 133.828125 123.40625 C 136.953125 128.214844 135.339844 131.179688 137.28125 137.621094 C 137.484375 138.296875 137.726562 139.007812 138.015625 139.765625 C 138.09375 139.964844 138.171875 140.164062 138.253906 140.371094 C 138.625 141.289062 139.027344 142.164062 139.449219 143 C 139.8125 143.710938 140.1875 144.398438 140.582031 145.054688 C 140.777344 145.382812 140.972656 145.703125 141.175781 146.015625 C 141.175781 146.015625 141.175781 146.015625 141.175781 146.019531 Z M 141.175781 146.019531 "/>
</g>
<clipPath id="clip25">
  <path d="M 109 129 L 148 129 L 148 145 L 109 145 Z M 109 129 "/>
</clipPath>
<clipPath id="clip26">
  <path d="M 150.246094 142.277344 L 106.964844 144.960938 L 106.964844 99.28125 L 150.246094 98.148438 Z M 150.246094 142.277344 "/>
</clipPath>
<linearGradient id="linear15" gradientUnits="userSpaceOnUse" x1="2329.7559" y1="1845.8813" x2="2418.0105" y2="3252.7607" gradientTransform="matrix(0.0539084,0,0,0.0539084,0,0)">
<stop offset="0.0036" style="stop-color:rgb(95.294118%,43.529412%,33.72549%);stop-opacity:1;"/>
<stop offset="1" style="stop-color:rgb(100%,76.862745%,26.666667%);stop-opacity:1;"/>
</linearGradient>
<clipPath id="clip27">
  <path d="M 122 130 L 135 130 L 135 134 L 122 134 Z M 122 130 "/>
</clipPath>
<clipPath id="clip28">
  <path d="M 150.246094 142.277344 L 106.964844 144.960938 L 106.964844 99.28125 L 150.246094 98.148438 Z M 150.246094 142.277344 "/>
</clipPath>
<linearGradient id="linear16" gradientUnits="userSpaceOnUse" x1="2386.7739" y1="2487.0303" x2="2383.9155" y2="2312.6755" gradientTransform="matrix(0.0539084,0,0,0.0539084,0,0)">
<stop offset="0" style="stop-color:rgb(19.215686%,9.803922%,26.666667%);stop-opacity:1;"/>
<stop offset="1" style="stop-color:rgb(53.72549%,22.352941%,46.27451%);stop-opacity:1;"/>
</linearGradient>
<clipPath id="clip29">
  <path d="M 124 123 L 134 123 L 134 133 L 124 133 Z M 124 123 "/>
</clipPath>
<clipPath id="clip30">
  <path d="M 150.246094 142.277344 L 106.964844 144.960938 L 106.964844 99.28125 L 150.246094 98.148438 Z M 150.246094 142.277344 "/>
</clipPath>
<linearGradient id="linear17" gradientUnits="userSpaceOnUse" x1="2388.1968" y1="2503.2542" x2="2387.2783" y2="2356.2703" gradientTransform="matrix(0.0539084,0,0,0.0539084,0,0)">
<stop offset="0" style="stop-color:rgb(67.058824%,19.215686%,42.745098%);stop-opacity:1;"/>
<stop offset="1" style="stop-color:rgb(47.45098%,17.647059%,23.921569%);stop-opacity:1;"/>
</linearGradient>
<clipPath id="clip31">
  <path d="M 123 112 L 134 112 L 134 126 L 123 126 Z M 123 112 "/>
</clipPath>
<clipPath id="clip32">
  <path d="M 150.246094 142.277344 L 106.964844 144.960938 L 106.964844 99.28125 L 150.246094 98.148438 Z M 150.246094 142.277344 "/>
</clipPath>
<linearGradient id="linear18" gradientUnits="userSpaceOnUse" x1="2375.8591" y1="2292.6003" x2="2400.2236" y2="1999.291" gradientTransform="matrix(0.0539084,0,0,0.0539084,0,0)">
<stop offset="0" style="stop-color:rgb(67.058824%,19.215686%,42.745098%);stop-opacity:1;"/>
<stop offset="1" style="stop-color:rgb(47.45098%,17.647059%,23.921569%);stop-opacity:1;"/>
</linearGradient>
<clipPath id="clip33">
  <path d="M 122 118 L 126 118 L 126 123 L 122 123 Z M 122 118 "/>
</clipPath>
<clipPath id="clip34">
  <path d="M 150.246094 142.277344 L 106.964844 144.960938 L 106.964844 99.28125 L 150.246094 98.148438 Z M 150.246094 142.277344 "/>
</clipPath>
<linearGradient id="linear19" gradientUnits="userSpaceOnUse" x1="2293.5649" y1="2287.9897" x2="2317.6062" y2="1998.5715" gradientTransform="matrix(0.0539084,0,0,0.0539084,0,0)">
<stop offset="0" style="stop-color:rgb(67.058824%,19.215686%,42.745098%);stop-opacity:1;"/>
<stop offset="1" style="stop-color:rgb(47.45098%,17.647059%,23.921569%);stop-opacity:1;"/>
</linearGradient>
<clipPath id="clip35">
  <path d="M 132 117 L 135 117 L 135 122 L 132 122 Z M 132 117 "/>
</clipPath>
<clipPath id="clip36">
  <path d="M 150.246094 142.277344 L 106.964844 144.960938 L 106.964844 99.28125 L 150.246094 98.148438 Z M 150.246094 142.277344 "/>
</clipPath>
<linearGradient id="linear20" gradientUnits="userSpaceOnUse" x1="2469.8901" y1="2296.2522" x2="2494.2339" y2="2003.191" gradientTransform="matrix(0.0539084,0,0,0.0539084,0,0)">
<stop offset="0" style="stop-color:rgb(67.058824%,19.215686%,42.745098%);stop-opacity:1;"/>
<stop offset="1" style="stop-color:rgb(47.45098%,17.647059%,23.921569%);stop-opacity:1;"/>
</linearGradient>
<clipPath id="clip37">
  <path d="M 122 107 L 135 107 L 135 120 L 122 120 Z M 122 107 "/>
</clipPath>
<clipPath id="clip38">
  <path d="M 150.246094 142.277344 L 106.964844 144.960938 L 106.964844 99.28125 L 150.246094 98.148438 Z M 150.246094 142.277344 "/>
</clipPath>
<linearGradient id="linear21" gradientUnits="userSpaceOnUse" x1="2369.645" y1="2152.3323" x2="2434.6453" y2="1950.7373" gradientTransform="matrix(0.0539084,0,0,0.0539084,0,0)">
<stop offset="0" style="stop-color:rgb(19.215686%,9.803922%,26.666667%);stop-opacity:1;"/>
<stop offset="1" style="stop-color:rgb(41.960784%,22.352941%,46.27451%);stop-opacity:1;"/>
</linearGradient>
<clipPath id="clip39">
  <path d="M 106 98 L 151 98 L 151 145 L 106 145 Z M 106 98 "/>
</clipPath>
<clipPath id="clip40">
  <path d="M 150.246094 142.277344 L 106.964844 144.960938 L 106.964844 99.28125 L 150.246094 98.148438 Z M 150.246094 142.277344 "/>
</clipPath>
<mask id="mask10">
  <g filter="url(#alpha)">
<rect x="0" y="0" width="200" height="200" style="fill:rgb(0%,0%,0%);fill-opacity:0.301961;stroke:none;"/>
  </g>
</mask>
<linearGradient id="linear22" gradientUnits="userSpaceOnUse" x1="2369.8347" y1="2151.759" x2="2435.3123" y2="1948.6836" gradientTransform="matrix(0.0539084,0,0,0.0539084,0,0)">
<stop offset="0" style="stop-color:rgb(19.215686%,9.803922%,26.666667%);stop-opacity:1;"/>
<stop offset="1" style="stop-color:rgb(41.960784%,22.352941%,46.27451%);stop-opacity:1;"/>
</linearGradient>
<clipPath id="clip41">
  <rect width="200" height="200"/>
</clipPath>
<g id="surface36" clip-path="url(#clip41)">
<path style=" stroke:none;fill-rule:nonzero;fill:url(#linear22);" d="M 133.367188 114.875 C 133.28125 113.964844 133.957031 113.511719 133.84375 112.863281 C 133.753906 112.339844 133.183594 111.890625 132.652344 111.808594 C 131.511719 111.636719 130.773438 113.417969 129.636719 113.269531 C 128.757812 113.15625 128.855469 112.042969 127.859375 111.632812 C 126.277344 110.984375 124.617188 113.207031 123.5625 112.644531 C 123.246094 112.476562 122.921875 112.023438 122.898438 110.769531 C 122.292969 111.515625 122.53125 112.898438 122.621094 113.410156 C 122.941406 115.277344 123.945312 115.617188 123.71875 116.90625 C 123.660156 117.234375 123.527344 117.605469 123.625 118.136719 C 123.71875 118.65625 123.980469 119.042969 124.191406 119.289062 C 124.292969 119.476562 124.40625 119.648438 124.484375 119.625 C 124.804688 119.523438 123.566406 116.324219 124.707031 115.144531 C 125.296875 114.53125 125.960938 115.042969 128.363281 114.835938 C 130.773438 114.628906 131.390625 114.003906 132.117188 114.433594 C 132.777344 114.828125 133.367188 116 132.878906 119.5625 C 133.015625 119.523438 133.152344 119.484375 133.289062 119.445312 C 133.105469 118.292969 133.304688 117.554688 133.535156 117.082031 C 133.601562 116.941406 133.695312 116.78125 133.777344 116.601562 C 133.757812 116.296875 133.710938 115.964844 133.605469 115.613281 C 133.484375 115.207031 133.394531 115.167969 133.367188 114.875 Z M 133.367188 114.875 "/>
</g>
<linearGradient id="linear23" gradientUnits="userSpaceOnUse" x1="662.2438" y1="1724.5675" x2="2194.1467" y2="1724.5675" gradientTransform="matrix(0.0539084,0,0,0.0539084,0,0)">
<stop offset="0" style="stop-color:rgb(100%,100%,100%);stop-opacity:1;"/>
<stop offset="0.9964" style="stop-color:rgb(92.156863%,93.72549%,94.901961%);stop-opacity:1;"/>
</linearGradient>
<mask id="mask11">
  <g filter="url(#alpha)">
<rect x="0" y="0" width="200" height="200" style="fill:rgb(0%,0%,0%);fill-opacity:0.501961;stroke:none;"/>
  </g>
</mask>
<clipPath id="clip42">
  <rect width="200" height="200"/>
</clipPath>
<g id="surface39" clip-path="url(#clip42)">
<path style=" stroke:none;fill-rule:nonzero;fill:rgb(100%,100%,100%);fill-opacity:1;" d="M 80.042969 71.105469 L 39.625 71.292969 L 39.625 73.785156 L 80.042969 73.511719 Z M 80.042969 71.105469 "/>
<path style=" stroke:none;fill-rule:nonzero;fill:rgb(100%,100%,100%);fill-opacity:1;" d="M 110.558594 70.964844 L 110.558594 73.304688 L 114.863281 73.277344 L 114.863281 70.945312 Z M 110.558594 70.964844 "/>
</g>
<mask id="mask12">
  <g filter="url(#alpha)">
<rect x="0" y="0" width="200" height="200" style="fill:rgb(0%,0%,0%);fill-opacity:0.501961;stroke:none;"/>
  </g>
</mask>
<clipPath id="clip43">
  <rect width="200" height="200"/>
</clipPath>
<g id="surface42" clip-path="url(#clip43)">
<path style=" stroke:none;fill-rule:nonzero;fill:rgb(100%,100%,100%);fill-opacity:1;" d="M 96.898438 124.027344 L 38.855469 127.03125 C 36.476562 127.15625 34.363281 125.371094 34.097656 122.945312 C 34.097656 122.890625 33.949219 63.742188 33.949219 63.742188 C 33.949219 62.765625 34.363281 61.855469 34.828125 61.089844 C 34.84375 61.070312 34.929688 61.046875 34.941406 61.027344 C 35.773438 59.699219 37.234375 58.832031 38.847656 58.839844 L 47.648438 58.894531 C 47.652344 58.914062 47.667969 58.933594 47.675781 58.953125 C 47.839844 59.460938 48.027344 59.976562 48.222656 60.5 C 49.003906 62.574219 50.046875 64.742188 51.441406 66.871094 C 51.527344 67.003906 51.617188 67.128906 51.703125 67.257812 C 52.730469 68.777344 53.824219 70.082031 54.964844 71.222656 C 55.875 72.136719 56.820312 72.941406 57.785156 73.660156 C 58.917969 74.507812 60.082031 75.234375 61.265625 75.878906 C 69.792969 80.53125 79.347656 80.945312 85.671875 90.480469 C 91.082031 98.640625 87.207031 103.089844 92.441406 115.632812 C 93.007812 116.996094 93.617188 118.296875 94.265625 119.539062 C 94.816406 120.597656 95.390625 121.617188 95.992188 122.59375 C 96.289062 123.082031 96.589844 123.558594 96.898438 124.027344 Z M 96.898438 124.027344 "/>
</g>
<clipPath id="clip44">
  <path d="M 46 92 L 109 92 L 109 122 L 46 122 Z M 46 92 "/>
</clipPath>
<clipPath id="clip45">
  <path d="M 110.539062 118.628906 L 44.109375 121.386719 L 44.109375 58.796875 L 110.539062 59.160156 Z M 110.539062 118.628906 "/>
</clipPath>
<linearGradient id="linear24" gradientUnits="userSpaceOnUse" x1="1893.7129" y1="1216.5696" x2="1242.8751" y2="2497.6948" gradientTransform="matrix(0.0539084,0,0,0.0539084,0,0)">
<stop offset="0" style="stop-color:rgb(100%,56.470588%,52.156863%);stop-opacity:1;"/>
<stop offset="1" style="stop-color:rgb(98.431373%,43.529412%,73.333333%);stop-opacity:1;"/>
</linearGradient>
<clipPath id="clip46">
  <path d="M 68 92 L 87 92 L 87 105 L 68 105 Z M 68 92 "/>
</clipPath>
<clipPath id="clip47">
  <path d="M 110.539062 118.628906 L 44.109375 121.386719 L 44.109375 58.796875 L 110.539062 59.160156 Z M 110.539062 118.628906 "/>
</clipPath>
<linearGradient id="linear25" gradientUnits="userSpaceOnUse" x1="1434.4308" y1="2163.6099" x2="1445.2264" y2="1574.1891" gradientTransform="matrix(0.0539084,0,0,0.0539084,0,0)">
<stop offset="0" style="stop-color:rgb(19.215686%,9.803922%,26.666667%);stop-opacity:1;"/>
<stop offset="0.5554" style="stop-color:rgb(43.529412%,16.862745%,37.647059%);stop-opacity:1;"/>
<stop offset="1" style="stop-color:rgb(62.745098%,22.352941%,46.27451%);stop-opacity:1;"/>
</linearGradient>
<clipPath id="clip48">
  <path d="M 72 83 L 84 83 L 84 100 L 72 100 Z M 72 83 "/>
</clipPath>
<clipPath id="clip49">
  <path d="M 110.539062 118.628906 L 44.109375 121.386719 L 44.109375 58.796875 L 110.539062 59.160156 Z M 110.539062 118.628906 "/>
</clipPath>
<linearGradient id="linear26" gradientUnits="userSpaceOnUse" x1="1451.9929" y1="1770.5822" x2="1492.8142" y2="2035.9197" gradientTransform="matrix(0.0539084,0,0,0.0539084,0,0)">
<stop offset="0" style="stop-color:rgb(100%,76.862745%,26.666667%);stop-opacity:1;"/>
<stop offset="0.9964" style="stop-color:rgb(95.294118%,43.529412%,33.72549%);stop-opacity:1;"/>
</linearGradient>
<clipPath id="clip50">
  <path d="M 69 67 L 85 67 L 85 84 L 69 84 Z M 69 67 "/>
</clipPath>
<clipPath id="clip51">
  <path d="M 110.539062 118.628906 L 44.109375 121.386719 L 44.109375 58.796875 L 110.539062 59.160156 Z M 110.539062 118.628906 "/>
</clipPath>
<linearGradient id="linear27" gradientUnits="userSpaceOnUse" x1="1432.6561" y1="1363.204" x2="1422.4069" y2="2039.6174" gradientTransform="matrix(0.0539084,0,0,0.0539084,0,0)">
<stop offset="0" style="stop-color:rgb(100%,76.862745%,26.666667%);stop-opacity:1;"/>
<stop offset="0.9964" style="stop-color:rgb(95.294118%,43.529412%,33.72549%);stop-opacity:1;"/>
</linearGradient>
<clipPath id="clip52">
  <path d="M 67 76 L 71 76 L 71 82 L 67 82 Z M 67 76 "/>
</clipPath>
<clipPath id="clip53">
  <path d="M 110.539062 118.628906 L 44.109375 121.386719 L 44.109375 58.796875 L 110.539062 59.160156 Z M 110.539062 118.628906 "/>
</clipPath>
<linearGradient id="linear28" gradientUnits="userSpaceOnUse" x1="1427.1476" y1="1407.5178" x2="1416.877" y2="2085.3396" gradientTransform="matrix(0.0535633,-0.00610782,0.00610782,0.0535633,-16.687725,4.849973)">
<stop offset="0" style="stop-color:rgb(100%,76.862745%,26.666667%);stop-opacity:1;"/>
<stop offset="0.9964" style="stop-color:rgb(95.294118%,43.529412%,33.72549%);stop-opacity:1;"/>
</linearGradient>
<clipPath id="clip54">
  <path d="M 83 75 L 87 75 L 87 81 L 83 81 Z M 83 75 "/>
</clipPath>
<clipPath id="clip55">
  <path d="M 110.539062 118.628906 L 44.109375 121.386719 L 44.109375 58.796875 L 110.539062 59.160156 Z M 110.539062 118.628906 "/>
</clipPath>
<linearGradient id="linear29" gradientUnits="userSpaceOnUse" x1="1573.577" y1="1364.3605" x2="1563.3486" y2="2039.4016" gradientTransform="matrix(0.0539084,0,0,0.0539084,0,0)">
<stop offset="0" style="stop-color:rgb(100%,76.862745%,26.666667%);stop-opacity:1;"/>
<stop offset="0.9964" style="stop-color:rgb(95.294118%,43.529412%,33.72549%);stop-opacity:1;"/>
</linearGradient>
<clipPath id="clip56">
  <path d="M 63 59 L 88 59 L 88 89 L 63 89 Z M 63 59 "/>
</clipPath>
<clipPath id="clip57">
  <path d="M 110.539062 118.628906 L 44.109375 121.386719 L 44.109375 58.796875 L 110.539062 59.160156 Z M 110.539062 118.628906 "/>
</clipPath>
<clipPath id="clip58">
  <path d="M 74 81 L 80 81 L 80 83 L 74 83 Z M 74 81 "/>
</clipPath>
<clipPath id="clip59">
  <path d="M 110.539062 118.628906 L 44.109375 121.386719 L 44.109375 58.796875 L 110.539062 59.160156 Z M 110.539062 118.628906 "/>
</clipPath>
<linearGradient id="linear30" gradientUnits="userSpaceOnUse" x1="1466.5488" y1="1233.1898" x2="1437.2849" y2="1485.8372" gradientTransform="matrix(0.0539084,0,0,0.0539084,0,0)">
<stop offset="0" style="stop-color:rgb(100%,76.862745%,26.666667%);stop-opacity:1;"/>
<stop offset="0.9964" style="stop-color:rgb(95.294118%,43.529412%,33.72549%);stop-opacity:1;"/>
</linearGradient>
<linearGradient id="linear31" gradientUnits="userSpaceOnUse" x1="-3937.2017" y1="1086.583" x2="-3282.5168" y2="1086.583" gradientTransform="matrix(0.0539084,0,0,0.0539084,238.712911,0)">
<stop offset="0.0036" style="stop-color:rgb(0%,91.372549%,87.45098%);stop-opacity:1;"/>
<stop offset="1" style="stop-color:rgb(3.529412%,0%,83.137255%);stop-opacity:1;"/>
</linearGradient>
<linearGradient id="linear32" gradientUnits="userSpaceOnUse" x1="-3850.7883" y1="914.365" x2="-3282.6626" y2="1662.5747" gradientTransform="matrix(0.0539084,0,0,0.0539084,238.712911,0)">
<stop offset="0" style="stop-color:rgb(3.529412%,0%,83.137255%);stop-opacity:1;"/>
<stop offset="0.9964" style="stop-color:rgb(0%,91.372549%,87.45098%);stop-opacity:1;"/>
</linearGradient>
</defs>
<g id="surface1">
<path style=" stroke:none;fill-rule:nonzero;fill:rgb(95.686275%,96.862745%,98.039216%);fill-opacity:1;" d="M 162.316406 142.339844 C 131.34375 181.957031 58.808594 182.59375 38.730469 160.585938 C 30.71875 151.804688 28.601562 136.722656 25.492188 114.570312 C 23.992188 103.90625 23.78125 95.308594 23.652344 89.410156 C 23.214844 69.347656 22.996094 59.316406 26.226562 52.492188 C 35.476562 32.953125 67.613281 25.351562 88.386719 24.996094 C 89.835938 24.972656 91.296875 24.980469 92.773438 25.027344 C 117.09375 25.75 144.542969 35.875 161.46875 57.511719 C 163.21875 59.742188 164.851562 62.097656 166.359375 64.578125 C 181.8125 89.988281 179.210938 120.730469 162.316406 142.339844 Z M 162.316406 142.339844 "/>
<path style=" stroke:none;fill-rule:nonzero;fill:rgb(84.705882%,87.058824%,90.980392%);fill-opacity:1;" d="M 101.933594 161.902344 C 95.28125 160.6875 93.632812 146.394531 93.421875 144.363281 C 92.902344 139.273438 92.253906 132.96875 95.933594 127.632812 C 101.25 119.917969 110.308594 121.925781 112.46875 115.523438 C 113.796875 111.585938 110.527344 110.378906 110.375 102.851562 C 110.328125 100.695312 110.171875 92.898438 115.621094 86.59375 C 119.511719 82.101562 124.453125 80.445312 127.066406 79.804688 C 127.917969 77.652344 128.90625 74.386719 128.886719 70.402344 C 128.847656 64.015625 126.234375 61.546875 127.589844 58.160156 C 129.144531 54.277344 134.683594 52.25 138.898438 52.289062 C 150.121094 52.394531 156.273438 67.203125 156.695312 68.257812 C 157.78125 70.976562 161.230469 79.601562 157.285156 85.878906 C 154.167969 90.839844 148.867188 90.457031 148.058594 94.535156 C 147.253906 98.601562 152.289062 100.1875 153.480469 106.394531 C 154.5 111.695312 152.261719 118.019531 148.300781 121.578125 C 141.6875 127.523438 133.589844 122.773438 130.046875 127.703125 C 125.925781 133.4375 134.242188 143.570312 130.566406 146.988281 C 127.074219 150.230469 117.941406 142.625 113.492188 146.414062 C 110.277344 149.152344 113.261719 154.652344 108.921875 159.050781 C 108.664062 159.316406 105.410156 162.535156 101.933594 161.902344 Z M 101.933594 161.902344 "/>
<use xlink:href="#surface6" mask="url(#mask0)"/>
<path style=" stroke:none;fill-rule:nonzero;fill:url(#linear0);" d="M 128.085938 160.175781 C 135.375 158.847656 137.179688 143.191406 137.410156 140.964844 C 137.984375 135.390625 138.691406 128.480469 134.660156 122.636719 C 128.835938 114.1875 118.914062 116.386719 116.546875 109.371094 C 115.09375 105.0625 118.671875 103.738281 118.839844 95.492188 C 118.890625 93.128906 119.066406 84.585938 113.09375 77.683594 C 108.832031 72.757812 103.417969 70.945312 100.558594 70.246094 C 99.625 67.886719 98.539062 64.308594 98.5625 59.945312 C 98.605469 52.945312 101.464844 50.246094 99.980469 46.535156 C 98.277344 42.28125 92.214844 40.058594 87.597656 40.101562 C 75.300781 40.214844 68.5625 56.441406 68.101562 57.59375 C 66.90625 60.574219 63.128906 70.023438 67.453125 76.898438 C 70.871094 82.332031 76.671875 81.914062 77.558594 86.378906 C 78.441406 90.835938 72.925781 92.570312 71.621094 99.371094 C 70.507812 105.179688 72.957031 112.105469 77.296875 116.003906 C 84.539062 122.519531 93.410156 117.316406 97.289062 122.714844 C 101.804688 128.996094 92.695312 140.09375 96.722656 143.839844 C 100.550781 147.394531 110.550781 139.058594 115.425781 143.210938 C 118.945312 146.210938 115.679688 152.234375 120.429688 157.058594 C 120.714844 157.347656 124.28125 160.871094 128.085938 160.175781 Z M 128.085938 160.175781 "/>
<use xlink:href="#surface9" mask="url(#mask1)"/>
<path style=" stroke:none;fill-rule:nonzero;fill:url(#linear1);" d="M 98.816406 162.734375 C 94.835938 162.046875 92.632812 152.238281 93.488281 144.625 C 93.816406 141.679688 94.144531 138.753906 96.289062 136.082031 C 99.902344 131.582031 104.082031 133.554688 107.261719 129.921875 C 111.960938 124.558594 106.117188 116.519531 110.636719 112.160156 C 113.960938 108.953125 118.175781 112.285156 122.144531 108.808594 C 126.746094 104.777344 123.941406 97.78125 127.902344 96 C 130.203125 94.964844 131.753906 97.054688 137.984375 96.613281 C 140.421875 96.441406 141.640625 96.355469 142.753906 95.683594 C 146.664062 93.328125 144.773438 88 147.902344 84.734375 C 151.34375 81.136719 158.796875 82.199219 163.234375 84.1875 C 171.179688 87.746094 174.753906 96.652344 174.875 103.738281 C 174.902344 105.257812 174.914062 115.144531 167.824219 120.378906 C 162.671875 124.1875 155.742188 124.070312 154.617188 124.054688 C 150.242188 123.980469 149.363281 122.710938 147.808594 123.628906 C 143.316406 126.285156 149.585938 137.53125 143.84375 144.703125 C 141.5 147.632812 137.507812 149.441406 133.964844 149.605469 C 128.238281 149.867188 125.773438 145.730469 122.730469 147.148438 C 118.792969 148.984375 121.171875 156.726562 116.855469 159.007812 C 113.804688 160.625 111.457031 157.359375 106.308594 158.71875 C 101.738281 159.925781 101.175781 163.136719 98.816406 162.734375 Z M 98.816406 162.734375 "/>
<use xlink:href="#surface12" mask="url(#mask2)"/>
<path style=" stroke:none;fill-rule:nonzero;fill:url(#linear2);" d="M 122.078125 158.648438 C 125.101562 158.859375 125.511719 153.300781 130.792969 151.636719 C 136.636719 149.796875 140.34375 155.269531 144.414062 153.179688 C 148.988281 150.828125 146.410156 142.835938 151.546875 139.835938 C 155.054688 137.785156 157.5 140.792969 161.910156 138.910156 C 166.511719 136.953125 171 130.640625 169.234375 124.453125 C 167.761719 119.289062 162.449219 116.015625 158.171875 115.984375 C 154.675781 115.960938 153.683594 118.117188 150.625 117.480469 C 146.8125 116.691406 146.902344 113.039062 142.910156 111.394531 C 138.9375 109.761719 133.503906 111.175781 130.515625 114.421875 C 128.03125 117.117188 127.777344 120.492188 127.554688 123.4375 C 126.960938 131.335938 130.566406 134.382812 128.640625 137.417969 C 126.238281 141.207031 119.65625 137.996094 116.652344 141.75 C 112.898438 146.453125 117.726562 158.34375 122.078125 158.648438 Z M 122.078125 158.648438 "/>
<use xlink:href="#surface15" mask="url(#mask3)"/>
<path style=" stroke:none;fill-rule:nonzero;fill:rgb(14.901961%,14.901961%,30.980392%);fill-opacity:1;" d="M 175.949219 159.304688 L 27.808594 158.042969 L 27.808594 161.777344 C 27.808594 162.792969 28.457031 163.652344 29.332031 163.808594 L 71.21875 171.164062 C 71.71875 171.253906 72.222656 171.273438 72.722656 171.234375 L 174.339844 162.84375 C 175.246094 162.769531 175.949219 161.90625 175.949219 160.863281 Z M 175.949219 159.304688 "/>
<path style=" stroke:none;fill-rule:nonzero;fill:rgb(14.901961%,14.901961%,30.980392%);fill-opacity:1;" d="M 122.191406 153.316406 L 29.339844 160.152344 C 27.679688 160.273438 26.328125 158.972656 26.328125 157.25 L 26.328125 88.105469 C 26.328125 86.378906 27.679688 84.980469 29.339844 84.980469 L 122.191406 84.980469 C 123.558594 84.980469 124.667969 86.246094 124.667969 87.804688 L 124.667969 150.308594 C 124.667969 151.871094 123.558594 153.214844 122.191406 153.316406 Z M 122.191406 153.316406 "/>
<path style=" stroke:none;fill-rule:nonzero;fill:url(#linear3);" d="M 123.671875 153.316406 L 30.820312 160.152344 C 29.160156 160.273438 27.808594 158.972656 27.808594 157.25 L 27.808594 88.105469 C 27.808594 86.378906 29.160156 84.980469 30.820312 84.980469 L 123.671875 84.980469 C 125.039062 84.980469 126.148438 86.246094 126.148438 87.804688 L 126.148438 150.308594 C 126.148438 151.871094 125.039062 153.214844 123.671875 153.316406 Z M 123.671875 153.316406 "/>
<path style=" stroke:none;fill-rule:nonzero;fill:url(#linear4);" d="M 120.777344 148.910156 L 34.300781 154.847656 C 32.945312 154.941406 31.847656 153.875 31.847656 152.464844 L 31.847656 91.929688 C 31.847656 90.519531 32.945312 89.375 34.300781 89.367188 L 120.777344 88.996094 C 121.90625 88.992188 122.820312 90.027344 122.820312 91.308594 L 122.820312 146.445312 C 122.820312 147.730469 121.90625 148.832031 120.777344 148.910156 Z M 120.777344 148.910156 "/>
<path style=" stroke:none;fill-rule:nonzero;fill:rgb(100%,100%,100%);fill-opacity:1;" d="M 80.527344 86.871094 C 80.527344 87.515625 80.046875 88.035156 79.457031 88.039062 C 78.867188 88.039062 78.386719 87.519531 78.386719 86.875 C 78.386719 86.234375 78.867188 85.710938 79.457031 85.710938 C 80.046875 85.710938 80.527344 86.230469 80.527344 86.871094 Z M 80.527344 86.871094 "/>
<use xlink:href="#surface18" mask="url(#mask4)"/>
<path style=" stroke:none;fill-rule:nonzero;fill:url(#linear5);" d="M 127.371094 152.9375 L 27.808594 160.132812 L 71.21875 167.757812 C 71.71875 167.84375 72.222656 167.867188 72.722656 167.824219 L 175.949219 159.304688 L 128.957031 152.984375 C 128.429688 152.914062 127.898438 152.898438 127.371094 152.9375 Z M 127.371094 152.9375 "/>
<path style=" stroke:none;fill-rule:nonzero;fill:rgb(14.901961%,14.901961%,30.980392%);fill-opacity:1;" d="M 42.335938 160.195312 L 125.226562 154.113281 L 150.878906 157.535156 L 68.703125 164.035156 Z M 42.335938 160.195312 "/>
<path style=" stroke:none;fill-rule:nonzero;fill:rgb(100%,100%,100%);fill-opacity:1;" d="M 165.492188 38.328125 L 165.492188 83.542969 C 165.492188 85.628906 164.070312 87.355469 162.289062 87.394531 L 147.425781 87.757812 L 101.585938 88.878906 C 99.722656 88.925781 97.984375 87.410156 97.777344 85.410156 C 97.761719 85.257812 97.554688 85.105469 97.554688 84.949219 L 97.554688 36.777344 C 97.554688 35.964844 97.976562 35.214844 98.351562 34.589844 C 98.363281 34.574219 98.472656 34.558594 98.480469 34.542969 C 99.136719 33.492188 100.292969 32.824219 101.542969 32.855469 L 108.496094 33.042969 L 162.277344 34.46875 C 164.058594 34.515625 165.492188 36.242188 165.492188 38.328125 Z M 165.492188 38.328125 "/>
<path style=" stroke:none;fill-rule:nonzero;fill:url(#linear6);" d="M 101.589844 87.601562 C 100.230469 87.632812 99.117188 86.429688 99.117188 84.921875 L 99.117188 36.808594 C 99.117188 35.300781 100.230469 34.101562 101.589844 34.136719 L 162.3125 35.679688 C 163.523438 35.707031 164.507812 36.886719 164.507812 38.304688 L 164.507812 83.5625 C 164.507812 84.980469 163.523438 86.160156 162.3125 86.1875 Z M 101.589844 87.601562 "/>
<path style=" stroke:none;fill-rule:nonzero;fill:rgb(84.705882%,87.058824%,90.980392%);fill-opacity:1;" d="M 162.3125 34.46875 L 101.589844 32.859375 C 99.585938 32.804688 97.957031 34.5625 97.957031 36.785156 L 97.957031 39.667969 L 165.535156 41.039062 L 165.535156 38.328125 C 165.535156 36.246094 164.09375 34.515625 162.3125 34.46875 Z M 162.3125 34.46875 "/>
<path style=" stroke:none;fill-rule:nonzero;fill:rgb(100%,100%,100%);fill-opacity:1;" d="M 104.425781 36.433594 C 104.425781 37.09375 103.894531 37.621094 103.242188 37.605469 C 102.589844 37.589844 102.058594 37.042969 102.058594 36.378906 C 102.058594 35.714844 102.589844 35.191406 103.242188 35.207031 C 103.894531 35.222656 104.425781 35.773438 104.425781 36.433594 Z M 104.425781 36.433594 "/>
<path style=" stroke:none;fill-rule:nonzero;fill:rgb(100%,100%,100%);fill-opacity:1;" d="M 108.554688 36.53125 C 108.554688 37.1875 108.027344 37.710938 107.378906 37.695312 C 106.730469 37.683594 106.207031 37.136719 106.207031 36.476562 C 106.207031 35.8125 106.730469 35.292969 107.378906 35.308594 C 108.027344 35.324219 108.554688 35.871094 108.554688 36.53125 Z M 108.554688 36.53125 "/>
<path style=" stroke:none;fill-rule:nonzero;fill:rgb(100%,100%,100%);fill-opacity:1;" d="M 112.652344 36.625 C 112.652344 37.28125 112.128906 37.800781 111.488281 37.789062 C 110.84375 37.773438 110.320312 37.230469 110.320312 36.570312 C 110.320312 35.914062 110.84375 35.390625 111.488281 35.40625 C 112.128906 35.421875 112.652344 35.96875 112.652344 36.625 Z M 112.652344 36.625 "/>
<path style=" stroke:none;fill-rule:nonzero;fill:rgb(84.705882%,87.058824%,90.980392%);fill-opacity:1;" d="M 161.773438 83.636719 L 102.195312 84.878906 L 102.195312 46.984375 L 161.773438 47.800781 Z M 161.773438 83.636719 "/>
<use xlink:href="#surface21" mask="url(#mask5)"/>
<use xlink:href="#surface24" mask="url(#mask6)"/>
<g clip-path="url(#clip8)" clip-rule="nonzero">
<g clip-path="url(#clip9)" clip-rule="nonzero">
<path style=" stroke:none;fill-rule:nonzero;fill:url(#linear7);" d="M 123.554688 83.273438 C 113.210938 81.679688 110.90625 80.503906 109.839844 78.308594 C 108.285156 75.117188 109.414062 69.917969 112.070312 66.71875 C 114.390625 63.925781 117.273438 63.382812 117.191406 61.449219 C 117.121094 59.855469 115.144531 59.644531 113.691406 56.640625 C 113.265625 55.761719 112.441406 54.058594 112.800781 52.015625 C 113.324219 49.027344 116.003906 47.492188 116.21875 47.371094 C 119.011719 45.832031 120.597656 47.671875 122.6875 46.289062 C 125.296875 44.5625 124.117188 40.824219 126.558594 39.796875 C 128.328125 39.054688 130.589844 40.335938 131.175781 40.671875 C 133.136719 41.785156 132.929688 42.871094 134.582031 43.570312 C 136.515625 44.382812 137.4375 43.160156 139.675781 43.695312 C 141.519531 44.136719 142.851562 45.496094 143.9375 46.859375 C 146.371094 49.914062 145.160156 51.695312 146.957031 55.441406 C 149.476562 60.699219 153.265625 60.117188 153.9375 64.304688 C 154.285156 66.496094 153.386719 67.488281 154.078125 70.84375 C 154.542969 73.105469 155.128906 73.511719 155.234375 74.839844 C 155.53125 78.667969 151.207031 82.074219 150.398438 82.675781 C 145.226562 86.515625 138.015625 85.5 123.554688 83.273438 Z M 123.554688 83.273438 "/>
</g>
</g>
<g clip-path="url(#clip10)" clip-rule="nonzero">
<g clip-path="url(#clip11)" clip-rule="nonzero">
<use xlink:href="#surface27" mask="url(#mask7)"/>
</g>
</g>
<g clip-path="url(#clip13)" clip-rule="nonzero">
<g clip-path="url(#clip14)" clip-rule="nonzero">
<path style=" stroke:none;fill-rule:nonzero;fill:url(#linear9);" d="M 112.019531 97.230469 C 110.449219 93.296875 111.40625 87.085938 111.609375 85.78125 C 112.394531 80.679688 114.242188 77.515625 114.914062 76.390625 C 119.515625 68.707031 126.476562 68.765625 131.699219 68.808594 C 134.273438 68.828125 136.933594 68.769531 140.179688 69.96875 C 140.179688 69.96875 142.738281 70.914062 144.898438 72.492188 C 151.332031 77.1875 156.394531 92.5625 151.222656 98.464844 C 147.917969 102.238281 144.519531 97.542969 129.671875 100.058594 C 123.667969 101.078125 117.308594 102.738281 113.519531 99.457031 C 112.894531 98.914062 112.398438 98.183594 112.019531 97.230469 Z M 112.019531 97.230469 "/>
</g>
</g>
<g clip-path="url(#clip15)" clip-rule="nonzero">
<g clip-path="url(#clip16)" clip-rule="nonzero">
<path style=" stroke:none;fill-rule:nonzero;fill:url(#linear10);" d="M 128.960938 59.597656 C 128.960938 59.597656 130.0625 67.832031 124.46875 69.476562 C 123.820312 69.667969 123.625 70.523438 124.113281 71 L 131.007812 77.703125 C 131.421875 78.105469 132.078125 78.070312 132.457031 77.628906 L 138.636719 70.433594 C 139.039062 69.964844 138.863281 69.21875 138.296875 69.003906 C 136.320312 68.242188 132.765625 66.023438 133.515625 60.015625 Z M 128.960938 59.597656 "/>
</g>
</g>
<g clip-path="url(#clip17)" clip-rule="nonzero">
<g clip-path="url(#clip18)" clip-rule="nonzero">
<path style=" stroke:none;fill-rule:nonzero;fill:url(#linear11);" d="M 125.535156 54.996094 C 125.535156 55.085938 127.046875 63.148438 130.902344 63.15625 C 134.539062 63.164062 135.914062 57.285156 136.359375 54.539062 C 136.40625 54.074219 136.457031 53.605469 136.503906 53.140625 C 136.257812 53.222656 135.644531 53.386719 134.914062 53.171875 C 134.75 53.121094 133.699219 52.8125 133.304688 51.898438 C 132.871094 50.882812 133.671875 50.085938 133.214844 49.195312 C 132.949219 48.679688 132.417969 48.429688 132.007812 48.300781 C 132.28125 48.722656 132.808594 49.65625 132.507812 50.496094 C 132.308594 51.0625 131.75 51.597656 130.496094 51.914062 C 126.90625 52.824219 125.5 53.171875 125.535156 54.996094 Z M 125.535156 54.996094 "/>
</g>
</g>
<g clip-path="url(#clip19)" clip-rule="nonzero">
<g clip-path="url(#clip20)" clip-rule="nonzero">
<path style=" stroke:none;fill-rule:nonzero;fill:url(#linear12);" d="M 126.480469 55.96875 C 126.480469 55.96875 124.484375 54.191406 124.308594 55.265625 C 123.945312 57.511719 125.65625 58.761719 126.582031 58.09375 C 127.507812 57.429688 126.480469 55.96875 126.480469 55.96875 Z M 126.480469 55.96875 "/>
</g>
</g>
<g clip-path="url(#clip21)" clip-rule="nonzero">
<g clip-path="url(#clip22)" clip-rule="nonzero">
<path style=" stroke:none;fill-rule:nonzero;fill:url(#linear13);" d="M 135.222656 56.039062 C 135.222656 56.039062 137.191406 54.3125 137.359375 55.378906 C 137.71875 57.605469 136.039062 58.820312 135.125 58.148438 C 134.210938 57.476562 135.222656 56.039062 135.222656 56.039062 Z M 135.222656 56.039062 "/>
</g>
</g>
<path style=" stroke:none;fill-rule:nonzero;fill:rgb(100%,100%,100%);fill-opacity:1;" d="M 125.101562 80.273438 C 125.101562 81.449219 124.183594 82.414062 123.046875 82.429688 C 121.910156 82.445312 120.988281 81.5 120.988281 80.320312 C 120.988281 79.140625 121.910156 78.171875 123.046875 78.160156 C 124.183594 78.152344 125.101562 79.097656 125.101562 80.273438 Z M 125.101562 80.273438 "/>
<path style=" stroke:none;fill-rule:nonzero;fill:rgb(100%,100%,100%);fill-opacity:1;" d="M 134.640625 80.164062 C 134.640625 81.332031 133.734375 82.292969 132.617188 82.304688 C 131.5 82.320312 130.589844 81.382812 130.589844 80.210938 C 130.589844 79.039062 131.5 78.082031 132.617188 78.070312 C 133.734375 78.058594 134.640625 78.996094 134.640625 80.164062 Z M 134.640625 80.164062 "/>
<path style=" stroke:none;fill-rule:nonzero;fill:rgb(100%,100%,100%);fill-opacity:1;" d="M 144.035156 80.058594 C 144.035156 81.21875 143.144531 82.167969 142.042969 82.183594 C 140.941406 82.199219 140.046875 81.265625 140.046875 80.105469 C 140.046875 78.941406 140.941406 77.988281 142.042969 77.980469 C 143.144531 77.96875 144.035156 78.898438 144.035156 80.058594 Z M 144.035156 80.058594 "/>
<path style=" stroke:none;fill-rule:nonzero;fill:rgb(100%,100%,100%);fill-opacity:1;" d="M 156.082031 104.648438 L 156.082031 141.835938 C 156.082031 143.550781 154.917969 145.03125 153.4375 145.136719 L 141.175781 146.015625 L 141.160156 146.015625 L 103.621094 148.699219 C 103.375 148.714844 103.136719 148.699219 102.902344 148.652344 C 102.859375 148.644531 102.820312 148.636719 102.777344 148.625 C 102.691406 148.601562 102.609375 148.578125 102.53125 148.550781 C 102.449219 148.519531 102.371094 148.488281 102.289062 148.449219 C 102.175781 148.394531 102.0625 148.332031 101.953125 148.261719 C 101.882812 148.214844 101.8125 148.164062 101.746094 148.109375 C 101.679688 148.054688 101.613281 148 101.550781 147.9375 C 101.050781 147.457031 100.714844 146.78125 100.632812 146.007812 C 100.621094 145.882812 100.566406 145.757812 100.566406 145.628906 L 100.566406 106.378906 C 100.566406 106.34375 100.566406 106.308594 100.570312 106.273438 C 100.570312 106.234375 100.574219 106.195312 100.574219 106.152344 C 100.625 105.582031 100.832031 105.050781 101.101562 104.589844 C 101.109375 104.574219 101.140625 104.5625 101.148438 104.550781 C 101.582031 103.832031 102.261719 103.308594 103.042969 103.121094 C 103.132812 103.097656 103.226562 103.078125 103.320312 103.066406 C 103.414062 103.050781 103.511719 103.054688 103.609375 103.050781 L 109.257812 102.902344 L 109.261719 102.902344 L 121.457031 102.542969 L 153.433594 101.625 C 153.46875 101.625 153.5 101.621094 153.535156 101.625 C 153.574219 101.625 153.613281 101.621094 153.652344 101.625 C 153.691406 101.628906 153.730469 101.632812 153.769531 101.636719 C 155.082031 101.789062 156.082031 103.0625 156.082031 104.648438 Z M 156.082031 104.648438 "/>
<path style=" stroke:none;fill-rule:nonzero;fill:url(#linear14);" d="M 103.621094 147.65625 C 102.515625 147.734375 101.609375 146.796875 101.609375 145.570312 L 101.609375 106.371094 C 101.609375 105.144531 102.515625 104.117188 103.621094 104.085938 L 153.46875 102.617188 C 154.472656 102.585938 155.289062 103.511719 155.289062 104.679688 L 155.289062 141.902344 C 155.289062 143.070312 154.472656 144.074219 153.46875 144.148438 Z M 103.621094 147.65625 "/>
<path style=" stroke:none;fill-rule:nonzero;fill:rgb(84.705882%,87.058824%,90.980392%);fill-opacity:1;" d="M 153.46875 101.621094 L 103.621094 103.042969 C 101.992188 103.085938 100.664062 104.59375 100.664062 106.402344 L 100.664062 108.75 L 156.140625 106.878906 L 156.140625 104.652344 C 156.140625 102.9375 154.945312 101.578125 153.46875 101.621094 Z M 153.46875 101.621094 "/>
<path style=" stroke:none;fill-rule:nonzero;fill:rgb(100%,100%,100%);fill-opacity:1;" d="M 105.929688 105.828125 C 105.929688 106.367188 105.5 106.820312 104.964844 106.835938 C 104.433594 106.855469 104.003906 106.429688 104.003906 105.890625 C 104.003906 105.347656 104.433594 104.898438 104.964844 104.882812 C 105.5 104.867188 105.929688 105.289062 105.929688 105.828125 Z M 105.929688 105.828125 "/>
<path style=" stroke:none;fill-rule:nonzero;fill:rgb(100%,100%,100%);fill-opacity:1;" d="M 109.292969 105.722656 C 109.292969 106.261719 108.863281 106.710938 108.335938 106.730469 C 107.808594 106.746094 107.378906 106.324219 107.378906 105.785156 C 107.378906 105.246094 107.808594 104.796875 108.335938 104.78125 C 108.863281 104.761719 109.292969 105.1875 109.292969 105.722656 Z M 109.292969 105.722656 "/>
<path style=" stroke:none;fill-rule:nonzero;fill:rgb(100%,100%,100%);fill-opacity:1;" d="M 112.636719 105.621094 C 112.636719 106.15625 112.210938 106.605469 111.6875 106.621094 C 111.160156 106.636719 110.734375 106.214844 110.734375 105.679688 C 110.734375 105.140625 111.160156 104.695312 111.6875 104.679688 C 112.210938 104.664062 112.636719 105.085938 112.636719 105.621094 Z M 112.636719 105.621094 "/>
<path style=" stroke:none;fill-rule:nonzero;fill:rgb(84.705882%,87.058824%,90.980392%);fill-opacity:1;" d="M 153.023438 142.070312 L 104.113281 145.414062 L 104.113281 114.527344 L 153.023438 112.605469 Z M 153.023438 142.070312 "/>
<use xlink:href="#surface30" mask="url(#mask8)"/>
<use xlink:href="#surface33" mask="url(#mask9)"/>
<g clip-path="url(#clip25)" clip-rule="nonzero">
<g clip-path="url(#clip26)" clip-rule="nonzero">
<path style=" stroke:none;fill-rule:nonzero;fill:url(#linear15);" d="M 110.367188 154.140625 C 108.859375 150.207031 110.988281 143.460938 112.324219 140.390625 C 116.207031 131.472656 123.277344 130.8125 129.015625 130.277344 C 134.597656 129.757812 139.945312 129.261719 143.824219 135.582031 C 146.347656 139.691406 148.660156 147.335938 147.121094 151.585938 C 145.496094 156.070312 140.964844 153.003906 130.050781 153.707031 C 117.820312 154.5 112.246094 159.035156 110.367188 154.140625 Z M 110.367188 154.140625 "/>
</g>
</g>
<g clip-path="url(#clip27)" clip-rule="nonzero">
<g clip-path="url(#clip28)" clip-rule="nonzero">
<path style=" stroke:none;fill-rule:nonzero;fill:url(#linear16);" d="M 134.289062 130.910156 C 134.289062 131.988281 131.769531 133.417969 128.644531 133.585938 C 125.507812 133.757812 122.953125 132.589844 122.953125 131.5 C 122.953125 130.410156 125.507812 130.765625 128.644531 130.605469 C 131.769531 130.441406 134.289062 129.832031 134.289062 130.910156 Z M 134.289062 130.910156 "/>
</g>
</g>
<g clip-path="url(#clip29)" clip-rule="nonzero">
<g clip-path="url(#clip30)" clip-rule="nonzero">
<path style=" stroke:none;fill-rule:nonzero;fill:url(#linear17);" d="M 126.558594 123.742188 C 125.691406 123.78125 127.6875 130.007812 124.542969 131.035156 C 124.238281 131.136719 124.1875 131.566406 124.464844 131.707031 C 125.3125 132.140625 126.894531 132.660156 129.476562 132.519531 C 131.152344 132.433594 132.375 131.707031 133.007812 131.230469 C 133.222656 131.066406 133.203125 130.730469 132.96875 130.617188 C 132.011719 130.148438 130.675781 128.570312 131.074219 123.695312 Z M 126.558594 123.742188 "/>
</g>
</g>
<g clip-path="url(#clip31)" clip-rule="nonzero">
<g clip-path="url(#clip32)" clip-rule="nonzero">
<path style=" stroke:none;fill-rule:nonzero;fill:url(#linear18);" d="M 123.925781 116.265625 C 123.9375 116.347656 124.203125 122.117188 125.472656 124.945312 C 125.835938 125.757812 127.640625 125.570312 128.804688 125.417969 C 129.816406 125.28125 131.394531 125.589844 131.839844 124.84375 C 133.621094 121.847656 133.320312 114.640625 133.320312 114.640625 C 133.320312 114.640625 132.40625 112.273438 128.648438 112.480469 C 124.867188 112.6875 123.925781 116.265625 123.925781 116.265625 Z M 123.925781 116.265625 "/>
</g>
</g>
<g clip-path="url(#clip33)" clip-rule="nonzero">
<g clip-path="url(#clip34)" clip-rule="nonzero">
<path style=" stroke:none;fill-rule:nonzero;fill:url(#linear19);" d="M 124.8125 119.335938 C 124.8125 119.335938 124.019531 118.410156 123.269531 118.3125 C 122.519531 118.21875 122.03125 120.253906 123.054688 121.523438 C 124.078125 122.785156 125.257812 121.648438 125.257812 121.648438 Z M 124.8125 119.335938 "/>
</g>
</g>
<g clip-path="url(#clip35)" clip-rule="nonzero">
<g clip-path="url(#clip36)" clip-rule="nonzero">
<path style=" stroke:none;fill-rule:nonzero;fill:url(#linear20);" d="M 132.5 119.007812 C 132.5 119.007812 133.28125 118.023438 134.019531 117.867188 C 134.753906 117.710938 135.234375 119.683594 134.230469 121.027344 C 133.226562 122.375 132.0625 121.347656 132.0625 121.347656 Z M 132.5 119.007812 "/>
</g>
</g>
<g clip-path="url(#clip37)" clip-rule="nonzero">
<g clip-path="url(#clip38)" clip-rule="nonzero">
<path style=" stroke:none;fill-rule:nonzero;fill:url(#linear21);" d="M 124.191406 119.289062 C 124.292969 119.476562 124.40625 119.648438 124.484375 119.625 C 124.804688 119.523438 123.566406 116.324219 124.707031 115.144531 C 125.296875 114.53125 125.960938 115.042969 128.363281 114.835938 C 130.773438 114.628906 131.390625 114.003906 132.117188 114.433594 C 132.777344 114.828125 133.367188 116 132.878906 119.5625 C 133.015625 119.523438 133.152344 119.484375 133.289062 119.445312 C 133.105469 118.292969 133.304688 117.554688 133.53125 117.082031 C 133.699219 116.738281 134.003906 116.292969 133.980469 115.667969 C 133.964844 115.28125 133.839844 115.269531 133.820312 114.949219 C 133.761719 114.019531 134.777344 113.730469 134.824219 112.808594 C 134.863281 112.097656 134.28125 111.960938 134.386719 111.214844 C 134.476562 110.582031 134.933594 110.445312 134.859375 109.996094 C 134.785156 109.507812 134.171875 109.164062 133.742188 109.050781 C 133.304688 108.933594 133.148438 109.085938 132.890625 108.90625 C 132.476562 108.621094 132.675781 108.082031 132.375 107.894531 C 131.839844 107.5625 130.773438 109.003906 130.085938 108.679688 C 129.667969 108.480469 129.828125 107.839844 129.457031 107.699219 C 128.742188 107.425781 127.476562 109.5625 126.96875 109.300781 C 126.722656 109.175781 126.957031 108.660156 126.617188 108.292969 C 126.214844 107.867188 125.246094 107.898438 124.804688 108.382812 C 124.390625 108.832031 124.742188 109.339844 124.304688 109.90625 C 123.914062 110.417969 123.460938 110.230469 123.015625 110.644531 C 122.265625 111.347656 122.527344 112.867188 122.621094 113.410156 C 122.941406 115.277344 123.945312 115.617188 123.71875 116.90625 C 123.660156 117.234375 123.527344 117.605469 123.625 118.136719 C 123.71875 118.65625 123.980469 119.042969 124.191406 119.289062 Z M 124.191406 119.289062 "/>
</g>
</g>
<g clip-path="url(#clip39)" clip-rule="nonzero">
<g clip-path="url(#clip40)" clip-rule="nonzero">
<use xlink:href="#surface36" mask="url(#mask10)"/>
</g>
</g>
<path style=" stroke:none;fill-rule:nonzero;fill:rgb(100%,100%,100%);fill-opacity:1;" d="M 122.585938 140.003906 C 122.585938 140.96875 121.835938 141.792969 120.90625 141.847656 C 119.972656 141.90625 119.21875 141.167969 119.21875 140.203125 C 119.21875 139.238281 119.972656 138.410156 120.90625 138.359375 C 121.835938 138.304688 122.585938 139.042969 122.585938 140.003906 Z M 122.585938 140.003906 "/>
<path style=" stroke:none;fill-rule:nonzero;fill:rgb(100%,100%,100%);fill-opacity:1;" d="M 130.414062 139.542969 C 130.414062 140.5 129.671875 141.320312 128.753906 141.375 C 127.835938 141.429688 127.089844 140.699219 127.089844 139.738281 C 127.089844 138.78125 127.835938 137.960938 128.753906 137.90625 C 129.671875 137.855469 130.414062 138.585938 130.414062 139.542969 Z M 130.414062 139.542969 "/>
<path style=" stroke:none;fill-rule:nonzero;fill:rgb(100%,100%,100%);fill-opacity:1;" d="M 138.148438 139.089844 C 138.148438 140.039062 137.414062 140.855469 136.507812 140.910156 C 135.597656 140.964844 134.863281 140.234375 134.863281 139.28125 C 134.863281 138.328125 135.597656 137.515625 136.507812 137.460938 C 137.414062 137.410156 138.148438 138.136719 138.148438 139.089844 Z M 138.148438 139.089844 "/>
<path style=" stroke:none;fill-rule:nonzero;fill:rgb(84.705882%,87.058824%,90.980392%);fill-opacity:1;" d="M 121.457031 102.53125 L 121.457031 120.195312 C 121.457031 122.707031 119.652344 124.828125 117.421875 124.945312 L 104.113281 125.632812 L 101.609375 125.761719 L 100.566406 125.816406 L 100.566406 106.378906 C 100.566406 106.34375 100.566406 106.3125 100.570312 106.273438 C 100.570312 106.234375 100.574219 106.195312 100.578125 106.152344 C 100.621094 105.582031 100.832031 105.050781 101.09375 104.589844 C 101.097656 104.574219 101.136719 104.5625 101.144531 104.550781 C 101.675781 103.640625 102.597656 103.027344 103.625 103 L 109.246094 102.839844 C 109.25 102.855469 109.257812 102.867188 109.261719 102.878906 Z M 121.457031 102.53125 "/>
<path style=" stroke:none;fill-rule:nonzero;fill:rgb(84.705882%,87.058824%,90.980392%);fill-opacity:1;" d="M 119.414062 63.945312 C 119.414062 61.753906 118.023438 59.914062 116.191406 59.480469 C 116.125 59.464844 116.050781 59.453125 115.984375 59.441406 C 115.785156 59.40625 115.578125 59.386719 115.371094 59.386719 L 76.851562 59.160156 L 38.847656 58.9375 C 38.765625 58.9375 38.6875 58.9375 38.609375 58.941406 C 37.59375 58.992188 36.667969 59.386719 35.925781 60.015625 C 35.914062 60.027344 35.898438 60.039062 35.886719 60.050781 C 35.78125 60.144531 35.675781 60.242188 35.578125 60.34375 C 35.578125 60.347656 35.574219 60.347656 35.574219 60.351562 C 35.515625 60.410156 35.457031 60.472656 35.402344 60.539062 C 34.664062 61.398438 34.214844 62.542969 34.214844 63.800781 L 34.214844 122.34375 C 34.214844 122.765625 34.265625 123.171875 34.359375 123.558594 C 34.417969 123.789062 34.492188 124.011719 34.578125 124.226562 C 35.164062 125.65625 36.402344 126.691406 37.902344 126.941406 C 38.207031 126.992188 38.523438 127.011719 38.847656 126.992188 L 97.007812 123.980469 L 115.378906 123.03125 C 117.605469 122.914062 119.414062 120.789062 119.414062 118.285156 Z M 119.414062 63.945312 "/>
<path style=" stroke:none;fill-rule:nonzero;fill:rgb(100%,100%,100%);fill-opacity:1;" d="M 119.574219 63.917969 L 119.574219 118.3125 C 119.574219 120.824219 117.769531 122.949219 115.539062 123.0625 L 96.898438 124.027344 L 38.855469 127.03125 C 36.476562 127.15625 34.378906 125.371094 34.113281 122.945312 C 34.09375 122.761719 33.949219 63.769531 33.949219 63.769531 C 33.949219 62.78125 34.363281 61.859375 34.84375 61.089844 C 34.855469 61.070312 34.933594 61.046875 34.949219 61.027344 C 35.785156 59.734375 37.226562 58.890625 38.824219 58.902344 L 47.667969 58.953125 L 115.535156 59.351562 C 117.761719 59.363281 119.574219 61.40625 119.574219 63.917969 Z M 119.574219 63.917969 "/>
<path style=" stroke:none;fill-rule:nonzero;fill:url(#linear23);" d="M 38.855469 125.472656 C 37.117188 125.5625 35.699219 124.140625 35.699219 122.304688 L 35.699219 63.773438 C 35.699219 61.9375 37.117188 60.449219 38.855469 60.457031 L 115.539062 60.804688 C 117.054688 60.8125 118.28125 62.207031 118.28125 63.914062 L 118.28125 118.371094 C 118.28125 120.078125 117.054688 121.527344 115.539062 121.605469 Z M 38.855469 125.472656 "/>
<path style=" stroke:none;fill-rule:nonzero;fill:rgb(84.705882%,87.058824%,90.980392%);fill-opacity:1;" d="M 115.539062 59.351562 L 38.855469 58.902344 C 36.296875 58.886719 34.214844 61.066406 34.214844 63.769531 L 34.214844 67.28125 L 119.566406 67.175781 L 119.566406 63.914062 C 119.566406 61.40625 117.765625 59.363281 115.539062 59.351562 Z M 115.539062 59.351562 "/>
<path style=" stroke:none;fill-rule:nonzero;fill:rgb(100%,100%,100%);fill-opacity:1;" d="M 42.46875 63.179688 C 42.46875 63.980469 41.796875 64.632812 40.964844 64.632812 C 40.128906 64.632812 39.453125 63.976562 39.453125 63.171875 C 39.453125 62.363281 40.128906 61.714844 40.964844 61.714844 C 41.796875 61.71875 42.46875 62.375 42.46875 63.179688 Z M 42.46875 63.179688 "/>
<path style=" stroke:none;fill-rule:nonzero;fill:rgb(100%,100%,100%);fill-opacity:1;" d="M 47.726562 63.191406 C 47.726562 63.992188 47.058594 64.636719 46.234375 64.636719 C 45.410156 64.636719 44.738281 63.984375 44.738281 63.183594 C 44.738281 62.378906 45.410156 61.730469 46.234375 61.734375 C 47.058594 61.738281 47.726562 62.390625 47.726562 63.191406 Z M 47.726562 63.191406 "/>
<path style=" stroke:none;fill-rule:nonzero;fill:rgb(100%,100%,100%);fill-opacity:1;" d="M 52.941406 63.203125 C 52.941406 64 52.277344 64.644531 51.460938 64.644531 C 50.640625 64.640625 49.976562 63.992188 49.976562 63.195312 C 49.976562 62.394531 50.640625 61.75 51.460938 61.753906 C 52.277344 61.753906 52.941406 62.402344 52.941406 63.203125 Z M 52.941406 63.203125 "/>
<path style=" stroke:none;fill-rule:nonzero;fill:rgb(84.705882%,87.058824%,90.980392%);fill-opacity:1;" d="M 114.863281 118.554688 L 39.625 122.144531 L 39.625 76.066406 L 114.863281 75.414062 Z M 114.863281 118.554688 "/>
<use xlink:href="#surface39" mask="url(#mask11)"/>
<use xlink:href="#surface42" mask="url(#mask12)"/>
<path style=" stroke:none;fill-rule:nonzero;fill:rgb(100%,100%,100%);fill-opacity:1;" d="M 69.128906 113.917969 C 69.128906 115.632812 67.789062 117.078125 66.132812 117.152344 C 64.46875 117.222656 63.117188 115.882812 63.117188 114.160156 C 63.117188 112.4375 64.46875 110.988281 66.132812 110.925781 C 67.789062 110.863281 69.128906 112.203125 69.128906 113.917969 Z M 69.128906 113.917969 "/>
<path style=" stroke:none;fill-rule:nonzero;fill:rgb(100%,100%,100%);fill-opacity:1;" d="M 81.175781 113.429688 C 81.175781 115.125 79.863281 116.558594 78.242188 116.628906 C 76.617188 116.699219 75.292969 115.371094 75.292969 113.667969 C 75.292969 111.964844 76.617188 110.53125 78.242188 110.46875 C 79.863281 110.410156 81.175781 111.734375 81.175781 113.429688 Z M 81.175781 113.429688 "/>
<path style=" stroke:none;fill-rule:nonzero;fill:rgb(100%,100%,100%);fill-opacity:1;" d="M 92.957031 112.953125 C 92.957031 114.628906 91.675781 116.046875 90.085938 116.113281 C 88.496094 116.183594 87.203125 114.871094 87.203125 113.1875 C 87.203125 111.5 88.496094 110.085938 90.085938 110.023438 C 91.675781 109.964844 92.957031 111.277344 92.957031 112.953125 Z M 92.957031 112.953125 "/>
<g clip-path="url(#clip44)" clip-rule="nonzero">
<g clip-path="url(#clip45)" clip-rule="nonzero">
<path style=" stroke:none;fill-rule:nonzero;fill:url(#linear24);" d="M 79.074219 124.09375 C 58.707031 125.160156 51.417969 128.191406 48.085938 123.886719 C 45.007812 119.90625 47.558594 105.054688 51.21875 100.816406 C 56.960938 94.167969 66.078125 93.65625 78.347656 93.058594 C 89.679688 92.507812 96.566406 92.171875 101.953125 96.910156 C 106.945312 101.304688 110.113281 116.753906 107.023438 121.214844 C 104.144531 125.371094 97.941406 123.105469 79.074219 124.09375 Z M 79.074219 124.09375 "/>
</g>
</g>
<g clip-path="url(#clip46)" clip-rule="nonzero">
<g clip-path="url(#clip47)" clip-rule="nonzero">
<path style=" stroke:none;fill-rule:nonzero;fill:url(#linear25);" d="M 71.605469 93.179688 L 69.226562 93.835938 C 68.644531 93.996094 68.375 94.675781 68.703125 95.175781 C 70.324219 97.65625 74.601562 103.847656 77.265625 104.507812 C 80.007812 105.191406 85.101562 97.125 86.785156 94.300781 C 87.078125 93.816406 86.84375 93.191406 86.3125 93.03125 L 84.605469 92.519531 C 83.207031 92.101562 81.734375 91.960938 80.265625 92.109375 L 73.824219 92.761719 C 73.078125 92.839844 72.335938 92.976562 71.605469 93.179688 Z M 71.605469 93.179688 "/>
</g>
</g>
<g clip-path="url(#clip48)" clip-rule="nonzero">
<g clip-path="url(#clip49)" clip-rule="nonzero">
<path style=" stroke:none;fill-rule:nonzero;fill:url(#linear26);" d="M 73.367188 83.960938 C 73.367188 83.960938 74.667969 93.28125 72.867188 94.214844 L 77.976562 99.65625 L 83.109375 92.972656 C 83.109375 92.972656 81.171875 91.546875 81.683594 83.847656 Z M 73.367188 83.960938 "/>
</g>
</g>
<g clip-path="url(#clip50)" clip-rule="nonzero">
<g clip-path="url(#clip51)" clip-rule="nonzero">
<path style=" stroke:none;fill-rule:nonzero;fill:url(#linear27);" d="M 70.335938 70.59375 C 70.152344 70.84375 67.730469 82.683594 76.070312 83.808594 C 84.304688 84.917969 84.667969 76.28125 84.5625 72.621094 C 84.457031 68.957031 80.703125 67.632812 78.546875 67.378906 C 76.382812 67.125 70.996094 69.703125 70.335938 70.59375 Z M 70.335938 70.59375 "/>
</g>
</g>
<g clip-path="url(#clip52)" clip-rule="nonzero">
<g clip-path="url(#clip53)" clip-rule="nonzero">
<path style=" stroke:none;fill-rule:nonzero;fill:url(#linear28);" d="M 69.851562 77.492188 C 69.851562 77.492188 69.433594 75.5625 67.996094 76.777344 C 66.558594 77.996094 68.84375 81.171875 70.726562 81.019531 Z M 69.851562 77.492188 "/>
</g>
</g>
<g clip-path="url(#clip54)" clip-rule="nonzero">
<g clip-path="url(#clip55)" clip-rule="nonzero">
<path style=" stroke:none;fill-rule:nonzero;fill:url(#linear29);" d="M 84.308594 76.035156 C 84.074219 76.195312 83.398438 80.6875 83.398438 80.6875 C 83.398438 80.6875 84.582031 80.8125 85.433594 79.195312 C 86.289062 77.582031 86.699219 74.390625 84.308594 76.035156 Z M 84.308594 76.035156 "/>
</g>
</g>
<g clip-path="url(#clip56)" clip-rule="nonzero">
<g clip-path="url(#clip57)" clip-rule="nonzero">
<path style=" stroke:none;fill-rule:nonzero;fill:rgb(14.901961%,14.901961%,30.980392%);fill-opacity:1;" d="M 87.519531 67.46875 C 86.660156 66.03125 84.488281 66.714844 83.851562 65.324219 C 83.316406 64.15625 84.574219 63.0625 83.898438 62.054688 C 83.335938 61.207031 81.957031 61.222656 81.710938 61.226562 C 79.839844 61.246094 79.410156 62.734375 78.070312 62.699219 C 76.433594 62.652344 76.371094 60.410156 74.199219 59.453125 C 72.085938 58.523438 68.984375 59.257812 67.722656 60.980469 C 66.746094 62.320312 67.578125 63.3125 66.292969 65.039062 C 65.40625 66.226562 64.625 66.28125 64.183594 67.445312 C 63.769531 68.539062 64.050781 69.582031 64.269531 70.355469 C 64.792969 72.210938 65.769531 73.023438 67.246094 74.988281 C 67.90625 75.867188 68.808594 77.167969 69.738281 78.878906 C 70.128906 79.910156 70.683594 81.507812 71.199219 83.523438 C 71.667969 85.355469 71.640625 85.730469 72.074219 86.316406 C 73.582031 88.347656 77.003906 88.089844 78.4375 87.980469 C 80.078125 87.859375 82.113281 87.707031 83.136719 86.265625 C 83.6875 85.484375 83.617188 84.792969 83.746094 82.929688 C 83.835938 81.601562 84.027344 79.734375 84.453125 77.472656 C 84.460938 77.472656 84.644531 76.433594 85.121094 75.15625 C 85.710938 73.5625 86.324219 73.304688 86.992188 71.65625 C 87.527344 70.339844 88.214844 68.636719 87.519531 67.46875 Z M 80.738281 79.941406 C 79.726562 80.226562 79.042969 79.988281 77.667969 79.925781 C 74.90625 79.792969 74.03125 81.097656 72.722656 80.542969 C 72.175781 80.3125 70.910156 79.660156 70.640625 78.386719 C 70.484375 77.558594 70.375 76.425781 70.554688 75.117188 C 70.773438 73.515625 71.023438 71.667969 72.308594 70.847656 C 74.167969 69.65625 76.535156 71.679688 78.230469 70.359375 C 78.878906 69.855469 79.136719 69.089844 79.257812 68.507812 C 79.632812 68.636719 82.609375 69.71875 83.699219 72.898438 C 84.375 74.859375 83.988281 76.613281 83.660156 77.566406 C 83.046875 78.507812 82.105469 79.558594 80.738281 79.941406 Z M 80.738281 79.941406 "/>
</g>
</g>
<g clip-path="url(#clip58)" clip-rule="nonzero">
<g clip-path="url(#clip59)" clip-rule="nonzero">
<path style=" stroke:none;fill-rule:nonzero;fill:url(#linear30);" d="M 75.027344 81.949219 C 76.09375 82.265625 77.695312 82.46875 79.484375 81.765625 C 79.667969 81.695312 79.828125 81.894531 79.671875 82.007812 C 79.035156 82.472656 78.097656 82.96875 77.082031 82.90625 C 76.238281 82.855469 75.464844 82.539062 74.867188 82.207031 C 74.695312 82.113281 74.832031 81.890625 75.027344 81.949219 Z M 75.027344 81.949219 "/>
</g>
</g>
<path style=" stroke:none;fill-rule:nonzero;fill:rgb(100%,100%,100%);fill-opacity:1;" d="M 68.707031 113.90625 C 68.707031 115.328125 67.542969 116.53125 66.105469 116.585938 C 64.664062 116.640625 63.496094 115.527344 63.496094 114.09375 C 63.496094 112.664062 64.664062 111.464844 66.105469 111.414062 C 67.542969 111.363281 68.707031 112.480469 68.707031 113.90625 Z M 68.707031 113.90625 "/>
<path style=" stroke:none;fill-rule:nonzero;fill:rgb(100%,100%,100%);fill-opacity:1;" d="M 80.761719 113.464844 C 80.761719 114.875 79.617188 116.066406 78.207031 116.121094 C 76.792969 116.175781 75.644531 115.070312 75.644531 113.652344 C 75.644531 112.234375 76.792969 111.042969 78.207031 110.996094 C 79.617188 110.945312 80.761719 112.050781 80.761719 113.464844 Z M 80.761719 113.464844 "/>
<path style=" stroke:none;fill-rule:nonzero;fill:rgb(100%,100%,100%);fill-opacity:1;" d="M 92.59375 113.03125 C 92.59375 114.433594 91.472656 115.609375 90.089844 115.664062 C 88.703125 115.714844 87.574219 114.621094 87.574219 113.214844 C 87.574219 111.8125 88.703125 110.632812 90.089844 110.585938 C 91.472656 110.535156 92.59375 111.632812 92.59375 113.03125 Z M 92.59375 113.03125 "/>
<path style=" stroke:none;fill-rule:nonzero;fill:url(#linear31);" d="M 59.199219 65.546875 C 60.824219 63.511719 61.757812 61.128906 61.757812 58.574219 C 61.757812 51.15625 53.855469 45.140625 44.109375 45.140625 C 34.367188 45.140625 26.464844 51.15625 26.464844 58.574219 C 26.464844 65.996094 34.367188 72.011719 44.109375 72.011719 C 47.765625 72.011719 51.15625 71.167969 53.972656 69.71875 C 55.832031 70.035156 58.722656 70.570312 60.246094 70.855469 C 60.695312 70.9375 61.0625 70.5 60.902344 70.070312 Z M 59.199219 65.546875 "/>
<path style=" stroke:none;fill-rule:nonzero;fill:url(#linear32);" d="M 53.769531 61.417969 C 49.8125 59.757812 45.460938 63.265625 42.738281 60.816406 C 39.996094 58.347656 42.960938 53.46875 40.332031 49.988281 C 39.082031 48.332031 36.976562 47.546875 34.570312 47.273438 C 29.695312 49.664062 26.464844 53.832031 26.464844 58.574219 C 26.464844 65.996094 34.367188 72.011719 44.109375 72.011719 C 47.765625 72.011719 51.15625 71.167969 53.972656 69.71875 C 55.441406 69.96875 57.546875 70.355469 59.121094 70.644531 C 57.960938 64.628906 55.828125 62.285156 53.769531 61.417969 Z M 53.769531 61.417969 "/>
<path style=" stroke:none;fill-rule:nonzero;fill:rgb(100%,100%,100%);fill-opacity:1;" d="M 55.8125 53.664062 C 55.8125 54.039062 55.511719 54.34375 55.136719 54.34375 L 33.683594 54.34375 C 33.308594 54.34375 33.007812 54.039062 33.007812 53.664062 C 33.007812 53.292969 33.308594 52.988281 33.683594 52.988281 L 55.136719 52.988281 C 55.511719 52.988281 55.8125 53.292969 55.8125 53.664062 Z M 55.8125 53.664062 "/>
<path style=" stroke:none;fill-rule:nonzero;fill:rgb(100%,100%,100%);fill-opacity:1;" d="M 55.8125 57.730469 C 55.8125 58.105469 55.511719 58.40625 55.136719 58.40625 L 33.683594 58.40625 C 33.308594 58.40625 33.007812 58.105469 33.007812 57.730469 C 33.007812 57.355469 33.308594 57.054688 33.683594 57.054688 L 55.136719 57.054688 C 55.511719 57.054688 55.8125 57.355469 55.8125 57.730469 Z M 55.8125 57.730469 "/>
<path style=" stroke:none;fill-rule:nonzero;fill:rgb(100%,100%,100%);fill-opacity:1;" d="M 45.652344 61.796875 C 45.652344 62.167969 45.347656 62.472656 44.976562 62.472656 L 33.683594 62.472656 C 33.308594 62.472656 33.007812 62.167969 33.007812 61.796875 C 33.007812 61.421875 33.308594 61.117188 33.683594 61.117188 L 44.976562 61.117188 C 45.347656 61.117188 45.652344 61.421875 45.652344 61.796875 Z M 45.652344 61.796875 "/>
</g>
</svg>
