<svg width="106" height="20" viewBox="0 0 106 20" fill="none" xmlns="http://www.w3.org/2000/svg">
<g clip-path="url(#clip0)">
<path d="M13.8932 2.06768C13.3655 1.77479 11.8528 1.95589 10.0361 2.51826C6.85654 4.69162 4.17307 7.89354 3.98581 13.0353C3.95171 13.1582 3.6381 13.0185 3.57608 12.9805C2.71747 11.3348 2.37731 9.60196 3.09422 7.10214C3.22785 6.87967 2.79097 6.60579 2.71242 6.68401C2.55506 6.84164 1.89906 7.54045 1.46337 8.29618C-0.696291 12.0426 0.716029 16.8429 4.49448 18.9437C8.27214 21.0477 13.0425 19.6905 15.1459 15.9117C17.5793 11.5503 15.3198 2.86446 13.8932 2.06781L13.8932 2.06768Z" fill="#DDE4E8"/>
<path d="M27.4151 4.16077C22.9359 4.16077 19.6847 7.49067 19.6847 12.0787C19.6847 16.7043 22.9274 19.935 27.5711 19.935C29.9166 19.935 31.7736 19.2015 33.2505 17.6917C33.6916 17.2154 33.739 16.7565 33.739 16.581C33.739 15.8331 33.1828 15.2898 32.4165 15.2898C32.0302 15.2898 31.7071 15.4357 31.3365 15.7783C30.5003 16.5575 29.399 17.3535 27.5711 17.3535C25.0293 17.3535 22.9622 15.4452 22.832 12.9945H32.9483C34.0484 12.9945 34.5828 12.4802 34.5828 11.4226C34.5828 11.1112 34.5828 10.8865 34.5202 10.4432C33.9752 6.50959 31.3194 4.16129 27.4153 4.16129L27.4151 4.16077ZM27.4151 6.61699C29.8439 6.61699 31.4024 8.16483 31.4985 10.663H22.8351C23.0626 8.35098 25.0174 6.61699 27.4149 6.61699H27.4151Z" fill="#DDE4E8"/>
<path d="M44.2429 4.16077C42.2081 4.16077 40.1935 5.33075 39.4064 6.9557V5.95147C39.4064 4.39576 38.2007 4.31695 37.9592 4.31695C37.2448 4.31695 36.4813 4.74628 36.4813 5.95147V18.0808C36.4813 19.6963 37.7647 19.7779 38.0218 19.7779C38.279 19.7779 39.563 19.6963 39.563 18.0808V11.5786C39.563 8.74949 41.1662 6.77349 43.4614 6.77349C45.6846 6.77349 46.7656 8.23243 46.7656 11.2342V18.0808C46.7656 19.6963 48.0496 19.7779 48.3068 19.7779C48.5639 19.7779 49.8474 19.6963 49.8474 18.0808V10.2665C49.8474 7.31495 48.375 4.16168 44.2429 4.16168V4.16077Z" fill="#DDE4E8"/>
<path d="M63.791 4.31726C63.0789 4.31726 62.5624 4.73263 62.2549 5.54986L58.0387 16.1521L53.8546 5.54986C53.5271 4.72037 53.0145 4.31726 52.2872 4.31726C51.4376 4.31726 50.7461 4.98021 50.7461 5.79528C50.7461 5.99703 50.769 6.25864 50.9395 6.66726L55.7849 18.1081C56.3623 19.4883 57.312 19.7779 58.0073 19.7779C58.7022 19.7779 59.6525 19.4883 60.2311 18.1088L65.108 6.60431C65.2746 6.20075 65.3003 5.90445 65.3003 5.7642C65.3003 4.93969 64.6508 4.31746 63.791 4.31746V4.31726Z" fill="#DDE4E8"/>
<path d="M72.7488 4.16082C70.7778 4.16082 68.942 4.70975 67.5804 5.70533C67.1186 6.02392 66.8939 6.42139 66.8939 6.92114C66.8939 7.60927 67.4193 8.14869 68.0913 8.14869C68.3819 8.14869 68.7073 8.03296 69.0057 7.82387C70.1763 7.04355 71.2764 6.67966 72.467 6.67966C74.7455 6.67966 76.0535 7.83843 76.0535 9.85921V10.1941C70.9387 10.1996 65.7365 10.8173 65.7365 15.2669C65.7365 18.4694 68.4733 19.9032 71.1855 19.9032C73.3455 19.9032 75.0705 19.0474 76.1773 17.4268V18.2061C76.1773 19.3665 76.9566 19.778 77.6252 19.778C77.766 19.778 79.0092 19.7339 79.0092 18.2061V10.0462C79.0092 6.36021 76.6682 4.16003 72.7485 4.16003L72.7488 4.16082ZM75.4052 12.463H76.0536V13.1729C76.0536 15.7694 74.4001 17.4469 71.8422 17.4469C71.1479 17.4469 68.8818 17.2854 68.8818 15.2043C68.8817 12.7469 72.6046 12.463 75.4052 12.463Z" fill="#DDE4E8"/>
<path d="M87.0359 7.11729C88.3842 7.11729 88.4524 6.06809 88.4524 5.85788C88.4524 5.23401 88.0801 4.56713 87.0359 4.56713H84.2633V1.76269C84.2633 0.509966 83.4505 0.0655518 82.754 0.0655518C82.4969 0.0655518 81.2134 0.147183 81.2134 1.76269V15.08C81.2134 18.1534 82.7294 19.7778 85.5982 19.7778C86.3405 19.7778 87.0639 19.6464 87.5367 19.4261C88.079 19.1556 88.3898 18.7107 88.3898 18.2059C88.3898 17.4937 87.8732 16.9773 87.1611 16.9773C87.0235 16.9773 86.828 17.0114 86.6122 17.0734C86.3483 17.1394 86.1695 17.1651 85.9738 17.1651C84.8067 17.1651 84.2633 16.4032 84.2633 14.767V7.11598H87.0359V7.11729Z" fill="#DDE4E8"/>
<path d="M97.225 4.16077C92.5641 4.16077 89.1825 7.46444 89.1825 12.0157C89.1825 14.2316 90.002 16.2512 91.4889 17.7023C92.9646 19.1417 95.0016 19.9344 97.2253 19.9344C101.828 19.9344 105.299 16.5302 105.299 12.0159C105.299 7.46451 101.903 4.1609 97.2253 4.1609L97.225 4.16077ZM97.225 17.3214C94.0287 17.3214 92.3573 14.6522 92.3573 12.0154C92.3573 8.39202 94.8806 6.74189 97.225 6.74189C99.5694 6.74189 102.093 8.39202 102.093 12.0154C102.093 15.6612 99.5694 17.3214 97.225 17.3214Z" fill="#DDE4E8"/>
</g>
<defs>
<clipPath id="clip0">
<rect x="0.381531" width="104.986" height="20" fill="white"/>
</clipPath>
</defs>
</svg>
