<svg width="144" height="20" viewBox="0 0 144 20" fill="none" xmlns="http://www.w3.org/2000/svg">
<g clip-path="url(#clip0)">
<path d="M63.6211 2.41766H52.6533C52.5286 2.41804 52.4091 2.46774 52.321 2.55589C52.2328 2.64404 52.1831 2.7635 52.1828 2.88816V16.207C52.1828 16.207 49.7941 12.8122 49.3236 12.0579C50.0067 11.6863 50.6017 11.1718 51.068 10.5494C51.6341 9.7937 51.9164 8.80348 51.899 7.62505V7.57872C51.9164 6.11654 51.4444 4.89034 50.5483 4.04198C49.9891 3.48907 49.3121 3.06987 48.5679 2.81578C47.6429 2.50617 46.6685 2.37117 45.6942 2.41766H39.3243C39.2674 2.4129 39.2102 2.41939 39.1559 2.43674C39.1015 2.4541 39.0511 2.482 39.0076 2.51883C38.964 2.55567 38.9282 2.60072 38.902 2.65143C38.8759 2.70213 38.86 2.75749 38.8552 2.81433C38.8545 2.82687 38.8545 2.83944 38.8552 2.85197C38.8552 2.73679 38.8095 2.62632 38.728 2.54487C38.6466 2.46342 38.5361 2.41766 38.4209 2.41766H27.3084C27.6384 1.86609 28.4882 0.735433 28.4882 0.735433C28.5404 0.646944 28.5725 0.548117 28.5823 0.445892C28.5899 0.364252 28.5733 0.282195 28.5346 0.209917C28.4405 0.0651467 28.1104 0 28.1104 0H23.4777C23.3368 0.0119966 23.2055 0.0765993 23.11 0.180963C23.11 0.180963 19.9106 4.81361 19.262 5.78936C18.6569 5.0076 17.1744 2.64206 17.1744 2.64206C17.1308 2.5708 17.0695 2.51203 16.9964 2.47144C16.9234 2.43086 16.8411 2.40984 16.7575 2.41042H12.4332C12.3719 2.40939 12.311 2.42182 12.255 2.44683C12.199 2.47184 12.1491 2.50883 12.1089 2.55519C12.0687 2.50883 12.0189 2.47184 11.9629 2.44683C11.9068 2.42182 11.846 2.40939 11.7846 2.41042H0.890694C0.767946 2.41081 0.650334 2.45974 0.563538 2.54653C0.476742 2.63333 0.427811 2.75094 0.427429 2.87369V16.6848C0.427809 16.8099 0.477608 16.9299 0.565993 17.0186C0.654377 17.1072 0.774196 17.1574 0.89938 17.1582H11.7238C11.2504 17.8661 10.3529 19.2371 10.3529 19.2371C10.2995 19.325 10.2673 19.4241 10.2588 19.5266C10.2517 19.6081 10.2678 19.6898 10.3051 19.7626C10.3499 19.8352 10.4125 19.8952 10.487 19.9367C10.5615 19.9783 10.6454 20.0001 10.7307 20H14.8798C14.9655 19.9946 15.0489 19.9703 15.124 19.9287C15.1992 19.8872 15.2641 19.8294 15.3141 19.7597C15.3141 19.7597 18.6801 14.3757 19.346 13.3189C19.9251 14.2309 21.6059 16.9236 21.6059 16.9236C21.6515 16.9977 21.7154 17.0587 21.7915 17.1008C21.8676 17.1429 21.9532 17.1647 22.0402 17.164H26.3384C26.4224 17.164 26.5051 17.1427 26.5786 17.1019C26.652 17.0611 26.7139 17.0022 26.7582 16.9309C26.8001 16.8609 26.8165 16.7785 26.8046 16.6978C26.7946 16.5983 26.7625 16.5023 26.7105 16.4169C26.7105 16.4169 22.5613 10.2164 22.2414 9.70395C22.3862 9.51719 23.3996 8.02461 24.4318 6.5798C24.4761 6.65118 24.538 6.71004 24.6114 6.75083C24.6849 6.79162 24.7676 6.81298 24.8516 6.81288H30.2081V16.6949C30.2085 16.8192 30.258 16.9383 30.3459 17.0261C30.4338 17.114 30.5529 17.1636 30.6772 17.164H34.5469C34.6715 17.164 34.7911 17.1146 34.8796 17.0267C34.968 16.9389 35.0181 16.8196 35.0188 16.6949V6.81288H38.3746C38.4365 6.81327 38.4979 6.80143 38.5552 6.77804C38.6125 6.75466 38.6647 6.72019 38.7086 6.67662C38.7526 6.63304 38.7876 6.58122 38.8115 6.52411C38.8354 6.467 38.8478 6.40574 38.848 6.34383V16.6963C38.8495 16.8214 38.9005 16.9408 38.9897 17.0284C39.0789 17.116 39.1992 17.1647 39.3243 17.164H43.1911C43.3164 17.1651 43.437 17.1165 43.5266 17.0289C43.6162 16.9412 43.6673 16.8216 43.6688 16.6963V13.051H44.5375C44.7763 13.426 47.2114 16.9772 47.2114 16.9772C47.2537 17.0385 47.3111 17.0879 47.378 17.1206C47.445 17.1533 47.5192 17.1682 47.5936 17.164H51.8179C51.9588 17.1668 52.0953 17.1149 52.1987 17.0192C52.3021 17.1149 52.4386 17.1668 52.5794 17.164H63.6167C63.7432 17.1636 63.8643 17.1131 63.9536 17.0235C64.0429 16.934 64.093 16.8127 64.093 16.6862V13.3883C64.0932 13.3256 64.081 13.2634 64.0572 13.2054C64.0334 13.1474 63.9983 13.0946 63.9541 13.0501C63.9099 13.0056 63.8573 12.9703 63.7994 12.9461C63.7415 12.9219 63.6795 12.9093 63.6167 12.9092H56.8617V11.7756H63.0492C63.1116 11.7758 63.1734 11.7637 63.231 11.74C63.2887 11.7163 63.3412 11.6815 63.3854 11.6376C63.4296 11.5936 63.4648 11.5414 63.4888 11.4838C63.5128 11.4263 63.5253 11.3646 63.5255 11.3022V8.27796C63.5247 8.15214 63.4742 8.03174 63.385 7.94304C63.2957 7.85434 63.175 7.80456 63.0492 7.80456H56.8617V6.67101H63.6167C63.7432 6.67063 63.8643 6.62012 63.9536 6.53057C64.0429 6.44102 64.093 6.31972 64.093 6.19327V2.88816C64.0926 2.76325 64.0427 2.64358 63.9543 2.55538C63.8658 2.46719 63.746 2.41766 63.6211 2.41766ZM14.3818 13.0525C14.3401 13.0058 14.2887 12.9686 14.2312 12.9436C14.1737 12.9186 14.1115 12.9064 14.0489 12.9077H5.1064V11.7742H11.2939C11.3562 11.7744 11.418 11.7623 11.4757 11.7386C11.5334 11.7149 11.5858 11.6801 11.6301 11.6361C11.6743 11.5921 11.7094 11.5399 11.7335 11.4824C11.7575 11.4248 11.77 11.3631 11.7702 11.3008V8.27796C11.7694 8.15214 11.7189 8.03174 11.6297 7.94304C11.5404 7.85434 11.4197 7.80456 11.2939 7.80456H5.1064V6.52914H12.0033C12.1293 6.52838 12.25 6.47795 12.3392 6.38879C12.4284 6.29963 12.4788 6.17893 12.4795 6.05284V3.29063C12.8125 3.76692 16.3797 9.14803 16.7126 9.57655C16.5708 9.76764 15.4763 11.434 14.3818 13.0525ZM47.1969 7.92472C47.1969 8.30981 47.0999 8.55158 46.8103 8.74412C46.5208 8.98444 46.1357 9.08143 45.5581 9.08143H43.5313V6.67101H45.5074C46.0387 6.67101 46.4716 6.76656 46.7611 7.00833C46.9537 7.10532 47.1954 7.34564 47.1954 7.92472H47.1969Z" fill="#DDE4E8"/>
<path d="M91.126 6.62619C91.2514 6.62619 91.3717 6.57656 91.4607 6.48814C91.5497 6.39971 91.6 6.27968 91.6008 6.15424V4.5444C91.5923 4.4419 91.5601 4.34279 91.5067 4.25486L90.3254 2.60013C90.2836 2.53922 90.227 2.48997 90.1609 2.45704C90.0947 2.42411 90.0213 2.40858 89.9475 2.41193H80.2103C80.0851 2.41231 79.9651 2.46211 79.8765 2.5505C79.7878 2.63888 79.7377 2.7587 79.7369 2.88388C79.7369 2.82191 79.7247 2.76054 79.701 2.70328C79.6772 2.64602 79.6425 2.59399 79.5987 2.55016C79.5548 2.50634 79.5028 2.47157 79.4455 2.44786C79.3883 2.42414 79.3269 2.41193 79.2649 2.41193H75.1998C75.1162 2.41616 75.0346 2.43902 74.9609 2.47884C74.8873 2.51867 74.8235 2.57446 74.7742 2.64212C74.7742 2.64212 72.4578 6.32797 71.7977 7.32109C71.1824 6.33376 68.9139 2.64212 68.9139 2.64212C68.8692 2.56947 68.8066 2.50957 68.732 2.46823C68.6575 2.42688 68.5735 2.4055 68.4882 2.40614H64.4231C64.298 2.40652 64.1782 2.45637 64.0898 2.54479C64.0014 2.63322 63.9515 2.75304 63.9511 2.87809V16.6848C63.9515 16.81 64.0013 16.93 64.0897 17.0186C64.1781 17.1073 64.2979 17.1575 64.4231 17.1582H68.1582C68.2208 17.1577 68.2828 17.1447 68.3404 17.1202C68.3981 17.0956 68.4504 17.0599 68.4942 17.0151C68.5381 16.9704 68.5726 16.9174 68.5959 16.8592C68.6193 16.801 68.6309 16.7388 68.6301 16.6761V10.2773C69.6232 11.8177 71.2765 14.3699 71.2765 14.3699C71.3156 14.4378 71.3705 14.4952 71.4365 14.5373C71.5026 14.5794 71.5778 14.6049 71.6558 14.6117H71.7528C71.8262 14.61 71.8983 14.5918 71.9637 14.5585C72.0291 14.5252 72.0862 14.4776 72.1307 14.4192C72.1307 14.4192 73.8317 11.7699 74.8726 10.2295V16.6848C74.8718 16.7475 74.8835 16.8097 74.9068 16.8679C74.9301 16.926 74.9647 16.979 75.0085 17.0238C75.0524 17.0686 75.1046 17.1043 75.1623 17.1289C75.2199 17.1534 75.2819 17.1663 75.3446 17.1669H79.1361C79.2625 17.1665 79.3837 17.116 79.473 17.0265C79.5622 16.9369 79.6124 16.8156 79.6124 16.6892C79.6128 16.8153 79.6628 16.9361 79.7517 17.0255C79.8406 17.115 79.9611 17.1658 80.0872 17.1669H91.126C91.252 17.1658 91.3726 17.115 91.4615 17.0255C91.5504 16.9361 91.6004 16.8153 91.6008 16.6892V13.3884C91.6012 13.3257 91.5892 13.2636 91.5655 13.2056C91.5418 13.1476 91.507 13.0948 91.4628 13.0503C91.4187 13.0057 91.3663 12.9704 91.3085 12.9462C91.2506 12.922 91.1886 12.9094 91.126 12.9092H84.3695V11.7757H90.5585C90.6841 11.7757 90.8047 11.7258 90.8937 11.6371C90.9827 11.5484 91.0329 11.428 91.0333 11.3023V8.27802C91.0329 8.15233 90.9827 8.03193 90.8937 7.94319C90.8047 7.85445 90.6841 7.80462 90.5585 7.80462H84.3695V6.67397C85.2266 6.62619 91.126 6.62619 91.126 6.62619Z" fill="#DDE4E8"/>
<path d="M116.037 12.9092H109.183V11.6338H115.379C115.503 11.6338 115.623 11.5846 115.71 11.4969C115.798 11.4093 115.848 11.2903 115.848 11.1662V8.126C115.847 8.00208 115.797 7.88358 115.71 7.79609C115.622 7.70861 115.503 7.65914 115.379 7.65839H109.183V6.52484H115.942C116.068 6.52408 116.188 6.47396 116.276 6.38534C116.365 6.29673 116.415 6.17676 116.416 6.05144V2.75936C116.415 2.63099 116.364 2.50801 116.273 2.41737C116.182 2.32673 116.059 2.27583 115.931 2.27583H106.199C106.116 2.26808 106.032 2.28467 105.958 2.32361C106.344 1.79085 106.78 1.11333 106.78 1.11333C106.834 1.0253 106.867 0.92635 106.877 0.823787C106.885 0.740276 106.868 0.656306 106.829 0.582021C106.781 0.506307 106.717 0.441473 106.642 0.39163C106.568 0.341788 106.483 0.308024 106.395 0.29248H89.6088C89.5214 0.292512 89.4356 0.315042 89.3595 0.357896C89.2835 0.40075 89.2197 0.462484 89.1745 0.537142C89.1353 0.611896 89.1182 0.696256 89.1252 0.780356C89.1355 0.882919 89.1686 0.981872 89.2222 1.0699L91.6602 4.72534C91.7006 4.79442 91.7571 4.85273 91.8249 4.89532C91.8927 4.93791 91.9698 4.96353 92.0496 4.97001H95.7181V18.6797C95.7196 18.8039 95.77 18.9225 95.8583 19.0097C95.9467 19.097 96.0658 19.1459 96.19 19.1459H100.066C100.127 19.1463 100.189 19.1344 100.246 19.1111C100.303 19.0877 100.356 19.0532 100.4 19.0096C100.444 18.9661 100.478 18.9142 100.502 18.8571C100.526 18.8 100.539 18.7388 100.539 18.6768V4.82813H104.232C104.31 4.82777 104.387 4.8053 104.453 4.76329C104.519 4.72128 104.572 4.66146 104.605 4.59071C104.605 4.59071 104.933 4.11876 105.073 3.88278C105.027 3.97688 104.886 4.21286 104.886 4.21286C104.835 4.28219 104.803 4.36343 104.792 4.44883V16.6848C104.792 16.8095 104.841 16.9292 104.928 17.0179C105.016 17.1066 105.135 17.1571 105.26 17.1582H115.947C116.072 17.1574 116.192 17.1073 116.281 17.0187C116.369 16.9301 116.419 16.8101 116.42 16.6848V13.3826C116.51 13.1466 116.274 12.9092 116.037 12.9092Z" fill="#DDE4E8"/>
<path d="M142.878 2.41766H139.007C138.945 2.41785 138.883 2.43033 138.826 2.45439C138.768 2.47844 138.716 2.5136 138.672 2.55785C138.629 2.6021 138.594 2.65456 138.57 2.71224C138.547 2.76991 138.535 2.83166 138.535 2.89395V7.66268H134.564V2.88527C134.565 2.76073 134.516 2.64112 134.428 2.55266C134.34 2.46419 134.221 2.41408 134.097 2.41332H130.495C130.37 2.41408 130.251 2.46419 130.163 2.55266C130.076 2.64112 130.027 2.76073 130.027 2.88527V5.30003C130.027 5.25226 129.981 5.25226 129.981 5.20593C129.648 4.77464 129.288 4.36418 128.905 3.97684C128.476 3.59342 128.005 3.26022 127.501 2.98371C126.971 2.70262 126.404 2.49606 125.817 2.36989C125.158 2.21613 124.483 2.13697 123.806 2.13391C122.75 2.121 121.701 2.31324 120.718 2.69996C119.796 3.06697 118.966 3.63183 118.286 4.35469C117.592 5.05682 117.05 5.89464 116.694 6.81578C116.3 7.77573 116.093 8.80234 116.086 9.84003C116.066 10.8808 116.274 11.9134 116.694 12.8657C117.057 13.7683 117.598 14.5882 118.286 15.2761C118.972 15.9588 119.782 16.5042 120.672 16.8831C121.609 17.2609 122.61 17.4536 123.62 17.4506C124.343 17.452 125.065 17.3724 125.771 17.2132C126.385 17.0348 126.98 16.7977 127.549 16.5052C128.065 16.2112 128.538 15.8451 128.951 15.418C129.335 15.031 129.694 14.6205 130.027 14.1889V16.6848C130.027 16.8094 130.076 16.9292 130.163 17.0179C130.251 17.1066 130.37 17.157 130.495 17.1582H134.092C134.217 17.1574 134.337 17.1072 134.426 17.0186C134.514 16.9299 134.564 16.8099 134.564 16.6848V11.9073H138.535V16.6848C138.536 16.8108 138.587 16.9315 138.676 17.0202C138.766 17.1089 138.887 17.1585 139.013 17.1582H142.878C143.004 17.1585 143.126 17.1089 143.215 17.0202C143.305 16.9315 143.355 16.8108 143.356 16.6848V2.88961C143.355 2.76379 143.304 2.64354 143.215 2.55511C143.125 2.46669 143.004 2.41727 142.878 2.41766ZM130.027 13.4752L129.981 13.4289L127.097 11.3485C127.009 11.2958 126.91 11.2636 126.807 11.2544C126.734 11.2511 126.66 11.2666 126.594 11.2995C126.528 11.3325 126.471 11.3817 126.43 11.4426C126.237 11.6743 126.032 11.8956 125.816 12.1057C125.632 12.2885 125.425 12.4471 125.2 12.5776C125.004 12.7214 124.778 12.8202 124.539 12.8672C124.259 12.9275 123.974 12.959 123.688 12.9613C123.298 12.9609 122.912 12.8806 122.554 12.7253C122.208 12.5765 121.9 12.3502 121.655 12.0637C121.403 11.7475 121.196 11.3976 121.041 11.0242C120.891 10.6151 120.811 10.1833 120.805 9.74737V9.6996C120.815 9.26458 120.895 8.83398 121.041 8.42417C121.171 8.03874 121.38 7.6847 121.655 7.38472C121.891 7.08843 122.201 6.86011 122.554 6.72312C122.912 6.56741 123.298 6.48661 123.688 6.4857C124.202 6.4751 124.708 6.60634 125.153 6.865C125.614 7.14742 126.015 7.51666 126.335 7.95222C126.377 8.01314 126.434 8.06238 126.5 8.09532C126.566 8.12825 126.64 8.14377 126.713 8.14042C126.816 8.13057 126.914 8.09845 127.003 8.04632L129.885 5.827C129.933 5.78067 130.03 5.68223 130.03 5.6388L130.027 13.4752Z" fill="#DDE4E8"/>
</g>
<defs>
<clipPath id="clip0">
<rect x="0.427429" width="142.929" height="20" fill="white"/>
</clipPath>
</defs>
</svg>
