<svg width="89" height="32" viewBox="0 0 89 32" fill="none" xmlns="http://www.w3.org/2000/svg">
  <g clipPath="url(#clip0)">
    <path d="M2.29453 0V1.87156H0.36792V20.5321H2.29453V22.4404H59.7441V32L69.4872 22.2569H86.0376V20.5321H88.2578V1.83486H86.0376V0H2.29453Z" fill="#DDE4E8" />
    <path d="M14.0743 6.5321H6.90002V8.38531H14.0743V6.5321Z" fill="white" />
    <path d="M6.90004 8.38538H4.93674V13.8533H6.90004V8.38538Z" fill="white" />
    <path d="M9.46883 12.1101V10.2936H14.0743V16H6.90002V13.8716H11.5239L11.5422 12.1101H9.46883Z" fill="white" />
    <path d="M17.9276 8.38532H25.1386V6.5321H15.9643V16H25.1386V14H17.9643V12.1101H22.5147V10.2936H17.9643L17.9276 8.38532Z" fill="white" />
    <path d="M28.9918 8.38532H36.1844V6.5321H27.0285V16H36.1844V14H29.0285V12.1101H33.5606V10.2936H29.0285L28.9918 8.38532Z" fill="white" />
    <path d="M38.0193 6.5321V16H39.9826V12.1835H43.1753V10.2752H39.8725V6.5321H38.0193Z" fill="white" />
    <path d="M45.0469 8.38538H43.1753V10.2569H45.0469V8.38538Z" fill="white" />
    <path d="M46.9184 6.5321H45.0468V8.40367H46.9184V6.5321Z" fill="white" />
    <path d="M45.0469 12.1101H43.1753V13.9817H45.0469V12.1101Z" fill="white" />
    <path d="M46.9184 13.9817H45.0468V15.8532H46.9184V13.9817Z" fill="white" />
    <path d="M50.8633 13.9817H48.9918V15.8532H50.8633V13.9817Z" fill="white" />
    <path d="M54.6615 8.40369H52.6982V13.9817H54.6615V8.40369Z" fill="white" />
    <path d="M60.4046 13.9266H54.6615V16H60.4046V13.9266Z" fill="white" />
    <path d="M60.4046 6.5321H54.6615V8.47706H60.4046V6.5321Z" fill="white" />
    <path d="M64.7899 8.40369H62.955V13.9266H64.7899V8.40369Z" fill="white" />
    <path d="M70.2945 13.9266H64.7899V15.7248H70.2945V13.9266Z" fill="white" />
    <path d="M72.0927 8.40369H70.2762V13.9266H72.0927V8.40369Z" fill="white" />
    <path d="M70.2945 6.5321H64.7899V8.40367H70.2945V6.5321Z" fill="white" />
    <path d="M73.9459 15.7247H75.7808V10.2935H77.5973V8.40363H75.7808V6.60547H73.9459V15.7247Z" fill="white" />
    <path d="M83.1018 15.7247H81.267V10.3119H79.4321V8.42198H81.267V6.60547H83.1018V15.7247Z" fill="white" />
    <path d="M79.4321 10.2936H77.5973V12.1284H79.4321V10.2936Z" fill="white" />
  </g>
  <defs>
    <clipPath id="clip0">
      <rect x="0.36792" width="87.8899" height="32" fill="white" />
    </clipPath>
  </defs>
</svg>
