<svg width="117" height="20" viewBox="0 0 117 20" fill="none" xmlns="http://www.w3.org/2000/svg">
<g clip-path="url(#clip0)">
<path d="M17.1611 19.6173V6.66671L12.2488 19.6173H10.0159L5.03987 6.66671V19.6173H0V0.0638428H7.01754L11.1324 10.8453L15.2153 0.0638428H22.2329V19.6173H17.1611Z" fill="#DDE4E8"/>
<path d="M32.2488 19.6172V18.2137C31.3556 19.2663 29.6651 19.9681 27.8469 19.9681C25.6778 19.9681 22.9665 18.4689 22.9665 15.311C22.9665 11.866 25.6778 10.7177 27.8469 10.7177C29.7289 10.7177 31.3875 11.3237 32.2488 12.3764V10.9729C32.2488 9.72883 31.1962 8.89949 29.378 8.89949C27.9188 8.92021 26.5154 9.46345 25.4226 10.4306L23.7639 7.30459C25.5821 5.74159 28.0383 5.10364 30.2073 5.10364C33.6204 5.10364 36.8102 6.37955 36.8102 10.7815V19.6491H32.2488V19.6172ZM32.2488 15.9808V14.7049C31.7703 14.0351 30.7177 13.7161 29.7289 13.7161C28.5486 13.7161 27.4641 14.2583 27.4641 15.3748C27.4641 16.4912 28.5486 17.0016 29.7289 17.0016C30.7177 17.0016 31.8022 16.6507 32.2488 15.9808Z" fill="#DDE4E8"/>
<path d="M37.0973 17.7672L38.9793 14.5455C40.0319 15.4705 42.2966 16.4594 43.9553 16.4594C45.2951 16.4594 45.8692 16.0766 45.8692 15.4705C45.8692 13.7161 37.6396 15.5343 37.6396 9.7927C37.6396 7.30466 39.8086 5.1356 43.7002 5.1356C45.8289 5.10791 47.9096 5.76795 49.6332 7.01758L47.9107 10.2074C46.7546 9.19488 45.2688 8.6391 43.7321 8.64437C42.6794 8.64437 41.9777 9.05905 41.9777 9.60131C41.9777 11.1643 50.2073 9.53752 50.2073 15.3429C50.2073 18.0543 47.8469 19.9681 43.7959 19.9681C41.2121 19.9681 38.5965 19.1388 37.0973 17.7672Z" fill="#DDE4E8"/>
<path d="M60.3828 19.6172V11.3557C60.3828 9.63317 59.4577 9.05901 58.0223 9.05901C57.492 9.06984 56.9707 9.19853 56.4962 9.43577C56.0217 9.673 55.606 10.0128 55.2791 10.4306V19.5853H50.7496V0H55.2791V7.14513C55.9029 6.46948 56.6639 5.93495 57.5111 5.57737C58.3583 5.21978 59.2721 5.0474 60.1914 5.07177C63.4131 5.07177 64.8804 6.88995 64.8804 9.50558V19.5853H60.3828V19.6172Z" fill="#DDE4E8"/>
<path d="M74.8006 19.6172V18.2137C73.9075 19.2663 72.2169 19.9681 70.3987 19.9681C68.2297 19.9681 65.5183 18.4689 65.5183 15.311C65.5183 11.866 68.2297 10.7177 70.3987 10.7177C72.2807 10.7177 73.9394 11.3237 74.8006 12.3764V10.9729C74.8006 9.72883 73.748 8.89949 71.9298 8.89949C70.4707 8.92021 69.0673 9.46345 67.9745 10.4306L66.3158 7.30459C68.134 5.74159 70.5901 5.10364 72.7592 5.10364C76.1723 5.10364 79.362 6.37955 79.362 10.7815V19.6491H74.8006V19.6172ZM74.8006 15.9808V14.7049C74.3222 14.0351 73.2695 13.7161 72.2807 13.7161C71.1005 13.7161 70.016 14.2583 70.016 15.3748C70.016 16.4912 71.1005 17.0016 72.2807 17.0016C73.3014 17.0016 74.3541 16.6507 74.8006 15.9808Z" fill="#DDE4E8"/>
<path d="M80.8931 19.6172V0.0318604H85.4226V7.1132C85.9216 6.47583 86.5614 5.9627 87.2919 5.61404C88.0225 5.26539 88.8238 5.09068 89.6332 5.10363C93.1738 5.10363 95.8852 7.87875 95.8852 12.5358C95.8852 17.3524 93.1419 20 89.6332 20C88.8255 20.0024 88.0277 19.8231 87.2988 19.4752C86.5699 19.1273 85.9287 18.6199 85.4226 17.9904V19.6172H80.8931ZM88.1021 15.9808C89.8884 15.9808 91.2281 14.673 91.2281 12.5358C91.2281 10.3987 89.8884 9.09087 88.1021 9.09087C87.5836 9.1061 87.0742 9.23043 86.607 9.45578C86.1398 9.68112 85.7254 10.0024 85.3907 10.3987V14.7368C85.9649 15.5023 87.1451 15.9808 88.1021 15.9808Z" fill="#DDE4E8"/>
<path d="M101.021 0.0638428H96.4912V19.6492H101.021V0.0638428Z" fill="#DDE4E8"/>
<path d="M101.659 12.5358C101.659 8.42102 104.753 5.10364 109.187 5.10364C113.397 5.10364 116.427 8.19773 116.427 13.0143V14.0351H106.348C106.667 15.311 107.847 16.3636 109.888 16.3636C110.877 16.3636 112.536 15.917 113.365 15.1515L115.343 18.118C113.939 19.3939 111.579 20 109.41 20C105.008 19.9681 101.659 17.1291 101.659 12.5358ZM109.187 8.74C107.209 8.74 106.443 9.92022 106.284 10.941H112.121C111.994 9.95212 111.26 8.74 109.187 8.74Z" fill="#DDE4E8"/>
</g>
<defs>
<clipPath id="clip0">
<rect width="116.427" height="20" fill="white"/>
</clipPath>
</defs>
</svg>
