<svg width="189" height="35" viewBox="0 0 189 35" fill="none" xmlns="http://www.w3.org/2000/svg">
<g clip-path="url(#clip0)">
<path d="M7.27022 17.2504V22.747C7.27022 23.422 7.4004 23.9283 7.66076 24.2658C7.92112 24.5984 8.38399 24.772 9.06383 24.772C9.31094 24.7743 9.55779 24.755 9.80152 24.7142C10.0249 24.6835 10.2435 24.6252 10.4524 24.5406L10.5103 27.9976C10.1032 28.1277 9.68755 28.2292 9.26633 28.3014C8.76963 28.3884 8.26628 28.432 7.76201 28.4316C6.9421 28.4495 6.12515 28.3272 5.34643 28.07C4.74007 27.8642 4.19703 27.5055 3.76978 27.0285C3.36592 26.5603 3.07406 26.0063 2.91637 25.4085C2.73561 24.7242 2.64803 24.0187 2.65601 23.3111V17.236H0.356136V13.7211H2.62708V9.9458H7.27022V13.7211H10.6405V17.236L7.27022 17.2504Z" fill="#DDE4E8"/>
<path d="M27.1012 21.0836V21.6622C27.1012 21.8502 27.0867 22.0238 27.0723 22.2118H16.6722C16.7042 22.6017 16.8281 22.9784 17.0338 23.3111C17.2349 23.6447 17.5004 23.9348 17.8149 24.1645C18.4749 24.6585 19.2761 24.9272 20.1003 24.9312C20.7567 24.9474 21.407 24.8034 21.9952 24.5117C22.4916 24.2443 22.9254 23.8746 23.2681 23.4269L26.5516 25.4953C25.887 26.4763 24.9666 27.2567 23.8901 27.7518C22.7908 28.287 21.5034 28.5473 20.0425 28.5473C19.0037 28.5534 17.9716 28.3822 16.9904 28.0411C16.0614 27.7222 15.2057 27.2205 14.4736 26.5657C13.7419 25.9058 13.16 25.0969 12.7668 24.1935C11.9425 22.138 11.9374 19.8448 12.7523 17.7857C13.1287 16.8749 13.6902 16.0523 14.4013 15.3701C15.1074 14.6997 15.9379 14.174 16.8458 13.8224C17.8186 13.4454 18.8547 13.2588 19.8978 13.2727C20.8925 13.2611 21.8799 13.4429 22.8052 13.8079C23.6671 14.15 24.4426 14.6786 25.0762 15.3556C25.7259 16.0666 26.2319 16.8967 26.566 17.8001C26.932 18.8557 27.1131 19.9665 27.1012 21.0836ZM22.7474 19.261C22.7644 18.553 22.5109 17.865 22.0386 17.3373C21.5613 16.8021 20.867 16.5272 19.9268 16.5272C19.4932 16.5264 19.0627 16.5997 18.6539 16.7442C18.2818 16.8759 17.9382 17.0771 17.6414 17.3373C17.3553 17.5839 17.1195 17.8835 16.9471 18.2196C16.7725 18.5454 16.6736 18.9063 16.6578 19.2755L22.7474 19.261Z" fill="#DDE4E8"/>
<path d="M39.9458 18.3642C39.6533 17.999 39.2759 17.711 38.8465 17.5253C38.402 17.3194 37.9187 17.2109 37.4289 17.207C36.958 17.1989 36.4919 17.3031 36.0693 17.5108C35.6745 17.7133 35.3213 17.9881 35.0278 18.3208C34.7354 18.6693 34.5054 19.0656 34.348 19.4925C34.1857 19.9475 34.1025 20.4269 34.1021 20.91C34.0999 21.3921 34.1782 21.8711 34.3335 22.3275C34.4795 22.7596 34.7106 23.158 35.0133 23.4991C35.3111 23.8357 35.6756 24.1067 36.0837 24.2947C36.5223 24.4996 37.0029 24.5987 37.4868 24.584C37.9775 24.5867 38.464 24.4933 38.9188 24.3092C39.3639 24.1508 39.7585 23.8761 40.0615 23.5136L42.6796 26.7103C42.0227 27.3277 41.2373 27.7921 40.3797 28.07C38.3731 28.7357 36.2036 28.7255 34.2033 28.041C33.2578 27.7218 32.3897 27.208 31.6547 26.5329C30.9198 25.8578 30.3344 25.0362 29.9363 24.1211C29.1118 22.0797 29.1118 19.7981 29.9363 17.7567C30.3337 16.8431 30.9147 16.0209 31.6431 15.3411C32.3846 14.6629 33.2554 14.1413 34.2033 13.8079C35.2157 13.4491 36.2825 13.268 37.3566 13.2727C37.876 13.2706 38.3943 13.319 38.9043 13.4173C39.4068 13.5031 39.9006 13.6338 40.3797 13.8079C40.833 13.9659 41.2692 14.1694 41.6815 14.4154C42.0545 14.6385 42.3993 14.9056 42.7085 15.2109L39.9458 18.3642Z" fill="#DDE4E8"/>
<path d="M53.9909 28.0845V20.3026C53.9913 19.9152 53.9623 19.5284 53.9041 19.1454C53.8592 18.8033 53.7461 18.4738 53.5714 18.1763C53.4167 17.9011 53.1922 17.6716 52.9205 17.5109C52.6019 17.3365 52.242 17.2515 51.8791 17.265C51.0546 17.265 50.4181 17.5543 49.9842 18.1474C49.5503 18.7404 49.3188 19.4636 49.3188 20.317V28.0701H44.5889V6.28638H49.3188V15.5437H49.3767C49.7637 14.9084 50.3 14.3771 50.9389 13.996C51.7093 13.5283 52.5981 13.2923 53.4991 13.3162C54.4827 13.3162 55.2927 13.4897 55.9581 13.8369C56.5929 14.157 57.1468 14.6169 57.5781 15.1821C57.9997 15.748 58.3046 16.3921 58.4749 17.077C58.6534 17.7767 58.7457 18.4956 58.7498 19.2177V28.099L53.9909 28.0845Z" fill="#DDE4E8"/>
<path d="M79.2606 20.8522C79.2598 21.8302 79.1036 22.8018 78.7977 23.7307C78.5084 24.6161 78.0572 25.4401 77.4669 26.1607C76.8756 26.8643 76.1473 27.4402 75.3262 27.8531C74.4294 28.2868 73.4437 28.5047 72.4477 28.4895C71.5092 28.4896 70.5817 28.2873 69.7284 27.8965C68.9182 27.5357 68.2299 26.9479 67.7467 26.2041H67.6889V28.0845H63.3206V6.28638H68.0505V15.2544H68.1083C68.5944 14.7138 69.1723 14.2632 69.8152 13.9237C70.5384 13.5187 71.4352 13.3162 72.4911 13.3162C73.4299 13.3028 74.36 13.4968 75.2151 13.8844C76.0702 14.2719 76.8292 14.8435 77.438 15.5582C78.0312 16.2708 78.4917 17.084 78.7977 17.9593C79.1025 18.8934 79.2587 19.8696 79.2606 20.8522ZM74.7042 20.8522C74.704 20.3904 74.6308 19.9315 74.4872 19.4926C74.3498 19.0609 74.1265 18.6616 73.8307 18.3185C73.5349 17.9755 73.1727 17.6958 72.7659 17.4964C72.3046 17.2813 71.7993 17.1773 71.2906 17.1927C70.7898 17.1808 70.2936 17.29 69.8441 17.5109C69.4295 17.7144 69.0605 17.9998 68.7592 18.3499C68.4595 18.6931 68.2287 19.0909 68.0794 19.5215C67.8386 20.1732 67.776 20.8773 67.898 21.5613C68.0201 22.2453 68.3224 22.8843 68.7737 23.4125C69.075 23.7625 69.444 24.0479 69.8586 24.2514C70.3081 24.4724 70.8043 24.5815 71.305 24.5696C71.7873 24.5826 72.2661 24.4851 72.7048 24.2845C73.1436 24.084 73.5306 23.7857 73.8363 23.4125C74.1284 23.0578 74.3494 22.6502 74.4872 22.2119C74.6308 21.7729 74.704 21.3141 74.7042 20.8522Z" fill="#DDE4E8"/>
<path d="M81.6183 15.6884C82.461 14.8778 83.467 14.2564 84.5691 13.8658C85.6719 13.4624 86.8373 13.2567 88.0117 13.2583C89.2267 13.2583 90.2392 13.403 91.0782 13.7067C91.8666 13.9773 92.5667 14.4573 93.1032 15.0953C93.6514 15.7886 94.0414 16.5933 94.2459 17.453C94.5034 18.5624 94.6248 19.699 94.6075 20.8378V28.0701H90.2971V26.5513H90.2103C89.8135 27.1757 89.2321 27.661 88.5469 27.9399C87.7893 28.2688 86.9716 28.4363 86.1457 28.4317C85.5407 28.4269 84.9385 28.3492 84.3521 28.2002C83.7477 28.0522 83.1746 27.7975 82.6597 27.4481C82.1363 27.0914 81.7049 26.6154 81.4013 26.0595C81.0686 25.4809 80.9095 24.7721 80.9095 23.9332C80.9095 22.8917 81.1988 22.0528 81.7629 21.4308C82.3693 20.7726 83.1227 20.2671 83.9616 19.9554C84.9203 19.5951 85.922 19.3617 86.9413 19.2611C88.0029 19.1452 89.07 19.0873 90.138 19.0875V18.8561C90.138 18.1473 89.8921 17.6266 89.3858 17.2795C88.8322 16.9314 88.188 16.7553 87.5343 16.7732C86.8596 16.7738 86.1931 16.9219 85.5816 17.2071C84.9951 17.468 84.4533 17.8194 83.976 18.2486L81.6183 15.6884ZM90.2971 21.8214H89.6896C89.1688 21.8214 88.6481 21.8503 88.1129 21.8937C87.632 21.9349 87.1568 22.027 86.6954 22.1685C86.3122 22.2851 85.9609 22.488 85.6684 22.7616C85.533 22.895 85.427 23.0553 85.3572 23.2322C85.2875 23.4091 85.2555 23.5986 85.2634 23.7885C85.2605 24.0329 85.3256 24.2733 85.4514 24.4828C85.5728 24.6718 85.7361 24.8302 85.9288 24.9457C86.1356 25.0636 86.3604 25.1467 86.5941 25.1916C86.8325 25.2379 87.0746 25.2621 87.3174 25.2639C88.2865 25.2639 89.0097 25.0036 89.516 24.4684C90.0222 23.9332 90.2826 23.2244 90.2826 22.3276L90.2971 21.8214Z" fill="#DDE4E8"/>
<path d="M107.004 17.612C106.801 17.5513 106.593 17.5125 106.382 17.4963C106.179 17.4819 105.977 17.4674 105.789 17.4674C105.233 17.4526 104.683 17.5717 104.183 17.8145C103.782 18.0191 103.427 18.3047 103.142 18.6535C102.884 18.969 102.692 19.333 102.577 19.7239C102.476 20.0526 102.418 20.3928 102.404 20.7364V28.0989H97.674V13.75H102.23V15.8329H102.288C102.646 15.1105 103.184 14.4927 103.85 14.0393C104.537 13.5743 105.35 13.3319 106.179 13.345C106.367 13.345 106.555 13.3594 106.743 13.3739C106.895 13.3889 107.045 13.4179 107.192 13.4607L107.004 17.612Z" fill="#DDE4E8"/>
<path d="M124.245 26.7248C124.245 28.1278 124.043 29.3428 123.638 30.3843C123.281 31.3656 122.696 32.2481 121.931 32.959C121.166 33.6575 120.258 34.1808 119.27 34.4922C118.146 34.8401 116.975 35.0109 115.798 34.9985C114.476 34.9866 113.162 34.7919 111.893 34.4199C110.644 34.0749 109.467 33.5064 108.421 32.742L110.779 29.3718C111.443 29.9753 112.22 30.4422 113.064 30.7459C113.853 31.0324 114.684 31.184 115.523 31.1943C116.912 31.1943 117.924 30.8327 118.59 30.095C119.255 29.3573 119.588 28.3882 119.588 27.1876V26.3197H119.501C119.028 26.9185 118.418 27.3947 117.722 27.7083C116.917 28.0675 116.043 28.2452 115.162 28.2291C114.161 28.2436 113.169 28.0413 112.254 27.636C111.434 27.2597 110.704 26.7123 110.114 26.0305C109.521 25.3417 109.064 24.5465 108.768 23.6872C108.462 22.7732 108.306 21.8159 108.305 20.8521C108.299 19.8831 108.456 18.9198 108.768 18.0026C109.06 17.1284 109.517 16.3183 110.114 15.6159C111.038 14.5592 112.274 13.8222 113.643 13.5104C115.012 13.1986 116.445 13.3281 117.736 13.8802C118.552 14.2459 119.245 14.8384 119.733 15.587H119.79V13.7211H124.26V26.7248H124.245ZM119.747 20.8232C119.745 20.3497 119.662 19.8799 119.501 19.4346C119.345 19.001 119.104 18.6028 118.792 18.263C118.486 17.9335 118.117 17.668 117.707 17.4819C117.253 17.2795 116.759 17.1807 116.261 17.1926C115.768 17.1793 115.278 17.2783 114.829 17.4819C114.428 17.6686 114.069 17.9343 113.773 18.263C113.48 18.6032 113.254 18.9958 113.108 19.4201C112.95 19.876 112.872 20.3554 112.876 20.8377C112.873 21.3104 112.951 21.7801 113.108 22.2263C113.254 22.655 113.48 23.0525 113.773 23.3979C114.077 23.7538 114.457 24.0372 114.885 24.2274C115.313 24.4176 115.778 24.5098 116.247 24.4972C116.725 24.5069 117.2 24.4138 117.639 24.2241C118.078 24.0345 118.471 23.7527 118.792 23.3979C119.097 23.0612 119.333 22.6681 119.487 22.2407C119.665 21.7897 119.753 21.3081 119.747 20.8232Z" fill="#DDE4E8"/>
<path d="M127.789 15.6884C128.632 14.8778 129.638 14.2564 130.74 13.8658C131.843 13.4624 133.008 13.2567 134.183 13.2583C135.398 13.2583 136.41 13.403 137.249 13.7067C138.038 13.9773 138.738 14.4573 139.274 15.0953C139.822 15.7886 140.212 16.5933 140.417 17.453C140.674 18.5624 140.796 19.699 140.778 20.8378V28.0701H136.454V26.5513H136.367C135.97 27.1757 135.389 27.661 134.703 27.9399C133.946 28.2688 133.128 28.4363 132.302 28.4317C131.697 28.4269 131.095 28.3492 130.509 28.2002C129.909 28.052 129.34 27.7973 128.831 27.4481C128.307 27.0914 127.876 26.6154 127.572 26.0595C127.24 25.4809 127.081 24.7721 127.081 23.9332C127.081 22.8917 127.37 22.0528 127.934 21.4308C128.54 20.7726 129.294 20.2671 130.133 19.9554C131.091 19.5951 132.093 19.3617 133.112 19.2611C134.174 19.1452 135.241 19.0873 136.309 19.0875V18.8561C136.309 18.1473 136.063 17.6266 135.557 17.2795C135.003 16.9314 134.359 16.7553 133.705 16.7732C133.035 16.7722 132.373 16.9204 131.767 17.2071C131.181 17.468 130.639 17.8194 130.161 18.2486L127.789 15.6884ZM136.468 21.8214H135.861C135.34 21.8214 134.819 21.8503 134.284 21.8937C133.803 21.9349 133.328 22.027 132.866 22.1685C132.483 22.2851 132.132 22.488 131.839 22.7616C131.704 22.895 131.598 23.0553 131.528 23.2322C131.458 23.4091 131.426 23.5986 131.434 23.7885C131.432 24.0329 131.497 24.2733 131.622 24.4828C131.744 24.6718 131.907 24.8302 132.1 24.9457C132.307 25.0636 132.531 25.1467 132.765 25.1916C133.003 25.2379 133.246 25.2621 133.488 25.2639C134.457 25.2639 135.181 25.0036 135.687 24.4684C136.193 23.9332 136.454 23.2244 136.454 22.3276L136.468 21.8214Z" fill="#DDE4E8"/>
<path d="M144.366 28.0845V13.7212H149.096V28.0701L144.366 28.0845Z" fill="#DDE4E8"/>
<path d="M162.258 28.0844V20.2446C162.261 19.8565 162.227 19.4691 162.157 19.0874C162.097 18.7492 161.985 18.4223 161.825 18.1183C161.67 17.8431 161.445 17.6136 161.174 17.4529C160.85 17.2768 160.485 17.1919 160.118 17.207C159.732 17.1935 159.348 17.2781 159.004 17.4529C158.689 17.6137 158.416 17.8467 158.208 18.1328C157.992 18.435 157.831 18.7728 157.731 19.1308C157.627 19.5126 157.573 19.9066 157.572 20.3024V28.0844H152.813V13.721H157.398V15.7172H157.456C157.645 15.3869 157.873 15.0808 158.136 14.8059C158.424 14.5028 158.755 14.2444 159.12 14.0393C159.509 13.8216 159.922 13.647 160.349 13.5185C160.81 13.3866 161.287 13.3184 161.767 13.316C162.736 13.316 163.546 13.4896 164.211 13.8368C164.85 14.1565 165.409 14.6163 165.846 15.182C166.267 15.7479 166.572 16.392 166.742 17.0768C166.921 17.7766 167.013 18.4955 167.017 19.2176V28.0989L162.258 28.0844Z" fill="#DDE4E8"/>
<path d="M179.037 17.9592C178.637 17.5796 178.178 17.2671 177.678 17.0334C177.164 16.785 176.6 16.6564 176.029 16.6574C175.605 16.6572 175.186 16.7459 174.799 16.9177C174.624 16.9905 174.476 17.1158 174.375 17.2764C174.274 17.437 174.225 17.625 174.235 17.8145C174.235 18.2195 174.438 18.5088 174.857 18.6824C175.507 18.9256 176.174 19.119 176.853 19.261C177.41 19.3829 177.956 19.5473 178.488 19.7528C179.021 19.9607 179.523 20.2431 179.978 20.5917C180.417 20.9389 180.781 21.372 181.048 21.8646C181.326 22.4208 181.465 23.0364 181.453 23.6582C181.483 24.41 181.316 25.1566 180.968 25.8239C180.621 26.4912 180.105 27.056 179.471 27.4624C178.865 27.8562 178.194 28.1402 177.49 28.3014C176.77 28.4751 176.032 28.5625 175.291 28.5617C174.12 28.5627 172.958 28.3721 171.848 27.9976C170.797 27.6683 169.836 27.0988 169.042 26.3342L171.689 23.5425C172.135 24.0204 172.665 24.4126 173.252 24.6997C173.862 25.0055 174.536 25.164 175.219 25.1625C175.615 25.1574 176.006 25.0635 176.361 24.8877C176.738 24.6997 176.926 24.3815 176.926 23.9186C176.926 23.4557 176.694 23.152 176.231 22.935C175.535 22.6481 174.813 22.4254 174.076 22.2696C173.564 22.1506 173.062 21.9959 172.572 21.8068C172.084 21.621 171.63 21.3572 171.227 21.0257C170.826 20.6887 170.497 20.2757 170.257 19.8106C169.995 19.2704 169.866 18.6752 169.881 18.0749C169.852 17.3046 170.042 16.5419 170.431 15.8763C170.786 15.28 171.271 14.7709 171.848 14.3864C172.433 13.9974 173.078 13.7089 173.758 13.533C174.438 13.3555 175.138 13.2632 175.841 13.2582C176.912 13.2591 177.976 13.4299 178.994 13.7644C179.965 14.0682 180.855 14.5874 181.598 15.2832L179.037 17.9592Z" fill="#DDE4E8"/>
<path d="M150.571 0.0520266L144.438 6.27181C144.418 6.29026 144.403 6.31277 144.393 6.33775C144.383 6.36273 144.379 6.38959 144.38 6.41645V10.886C144.382 10.9431 144.405 10.9974 144.445 11.0378C144.486 11.0782 144.54 11.1015 144.597 11.103H149.067C149.12 11.0991 149.17 11.0789 149.211 11.0451L155.431 4.91213C155.451 4.89367 155.466 4.87117 155.476 4.84619C155.486 4.82121 155.49 4.79435 155.489 4.76749C155.485 4.71445 155.465 4.66392 155.431 4.62284L150.875 0.066491C150.835 0.0263472 150.782 0.00256815 150.726 -0.000112248C150.669 -0.00279265 150.614 0.0158224 150.571 0.0520266ZM148.329 8.21006C148.329 8.42176 148.266 8.62871 148.149 8.80473C148.031 8.98076 147.864 9.11795 147.668 9.19897C147.473 9.27998 147.257 9.30118 147.05 9.25988C146.842 9.21857 146.651 9.11663 146.502 8.96694C146.352 8.81724 146.25 8.62652 146.209 8.41888C146.168 8.21125 146.189 7.99603 146.27 7.80045C146.351 7.60486 146.488 7.43769 146.664 7.32007C146.84 7.20246 147.047 7.13968 147.259 7.13968C147.399 7.1393 147.539 7.16673 147.669 7.22038C147.799 7.27404 147.917 7.35287 148.016 7.45234C148.116 7.55181 148.195 7.66996 148.248 7.79999C148.302 7.93003 148.329 8.06939 148.329 8.21006Z" fill="#DDE4E8"/>
<path d="M184.187 13.5042H183.42V13.1136H185.402V13.5042H184.635V15.616H184.187V13.5042Z" fill="#DDE4E8"/>
<path d="M185.691 13.1281H186.385L187.036 14.9072H187.051L187.687 13.1281H188.382V15.6304H187.933V13.6198H187.919L187.167 15.6304H186.848L186.096 13.6198V15.6304H185.662V13.1281H185.691Z" fill="#DDE4E8"/>
</g>
<defs>
<clipPath id="clip0">
<rect x="0.35614" width="188.025" height="35" fill="white"/>
</clipPath>
</defs>
</svg>
