<svg width="160" height="35" viewBox="0 0 160 35" fill="none" xmlns="http://www.w3.org/2000/svg">
    <path d="M51.4209 18.1531C49.9703 18.1531 48.722 17.644 47.676 16.6258C46.6299 15.5937 46.1069 14.3594 46.1069 12.9228C46.1069 11.4862 46.6299 10.2588 47.676 9.24064C48.722 8.22247 49.9703 7.70642 51.4209 7.69247C52.6343 7.69247 53.7431 8.07603 54.7473 8.84314C54.9844 9.02445 55.1239 9.27551 55.1658 9.5963C55.2076 9.90314 55.1309 10.1751 54.9356 10.4122C54.7543 10.6493 54.5102 10.7888 54.2034 10.8307C53.9105 10.8725 53.6455 10.7958 53.4084 10.6005C52.7947 10.1542 52.0973 9.93104 51.3163 9.93104C50.5491 9.93104 49.8587 10.2309 49.2451 10.8307C48.6314 11.4304 48.3245 12.1347 48.3245 12.9437C48.3245 13.7526 48.6244 14.457 49.2241 15.0567C49.8378 15.6425 50.5352 15.9354 51.3163 15.9354C52.0973 15.9354 52.7947 15.7123 53.4084 15.2659C53.6315 15.0846 53.8965 15.0149 54.2034 15.0567C54.5102 15.0986 54.7543 15.2381 54.9356 15.4752C55.1309 15.7123 55.2076 15.9842 55.1658 16.2911C55.1239 16.584 54.9844 16.835 54.7473 17.0443C53.7152 17.7835 52.6064 18.1531 51.4209 18.1531Z" fill="#05445E"/>
    <path d="M65.3814 16.6258C64.4608 17.6858 63.2962 18.2158 61.8875 18.2158C60.4788 18.2158 59.2863 17.6998 58.31 16.6677C57.3337 15.6356 56.8455 14.4012 56.8455 12.9646C56.8455 11.528 57.3337 10.2937 58.31 9.26156C59.3003 8.2155 60.4858 7.69247 61.8666 7.69247C63.2474 7.69247 64.419 8.22247 65.3814 9.28248C66.3577 10.3285 66.8458 11.5768 66.8458 13.0274C66.8458 14.4779 66.3577 15.6774 65.3814 16.6258ZM59.8791 10.7679C59.377 11.3537 59.1259 12.079 59.1259 12.9437C59.1259 13.8084 59.377 14.5477 59.8791 15.1613C60.423 15.6774 61.0786 15.9354 61.8457 15.9354C62.6128 15.9354 63.2683 15.6774 63.8123 15.1613C64.3562 14.5477 64.6282 13.8084 64.6282 12.9437C64.6282 12.079 64.3562 11.3537 63.8123 10.7679C63.2125 10.2379 62.557 9.97288 61.8457 9.97288C61.1344 9.97288 60.4788 10.2379 59.8791 10.7679Z" fill="#05445E"/>
    <path d="M74.3775 4.65889C74.3775 4.96574 74.2659 5.23771 74.0427 5.47482C73.8196 5.69798 73.5337 5.80956 73.185 5.80956C72.8502 5.80956 72.641 5.8514 72.5573 5.93509C72.5016 5.93509 72.4527 6.05364 72.4109 6.29075C72.383 6.52785 72.369 6.76496 72.369 7.00207V7.29497H72.9967C73.3175 7.29497 73.5895 7.40654 73.8126 7.6297C74.0358 7.85286 74.1474 8.12484 74.1474 8.44563C74.1474 8.75248 74.0358 9.02445 73.8126 9.26156C73.5895 9.48472 73.3175 9.5963 72.9967 9.5963H72.369V16.9815C72.369 17.3023 72.2575 17.5743 72.0343 17.7974C71.8111 18.0206 71.5392 18.1322 71.2184 18.1322C70.8976 18.1322 70.6256 18.0206 70.4025 17.7974C70.1793 17.5743 70.0677 17.3023 70.0677 16.9815V9.5963H69.5238C69.203 9.5963 68.924 9.48472 68.6869 9.26156C68.4638 9.0384 68.3522 8.76642 68.3522 8.44563C68.3522 8.12484 68.4638 7.85286 68.6869 7.6297C68.924 7.40654 69.203 7.29497 69.5238 7.29497H70.0677V7.00207C70.0677 4.65889 71.1208 3.4873 73.2268 3.4873C73.5337 3.4873 73.7987 3.60586 74.0218 3.84297C74.2589 4.06612 74.3775 4.3381 74.3775 4.65889Z" fill="#05445E"/>
    <path d="M80.4929 4.65889C80.4929 4.96574 80.3813 5.23771 80.1581 5.47482C79.935 5.69798 79.649 5.80956 79.3003 5.80956C78.9656 5.80956 78.7564 5.8514 78.6727 5.93509C78.6169 5.93509 78.5681 6.05364 78.5263 6.29075C78.4984 6.52785 78.4844 6.76496 78.4844 7.00207V7.29497H79.1121C79.4328 7.29497 79.7048 7.40654 79.928 7.6297C80.1511 7.85286 80.2627 8.12484 80.2627 8.44563C80.2627 8.75248 80.1511 9.02445 79.928 9.26156C79.7048 9.48472 79.4328 9.5963 79.1121 9.5963H78.4844V16.9815C78.4844 17.3023 78.3728 17.5743 78.1497 17.7974C77.9265 18.0206 77.6545 18.1322 77.3338 18.1322C77.013 18.1322 76.741 18.0206 76.5178 17.7974C76.2947 17.5743 76.1831 17.3023 76.1831 16.9815V9.5963H75.6391C75.3183 9.5963 75.0394 9.48472 74.8023 9.26156C74.5791 9.0384 74.4675 8.76642 74.4675 8.44563C74.4675 8.12484 74.5791 7.85286 74.8023 7.6297C75.0394 7.40654 75.3183 7.29497 75.6391 7.29497H76.1831V7.00207C76.1831 4.65889 77.2361 3.4873 79.3422 3.4873C79.649 3.4873 79.914 3.60586 80.1372 3.84297C80.3743 4.06612 80.4929 4.3381 80.4929 4.65889Z" fill="#05445E"/>
    <path d="M90.5833 12.6508C90.5833 12.9576 90.4787 13.2087 90.2694 13.404C90.0742 13.5853 89.8092 13.6759 89.4744 13.6759H82.8215C82.947 14.2757 83.1841 14.7359 83.5328 15.0567C83.9791 15.5728 84.6277 15.8866 85.4785 15.9982C86.3432 16.0958 87.0894 15.9215 87.7171 15.4752C87.9263 15.252 88.2052 15.1404 88.5539 15.1404C88.9026 15.1404 89.1467 15.2311 89.2861 15.4124C89.6767 15.8448 89.6767 16.2981 89.2861 16.7723C88.2819 17.6928 87.0476 18.1531 85.5831 18.1531C84.1325 18.1391 82.9121 17.6231 81.9219 16.6049C80.9456 15.5867 80.4504 14.3594 80.4365 12.9228C80.4504 11.4862 80.9456 10.2588 81.9219 9.24064C82.9121 8.20853 84.1047 7.69247 85.4994 7.69247C86.8942 7.69247 88.0657 8.15274 89.0142 9.07327C89.9765 9.97986 90.4996 11.1375 90.5833 12.5462V12.6508ZM85.5412 9.67998C84.7323 9.72183 84.0837 9.97288 83.5956 10.4331C83.1074 10.8934 82.8145 11.3816 82.7169 11.8976H88.6376C88.5121 11.4095 88.1703 10.9353 87.6124 10.475C87.0685 10.0147 86.3781 9.74972 85.5412 9.67998Z" fill="#05445E"/>
    <path d="M101.868 12.6508C101.868 12.9576 101.763 13.2087 101.554 13.404C101.359 13.5853 101.094 13.6759 100.759 13.6759H94.1059C94.2314 14.2757 94.4685 14.7359 94.8172 15.0567C95.2635 15.5728 95.9121 15.8866 96.7629 15.9982C97.6276 16.0958 98.3738 15.9215 99.0014 15.4752C99.2106 15.252 99.4896 15.1404 99.8383 15.1404C100.187 15.1404 100.431 15.2311 100.571 15.4124C100.961 15.8448 100.961 16.2981 100.571 16.7723C99.5663 17.6928 98.332 18.1531 96.8675 18.1531C95.4169 18.1391 94.1965 17.6231 93.2063 16.6049C92.2299 15.5867 91.7348 14.3594 91.7208 12.9228C91.7348 11.4862 92.2299 10.2588 93.2063 9.24064C94.1965 8.20853 95.389 7.69247 96.7838 7.69247C98.1785 7.69247 99.3501 8.15274 100.299 9.07327C101.261 9.97986 101.784 11.1375 101.868 12.5462V12.6508ZM96.8256 9.67998C96.0167 9.72183 95.3681 9.97288 94.88 10.4331C94.3918 10.8934 94.0989 11.3816 94.0013 11.8976H99.922C99.7964 11.4095 99.4547 10.9353 98.8968 10.475C98.3529 10.0147 97.6625 9.74972 96.8256 9.67998Z" fill="#05445E"/>
    <path d="M108.319 18.1531C106.869 18.1531 105.62 17.644 104.574 16.6258C103.528 15.5937 103.005 14.3594 103.005 12.9228C103.005 11.4862 103.528 10.2588 104.574 9.24064C105.62 8.22247 106.869 7.70642 108.319 7.69247C109.533 7.69247 110.641 8.07603 111.646 8.84314C111.883 9.02445 112.022 9.27551 112.064 9.5963C112.106 9.90314 112.029 10.1751 111.834 10.4122C111.653 10.6493 111.409 10.7888 111.102 10.8307C110.809 10.8725 110.544 10.7958 110.307 10.6005C109.693 10.1542 108.996 9.93104 108.215 9.93104C107.448 9.93104 106.757 10.2309 106.143 10.8307C105.53 11.4304 105.223 12.1347 105.223 12.9437C105.223 13.7526 105.523 14.457 106.122 15.0567C106.736 15.6425 107.434 15.9354 108.215 15.9354C108.996 15.9354 109.693 15.7123 110.307 15.2659C110.53 15.0846 110.795 15.0149 111.102 15.0567C111.409 15.0986 111.653 15.2381 111.834 15.4752C112.029 15.7123 112.106 15.9842 112.064 16.2911C112.022 16.584 111.883 16.835 111.646 17.0443C110.614 17.7835 109.505 18.1531 108.319 18.1531Z" fill="#05445E"/>
    <path d="M116.485 8.94774C116.805 8.57116 117.245 8.27129 117.803 8.04813C118.36 7.81102 118.87 7.69944 119.33 7.71339C119.79 7.71339 120.125 7.818 120.334 8.02721C120.557 8.23642 120.669 8.49445 120.669 8.80129C120.669 9.09419 120.557 9.35222 120.334 9.57538C120.125 9.79854 119.867 9.91012 119.56 9.91012C118.263 9.91012 117.238 10.9632 116.485 13.0692V17.0443C116.485 17.3511 116.373 17.6161 116.15 17.8393C115.927 18.0485 115.655 18.1531 115.334 18.1531C115.027 18.1531 114.762 18.0485 114.539 17.8393C114.33 17.6161 114.225 17.3511 114.225 17.0443V8.80129C114.225 8.49445 114.33 8.23642 114.539 8.02721C114.762 7.818 115.027 7.71339 115.334 7.71339C115.655 7.71339 115.927 7.818 116.15 8.02721C116.373 8.23642 116.485 8.49445 116.485 8.80129V8.94774Z" fill="#05445E"/>
    <path d="M131.369 12.6508C131.369 12.9576 131.264 13.2087 131.055 13.404C130.86 13.5853 130.595 13.6759 130.26 13.6759H123.607C123.733 14.2757 123.97 14.7359 124.319 15.0567C124.765 15.5728 125.413 15.8866 126.264 15.9982C127.129 16.0958 127.875 15.9215 128.503 15.4752C128.712 15.252 128.991 15.1404 129.34 15.1404C129.688 15.1404 129.932 15.2311 130.072 15.4124C130.462 15.8448 130.462 16.2981 130.072 16.7723C129.068 17.6928 127.833 18.1531 126.369 18.1531C124.918 18.1391 123.698 17.6231 122.708 16.6049C121.731 15.5867 121.236 14.3594 121.222 12.9228C121.236 11.4862 121.731 10.2588 122.708 9.24064C123.698 8.20853 124.89 7.69247 126.285 7.69247C127.68 7.69247 128.851 8.15274 129.8 9.07327C130.762 9.97986 131.285 11.1375 131.369 12.5462V12.6508ZM126.327 9.67998C125.518 9.72183 124.869 9.97288 124.381 10.4331C123.893 10.8934 123.6 11.3816 123.503 11.8976H129.423C129.298 11.4095 128.956 10.9353 128.398 10.475C127.854 10.0147 127.164 9.74972 126.327 9.67998Z" fill="#05445E"/>
    <path d="M137.109 18.1531C135.701 18.1531 134.515 17.644 133.553 16.6258C132.604 15.6077 132.13 14.3803 132.13 12.9437C132.13 11.4932 132.604 10.2588 133.553 9.24064C134.515 8.20853 135.701 7.69247 137.109 7.69247C138.1 7.69247 139.027 7.99931 139.892 8.613C139.962 8.348 140.094 8.13181 140.289 7.96444C140.485 7.78313 140.722 7.69247 141.001 7.69247C141.294 7.69247 141.545 7.80405 141.754 8.02721C141.977 8.25037 142.089 8.51537 142.089 8.82221V17.0443C142.089 17.3511 141.977 17.6161 141.754 17.8393C141.545 18.0485 141.294 18.1531 141.001 18.1531C140.722 18.1531 140.485 18.0694 140.289 17.902C140.094 17.7347 139.962 17.5185 139.892 17.2535C139.041 17.8532 138.113 18.1531 137.109 18.1531ZM134.369 12.9437C134.369 13.7805 134.62 14.4849 135.122 15.0567C135.638 15.6286 136.293 15.9145 137.088 15.9145C137.897 15.9145 138.56 15.6286 139.076 15.0567C139.606 14.4849 139.871 13.7805 139.871 12.9437C139.871 12.1068 139.606 11.3955 139.076 10.8097C138.546 10.2239 137.883 9.93104 137.088 9.93104C136.307 9.93104 135.659 10.2239 135.143 10.8097C134.627 11.3816 134.369 12.0929 134.369 12.9437Z" fill="#05445E"/>
    <path d="M145.836 18.1531L145.627 18.1322C145.362 18.0624 145.146 17.9299 144.979 17.7347C144.811 17.5394 144.728 17.3093 144.728 17.0443V8.82221C144.728 8.50142 144.832 8.23642 145.041 8.02721C145.265 7.80405 145.53 7.69247 145.836 7.69247C146.325 7.69247 146.659 7.90168 146.841 8.32011C147.552 7.90168 148.298 7.69247 149.079 7.69247C150.418 7.69247 151.513 8.17366 152.364 9.13603C153.187 8.17366 154.24 7.69247 155.523 7.69247C156.806 7.69247 157.873 8.12484 158.724 8.98958C159.575 9.84038 160 10.8725 160 12.0859V17.0443C160 17.3511 159.888 17.6161 159.665 17.8393C159.456 18.0485 159.198 18.1531 158.891 18.1531C158.584 18.1531 158.319 18.0485 158.096 17.8393C157.873 17.6161 157.761 17.3511 157.761 17.0443V12.0859C157.761 11.4862 157.552 10.9771 157.134 10.5587C156.715 10.1403 156.213 9.93104 155.627 9.93104C155.056 9.93104 154.561 10.1333 154.142 10.5378C153.724 10.9422 153.501 11.4374 153.473 12.0232V17.0443C153.473 17.3511 153.361 17.6161 153.138 17.8393C152.929 18.0485 152.671 18.1531 152.364 18.1531C152.071 18.1531 151.806 18.0415 151.569 17.8183C151.346 17.5952 151.234 17.3371 151.234 17.0443V12.0232C151.22 11.4513 151.004 10.9632 150.585 10.5587C150.167 10.1403 149.665 9.93104 149.079 9.93104C148.507 9.93104 148.012 10.1403 147.594 10.5587C147.175 10.9771 146.966 11.4862 146.966 12.0859V17.0443L146.945 17.1907V17.2535L146.882 17.379V17.4836C146.659 17.9299 146.311 18.1531 145.836 18.1531Z" fill="#05445E"/>
    <path d="M47.6341 26.4349C47.7945 26.4349 47.9305 26.4907 48.0421 26.6023C48.1606 26.7138 48.2199 26.8498 48.2199 27.0102C48.2199 27.1637 48.1606 27.2996 48.0421 27.4182C47.9305 27.5298 47.7945 27.5856 47.6341 27.5856H47.3726V30.5041C47.533 30.5041 47.669 30.5633 47.7806 30.6819C47.8922 30.7935 47.9479 30.9295 47.9479 31.0899C47.9479 31.2503 47.8922 31.3862 47.7806 31.4978C47.669 31.6094 47.533 31.6652 47.3726 31.6652C47.0518 31.6652 46.7764 31.5536 46.5462 31.3305C46.3231 31.1003 46.2115 30.8249 46.2115 30.5041V27.5856H45.9081C45.7477 27.5856 45.6117 27.5298 45.5002 27.4182C45.3886 27.3066 45.3328 27.1706 45.3328 27.0102C45.3328 26.8498 45.3886 26.7138 45.5002 26.6023C45.6117 26.4907 45.7477 26.4349 45.9081 26.4349H46.2115V24.9181C46.2115 24.7577 46.2673 24.6217 46.3789 24.5101C46.4974 24.3986 46.6369 24.3428 46.7973 24.3428C46.9577 24.3428 47.0937 24.3986 47.2052 24.5101C47.3168 24.6217 47.3726 24.7577 47.3726 24.9181V26.4349H47.6341Z" fill="#189AB4"/>
    <path d="M51.948 31.0899C51.948 31.2503 51.8887 31.3862 51.7702 31.4978C51.6586 31.6094 51.5226 31.6652 51.3622 31.6652C51.2088 31.6652 51.0728 31.6094 50.9542 31.4978C50.8426 31.3862 50.7869 31.2503 50.7869 31.0899V24.9181C50.7869 24.7577 50.8426 24.6217 50.9542 24.5101C51.0658 24.3986 51.2018 24.3428 51.3622 24.3428C51.5226 24.3428 51.6586 24.3986 51.7702 24.5101C51.8887 24.6217 51.948 24.7577 51.948 24.9181V26.7383C52.3315 26.536 52.7046 26.4349 53.0673 26.4349C53.6949 26.4349 54.2319 26.6615 54.6782 27.1148C55.1245 27.5612 55.3477 28.0981 55.3477 28.7258V31.0899C55.3477 31.2503 55.2919 31.3862 55.1803 31.4978C55.0687 31.6094 54.9327 31.6652 54.7724 31.6652C54.612 31.6652 54.476 31.6094 54.3644 31.4978C54.2528 31.3862 54.197 31.2503 54.197 31.0899V28.7258C54.197 28.4189 54.0854 28.1574 53.8623 27.9412C53.6461 27.7181 53.3811 27.603 53.0673 27.596C52.7604 27.603 52.4989 27.7181 52.2827 27.9412C52.0665 28.1574 51.955 28.4189 51.948 28.7258V31.0899Z" fill="#189AB4"/>
    <path d="M62.6417 28.9141C62.6417 29.0675 62.5894 29.193 62.4848 29.2906C62.3871 29.3813 62.2546 29.4266 62.0873 29.4266H58.7608C58.8235 29.7265 58.9421 29.9566 59.1164 30.117C59.3396 30.3751 59.6639 30.532 60.0893 30.5878C60.5217 30.6366 60.8947 30.5494 61.2086 30.3262C61.3132 30.2147 61.4526 30.1589 61.627 30.1589C61.8013 30.1589 61.9234 30.2042 61.9931 30.2949C62.1884 30.511 62.1884 30.7377 61.9931 30.9748C61.491 31.4351 60.8738 31.6652 60.1416 31.6652C59.4163 31.6582 58.8061 31.4002 58.311 30.8911C57.8228 30.382 57.5752 29.7683 57.5683 29.05C57.5752 28.3318 57.8228 27.7181 58.311 27.209C58.8061 26.6929 59.4024 26.4349 60.0997 26.4349C60.7971 26.4349 61.3829 26.665 61.8571 27.1253C62.3383 27.5786 62.5998 28.1574 62.6417 28.8618V28.9141ZM60.1207 27.4287C59.7162 27.4496 59.3919 27.5751 59.1478 27.8052C58.9037 28.0354 58.7573 28.2794 58.7085 28.5375H61.6688C61.6061 28.2934 61.4352 28.0563 61.1563 27.8262C60.8843 27.596 60.5391 27.4635 60.1207 27.4287Z" fill="#189AB4"/>
    <path d="M65.5955 31.6652L65.4909 31.6547C65.3584 31.6199 65.2503 31.5536 65.1666 31.456C65.0829 31.3584 65.0411 31.2433 65.0411 31.1108V26.9998C65.0411 26.8394 65.0934 26.7069 65.198 26.6023C65.3096 26.4907 65.4421 26.4349 65.5955 26.4349C65.8396 26.4349 66.0069 26.5395 66.0976 26.7487C66.4533 26.5395 66.8263 26.4349 67.2169 26.4349C67.8864 26.4349 68.4338 26.6755 68.8592 27.1567C69.2706 26.6755 69.7972 26.4349 70.4387 26.4349C71.0803 26.4349 71.6138 26.6511 72.0392 27.0835C72.4646 27.5089 72.6773 28.0249 72.6773 28.6316V31.1108C72.6773 31.2642 72.6215 31.3967 72.5099 31.5083C72.4053 31.6129 72.2763 31.6652 72.1229 31.6652C71.9695 31.6652 71.837 31.6129 71.7254 31.5083C71.6138 31.3967 71.558 31.2642 71.558 31.1108V28.6316C71.558 28.3318 71.4534 28.0772 71.2442 27.868C71.035 27.6588 70.7839 27.5542 70.491 27.5542C70.2051 27.5542 69.9576 27.6553 69.7483 27.8575C69.5391 28.0598 69.4276 28.3073 69.4136 28.6002V31.1108C69.4136 31.2642 69.3578 31.3967 69.2462 31.5083C69.1416 31.6129 69.0126 31.6652 68.8592 31.6652C68.7127 31.6652 68.5802 31.6094 68.4617 31.4978C68.3501 31.3862 68.2943 31.2572 68.2943 31.1108V28.6002C68.2873 28.3143 68.1793 28.0702 67.97 27.868C67.7608 27.6588 67.5098 27.5542 67.2169 27.5542C66.931 27.5542 66.6834 27.6588 66.4742 27.868C66.265 28.0772 66.1604 28.3318 66.1604 28.6316V31.1108L66.1499 31.184V31.2154L66.1185 31.2782V31.3305C66.0069 31.5536 65.8326 31.6652 65.5955 31.6652Z" fill="#189AB4"/>
    <path d="M80.4304 28.9141C80.4304 29.0675 80.3781 29.193 80.2735 29.2906C80.1759 29.3813 80.0434 29.4266 79.876 29.4266H76.5495C76.6123 29.7265 76.7309 29.9566 76.9052 30.117C77.1284 30.3751 77.4526 30.532 77.878 30.5878C78.3104 30.6366 78.6835 30.5494 78.9973 30.3262C79.1019 30.2147 79.2414 30.1589 79.4157 30.1589C79.5901 30.1589 79.7121 30.2042 79.7819 30.2949C79.9771 30.511 79.9771 30.7377 79.7819 30.9748C79.2798 31.4351 78.6626 31.6652 77.9303 31.6652C77.2051 31.6582 76.5949 31.4002 76.0997 30.8911C75.6116 30.382 75.364 29.7683 75.357 29.05C75.364 28.3318 75.6116 27.7181 76.0997 27.209C76.5949 26.6929 77.1911 26.4349 77.8885 26.4349C78.5859 26.4349 79.1717 26.665 79.6459 27.1253C80.1271 27.5786 80.3886 28.1574 80.4304 28.8618V28.9141ZM77.9094 27.4287C77.5049 27.4496 77.1807 27.5751 76.9366 27.8052C76.6925 28.0354 76.5461 28.2794 76.4972 28.5375H79.4576C79.3948 28.2934 79.224 28.0563 78.945 27.8262C78.673 27.596 78.3278 27.4635 77.9094 27.4287Z" fill="#189AB4"/>
    <path d="M86.0622 27.0102C86.1877 27.0939 86.2644 27.2125 86.2923 27.3659C86.3272 27.5123 86.3062 27.6518 86.2295 27.7843C86.1458 27.9098 86.0273 27.99 85.8739 28.0249C85.7274 28.0528 85.5879 28.0214 85.4554 27.9308C85.0649 27.6727 84.7406 27.5437 84.4826 27.5437C84.2315 27.5437 84.0258 27.6065 83.8654 27.732C83.7538 27.8087 83.6981 27.8785 83.6981 27.9412C83.6981 27.997 83.705 28.0389 83.719 28.0668C83.7399 28.0946 83.7783 28.126 83.834 28.1609C83.9875 28.2655 84.242 28.3492 84.5977 28.412L84.6081 28.4224H84.6186C84.9882 28.4921 85.3264 28.5968 85.6333 28.7362C85.9401 28.8757 86.1668 29.0675 86.3132 29.3116C86.4597 29.5556 86.5329 29.7962 86.5329 30.0333C86.5329 30.5215 86.3132 30.926 85.8739 31.2468C85.4694 31.5257 85.0161 31.6652 84.514 31.6652C83.8654 31.6582 83.2448 31.4176 82.652 30.9434C82.5404 30.8528 82.4742 30.7307 82.4532 30.5773C82.4393 30.4169 82.4811 30.2809 82.5788 30.1693C82.6694 30.0438 82.795 29.9741 82.9554 29.9601C83.1157 29.9462 83.2517 29.988 83.3633 30.0856C83.7399 30.3995 84.1235 30.5529 84.514 30.5459C84.779 30.5459 85.0161 30.4797 85.2253 30.3472C85.3508 30.2426 85.4136 30.1554 85.4136 30.0856C85.4136 30.0089 85.4031 29.9566 85.3822 29.9287C85.3683 29.8939 85.3229 29.852 85.2462 29.8032C85.0789 29.6847 84.7999 29.587 84.4094 29.5103H84.3989C84.0293 29.4406 83.705 29.3395 83.4261 29.207C83.1541 29.0745 82.9344 28.8827 82.7671 28.6316C82.6485 28.4364 82.5892 28.2167 82.5892 27.9726C82.5892 27.5193 82.795 27.1358 83.2064 26.8219C83.583 26.5639 84.0119 26.4349 84.4931 26.4349C84.9812 26.4349 85.5043 26.6267 86.0622 27.0102Z" fill="#189AB4"/>
    <path fill-rule="evenodd" clip-rule="evenodd" d="M30.3153 27.131C32.486 24.2898 33.7754 20.7393 33.7754 16.8877C33.7754 7.56088 26.2145 0 16.8877 0C7.56088 0 0 7.56088 0 16.8877C0 26.2145 7.56088 33.7754 16.8877 33.7754C20.7393 33.7754 24.2897 32.486 27.1309 30.3153L31.0248 34.2092C31.9042 35.0886 33.3299 35.0886 34.2092 34.2092C35.0885 33.3299 35.0885 31.9042 34.2092 31.0249L30.3153 27.131Z" fill="#189AB4"/>
    <circle cx="16.8877" cy="16.8881" r="13.5102" fill="white"/>
    <circle cx="16.8877" cy="16.8875" r="10.1326" fill="#26CFBD"/>
    <path d="M19.89 11.4834C18.6936 11.4834 17.5857 12.1077 16.8877 13.0349C16.1897 12.1077 15.0818 11.4834 13.8854 11.4834C11.8161 11.4834 10.1326 13.1565 10.1326 15.2129C10.1326 19.3087 16.2302 23.1434 16.4906 23.3045C16.6098 23.3783 16.7473 23.4174 16.8877 23.4174C17.0281 23.4174 17.1656 23.3783 17.2847 23.3045C17.5452 23.1434 23.6428 19.3087 23.6428 15.2129C23.6428 13.1565 21.9593 11.4834 19.89 11.4834Z" fill="white"/>
</svg>
