<svg width="97" height="19" viewBox="0 0 97 19" fill="none" xmlns="http://www.w3.org/2000/svg">
    <g clip-path="url(#clip0)">
        <path d="M12.3808 1.89458C11.8973 1.62621 10.5112 1.79215 8.84655 2.30745C5.93309 4.29892 3.4742 7.23286 3.30261 11.9443C3.27137 12.0569 2.98401 11.9289 2.92717 11.8941C2.14043 10.3862 1.82873 8.79831 2.48565 6.5077C2.60809 6.30385 2.20778 6.05289 2.1358 6.12457C1.99161 6.269 1.39051 6.90933 0.991279 7.60181C-0.987633 11.0347 0.306488 15.4332 3.76871 17.3582C7.23022 19.2862 11.6013 18.0425 13.5287 14.58C15.7584 10.5836 13.688 2.62467 12.3809 1.8947L12.3808 1.89458Z" fill="#189AB4"/>
        <path fill-rule="evenodd" clip-rule="evenodd" d="M79.402 6.52212C80.6375 6.52212 80.7 5.56072 80.7 5.36811C80.7 4.79645 80.3589 4.18538 79.402 4.18538H76.8615V1.61565C76.8615 0.467767 76.1168 0.0605469 75.4785 0.0605469C75.2429 0.0605469 74.0669 0.135346 74.0669 1.61565V13.8184C74.0669 16.6346 75.456 18.123 78.0847 18.123C78.7648 18.123 79.4277 18.0026 79.8609 17.8008C80.3578 17.5529 80.6426 17.1452 80.6426 16.6827C80.6426 16.0302 80.1693 15.5569 79.5168 15.5569C79.3907 15.5569 79.2115 15.5881 79.0138 15.645C78.772 15.7055 78.6081 15.729 78.4289 15.729C77.3594 15.729 76.8615 15.0308 76.8615 13.5316V6.52092H79.402V6.52212ZM61.5749 5.22797C62.8226 4.31572 64.5047 3.81273 66.3108 3.81273L66.3106 3.81201C69.9022 3.81201 72.0472 5.82805 72.0472 9.20557V16.6825C72.0472 18.0824 70.9081 18.1229 70.7791 18.1229C70.1664 18.1229 69.4524 17.7459 69.4524 16.6825V15.9685C68.4382 17.4534 66.8575 18.2376 64.8783 18.2376C62.3931 18.2376 59.8854 16.9238 59.8854 13.9894C59.8854 9.91216 64.6522 9.34615 69.339 9.34105V9.03422C69.339 7.18255 68.1404 6.12076 66.0526 6.12076C64.9616 6.12076 63.9536 6.45421 62.881 7.16922C62.6075 7.36081 62.3094 7.46685 62.0431 7.46685C61.4274 7.46685 60.9459 6.97258 60.9459 6.34204C60.9459 5.88411 61.1518 5.5199 61.5749 5.22797ZM69.339 11.4201H68.7449C66.1787 11.4201 62.7673 11.6803 62.7674 13.9319C62.7674 15.8389 64.8439 15.9869 65.4801 15.9869C67.8239 15.9869 69.339 14.4498 69.339 12.0705V11.4201ZM17.6876 11.0682C17.6876 6.86421 20.6667 3.81299 24.771 3.81299L24.7713 3.81347C28.3486 3.81347 30.7822 5.96523 31.2815 9.56966C31.3389 9.97587 31.3389 10.1818 31.3389 10.4671C31.3389 11.4362 30.8493 11.9074 29.8412 11.9074H20.5715C20.6908 14.153 22.585 15.9016 24.914 15.9016C26.5889 15.9016 27.598 15.1722 28.3643 14.4582C28.7039 14.1443 28.9999 14.0106 29.3539 14.0106C30.0561 14.0106 30.5658 14.5084 30.5658 15.1937C30.5658 15.3545 30.5223 15.7751 30.1181 16.2115C28.7649 17.595 27.0633 18.267 24.914 18.267C20.659 18.267 17.6876 15.3068 17.6876 11.0682ZM28.5128 9.77105C28.4247 7.48195 26.9966 6.06364 24.771 6.06364H24.7709C22.574 6.06364 20.7828 7.65252 20.5744 9.77105H28.5128ZM35.759 6.37401C36.4802 4.88505 38.3262 3.81299 40.1906 3.81299V3.81383C43.9769 3.81383 45.3261 6.70319 45.3261 9.40769V16.568C45.3261 18.0483 44.1501 18.1231 43.9144 18.1231C43.6788 18.1231 42.5023 18.0483 42.5023 16.568V10.2945C42.5023 7.54389 41.5117 6.20705 39.4746 6.20705C37.3714 6.20705 35.9024 8.01768 35.9024 10.61V16.568C35.9024 18.0483 34.7259 18.1231 34.4902 18.1231C34.2546 18.1231 33.0786 18.0483 33.0786 16.568V5.45383C33.0786 4.3495 33.7782 3.9561 34.4329 3.9561C34.6541 3.9561 35.759 4.02831 35.759 5.45383V6.37401ZM58.1027 3.95654C57.4502 3.95654 56.977 4.33715 56.6952 5.08598L52.8318 14.8009L48.9979 5.08598C48.6978 4.32591 48.2281 3.95654 47.5617 3.95654C46.7831 3.95654 46.1495 4.56401 46.1495 5.31086C46.1495 5.49573 46.1705 5.73545 46.3268 6.10987L50.7666 16.5932C51.2957 17.8579 52.1659 18.1233 52.8031 18.1233C53.4398 18.1233 54.3106 17.8579 54.8407 16.5938L59.3094 6.05219C59.4621 5.6824 59.4857 5.4109 59.4857 5.28239C59.4857 4.52688 58.8905 3.95672 58.1027 3.95672V3.95654ZM81.3691 11.0106C81.3691 6.84017 84.4677 3.81299 88.7385 3.81299L88.7388 3.81311C93.0248 3.81311 96.137 6.84023 96.137 11.0107C96.137 15.1472 92.9563 18.2665 88.7388 18.2665C86.7012 18.2665 84.8347 17.5402 83.4825 16.2212C82.12 14.8916 81.3691 13.041 81.3691 11.0106ZM84.2782 11.0103C84.2782 13.4264 85.8098 15.8722 88.7385 15.8722C90.8868 15.8722 93.1989 14.3509 93.1989 11.0103C93.1989 7.69012 90.8868 6.17809 88.7385 6.17809C86.5903 6.17809 84.2782 7.69012 84.2782 11.0103Z" fill="#05445E"/>
    </g>
    <defs>
        <clipPath id="clip0">
            <rect width="96.2" height="18.3262" fill="white"/>
        </clipPath>
    </defs>
</svg>
