<svg width="640" height="446" viewBox="0 0 640 446" fill="none" xmlns="http://www.w3.org/2000/svg">
<mask id="mask0" mask-type="alpha" maskUnits="userSpaceOnUse" x="0" y="157" width="640" height="289">
<rect y="157" width="640" height="289" fill="#C4C4C4"/>
</mask>
<g mask="url(#mask0)">
<circle cx="320" cy="478" r="320" fill="#F1F6F9"/>
<circle cx="320" cy="478" r="240" fill="#DBEAF0"/>
<circle cx="320" cy="478" r="160" fill="#B8D4E0"/>
<circle cx="320" cy="478" r="80" fill="#70AAC2"/>
<path fill-rule="evenodd" clip-rule="evenodd" d="M100.162 214.439C100.162 219.001 98.7315 223.246 96.2734 226.788C114.965 227.687 129.829 242.393 129.829 260.403C129.829 261.828 129.736 263.232 129.555 264.61C133.323 262.183 137.868 260.765 142.761 260.765C155.784 260.765 166.342 270.811 166.342 283.204C166.342 291.022 162.14 297.906 155.768 301.923C170.51 304.615 182.101 315.743 184.775 329.823C187.768 328.252 191.208 327.358 194.868 327.358C206.421 327.358 215.786 336.27 215.786 347.263C215.786 351.753 214.224 355.896 211.589 359.226C225.414 359.705 236.885 368.961 240.033 381.312C246.728 374.817 256.055 370.788 266.372 370.788C270.468 370.788 274.408 371.423 278.09 372.596C286.23 356.843 303.282 346 323 346C342.179 346 358.836 356.259 367.223 371.315C369.303 370.969 371.444 370.788 373.628 370.788C383.945 370.788 393.272 374.817 399.967 381.312C403.115 368.961 414.587 359.705 428.411 359.226C425.776 355.896 424.214 351.753 424.214 347.263C424.214 336.27 433.58 327.358 445.133 327.358C448.792 327.358 452.232 328.252 455.224 329.823C457.899 315.743 469.489 304.615 484.232 301.923C477.86 297.906 473.658 291.022 473.658 283.204C473.658 270.811 484.216 260.765 497.239 260.765C502.132 260.765 506.677 262.183 510.445 264.61C510.264 263.232 510.171 261.828 510.171 260.403C510.171 242.393 525.035 227.687 543.727 226.788C541.269 223.246 539.838 219.001 539.838 214.439C539.838 202.046 550.395 192 563.419 192C576.442 192 587 202.046 587 214.439C587 224.686 579.782 233.328 569.921 236.014C576.693 242.146 580.915 250.805 580.915 260.403C580.915 272.786 573.886 283.608 563.419 289.453V400.465H510.171H497.239H457.089C452.228 410.303 441.719 417.113 429.539 417.113C422.196 417.113 415.461 414.639 410.204 410.518C407.826 427.721 392.357 441 373.628 441C364.848 441 356.784 438.081 350.45 433.208C342.57 438.134 333.138 441 323 441C311.393 441 300.71 437.243 292.225 430.939C285.568 437.162 276.441 441 266.372 441C247.643 441 232.174 427.721 229.796 410.518C224.539 414.639 217.804 417.113 210.462 417.113C198.281 417.113 187.772 410.303 182.911 400.465H142.761H129.829H76.5813V289.453C66.1135 283.608 59.0854 272.786 59.0854 260.403C59.0854 250.805 63.3069 242.146 70.0794 236.014C60.2178 233.328 53 224.686 53 214.439C53 202.046 63.5577 192 76.5812 192C89.6047 192 100.162 202.046 100.162 214.439Z" fill="#DBEAF0"/>
<path fill-rule="evenodd" clip-rule="evenodd" d="M71.3447 218.863C71.3447 224.122 69.7262 229.014 66.9459 233.097C88.0874 234.134 104.9 251.084 104.9 271.842C104.9 273.484 104.795 275.102 104.591 276.691C108.852 273.893 113.993 272.259 119.527 272.259C134.258 272.259 146.199 283.838 146.199 298.122C146.199 307.133 141.447 315.068 134.24 319.698C150.914 322.801 164.024 335.628 167.049 351.856C170.434 350.045 174.325 349.015 178.464 349.015C191.532 349.015 202.125 359.287 202.125 371.958C202.125 377.133 200.358 381.908 197.378 385.746C213.015 386.299 225.99 396.967 229.55 411.203C237.123 403.717 247.673 399.073 259.342 399.073C267.369 399.073 274.867 401.27 281.23 405.079C290.142 390.654 306.41 381 325 381C342.014 381 357.082 389.086 366.347 401.515C370.811 399.935 375.631 399.073 380.658 399.073C392.327 399.073 402.877 403.717 410.45 411.203C414.01 396.967 426.985 386.299 442.622 385.746C439.642 381.908 437.875 377.133 437.875 371.958C437.875 359.287 448.468 349.015 461.536 349.015C465.675 349.015 469.566 350.045 472.95 351.856C475.976 335.628 489.085 322.801 505.76 319.698C498.553 315.068 493.8 307.133 493.8 298.122C493.8 283.838 505.742 272.259 520.473 272.259C526.007 272.259 531.148 273.893 535.409 276.691C535.205 275.103 535.1 273.484 535.1 271.842C535.1 251.084 551.913 234.134 573.054 233.097C570.274 229.014 568.655 224.122 568.655 218.863C568.655 204.579 580.597 193 595.328 193C610.058 193 622 204.579 622 218.863C622 230.674 613.836 240.635 602.682 243.731C610.342 250.798 615.117 260.779 615.117 271.842C615.117 286.115 607.168 298.588 595.328 305.325V433.279L535.1 433.279H475.06C469.561 444.618 457.675 452.468 443.898 452.468C435.593 452.468 427.975 449.616 422.029 444.866C419.338 464.694 401.842 480 380.658 480C370.697 480 361.551 476.616 354.377 470.968C346.072 476.658 335.938 480 325 480C311.571 480 299.354 474.962 290.246 466.727C282.612 474.88 271.593 480 259.342 480C238.159 480 220.662 464.694 217.971 444.866C212.026 449.616 204.408 452.468 196.103 452.468C182.325 452.468 170.439 444.618 164.941 433.279H104.9L44.6725 433.279V305.325C32.8326 298.588 24.8832 286.115 24.8832 271.842C24.8832 260.779 29.6581 250.798 37.3183 243.731C26.164 240.635 18 230.674 18 218.863C18 204.579 29.9416 193 44.6724 193C59.4031 193 71.3447 204.579 71.3447 218.863Z" fill="#F1F6F9"/>
<path fill-rule="evenodd" clip-rule="evenodd" d="M31 213C31 219.303 29.1189 225.167 25.8875 230.06C50.4592 231.303 70 251.619 70 276.5C70 278.469 69.8777 280.409 69.6402 282.313C74.5932 278.959 80.5678 277 87 277C104.121 277 118 290.879 118 308C118 318.801 112.476 328.312 104.1 333.861C123.48 337.58 138.717 352.954 142.233 372.406C146.167 370.235 150.689 369 155.5 369C170.688 369 183 381.312 183 396.5C183 402.703 180.946 408.426 177.482 413.027C195.656 413.689 210.736 426.476 214.875 443.539C223.676 434.566 235.938 429 249.5 429C257.414 429 264.885 430.896 271.485 434.257C282.08 417.856 300.522 407 321.5 407C342.011 407 360.098 417.378 370.796 433.17C376.816 430.49 383.484 429 390.5 429C404.062 429 416.324 434.566 425.125 443.539C429.263 426.476 444.344 413.689 462.518 413.027C459.054 408.426 457 402.703 457 396.5C457 381.312 469.312 369 484.5 369C489.311 369 493.833 370.235 497.767 372.406C501.283 352.954 516.52 337.58 535.9 333.861C527.524 328.312 522 318.801 522 308C522 290.879 535.879 277 553 277C559.432 277 565.407 278.959 570.36 282.313C570.122 280.409 570 278.469 570 276.5C570 251.619 589.541 231.303 614.113 230.06C610.881 225.167 609 219.303 609 213C609 195.879 622.879 182 640 182C657.121 182 671 195.879 671 213C671 227.156 661.511 239.096 648.547 242.807C657.45 251.278 663 263.241 663 276.5C663 293.608 653.761 308.558 640 316.633V470H570H553H500.218C493.828 483.591 480.013 493 464 493C454.347 493 445.494 489.581 438.583 483.888C435.456 507.655 415.12 526 390.5 526C377.995 526 366.596 521.268 357.995 513.496C347.918 521.333 335.254 526 321.5 526C307.001 526 293.713 520.814 283.39 512.195C274.647 520.736 262.688 526 249.5 526C224.88 526 204.544 507.655 201.417 483.888C194.506 489.581 185.653 493 176 493C159.987 493 146.172 483.591 139.782 470H87H70H0V316.633C-13.7609 308.558 -23 293.608 -23 276.5C-23 263.241 -17.4504 251.278 -8.54719 242.807C-21.5113 239.096 -31 227.156 -31 213C-31 195.879 -17.1208 182 0 182C17.1208 182 31 195.879 31 213Z" fill="white"/>
</g>
<path d="M526.437 182.62H468.023V240.205H526.437V182.62Z" fill="#E5BE84"/>
<path d="M526.208 182.62L548.878 178.842V236.272L526.208 240.05V182.62Z" fill="#E1B370"/>
<path d="M526.208 182.62H468.023L490.692 178.842H548.878L526.208 182.62Z" fill="#EACA9A"/>
<path d="M505.075 182.62H489.399V197.439H505.075V182.62Z" fill="#EBD1B8"/>
<path d="M505.05 182.62H489.181L508.828 178.842H524.697L505.05 182.62Z" fill="#F0DDCB"/>
<path d="M505.075 225.374H489.399V240.189H505.075V225.374Z" fill="#EBD1B8"/>
<path d="M485.988 228.385H470.833V237.542H485.988V228.385Z" fill="#F9F0E6"/>
<path d="M473.142 229.589H471.535V236.176H473.142V229.589Z" fill="#444248"/>
<path d="M474.66 229.589H474.094V236.176H474.66V229.589Z" fill="#444248"/>
<path d="M478.324 229.589H477.005V236.176H478.324V229.589Z" fill="#444248"/>
<path d="M476.154 229.589H475.349V236.176H476.154V229.589Z" fill="#444248"/>
<path d="M479.858 229.589H479.313V236.176H479.858V229.589Z" fill="#444248"/>
<path d="M482.962 229.589H481.872V236.176H482.962V229.589Z" fill="#444248"/>
<path d="M483.869 229.589H483.328V236.176H483.869V229.589Z" fill="#444248"/>
<path d="M481.365 229.589H480.618V236.176H481.365V229.589Z" fill="#444248"/>
<path d="M485.237 229.589H484.432V236.176H485.237V229.589Z" fill="#444248"/>
<path d="M548.878 74.939C548.878 104.032 506.939 133.502 506.939 133.502C506.939 133.502 465 103.276 465 74.939C465 46.6018 483.777 33 506.939 33C530.101 33 548.878 45.8462 548.878 74.939Z" fill="#FFC700"/>
<path d="M527.72 74.939C527.72 104.032 506.939 133.502 506.939 133.502C506.939 133.502 486.158 103.276 486.158 74.939C486.158 46.6018 495.462 33 506.939 33C518.416 33 527.72 45.8462 527.72 74.939Z" fill="#FFD233"/>
<line x1="507.061" y1="132.747" x2="507.061" y2="180.353" stroke="#144052"/>
<path d="M397.405 222.754H349.48V270H397.405V222.754Z" fill="#E5BE84"/>
<path d="M397.218 222.755L415.817 219.655V266.773L397.218 269.873V222.755Z" fill="#E1B370"/>
<path d="M397.218 222.754H349.48L368.079 219.655H415.817L397.218 222.754Z" fill="#EACA9A"/>
<path d="M379.879 222.754H367.018V234.913H379.879V222.754Z" fill="#EBD1B8"/>
<path d="M379.859 222.754H366.839L382.958 219.655H395.978L379.859 222.754Z" fill="#F0DDCB"/>
<path d="M379.879 257.832H367.018V269.987H379.879V257.832Z" fill="#EBD1B8"/>
<path d="M364.219 260.302H351.785V267.814H364.219V260.302Z" fill="#F9F0E6"/>
<path d="M353.68 261.29H352.362V266.694H353.68V261.29Z" fill="#444248"/>
<path d="M354.925 261.29H354.461V266.694H354.925V261.29Z" fill="#444248"/>
<path d="M357.931 261.29H356.849V266.694H357.931V261.29Z" fill="#444248"/>
<path d="M356.151 261.29H355.491V266.694H356.151V261.29Z" fill="#444248"/>
<path d="M359.19 261.29H358.743V266.694H359.19V261.29Z" fill="#444248"/>
<path d="M361.737 261.29H360.843V266.694H361.737V261.29Z" fill="#444248"/>
<path d="M362.481 261.29H362.037V266.694H362.481V261.29Z" fill="#444248"/>
<path d="M360.426 261.29H359.814V266.694H360.426V261.29Z" fill="#444248"/>
<path d="M363.603 261.29H362.942V266.694H363.603V261.29Z" fill="#444248"/>
<path d="M415.817 134.409C415.817 158.277 381.409 182.456 381.409 182.456C381.409 182.456 347 157.658 347 134.409C347 111.16 362.405 100 381.409 100C400.412 100 415.817 110.54 415.817 134.409Z" fill="#FF8A00"/>
<path d="M398.458 134.409C398.458 158.277 381.409 182.456 381.409 182.456C381.409 182.456 364.359 157.658 364.359 134.409C364.359 111.16 371.992 100 381.409 100C390.825 100 398.458 110.54 398.458 134.409Z" fill="#FFA133"/>
<line x1="381.599" y1="181.836" x2="381.599" y2="220.895" stroke="#144052"/>
<path d="M249.405 207.754H201.48V255H249.405V207.754Z" fill="#E5BE84"/>
<path d="M249.218 207.755L267.817 204.655V251.773L249.218 254.873V207.755Z" fill="#E1B370"/>
<path d="M249.218 207.754H201.48L220.079 204.655H267.817L249.218 207.754Z" fill="#EACA9A"/>
<path d="M231.879 207.754H219.018V219.913H231.879V207.754Z" fill="#EBD1B8"/>
<path d="M231.859 207.754H218.839L234.958 204.655H247.978L231.859 207.754Z" fill="#F0DDCB"/>
<path d="M231.879 242.832H219.018V254.987H231.879V242.832Z" fill="#EBD1B8"/>
<path d="M216.219 245.302H203.785V252.814H216.219V245.302Z" fill="#F9F0E6"/>
<path d="M205.68 246.29H204.362V251.694H205.68V246.29Z" fill="#444248"/>
<path d="M206.925 246.29H206.461V251.694H206.925V246.29Z" fill="#444248"/>
<path d="M209.931 246.29H208.849V251.694H209.931V246.29Z" fill="#444248"/>
<path d="M208.151 246.29H207.491V251.694H208.151V246.29Z" fill="#444248"/>
<path d="M211.19 246.29H210.743V251.694H211.19V246.29Z" fill="#444248"/>
<path d="M213.737 246.29H212.843V251.694H213.737V246.29Z" fill="#444248"/>
<path d="M214.481 246.29H214.037V251.694H214.481V246.29Z" fill="#444248"/>
<path d="M212.426 246.29H211.814V251.694H212.426V246.29Z" fill="#444248"/>
<path d="M215.603 246.29H214.942V251.694H215.603V246.29Z" fill="#444248"/>
<path d="M267.817 119.409C267.817 143.277 233.409 167.456 233.409 167.456C233.409 167.456 199 142.658 199 119.409C199 96.1595 214.405 85 233.409 85C252.412 85 267.817 95.5395 267.817 119.409Z" fill="#FF4D00"/>
<path d="M250.458 119.409C250.458 143.277 233.409 167.456 233.409 167.456C233.409 167.456 216.359 142.658 216.359 119.409C216.359 96.1595 223.992 85 233.409 85C242.825 85 250.458 95.5395 250.458 119.409Z" fill="#FF7033"/>
<line x1="233.599" y1="166.836" x2="233.599" y2="205.895" stroke="#144052"/>
<path d="M204.302 240H127V316.205H204.302V240Z" fill="#E5BE84"/>
<path d="M204 240L234 235V311L204 316V240Z" fill="#E1B370"/>
<path d="M204 240H127L157 235H234L204 240Z" fill="#EACA9A"/>
<path d="M176.034 240H155.289V259.611H176.034V240Z" fill="#EBD1B8"/>
<path d="M176 240H155L181 235H202L176 240Z" fill="#F0DDCB"/>
<path d="M176.034 296.578H155.289V316.185H176.034V296.578Z" fill="#EBD1B8"/>
<path d="M150.774 300.562H130.719V312.68H150.774V300.562Z" fill="#F9F0E6"/>
<path d="M133.775 302.156H131.648V310.874H133.775V302.156Z" fill="#444248"/>
<path d="M135.783 302.156H135.035V310.874H135.783V302.156Z" fill="#444248"/>
<path d="M140.632 302.156H138.887V310.874H140.632V302.156Z" fill="#444248"/>
<path d="M137.761 302.156H136.695V310.874H137.761V302.156Z" fill="#444248"/>
<path d="M142.662 302.156H141.941V310.874H142.662V302.156Z" fill="#444248"/>
<path d="M146.77 302.156H145.328V310.874H146.77V302.156Z" fill="#444248"/>
<path d="M147.97 302.156H147.254V310.874H147.97V302.156Z" fill="#444248"/>
<path d="M144.656 302.156H143.668V310.874H144.656V302.156Z" fill="#444248"/>
<path d="M149.78 302.156H148.715V310.874H149.78V302.156Z" fill="#444248"/>
<path d="M234 97.5C234 136 178.5 175 178.5 175C178.5 175 123 135 123 97.5C123 60 147.848 42 178.5 42C209.152 42 234 59 234 97.5Z" fill="#05445E"/>
<path d="M206 97.5C206 136 178.5 175 178.5 175C178.5 175 151 135 151 97.5C151 60 163.312 42 178.5 42C193.688 42 206 59 206 97.5Z" fill="#07668C"/>
<line x1="178.5" y1="174" x2="178.5" y2="237" stroke="#144052"/>
<path d="M345.206 258.649H244.225V358.197H345.206V258.649Z" fill="#E5BE84"/>
<path d="M344.811 258.649L384 252.117V351.396L344.811 357.928V258.649Z" fill="#E1B370"/>
<path d="M344.811 258.649H244.225L283.414 252.117H384L344.811 258.649Z" fill="#EACA9A"/>
<path d="M308.278 258.649H281.179V284.267H308.278V258.649Z" fill="#EBD1B8"/>
<path d="M308.234 258.649H280.802L314.766 252.117H342.198L308.234 258.649Z" fill="#F0DDCB"/>
<path d="M308.278 332.557H281.179V358.169H308.278V332.557Z" fill="#EBD1B8"/>
<path d="M275.282 337.762H249.083V353.591H275.282V337.762Z" fill="#F9F0E6"/>
<path d="M253.075 339.844H250.297V351.232H253.075V339.844Z" fill="#444248"/>
<path d="M255.699 339.844H254.722V351.232H255.699V339.844Z" fill="#444248"/>
<path d="M262.033 339.844H259.753V351.232H262.033V339.844Z" fill="#444248"/>
<path d="M258.282 339.844H256.89V351.232H258.282V339.844Z" fill="#444248"/>
<path d="M264.685 339.844H263.743V351.232H264.685V339.844Z" fill="#444248"/>
<path d="M270.051 339.844H268.167V351.232H270.051V339.844Z" fill="#444248"/>
<path d="M271.619 339.844H270.683V351.232H271.619V339.844Z" fill="#444248"/>
<path d="M267.29 339.844H265.999V351.232H267.29V339.844Z" fill="#444248"/>
<path d="M273.983 339.844H272.591V351.232H273.983V339.844Z" fill="#444248"/>
<path d="M384 72.5C384 122.793 311.5 173.739 311.5 173.739C311.5 173.739 239 121.486 239 72.5C239 23.5135 271.459 0 311.5 0C351.541 0 384 22.2072 384 72.5Z" fill="#26CFBD"/>
<path d="M347.423 72.5C347.423 122.793 311.5 173.739 311.5 173.739C311.5 173.739 275.577 121.486 275.577 72.5C275.577 23.5135 291.66 0 311.5 0C331.34 0 347.423 22.2072 347.423 72.5Z" fill="#4ADECE"/>
<line x1="311.347" y1="172.433" x2="311.347" y2="254.73" stroke="#144052"/>
<path d="M472.302 256H395V332.205H472.302V256Z" fill="#E5BE84"/>
<path d="M472 256L502 251V327L472 332V256Z" fill="#E1B370"/>
<path d="M472 256H395L425 251H502L472 256Z" fill="#EACA9A"/>
<path d="M444.034 256H423.289V275.611H444.034V256Z" fill="#EBD1B8"/>
<path d="M444 256H423L449 251H470L444 256Z" fill="#F0DDCB"/>
<path d="M444.034 312.578H423.289V332.185H444.034V312.578Z" fill="#EBD1B8"/>
<path d="M418.774 316.562H398.719V328.68H418.774V316.562Z" fill="#F9F0E6"/>
<path d="M401.775 318.156H399.648V326.874H401.775V318.156Z" fill="#444248"/>
<path d="M403.783 318.156H403.035V326.874H403.783V318.156Z" fill="#444248"/>
<path d="M408.632 318.156H406.887V326.874H408.632V318.156Z" fill="#444248"/>
<path d="M405.761 318.156H404.695V326.874H405.761V318.156Z" fill="#444248"/>
<path d="M410.662 318.156H409.941V326.874H410.662V318.156Z" fill="#444248"/>
<path d="M414.77 318.156H413.328V326.874H414.77V318.156Z" fill="#444248"/>
<path d="M415.97 318.156H415.254V326.874H415.97V318.156Z" fill="#444248"/>
<path d="M412.656 318.156H411.668V326.874H412.656V318.156Z" fill="#444248"/>
<path d="M417.78 318.156H416.715V326.874H417.78V318.156Z" fill="#444248"/>
<path d="M502 113.5C502 152 446.5 191 446.5 191C446.5 191 391 151 391 113.5C391 76 415.848 58 446.5 58C477.152 58 502 75 502 113.5Z" fill="#189AB4"/>
<path d="M474 113.5C474 152 446.5 191 446.5 191C446.5 191 419 151 419 113.5C419 76 431.312 58 446.5 58C461.688 58 474 75 474 113.5Z" fill="#1EC1E1"/>
<line x1="446.5" y1="190" x2="446.5" y2="253" stroke="#144052"/>
</svg>
