<svg width="543" height="299" viewBox="0 0 543 299" fill="none" xmlns="http://www.w3.org/2000/svg">
<g clip-path="url(#clip0)">
<path d="M167.046 138.246C165.559 138.259 164.199 137.411 163.555 136.074L148.454 104.722C148.037 103.851 147.851 102.904 147.892 101.943C148.028 98.733 151.428 92.2594 158.573 95.7591C159.77 96.3439 161.234 97.8626 161.864 99.0367L172.544 121.218C173.147 122.338 174.258 123.086 175.523 123.218L208.566 125.802L208.394 137.878L167.046 138.246Z" fill="#1EA496"/>
<path d="M209.929 125.564C209.462 125.555 209.004 125.595 208.555 125.659L208.383 137.736C208.832 137.813 209.285 137.863 209.756 137.872C213.827 137.926 217.168 135.22 217.218 131.82C217.264 128.42 214.004 125.618 209.929 125.564Z" fill="#EFA77B"/>
<path d="M362.655 250.294V109.24H342.269V16.125H299.293V57.9994H311.415V237.12H342.269V130.052H346.127V261.868H542.806V250.294H362.655Z" fill="#144052"/>
<path d="M331.182 16.125H323.398V237.12H331.182V16.125Z" fill="#DBEAF0"/>
<path d="M244.4 28.773C240.846 21.3202 233.675 16.2474 225.46 15.377L70.1573 0.512159C64.0735 -0.136108 58.7695 4.63749 58.7695 10.7575V126.743L78.6165 144.509V31.2119C78.6165 25.0919 83.9205 20.3183 90.0042 20.962L213.628 32.4223C221.888 33.2927 229.091 38.4108 232.627 45.9226L258.023 131.702L259.302 134.413H279.797L244.4 28.773Z" fill="#144052"/>
<path d="M210.984 132.776C209.528 130.913 211.659 125.781 215.517 121.248C219.275 116.828 223.854 113.949 226.021 114.788C228.446 115.722 227.086 120.89 222.598 126.375C217.965 132.037 212.616 134.871 210.984 132.776ZM245.432 152.895L227.562 125.509C233.215 117.385 234.14 110.672 230.246 109.733C226.587 108.854 219.57 113.428 213.876 120.056C207.955 126.955 204.279 135.129 206.151 138.556C208.005 141.956 214.406 139.599 221.043 133.184L236.048 154.187L245.432 152.895Z" fill="#144052"/>
<path d="M236.116 124.766L207.121 147.577V229.413H243.963V124.766H236.116Z" fill="#144052"/>
<path d="M132.257 158.164C130.231 152.883 127.357 136.631 124.315 122.89C122.787 115.981 118.626 109.272 111.604 108.433L111.472 108.415C105.96 108.075 100.461 107.921 94.9889 107.767C93.0169 107.713 91.4167 109.349 91.5119 111.321C92.414 129.962 95.7415 164.561 107.963 180.395C125.136 202.641 148.165 233.481 148.165 233.481H184.572L177.364 177.118C177.364 177.118 178.371 171.954 142.095 167.797C137.688 167.29 133.84 162.303 132.257 158.164Z" fill="#144052"/>
<path d="M275.246 124.517H233.947C233.947 124.517 242.47 218.284 226.698 218.284H150.833L129.431 168.481L57.6912 118.125C32.9709 118.125 18.8496 131.947 7.55253 153.934L7.29413 154.442C2.49787 163.767 0 174.103 0 184.588V243.286C0 257.253 2.8016 268.577 16.7688 268.577H308.022C279.802 210.025 315.792 201.502 315.792 201.502C315.792 201.502 280.437 136.694 275.246 124.517Z" fill="#FFC700"/>
<path d="M79.6231 189.312C45.2559 189.312 17.3985 217.174 17.3985 251.542C17.3985 257.458 18.278 263.165 19.8193 268.587H34.1991C33.6687 265.491 33.2924 262.34 33.2924 259.071C33.2924 230.43 54.0369 207.215 79.6231 207.215C105.214 207.215 125.958 230.43 125.958 259.071C125.958 262.34 125.582 265.491 125.052 268.587H139.431C140.973 263.165 141.852 257.458 141.852 251.542C141.852 217.174 113.99 189.312 79.6231 189.312Z" fill="#FF8A00"/>
<path d="M326.058 224.849L336.122 208.439C324.802 196.652 308.894 189.312 291.264 189.312C256.897 189.312 229.035 217.174 229.035 251.542C229.035 257.458 229.915 263.165 231.46 268.587H245.836C245.305 265.491 244.929 262.34 244.929 259.071C244.929 230.43 265.674 207.215 291.264 207.215C305.132 207.215 317.567 214.042 326.058 224.849Z" fill="#FF8A00"/>
<path d="M338.53 251.497C338.53 277.623 317.346 298.807 291.22 298.807C265.09 298.807 243.91 277.623 243.91 251.497C243.91 225.367 265.09 204.188 291.22 204.188C317.346 204.188 338.53 225.367 338.53 251.497Z" fill="#144052"/>
<path d="M320.206 251.497C320.206 267.504 307.232 280.479 291.225 280.479C275.217 280.479 262.238 267.504 262.238 251.497C262.238 235.49 275.217 222.516 291.225 222.516C307.232 222.516 320.206 235.49 320.206 251.497Z" fill="#DBEAF0"/>
<path d="M126.955 251.497C126.955 277.623 105.775 298.807 79.6452 298.807C53.5196 298.807 32.3398 277.623 32.3398 251.497C32.3398 225.367 53.5196 204.188 79.6452 204.188C105.775 204.188 126.955 225.367 126.955 251.497Z" fill="#144052"/>
<path d="M108.636 251.497C108.636 267.504 95.6568 280.479 79.6496 280.479C63.6469 280.479 50.668 267.504 50.668 251.497C50.668 235.49 63.6469 222.516 79.6496 222.516C95.6568 222.516 108.636 235.49 108.636 251.497Z" fill="#DBEAF0"/>
<path d="M303.496 251.476C303.496 258.227 298.02 263.703 291.27 263.703C284.515 263.703 279.039 258.227 279.039 251.476C279.039 244.722 284.515 239.25 291.27 239.25C298.02 239.25 303.496 244.722 303.496 251.476Z" fill="#144052"/>
<path d="M91.8643 251.476C91.8643 258.227 86.3881 263.703 79.6334 263.703C72.8833 263.703 67.4025 258.227 67.4025 251.476C67.4025 244.722 72.8833 239.25 79.6334 239.25C86.3881 239.25 91.8643 244.722 91.8643 251.476Z" fill="#144052"/>
<path d="M477.131 174.172H421.879V250.377H477.131V174.172Z" fill="#C78C5C"/>
<path d="M445.924 174.172H368.621V250.377H445.924V174.172Z" fill="#E5BE84"/>
<path d="M417.655 174.172H396.91V193.783H417.655V174.172Z" fill="#EBD1B8"/>
<path d="M417.655 230.75H396.91V250.357H417.655V230.75Z" fill="#EBD1B8"/>
<path d="M392.395 234.734H372.34V246.852H392.395V234.734Z" fill="#F9F0E6"/>
<path d="M375.396 236.328H373.27V245.046H375.396V236.328Z" fill="#444248"/>
<path d="M377.404 236.328H376.656V245.046H377.404V236.328Z" fill="#444248"/>
<path d="M382.253 236.328H380.508V245.046H382.253V236.328Z" fill="#444248"/>
<path d="M379.382 236.328H378.316V245.046H379.382V236.328Z" fill="#444248"/>
<path d="M384.283 236.328H383.562V245.046H384.283V236.328Z" fill="#444248"/>
<path d="M388.391 236.328H386.949V245.046H388.391V236.328Z" fill="#444248"/>
<path d="M389.591 236.328H388.875V245.046H389.591V236.328Z" fill="#444248"/>
<path d="M386.277 236.328H385.289V245.046H386.277V236.328Z" fill="#444248"/>
<path d="M391.401 236.328H390.336V245.046H391.401V236.328Z" fill="#444248"/>
<path d="M531.583 174.172H454.285V250.377H531.583V174.172Z" fill="#E5BE84"/>
<path d="M503.248 174.172H482.508V193.783H503.248V174.172Z" fill="#EBD1B8"/>
<path d="M503.248 230.75H482.508V250.357H503.248V230.75Z" fill="#EBD1B8"/>
<path d="M477.993 234.734H457.938V246.852H477.993V234.734Z" fill="#F9F0E6"/>
<path d="M460.998 236.328H458.867V245.046H460.998V236.328Z" fill="#444248"/>
<path d="M463.064 236.328H462.32V245.046H463.064V236.328Z" fill="#444248"/>
<path d="M467.851 236.328H466.105V245.046H467.851V236.328Z" fill="#444248"/>
<path d="M464.979 236.328H463.914V245.046H464.979V236.328Z" fill="#444248"/>
<path d="M469.881 236.328H469.16V245.046H469.881V236.328Z" fill="#444248"/>
<path d="M473.988 236.328H472.547V245.046H473.988V236.328Z" fill="#444248"/>
<path d="M475.193 236.328H474.473V245.046H475.193V236.328Z" fill="#444248"/>
<path d="M471.941 236.328H470.953V245.046H471.941V236.328Z" fill="#444248"/>
<path d="M477.061 236.328H476V245.046H477.061V236.328Z" fill="#444248"/>
<path d="M488.95 97.9375H411.652V174.138H488.95V97.9375Z" fill="#E5BE84"/>
<path d="M460.681 97.9375H439.941V117.544H460.681V97.9375Z" fill="#EBD1B8"/>
<path d="M460.681 154.516H439.941V174.122H460.681V154.516Z" fill="#EBD1B8"/>
<path d="M435.422 158.5H415.371V170.613H435.422V158.5Z" fill="#F9F0E6"/>
<path d="M418.427 160.094H416.301V168.811H418.427V160.094Z" fill="#444248"/>
<path d="M420.436 160.094H419.688V168.811H420.436V160.094Z" fill="#444248"/>
<path d="M425.284 160.094H423.539V168.811H425.284V160.094Z" fill="#444248"/>
<path d="M422.347 160.094H421.281V168.811H422.347V160.094Z" fill="#444248"/>
<path d="M427.248 160.094H426.527V168.811H427.248V160.094Z" fill="#444248"/>
<path d="M431.422 160.094H429.98V168.811H431.422V160.094Z" fill="#444248"/>
<path d="M432.623 160.094H431.906V168.811H432.623V160.094Z" fill="#444248"/>
<path d="M429.309 160.094H428.32V168.811H429.309V160.094Z" fill="#444248"/>
<path d="M434.433 160.094H433.367V168.811H434.433V160.094Z" fill="#444248"/>
<path d="M146.544 82L146.027 100.646L155.769 100.841L156.563 82.1496L146.544 82Z" fill="#EFA77B"/>
<path d="M171.061 147.352L197.785 163.146C200.791 164.923 202.491 168.282 202.142 171.76L198.438 208.321H179.987L179.38 175.654L148.381 168.958C142.356 167.657 138.059 162.33 138.059 156.165V145.484L171.061 147.352Z" fill="#1EA496"/>
<path d="M181.223 208.172V218.431H207.503C207.503 218.431 212.476 211.436 198.404 208.172H181.223Z" fill="#144052"/>
<path d="M192.858 162.942L173.07 148.095C171.819 126.521 168.301 116.883 166.505 107.798C165.517 102.793 161.7 96.7323 157.004 93.3051C156.056 93.4683 155.068 93.5726 154.003 93.5726C150.689 93.5726 147.901 92.7113 145.625 91.2969C140.053 93.0059 135.778 97.8158 134.745 103.745C131.327 123.375 132.347 142.945 132.705 148.095L133.131 155.96C133.131 162.126 137.433 167.452 143.458 168.753L174.457 175.449L175.06 208.116H193.511L197.214 171.555C197.563 168.078 195.863 164.719 192.858 162.942Z" fill="#26CFBD"/>
<path fill-rule="evenodd" clip-rule="evenodd" d="M172.625 141.832C172.512 140.522 172.389 139.262 172.258 138.047H172.317C172.448 139.692 172.561 141.071 172.625 141.832Z" fill="#ECE0B4"/>
<path d="M172.204 138.025C171.778 134.031 171.27 130.541 170.731 127.422L171.615 128.029C171.719 130.74 172.018 134.875 172.263 138.025H172.204Z" fill="#D77327"/>
<path d="M158.049 142.506C156.58 142.506 155.234 141.658 154.594 140.33L142.944 108.438C142.527 107.572 142.336 106.624 142.382 105.663C142.49 103.106 144.676 98.4688 149.177 98.4688C150.32 98.4688 151.616 98.7679 153.062 99.4797C154.259 100.064 155.723 101.583 156.353 102.757L167.034 124.939L170.733 127.473C171.273 130.592 171.78 134.083 172.206 138.076C172.338 139.291 172.46 140.552 172.574 141.862C172.61 142.274 172.628 142.506 172.628 142.506H158.049Z" fill="#1EA496"/>
<path d="M163.195 139.308C161.708 139.322 160.348 138.474 159.704 137.132L144.604 105.779C144.187 104.914 143.996 103.966 144.042 103.005C144.178 99.7955 147.578 93.3219 154.722 96.8216C155.919 97.4064 157.383 98.9251 158.013 100.099L168.694 122.281C169.292 123.401 170.407 124.149 171.672 124.28L204.716 126.864L204.543 138.941L163.195 139.308Z" fill="#26CFBD"/>
<path d="M206.077 126.625C205.606 126.621 205.148 126.662 204.704 126.725L204.531 138.802C204.976 138.879 205.433 138.929 205.905 138.933C209.976 138.992 213.317 136.286 213.362 132.886C213.412 129.486 210.148 126.684 206.077 126.625Z" fill="#F8B896"/>
<path d="M176.291 37.4122C174.21 40.0144 166.536 39.6245 151.285 36.7594C143.955 35.3858 138.143 37.3896 135.292 39.901C128.56 45.8261 127.086 53.6778 129.358 64.7528C131.253 74.0008 141.108 76.6346 141.108 76.6346C140.469 72.5818 140.727 67.2642 140.727 67.2642C140.727 67.2642 140.161 63.7509 139.304 59.4941C140.827 60.369 141.045 61.9965 141.045 61.9965H144.943C144.943 61.9965 144.032 56.4024 145.596 53.0205C147.156 49.6386 146.376 51.7194 163.53 51.7194C166.617 51.7194 168.988 51.2434 170.829 50.4818C179.224 47.0184 176.291 37.4122 176.291 37.4122Z" fill="#444248"/>
<path d="M145.575 51.8668C144.011 55.2487 144.922 60.8428 144.922 60.8428H141.023C141.023 60.8428 140.706 58.1817 137.732 57.8236C136.589 57.6876 133.992 58.7529 133.602 61.6497L133.543 62.2708C133.543 65.8295 136.381 68.7127 139.881 68.7127L140.37 68.6628V73.4863C140.37 81.8095 147.116 88.5551 155.435 88.5551H155.743C164.061 88.5551 170.807 81.8095 170.807 73.4863V49.3281C168.967 50.0897 166.596 50.5657 163.508 50.5657C146.354 50.5657 147.134 48.4849 145.575 51.8668Z" fill="#F8B896"/>
<path d="M165.861 64.1589C165.861 65.3104 164.931 66.2397 163.78 66.2397C162.633 66.2397 161.699 65.3104 161.699 64.1589C161.699 63.012 162.633 62.0781 163.78 62.0781C164.931 62.0781 165.861 63.012 165.861 64.1589Z" fill="#444248"/>
<path d="M169.276 80.2193C169.285 80.2147 170.826 78.1566 170.795 74.0312H164.09C164.09 74.0312 164.797 79.5075 169.276 80.2193Z" fill="white"/>
<path d="M165.578 59.9823H161.389C160.972 59.9823 160.637 59.6468 160.637 59.2343V59.1074C160.637 58.6948 160.972 58.3594 161.389 58.3594H165.578C165.991 58.3594 166.331 58.6948 166.331 59.1074V59.2343C166.331 59.6468 165.991 59.9823 165.578 59.9823Z" fill="#444248"/>
<path d="M176.309 208.172V218.431H202.593C202.593 218.431 207.561 211.436 193.49 208.172H176.309Z" fill="#144052"/>
<g clip-path="url(#clip1)">
<path fill-rule="evenodd" clip-rule="evenodd" d="M431 203H383V219H396.333V221.667H407V219H431V203ZM385.667 216.333H385.667V205.667H396.333V205.667H396.333V216.333H393.667V216.333H393.667V208.333H391V216.333H385.667V216.333ZM399 219V205.667H409.667V205.667H409.667V216.333H404.333V219H399V219H399ZM407 208.333V213.667H404.333V208.333H407ZM412.333 216.333V205.667H428.333V205.667H428.333V216.333H425.667V216.333H425.667V208.333H423V216.333H420.333V216.333H420.333V208.333H417.667V216.333H412.333V216.333H412.333Z" fill="#144052"/>
</g>
<g clip-path="url(#clip2)">
<path fill-rule="evenodd" clip-rule="evenodd" d="M474 127H426V143H439.333V145.667H450V143H474V127ZM428.667 140.333H428.667V129.667H439.333V129.667H439.333V140.333H436.667V140.333H436.667V132.333H434V140.333H428.667V140.333ZM442 143V129.667H452.667V129.667H452.667V140.333H447.333V143H442V143H442ZM450 132.333V137.667H447.333V132.333H450ZM455.333 140.333V129.667H471.333V129.667H471.333V140.333H468.667V140.333H468.667V132.333H466V140.333H463.333V140.333H463.333V132.333H460.667V140.333H455.333V140.333H455.333Z" fill="#144052"/>
</g>
<g clip-path="url(#clip3)">
<path fill-rule="evenodd" clip-rule="evenodd" d="M517 204H469V220H482.333V222.667H493V220H517V204ZM471.667 217.333H471.667V206.667H482.333V206.667H482.333V217.333H479.667V217.333H479.667V209.333H477V217.333H471.667V217.333ZM485 220V206.667H495.667V206.667H495.667V217.333H490.333V220H485V220H485ZM493 209.333V214.667H490.333V209.333H493ZM498.333 217.333V206.667H514.333V206.667H514.333V217.333H511.667V217.333H511.667V209.333H509V217.333H506.333V217.333H506.333V209.333H503.667V217.333H498.333V217.333H498.333Z" fill="#144052"/>
</g>
</g>
<defs>
<clipPath id="clip0">
<rect width="543" height="299" fill="white"/>
</clipPath>
<clipPath id="clip1">
<rect x="383" y="203" width="48" height="18.6667" fill="white"/>
</clipPath>
<clipPath id="clip2">
<rect x="426" y="127" width="48" height="18.6667" fill="white"/>
</clipPath>
<clipPath id="clip3">
<rect x="469" y="204" width="48" height="18.6667" fill="white"/>
</clipPath>
</defs>
</svg>
