<svg width="640" height="470" viewBox="0 0 640 470" fill="none" xmlns="http://www.w3.org/2000/svg">
<g clip-path="url(#clip0)">
<circle cx="320" cy="479" r="320" fill="#F1F6F9"/>
<circle cx="320" cy="479" r="240" fill="#DBEAF0"/>
<circle cx="320" cy="479" r="160" fill="#B8D4E0"/>
<circle cx="320" cy="479" r="80" fill="#70AAC2"/>
<path fill-rule="evenodd" clip-rule="evenodd" d="M100.162 214.439C100.162 219.001 98.7315 223.246 96.2734 226.788C114.965 227.687 129.829 242.393 129.829 260.403C129.829 261.828 129.736 263.232 129.555 264.61C133.323 262.183 137.868 260.765 142.761 260.765C155.784 260.765 166.342 270.811 166.342 283.204C166.342 291.022 162.14 297.906 155.768 301.923C170.51 304.615 182.101 315.743 184.775 329.823C187.768 328.252 191.208 327.358 194.868 327.358C206.421 327.358 215.786 336.27 215.786 347.263C215.786 351.753 214.224 355.896 211.589 359.226C225.414 359.705 236.885 368.961 240.033 381.312C246.728 374.817 256.055 370.788 266.372 370.788C286.747 370.788 303.265 386.505 303.265 405.894C303.265 425.283 286.747 441 266.372 441C247.643 441 232.174 427.721 229.796 410.518C224.539 414.639 217.804 417.113 210.462 417.113C198.281 417.113 187.772 410.303 182.911 400.465H142.761H129.829H76.5813V289.453C66.1135 283.608 59.0854 272.786 59.0854 260.403C59.0854 250.805 63.3069 242.146 70.0794 236.014C60.2178 233.328 53 224.686 53 214.439C53 202.046 63.5577 192 76.5812 192C89.6047 192 100.162 202.046 100.162 214.439ZM539.838 214.439C539.838 219.001 541.269 223.246 543.727 226.788C525.035 227.687 510.171 242.393 510.171 260.403C510.171 261.828 510.264 263.232 510.445 264.61C506.677 262.183 502.132 260.765 497.239 260.765C484.216 260.765 473.658 270.811 473.658 283.204C473.658 291.022 477.86 297.906 484.232 301.923C469.489 304.615 457.899 315.743 455.224 329.823C452.232 328.252 448.792 327.358 445.133 327.358C433.58 327.358 424.214 336.27 424.214 347.263C424.214 351.753 425.776 355.896 428.411 359.226C414.587 359.705 403.115 368.961 399.967 381.312C393.272 374.817 383.945 370.788 373.628 370.788C353.253 370.788 336.735 386.505 336.735 405.894C336.735 425.283 353.253 441 373.628 441C392.357 441 407.826 427.721 410.204 410.518C415.461 414.639 422.196 417.113 429.539 417.113C441.719 417.113 452.228 410.303 457.089 400.465H497.239H510.171H563.419V289.453C573.886 283.608 580.915 272.786 580.915 260.403C580.915 250.805 576.693 242.146 569.921 236.014C579.782 233.328 587 224.686 587 214.439C587 202.046 576.442 192 563.419 192C550.395 192 539.838 202.046 539.838 214.439Z" fill="#DBEAF0"/>
<path fill-rule="evenodd" clip-rule="evenodd" d="M71.3447 218.863C71.3447 224.122 69.7262 229.014 66.9459 233.097C88.0874 234.134 104.9 251.084 104.9 271.842C104.9 273.484 104.795 275.102 104.591 276.691C108.852 273.893 113.993 272.259 119.527 272.259C134.258 272.259 146.199 283.838 146.199 298.122C146.199 307.133 141.447 315.068 134.24 319.698C150.914 322.801 164.024 335.628 167.049 351.856C170.434 350.045 174.325 349.015 178.464 349.015C191.532 349.015 202.125 359.287 202.125 371.958C202.125 377.133 200.358 381.908 197.378 385.746C213.015 386.299 225.99 396.967 229.55 411.203C237.123 403.717 247.673 399.073 259.342 399.073C282.388 399.073 301.071 417.189 301.071 439.536C301.071 461.884 282.388 480 259.342 480C238.159 480 220.662 464.694 217.971 444.866C212.026 449.616 204.408 452.468 196.103 452.468C182.325 452.468 170.439 444.618 164.941 433.279H104.9L44.6725 433.279V305.325C32.8326 298.588 24.8832 286.115 24.8832 271.842C24.8832 260.779 29.6581 250.798 37.3183 243.731C26.164 240.635 18 230.674 18 218.863C18 204.579 29.9416 193 44.6724 193C59.4031 193 71.3447 204.579 71.3447 218.863ZM568.655 218.863C568.655 224.122 570.274 229.014 573.054 233.097C551.913 234.134 535.1 251.084 535.1 271.842C535.1 273.484 535.205 275.103 535.409 276.691C531.148 273.893 526.007 272.259 520.473 272.259C505.742 272.259 493.8 283.838 493.8 298.122C493.8 307.133 498.553 315.068 505.76 319.698C489.085 322.801 475.976 335.628 472.95 351.856C469.566 350.045 465.675 349.015 461.536 349.015C448.468 349.015 437.875 359.287 437.875 371.958C437.875 377.133 439.642 381.908 442.622 385.746C426.985 386.299 414.01 396.967 410.45 411.203C402.877 403.717 392.327 399.073 380.658 399.073C357.612 399.073 338.929 417.189 338.929 439.536C338.929 461.884 357.612 480 380.658 480C401.842 480 419.338 464.694 422.029 444.866C427.975 449.616 435.593 452.468 443.898 452.468C457.675 452.468 469.561 444.618 475.06 433.279H535.1L595.328 433.279V305.325C607.168 298.588 615.117 286.115 615.117 271.842C615.117 260.779 610.342 250.798 602.682 243.731C613.836 240.635 622 230.674 622 218.863C622 204.579 610.058 193 595.328 193C580.597 193 568.655 204.579 568.655 218.863Z" fill="#F1F6F9"/>
<path fill-rule="evenodd" clip-rule="evenodd" d="M31 213C31 219.303 29.1189 225.167 25.8875 230.06C50.4592 231.303 70 251.619 70 276.5C70 278.469 69.8777 280.409 69.6402 282.313C74.5932 278.959 80.5678 277 87 277C104.121 277 118 290.879 118 308C118 318.801 112.476 328.312 104.1 333.861C123.48 337.58 138.717 352.954 142.233 372.406C146.167 370.235 150.689 369 155.5 369C170.688 369 183 381.312 183 396.5C183 402.703 180.946 408.426 177.482 413.027C195.656 413.689 210.736 426.476 214.875 443.539C223.676 434.566 235.938 429 249.5 429C276.286 429 298 450.714 298 477.5C298 504.286 276.286 526 249.5 526C224.88 526 204.544 507.655 201.417 483.888C194.506 489.581 185.653 493 176 493C159.987 493 146.172 483.591 139.782 470H87H70H0V316.633C-13.7609 308.558 -23 293.608 -23 276.5C-23 263.241 -17.4504 251.278 -8.54719 242.807C-21.5113 239.096 -31 227.156 -31 213C-31 195.879 -17.1208 182 0 182C17.1208 182 31 195.879 31 213ZM609 213C609 219.303 610.881 225.167 614.113 230.06C589.541 231.303 570 251.619 570 276.5C570 278.469 570.122 280.409 570.36 282.313C565.407 278.959 559.432 277 553 277C535.879 277 522 290.879 522 308C522 318.801 527.524 328.312 535.9 333.861C516.52 337.58 501.283 352.954 497.767 372.406C493.833 370.235 489.311 369 484.5 369C469.312 369 457 381.312 457 396.5C457 402.703 459.054 408.426 462.518 413.027C444.344 413.689 429.263 426.476 425.125 443.539C416.324 434.566 404.062 429 390.5 429C363.714 429 342 450.714 342 477.5C342 504.286 363.714 526 390.5 526C415.12 526 435.456 507.655 438.583 483.888C445.494 489.581 454.347 493 464 493C480.013 493 493.828 483.591 500.218 470H553H570H640V316.633C653.761 308.558 663 293.608 663 276.5C663 263.241 657.45 251.278 648.547 242.807C661.511 239.096 671 227.156 671 213C671 195.879 657.121 182 640 182C622.879 182 609 195.879 609 213Z" fill="white"/>
<path d="M320 262C331.056 353.428 330.883 407.294 379.756 483.25H260.244C296.433 455.302 305.775 389.845 320 262Z" fill="white"/>
<path d="M264.357 142.857L283.286 194.643C263.185 193.901 256.031 205.129 246.5 234.286C234.219 192.251 235.762 171.455 264.357 142.857Z" fill="#26CFBD"/>
<path d="M376.143 142.857L357.214 194.643C377.315 193.901 384.469 205.129 394 234.286C406.281 192.251 404.738 171.455 376.143 142.857Z" fill="#1EA496"/>
<path fill-rule="evenodd" clip-rule="evenodd" d="M347.667 204.286C365.284 191.03 377.214 163.745 377.214 123.471C377.214 64.4949 320.071 0 320.071 0C320.071 0 262.929 64.4949 262.929 123.471C262.929 163.745 274.859 191.03 292.475 204.286H347.667Z" fill="#DBEAF0"/>
<path fill-rule="evenodd" clip-rule="evenodd" d="M347.193 204.286C353.409 210.75 357.214 220.095 357.214 232.167C357.214 257.403 320.071 285 320.071 285C320.071 285 282.929 257.403 282.929 232.167C282.929 220.095 286.734 210.75 292.949 204.286H347.193Z" fill="#FF4D00"/>
<path fill-rule="evenodd" clip-rule="evenodd" d="M338.073 204.286C342.198 208.919 344.724 215.618 344.724 224.271C344.724 242.361 320.071 262.143 320.071 262.143C320.071 262.143 295.419 242.361 295.419 224.271C295.419 215.618 297.945 208.919 302.07 204.286H338.073Z" fill="#FF8A00"/>
<path fill-rule="evenodd" clip-rule="evenodd" d="M331.406 204.286C334.003 207.203 335.593 211.421 335.593 216.869C335.593 228.259 320.072 240.714 320.072 240.714C320.072 240.714 304.55 228.259 304.55 216.869C304.55 211.421 306.14 207.203 308.737 204.286H331.406Z" fill="#FFC700"/>
<path fill-rule="evenodd" clip-rule="evenodd" d="M320.071 204.286V5.59806e-05C320.071 1.86638e-05 320.071 0 320.071 0C320.071 0 377.214 64.4949 377.214 123.471C377.214 163.745 365.284 191.03 347.667 204.286H320.071Z" fill="#B8D4E0"/>
<circle cx="320.071" cy="95.7143" r="32.8571" fill="white"/>
<circle cx="320.071" cy="95.7143" r="25.7143" fill="#05445E"/>
<path fill-rule="evenodd" clip-rule="evenodd" d="M315.371 121C316.895 121.281 318.466 121.429 320.071 121.429C334.273 121.429 345.786 109.916 345.786 95.7143C345.786 81.5127 334.273 70 320.071 70C320.048 70 320.024 70 320 70.0001V121H315.371Z" fill="#02202C"/>
<rect x="287.214" y="200" width="65.7143" height="8.57143" rx="4.28571" fill="white"/>
<path d="M328.643 174.658C328.643 199.906 320.071 234.286 320.071 234.286C320.071 234.286 311.5 199.906 311.5 174.658C311.5 149.411 315.338 142.857 320.071 142.857C324.805 142.857 328.643 149.411 328.643 174.658Z" fill="#26CFBD"/>
<path fill-rule="evenodd" clip-rule="evenodd" d="M320.071 234.286C320.071 234.286 328.643 199.906 328.643 174.658C328.643 149.411 324.805 142.857 320.071 142.857C319.678 142.857 319.291 142.902 318.911 143H320V233H319.76C319.959 233.835 320.071 234.286 320.071 234.286Z" fill="#1EA496"/>
<circle cx="268" cy="319" r="32" fill="#05445E"/>
<path d="M290.731 319.104H276.266V323.256H286.185C284.738 329.483 280.192 334.673 274.199 336.749L250.435 312.876C252.915 305.611 259.941 300.421 268 300.421C274.199 300.421 279.779 303.535 283.292 308.309L286.391 305.611C282.259 300.006 275.646 296.269 268 296.269C257.254 296.269 248.162 303.95 245.889 314.122L273.166 341.524C283.085 339.032 290.731 329.899 290.731 319.104ZM245.269 319.311C245.269 325.124 247.542 330.729 251.882 335.088C256.221 339.448 262.007 341.731 267.587 341.731L245.269 319.311Z" fill="white"/>
<g filter="url(#filter0_d)">
<circle cx="372" cy="319" r="32" fill="#189AB4"/>
<path fill-rule="evenodd" clip-rule="evenodd" d="M386.6 310.798C393.007 312.761 397.186 315.926 397.186 319.266C397.186 322.596 393.028 325.761 386.662 327.724C388.151 334.239 387.504 339.429 384.619 341.093C383.941 341.484 383.161 341.669 382.298 341.669C379.475 341.669 375.778 339.675 372.041 336.202C368.304 339.696 364.607 341.71 361.784 341.71C360.921 341.71 360.141 341.525 359.474 341.134C356.578 339.47 355.921 334.27 357.4 327.734C350.993 325.771 346.814 322.606 346.814 319.266C346.814 315.937 350.972 312.782 357.359 310.809C355.87 304.293 356.517 299.104 359.402 297.439C360.079 297.048 360.86 296.863 361.722 296.863V296.853C364.546 296.853 368.242 298.847 371.98 302.32C375.717 298.826 379.413 296.812 382.237 296.812V296.822C383.085 296.824 383.862 297.009 384.526 297.398C387.422 299.063 388.079 304.262 386.6 310.798ZM382.226 299.104C380.091 299.109 376.954 300.815 373.612 303.923C375.06 305.434 376.497 307.16 377.883 309.062C380.194 309.308 382.391 309.688 384.403 310.182C384.629 309.144 384.814 308.126 384.927 307.16C385.399 303.235 384.793 300.183 383.397 299.381C383.079 299.206 382.699 299.114 382.226 299.114V299.104ZM370.347 303.934C367 300.84 363.848 299.145 361.722 299.145V299.155C361.25 299.155 360.85 299.237 360.542 299.422C359.155 300.234 358.56 303.286 359.042 307.212C359.166 308.168 359.34 309.164 359.576 310.192C361.589 309.688 363.786 309.308 366.107 309.062C367.472 307.16 368.91 305.444 370.347 303.934ZM382.432 316.471C382.966 315.104 383.438 313.737 383.818 312.412C382.473 312.083 381.066 311.816 379.608 311.6C380.111 312.381 380.614 313.182 381.087 314.005C381.569 314.827 382.011 315.649 382.432 316.471ZM376.641 327.282C377.493 326.059 378.315 324.743 379.115 323.356C379.885 322.01 380.594 320.633 381.241 319.256C380.594 317.879 379.886 316.512 379.105 315.166C378.304 313.789 377.473 312.484 376.62 311.261C375.101 311.137 373.55 311.065 372 311.065C370.439 311.065 368.889 311.137 367.359 311.271C366.507 312.494 365.686 313.809 364.885 315.197C364.115 316.543 363.396 317.92 362.759 319.297C363.406 320.674 364.115 322.041 364.895 323.387C365.696 324.764 366.527 326.069 367.38 327.292C368.899 327.415 370.45 327.487 372 327.487C373.561 327.487 375.111 327.415 376.641 327.282ZM383.849 326.11C383.459 324.774 382.986 323.397 382.432 322.02C382.011 322.842 381.569 323.675 381.097 324.497C380.625 325.329 380.122 326.141 379.619 326.932C381.087 326.717 382.504 326.439 383.849 326.11ZM369.166 329.697C370.111 330.899 371.066 331.999 372.021 332.985C372.965 331.999 373.92 330.899 374.844 329.697C373.91 329.748 372.955 329.769 371.99 329.769C371.035 329.769 370.09 329.738 369.166 329.697ZM360.172 326.121C361.517 326.449 362.924 326.717 364.382 326.932C363.878 326.151 363.386 325.35 362.903 324.528C362.42 323.706 361.979 322.883 361.558 322.061C361.024 323.428 360.552 324.795 360.172 326.121ZM374.824 308.835C373.879 307.633 372.924 306.534 371.969 305.547C371.025 306.534 370.07 307.633 369.146 308.835C370.08 308.784 371.035 308.764 372 308.764C372.955 308.764 373.9 308.794 374.824 308.835ZM362.893 314.035C363.365 313.203 363.868 312.391 364.371 311.6C362.903 311.816 361.486 312.093 360.141 312.412C360.531 313.748 361.004 315.125 361.558 316.502C361.979 315.68 362.42 314.857 362.893 314.035ZM349.093 319.266C349.093 320.88 351.444 322.914 355.079 324.466C355.972 324.846 356.938 325.196 357.954 325.514C358.529 323.51 359.289 321.424 360.233 319.287C359.279 317.139 358.509 315.042 357.923 313.028C356.927 313.347 355.962 313.686 355.079 314.066C351.444 315.608 349.093 317.653 349.093 319.266ZM359.073 331.372C358.601 335.297 359.207 338.35 360.603 339.151C360.911 339.326 361.301 339.418 361.763 339.429C363.899 339.429 367.041 337.723 370.388 334.609C368.94 333.098 367.503 331.372 366.117 329.471C363.807 329.224 361.609 328.844 359.597 328.351C359.371 329.388 359.186 330.406 359.073 331.372ZM383.459 339.11C384.845 338.298 385.44 335.246 384.958 331.32C384.845 330.365 384.66 329.368 384.424 328.33C382.411 328.833 380.214 329.214 377.894 329.46C376.528 331.362 375.091 333.078 373.653 334.588C377 337.682 380.152 339.377 382.278 339.377C382.75 339.377 383.151 339.295 383.459 339.11ZM386.067 325.504C387.062 325.185 388.028 324.846 388.911 324.466C392.545 322.925 394.897 320.88 394.907 319.266C394.907 317.653 392.556 315.618 388.921 314.066C388.017 313.686 387.052 313.337 386.036 313.018C385.461 315.022 384.701 317.108 383.756 319.246C384.711 321.393 385.481 323.49 386.067 325.504ZM376.682 319.267C376.682 321.86 374.581 323.963 371.99 323.963C369.399 323.963 367.298 321.86 367.298 319.267C367.298 316.673 369.399 314.57 371.99 314.57C374.581 314.57 376.682 316.673 376.682 319.267Z" fill="white"/>
</g>
</g>
<defs>
<filter id="filter0_d" x="292" y="263" width="160" height="160" filterUnits="userSpaceOnUse" color-interpolation-filters="sRGB">
<feFlood flood-opacity="0" result="BackgroundImageFix"/>
<feColorMatrix in="SourceAlpha" type="matrix" values="0 0 0 0 0 0 0 0 0 0 0 0 0 0 0 0 0 0 127 0"/>
<feOffset dy="24"/>
<feGaussianBlur stdDeviation="24"/>
<feColorMatrix type="matrix" values="0 0 0 0 0.0941176 0 0 0 0 0.603922 0 0 0 0 0.705882 0 0 0 0.2 0"/>
<feBlend mode="normal" in2="BackgroundImageFix" result="effect1_dropShadow"/>
<feBlend mode="normal" in="SourceGraphic" in2="effect1_dropShadow" result="shape"/>
</filter>
<clipPath id="clip0">
<rect width="640" height="470" fill="white"/>
</clipPath>
</defs>
</svg>
