<svg width="155" height="40" viewBox="0 0 155 40" fill="none" xmlns="http://www.w3.org/2000/svg">
    <path d="M55.172 11.6C56.6533 11.6 57.9 12.0987 58.912 13.096C59.924 14.0933 60.43 15.318 60.43 16.77C60.43 18.222 59.924 19.4467 58.912 20.444C57.9 21.4413 56.6533 21.94 55.172 21.94H52.466V27H49.43V11.6H55.172ZM55.172 19.102C55.8173 19.102 56.3527 18.882 56.778 18.442C57.2033 17.9873 57.416 17.43 57.416 16.77C57.416 16.0953 57.2033 15.538 56.778 15.098C56.3527 14.658 55.8173 14.438 55.172 14.438H52.466V19.102H55.172ZM69.9041 16H72.7421V27H69.9041V25.702C69.0534 26.7727 67.8581 27.308 66.3181 27.308C64.8514 27.308 63.5901 26.7507 62.5341 25.636C61.4928 24.5067 60.9721 23.128 60.9721 21.5C60.9721 19.872 61.4928 18.5007 62.5341 17.386C63.5901 16.2567 64.8514 15.692 66.3181 15.692C67.8581 15.692 69.0534 16.2273 69.9041 17.298V16ZM64.6681 23.744C65.2401 24.316 65.9661 24.602 66.8461 24.602C67.7261 24.602 68.4521 24.316 69.0241 23.744C69.6108 23.1573 69.9041 22.4093 69.9041 21.5C69.9041 20.5907 69.6108 19.85 69.0241 19.278C68.4521 18.6913 67.7261 18.398 66.8461 18.398C65.9661 18.398 65.2401 18.6913 64.6681 19.278C64.0961 19.85 63.8101 20.5907 63.8101 21.5C63.8101 22.4093 64.0961 23.1573 64.6681 23.744ZM83.7416 16H86.5136V26.472C86.5136 28.1733 85.9489 29.4713 84.8196 30.366C83.7049 31.2607 82.3556 31.708 80.7716 31.708C79.5836 31.708 78.5349 31.4807 77.6256 31.026C76.7309 30.5713 76.0416 29.904 75.5576 29.024L77.9776 27.638C78.5349 28.6647 79.4956 29.178 80.8596 29.178C81.7542 29.178 82.4582 28.9433 82.9716 28.474C83.4849 28.0047 83.7416 27.3373 83.7416 26.472V25.284C82.9056 26.3987 81.7322 26.956 80.2216 26.956C78.6669 26.956 77.3616 26.4133 76.3056 25.328C75.2642 24.228 74.7436 22.8933 74.7436 21.324C74.7436 19.7693 75.2716 18.442 76.3276 17.342C77.3836 16.242 78.6816 15.692 80.2216 15.692C81.7322 15.692 82.9056 16.2493 83.7416 17.364V16ZM78.4396 23.502C79.0262 24.0593 79.7669 24.338 80.6616 24.338C81.5562 24.338 82.2896 24.0593 82.8616 23.502C83.4482 22.93 83.7416 22.204 83.7416 21.324C83.7416 20.4587 83.4482 19.7473 82.8616 19.19C82.2896 18.618 81.5562 18.332 80.6616 18.332C79.7669 18.332 79.0262 18.618 78.4396 19.19C77.8676 19.7473 77.5816 20.4587 77.5816 21.324C77.5816 22.204 77.8676 22.93 78.4396 23.502ZM91.4851 22.666C91.8664 24.0447 92.9004 24.734 94.5871 24.734C95.6724 24.734 96.4937 24.3673 97.0511 23.634L99.3391 24.954C98.2537 26.5233 96.6551 27.308 94.5431 27.308C92.7244 27.308 91.2651 26.758 90.1651 25.658C89.0651 24.558 88.5151 23.172 88.5151 21.5C88.5151 19.8427 89.0577 18.464 90.1431 17.364C91.2284 16.2493 92.6217 15.692 94.3231 15.692C95.9364 15.692 97.2637 16.2493 98.3051 17.364C99.3611 18.4787 99.8891 19.8573 99.8891 21.5C99.8891 21.8667 99.8524 22.2553 99.7791 22.666H91.4851ZM91.4411 20.466H97.0511C96.8897 19.718 96.5524 19.1607 96.0391 18.794C95.5404 18.4273 94.9684 18.244 94.3231 18.244C93.5604 18.244 92.9297 18.442 92.4311 18.838C91.9324 19.2193 91.6024 19.762 91.4411 20.466ZM104.708 17.892C104.972 17.188 105.405 16.66 106.006 16.308C106.622 15.956 107.304 15.78 108.052 15.78V18.948C107.187 18.8453 106.41 19.0213 105.72 19.476C105.046 19.9307 104.708 20.686 104.708 21.742V27H101.87V16H104.708V17.892ZM109.712 27V10.94H112.55V27H109.712ZM123.508 16H126.346V27H123.508V25.702C122.657 26.7727 121.462 27.308 119.922 27.308C118.455 27.308 117.194 26.7507 116.138 25.636C115.096 24.5067 114.576 23.128 114.576 21.5C114.576 19.872 115.096 18.5007 116.138 17.386C117.194 16.2567 118.455 15.692 119.922 15.692C121.462 15.692 122.657 16.2273 123.508 17.298V16ZM118.272 23.744C118.844 24.316 119.57 24.602 120.45 24.602C121.33 24.602 122.056 24.316 122.628 23.744C123.214 23.1573 123.508 22.4093 123.508 21.5C123.508 20.5907 123.214 19.85 122.628 19.278C122.056 18.6913 121.33 18.398 120.45 18.398C119.57 18.398 118.844 18.6913 118.272 19.278C117.7 19.85 117.414 20.5907 117.414 21.5C117.414 22.4093 117.7 23.1573 118.272 23.744ZM135.035 15.692C136.238 15.692 137.228 16.0953 138.005 16.902C138.797 17.7087 139.193 18.8233 139.193 20.246V27H136.355V20.598C136.355 19.8647 136.157 19.3073 135.761 18.926C135.365 18.53 134.837 18.332 134.177 18.332C133.444 18.332 132.857 18.5593 132.417 19.014C131.977 19.4687 131.757 20.1507 131.757 21.06V27H128.919V16H131.757V17.232C132.446 16.2053 133.539 15.692 135.035 15.692ZM149.954 11.6H152.792V27H149.954V25.702C149.118 26.7727 147.93 27.308 146.39 27.308C144.909 27.308 143.64 26.7507 142.584 25.636C141.543 24.5067 141.022 23.128 141.022 21.5C141.022 19.872 141.543 18.5007 142.584 17.386C143.64 16.2567 144.909 15.692 146.39 15.692C147.93 15.692 149.118 16.2273 149.954 17.298V11.6ZM144.718 23.744C145.305 24.316 146.038 24.602 146.918 24.602C147.798 24.602 148.524 24.316 149.096 23.744C149.668 23.1573 149.954 22.4093 149.954 21.5C149.954 20.5907 149.668 19.85 149.096 19.278C148.524 18.6913 147.798 18.398 146.918 18.398C146.038 18.398 145.305 18.6913 144.718 19.278C144.146 19.85 143.86 20.5907 143.86 21.5C143.86 22.4093 144.146 23.1573 144.718 23.744Z" fill="#05445E"/>
    <path d="M25.61 7.62337C25.61 11.8336 19.4636 20.4878 19.4636 20.4878C19.4636 20.4878 13.3172 11.8336 13.3172 7.62337C13.3172 3.4131 16.0691 0 19.4636 0C22.8582 0 25.61 3.4131 25.61 7.62337Z" fill="#189AB4"/>
    <path d="M14.3416 34.1917C14.3416 30.9839 18.9514 24.3902 18.9514 24.3902C18.9514 24.3902 23.5612 30.9839 23.5612 34.1917C23.5612 37.3995 21.4974 40 18.9514 40C16.4055 40 14.3416 37.3995 14.3416 34.1917Z" fill="#189AB4"/>
    <path d="M31.8688 21.2307C28.9875 22.815 20.7521 22.2564 20.7521 22.2564C20.7521 22.2564 24.3618 15.1847 27.2431 13.6004C30.1244 12.0161 33.4957 12.4398 34.7731 14.5469C36.0504 16.654 34.7502 19.6464 31.8688 21.2307Z" fill="#05445E"/>
    <path d="M5.38792 25.4871C8.36358 23.851 16.8686 24.4279 16.8686 24.4279C16.8686 24.4279 13.1407 31.7311 10.1651 33.3673C7.18942 35.0035 3.70777 34.5658 2.3886 32.3898C1.06942 30.2137 2.41226 27.1233 5.38792 25.4871Z" fill="#05445E"/>
    <path d="M28.4598 34.134C25.0816 32.2765 20.8495 23.9853 20.8495 23.9853C20.8495 23.9853 30.505 23.3303 33.8832 25.1878C37.2614 27.0453 38.7859 30.5538 37.2883 33.0242C35.7907 35.4947 31.838 35.9915 28.4598 34.134Z" fill="#26CFBD"/>
    <path d="M11.7312 14.2306C14.2657 15.6242 17.4408 21.8447 17.4408 21.8447C17.4408 21.8447 10.1968 22.3361 7.66228 20.9425C5.12779 19.5489 3.98403 16.9167 5.10763 15.0633C6.23123 13.2098 9.19669 12.837 11.7312 14.2306Z" fill="#26CFBD"/>
</svg>
