<svg width="48" height="48" viewBox="0 0 48 48" fill="none" xmlns="http://www.w3.org/2000/svg">
    <path d="M29.32 16.127C28.8365 15.8586 27.4505 16.0246 25.7858 16.5399C22.8723 18.5313 20.4134 21.4653 20.2418 26.1767C20.2106 26.2893 19.9232 26.1614 19.8664 26.1265C19.0796 24.6186 18.7679 23.0307 19.4249 20.7401C19.5473 20.5363 19.147 20.2853 19.075 20.357C18.9308 20.5014 18.3297 21.1418 17.9305 21.8342C15.9516 25.2671 17.2457 29.6657 20.7079 31.5906C24.1694 33.5186 28.5405 32.2749 30.4679 28.8124C32.6976 24.816 30.6272 16.8571 29.3201 16.1271L29.32 16.127Z" fill="#26CFBD"/>
</svg>
