<svg width="161" height="128" viewBox="0 0 161 128" fill="none" xmlns="http://www.w3.org/2000/svg">
<path fill-rule="evenodd" clip-rule="evenodd" d="M156.882 31.7515H80.4265V54.2735C105.528 57.2707 136.535 50.2012 147.83 45.8055C158.734 41.5594 165.514 34.399 156.882 31.7515Z" fill="#BDC0C2"/>
<path fill-rule="evenodd" clip-rule="evenodd" d="M3.92254 31.7515H80.3779V54.2735C55.2768 57.2707 24.2698 50.2012 12.9745 45.8055C2.06993 41.5594 -4.70948 34.399 3.92254 31.7515Z" fill="#E4E6E7"/>
<path fill-rule="evenodd" clip-rule="evenodd" d="M116.731 90.5911H80.4265V101.284C92.3461 102.709 107.068 99.3501 112.433 97.2624C117.611 95.2495 120.829 91.8461 116.731 90.5911Z" fill="#D7D9DA"/>
<path fill-rule="evenodd" clip-rule="evenodd" d="M44.1725 90.5911H80.4768V101.284C68.5573 102.709 53.833 99.3501 48.4705 97.2624C43.2922 95.2495 40.0743 91.8461 44.1725 90.5911Z" fill="#E4E6E7"/>
<path d="M26.7539 24.646H25.1641V29.6541H26.7539V24.646Z" fill="#126F87"/>
<path d="M28.3575 24.646H26.7676V29.6541H28.3575V24.646Z" fill="#0C4B5B"/>
<path fill-rule="evenodd" clip-rule="evenodd" d="M25.2051 23.7576H13.281C12.6253 23.7576 12.0886 24.2406 12.0886 24.8308C12.0886 25.421 12.6253 25.9041 13.281 25.9041H25.2051C25.863 25.9041 26.3997 25.421 26.3997 24.8308C26.3997 24.2406 25.863 23.7576 25.2051 23.7576Z" fill="#126F87"/>
<path fill-rule="evenodd" clip-rule="evenodd" d="M39.8863 23.7576H27.9622C27.3065 23.7576 26.7676 24.2406 26.7676 24.8308C26.7676 25.421 27.3065 25.9041 27.9622 25.9041H39.8863C40.542 25.9041 41.0787 25.421 41.0787 24.8308C41.0787 24.2406 40.542 23.7576 39.8863 23.7576Z" fill="#0C4B5B"/>
<path fill-rule="evenodd" clip-rule="evenodd" d="M30.7883 26.6758C30.7883 24.3273 28.9491 22.4255 26.6789 22.4255C24.4131 22.4255 22.574 24.3273 22.574 26.6758H30.7883Z" fill="#126F87"/>
<path fill-rule="evenodd" clip-rule="evenodd" d="M26.7676 26.6758V22.4255C29.0379 22.4255 30.877 24.3273 30.877 26.6758H26.7676Z" fill="#0C4B5B"/>
<path d="M133.948 24.646H132.359V29.6541H133.948V24.646Z" fill="#126F87"/>
<path d="M135.552 24.646H133.962V29.6541H135.552V24.646Z" fill="#0C4B5B"/>
<path fill-rule="evenodd" clip-rule="evenodd" d="M132.523 23.7576H120.599C119.943 23.7576 119.406 24.2406 119.406 24.8308C119.406 25.421 119.943 25.9041 120.599 25.9041H132.523C133.178 25.9041 133.715 25.421 133.715 24.8308C133.715 24.2406 133.178 23.7576 132.523 23.7576Z" fill="#126F87"/>
<path fill-rule="evenodd" clip-rule="evenodd" d="M147.081 23.7576H135.154C134.499 23.7576 133.962 24.2406 133.962 24.8308C133.962 25.421 134.499 25.9041 135.154 25.9041H147.081C147.736 25.9041 148.273 25.421 148.273 24.8308C148.273 24.2406 147.736 23.7576 147.081 23.7576Z" fill="#0C4B5B"/>
<path fill-rule="evenodd" clip-rule="evenodd" d="M138.105 26.6758C138.105 24.3273 136.266 22.4255 133.998 22.4255C131.73 22.4255 129.891 24.3273 129.891 26.6758H138.105Z" fill="#126F87"/>
<path fill-rule="evenodd" clip-rule="evenodd" d="M133.962 26.6758V22.4255C136.23 22.4255 138.069 24.3273 138.069 26.6758H133.962Z" fill="#0C4B5B"/>
<path d="M50.2701 87.9268H48.3546V101.32H50.2701V87.9268Z" fill="#75C3B9"/>
<path d="M52.1206 87.9268H50.2051V101.32H52.1206V87.9268Z" fill="#51B3A7"/>
<path d="M107.753 87.9268H105.837V101.32H107.753V87.9268Z" fill="#75C3B9"/>
<path d="M109.603 87.9268H107.688V101.32H109.603V87.9268Z" fill="#51B3A7"/>
<path fill-rule="evenodd" clip-rule="evenodd" d="M80.4597 0V127.323C75.223 127.323 69.2094 68.1712 68.3448 62.866C63.9682 36.049 65.7489 19.3634 70.9407 5.83672C72.1398 2.71222 75.223 0 80.4597 0Z" fill="#ECEDEE"/>
<path fill-rule="evenodd" clip-rule="evenodd" d="M80.4265 0V127.323C85.661 127.323 91.6769 68.1712 92.5415 62.866C96.9159 36.049 95.1374 19.3634 89.9456 5.83672C88.7464 2.71222 85.661 0 80.4265 0Z" fill="#D7D9DA"/>
<path fill-rule="evenodd" clip-rule="evenodd" d="M31.607 29.0867V53.7554C31.607 56.2352 29.3524 58.2664 26.5971 58.2664C23.8417 58.2664 21.5872 56.2373 21.5872 53.7554V29.0867H31.607Z" fill="#F24F28"/>
<path fill-rule="evenodd" clip-rule="evenodd" d="M26.6689 58.2644L26.5971 58.2664C23.8417 58.2664 21.5872 56.2373 21.5872 53.7554V29.0867H26.6689V58.2644Z" fill="#F57557"/>
<path fill-rule="evenodd" clip-rule="evenodd" d="M138.927 29.0867V53.7554C138.927 56.2352 136.672 58.2664 133.917 58.2664C131.159 58.2664 128.905 56.2373 128.905 53.7554V29.0867H138.927Z" fill="#F24F28"/>
<path fill-rule="evenodd" clip-rule="evenodd" d="M133.989 58.2644L133.917 58.2664C131.159 58.2664 128.905 56.2373 128.905 53.7554V29.0867H133.989V58.2644Z" fill="#F57557"/>
<path fill-rule="evenodd" clip-rule="evenodd" d="M80.3773 16.4307C86.4808 16.4307 91.4301 20.885 91.4301 26.3782C91.4301 27.4049 91.255 28.3952 90.9361 29.3269C89.5393 25.2747 85.3401 22.3301 80.3773 22.3301C75.4146 22.3301 71.2154 25.2747 69.8186 29.3269C69.4975 28.3952 69.3246 27.4049 69.3246 26.3782C69.3246 20.885 74.2716 16.4307 80.3773 16.4307Z" fill="#126F87"/>
<path fill-rule="evenodd" clip-rule="evenodd" d="M80.4265 22.3281V16.4307C86.53 16.4307 91.4793 20.883 91.4793 26.3762C91.4793 27.4029 91.3041 28.3932 90.9853 29.325C89.5885 25.2728 85.3893 22.3281 80.4265 22.3281Z" fill="#0C4B5B"/>
</svg>
