<svg width="107" height="133" viewBox="0 0 107 133" fill="none" xmlns="http://www.w3.org/2000/svg">
<path d="M44.9114 114.126H43.5439V121.964H44.9114V114.126Z" fill="#126F87"/>
<path d="M63.291 114.126H61.9235V121.964H63.291V114.126Z" fill="#0C4B5B"/>
<path fill-rule="evenodd" clip-rule="evenodd" d="M42.8923 121.454H55.3822V132.887H42.8923C42.3691 132.887 41.9402 132.499 41.9402 132.028V122.311C41.9402 121.84 42.3691 121.454 42.8923 121.454Z" fill="#126F87"/>
<path fill-rule="evenodd" clip-rule="evenodd" d="M64.0092 121.454H53.4124V132.887H64.0092C64.5347 132.887 64.9614 132.499 64.9614 132.028V122.311C64.9614 121.84 64.5347 121.454 64.0092 121.454Z" fill="#0C4B5B"/>
<path fill-rule="evenodd" clip-rule="evenodd" d="M53.4124 0C80.2381 0 106.035 13.6742 106.837 38.8522C107.574 62.0656 83.6671 82.7205 75.2372 97.1587H53.4124V0Z" fill="#F89D87"/>
<path fill-rule="evenodd" clip-rule="evenodd" d="M53.4124 0C73.1578 0 99.7074 14.7474 98.3196 40.4023C97.2013 61.0592 82.5623 77.4578 69.484 97.1587H53.4124V0Z" fill="#F24F28"/>
<path fill-rule="evenodd" clip-rule="evenodd" d="M53.4124 0C67.4473 0 86.3214 14.7474 85.3334 40.4023C84.5407 61.0592 74.1324 77.4578 64.8334 97.1587H53.4124V0Z" fill="#F89D87"/>
<path fill-rule="evenodd" clip-rule="evenodd" d="M53.4124 0C61.465 0 72.2865 14.7474 71.7206 40.4023C71.2647 61.0592 65.2938 77.4578 59.9605 97.1587H53.4124V0Z" fill="#F24F28"/>
<path fill-rule="evenodd" clip-rule="evenodd" d="M53.437 0C26.618 0 0.816273 13.6742 0.0168457 38.8522C-0.724196 62.0656 23.1868 82.7205 31.6144 97.1587H53.437V0Z" fill="#FBC4B7"/>
<path fill-rule="evenodd" clip-rule="evenodd" d="M53.4663 0C33.7209 0 7.17363 14.7474 8.56365 40.4023C9.67746 61.0592 24.3232 77.4578 37.4014 97.1587H53.4663V0Z" fill="#F57557"/>
<path fill-rule="evenodd" clip-rule="evenodd" d="M53.417 0C39.3821 0 20.5148 14.7474 21.5006 40.4023C22.2955 61.0592 32.6993 77.4578 41.996 97.1587H53.417V0Z" fill="#FBC4B7"/>
<path fill-rule="evenodd" clip-rule="evenodd" d="M53.4783 0C45.4302 0 34.6109 14.7474 35.1768 40.4023C35.6327 61.0592 41.597 77.4578 46.9302 97.1587H53.4783V0Z" fill="#F57557"/>
<path fill-rule="evenodd" clip-rule="evenodd" d="M53.3879 97.2522H31.4553L41.4818 114.875H53.3879V97.2522Z" fill="#75C3B9"/>
<path fill-rule="evenodd" clip-rule="evenodd" d="M53.4124 97.2522H75.3518L65.3252 114.875H53.4124V97.2522Z" fill="#51B3A7"/>
</svg>
