<svg width="96" height="128" viewBox="0 0 96 128" fill="none" xmlns="http://www.w3.org/2000/svg">
<path fill-rule="evenodd" clip-rule="evenodd" d="M76.2106 79.489L95.262 97.4478L87.8853 127.347L77.8633 126.698L81.2587 102.545L74.1357 97.4498L76.2106 79.489Z" fill="#F24F28"/>
<path fill-rule="evenodd" clip-rule="evenodd" d="M19.0493 79.489L0 97.4478L7.37448 127.347L17.3965 126.698L14.0012 102.545L21.1241 97.4498L19.0493 79.489Z" fill="#F57557"/>
<path fill-rule="evenodd" clip-rule="evenodd" d="M47.2117 108.699H22.8246C11.4036 67.5487 22.0835 16.5138 47.2117 0V108.699Z" fill="#E4E6E7"/>
<path fill-rule="evenodd" clip-rule="evenodd" d="M47.2441 108.699H71.6333C83.0498 67.5487 72.3744 16.5138 47.2441 0V108.699Z" fill="#D7D9DA"/>
<path fill-rule="evenodd" clip-rule="evenodd" d="M21.5689 103.349C20.765 99.8103 20.1116 96.2169 19.613 92.5891H47.301V103.349H21.5689Z" fill="#75C3B9"/>
<path fill-rule="evenodd" clip-rule="evenodd" d="M72.9763 103.349C73.778 99.8103 74.4315 96.2169 74.9323 92.5891H47.2441V103.349H72.9763Z" fill="#51B3A7"/>
<path fill-rule="evenodd" clip-rule="evenodd" d="M21.0343 100.826C20.6413 98.9064 20.2888 96.9742 19.9834 95.032H47.3033V100.826H21.0343Z" fill="#BCE2DD"/>
<path fill-rule="evenodd" clip-rule="evenodd" d="M73.5153 100.826C73.9105 98.9064 74.2608 96.9742 74.564 95.032H47.2441V100.826H73.5153Z" fill="#98D2CB"/>
<path fill-rule="evenodd" clip-rule="evenodd" d="M47.2893 15.7661H32.6885C36.7755 9.1169 41.6708 3.69446 47.2893 0V15.7661Z" fill="#F57557"/>
<path fill-rule="evenodd" clip-rule="evenodd" d="M61.8494 15.7661H47.2441V0C52.8626 3.69446 57.7557 9.1169 61.8494 15.7661Z" fill="#F24F28"/>
<path fill-rule="evenodd" clip-rule="evenodd" d="M47.2468 75.2717C58.3916 75.2717 67.4795 67.0926 67.4795 57.0642C67.4795 47.0358 58.3916 38.8567 47.2468 38.8567C36.1065 38.8567 27.0142 47.0358 27.0142 57.0642C27.0142 67.0926 36.1065 75.2717 47.2468 75.2717Z" fill="#75C3B9"/>
<path fill-rule="evenodd" clip-rule="evenodd" d="M47.2441 38.8567C58.4181 38.8567 67.4768 47.0075 67.4768 57.0642C67.4768 67.1189 58.4181 75.2717 47.2441 75.2717V38.8567Z" fill="#51B3A7"/>
<path fill-rule="evenodd" clip-rule="evenodd" d="M47.2656 72.6423C56.7218 72.6423 64.4309 65.7021 64.4309 57.1936C64.4309 48.6831 56.7218 41.7429 47.2656 41.7429C37.814 41.7429 30.0981 48.6831 30.0981 57.1936C30.0981 65.7021 37.814 72.6423 47.2656 72.6423Z" fill="#126F87"/>
<path fill-rule="evenodd" clip-rule="evenodd" d="M47.2441 41.7429C56.7249 41.7429 64.4093 48.6609 64.4093 57.1936C64.4093 65.7264 56.7249 72.6423 47.2441 72.6423V41.7429Z" fill="#0C4B5B"/>
<path d="M47.1902 79.2673H43.9138V126.994H47.1902V79.2673Z" fill="#F57557"/>
<path d="M50.5206 79.2673H47.2441V126.994H50.5206V79.2673Z" fill="#F24F28"/>
</svg>
