<svg width="242" height="172" viewBox="0 0 242 172" fill="none" xmlns="http://www.w3.org/2000/svg">
  <path d="M148.551 108.45C148.086 107.981 147.533 107.609 146.924 107.356C146.314 107.102 145.661 106.971 145.001 106.971C144.341 106.971 143.687 107.102 143.078 107.356C142.469 107.609 141.916 107.981 141.451 108.45L125.001 124.95V87C125.001 85.6739 124.474 84.4021 123.536 83.4645C122.599 82.5268 121.327 82 120.001 82C118.675 82 117.403 82.5268 116.465 83.4645C115.528 84.4021 115.001 85.6739 115.001 87V124.95L98.5507 108.45C97.6092 107.508 96.3323 106.98 95.0007 106.98C93.6692 106.98 92.3923 107.508 91.4507 108.45C90.5092 109.392 89.9803 110.668 89.9803 112C89.9803 113.332 90.5092 114.608 91.4507 115.55L116.451 140.55C116.926 141.005 117.487 141.362 118.101 141.6C118.699 141.865 119.346 142.001 120.001 142.001C120.655 142.001 121.302 141.865 121.901 141.6C122.515 141.362 123.075 141.005 123.551 140.55L148.551 115.55C149.019 115.085 149.391 114.532 149.645 113.923C149.899 113.314 150.03 112.66 150.03 112C150.03 111.34 149.899 110.686 149.645 110.077C149.391 109.468 149.019 108.915 148.551 108.45Z" fill="#2BD7B8" />
  <path d="M44.2753 73.225C44.0429 72.9907 43.7664 72.8047 43.4617 72.6778C43.1571 72.5509 42.8303 72.4855 42.5003 72.4855C42.1702 72.4855 41.8435 72.5509 41.5388 72.6778C41.2342 72.8047 40.9577 72.9907 40.7253 73.225L32.5003 81.475V62.5C32.5003 61.837 32.2369 61.2011 31.768 60.7322C31.2992 60.2634 30.6633 60 30.0003 60C29.3372 60 28.7014 60.2634 28.2325 60.7322C27.7637 61.2011 27.5003 61.837 27.5003 62.5V81.475L19.2753 73.225C18.8045 72.7542 18.166 72.4898 17.5003 72.4898C16.8345 72.4898 16.196 72.7542 15.7253 73.225C15.2545 73.6958 14.9901 74.3342 14.9901 75C14.9901 75.6658 15.2545 76.3042 15.7253 76.775L28.2253 89.275C28.463 89.5026 28.7434 89.681 29.0503 89.8C29.3495 89.9323 29.6731 90.0006 30.0003 90.0006C30.3275 90.0006 30.651 89.9323 30.9503 89.8C31.2572 89.681 31.5375 89.5026 31.7753 89.275L44.2753 76.775C44.5096 76.5426 44.6956 76.2661 44.8225 75.9614C44.9494 75.6568 45.0148 75.33 45.0148 75C45.0148 74.67 44.9494 74.3432 44.8225 74.0386C44.6956 73.7339 44.5096 73.4574 44.2753 73.225Z" fill="#2D5D7C" />
  <path d="M94.1375 29.1125C94.0213 28.9953 93.8831 28.9023 93.7308 28.8389C93.5784 28.7754 93.4151 28.7428 93.25 28.7428C93.085 28.7428 92.9216 28.7754 92.7693 28.8389C92.617 28.9023 92.4788 28.9953 92.3625 29.1125L88.25 33.2375V23.75C88.25 23.4185 88.1183 23.1005 87.8839 22.8661C87.6495 22.6317 87.3316 22.5 87 22.5C86.6685 22.5 86.3506 22.6317 86.1162 22.8661C85.8817 23.1005 85.75 23.4185 85.75 23.75V33.2375L81.6375 29.1125C81.4022 28.8771 81.0829 28.7449 80.75 28.7449C80.4172 28.7449 80.0979 28.8771 79.8625 29.1125C79.6272 29.3479 79.4949 29.6671 79.4949 30C79.4949 30.3329 79.6272 30.6521 79.8625 30.8875L86.1125 37.1375C86.2314 37.2513 86.3716 37.3405 86.525 37.4C86.6747 37.4661 86.8365 37.5003 87 37.5003C87.1636 37.5003 87.3254 37.4661 87.475 37.4C87.6285 37.3405 87.7687 37.2513 87.8875 37.1375L94.1375 30.8875C94.2547 30.7713 94.3477 30.633 94.4112 30.4807C94.4746 30.3284 94.5073 30.165 94.5073 30C94.5073 29.835 94.4746 29.6716 94.4112 29.5193C94.3477 29.367 94.2547 29.2287 94.1375 29.1125Z" fill="#EF5939" />
  <path d="M229.138 111.113C229.021 110.995 228.883 110.902 228.731 110.839C228.578 110.775 228.415 110.743 228.25 110.743C228.085 110.743 227.922 110.775 227.769 110.839C227.617 110.902 227.479 110.995 227.363 111.113L223.25 115.238V105.75C223.25 105.418 223.118 105.101 222.884 104.866C222.65 104.632 222.332 104.5 222 104.5C221.669 104.5 221.351 104.632 221.116 104.866C220.882 105.101 220.75 105.418 220.75 105.75V115.238L216.638 111.113C216.402 110.877 216.083 110.745 215.75 110.745C215.417 110.745 215.098 110.877 214.863 111.113C214.627 111.348 214.495 111.667 214.495 112C214.495 112.333 214.627 112.652 214.863 112.888L221.113 119.137C221.231 119.251 221.372 119.341 221.525 119.4C221.675 119.466 221.836 119.5 222 119.5C222.164 119.5 222.325 119.466 222.475 119.4C222.628 119.341 222.769 119.251 222.888 119.137L229.138 112.888C229.255 112.771 229.348 112.633 229.411 112.481C229.475 112.328 229.507 112.165 229.507 112C229.507 111.835 229.475 111.672 229.411 111.519C229.348 111.367 229.255 111.229 229.138 111.113Z" fill="#DDE4E8" />
  <path d="M218.413 42.3375C218.064 41.986 217.65 41.707 217.193 41.5167C216.736 41.3263 216.246 41.2283 215.751 41.2283C215.255 41.2283 214.765 41.3263 214.308 41.5167C213.851 41.707 213.437 41.986 213.088 42.3375L200.751 54.7125V26.25C200.751 25.2554 200.355 24.3016 199.652 23.5984C198.949 22.8951 197.995 22.5 197.001 22.5C196.006 22.5 195.052 22.8951 194.349 23.5984C193.646 24.3016 193.251 25.2554 193.251 26.25V54.7125L180.913 42.3375C180.207 41.6314 179.249 41.2347 178.251 41.2347C177.252 41.2347 176.294 41.6314 175.588 42.3375C174.882 43.0436 174.485 44.0014 174.485 45C174.485 45.9986 174.882 46.9564 175.588 47.6625L194.338 66.4125C194.695 66.7539 195.115 67.0215 195.576 67.2C196.024 67.3984 196.51 67.5009 197.001 67.5009C197.491 67.5009 197.977 67.3984 198.426 67.2C198.886 67.0215 199.306 66.7539 199.663 66.4125L218.413 47.6625C218.764 47.3139 219.043 46.8991 219.234 46.4422C219.424 45.9852 219.522 45.495 219.522 45C219.522 44.505 219.424 44.0148 219.234 43.5578C219.043 43.1009 218.764 42.6861 218.413 42.3375Z" fill="#33B9E3" />
</svg>
