<svg width="190" height="142" viewBox="0 0 190 142" fill="none" xmlns="http://www.w3.org/2000/svg">
  <path d="M111.25 59.5H58.75C55.7663 59.5 52.9048 60.6853 50.795 62.795C48.6853 64.9048 47.5 67.7663 47.5 70.75V108.25C47.5 111.234 48.6853 114.095 50.795 116.205C52.9048 118.315 55.7663 119.5 58.75 119.5H102.213L116.088 133.412C116.438 133.76 116.853 134.035 117.31 134.222C117.767 134.408 118.256 134.503 118.75 134.5C119.242 134.513 119.73 134.41 120.175 134.2C120.86 133.919 121.446 133.441 121.86 132.827C122.274 132.213 122.496 131.49 122.5 130.75V70.75C122.5 67.7663 121.315 64.9048 119.205 62.795C117.095 60.6853 114.234 59.5 111.25 59.5ZM115 121.713L106.412 113.088C106.062 112.74 105.647 112.465 105.19 112.278C104.733 112.092 104.244 111.997 103.75 112H58.75C57.7554 112 56.8016 111.605 56.0984 110.902C55.3951 110.198 55 109.245 55 108.25V70.75C55 69.7554 55.3951 68.8016 56.0984 68.0984C56.8016 67.3951 57.7554 67 58.75 67H111.25C112.245 67 113.198 67.3951 113.902 68.0984C114.605 68.8016 115 69.7554 115 70.75V121.713Z" fill="#2BD7B8" />
  <path d="M31.6667 18.3333H8.33334C7.00725 18.3333 5.73548 18.86 4.7978 19.7977C3.86012 20.7354 3.33334 22.0072 3.33334 23.3333V39.9999C3.33334 41.326 3.86012 42.5978 4.7978 43.5355C5.73548 44.4731 7.00725 44.9999 8.33334 44.9999H27.65L33.8167 51.1833C33.9724 51.3377 34.1571 51.4599 34.3602 51.5429C34.5632 51.6258 34.7807 51.6679 35 51.6666C35.2186 51.6722 35.4355 51.6266 35.6333 51.5333C35.9377 51.4082 36.1982 51.1959 36.3821 50.923C36.566 50.6502 36.665 50.329 36.6667 49.9999V23.3333C36.6667 22.0072 36.1399 20.7354 35.2022 19.7977C34.2645 18.86 32.9928 18.3333 31.6667 18.3333ZM33.3333 45.9833L29.5167 42.1499C29.3609 41.9955 29.1762 41.8732 28.9732 41.7903C28.7701 41.7074 28.5527 41.6653 28.3333 41.6666H8.33334C7.89131 41.6666 7.46739 41.491 7.15482 41.1784C6.84226 40.8659 6.66667 40.4419 6.66667 39.9999V23.3333C6.66667 22.8912 6.84226 22.4673 7.15482 22.1547C7.46739 21.8422 7.89131 21.6666 8.33334 21.6666H31.6667C32.1087 21.6666 32.5326 21.8422 32.8452 22.1547C33.1577 22.4673 33.3333 22.8912 33.3333 23.3333V45.9833Z" fill="#EF5939" />
  <path d="M142.5 5H177.5C179.489 5 181.397 5.79018 182.803 7.1967C184.21 8.60322 185 10.5109 185 12.5V37.5C185 39.4891 184.21 41.3968 182.803 42.8033C181.397 44.2098 179.489 45 177.5 45H148.525L139.275 54.275C139.041 54.5067 138.764 54.69 138.46 54.8144C138.155 54.9388 137.829 55.0019 137.5 55C137.172 55.0084 136.847 54.94 136.55 54.8C136.093 54.6124 135.703 54.294 135.427 53.8847C135.151 53.4754 135.002 52.9936 135 52.5V12.5C135 10.5109 135.79 8.60322 137.197 7.1967C138.603 5.79018 140.511 5 142.5 5ZM140 46.475L145.725 40.725C145.959 40.4933 146.236 40.31 146.54 40.1856C146.845 40.0612 147.171 39.9981 147.5 40H177.5C178.163 40 178.799 39.7366 179.268 39.2678C179.737 38.7989 180 38.163 180 37.5V12.5C180 11.837 179.737 11.2011 179.268 10.7322C178.799 10.2634 178.163 10 177.5 10H142.5C141.837 10 141.201 10.2634 140.732 10.7322C140.263 11.2011 140 11.837 140 12.5V46.475Z" fill="#2D5D7C" />
</svg>
