<svg width="494" height="386" viewBox="0 0 494 386" fill="none" xmlns="http://www.w3.org/2000/svg">
<g filter="url(#filter0_d)">
<rect x="60" y="30" width="374" height="266" rx="20" fill="white"/>
</g>
<line x1="107.5" y1="62" x2="107.5" y2="245" stroke="#DDE4E8"/>
<line x1="156.5" y1="62" x2="156.5" y2="245" stroke="#EFF2F4"/>
<line x1="205.5" y1="62" x2="205.5" y2="245" stroke="#EFF2F4"/>
<line x1="254.5" y1="62" x2="254.5" y2="245" stroke="#EFF2F4"/>
<line x1="303.5" y1="62" x2="303.5" y2="245" stroke="#EFF2F4"/>
<line x1="352.5" y1="62" x2="352.5" y2="245" stroke="#EFF2F4"/>
<path d="M95.5463 79.12C94.9863 79.12 94.4703 79.008 93.9983 78.784C93.5343 78.56 93.1823 78.26 92.9423 77.884L93.4703 77.176C93.7023 77.504 93.9943 77.76 94.3463 77.944C94.7063 78.12 95.0943 78.208 95.5103 78.208C96.0703 78.208 96.5103 78.032 96.8303 77.68C97.1583 77.32 97.3223 76.836 97.3223 76.228C97.3223 75.644 97.1743 75.184 96.8783 74.848C96.5823 74.504 96.1823 74.332 95.6783 74.332C95.3663 74.332 95.0703 74.408 94.7903 74.56C94.5183 74.704 94.3063 74.9 94.1543 75.148H93.2303L93.6263 70.6H98.1743V71.512H94.6223L94.4063 73.96C94.5663 73.808 94.7863 73.688 95.0663 73.6C95.3543 73.512 95.6503 73.468 95.9543 73.468C96.7143 73.468 97.3223 73.716 97.7783 74.212C98.2343 74.708 98.4623 75.372 98.4623 76.204C98.4623 76.788 98.3423 77.3 98.1023 77.74C97.8623 78.18 97.5223 78.52 97.0823 78.76C96.6423 79 96.1303 79.12 95.5463 79.12ZM96.6023 111.56H92.7503V110.624L96.3623 104.6H97.7063V110.648H98.6543V111.56H97.7063V113H96.6023V111.56ZM96.6023 110.648V105.884L93.7583 110.648H96.6023ZM95.6183 147.12C95.0263 147.12 94.4943 147.012 94.0223 146.796C93.5583 146.572 93.2143 146.268 92.9903 145.884L93.5423 145.236C93.7503 145.532 94.0383 145.768 94.4063 145.944C94.7823 146.12 95.1743 146.208 95.5823 146.208C96.1103 146.208 96.5303 146.064 96.8423 145.776C97.1623 145.488 97.3223 145.116 97.3223 144.66C97.3223 144.156 97.1223 143.76 96.7223 143.472C96.3303 143.184 95.7903 143.04 95.1023 143.04H94.6703V142.164H95.0903C95.6743 142.164 96.1423 142.02 96.4943 141.732C96.8463 141.436 97.0223 141.056 97.0223 140.592C97.0223 140.208 96.8983 139.912 96.6503 139.704C96.4023 139.496 96.0543 139.392 95.6063 139.392C95.1983 139.392 94.8183 139.48 94.4663 139.656C94.1143 139.824 93.8303 140.06 93.6143 140.364L93.0743 139.716C93.3303 139.332 93.6903 139.032 94.1543 138.816C94.6263 138.592 95.1423 138.48 95.7023 138.48C96.4303 138.48 97.0143 138.664 97.4543 139.032C97.9023 139.392 98.1263 139.872 98.1263 140.472C98.1263 140.944 97.9823 141.368 97.6943 141.744C97.4143 142.112 97.0223 142.384 96.5183 142.56C97.1343 142.696 97.6063 142.952 97.9343 143.328C98.2703 143.696 98.4383 144.156 98.4383 144.708C98.4383 145.18 98.3223 145.6 98.0903 145.968C97.8583 146.328 97.5263 146.612 97.0943 146.82C96.6703 147.02 96.1783 147.12 95.6183 147.12ZM93.1703 180.052C93.7463 179.636 94.3183 179.14 94.8863 178.564C95.4623 177.98 95.9503 177.36 96.3503 176.704C96.7503 176.048 96.9503 175.428 96.9503 174.844C96.9503 174.396 96.8223 174.044 96.5663 173.788C96.3103 173.524 95.9623 173.392 95.5223 173.392C95.1223 173.392 94.7423 173.488 94.3823 173.68C94.0303 173.872 93.7503 174.128 93.5423 174.448L92.9543 173.788C93.2023 173.38 93.5543 173.06 94.0103 172.828C94.4743 172.596 94.9823 172.48 95.5343 172.48C96.3183 172.48 96.9383 172.692 97.3943 173.116C97.8503 173.532 98.0783 174.096 98.0783 174.808C98.0783 175.656 97.7423 176.54 97.0703 177.46C96.4063 178.38 95.5903 179.268 94.6223 180.124H98.4503V181H93.1703V180.052ZM93.9503 214.124H95.3903V207.896L93.7343 208.868V207.86L95.7863 206.6H96.4943V214.124H97.9223V215H93.9503V214.124Z" fill="#8FA4B2"/>
<path d="M123.89 263.12C123.546 263.12 123.206 263.064 122.87 262.952C122.542 262.832 122.274 262.68 122.066 262.496L122.486 261.704C122.646 261.856 122.85 261.98 123.098 262.076C123.354 262.164 123.606 262.208 123.854 262.208C124.326 262.208 124.666 262.048 124.874 261.728C125.09 261.4 125.198 260.868 125.198 260.132V254.6H126.302V260.324C126.302 261.292 126.11 262 125.726 262.448C125.342 262.896 124.73 263.12 123.89 263.12ZM129.764 263.12C129.172 263.12 128.688 262.948 128.312 262.604C127.936 262.26 127.748 261.816 127.748 261.272C127.748 260.672 127.972 260.208 128.42 259.88C128.876 259.552 129.52 259.388 130.352 259.388H131.588V259.076C131.588 258.628 131.468 258.288 131.228 258.056C130.996 257.816 130.656 257.696 130.208 257.696C129.848 257.696 129.516 257.772 129.212 257.924C128.916 258.068 128.668 258.28 128.468 258.56L127.952 257.936C128.224 257.592 128.556 257.332 128.948 257.156C129.34 256.972 129.776 256.88 130.256 256.88C131.008 256.88 131.588 257.064 131.996 257.432C132.404 257.8 132.608 258.328 132.608 259.016V261.836C132.608 262.148 132.656 262.536 132.752 263H131.864C131.792 262.816 131.74 262.536 131.708 262.16H131.684C131.46 262.472 131.184 262.712 130.856 262.88C130.528 263.04 130.164 263.12 129.764 263.12ZM129.92 262.316C130.224 262.316 130.504 262.26 130.76 262.148C131.016 262.028 131.216 261.868 131.36 261.668C131.512 261.468 131.588 261.248 131.588 261.008V260.12H130.316C129.812 260.12 129.424 260.22 129.152 260.42C128.88 260.62 128.744 260.904 128.744 261.272C128.744 261.592 128.848 261.848 129.056 262.04C129.272 262.224 129.56 262.316 129.92 262.316ZM134.152 258.512C134.152 257.752 134.136 257.248 134.104 257H135.052C135.084 257.264 135.1 257.62 135.1 258.068H135.136C135.312 257.7 135.58 257.412 135.94 257.204C136.308 256.988 136.716 256.88 137.164 256.88C137.868 256.88 138.396 257.108 138.748 257.564C139.1 258.02 139.276 258.7 139.276 259.604V263H138.256V259.592C138.256 258.952 138.148 258.476 137.932 258.164C137.716 257.852 137.388 257.696 136.948 257.696C136.612 257.696 136.308 257.784 136.036 257.96C135.764 258.128 135.552 258.368 135.4 258.68C135.248 258.984 135.172 259.328 135.172 259.712V263H134.152V258.512Z" fill="#8FA4B2"/>
<path d="M171.316 254.6H176.416V255.512H172.42V258.464H176.152V259.376H172.42V263H171.316V254.6ZM182.725 260.396H178.405C178.461 261.004 178.641 261.468 178.945 261.788C179.249 262.1 179.669 262.256 180.205 262.256C180.925 262.256 181.497 261.972 181.921 261.404L182.497 261.956C182.265 262.324 181.941 262.612 181.525 262.82C181.117 263.02 180.665 263.12 180.169 263.12C179.281 263.12 178.593 262.848 178.105 262.304C177.617 261.76 177.373 260.996 177.373 260.012C177.373 259.036 177.617 258.272 178.105 257.72C178.601 257.16 179.281 256.88 180.145 256.88C180.953 256.88 181.585 257.156 182.041 257.708C182.497 258.252 182.725 259.016 182.725 260V260.396ZM181.789 259.556C181.789 258.98 181.637 258.528 181.333 258.2C181.037 257.872 180.625 257.708 180.097 257.708C179.601 257.708 179.205 257.876 178.909 258.212C178.621 258.548 178.453 259.024 178.405 259.64H181.789V259.556ZM186.728 263.12C186.352 263.12 185.988 263.024 185.636 262.832C185.284 262.632 185.02 262.372 184.844 262.052H184.82C184.828 262.308 184.82 262.624 184.796 263H183.86C183.884 262.736 183.896 262.232 183.896 261.488V254.096H184.916V257.804H184.94C185.34 257.188 185.944 256.88 186.752 256.88C187.52 256.88 188.128 257.152 188.576 257.696C189.024 258.232 189.248 258.964 189.248 259.892C189.248 260.892 189.02 261.68 188.564 262.256C188.116 262.832 187.504 263.12 186.728 263.12ZM186.584 262.304C187.096 262.304 187.496 262.092 187.784 261.668C188.08 261.244 188.228 260.66 188.228 259.916C188.228 259.204 188.08 258.652 187.784 258.26C187.496 257.86 187.096 257.66 186.584 257.66C186.088 257.66 185.684 257.832 185.372 258.176C185.068 258.512 184.916 258.956 184.916 259.508V260.6C184.916 261.12 185.064 261.536 185.36 261.848C185.664 262.152 186.072 262.304 186.584 262.304Z" fill="#8FA4B2"/>
<path d="M227.637 254.6V263H226.557V256.64L224.205 263H223.437L221.085 256.64V263H220.005V254.6H221.277L223.821 261.608L226.365 254.6H227.637ZM231.103 263.12C230.511 263.12 230.027 262.948 229.651 262.604C229.275 262.26 229.087 261.816 229.087 261.272C229.087 260.672 229.311 260.208 229.759 259.88C230.215 259.552 230.859 259.388 231.691 259.388H232.927V259.076C232.927 258.628 232.807 258.288 232.567 258.056C232.335 257.816 231.995 257.696 231.547 257.696C231.187 257.696 230.855 257.772 230.551 257.924C230.255 258.068 230.007 258.28 229.807 258.56L229.291 257.936C229.563 257.592 229.895 257.332 230.287 257.156C230.679 256.972 231.115 256.88 231.595 256.88C232.347 256.88 232.927 257.064 233.335 257.432C233.743 257.8 233.947 258.328 233.947 259.016V261.836C233.947 262.148 233.995 262.536 234.091 263H233.203C233.131 262.816 233.079 262.536 233.047 262.16H233.023C232.799 262.472 232.523 262.712 232.195 262.88C231.867 263.04 231.503 263.12 231.103 263.12ZM231.259 262.316C231.563 262.316 231.843 262.26 232.099 262.148C232.355 262.028 232.555 261.868 232.699 261.668C232.851 261.468 232.927 261.248 232.927 261.008V260.12H231.655C231.151 260.12 230.763 260.22 230.491 260.42C230.219 260.62 230.083 260.904 230.083 261.272C230.083 261.592 230.187 261.848 230.395 262.04C230.611 262.224 230.899 262.316 231.259 262.316ZM235.575 258.464C235.575 257.784 235.563 257.296 235.539 257H236.487C236.519 257.32 236.535 257.672 236.535 258.056V258.176H236.571C236.723 257.76 236.967 257.44 237.303 257.216C237.639 256.992 238.035 256.88 238.491 256.88C238.619 256.88 238.735 256.892 238.839 256.916V257.756C238.735 257.732 238.595 257.72 238.419 257.72C238.083 257.72 237.775 257.824 237.495 258.032C237.215 258.232 236.995 258.508 236.835 258.86C236.675 259.212 236.595 259.596 236.595 260.012V263H235.575V258.464Z" fill="#8FA4B2"/>
<path d="M274.267 261.188H271.003L270.439 263H269.263L272.119 254.6H273.151L276.007 263H274.831L274.267 261.188ZM273.979 260.288L272.635 255.98L271.291 260.288H273.979ZM276.963 258.512C276.963 258 276.947 257.496 276.915 257H277.851C277.875 257.296 277.887 257.612 277.887 257.948H277.911C278.079 257.628 278.339 257.372 278.691 257.18C279.043 256.98 279.423 256.88 279.831 256.88C280.607 256.88 281.215 257.156 281.655 257.708C282.095 258.26 282.315 259.024 282.315 260C282.315 260.632 282.211 261.184 282.003 261.656C281.795 262.12 281.499 262.48 281.115 262.736C280.739 262.992 280.299 263.12 279.795 263.12C279.379 263.12 279.015 263.04 278.703 262.88C278.391 262.72 278.163 262.496 278.019 262.208H277.983V265.904H276.963V258.512ZM279.639 262.34C280.151 262.34 280.555 262.128 280.851 261.704C281.147 261.272 281.295 260.692 281.295 259.964C281.295 259.236 281.151 258.676 280.863 258.284C280.575 257.892 280.171 257.696 279.651 257.696C279.163 257.696 278.763 257.856 278.451 258.176C278.139 258.496 277.983 258.904 277.983 259.4V260.492C277.983 261.044 278.135 261.492 278.439 261.836C278.743 262.172 279.143 262.34 279.639 262.34ZM283.55 258.464C283.55 257.784 283.538 257.296 283.514 257H284.462C284.494 257.32 284.51 257.672 284.51 258.056V258.176H284.546C284.698 257.76 284.942 257.44 285.278 257.216C285.614 256.992 286.01 256.88 286.466 256.88C286.594 256.88 286.71 256.892 286.814 256.916V257.756C286.71 257.732 286.57 257.72 286.394 257.72C286.058 257.72 285.75 257.824 285.47 258.032C285.19 258.232 284.97 258.508 284.81 258.86C284.65 259.212 284.57 259.596 284.57 260.012V263H283.55V258.464Z" fill="#8FA4B2"/>
<path d="M324.963 254.6V263H323.883V256.64L321.531 263H320.763L318.411 256.64V263H317.331V254.6H318.603L321.147 261.608L323.691 254.6H324.963ZM328.43 263.12C327.838 263.12 327.354 262.948 326.978 262.604C326.602 262.26 326.414 261.816 326.414 261.272C326.414 260.672 326.638 260.208 327.086 259.88C327.542 259.552 328.186 259.388 329.018 259.388H330.254V259.076C330.254 258.628 330.134 258.288 329.894 258.056C329.662 257.816 329.322 257.696 328.874 257.696C328.514 257.696 328.182 257.772 327.878 257.924C327.582 258.068 327.334 258.28 327.134 258.56L326.618 257.936C326.89 257.592 327.222 257.332 327.614 257.156C328.006 256.972 328.442 256.88 328.922 256.88C329.674 256.88 330.254 257.064 330.662 257.432C331.07 257.8 331.274 258.328 331.274 259.016V261.836C331.274 262.148 331.322 262.536 331.418 263H330.53C330.458 262.816 330.406 262.536 330.374 262.16H330.35C330.126 262.472 329.85 262.712 329.522 262.88C329.194 263.04 328.83 263.12 328.43 263.12ZM328.586 262.316C328.89 262.316 329.17 262.26 329.426 262.148C329.682 262.028 329.882 261.868 330.026 261.668C330.178 261.468 330.254 261.248 330.254 261.008V260.12H328.982C328.478 260.12 328.09 260.22 327.818 260.42C327.546 260.62 327.41 260.904 327.41 261.272C327.41 261.592 327.514 261.848 327.722 262.04C327.938 262.224 328.226 262.316 328.586 262.316ZM337.51 257L335.338 263.108C334.786 264.652 333.934 265.424 332.782 265.424C332.574 265.424 332.35 265.396 332.11 265.34V264.56C332.254 264.608 332.43 264.632 332.638 264.632C333.046 264.632 333.394 264.484 333.682 264.188C333.97 263.892 334.246 263.392 334.51 262.688L332.278 257H333.37L334.978 261.596L336.406 257H337.51Z" fill="#8FA4B2"/>
<path d="M368.662 263.12C368.318 263.12 367.978 263.064 367.642 262.952C367.314 262.832 367.046 262.68 366.838 262.496L367.258 261.704C367.418 261.856 367.622 261.98 367.87 262.076C368.126 262.164 368.378 262.208 368.626 262.208C369.098 262.208 369.438 262.048 369.646 261.728C369.862 261.4 369.97 260.868 369.97 260.132V254.6H371.074V260.324C371.074 261.292 370.882 262 370.498 262.448C370.114 262.896 369.502 263.12 368.662 263.12ZM374.871 263.12C374.183 263.12 373.659 262.896 373.299 262.448C372.947 262 372.771 261.34 372.771 260.468V257H373.791V260.48C373.791 261.696 374.223 262.304 375.087 262.304C375.423 262.304 375.727 262.22 375.999 262.052C376.271 261.876 376.483 261.636 376.635 261.332C376.787 261.02 376.863 260.672 376.863 260.288V257H377.883V261.728C377.883 262.128 377.919 262.552 377.991 263H377.055C376.983 262.648 376.943 262.292 376.935 261.932H376.899C376.723 262.3 376.451 262.592 376.083 262.808C375.723 263.016 375.319 263.12 374.871 263.12ZM379.38 258.512C379.38 257.752 379.364 257.248 379.332 257H380.28C380.312 257.264 380.328 257.62 380.328 258.068H380.364C380.54 257.7 380.808 257.412 381.168 257.204C381.536 256.988 381.944 256.88 382.392 256.88C383.096 256.88 383.624 257.108 383.976 257.564C384.328 258.02 384.504 258.7 384.504 259.604V263H383.484V259.592C383.484 258.952 383.376 258.476 383.16 258.164C382.944 257.852 382.616 257.696 382.176 257.696C381.84 257.696 381.536 257.784 381.264 257.96C380.992 258.128 380.78 258.368 380.628 258.68C380.476 258.984 380.4 259.328 380.4 259.712V263H379.38V258.512Z" fill="#8FA4B2"/>
<line x1="107" y1="245.5" x2="402" y2="245.5" stroke="#DDE4E8"/>
<line x1="107" y1="211.5" x2="402" y2="211.5" stroke="#EFF2F4"/>
<line x1="107" y1="177.5" x2="402" y2="177.5" stroke="#EFF2F4"/>
<line x1="107" y1="143.5" x2="402" y2="143.5" stroke="#EFF2F4"/>
<line x1="107" y1="109.5" x2="402" y2="109.5" stroke="#EFF2F4"/>
<line x1="107" y1="75.5" x2="402" y2="75.5" stroke="#EFF2F4"/>
<path d="M107 219C107.85 216.723 108.635 214.341 109.629 212.118C110.046 211.186 111.813 214.332 112.034 214.602C114.95 218.162 118.16 212.748 119.977 210.256C120.7 209.265 120.509 209.915 120.984 210.618C121.557 211.467 123.399 206.888 123.501 206.634C123.681 206.183 125.175 201.196 126.018 201.408C126.79 201.603 126.486 201.483 126.969 200.425C128.637 196.772 131.47 193.362 133.905 190.129C134.393 189.481 137.35 184.716 137.932 185.679C140.769 190.375 143.282 187.871 146.881 184.799C147.603 184.183 152.791 178.466 153.929 179.263C155.728 180.524 156.508 183.097 158.124 184.592C159.861 186.199 164.326 180.291 167.382 183.118C170.127 185.657 175.282 182.227 178.261 181.41C183.502 179.974 186.03 191.289 191.489 187.361C194.616 185.111 196.675 181.868 199.74 179.599C200.841 178.784 200.642 179.968 201.754 179.781C205.08 179.221 208.289 175.465 210.591 173.468C210.838 173.254 213.404 170.526 214.283 171.036C215.563 171.78 215.666 176.26 216.241 177.504C218.338 182.041 222.902 174.241 224.351 172.589C225.771 170.97 225.464 171.341 226.421 172.226C227.213 172.959 236.159 160.858 236.713 161.516C238.356 163.47 238.101 163.793 240.069 161.568C244.384 156.689 247.92 151.337 251.927 146.253C256.241 140.778 252.929 148.725 257.716 147.443C261.34 146.472 262.273 146.035 264.177 149.228C265.293 151.099 267.142 154.385 269.546 155.126C270.638 155.463 271.548 154.503 272.567 154.66C273.576 154.816 274.248 157.461 275.084 158.179C277.544 160.292 285.27 152.672 286.243 157.351C286.938 160.694 287.601 165.365 290.214 167.984C292.117 169.891 297.65 163.504 298.661 162.499C298.93 162.231 302.853 157.581 303.359 158.282C304.005 159.178 304.349 159.264 305.429 159.214C307.287 159.128 308.227 160.258 310.239 159.783C314.717 158.725 318.456 156.032 322.517 154.117C324.672 153.101 327.615 151.579 330.18 151.841C331.74 152 331.109 153.036 331.858 153.729C332.003 153.864 337.53 142.848 338.039 141.906C338.526 141.004 341.631 134.259 343.324 137.25C344.509 139.341 346.721 136.868 348.191 135.956C351.178 134.104 353.104 134.185 355.966 136.267C359.013 138.484 360.626 137.491 363.741 135.542C364.953 134.784 370.032 129.988 371.571 130.316C372.969 130.615 372.464 133.612 373.809 134.145C375.66 134.879 379.999 125.074 382.367 127.16C384.196 128.771 385.445 124.106 387.121 126.1C388.88 128.192 391.289 124.917 393.106 123.642C396.401 121.33 395.242 125.538 396.239 125.142C397.515 124.636 398.753 125.262 399.707 123.978C400.109 123.437 401.263 121.459 402 122.141" stroke="#33B9E3" stroke-linecap="round" stroke-linejoin="round"/>
<path d="M107 158.416C108.421 156.668 108.802 155.711 109.713 158.209C110.064 159.172 111.565 164.762 113.312 162.441C115.18 159.959 116.766 157.334 118.738 154.907C120.277 153.012 120.49 153.339 122.503 154.7C126.166 157.177 129.71 160.565 134.047 162.002C137.374 163.104 138.988 159.378 140.774 157.435C142.072 156.024 142.301 155.507 142.989 157.332C144.29 160.784 145.195 161.174 148.664 159.293C150.794 158.138 152.839 156.599 155.281 156.094C158.597 155.407 161.478 149.909 162.7 147.373C163.024 146.702 164.069 142.515 165.302 143.09C166.761 143.77 170.084 138.352 170.645 137.414C171.161 136.553 171.437 134.307 172.362 135.815C172.99 136.839 174.095 140.092 175.712 138.859C176.533 138.233 180.644 133.466 181.636 133.957C183.447 134.854 182.368 139.093 184.958 139.736C186.469 140.112 189.906 136.948 191.048 136.253C193.071 135.024 193.371 135.003 195.007 136.666C196.462 138.145 197.488 139.834 199.769 138.833C200.824 138.371 201.835 137.807 202.842 137.26C203.32 137 203.838 135.918 204.171 136.331C205.015 137.38 205.148 139.419 206.053 140.665C207.28 142.352 207.567 142.515 209.652 142.445C212.662 142.345 213.756 145.401 217.071 144.742C221.378 143.885 226.022 141.116 230.581 141.723C235.729 142.408 241.349 136.931 245.475 134.318C248.84 132.187 248.94 148.463 254.057 141.31C255.048 139.924 256.777 135.432 258.68 134.886C259.982 134.513 259.256 136.462 260.923 134.68C261.782 133.76 264.744 129.107 266.072 129.107C267.633 129.107 268.106 132.325 269.948 132.409C272.456 132.523 273.876 129.091 276.592 129.468C280.075 129.951 278.211 133.446 281.464 130.035C281.914 129.563 284.366 126.201 285.174 126.475C286.339 126.87 287.178 129.333 288.717 128.281C290.573 127.013 291.845 124.875 293.258 123.224C294.686 121.554 296.023 121.251 297.189 119.303C298.265 117.503 300.374 113.831 302.504 112.904C302.995 112.69 303.854 114.66 303.888 114.71C305.401 116.944 307.368 119.298 309.646 120.902C312.195 122.697 314.742 117.983 316.014 116.516C317.063 115.305 318.117 113.956 319.363 112.904C320.308 112.107 321.625 115.179 321.883 115.562C322.63 116.673 324.944 120.953 327.06 120.257C328.202 119.882 329.915 118.086 331.24 118.58C334.481 119.789 338.357 113.965 341.289 116.697C345.324 120.457 349.417 122.821 355.131 120.773C357.617 119.882 359.776 118.15 362.301 117.419C364.025 116.921 364.336 118.265 365.125 119.303C365.747 120.12 366.83 116.203 367.008 115.794C367.651 114.308 368.856 111.486 370.856 111.072C373.689 110.486 378.378 104.916 380.905 107.847C382.56 109.768 384.845 111.995 387.438 112.801C388.323 113.076 389.524 110.912 390.013 110.427C390.741 109.707 391.381 110.129 392.283 110.35C393.525 110.655 393.382 110.18 394.415 109.757C396.663 108.835 396.838 108.029 399.204 109.653C400.658 110.652 400.524 110.341 402 109.653" stroke="#2D5D7C" stroke-linecap="round" stroke-linejoin="round"/>
<path d="M107 195.625C108.548 193.519 110.426 189.813 112.766 188.27C114.079 187.405 115.435 190.316 116.133 190.973C117.913 192.65 122.517 189.224 124.327 188.66C129.055 187.187 132.927 190.437 137.626 190.843C140.814 191.119 143.875 190.531 147.034 190.531C148.476 190.531 151.861 200.04 152.58 201.29C153.707 203.248 156.223 209.173 159.229 206.175C161.09 204.32 162.868 199.244 165.382 198.275C165.833 198.102 167.303 203.124 167.589 203.629C167.946 204.258 169.397 202.97 170.072 203.213C172.642 204.135 176.591 203.074 178.626 204.824C181.765 207.524 185.095 208.611 189.22 208.722C191.354 208.78 191.069 212.691 193.8 211.893C194.947 211.557 196.177 210.751 197.387 211.321C198.496 211.843 198.938 212.287 200.201 211.581C201.63 210.782 202.909 209.672 204.147 208.644C205.722 207.337 208.113 204.075 210.217 203.603C213.348 202.901 213.372 211.818 215.763 211.269C216.665 211.061 218.081 208.531 218.467 208.047C220.508 205.483 222.651 202.81 225.171 200.64C227.038 199.033 227.545 197.569 228.565 195.001C229.569 192.473 230.184 190.979 232.014 189.128C234.451 186.662 235.892 183.533 238.111 180.968C238.576 180.431 239.86 184.892 240.07 185.386C240.398 186.158 245.354 180.403 245.671 179.981C246.971 178.248 248.016 174.777 249.837 176.888C250.919 178.143 252.228 178.228 253.507 177.278C255.701 175.648 256.12 175.113 258.197 177.07C259.228 178.041 259.872 177.921 261.067 177.278C263.682 175.87 263.702 178.728 264.653 180.734C265.62 182.772 266.352 181.631 267.302 182.631C269.368 184.806 270.17 188.045 273.317 189.258C276.11 190.334 276.612 193.317 278.118 195.625C280.906 199.897 285.397 193.205 288.188 191.285C289.806 190.172 290.267 190.757 291.251 190.375C295.234 188.831 298.273 187.157 301.79 184.294C304.204 182.331 306.617 180.422 309.24 178.707C310.144 178.116 313.326 175.52 314.703 175.693C315.372 175.777 316.545 183.348 316.855 184.346C317.477 186.352 319.458 181.701 319.918 181.046C323.433 176.039 329.094 172.445 334.955 170.21C337.843 169.108 339.66 169.285 341.797 167.169C343.459 165.524 346.007 161.096 348.253 160.283C348.808 160.082 351.231 160.406 352.033 160.283C353.644 160.036 354.147 159.355 355.316 160.335C356.293 161.152 357.855 159.268 358.489 158.775C359.587 157.924 360.196 159.687 361.166 159.971C363.299 160.594 365.793 158.196 367.815 157.892C368.776 157.747 369.183 159.344 369.94 158.671C373.423 155.573 371.383 169.195 374.63 165.272C376.631 162.854 378.676 160.417 381.279 158.541C382.251 157.841 382.491 159.102 383.128 159.607C384.077 160.36 385.978 157.858 386.549 157.32C388.033 155.922 387.501 157.965 387.708 159.035C388.394 162.588 390.922 153.459 391.681 155.605C392.479 157.86 393.652 157.88 395.654 157.372C396.35 157.196 397.165 157.999 397.751 157.684C398.338 157.368 398.592 155.779 399.02 155.241C399.632 154.473 399.799 155.803 400.289 155.605C400.866 155.372 401.379 155.397 402 155.397" stroke="#EF5939" stroke-linecap="round" stroke-linejoin="round"/>
<path d="M107 181C107.789 180.037 114.611 172.037 115.678 173.402C117.381 175.581 117.054 176.117 120.487 175.14C122.701 174.509 124.91 173.851 127.148 173.298C128.754 172.902 128.526 173.583 129.884 173.947C133.181 174.831 133.762 167.625 137.125 168.294C140.544 168.974 142.41 164.206 146.3 164.767C148.649 165.106 151.65 164.884 153.403 166.142C154.689 167.064 157.746 169.742 159.345 168.242C162.226 165.539 165.066 162.933 168.051 160.333C168.826 159.658 169.349 160.391 170.179 160.255C172.671 159.849 174.668 156.182 176.922 155.069C180.05 153.525 180.907 149.542 182.118 146.356C183.554 142.581 184.695 139.089 187.203 135.88C187.535 135.456 189.8 131.886 190.409 132.094C192.941 132.958 195.07 134.805 198.065 133.935C202.903 132.53 204.162 126.68 206.909 123.329C207.767 122.283 210.468 121.792 211.662 121.151C215.396 119.149 219.195 117.465 223.132 115.861C225.45 114.917 227.012 118.376 228.825 119.699C232.138 122.116 237.485 105.6 241.206 107.823C242.081 108.345 243.114 107.724 244.164 107.46C247.243 106.684 251.75 103.834 254.887 104.115C256.578 104.266 257.514 107.584 259.419 108.134C260.567 108.465 262.828 105.364 263.648 104.763C265.691 103.265 265.843 103.717 266.301 105.748C266.666 107.365 268.378 104.172 269.175 103.622C270.389 102.785 270.366 103.518 271.497 103.518C273.339 103.518 275.064 102.623 276.803 103.051C282.042 104.341 287.886 103.985 293.247 103.985C295.027 103.985 296.619 104.426 297.808 103.311C298.63 102.539 299.376 102.898 300.267 101.262C300.618 100.619 303.504 92.7996 304.772 94.6238C305.907 96.2568 306.546 99.0988 308.476 100.147C308.997 100.43 310.017 98.4962 310.355 98.2282C311.452 97.3568 311.908 101.552 312.842 101.081C313.723 100.636 314.457 98.0898 315.551 99.6285C316.005 100.268 317.507 103.177 318.674 102.325C319.455 101.755 321.326 99.3692 322.184 99.3692C323.198 99.3692 322.61 100.531 323.925 99.9915C325.421 99.3775 325.802 98.5043 327.241 99.6544C328.026 100.282 330.227 102.844 331.359 102.844C333.875 102.844 336.833 100.75 339.098 99.8878C341.984 98.789 341.303 100.218 343.298 102.844C344.145 103.957 345.892 107.103 347.776 106.682C349.008 106.406 349.846 107.936 351.009 107.693C351.935 107.5 352.743 106.315 353.524 105.826C354.202 105.402 357.507 102.807 358.223 103.311C358.962 103.831 359.063 103.86 359.577 103.155C361.456 100.578 364.493 95.5594 368.559 96.8798C370.716 97.5805 372.839 96.054 374.805 95.324C375.915 94.9118 376.229 95.6463 377.237 95.5833C378.068 95.5313 380.547 93.7604 380.913 94.0274C381.886 94.7374 382.328 95.9645 383.594 95.1165C385.026 94.1563 386.51 96.6172 387.794 97.1651C388.519 97.4742 389.497 96.5686 390.254 96.5686C390.529 96.5686 391.345 97.2767 391.553 97.4503C392.808 98.4968 394.998 96.9985 396.251 96.5168C398.593 95.617 398.83 94.7462 400.01 96.7761C400.474 97.5745 401.156 97.4503 402 97.4503" stroke="#2BD7B8" stroke-linecap="round" stroke-linejoin="round"/>
<defs>
<filter id="filter0_d" x="0" y="0" width="494" height="386" filterUnits="userSpaceOnUse" color-interpolation-filters="sRGB">
<feFlood flood-opacity="0" result="BackgroundImageFix"/>
<feColorMatrix in="SourceAlpha" type="matrix" values="0 0 0 0 0 0 0 0 0 0 0 0 0 0 0 0 0 0 127 0"/>
<feOffset dy="30"/>
<feGaussianBlur stdDeviation="30"/>
<feColorMatrix type="matrix" values="0 0 0 0 0.12549 0 0 0 0 0.290196 0 0 0 0 0.396078 0 0 0 0.07 0"/>
<feBlend mode="normal" in2="BackgroundImageFix" result="effect1_dropShadow"/>
<feBlend mode="normal" in="SourceGraphic" in2="effect1_dropShadow" result="shape"/>
</filter>
</defs>
</svg>
