<svg width="565" height="297" viewBox="0 0 565 297" fill="none" xmlns="http://www.w3.org/2000/svg">
<g filter="url(#filter0_d)">
<rect x="60" y="30" width="445" height="177" rx="20" fill="white"/>
</g>
<path d="M91.9294 111.481C93.9051 100.386 98.9653 90.0722 106.531 81.72C114.096 73.3679 123.86 67.3151 134.706 64.2548C145.552 61.1945 157.04 61.2504 167.855 64.4161C178.67 67.5818 188.376 73.7294 195.859 82.1547L151 122L91.9294 111.481Z" fill="#2BD7B8"/>
<path d="M188.099 89.4784C194.755 96.8447 199.067 106.026 200.486 115.852C201.906 125.678 200.368 135.704 196.068 144.653L151 123L188.099 89.4784Z" fill="#2D5D7C"/>
<path d="M191.814 140.954C189.325 146.313 185.804 151.13 181.454 155.13C177.103 159.129 172.007 162.232 166.457 164.262L151 122L191.814 140.954Z" fill="#33B9E3"/>
<path d="M168.376 171.863C159.726 174.995 150.405 175.8 141.347 174.196C132.289 172.592 123.811 168.636 116.762 162.725C109.714 156.813 104.343 149.153 101.187 140.512C98.0305 131.871 97.2002 122.553 98.7789 113.49L150.5 122.5L168.376 171.863Z" fill="#EF5939"/>
<circle cx="150.5" cy="122.5" r="41.5" fill="white"/>
<path d="M129.39 133C129.47 130.088 129.822 127.528 130.446 125.32C131.07 123.112 132.062 121.088 133.422 119.248H126.438V116.2H138.126V118.6C136.558 120.248 135.35 122.352 134.502 124.912C133.67 127.456 133.254 130.152 133.254 133H129.39ZM145.957 133.24C144.741 133.24 143.669 133.032 142.741 132.616C141.813 132.184 141.093 131.584 140.581 130.816C140.069 130.048 139.813 129.16 139.813 128.152C139.813 127.288 140.061 126.48 140.557 125.728C141.069 124.96 141.725 124.424 142.525 124.12C141.901 123.864 141.381 123.392 140.965 122.704C140.565 122.016 140.365 121.312 140.365 120.592C140.365 119.68 140.597 118.872 141.061 118.168C141.525 117.464 142.181 116.92 143.029 116.536C143.877 116.152 144.853 115.96 145.957 115.96C147.061 115.96 148.037 116.152 148.885 116.536C149.733 116.92 150.389 117.464 150.853 118.168C151.317 118.872 151.549 119.68 151.549 120.592C151.549 121.312 151.341 122.016 150.925 122.704C150.525 123.392 150.013 123.864 149.389 124.12C150.189 124.424 150.837 124.96 151.333 125.728C151.845 126.48 152.101 127.288 152.101 128.152C152.101 129.16 151.845 130.048 151.333 130.816C150.821 131.584 150.101 132.184 149.173 132.616C148.245 133.032 147.173 133.24 145.957 133.24ZM145.957 122.8C146.485 122.8 146.909 122.624 147.229 122.272C147.565 121.92 147.733 121.464 147.733 120.904C147.733 120.344 147.565 119.888 147.229 119.536C146.909 119.184 146.485 119.008 145.957 119.008C145.429 119.008 144.997 119.184 144.661 119.536C144.341 119.888 144.181 120.344 144.181 120.904C144.181 121.464 144.341 121.92 144.661 122.272C144.997 122.624 145.429 122.8 145.957 122.8ZM145.957 130.192C146.645 130.192 147.197 129.976 147.613 129.544C148.045 129.096 148.261 128.512 148.261 127.792C148.261 127.072 148.045 126.496 147.613 126.064C147.197 125.616 146.645 125.392 145.957 125.392C145.269 125.392 144.709 125.616 144.277 126.064C143.861 126.496 143.653 127.072 143.653 127.792C143.653 128.512 143.861 129.096 144.277 129.544C144.709 129.976 145.269 130.192 145.957 130.192ZM158.181 125.992C157.317 125.992 156.549 125.784 155.877 125.368C155.221 124.936 154.701 124.344 154.317 123.592C153.949 122.824 153.765 121.952 153.765 120.976C153.765 120 153.949 119.136 154.317 118.384C154.701 117.616 155.221 117.024 155.877 116.608C156.549 116.176 157.317 115.96 158.181 115.96C159.045 115.96 159.805 116.176 160.461 116.608C161.133 117.024 161.653 117.616 162.021 118.384C162.405 119.136 162.597 120 162.597 120.976C162.597 121.952 162.405 122.824 162.021 123.592C161.653 124.344 161.133 124.936 160.461 125.368C159.805 125.784 159.045 125.992 158.181 125.992ZM167.781 116.2H171.741L161.469 133.312H157.509L167.781 116.2ZM158.181 123.352C158.549 123.352 158.845 123.136 159.069 122.704C159.309 122.256 159.429 121.68 159.429 120.976C159.429 120.272 159.309 119.704 159.069 119.272C158.845 118.824 158.549 118.6 158.181 118.6C157.813 118.6 157.509 118.824 157.269 119.272C157.045 119.704 156.933 120.272 156.933 120.976C156.933 121.68 157.045 122.256 157.269 122.704C157.509 123.136 157.813 123.352 158.181 123.352ZM171.189 133.216C170.325 133.216 169.557 133.008 168.885 132.592C168.229 132.16 167.709 131.568 167.325 130.816C166.957 130.048 166.773 129.176 166.773 128.2C166.773 127.224 166.957 126.36 167.325 125.608C167.709 124.84 168.229 124.248 168.885 123.832C169.557 123.4 170.325 123.184 171.189 123.184C172.053 123.184 172.813 123.4 173.469 123.832C174.141 124.248 174.661 124.84 175.029 125.608C175.413 126.36 175.605 127.224 175.605 128.2C175.605 129.176 175.413 130.048 175.029 130.816C174.661 131.568 174.141 132.16 173.469 132.592C172.813 133.008 172.053 133.216 171.189 133.216ZM171.189 130.576C171.557 130.576 171.853 130.36 172.077 129.928C172.317 129.48 172.437 128.904 172.437 128.2C172.437 127.496 172.317 126.928 172.077 126.496C171.853 126.048 171.557 125.824 171.189 125.824C170.821 125.824 170.517 126.048 170.277 126.496C170.053 126.928 169.941 127.496 169.941 128.2C169.941 128.904 170.053 129.48 170.277 129.928C170.517 130.36 170.821 130.576 171.189 130.576Z" fill="#204A65"/>
<circle cx="257" cy="107" r="24" fill="#EFF2F4"/>
<path d="M257 83C262.211 83 267.281 84.6962 271.443 87.8324C275.605 90.9686 278.633 95.3742 280.07 100.384C281.507 105.393 281.274 110.734 279.407 115.599C277.539 120.465 274.139 124.59 269.72 127.352L257 107V83Z" fill="#2BD7B8"/>
<circle cx="257" cy="107" r="21" fill="white"/>
<path d="M245.943 110.656H247.567V104.202L245.705 105.294V103.712L248.183 102.2H249.331V110.656H250.941V112H245.943V110.656ZM252.909 110.656C253.544 110.199 254.188 109.653 254.841 109.018C255.504 108.383 256.064 107.702 256.521 106.974C256.978 106.246 257.207 105.555 257.207 104.902C257.207 104.463 257.081 104.118 256.829 103.866C256.577 103.605 256.236 103.474 255.807 103.474C255.368 103.474 254.948 103.591 254.547 103.824C254.155 104.048 253.838 104.351 253.595 104.734L252.643 103.726C252.96 103.203 253.399 102.797 253.959 102.508C254.519 102.209 255.14 102.06 255.821 102.06C256.81 102.06 257.585 102.307 258.145 102.802C258.714 103.297 258.999 103.978 258.999 104.846C258.999 106.423 257.753 108.36 255.261 110.656H259.363V112H252.909V110.656ZM261.163 110.852C262.003 110.675 262.764 110.357 263.445 109.9C264.136 109.433 264.616 108.883 264.887 108.248C264.738 108.351 264.556 108.439 264.341 108.514C264.126 108.579 263.907 108.612 263.683 108.612C263.039 108.612 262.474 108.472 261.989 108.192C261.504 107.912 261.13 107.525 260.869 107.03C260.608 106.526 260.477 105.957 260.477 105.322C260.477 104.687 260.612 104.123 260.883 103.628C261.154 103.133 261.536 102.751 262.031 102.48C262.535 102.2 263.118 102.06 263.781 102.06C264.472 102.06 265.074 102.219 265.587 102.536C266.11 102.844 266.511 103.287 266.791 103.866C267.08 104.445 267.225 105.112 267.225 105.868C267.225 106.988 266.978 108.005 266.483 108.92C265.998 109.825 265.316 110.567 264.439 111.146C263.562 111.715 262.558 112.065 261.429 112.196L261.163 110.852ZM263.781 107.282C264.266 107.282 264.654 107.105 264.943 106.75C265.242 106.395 265.391 105.924 265.391 105.336C265.391 104.776 265.242 104.328 264.943 103.992C264.654 103.656 264.266 103.488 263.781 103.488C263.305 103.488 262.922 103.656 262.633 103.992C262.353 104.328 262.213 104.776 262.213 105.336C262.213 105.924 262.353 106.395 262.633 106.75C262.922 107.105 263.305 107.282 263.781 107.282Z" fill="#204A65"/>
<path d="M253.488 139.2V149H252.228V141.58L249.484 149H248.588L245.844 141.58V149H244.584V139.2H246.068L249.036 147.376L252.004 139.2H253.488ZM261.368 145.962H256.328C256.393 146.671 256.603 147.213 256.958 147.586C257.313 147.95 257.803 148.132 258.428 148.132C259.268 148.132 259.935 147.801 260.43 147.138L261.102 147.782C260.831 148.211 260.453 148.547 259.968 148.79C259.492 149.023 258.965 149.14 258.386 149.14C257.35 149.14 256.547 148.823 255.978 148.188C255.409 147.553 255.124 146.662 255.124 145.514C255.124 144.375 255.409 143.484 255.978 142.84C256.557 142.187 257.35 141.86 258.358 141.86C259.301 141.86 260.038 142.182 260.57 142.826C261.102 143.461 261.368 144.352 261.368 145.5V145.962ZM260.276 144.982C260.276 144.31 260.099 143.783 259.744 143.4C259.399 143.017 258.918 142.826 258.302 142.826C257.723 142.826 257.261 143.022 256.916 143.414C256.58 143.806 256.384 144.361 256.328 145.08H260.276V144.982ZM262.706 143.764C262.706 142.877 262.688 142.289 262.65 142H263.756C263.794 142.308 263.812 142.723 263.812 143.246H263.854C264.06 142.817 264.372 142.481 264.792 142.238C265.222 141.986 265.698 141.86 266.22 141.86C267.042 141.86 267.658 142.126 268.068 142.658C268.479 143.19 268.684 143.983 268.684 145.038V149H267.494V145.024C267.494 144.277 267.368 143.722 267.116 143.358C266.864 142.994 266.482 142.812 265.968 142.812C265.576 142.812 265.222 142.915 264.904 143.12C264.587 143.316 264.34 143.596 264.162 143.96C263.985 144.315 263.896 144.716 263.896 145.164V149H262.706V143.764Z" fill="#8FA4B2"/>
<circle cx="321" cy="107" r="24" fill="#EFF2F4"/>
<path d="M321 83C324.923 83 328.786 83.9616 332.251 85.8007C335.716 87.6398 338.678 90.3003 340.877 93.5492C343.075 96.7982 344.444 100.537 344.863 104.437C345.282 108.338 344.738 112.281 343.28 115.923L321 107V83Z" fill="#2D5D7C"/>
<circle cx="321" cy="107" r="21" fill="white"/>
<path d="M313.412 110.852C314.252 110.675 315.013 110.357 315.694 109.9C316.385 109.433 316.865 108.883 317.136 108.248C316.987 108.351 316.805 108.439 316.59 108.514C316.375 108.579 316.156 108.612 315.932 108.612C315.288 108.612 314.723 108.472 314.238 108.192C313.753 107.912 313.379 107.525 313.118 107.03C312.857 106.526 312.726 105.957 312.726 105.322C312.726 104.687 312.861 104.123 313.132 103.628C313.403 103.133 313.785 102.751 314.28 102.48C314.784 102.2 315.367 102.06 316.03 102.06C316.721 102.06 317.323 102.219 317.836 102.536C318.359 102.844 318.76 103.287 319.04 103.866C319.329 104.445 319.474 105.112 319.474 105.868C319.474 106.988 319.227 108.005 318.732 108.92C318.247 109.825 317.565 110.567 316.688 111.146C315.811 111.715 314.807 112.065 313.678 112.196L313.412 110.852ZM316.03 107.282C316.515 107.282 316.903 107.105 317.192 106.75C317.491 106.395 317.64 105.924 317.64 105.336C317.64 104.776 317.491 104.328 317.192 103.992C316.903 103.656 316.515 103.488 316.03 103.488C315.554 103.488 315.171 103.656 314.882 103.992C314.602 104.328 314.462 104.776 314.462 105.336C314.462 105.924 314.602 106.395 314.882 106.75C315.171 107.105 315.554 107.282 316.03 107.282ZM322.464 112C322.511 110.292 322.725 108.771 323.108 107.436C323.491 106.092 324.149 104.818 325.082 103.614H320.672V102.2H327.196V103.418C326.235 104.435 325.502 105.686 324.998 107.17C324.494 108.654 324.242 110.264 324.242 112H322.464Z" fill="#204A65"/>
<path d="M308.328 139.2L306.298 149H305.024L302.91 140.964L300.782 149H299.508L297.464 139.2H298.85L300.222 147.026L302.252 139.2H303.554L305.57 146.998L306.942 139.2H308.328ZM312.339 149.14C311.649 149.14 311.047 148.995 310.533 148.706C310.029 148.407 309.637 147.983 309.357 147.432C309.087 146.881 308.951 146.237 308.951 145.5C308.951 144.763 309.087 144.119 309.357 143.568C309.637 143.017 310.029 142.597 310.533 142.308C311.047 142.009 311.649 141.86 312.339 141.86C313.385 141.86 314.211 142.187 314.817 142.84C315.433 143.493 315.741 144.38 315.741 145.5C315.741 146.62 315.433 147.507 314.817 148.16C314.211 148.813 313.385 149.14 312.339 149.14ZM312.339 148.23C313.03 148.23 313.571 147.987 313.963 147.502C314.355 147.017 314.551 146.349 314.551 145.5C314.551 144.651 314.355 143.983 313.963 143.498C313.571 143.013 313.03 142.77 312.339 142.77C311.658 142.77 311.121 143.013 310.729 143.498C310.337 143.983 310.141 144.651 310.141 145.5C310.141 146.349 310.337 147.017 310.729 147.502C311.121 147.987 311.658 148.23 312.339 148.23ZM317.094 143.764C317.094 143.055 317.071 142.467 317.024 142H318.088C318.126 142.373 318.144 142.789 318.144 143.246H318.186C318.373 142.817 318.667 142.481 319.068 142.238C319.47 141.986 319.918 141.86 320.412 141.86C320.907 141.86 321.332 141.986 321.686 142.238C322.041 142.49 322.279 142.84 322.4 143.288C322.596 142.849 322.895 142.504 323.296 142.252C323.698 141.991 324.15 141.86 324.654 141.86C325.42 141.86 326.017 142.107 326.446 142.602C326.885 143.097 327.104 143.787 327.104 144.674V149H325.928V144.772C325.928 144.137 325.793 143.652 325.522 143.316C325.261 142.98 324.878 142.812 324.374 142.812C323.88 142.812 323.474 142.999 323.156 143.372C322.839 143.736 322.68 144.207 322.68 144.786V149H321.504V144.828C321.504 144.147 321.383 143.643 321.14 143.316C320.898 142.98 320.529 142.812 320.034 142.812C319.726 142.812 319.437 142.905 319.166 143.092C318.896 143.279 318.676 143.526 318.508 143.834C318.35 144.142 318.27 144.473 318.27 144.828V149H317.094V143.764ZM334.732 145.962H329.692C329.758 146.671 329.968 147.213 330.322 147.586C330.677 147.95 331.167 148.132 331.792 148.132C332.632 148.132 333.3 147.801 333.794 147.138L334.466 147.782C334.196 148.211 333.818 148.547 333.332 148.79C332.856 149.023 332.329 149.14 331.75 149.14C330.714 149.14 329.912 148.823 329.342 148.188C328.773 147.553 328.488 146.662 328.488 145.514C328.488 144.375 328.773 143.484 329.342 142.84C329.921 142.187 330.714 141.86 331.722 141.86C332.665 141.86 333.402 142.182 333.934 142.826C334.466 143.461 334.732 144.352 334.732 145.5V145.962ZM333.64 144.982C333.64 144.31 333.463 143.783 333.108 143.4C332.763 143.017 332.282 142.826 331.666 142.826C331.088 142.826 330.626 143.022 330.28 143.414C329.944 143.806 329.748 144.361 329.692 145.08H333.64V144.982ZM336.07 143.764C336.07 142.877 336.052 142.289 336.014 142H337.12C337.158 142.308 337.176 142.723 337.176 143.246H337.218C337.424 142.817 337.736 142.481 338.156 142.238C338.586 141.986 339.062 141.86 339.584 141.86C340.406 141.86 341.022 142.126 341.432 142.658C341.843 143.19 342.048 143.983 342.048 145.038V149H340.858V145.024C340.858 144.277 340.732 143.722 340.48 143.358C340.228 142.994 339.846 142.812 339.332 142.812C338.94 142.812 338.586 142.915 338.268 143.12C337.951 143.316 337.704 143.596 337.526 143.96C337.349 144.315 337.26 144.716 337.26 145.164V149H336.07V143.764Z" fill="#8FA4B2"/>
<circle cx="385" cy="107" r="24" fill="#EFF2F4"/>
<path d="M385 83C390.262 83 395.379 84.7296 399.562 87.9227C403.745 91.1157 406.763 95.5951 408.151 100.671L385 107V83Z" fill="#33B9E3"/>
<circle cx="385" cy="107" r="21" fill="white"/>
<path d="M380.17 112.14C379.479 112.14 378.873 111.986 378.35 111.678C377.837 111.361 377.435 110.917 377.146 110.348C376.866 109.779 376.726 109.121 376.726 108.374C376.726 107.329 376.987 106.339 377.51 105.406C378.033 104.463 378.742 103.689 379.638 103.082C380.543 102.475 381.537 102.116 382.62 102.004L382.788 103.348C381.995 103.497 381.271 103.801 380.618 104.258C379.974 104.706 379.489 105.266 379.162 105.938C379.274 105.845 379.428 105.765 379.624 105.7C379.829 105.625 380.044 105.588 380.268 105.588C381.267 105.588 382.051 105.887 382.62 106.484C383.189 107.081 383.474 107.875 383.474 108.864C383.474 109.508 383.339 110.077 383.068 110.572C382.797 111.067 382.41 111.454 381.906 111.734C381.411 112.005 380.833 112.14 380.17 112.14ZM380.142 110.712C380.627 110.712 381.015 110.544 381.304 110.208C381.593 109.872 381.738 109.419 381.738 108.85C381.738 108.29 381.593 107.842 381.304 107.506C381.015 107.17 380.627 107.002 380.142 107.002C379.666 107.002 379.283 107.17 378.994 107.506C378.705 107.842 378.56 108.29 378.56 108.85C378.56 109.419 378.705 109.872 378.994 110.208C379.283 110.544 379.666 110.712 380.142 110.712ZM388.704 110.418H384.322V109.116L388.522 102.2H390.468V109.004H391.532V110.418H390.468V112H388.704V110.418ZM388.704 109.004V104.51L385.974 109.004H388.704Z" fill="#204A65"/>
<path d="M371.538 139.2H374.128C375.286 139.2 376.144 139.396 376.704 139.788C377.274 140.171 377.558 140.759 377.558 141.552C377.558 142.103 377.437 142.555 377.194 142.91C376.952 143.265 376.574 143.54 376.06 143.736V143.778C376.714 143.955 377.19 144.24 377.488 144.632C377.796 145.015 377.95 145.537 377.95 146.2C377.95 147.143 377.68 147.847 377.138 148.314C376.597 148.771 375.776 149 374.674 149H371.538V139.2ZM374.45 143.33C375.048 143.33 375.5 143.19 375.808 142.91C376.116 142.621 376.27 142.201 376.27 141.65C376.27 141.155 376.102 140.796 375.766 140.572C375.43 140.348 374.898 140.236 374.17 140.236H372.826V143.33H374.45ZM374.716 147.964C376.023 147.964 376.676 147.367 376.676 146.172C376.676 145.528 376.471 145.057 376.06 144.758C375.659 144.459 375.02 144.31 374.142 144.31H372.826V147.964H374.716ZM382.54 149.14C381.85 149.14 381.248 148.995 380.734 148.706C380.23 148.407 379.838 147.983 379.558 147.432C379.288 146.881 379.152 146.237 379.152 145.5C379.152 144.763 379.288 144.119 379.558 143.568C379.838 143.017 380.23 142.597 380.734 142.308C381.248 142.009 381.85 141.86 382.54 141.86C383.586 141.86 384.412 142.187 385.018 142.84C385.634 143.493 385.942 144.38 385.942 145.5C385.942 146.62 385.634 147.507 385.018 148.16C384.412 148.813 383.586 149.14 382.54 149.14ZM382.54 148.23C383.231 148.23 383.772 147.987 384.164 147.502C384.556 147.017 384.752 146.349 384.752 145.5C384.752 144.651 384.556 143.983 384.164 143.498C383.772 143.013 383.231 142.77 382.54 142.77C381.859 142.77 381.322 143.013 380.93 143.498C380.538 143.983 380.342 144.651 380.342 145.5C380.342 146.349 380.538 147.017 380.93 147.502C381.322 147.987 381.859 148.23 382.54 148.23ZM392.619 142L390.085 149.126C389.441 150.927 388.447 151.828 387.103 151.828C386.86 151.828 386.599 151.795 386.319 151.73V150.82C386.487 150.876 386.692 150.904 386.935 150.904C387.411 150.904 387.817 150.731 388.153 150.386C388.489 150.041 388.811 149.457 389.119 148.636L386.515 142H387.789L389.665 147.362L391.331 142H392.619ZM395.571 149.14C395.049 149.14 394.573 149.033 394.143 148.818C393.723 148.603 393.425 148.319 393.247 147.964L394.017 147.432C394.176 147.684 394.395 147.88 394.675 148.02C394.955 148.16 395.259 148.23 395.585 148.23C395.977 148.23 396.299 148.118 396.551 147.894C396.813 147.661 396.943 147.371 396.943 147.026C396.943 146.746 396.841 146.513 396.635 146.326C396.43 146.139 396.066 145.948 395.543 145.752C394.75 145.463 394.19 145.159 393.863 144.842C393.546 144.525 393.387 144.133 393.387 143.666C393.387 143.125 393.602 142.691 394.031 142.364C394.461 142.028 395.03 141.86 395.739 141.86C396.197 141.86 396.612 141.958 396.985 142.154C397.368 142.35 397.662 142.621 397.867 142.966L397.139 143.498C396.813 143.013 396.346 142.77 395.739 142.77C395.394 142.77 395.109 142.849 394.885 143.008C394.671 143.167 394.563 143.372 394.563 143.624C394.563 143.876 394.675 144.091 394.899 144.268C395.123 144.436 395.539 144.637 396.145 144.87C396.864 145.141 397.373 145.439 397.671 145.766C397.97 146.083 398.119 146.489 398.119 146.984C398.119 147.637 397.886 148.16 397.419 148.552C396.953 148.944 396.337 149.14 395.571 149.14Z" fill="#8FA4B2"/>
<circle cx="449" cy="107" r="24" fill="#EFF2F4"/>
<path d="M449 83C452.455 83 455.869 83.746 459.01 85.1869C462.15 86.6279 464.942 88.7299 467.195 91.3492L449 107V83Z" fill="#EF5939"/>
<circle cx="449" cy="107" r="21" fill="white"/>
<path d="M444.87 110.418H440.488V109.116L444.688 102.2H446.634V109.004H447.698V110.418H446.634V112H444.87V110.418ZM444.87 109.004V104.51L442.14 109.004H444.87ZM451.92 112.14C450.865 112.14 450.03 111.879 449.414 111.356C448.798 110.833 448.49 110.129 448.49 109.242C448.49 108.701 448.63 108.206 448.91 107.758C449.199 107.31 449.591 106.988 450.086 106.792C449.713 106.633 449.405 106.353 449.162 105.952C448.929 105.541 448.812 105.112 448.812 104.664C448.812 104.151 448.938 103.698 449.19 103.306C449.451 102.905 449.815 102.597 450.282 102.382C450.758 102.167 451.304 102.06 451.92 102.06C452.536 102.06 453.077 102.167 453.544 102.382C454.02 102.597 454.384 102.905 454.636 103.306C454.897 103.698 455.028 104.151 455.028 104.664C455.028 105.112 454.907 105.541 454.664 105.952C454.431 106.353 454.127 106.633 453.754 106.792C454.249 106.988 454.641 107.31 454.93 107.758C455.219 108.206 455.364 108.701 455.364 109.242C455.364 110.129 455.051 110.833 454.426 111.356C453.81 111.879 452.975 112.14 451.92 112.14ZM451.92 106.176C452.331 106.176 452.657 106.055 452.9 105.812C453.152 105.56 453.278 105.229 453.278 104.818C453.278 104.417 453.152 104.095 452.9 103.852C452.657 103.6 452.331 103.474 451.92 103.474C451.519 103.474 451.192 103.6 450.94 103.852C450.697 104.095 450.576 104.417 450.576 104.818C450.576 105.229 450.697 105.56 450.94 105.812C451.192 106.055 451.519 106.176 451.92 106.176ZM451.92 110.712C452.433 110.712 452.839 110.563 453.138 110.264C453.446 109.965 453.6 109.564 453.6 109.06C453.6 108.547 453.451 108.145 453.152 107.856C452.853 107.557 452.443 107.408 451.92 107.408C451.407 107.408 451.001 107.557 450.702 107.856C450.403 108.145 450.254 108.547 450.254 109.06C450.254 109.564 450.403 109.965 450.702 110.264C451.001 110.563 451.407 110.712 451.92 110.712Z" fill="#204A65"/>
<path d="M443.124 143.932V149H442.256L442.046 148.384C441.738 148.627 441.374 148.813 440.954 148.944C440.544 149.075 440.105 149.14 439.638 149.14C438.798 149.14 438.07 148.939 437.454 148.538C436.838 148.127 436.367 147.544 436.04 146.788C435.714 146.032 435.55 145.136 435.55 144.1C435.55 143.083 435.723 142.196 436.068 141.44C436.423 140.684 436.918 140.101 437.552 139.69C438.196 139.27 438.948 139.06 439.806 139.06C440.534 139.06 441.178 139.195 441.738 139.466C442.298 139.737 442.709 140.11 442.97 140.586L442.256 141.3C442.014 140.917 441.682 140.628 441.262 140.432C440.852 140.227 440.371 140.124 439.82 140.124C438.887 140.124 438.159 140.474 437.636 141.174C437.114 141.874 436.852 142.849 436.852 144.1C436.852 145.369 437.104 146.359 437.608 147.068C438.122 147.777 438.836 148.132 439.75 148.132C440.18 148.132 440.572 148.071 440.926 147.95C441.29 147.829 441.598 147.651 441.85 147.418V144.884H439.512V143.932H443.124ZM445.683 140.782C445.421 140.782 445.216 140.712 445.067 140.572C444.917 140.432 444.843 140.241 444.843 139.998C444.843 139.755 444.917 139.564 445.067 139.424C445.216 139.275 445.421 139.2 445.683 139.2C445.944 139.2 446.149 139.275 446.299 139.424C446.457 139.564 446.537 139.755 446.537 139.998C446.537 140.241 446.457 140.432 446.299 140.572C446.149 140.712 445.944 140.782 445.683 140.782ZM445.095 142H446.285V149H445.095V142ZM448.344 143.708C448.344 142.915 448.33 142.345 448.302 142H449.408C449.446 142.373 449.464 142.784 449.464 143.232V143.372H449.506C449.684 142.887 449.968 142.513 450.36 142.252C450.752 141.991 451.214 141.86 451.746 141.86C451.896 141.86 452.031 141.874 452.152 141.902V142.882C452.031 142.854 451.868 142.84 451.662 142.84C451.27 142.84 450.911 142.961 450.584 143.204C450.258 143.437 450.001 143.759 449.814 144.17C449.628 144.581 449.534 145.029 449.534 145.514V149H448.344V143.708ZM454.793 149.14C453.785 149.14 453.281 148.547 453.281 147.362V138.612H454.471V147.348C454.471 147.675 454.522 147.908 454.625 148.048C454.737 148.179 454.923 148.244 455.185 148.244C455.39 148.244 455.623 148.188 455.885 148.076L456.067 148.79C455.712 149.023 455.287 149.14 454.793 149.14ZM458.902 149.14C458.379 149.14 457.903 149.033 457.474 148.818C457.054 148.603 456.755 148.319 456.578 147.964L457.348 147.432C457.506 147.684 457.726 147.88 458.006 148.02C458.286 148.16 458.589 148.23 458.916 148.23C459.308 148.23 459.63 148.118 459.882 147.894C460.143 147.661 460.274 147.371 460.274 147.026C460.274 146.746 460.171 146.513 459.966 146.326C459.76 146.139 459.396 145.948 458.874 145.752C458.08 145.463 457.52 145.159 457.194 144.842C456.876 144.525 456.718 144.133 456.718 143.666C456.718 143.125 456.932 142.691 457.362 142.364C457.791 142.028 458.36 141.86 459.07 141.86C459.527 141.86 459.942 141.958 460.316 142.154C460.698 142.35 460.992 142.621 461.198 142.966L460.47 143.498C460.143 143.013 459.676 142.77 459.07 142.77C458.724 142.77 458.44 142.849 458.216 143.008C458.001 143.167 457.894 143.372 457.894 143.624C457.894 143.876 458.006 144.091 458.23 144.268C458.454 144.436 458.869 144.637 459.476 144.87C460.194 145.141 460.703 145.439 461.002 145.766C461.3 146.083 461.45 146.489 461.45 146.984C461.45 147.637 461.216 148.16 460.75 148.552C460.283 148.944 459.667 149.14 458.902 149.14Z" fill="#8FA4B2"/>
<defs>
<filter id="filter0_d" x="0" y="0" width="565" height="297" filterUnits="userSpaceOnUse" color-interpolation-filters="sRGB">
<feFlood flood-opacity="0" result="BackgroundImageFix"/>
<feColorMatrix in="SourceAlpha" type="matrix" values="0 0 0 0 0 0 0 0 0 0 0 0 0 0 0 0 0 0 127 0"/>
<feOffset dy="30"/>
<feGaussianBlur stdDeviation="30"/>
<feColorMatrix type="matrix" values="0 0 0 0 0.12549 0 0 0 0 0.290196 0 0 0 0 0.396078 0 0 0 0.07 0"/>
<feBlend mode="normal" in2="BackgroundImageFix" result="effect1_dropShadow"/>
<feBlend mode="normal" in="SourceGraphic" in2="effect1_dropShadow" result="shape"/>
</filter>
</defs>
</svg>
