<svg width="209" height="158" viewBox="0 0 209 158" fill="none" xmlns="http://www.w3.org/2000/svg">
  <path d="M84.25 116.25H95.5C96.4946 116.25 97.4484 115.855 98.1516 115.152C98.8549 114.448 99.25 113.495 99.25 112.5C99.25 111.505 98.8549 110.552 98.1516 109.848C97.4484 109.145 96.4946 108.75 95.5 108.75H84.25C83.2554 108.75 82.3016 109.145 81.5984 109.848C80.8951 110.552 80.5 111.505 80.5 112.5C80.5 113.495 80.8951 114.448 81.5984 115.152C82.3016 115.855 83.2554 116.25 84.25 116.25ZM129.25 78.75H76.75C73.7663 78.75 70.9048 79.9353 68.795 82.045C66.6853 84.1548 65.5 87.0163 65.5 90V123.75C65.5 126.734 66.6853 129.595 68.795 131.705C70.9048 133.815 73.7663 135 76.75 135H129.25C132.234 135 135.095 133.815 137.205 131.705C139.315 129.595 140.5 126.734 140.5 123.75V90C140.5 87.0163 139.315 84.1548 137.205 82.045C135.095 79.9353 132.234 78.75 129.25 78.75ZM133 123.75C133 124.745 132.605 125.698 131.902 126.402C131.198 127.105 130.245 127.5 129.25 127.5H76.75C75.7554 127.5 74.8016 127.105 74.0984 126.402C73.3951 125.698 73 124.745 73 123.75V101.25H133V123.75ZM133 93.75H73V90C73 89.0054 73.3951 88.0516 74.0984 87.3484C74.8016 86.6451 75.7554 86.25 76.75 86.25H129.25C130.245 86.25 131.198 86.6451 131.902 87.3484C132.605 88.0516 133 89.0054 133 90V93.75Z" fill="#2BD7B8" />
  <path d="M166.5 56.5H174C174.663 56.5 175.299 56.2366 175.768 55.7678C176.237 55.2989 176.5 54.663 176.5 54C176.5 53.337 176.237 52.7011 175.768 52.2322C175.299 51.7634 174.663 51.5 174 51.5H166.5C165.837 51.5 165.201 51.7634 164.732 52.2322C164.263 52.7011 164 53.337 164 54C164 54.663 164.263 55.2989 164.732 55.7678C165.201 56.2366 165.837 56.5 166.5 56.5ZM196.5 31.5H161.5C159.511 31.5 157.603 32.2902 156.197 33.6967C154.79 35.1032 154 37.0109 154 39V61.5C154 63.4891 154.79 65.3968 156.197 66.8033C157.603 68.2098 159.511 69 161.5 69H196.5C198.489 69 200.397 68.2098 201.803 66.8033C203.21 65.3968 204 63.4891 204 61.5V39C204 37.0109 203.21 35.1032 201.803 33.6967C200.397 32.2902 198.489 31.5 196.5 31.5ZM199 61.5C199 62.163 198.737 62.7989 198.268 63.2678C197.799 63.7366 197.163 64 196.5 64H161.5C160.837 64 160.201 63.7366 159.732 63.2678C159.263 62.7989 159 62.163 159 61.5V46.5H199V61.5ZM199 41.5H159V39C159 38.337 159.263 37.7011 159.732 37.2322C160.201 36.7634 160.837 36.5 161.5 36.5H196.5C197.163 36.5 197.799 36.7634 198.268 37.2322C198.737 37.7011 199 38.337 199 39V41.5Z" fill="#33B9E3" />
  <path d="M22.5 37.5H30C30.663 37.5 31.2989 37.2366 31.7678 36.7678C32.2366 36.2989 32.5 35.663 32.5 35C32.5 34.337 32.2366 33.7011 31.7678 33.2322C31.2989 32.7634 30.663 32.5 30 32.5H22.5C21.837 32.5 21.2011 32.7634 20.7322 33.2322C20.2634 33.7011 20 34.337 20 35C20 35.663 20.2634 36.2989 20.7322 36.7678C21.2011 37.2366 21.837 37.5 22.5 37.5ZM52.5 12.5H17.5C15.5109 12.5 13.6032 13.2902 12.1967 14.6967C10.7902 16.1032 10 18.0109 10 20V42.5C10 44.4891 10.7902 46.3968 12.1967 47.8033C13.6032 49.2098 15.5109 50 17.5 50H52.5C54.4891 50 56.3968 49.2098 57.8033 47.8033C59.2098 46.3968 60 44.4891 60 42.5V20C60 18.0109 59.2098 16.1032 57.8033 14.6967C56.3968 13.2902 54.4891 12.5 52.5 12.5ZM55 42.5C55 43.163 54.7366 43.7989 54.2678 44.2678C53.7989 44.7366 53.163 45 52.5 45H17.5C16.837 45 16.2011 44.7366 15.7322 44.2678C15.2634 43.7989 15 43.163 15 42.5V27.5H55V42.5ZM55 22.5H15V20C15 19.337 15.2634 18.7011 15.7322 18.2322C16.2011 17.7634 16.837 17.5 17.5 17.5H52.5C53.163 17.5 53.7989 17.7634 54.2678 18.2322C54.7366 18.7011 55 19.337 55 20V22.5Z" fill="#2D5D7C" />
  <path d="M8.75 131.75H12.5C12.8315 131.75 13.1495 131.618 13.3839 131.384C13.6183 131.149 13.75 130.832 13.75 130.5C13.75 130.168 13.6183 129.851 13.3839 129.616C13.1495 129.382 12.8315 129.25 12.5 129.25H8.75C8.41848 129.25 8.10054 129.382 7.86612 129.616C7.6317 129.851 7.5 130.168 7.5 130.5C7.5 130.832 7.6317 131.149 7.86612 131.384C8.10054 131.618 8.41848 131.75 8.75 131.75ZM23.75 119.25H6.25C5.25544 119.25 4.30161 119.645 3.59835 120.348C2.89509 121.052 2.5 122.005 2.5 123V134.25C2.5 135.245 2.89509 136.198 3.59835 136.902C4.30161 137.605 5.25544 138 6.25 138H23.75C24.7446 138 25.6984 137.605 26.4017 136.902C27.1049 136.198 27.5 135.245 27.5 134.25V123C27.5 122.005 27.1049 121.052 26.4017 120.348C25.6984 119.645 24.7446 119.25 23.75 119.25ZM25 134.25C25 134.582 24.8683 134.899 24.6339 135.134C24.3995 135.368 24.0815 135.5 23.75 135.5H6.25C5.91848 135.5 5.60054 135.368 5.36612 135.134C5.1317 134.899 5 134.582 5 134.25V126.75H25V134.25ZM25 124.25H5V123C5 122.668 5.1317 122.351 5.36612 122.116C5.60054 121.882 5.91848 121.75 6.25 121.75H23.75C24.0815 121.75 24.3995 121.882 24.6339 122.116C24.8683 122.351 25 122.668 25 123V124.25Z" fill="#EF5939" />
  <path d="M175.75 146.75H179.5C179.832 146.75 180.149 146.618 180.384 146.384C180.618 146.149 180.75 145.832 180.75 145.5C180.75 145.168 180.618 144.851 180.384 144.616C180.149 144.382 179.832 144.25 179.5 144.25H175.75C175.418 144.25 175.101 144.382 174.866 144.616C174.632 144.851 174.5 145.168 174.5 145.5C174.5 145.832 174.632 146.149 174.866 146.384C175.101 146.618 175.418 146.75 175.75 146.75ZM190.75 134.25H173.25C172.255 134.25 171.302 134.645 170.598 135.348C169.895 136.052 169.5 137.005 169.5 138V149.25C169.5 150.245 169.895 151.198 170.598 151.902C171.302 152.605 172.255 153 173.25 153H190.75C191.745 153 192.698 152.605 193.402 151.902C194.105 151.198 194.5 150.245 194.5 149.25V138C194.5 137.005 194.105 136.052 193.402 135.348C192.698 134.645 191.745 134.25 190.75 134.25ZM192 149.25C192 149.582 191.868 149.899 191.634 150.134C191.399 150.368 191.082 150.5 190.75 150.5H173.25C172.918 150.5 172.601 150.368 172.366 150.134C172.132 149.899 172 149.582 172 149.25V141.75H192V149.25ZM192 139.25H172V138C172 137.668 172.132 137.351 172.366 137.116C172.601 136.882 172.918 136.75 173.25 136.75H190.75C191.082 136.75 191.399 136.882 191.634 137.116C191.868 137.351 192 137.668 192 138V139.25Z" fill="#DDE4E8" />
</svg>
