<svg width="210" height="135" viewBox="0 0 210 135" fill="none" xmlns="http://www.w3.org/2000/svg">
  <path d="M138.75 97.5H135V71.25C135 68.2663 133.815 65.4048 131.705 63.295C129.595 61.1853 126.734 60 123.75 60H86.25C83.2663 60 80.4048 61.1853 78.295 63.295C76.1853 65.4048 75 68.2663 75 71.25V97.5H71.25C70.2554 97.5 69.3016 97.8951 68.5983 98.5984C67.8951 99.3016 67.5 100.255 67.5 101.25V108.75C67.5 111.734 68.6853 114.595 70.795 116.705C72.9048 118.815 75.7663 120 78.75 120H131.25C134.234 120 137.095 118.815 139.205 116.705C141.315 114.595 142.5 111.734 142.5 108.75V101.25C142.5 100.255 142.105 99.3016 141.402 98.5984C140.698 97.8951 139.745 97.5 138.75 97.5ZM82.5 71.25C82.5 70.2554 82.8951 69.3016 83.5984 68.5984C84.3016 67.8951 85.2554 67.5 86.25 67.5H123.75C124.745 67.5 125.698 67.8951 126.402 68.5984C127.105 69.3016 127.5 70.2554 127.5 71.25V97.5H82.5V71.25ZM135 108.75C135 109.745 134.605 110.698 133.902 111.402C133.198 112.105 132.245 112.5 131.25 112.5H78.75C77.7554 112.5 76.8016 112.105 76.0984 111.402C75.3951 110.698 75 109.745 75 108.75V105H135V108.75Z" fill="#2BD7B8" />
  <path d="M202.5 35H200V17.5C200 15.5109 199.21 13.6032 197.803 12.1967C196.397 10.7902 194.489 10 192.5 10H167.5C165.511 10 163.603 10.7902 162.197 12.1967C160.79 13.6032 160 15.5109 160 17.5V35H157.5C156.837 35 156.201 35.2634 155.732 35.7322C155.263 36.2011 155 36.837 155 37.5V42.5C155 44.4891 155.79 46.3968 157.197 47.8033C158.603 49.2098 160.511 50 162.5 50H197.5C199.489 50 201.397 49.2098 202.803 47.8033C204.21 46.3968 205 44.4891 205 42.5V37.5C205 36.837 204.737 36.2011 204.268 35.7322C203.799 35.2634 203.163 35 202.5 35ZM165 17.5C165 16.837 165.263 16.2011 165.732 15.7322C166.201 15.2634 166.837 15 167.5 15H192.5C193.163 15 193.799 15.2634 194.268 15.7322C194.737 16.2011 195 16.837 195 17.5V35H165V17.5ZM200 42.5C200 43.163 199.737 43.7989 199.268 44.2678C198.799 44.7366 198.163 45 197.5 45H162.5C161.837 45 161.201 44.7366 160.732 44.2678C160.263 43.7989 160 43.163 160 42.5V40H200V42.5Z" fill="#2D5D7C" />
  <path d="M56.25 37.5H55V28.75C55 27.7554 54.6049 26.8016 53.9017 26.0983C53.1984 25.3951 52.2446 25 51.25 25H38.75C37.7554 25 36.8016 25.3951 36.0983 26.0983C35.3951 26.8016 35 27.7554 35 28.75V37.5H33.75C33.4185 37.5 33.1005 37.6317 32.8661 37.8661C32.6317 38.1005 32.5 38.4185 32.5 38.75V41.25C32.5 42.2446 32.8951 43.1984 33.5983 43.9017C34.3016 44.6049 35.2554 45 36.25 45H53.75C54.7446 45 55.6984 44.6049 56.4017 43.9017C57.1049 43.1984 57.5 42.2446 57.5 41.25V38.75C57.5 38.4185 57.3683 38.1005 57.1339 37.8661C56.8995 37.6317 56.5815 37.5 56.25 37.5ZM37.5 28.75C37.5 28.4185 37.6317 28.1005 37.8661 27.8661C38.1005 27.6317 38.4185 27.5 38.75 27.5H51.25C51.5815 27.5 51.8995 27.6317 52.1339 27.8661C52.3683 28.1005 52.5 28.4185 52.5 28.75V37.5H37.5V28.75ZM55 41.25C55 41.5815 54.8683 41.8995 54.6339 42.1339C54.3995 42.3683 54.0815 42.5 53.75 42.5H36.25C35.9185 42.5 35.6005 42.3683 35.3661 42.1339C35.1317 41.8995 35 41.5815 35 41.25V40H55V41.25Z" fill="#EF5939" />
  <path d="M201.25 122.5H200V113.75C200 112.755 199.605 111.802 198.902 111.098C198.198 110.395 197.245 110 196.25 110H183.75C182.755 110 181.802 110.395 181.098 111.098C180.395 111.802 180 112.755 180 113.75V122.5H178.75C178.418 122.5 178.101 122.632 177.866 122.866C177.632 123.101 177.5 123.418 177.5 123.75V126.25C177.5 127.245 177.895 128.198 178.598 128.902C179.302 129.605 180.255 130 181.25 130H198.75C199.745 130 200.698 129.605 201.402 128.902C202.105 128.198 202.5 127.245 202.5 126.25V123.75C202.5 123.418 202.368 123.101 202.134 122.866C201.899 122.632 201.582 122.5 201.25 122.5ZM182.5 113.75C182.5 113.418 182.632 113.101 182.866 112.866C183.101 112.632 183.418 112.5 183.75 112.5H196.25C196.582 112.5 196.899 112.632 197.134 112.866C197.368 113.101 197.5 113.418 197.5 113.75V122.5H182.5V113.75ZM200 126.25C200 126.582 199.868 126.899 199.634 127.134C199.399 127.368 199.082 127.5 198.75 127.5H181.25C180.918 127.5 180.601 127.368 180.366 127.134C180.132 126.899 180 126.582 180 126.25V125H200V126.25Z" fill="#DDE4E8" />
  <path d="M26.25 97.5H25V88.75C25 87.7554 24.6049 86.8016 23.9017 86.0983C23.1984 85.3951 22.2446 85 21.25 85H8.75C7.75544 85 6.80161 85.3951 6.09835 86.0983C5.39509 86.8016 5 87.7554 5 88.75V97.5H3.75C3.41848 97.5 3.10054 97.6317 2.86612 97.8661C2.6317 98.1005 2.5 98.4185 2.5 98.75V101.25C2.5 102.245 2.89509 103.198 3.59835 103.902C4.30161 104.605 5.25544 105 6.25 105H23.75C24.7446 105 25.6984 104.605 26.4017 103.902C27.1049 103.198 27.5 102.245 27.5 101.25V98.75C27.5 98.4185 27.3683 98.1005 27.1339 97.8661C26.8995 97.6317 26.5815 97.5 26.25 97.5ZM7.5 88.75C7.5 88.4185 7.6317 88.1005 7.86612 87.8661C8.10054 87.6317 8.41848 87.5 8.75 87.5H21.25C21.5815 87.5 21.8995 87.6317 22.1339 87.8661C22.3683 88.1005 22.5 88.4185 22.5 88.75V97.5H7.5V88.75ZM25 101.25C25 101.582 24.8683 101.899 24.6339 102.134C24.3995 102.368 24.0815 102.5 23.75 102.5H6.25C5.91848 102.5 5.60054 102.368 5.36612 102.134C5.1317 101.899 5 101.582 5 101.25V100H25V101.25Z" fill="#33B9E3" />
</svg>
