<svg id="Layer_1" data-name="Layer 1" xmlns="http://www.w3.org/2000/svg" viewBox="0 0 219.82 83.37"><defs><style>.cls-1{fill:#231f20;}.cls-2{fill:#808285;}.cls-3{fill:#e12726;}.cls-4{fill:#fff;}</style></defs><title>NASSP_Logo_2014_FullColor_Build</title><path class="cls-1" d="M99.77,44.83L88.62,27.72l-2.1,17.12H80l3.42-27.89h5.82L100.39,34l2.1-17.08H109l-3.42,27.89H99.77Z" transform="translate(-5.2 -5.8)"/><path class="cls-1" d="M130.59,44.83l-1.37-4.93H117.33l-2.63,4.93H107.9l15.59-27.89h5.12l8.79,27.89h-6.81ZM125.2,25.17l-5.47,10.14H128Z" transform="translate(-5.2 -5.8)"/><path class="cls-1" d="M149.78,45.07c-5.08,0-8.82-.9-11.76-3.68l4.66-3.52c1.9,1.76,4.69,2.35,7.79,2.35,3.85,0,6.07-1.21,6.34-3.45a2.54,2.54,0,0,0-.75-2.35,5,5,0,0,0-2.84-1l-4-.47c-2.82-.35-4.85-1.1-6.2-2.31a6,6,0,0,1-1.72-5.48c0.61-5,5.46-8.46,12.69-8.46,4.6,0,7.82.94,10.41,3.25l-4.55,3.41c-1.91-1.69-4.41-1.92-6.62-1.92-3.48,0-5.36,1.61-5.6,3.53a2.2,2.2,0,0,0,.74,2,5.66,5.66,0,0,0,3,1.1l3.89,0.47c3,0.35,4.85,1.06,6.13,2.15,1.61,1.41,2.16,3.45,1.86,5.91C162.56,42,156.78,45.07,149.78,45.07Z" transform="translate(-5.2 -5.8)"/><path class="cls-1" d="M175.53,45.07c-5.08,0-8.82-.9-11.76-3.68l4.66-3.52c1.9,1.76,4.69,2.35,7.79,2.35,3.85,0,6.07-1.21,6.34-3.45a2.54,2.54,0,0,0-.75-2.35,5,5,0,0,0-2.84-1L175,33c-2.82-.35-4.85-1.1-6.2-2.31a6,6,0,0,1-1.72-5.48c0.61-5,5.46-8.46,12.69-8.46,4.6,0,7.82.94,10.41,3.25l-4.55,3.41c-1.91-1.69-4.41-1.92-6.62-1.92-3.48,0-5.36,1.61-5.6,3.53a2.2,2.2,0,0,0,.74,2,5.65,5.65,0,0,0,3,1.1L181,28.54c3,0.35,4.85,1.06,6.13,2.15,1.61,1.41,2.16,3.45,1.86,5.91C188.3,42,182.53,45.07,175.53,45.07Z" transform="translate(-5.2 -5.8)"/><path class="cls-1" d="M205.5,34.34h-6.44l-1.29,10.49h-6.53l3.42-27.89h13c6.91,0,10.56,4,10,8.69S212.41,34.34,205.5,34.34Zm1.21-12.53h-6.11l-0.94,7.64h6.11c3,0,5-1.53,5.31-3.8S209.67,21.81,206.71,21.81Z" transform="translate(-5.2 -5.8)"/><path class="cls-2" d="M11.19,85.18a3.35,3.35,0,0,1-2.54,1,3.31,3.31,0,0,1-2.53-1,4.3,4.3,0,0,1-.93-3.25,4.28,4.28,0,0,1,.93-3.24,3.31,3.31,0,0,1,2.53-1,3.35,3.35,0,0,1,2.54,1,4.28,4.28,0,0,1,.93,3.24A4.3,4.3,0,0,1,11.19,85.18ZM9.61,79.91a1.28,1.28,0,0,0-1-.37,1.24,1.24,0,0,0-.94.37,2.87,2.87,0,0,0-.47,2,2.91,2.91,0,0,0,.47,2,1.24,1.24,0,0,0,.94.37,1.28,1.28,0,0,0,1-.37,2.91,2.91,0,0,0,.47-2A2.87,2.87,0,0,0,9.61,79.91Z" transform="translate(-5.2 -5.8)"/><path class="cls-2" d="M16.28,79.59v6.52h-2V79.59H13.39V78h0.85V77a2.25,2.25,0,0,1,2.39-2.39h1.16v1.76H17a0.65,0.65,0,0,0-.71.75V78h1.51v1.59H16.28Z" transform="translate(-5.2 -5.8)"/><path class="cls-2" d="M25.62,86.21a5.19,5.19,0,0,1-4.08-1.51l1.41-1.44a3.61,3.61,0,0,0,2.7,1c1.29,0,2-.5,2-1.41a1.28,1.28,0,0,0-.35-1,1.65,1.65,0,0,0-1-.4l-1.35-.19a3.75,3.75,0,0,1-2.17-.95,3.05,3.05,0,0,1-.8-2.24c0-2,1.48-3.46,3.89-3.46a4.73,4.73,0,0,1,3.61,1.33L28.1,77.33a3.07,3.07,0,0,0-2.29-.79A1.49,1.49,0,0,0,24.08,78a1.11,1.11,0,0,0,.33.82,1.9,1.9,0,0,0,1,.45l1.32,0.19a3.66,3.66,0,0,1,2.13.88,3.23,3.23,0,0,1,.86,2.42C29.76,85,28,86.21,25.62,86.21Z" transform="translate(-5.2 -5.8)"/><path class="cls-2" d="M33.26,82.59a1.71,1.71,0,0,0,1.79,1.86,2.24,2.24,0,0,0,1.85-.78l1.24,1.23A3.85,3.85,0,0,1,35,86.21c-1.93,0-3.78-.9-3.78-4.28,0-2.72,1.44-4.26,3.56-4.26,2.28,0,3.56,1.7,3.56,4v0.93H33.26Zm2.92-2.32a1.51,1.51,0,0,0-2.73,0,2.33,2.33,0,0,0-.19.9h3.11A2.35,2.35,0,0,0,36.18,80.26Z" transform="translate(-5.2 -5.8)"/><path class="cls-2" d="M43.48,86.21c-1.63,0-3.66-.9-3.66-4.28s2-4.26,3.66-4.26a3.45,3.45,0,0,1,2.7,1.12L44.8,80.2a1.64,1.64,0,0,0-1.32-.66,1.4,1.4,0,0,0-1.16.55,2.87,2.87,0,0,0-.46,1.84,2.92,2.92,0,0,0,.46,1.86,1.4,1.4,0,0,0,1.16.55,1.64,1.64,0,0,0,1.32-.66l1.38,1.39A3.46,3.46,0,0,1,43.48,86.21Z" transform="translate(-5.2 -5.8)"/><path class="cls-2" d="M53.21,85.18a3.35,3.35,0,0,1-2.54,1,3.31,3.31,0,0,1-2.53-1,4.3,4.3,0,0,1-.93-3.25,4.28,4.28,0,0,1,.93-3.24,3.31,3.31,0,0,1,2.53-1,3.35,3.35,0,0,1,2.54,1,4.28,4.28,0,0,1,.93,3.24A4.3,4.3,0,0,1,53.21,85.18Zm-1.59-5.27a1.28,1.28,0,0,0-1-.37,1.24,1.24,0,0,0-.94.37,2.86,2.86,0,0,0-.47,2,2.91,2.91,0,0,0,.47,2,1.24,1.24,0,0,0,.94.37,1.28,1.28,0,0,0,1-.37,2.91,2.91,0,0,0,.47-2A2.87,2.87,0,0,0,51.63,79.91Z" transform="translate(-5.2 -5.8)"/><path class="cls-2" d="M60.73,86.11v-5a1.37,1.37,0,1,0-2.71,0v5H56V77.77h2v0.77a2.77,2.77,0,0,1,2-.87,2.62,2.62,0,0,1,1.93.74,3.13,3.13,0,0,1,.83,2.37v5.34h-2Z" transform="translate(-5.2 -5.8)"/><path class="cls-2" d="M69.45,86.11V85.33a2.43,2.43,0,0,1-2,.88,2.85,2.85,0,0,1-2-.75c-0.82-.83-0.83-2.28-0.83-3.52s0-2.68.83-3.51a2.81,2.81,0,0,1,2-.75,2.43,2.43,0,0,1,2,.83V74.7h2V86.11h-2ZM68,79.54c-1.22,0-1.38,1-1.38,2.39s0.16,2.4,1.38,2.4,1.4-1,1.4-2.4S69.23,79.54,68,79.54Z" transform="translate(-5.2 -5.8)"/><path class="cls-2" d="M77.81,86.11V85.39a2.46,2.46,0,0,1-2,.8,2.75,2.75,0,0,1-2.09-.74A2.71,2.71,0,0,1,73,83.58c0-1.33.9-2.42,2.79-2.42h1.93V80.75c0-.91-0.44-1.31-1.52-1.31a1.74,1.74,0,0,0-1.57.69l-1.3-1.3a3.4,3.4,0,0,1,3-1.15c2.29,0,3.48,1,3.48,2.95v5.5h-2Zm0-3.52H76.15a1,1,0,0,0-1.15.95,1,1,0,0,0,1.18,1,1.6,1.6,0,0,0,1.29-.4,1.39,1.39,0,0,0,.3-1.06V82.59Z" transform="translate(-5.2 -5.8)"/><path class="cls-2" d="M86.34,80a1.35,1.35,0,0,0-1.08-.5,1.38,1.38,0,0,0-1.32,1.54v5h-2V77.77h2v0.8a2.74,2.74,0,0,1,2.06-.9,2.44,2.44,0,0,1,1.93.78Z" transform="translate(-5.2 -5.8)"/><path class="cls-2" d="M92.63,87.46A3,3,0,0,1,92,88.53a2.33,2.33,0,0,1-1.76.64h-0.8V87.3h0.47a0.88,0.88,0,0,0,1-.75l0.35-1L88.5,77.77h2.15l1.7,5.16L94,77.77h2.15Z" transform="translate(-5.2 -5.8)"/><path class="cls-2" d="M103.62,86.21a5.19,5.19,0,0,1-4.08-1.51L101,83.26a3.61,3.61,0,0,0,2.7,1c1.29,0,2-.5,2-1.41a1.28,1.28,0,0,0-.35-1,1.65,1.65,0,0,0-1-.4l-1.35-.19a3.75,3.75,0,0,1-2.17-.95,3.05,3.05,0,0,1-.8-2.24c0-2,1.48-3.46,3.89-3.46a4.73,4.73,0,0,1,3.61,1.33l-1.38,1.39a3.07,3.07,0,0,0-2.29-.79A1.49,1.49,0,0,0,102.08,78a1.11,1.11,0,0,0,.33.82,1.9,1.9,0,0,0,1,.45l1.32,0.19a3.66,3.66,0,0,1,2.14.88,3.23,3.23,0,0,1,.86,2.42C107.76,85,106,86.21,103.62,86.21Z" transform="translate(-5.2 -5.8)"/><path class="cls-2" d="M112.91,86.21c-1.63,0-3.66-.9-3.66-4.28s2-4.26,3.66-4.26a3.45,3.45,0,0,1,2.7,1.12l-1.38,1.41a1.64,1.64,0,0,0-1.32-.66,1.41,1.41,0,0,0-1.16.55,2.87,2.87,0,0,0-.46,1.84,2.92,2.92,0,0,0,.46,1.86,1.41,1.41,0,0,0,1.16.55,1.64,1.64,0,0,0,1.32-.66l1.38,1.39A3.46,3.46,0,0,1,112.91,86.21Z" transform="translate(-5.2 -5.8)"/><path class="cls-2" d="M121.81,86.11V81a1.33,1.33,0,1,0-2.65,0v5.1h-2V74.7h2v3.83a2.68,2.68,0,0,1,2-.87c1.79,0,2.73,1.28,2.73,3v5.4h-2Z" transform="translate(-5.2 -5.8)"/><path class="cls-2" d="M131.59,85.18a3.35,3.35,0,0,1-2.54,1,3.31,3.31,0,0,1-2.53-1,4.3,4.3,0,0,1-.93-3.25,4.28,4.28,0,0,1,.93-3.24,3.31,3.31,0,0,1,2.53-1,3.35,3.35,0,0,1,2.54,1,4.28,4.28,0,0,1,.93,3.24A4.3,4.3,0,0,1,131.59,85.18ZM130,79.91a1.28,1.28,0,0,0-1-.37,1.24,1.24,0,0,0-.94.37,2.87,2.87,0,0,0-.47,2,2.91,2.91,0,0,0,.47,2,1.24,1.24,0,0,0,.94.37,1.28,1.28,0,0,0,1-.37,2.91,2.91,0,0,0,.47-2A2.87,2.87,0,0,0,130,79.91Z" transform="translate(-5.2 -5.8)"/><path class="cls-2" d="M140,85.18a3.35,3.35,0,0,1-2.54,1,3.31,3.31,0,0,1-2.53-1,4.3,4.3,0,0,1-.93-3.25A4.28,4.28,0,0,1,135,78.7a3.31,3.31,0,0,1,2.53-1,3.35,3.35,0,0,1,2.54,1,4.28,4.28,0,0,1,.93,3.24A4.3,4.3,0,0,1,140,85.18Zm-1.59-5.27a1.28,1.28,0,0,0-1-.37,1.24,1.24,0,0,0-.94.37,2.87,2.87,0,0,0-.47,2,2.91,2.91,0,0,0,.47,2,1.24,1.24,0,0,0,.94.37,1.28,1.28,0,0,0,1-.37,2.91,2.91,0,0,0,.47-2A2.87,2.87,0,0,0,138.44,79.91Z" transform="translate(-5.2 -5.8)"/><path class="cls-2" d="M145.09,86.11a2.25,2.25,0,0,1-2.39-2.39v-9h2V83.6a0.64,0.64,0,0,0,.72.75h0.78v1.76h-1.16Z" transform="translate(-5.2 -5.8)"/><path class="cls-2" d="M155.39,81.82h-2.15v4.29h-2.18V74.7h4.33A3.56,3.56,0,1,1,155.39,81.82Zm-0.11-5.13h-2v3.13h2A1.56,1.56,0,1,0,155.28,76.69Z" transform="translate(-5.2 -5.8)"/><path class="cls-2" d="M165.14,80a1.35,1.35,0,0,0-1.08-.5,1.37,1.37,0,0,0-1.32,1.54v5h-2V77.77h2v0.8a2.74,2.74,0,0,1,2.06-.9,2.44,2.44,0,0,1,1.93.78Z" transform="translate(-5.2 -5.8)"/><path class="cls-2" d="M167.92,76.34v-1.7H170v1.7h-2.09Zm0,9.77V77.77h2v8.35h-2Z" transform="translate(-5.2 -5.8)"/><path class="cls-2" d="M176.86,86.11v-5a1.37,1.37,0,1,0-2.71,0v5h-2V77.77h2v0.77a2.77,2.77,0,0,1,2-.87,2.61,2.61,0,0,1,1.93.74,3.13,3.13,0,0,1,.83,2.37v5.34h-2Z" transform="translate(-5.2 -5.8)"/><path class="cls-2" d="M184.26,86.21c-1.63,0-3.66-.9-3.66-4.28s2-4.26,3.66-4.26a3.45,3.45,0,0,1,2.7,1.12l-1.38,1.41a1.64,1.64,0,0,0-1.32-.66,1.4,1.4,0,0,0-1.16.55,2.87,2.87,0,0,0-.46,1.84,2.92,2.92,0,0,0,.46,1.86,1.4,1.4,0,0,0,1.16.55,1.64,1.64,0,0,0,1.32-.66L187,85.07A3.46,3.46,0,0,1,184.26,86.21Z" transform="translate(-5.2 -5.8)"/><path class="cls-2" d="M188.44,76.34v-1.7h2.09v1.7h-2.09Zm0,9.77V77.77h2v8.35h-2Z" transform="translate(-5.2 -5.8)"/><path class="cls-2" d="M198.64,85.46a2.82,2.82,0,0,1-2,.75,2.39,2.39,0,0,1-2-.83v3.8h-2V77.77h2v0.79a2.46,2.46,0,0,1,2-.88,2.82,2.82,0,0,1,2,.75c0.82,0.83.83,2.26,0.83,3.51S199.45,84.62,198.64,85.46ZM196,79.54c-1.22,0-1.38,1-1.38,2.39s0.16,2.4,1.38,2.4,1.38-1,1.38-2.4S197.27,79.54,196,79.54Z" transform="translate(-5.2 -5.8)"/><path class="cls-2" d="M205.61,86.11V85.39a2.46,2.46,0,0,1-2,.8,2.76,2.76,0,0,1-2.09-.74,2.71,2.71,0,0,1-.68-1.88c0-1.33.9-2.42,2.79-2.42h1.93V80.75c0-.91-0.44-1.31-1.52-1.31a1.74,1.74,0,0,0-1.57.69l-1.3-1.3a3.4,3.4,0,0,1,3-1.15c2.29,0,3.48,1,3.48,2.95v5.5h-2Zm0-3.52h-1.62a1,1,0,0,0-1.15.95,1,1,0,0,0,1.18,1,1.6,1.6,0,0,0,1.29-.4,1.39,1.39,0,0,0,.3-1.06V82.59Z" transform="translate(-5.2 -5.8)"/><path class="cls-2" d="M212,86.11a2.25,2.25,0,0,1-2.39-2.39v-9h2V83.6a0.64,0.64,0,0,0,.72.75h0.79v1.76H212Z" transform="translate(-5.2 -5.8)"/><path class="cls-2" d="M217.73,86.21a4.39,4.39,0,0,1-3.48-1.2l1.33-1.36a2.93,2.93,0,0,0,2.18.79c0.71,0,1.45-.24,1.45-0.87a0.76,0.76,0,0,0-.86-0.77l-1.29-.13c-1.47-.14-2.38-0.8-2.38-2.34,0-1.73,1.49-2.66,3.15-2.66a4.29,4.29,0,0,1,3.12,1l-1.25,1.3a2.81,2.81,0,0,0-1.9-.56,1,1,0,0,0-1.16.8,0.73,0.73,0,0,0,.85.72L218.76,81a2.34,2.34,0,0,1,2.43,2.45C221.2,85.33,219.66,86.21,217.73,86.21Z" transform="translate(-5.2 -5.8)"/><path class="cls-2" d="M85.2,66.54l-4.38-7v7H78.66V55.13h1.93l4.38,7v-7h2.16V66.54H85.2Z" transform="translate(-5.2 -5.8)"/><path class="cls-2" d="M93.57,66.54V65.81a2.42,2.42,0,0,1-2,.8A2.44,2.44,0,0,1,88.85,64c0-1.33.89-2.42,2.77-2.42h1.91V61.17c0-.91-0.44-1.31-1.51-1.31a1.71,1.71,0,0,0-1.55.69l-1.29-1.3a3.35,3.35,0,0,1,2.92-1.15c2.27,0,3.45,1,3.45,2.95v5.5h-2Zm0-3.52h-1.6a1,1,0,0,0-1.13.95,1,1,0,0,0,1.17,1,1.57,1.57,0,0,0,1.27-.4,1.39,1.39,0,0,0,.3-1.06V63Z" transform="translate(-5.2 -5.8)"/><path class="cls-2" d="M100.18,66.54a2.23,2.23,0,0,1-2.35-2.39V60H97V58.43h0.85V56h2v2.47h1.43V60H99.85v4a0.64,0.64,0,0,0,.7.75h0.73v1.76h-1.1Z" transform="translate(-5.2 -5.8)"/><path class="cls-2" d="M103,56.76v-1.7H105v1.7H103Zm0,9.77V58.19h2v8.35h-2Z" transform="translate(-5.2 -5.8)"/><path class="cls-2" d="M112.74,65.61a3.3,3.3,0,0,1-2.52,1,3.26,3.26,0,0,1-2.5-1,4.33,4.33,0,0,1-.92-3.25,4.31,4.31,0,0,1,.92-3.24,3.26,3.26,0,0,1,2.5-1,3.3,3.3,0,0,1,2.52,1,4.31,4.31,0,0,1,.92,3.24A4.33,4.33,0,0,1,112.74,65.61Zm-1.57-5.27a1.26,1.26,0,0,0-.95-0.37,1.22,1.22,0,0,0-.93.37,2.89,2.89,0,0,0-.47,2,2.93,2.93,0,0,0,.47,2,1.22,1.22,0,0,0,.93.37,1.26,1.26,0,0,0,.95-0.37,2.93,2.93,0,0,0,.47-2A2.89,2.89,0,0,0,111.17,60.33Z" transform="translate(-5.2 -5.8)"/><path class="cls-2" d="M120.17,66.54v-5a1.35,1.35,0,1,0-2.69,0v5h-2V58.19h2V59a2.73,2.73,0,0,1,2-.87,2.58,2.58,0,0,1,1.91.74,3.15,3.15,0,0,1,.82,2.37v5.34h-2Z" transform="translate(-5.2 -5.8)"/><path class="cls-2" d="M128.42,66.54V65.81a2.42,2.42,0,0,1-2,.8A2.44,2.44,0,0,1,123.7,64c0-1.33.89-2.42,2.77-2.42h1.91V61.17c0-.91-0.44-1.31-1.51-1.31a1.71,1.71,0,0,0-1.55.69L124,59.24a3.35,3.35,0,0,1,2.92-1.15c2.27,0,3.45,1,3.45,2.95v5.5h-2Zm0-3.52h-1.6a1,1,0,0,0-1.13.95,1,1,0,0,0,1.17,1,1.57,1.57,0,0,0,1.27-.4,1.39,1.39,0,0,0,.3-1.06V63Z" transform="translate(-5.2 -5.8)"/><path class="cls-2" d="M134.73,66.54a2.24,2.24,0,0,1-2.36-2.39v-9h2V64a0.64,0.64,0,0,0,.71.75h0.78v1.76h-1.15Z" transform="translate(-5.2 -5.8)"/><path class="cls-2" d="M146.94,66.54l-0.65-2h-3.93l-0.67,2h-2.25l4-11.41h1.69l4,11.41h-2.25Zm-2.58-8L143,62.64h2.75Z" transform="translate(-5.2 -5.8)"/><path class="cls-2" d="M153.44,66.63a4.32,4.32,0,0,1-3.45-1.2l1.32-1.36a2.88,2.88,0,0,0,2.16.79c0.7,0,1.43-.24,1.43-0.87a0.76,0.76,0,0,0-.85-0.77l-1.28-.13c-1.46-.14-2.36-0.8-2.36-2.34,0-1.73,1.48-2.66,3.12-2.66a4.21,4.21,0,0,1,3.09,1l-1.24,1.3a2.75,2.75,0,0,0-1.88-.56,0.94,0.94,0,0,0-1.15.8,0.72,0.72,0,0,0,.84.72l1.27,0.13a2.33,2.33,0,0,1,2.41,2.45C156.87,65.75,155.35,66.63,153.44,66.63Z" transform="translate(-5.2 -5.8)"/><path class="cls-2" d="M161.32,66.63a4.32,4.32,0,0,1-3.45-1.2l1.32-1.36a2.88,2.88,0,0,0,2.16.79c0.7,0,1.43-.24,1.43-0.87a0.76,0.76,0,0,0-.86-0.77l-1.27-.13c-1.46-.14-2.36-0.8-2.36-2.34,0-1.73,1.48-2.66,3.12-2.66a4.22,4.22,0,0,1,3.09,1l-1.24,1.3a2.75,2.75,0,0,0-1.88-.56,0.94,0.94,0,0,0-1.15.8,0.72,0.72,0,0,0,.84.72l1.27,0.13a2.32,2.32,0,0,1,2.41,2.45C164.75,65.75,163.23,66.63,161.32,66.63Z" transform="translate(-5.2 -5.8)"/><path class="cls-2" d="M172,65.61a3.3,3.3,0,0,1-2.52,1,3.26,3.26,0,0,1-2.5-1,4.33,4.33,0,0,1-.92-3.25,4.31,4.31,0,0,1,.92-3.24,3.26,3.26,0,0,1,2.5-1,3.3,3.3,0,0,1,2.52,1,4.31,4.31,0,0,1,.92,3.24A4.33,4.33,0,0,1,172,65.61Zm-1.57-5.27a1.25,1.25,0,0,0-.95-0.37,1.22,1.22,0,0,0-.93.37,2.89,2.89,0,0,0-.47,2,2.94,2.94,0,0,0,.47,2,1.22,1.22,0,0,0,.93.37,1.25,1.25,0,0,0,.95-0.37,2.93,2.93,0,0,0,.47-2A2.88,2.88,0,0,0,170.47,60.33Z" transform="translate(-5.2 -5.8)"/><path class="cls-2" d="M178,66.63c-1.62,0-3.62-.9-3.62-4.28s2-4.26,3.62-4.26a3.4,3.4,0,0,1,2.67,1.12l-1.37,1.41A1.62,1.62,0,0,0,178,60a1.39,1.39,0,0,0-1.15.55,2.9,2.9,0,0,0-.45,1.84,3,3,0,0,0,.45,1.86,1.39,1.39,0,0,0,1.15.55,1.62,1.62,0,0,0,1.31-.66l1.37,1.39A3.41,3.41,0,0,1,178,66.63Z" transform="translate(-5.2 -5.8)"/><path class="cls-2" d="M182.17,56.76v-1.7h2.07v1.7h-2.07Zm0,9.77V58.19h2v8.35h-2Z" transform="translate(-5.2 -5.8)"/><path class="cls-2" d="M190.5,66.54V65.81a2.42,2.42,0,0,1-2,.8A2.44,2.44,0,0,1,185.77,64c0-1.33.89-2.42,2.77-2.42h1.91V61.17c0-.91-0.43-1.31-1.51-1.31a1.71,1.71,0,0,0-1.55.69l-1.29-1.3A3.35,3.35,0,0,1,189,58.09c2.27,0,3.45,1,3.45,2.95v5.5h-2Zm0-3.52h-1.6a1,1,0,0,0-1.13.95,1,1,0,0,0,1.16,1,1.56,1.56,0,0,0,1.27-.4,1.39,1.39,0,0,0,.3-1.06V63Z" transform="translate(-5.2 -5.8)"/><path class="cls-2" d="M197.1,66.54a2.23,2.23,0,0,1-2.35-2.39V60H193.9V58.43h0.85V56h2v2.47h1.43V60h-1.43v4a0.64,0.64,0,0,0,.7.75h0.73v1.76h-1.1Z" transform="translate(-5.2 -5.8)"/><path class="cls-2" d="M199.9,56.76v-1.7H202v1.7H199.9Zm0,9.77V58.19h2v8.35h-2Z" transform="translate(-5.2 -5.8)"/><path class="cls-2" d="M209.67,65.61a3.3,3.3,0,0,1-2.52,1,3.26,3.26,0,0,1-2.5-1,4.33,4.33,0,0,1-.92-3.25,4.31,4.31,0,0,1,.92-3.24,3.26,3.26,0,0,1,2.5-1,3.3,3.3,0,0,1,2.52,1,4.31,4.31,0,0,1,.92,3.24A4.33,4.33,0,0,1,209.67,65.61Zm-1.57-5.27a1.26,1.26,0,0,0-.95-0.37,1.22,1.22,0,0,0-.93.37,2.88,2.88,0,0,0-.47,2,2.93,2.93,0,0,0,.47,2,1.22,1.22,0,0,0,.93.37,1.26,1.26,0,0,0,.95-0.37,2.94,2.94,0,0,0,.47-2A2.89,2.89,0,0,0,208.1,60.33Z" transform="translate(-5.2 -5.8)"/><path class="cls-2" d="M217.09,66.54v-5a1.35,1.35,0,1,0-2.69,0v5h-2V58.19h2V59a2.73,2.73,0,0,1,2-.87,2.58,2.58,0,0,1,1.91.74,3.15,3.15,0,0,1,.82,2.37v5.34h-2Z" transform="translate(-5.2 -5.8)"/><rect class="cls-3" x="0.98" width="60.76" height="60.76"/><path class="cls-4" d="M26,51C22.21,32.34,38,18.48,48.65,16.88A16.27,16.27,0,0,0,48.5,5.8H42.35c-1.52,5.55-6.69,9.89-10.93,13.52C18.31,30.56,10.75,49.54,25,66.56H39.11C43.36,53.94,59.9,54.73,63.58,54a24.9,24.9,0,0,0,3.35-.91V38.28a25.15,25.15,0,0,1-4.11,1A28.57,28.57,0,0,0,44.93,49.87c5.62-12.51,14-12.21,22-17.84V15.56a19.47,19.47,0,0,1-5.26,1.32c-5,.57-13.11,2.19-17,3.78C31.86,25.91,24.82,40.42,26,51M41.77,66.56H54.89a20.52,20.52,0,0,0,1.84-10.18c-2.53,4.7-1.82,4.7-9.35,6.12a9.28,9.28,0,0,0-5.61,4.06" transform="translate(-5.2 -5.8)"/><path class="cls-1" d="M220.27,17.28v3.22h-0.38V17.28h-1V16.94h2.44v0.34h-1Z" transform="translate(-5.2 -5.8)"/><path class="cls-1" d="M224.64,20.51V17.8l-1,2.15h-0.33l-1-2.15v2.71H222V16.94h0.38l1.16,2.53,1.13-2.53H225v3.56h-0.38Z" transform="translate(-5.2 -5.8)"/></svg>