<?xml version="1.0" encoding="utf-8"?>
<!-- Generator: Adobe Illustrator 21.1.0, SVG Export Plug-In . SVG Version: 6.00 Build 0)  -->
<svg version="1.1" id="Layer_1" xmlns="http://www.w3.org/2000/svg" xmlns:xlink="http://www.w3.org/1999/xlink" x="0px" y="0px"
	 viewBox="0 0 170 170" style="enable-background:new 0 0 170 170;" xml:space="preserve">
<style type="text/css">
	.st0{fill:#FFFFFF;}
	.st1{fill:none;}
	.st2{fill:#005B94;}
	.st3{fill:#E2231A;}
</style>
<ellipse transform="matrix(0.99 -0.1411 0.1411 0.99 -10.1256 11.6185)" class="st0" cx="76.9" cy="77.2" rx="75.6" ry="75.6"/>
<ellipse transform="matrix(0.99 -0.1411 0.1411 0.99 -10.1256 11.6185)" class="st0" cx="76.9" cy="77.2" rx="75.6" ry="75.6"/>
<g>
	<path class="st1" d="M143.6,92.7c0.2-1.1,0.5-2.2,0.7-3.3L15.6,107.7c0.6,1,1.1,2.1,1.6,3L143.6,92.7z"/>
	<path class="st2" d="M86.6,144.4c28.6-4.1,50.6-25.3,57.1-51.8l-126.4,18C30.9,134.3,57.9,148.5,86.6,144.4z"/>
</g>
<g>
	<path class="st1" d="M10,59.6c-0.2,1.1-0.6,2.2-0.7,3.3l128.6-18.3c-0.6-1-1.1-2.1-1.6-3L10,59.6z"/>
	<path class="st2" d="M67.1,8.1c-28.5,4.1-50.5,25.1-57,51.5l126.1-18C122.5,18.2,95.7,4.1,67.1,8.1z"/>
</g>
<path class="st1" d="M10,59.6c-0.2,1.1-0.6,2.2-0.7,3.3l128.6-18.3c-0.6-1-1.1-2.1-1.6-3L10,59.6z"/>
<path class="st1" d="M10,59.6c-0.2,1.1-0.6,2.2-0.7,3.3l128.6-18.3c-0.6-1-1.1-2.1-1.6-3L10,59.6z"/>
<path class="st1" d="M10,59.6c-0.2,1.1-0.6,2.2-0.7,3.3l128.6-18.3c-0.6-1-1.1-2.1-1.6-3L10,59.6z"/>
<path class="st3" d="M145,66.5c-1.1-7.9-3.6-15.2-7.1-21.9L9.3,62.9c-1.5,7.4-1.8,15.2-0.7,23s3.5,15.1,6.9,21.6l128.8-18.4
	C145.8,82,146.1,74.3,145,66.5z"/>
<g>
	<path class="st0" d="M19.7,58.2l6.5-0.9l-3.4-23.7c-2,2.5-3.8,5.2-5.5,8.1L19.7,58.2z"/>
	<path class="st0" d="M41,23.2l-6.5,0.9l3,21.3l-0.1,0L26.9,28.9c-1.2,1.4-2.4,2.8-3.7,4.2L38,55.5l7.4-1.1L41,23.2L41,23.2z"/>
</g>
<path class="st2" d="M57.2,26.5l-0.2,0l-1.4,14l7-1L57.2,26.5z"/>
<path class="st0" d="M60.7,20.4L52,21.6l-4.3,32.6l6.6-0.9l0.9-7.4l9.6-1.4l2.9,6.9l6.6-0.9L60.7,20.4z M55.6,40.6l1.4-14l0.2,0
	l5.4,13.1L55.6,40.6z"/>
<polygon class="st0" points="86.8,48.7 83.1,22.8 91.5,21.6 90.7,16.1 67.4,19.4 68.2,24.9 76.6,23.7 80.3,49.6 "/>
<path class="st0" d="M52.4,101.8c2.3-1.6,4-3.7,4.9-6.2c1-2.5,1.2-4.9,0.9-7.2c-0.3-2.2-1.1-4.3-2.4-6.1c-1.3-1.9-3-3.4-5.2-4.4
	c-2.2-1-5.3-1.7-9.3-2.1s-6.6-1-7.6-1.8c-1.1-0.7-1.8-1.8-2-3.1c-0.2-1.6,0.2-3.1,1.2-4.3s2.5-2.1,4.5-2.4c1.6-0.2,3.1,0,4.5,0.7
	c1.4,0.6,2.9,1.8,4.4,3.4l7-4.1c-1.2-1.4-2.3-2.6-3.4-3.5c-1.7-1.2-3.6-2.1-5.8-2.7c-0.1,0-0.1,0-0.2-0.1l-14.2,2
	c-1.4,0.8-2.6,1.8-3.5,3c-2.3,2.9-3.3,6.2-2.7,10.1c0.5,3.6,2.3,6.3,5.3,8.4c2.4,1.6,6.2,2.7,11.5,3.3c3.8,0.5,6.3,1.1,7.6,2.1
	c1.2,0.9,1.9,2.1,2.1,3.5c0.2,1.6-0.3,3.1-1.4,4.4c-1.1,1.4-2.9,2.2-5.3,2.6c-2,0.3-3.7,0-5.3-0.7c-1.6-0.7-3.2-2.2-5.1-4.2
	l-7.5,4.3c1.4,1.8,2.6,3.3,3.7,4.3c1.8,1.6,3.9,2.7,6.3,3.4c0.2,0.1,0.4,0,0.6,0.1l14.9-2.1C51.7,102.3,52.1,102.1,52.4,101.8z"/>
<polygon class="st0" points="81.2,98.3 75.9,61 88.6,59.2 87.5,51.8 53.4,56.7 54.4,64.1 67,62.3 72.3,99.6 "/>
<path class="st0" d="M125.8,88.8c2.5-3.4,3.5-8,2.7-13.5l-4.1-28.7l-8.9,1.3l3.9,27.4c0.3,2.4,0.2,4.4-0.3,6.1
	c-0.6,1.7-1.5,2.9-2.8,3.8s-2.7,1.5-4.5,1.8c-2.8,0.4-5-0.2-6.9-1.6c-1.9-1.4-3-4-3.5-7.5l-3.9-27.4l-8.9,1.3l4.1,29
	c0.5,3.5,1.4,6.1,2.6,8s2.6,3.4,4.3,4.5c1.1,0.7,2.5,1.4,4.2,1.7c0.3,0.1,0.5,0.1,0.8,0.2l16.7-2.4
	C123.2,91.6,124.6,90.3,125.8,88.8z"/>
<g>
	<path class="st1" d="M15.6,107.7c0.6,1,1.1,2.1,1.6,3l126.4-18c0.2-1.1,0.5-2.2,0.7-3.3L15.6,107.7z"/>
	<path class="st0" d="M65.8,136.3c6.7-7,7.7-18.7-0.5-24c3.1,5.5-0.3,10.5-7.4,12.2c-4.2,1.1-10.9,3.5-13.9,5.3
		c-1.9,1.1-3.5,2.4-4.9,3.9c5.7,3.7,12.1,6.7,18.7,8.5C60.5,140.6,63.3,139,65.8,136.3z"/>
	<path class="st0" d="M37.4,132.8c2.8-3.2,6.2-5.5,9.3-6.5c0.7-6.1-1.9-11.9-9.3-15.3c4.6,7.3-0.2,13.6-4.3,18.6
		C34.6,130.6,36,131.7,37.4,132.8z"/>
	<path class="st0" d="M73,131.6c1.8,6.3-5.5,10.6-10,11.9c-0.1,0-0.2,0-0.3,0c4.7,0.9,9.5,1.5,14.5,1.5
		C78.3,140.5,77,135.4,73,131.6z"/>
</g>
<g>
	<path class="st1" d="M15.6,107.7c0.6,1,1.1,2.1,1.6,3l126.4-18c0.2-1.1,0.5-2.2,0.7-3.3L15.6,107.7z"/>
	<path class="st0" d="M65.8,136.3c6.7-7,7.7-18.7-0.5-24c3.1,5.5-0.3,10.5-7.4,12.2c-4.2,1.1-10.9,3.5-13.9,5.3
		c-1.9,1.1-3.5,2.4-4.9,3.9c5.7,3.7,12.1,6.7,18.7,8.5C60.5,140.6,63.3,139,65.8,136.3z"/>
	<path class="st0" d="M37.4,132.8c2.8-3.2,6.2-5.5,9.3-6.5c0.7-6.1-1.9-11.9-9.3-15.3c4.6,7.3-0.2,13.6-4.3,18.6
		C34.6,130.6,36,131.7,37.4,132.8z"/>
	<path class="st0" d="M73,131.6c1.8,6.3-5.5,10.6-10,11.9c-0.1,0-0.2,0-0.3,0c4.7,0.9,9.5,1.5,14.5,1.5
		C78.3,140.5,77,135.4,73,131.6z"/>
</g>
<g>
	<path class="st1" d="M15.6,107.7c0.6,1,1.1,2.1,1.6,3l126.4-18c0.2-1.1,0.5-2.2,0.7-3.3L15.6,107.7z"/>
	<path class="st0" d="M65.8,136.3c6.7-7,7.7-18.7-0.5-24c3.1,5.5-0.3,10.5-7.4,12.2c-4.2,1.1-10.9,3.5-13.9,5.3
		c-1.9,1.1-3.5,2.4-4.9,3.9c5.7,3.7,12.1,6.7,18.7,8.5C60.5,140.6,63.3,139,65.8,136.3z"/>
	<path class="st0" d="M37.4,132.8c2.8-3.2,6.2-5.5,9.3-6.5c0.7-6.1-1.9-11.9-9.3-15.3c4.6,7.3-0.2,13.6-4.3,18.6
		C34.6,130.6,36,131.7,37.4,132.8z"/>
	<path class="st0" d="M73,131.6c1.8,6.3-5.5,10.6-10,11.9c-0.1,0-0.2,0-0.3,0c4.7,0.9,9.5,1.5,14.5,1.5
		C78.3,140.5,77,135.4,73,131.6z"/>
</g>
<g>
	<path class="st1" d="M15.6,107.7c0.6,1,1.1,2.1,1.6,3l126.4-18c0.2-1.1,0.5-2.2,0.7-3.3L15.6,107.7z"/>
	<path class="st0" d="M65.8,136.3c6.7-7,7.7-18.7-0.5-24c3.1,5.5-0.3,10.5-7.4,12.2c-4.2,1.1-10.9,3.5-13.9,5.3
		c-1.9,1.1-3.5,2.4-4.9,3.9c5.7,3.7,12.1,6.7,18.7,8.5C60.5,140.6,63.3,139,65.8,136.3z"/>
	<path class="st0" d="M37.4,132.8c2.8-3.2,6.2-5.5,9.3-6.5c0.7-6.1-1.9-11.9-9.3-15.3c4.6,7.3-0.2,13.6-4.3,18.6
		C34.6,130.6,36,131.7,37.4,132.8z"/>
	<path class="st0" d="M73,131.6c1.8,6.3-5.5,10.6-10,11.9c-0.1,0-0.2,0-0.3,0c4.7,0.9,9.5,1.5,14.5,1.5
		C78.3,140.5,77,135.4,73,131.6z"/>
</g>
<g>
	<path class="st0" d="M16.8,143.8l-0.9-0.9l0-0.2l1.9-6.5l-4,4.4c-0.1,0.1-0.1,0.1-0.2,0l-1-1c-0.1-0.1-0.1-0.1,0-0.2l6.3-6.7
		c0.1-0.1,0.1-0.1,0.2,0l0.9,0.9l0,0.2l-2,6.5L22,136c0.1-0.1,0.1-0.1,0.2,0l1,1c0.1,0.1,0.1,0.1,0,0.2l-6.3,6.7
		C16.9,143.9,16.8,143.9,16.8,143.8z"/>
	<path class="st0" d="M25,150.1c-0.1,0.1-0.1,0.1-0.2,0l-1.2-0.9c-0.1-0.1-0.1-0.1,0-0.2l0.6-1.5c0-0.1,0-0.1,0-0.2l-1.7-1.3
		c-0.1-0.1-0.1-0.1-0.2,0l-1.3,1c-0.1,0-0.1,0-0.2,0l-1.2-0.9c-0.1-0.1-0.1-0.1,0-0.2c0,0,0,0,0.1,0l7.8-5.6c0.1,0,0.1,0,0.2,0
		l0.9,0.7c0.1,0.1,0.1,0.1,0,0.2L25,150.1L25,150.1z M25.6,143.8c0.1-0.1,0.2-0.3,0.4-0.8l0,0c-0.4,0.4-0.5,0.5-0.6,0.6l-1.6,1.2
		c0,0,0,0-0.1,0c-0.1,0.1-0.1,0.1,0,0.2l0.9,0.7c0.1,0.1,0.1,0.1,0.2,0c0,0,0,0,0-0.1L25.6,143.8z"/>
	<path class="st0" d="M35.2,147.4l-1.3-0.9c-0.1-0.1-0.1-0.1-0.2,0l-4,6.4c-0.1,0.1-0.1,0.1-0.2,0l-1.2-0.7c-0.1-0.1-0.1-0.1,0-0.2
		l4-6.4c0.1-0.1,0.1-0.1,0-0.2l-1.3-0.9c-0.1-0.1-0.1-0.1,0-0.2l0.7-1.1c0.1-0.1,0.1-0.1,0.2,0l4.4,2.8c0.1,0.1,0.1,0.1,0,0.2
		l-0.7,1.1C35.3,147.4,35.3,147.5,35.2,147.4z"/>
	<path class="st0" d="M35.3,156.4l-1.3-0.6c-0.1-0.1-0.1-0.1,0-0.2l4.3-8.1c0.1-0.1,0.1-0.1,0.2,0l1.3,0.6c0.1,0.1,0.1,0.1,0,0.2
		l-4.3,8.1C35.5,156.5,35.5,156.5,35.3,156.4z"/>
	<path class="st0" d="M42,159.7l-0.7-0.3c-1.6-0.7-2.1-2-1.5-3.5l1.7-4.1c0.6-1.5,2-2,3.6-1.3l0.7,0.3c1.5,0.7,2.1,2,1.5,3.5
		l-1.7,4.1C44.9,159.8,43.5,160.3,42,159.7z M45.6,153.5c0.2-0.5,0-1.2-0.6-1.4l-0.7-0.3c-0.5-0.2-1.2,0.1-1.4,0.6l-1.7,4.1
		c-0.2,0.5,0.1,1.2,0.6,1.4l0.7,0.3c0.5,0.2,1.2-0.1,1.4-0.6L45.6,153.5z"/>
	<path class="st0" d="M54.1,163.6l-1.2-0.3l-0.1-0.1l-1.3-6.7l-1.6,5.7c0,0.1-0.1,0.1-0.2,0.1l-1.4-0.4c-0.1,0-0.1-0.1-0.1-0.2
		l2.6-8.8c0-0.1,0.1-0.1,0.2-0.1l1.2,0.3l0.1,0.1l1.3,6.7l1.6-5.8c0-0.1,0.1-0.1,0.2-0.1l1.4,0.4c0.1,0,0.1,0.1,0.1,0.2l-2.6,8.8
		C54.2,163.6,54.2,163.7,54.1,163.6z"/>
	<path class="st0" d="M64.3,165.6c0,0.1-0.1,0.1-0.2,0.1l-1.5-0.3c-0.1,0-0.1-0.1-0.1-0.1l-0.1-1.6c0-0.1,0-0.1-0.1-0.1l-2.1-0.4
		c-0.1,0-0.1,0-0.2,0l-0.7,1.5c0,0.1-0.1,0.1-0.2,0.1l-1.5-0.3c-0.1,0-0.1-0.1-0.1-0.2c0,0,0,0,0-0.1l4.3-8.5
		c0.1-0.1,0.1-0.1,0.2-0.1l1,0.2c0.1,0,0.1,0.1,0.1,0.1L64.3,165.6C64.3,165.5,64.3,165.6,64.3,165.6z M62,159.7
		c0-0.1-0.1-0.4,0-0.8l0,0c-0.1,0.4-0.3,0.7-0.3,0.7l-0.8,1.8c0,0,0,0,0,0.1c0,0.1,0,0.1,0.1,0.2l1,0.2c0.1,0,0.2,0,0.2-0.1
		c0,0,0,0,0-0.1L62,159.7z"/>
	<path class="st0" d="M72.6,166.4l-5.3-0.5c-0.1,0-0.1-0.1-0.1-0.2l0.7-9.1c0-0.1,0.1-0.1,0.2-0.1l1.4,0.1c0.1,0,0.1,0.1,0.1,0.2
		l-0.5,7.6c0,0.1,0,0.2,0.1,0.2l3.6,0.3c0.1,0,0.1,0.1,0.1,0.2l-0.1,1.2C72.8,166.4,72.7,166.4,72.6,166.4z"/>
	<path class="st0" d="M81.3,159.4c0,0.7,0.7,0.9,1.8,1.3c1.6,0.6,2.4,1.4,2.5,2.9c0.1,1.6-0.9,2.8-2.6,2.8l-0.6,0.1
		c-0.9,0-1.5-0.1-2-0.5c-0.6-0.4-0.7-0.9-0.7-1c0,0,0-0.1,0.1-0.1l1.2-0.7c0,0,0,0,0.1,0c0.1,0,0.1,0.2,0.4,0.5
		c0.1,0.3,0.6,0.5,0.9,0.5l0.6-0.1c0.6-0.1,1-0.6,1-1.2c0-0.7-0.7-1-1.7-1.4c-1.7-0.7-2.6-1.2-2.7-2.7c-0.1-1.6,0.9-2.8,2.6-2.8
		l0.2,0c0.7-0.1,1.2,0,1.8,0.4c0.7,0.4,1.1,1.1,1.1,1.2c0,0.1,0,0.1-0.1,0.1l-1.2,0.7l-0.1,0c-0.1,0-0.1-0.1-0.2-0.2
		c-0.3-0.5-0.6-0.7-1-0.7l-0.2,0C81.8,158.3,81.2,158.8,81.3,159.4z"/>
	<path class="st0" d="M92.5,157.1l-1.6,0.2c-0.1,0-0.1,0-0.1,0.2l1.2,7.5c0,0.1,0,0.2-0.1,0.2l-1.4,0.2c-0.1,0-0.2,0-0.2-0.1
		l-1.2-7.5c0-0.1,0-0.1-0.2-0.1l-1.6,0.2c-0.1,0-0.2,0-0.2-0.1l-0.2-1.3c0-0.1,0-0.2,0.1-0.2l5.2-0.8c0.1,0,0.2,0,0.2,0.1l0.2,1.3
		C92.7,157,92.6,157.1,92.5,157.1z"/>
	<path class="st0" d="M100.5,163.5l-0.7,0.2c-1.7,0.4-3-0.3-3.4-1.8l-1.7-6.5c0-0.1,0-0.2,0.1-0.2l1.4-0.4c0.1,0,0.2,0,0.2,0.1
		l1.7,6.5c0.2,0.6,0.7,0.9,1.3,0.7l0.7-0.2c0.6-0.2,0.9-0.7,0.7-1.3L99,154c0-0.1,0-0.2,0.1-0.2l1.4-0.4c0.1,0,0.2,0,0.2,0.1
		l1.7,6.5C102.9,161.7,102.1,163,100.5,163.5z"/>
	<path class="st0" d="M110.2,160.1l-3.2,1.3c-0.1,0-0.2,0-0.2-0.1l-3.3-8.5c0-0.1,0-0.2,0.1-0.2l3.2-1.3c1.6-0.6,3,0,3.7,1.6
		l1.4,3.6C112.3,158,111.7,159.4,110.2,160.1z M108.7,153.3c-0.2-0.6-0.8-0.8-1.4-0.6l-1.5,0.6c-0.1,0-0.1,0.1-0.1,0.2l2.2,5.5
		c0,0.1,0.1,0.1,0.2,0.1l1.5-0.6c0.6-0.2,0.8-0.8,0.6-1.4L108.7,153.3z"/>
	<path class="st0" d="M121.1,154.9l-4.7,2.5c-0.1,0-0.2,0-0.2-0.1l-4.3-8.1c0-0.1,0-0.2,0.1-0.2l4.7-2.5c0.1,0,0.2,0,0.2,0.1
		l0.6,1.1c0,0.1,0,0.2-0.1,0.2l-3.2,1.7c-0.1,0-0.1,0.1-0.1,0.2l1,1.8c0,0.1,0.1,0.1,0.2,0.1l2.6-1.4c0.1,0,0.2,0,0.2,0.1l0.6,1.1
		c0,0.1,0,0.2-0.1,0.2l-2.6,1.4c-0.1,0-0.1,0.1-0.1,0.2l1,1.9c0,0.1,0.1,0.1,0.2,0.1l3.2-1.7c0.1,0,0.2,0,0.2,0.1L121.1,154.9
		C121.2,154.8,121.2,154.9,121.1,154.9z"/>
	<path class="st0" d="M129.5,149.5l-1,0.7l-0.2,0l-5.9-3.3l3.4,4.9c0,0.1,0,0.2-0.1,0.2l-1.2,0.8c-0.1,0-0.2,0-0.2-0.1l-5.1-7.6
		c0-0.1,0-0.2,0.1-0.2l1-0.7l0.2,0l5.9,3.4l-3.4-5c0-0.1,0-0.2,0.1-0.2l1.1-0.8c0.1,0,0.2,0,0.2,0.1l5.1,7.6
		C129.6,149.4,129.6,149.5,129.5,149.5z"/>
	<path class="st0" d="M131.4,137.9l-1.3,1.1c-0.1,0.1-0.1,0.1,0,0.2l4.9,5.8c0.1,0.1,0,0.2,0,0.2L134,146c-0.1,0.1-0.2,0-0.2,0
		l-4.9-5.8c-0.1-0.1-0.1-0.1-0.2,0l-1.3,1.1c-0.1,0.1-0.2,0-0.2,0l-0.8-1c-0.1-0.1,0-0.2,0-0.2l4.1-3.4c0.1,0,0.2,0,0.2,0l0.8,1
		C131.5,137.7,131.5,137.8,131.4,137.9z"/>
	<path class="st0" d="M144.9,132.9c0.1,0.1,0.3,0.6,0.4,1.3c0.1,0.6-0.2,1.2-0.7,1.9l-0.5,0.6c-1.1,1.3-2.6,1.4-3.8,0.3l-3.4-3
		c-1.2-1-1.3-2.5-0.1-3.8l0.5-0.6c0.4-0.5,0.9-0.8,1.5-0.9c0.7-0.2,1.4,0,1.6,0.2c0,0,0,0.1,0,0.2l-0.4,1.4c0,0,0,0,0,0.1
		c-0.1,0.1-0.1,0-0.3-0.1c-0.5-0.1-0.9-0.1-1.2,0.3l-0.5,0.6c-0.4,0.5-0.3,1.2,0.1,1.5l3.4,3c0.5,0.4,1.2,0.3,1.5-0.1l0.5-0.6
		c0.3-0.3,0.3-0.7,0.1-1.2c0-0.2-0.1-0.3-0.1-0.4c0,0,0,0,0.1,0l1.3-0.5C144.8,132.8,144.9,132.9,144.9,132.9z"/>
	<path class="st0" d="M150.4,128.7l-0.4,0.6c-1,1.4-2.5,1.7-3.7,0.7l-3.6-2.6c-1.2-0.9-1.5-2.4-0.6-3.9l0.4-0.6
		c1-1.4,2.5-1.7,3.7-0.7l3.6,2.6C151.1,125.9,151.3,127.3,150.4,128.7z M145.2,123.7c-0.5-0.3-1.1-0.2-1.5,0.2l-0.4,0.6
		c-0.3,0.5-0.2,1.1,0.2,1.5l3.6,2.6c0.5,0.3,1.1,0.2,1.5-0.2l0.4-0.6c0.3-0.5,0.2-1.1-0.2-1.5L145.2,123.7z"/>
	<path class="st0" d="M155.7,120.1l-0.3,0.7c-0.8,1.4-2.2,1.9-3.7,1.1l-5.9-3.3c-0.1-0.1-0.1-0.1,0-0.2l0.7-1.2
		c0.1-0.1,0.1-0.1,0.2,0l5.9,3.3c0.6,0.3,1.1,0.1,1.5-0.4l0.3-0.7c0.3-0.6,0.1-1.1-0.4-1.5l-5.9-3.3c-0.1-0.1-0.1-0.1,0-0.2l0.7-1.2
		c0.1-0.1,0.1-0.1,0.2,0l5.9,3.3C156.2,117.2,156.5,118.7,155.7,120.1z"/>
	<path class="st0" d="M161.1,108.5l-0.4,1.2l-0.1,0.1l-6.8,0.5l5.5,2.3c0.1,0.1,0.1,0.1,0.1,0.2l-0.5,1.3c-0.1,0.1-0.1,0.1-0.2,0.1
		l-8.4-3.6c-0.1-0.1-0.1-0.1-0.1-0.2l0.4-1.2l0.1-0.1l6.8-0.5l-5.6-2.2c-0.1-0.1-0.1-0.1-0.1-0.2l0.5-1.3c0-0.1,0.1-0.1,0.2-0.1
		l8.4,3.6C161.1,108.4,161.1,108.4,161.1,108.5z"/>
	<path class="st0" d="M162.6,98.4c0.1,0.1,0.5,0.3,0.8,1c0.3,0.6,0.4,1.3,0.1,2l-0.2,0.7c-0.5,1.6-1.8,2.4-3.4,1.9l-4.2-1.3
		c-1.5-0.5-2.2-1.8-1.7-3.4l0.2-0.7c0.2-0.6,0.5-1.2,1-1.5c0.5-0.5,1.3-0.6,1.5-0.5c0.1,0,0.1,0.1,0.1,0.1l0.2,1.5l0,0.1
		c0,0.1-0.1,0.1-0.3,0.1c-0.5,0.1-0.9,0.3-1,0.7l-0.2,0.7c-0.2,0.5,0.2,1.2,0.7,1.3l4.2,1.3c0.5,0.2,1.2-0.2,1.3-0.7l0.2-0.7
		c0.1-0.4,0-0.7-0.5-1.1c-0.1-0.2-0.2-0.3-0.2-0.3s0,0,0-0.1l1-1C162.6,98.3,162.6,98.3,162.6,98.4z"/>
	<path class="st0" d="M165.2,94l-0.3,1.4c0,0.1-0.1,0.1-0.2,0.1l-9-1.9c-0.1,0-0.1-0.1-0.1-0.2l0.3-1.4c0-0.1,0.1-0.1,0.2-0.1l9,1.9
		C165.3,93.8,165.3,93.9,165.2,94z"/>
	<path class="st0" d="M166.7,84.6l-0.7,5.2c0,0.1-0.1,0.1-0.2,0.1l-9.1-1.1c-0.1,0-0.1-0.1-0.1-0.2l0.2-1.4c0-0.1,0.1-0.1,0.2-0.1
		l7.5,1c0.1,0,0.2,0,0.2-0.1l0.5-3.5c0-0.1,0.1-0.1,0.2-0.1l1.2,0.1C166.7,84.5,166.7,84.5,166.7,84.6z"/>
</g>
<path class="st0" d="M85.8,101.8c-2,1.6-3.4,3.8-4.1,6.5c-0.8,2.7-0.9,5.8-0.4,9.1c0.5,3.3,1.5,6,2.9,8.2s3.4,3.8,5.7,4.6
	c2.3,0.9,4.7,1.1,7.1,0.8c2.3-0.3,4.1-1.1,5.7-2.2c1.5-1.2,2.7-2.7,3.6-4.6c0.6-1.1,0.8-2.5,1.1-4.4l-5.9-0.8
	c-0.3,1.7-0.9,3.1-1.8,4c-1.2,1.4-2.6,2.3-4.3,2.5c-1.1,0.2-2.2-0.1-3.3-0.7c-1.1-0.7-2.1-1.7-2.8-3.2s-1.3-3.4-1.6-5.5
	c-0.5-3.4-0.3-6.2,0.6-8.5c0.9-2.2,2.4-3.6,4.6-3.9c1.5-0.2,2.7,0,3.9,0.8c1.1,0.7,2.1,1.8,2.7,3.5l5.4-2.4
	c-0.7-1.6-1.5-2.8-2.4-3.7c-1.3-1.2-2.8-2.2-4.7-2.8c-0.1-0.1-0.3-0.1-0.4-0.1l-9.9,1.4C86.9,101.1,86.3,101.5,85.8,101.8z"/>
<path class="st2" d="M119.7,100.4c-2.1,0.3-3.7,1.3-4.8,3.2c-1,1.9-1.4,4.8-0.9,8.6c0.5,3.8,1.6,6.4,3.2,7.9c1.6,1.5,3.5,2,5.7,1.7
	c2.1-0.3,3.6-1.3,4.8-3.2c1.1-1.9,1.5-4.7,0.9-8.4c-0.6-4.3-1.8-7.1-3.7-8.6C123.4,100.6,121.6,100.2,119.7,100.4z"/>
<path class="st0" d="M135.2,112.7c0-1-0.1-2-0.3-3.2c-0.6-3.9-1.6-6.9-3.2-9.1c-1.6-2.2-3.6-3.8-6.1-4.7c-0.3-0.2-0.7-0.2-1-0.3
	L113.3,97c-1.4,0.8-2.5,2-3.5,3.2c-1,1.4-1.6,2.8-2,4.2c-0.6,2.6-0.8,5.6-0.4,8.7c0.7,5.2,2.6,9.1,5.5,11.4c2.7,2.2,5.9,3.1,9.7,2.8
	C127.6,123.1,131.7,118.2,135.2,112.7z M127.7,118.8c-1.1,1.9-2.7,2.9-4.8,3.2c-2.2,0.3-4.1-0.2-5.7-1.7s-2.7-4.1-3.2-7.9
	c-0.6-3.9-0.3-6.7,0.9-8.6c1.1-1.9,2.7-2.9,4.8-3.2c2-0.3,3.7,0.2,5.1,1.3c1.9,1.4,3.1,4.3,3.7,8.6
	C129.1,114.1,128.8,116.9,127.7,118.8z"/>
</svg>
