<svg width="96" height="96" viewBox="0 0 96 96" fill="none" xmlns="http://www.w3.org/2000/svg">
  <path d="M90 1.5H6.00003C3.51903 1.5 1.50003 3.519 1.50003 6V63C1.50003 65.481 3.51903 67.5 6.00003 67.5H8.37903L0.879028 75L21 95.121L29.121 87L26.871 84.75L27.72 83.901L33.402 82.9545C35.5725 82.5915 37.5435 81.5775 39.099 80.022L51.621 67.5H90C92.481 67.5 94.5 65.481 94.5 63V6C94.5 3.519 92.481 1.5 90 1.5ZM6.00003 4.5H90C90.828 4.5 91.5 5.1735 91.5 6V13.5H4.50003V6C4.50003 5.1735 5.17203 4.5 6.00003 4.5ZM11.25 69.129L9.62103 67.5H12V68.379L11.25 69.129ZM21 90.879L5.12103 75L9.00003 71.121L24.879 87L21 90.879ZM36.978 77.901C35.8665 79.0125 34.458 79.737 32.9085 79.995L26.2785 81.099L24.7485 82.629L13.371 71.25L15 69.621V62.2275C15 60.2235 15.7815 58.3395 17.1975 56.9235L19.488 54.633C21.4305 52.6935 22.5 50.1105 22.5 47.3625V45.816C22.5 45.2025 23.2665 44.8005 23.772 45.138C25.7925 46.4925 27 48.753 27 51.1875V51.879L21.363 57.516L23.484 59.637L45.129 37.992C45.4425 37.68 45.876 37.5 46.3185 37.5C47.2455 37.5 48 38.2545 48 39.1815C48 39.6315 47.826 40.053 47.508 40.371L34.9395 52.9395L37.0605 55.0605L40.629 51.492C40.9425 51.1785 41.376 51 41.8185 51C42.7455 51 43.5 51.7545 43.5 52.6815C43.5 53.124 43.3215 53.5575 43.008 53.871L39.4395 57.4395L41.5605 59.5605L45.129 55.992C45.4425 55.6785 45.876 55.5 46.3185 55.5C47.2455 55.5 48 56.2545 48 57.1815C48 57.624 47.8215 58.0575 47.508 58.371L43.9395 61.9395L46.0605 64.0605L49.629 60.492C49.9425 60.1785 50.376 60 50.8185 60C51.7455 60 52.5 60.7545 52.5 61.6815C52.5 62.124 52.3215 62.5575 52.008 62.871L36.978 77.901ZM48.621 43.5L49.629 42.492C50.193 41.9295 50.574 41.2395 50.7915 40.4955L51.018 40.4175L51.174 40.353C52.08 39.921 52.887 39.312 53.571 38.541L54.135 37.9065L53.2335 35.0295L54.75 33.888L56.2665 35.0295L55.365 37.9065L55.929 38.541C56.613 39.3105 57.42 39.9195 58.326 40.353L59.148 40.746L61.5 38.973L63.852 40.746L64.674 40.353C65.58 39.921 66.387 39.312 67.071 38.541L67.635 37.9065L66.7335 35.0295L68.25 33.888L69.7665 35.0295L68.865 37.9065L69.429 38.541C70.113 39.3105 70.92 39.9195 71.826 40.353L72.648 40.746L75 38.973L77.352 40.746L78.174 40.353C79.08 39.921 79.887 39.312 80.571 38.541L81.135 37.9065L80.2335 35.0295L82.584 33.2595L82.491 32.4105C82.395 31.53 82.014 30.477 81.3615 29.28L80.9325 28.491L78.2325 28.5105L77.331 25.8285L76.488 25.6545C75.492 25.449 74.508 25.449 73.512 25.6545L72.663 25.83L71.7795 28.5075L68.9085 28.4955L68.481 29.2815C68.3745 29.478 68.2755 29.6925 68.181 29.9145C68.0805 29.706 67.9815 29.499 67.863 29.2815L67.434 28.4925L64.734 28.512L63.8325 25.83L62.9895 25.656C61.9935 25.4505 61.0095 25.4505 60.0135 25.656L59.1645 25.8315L58.281 28.509L55.41 28.497L54.9825 29.283C54.876 29.4795 54.777 29.694 54.6825 29.916C54.582 29.7075 54.483 29.5005 54.3645 29.283L53.9355 28.494L51.2355 28.5135L50.334 25.8315L49.491 25.6575C48.495 25.452 47.511 25.452 46.515 25.6575L45.666 25.833L44.7825 28.5105L41.9115 28.4985L41.484 29.2845C40.9995 30.1725 40.629 31.3725 40.5135 32.415L40.4205 33.264L42.771 35.034L42.276 36.612L37.5 41.379V27C37.5 24.519 39.519 22.5 42 22.5H81C83.481 22.5 85.5 24.519 85.5 27V39C85.5 41.481 83.481 43.5 81 43.5H77.379L68.5605 52.3185C68.2035 52.677 67.5 52.386 67.5 51.879V43.5H48.621ZM43.647 31.938C43.686 31.791 43.731 31.6455 43.779 31.503L46.947 31.5165L47.94 28.5H48.066L49.083 31.527L52.119 31.5045C52.191 31.668 52.2555 31.824 52.308 31.9725L49.7385 33.9075L50.7405 37.1085C50.6835 37.155 50.616 37.1835 50.5575 37.2255C49.8135 35.6205 48.1995 34.5 46.3185 34.5C46.2345 34.5 46.152 34.521 46.068 34.5255L46.2615 33.9075L43.647 31.938ZM64.2405 37.107C64.2045 37.137 64.1655 37.167 64.1265 37.1955L61.5 35.217L58.8735 37.1955C58.8345 37.167 58.7955 37.137 58.7595 37.107L59.7615 33.906L57.147 31.938C57.186 31.791 57.231 31.6455 57.279 31.503L60.447 31.5165L61.44 28.5H61.566L62.583 31.527L65.619 31.5045C65.691 31.668 65.7555 31.824 65.808 31.9725L63.2385 33.9075L64.2405 37.107ZM77.7405 37.107C77.7045 37.137 77.6655 37.167 77.6265 37.1955L75 35.217L72.3735 37.1955C72.3345 37.167 72.2955 37.137 72.2595 37.107L73.2615 33.906L70.647 31.938C70.686 31.791 70.731 31.6455 70.779 31.503L73.947 31.5165L74.94 28.5H75.066L76.083 31.527L79.119 31.5045C79.191 31.668 79.2555 31.824 79.308 31.9725L76.7385 33.9075L77.7405 37.107ZM90 64.5H54.531C55.143 63.6915 55.5 62.7015 55.5 61.6815C55.5 59.157 53.487 57.105 50.9835 57.0165C50.8965 54.57 48.93 52.6035 46.4835 52.5165C46.4175 50.682 45.303 49.116 43.713 48.408L45.621 46.5H64.5V51.879C64.5 53.8755 66.1245 55.5 68.121 55.5C69.075 55.5 70.008 55.113 70.6815 54.4395L78.621 46.5H81C85.1355 46.5 88.5 43.1355 88.5 39V27C88.5 22.8645 85.1355 19.5 81 19.5H42C37.8645 19.5 34.5 22.8645 34.5 27V44.379L29.7705 49.1085C29.232 46.494 27.708 44.1645 25.44 42.645C24.8085 42.222 24.075 42 23.316 42C21.213 42 19.5 43.713 19.5 45.816V47.3625C19.5 49.308 18.7425 51.138 17.367 52.512L15.0765 54.8025C13.0935 56.7855 12 59.4225 12 62.2275V64.5H6.00003C5.17203 64.5 4.50003 63.828 4.50003 63V16.5H91.5V63C91.5 63.828 90.828 64.5 90 64.5Z" fill="#23C577" />
  <path d="M19.5 7.5H22.5V10.5H19.5V7.5Z" fill="#23C577" />
  <path d="M7.50002 7.5H10.5V10.5H7.50002V7.5Z" fill="#23C577" />
  <path d="M13.5 7.5H16.5V10.5H13.5V7.5Z" fill="#23C577" />
  <path d="M73.5 58.5H76.5V61.5H73.5V58.5Z" fill="#23C577" />
  <path d="M79.5 58.5H82.5V61.5H79.5V58.5Z" fill="#23C577" />
  <path d="M85.5 58.5H88.5V61.5H85.5V58.5Z" fill="#23C577" />
  <path d="M76.5 52.5H88.5V55.5H76.5V52.5Z" fill="#23C577" />
  <path d="M7.50002 19.5H10.5V22.5H7.50002V19.5Z" fill="#23C577" />
  <path d="M13.5 19.5H31.5V22.5H13.5V19.5Z" fill="#23C577" />
  <path d="M7.50002 25.5H31.5V28.5H7.50002V25.5Z" fill="#23C577" />
  <path d="M7.50002 31.5H31.5V34.5H7.50002V31.5Z" fill="#23C577" />
  <path d="M7.50002 37.5H19.5V40.5H7.50002V37.5Z" fill="#23C577" />
</svg>
