<svg width="96" height="96" viewBox="0 0 96 96" fill="none" xmlns="http://www.w3.org/2000/svg">
  <path d="M83.631 77.511C85.6815 75.8595 87 73.332 87 70.5C87 65.5365 82.9635 61.5 78 61.5C73.0365 61.5 69 65.5365 69 70.5C69 73.332 70.3185 75.8595 72.369 77.511C68.208 79.029 64.83 82.1655 63 86.1675C61.17 82.167 57.792 79.029 53.631 77.511C55.6815 75.8595 57 73.332 57 70.5C57 65.5365 52.9635 61.5 48 61.5C43.0365 61.5 39 65.5365 39 70.5C39 73.332 40.3185 75.8595 42.369 77.511C38.208 79.029 34.83 82.1655 33 86.1675C31.17 82.167 27.792 79.029 23.631 77.511C25.6815 75.8595 27 73.332 27 70.5C27 65.5365 22.9635 61.5 18 61.5C13.0365 61.5 9 65.5365 9 70.5C9 73.332 10.3185 75.8595 12.369 77.511C6.0405 79.8195 1.5 85.881 1.5 93V94.5H94.5V93C94.5 85.881 89.9595 79.8195 83.631 77.511ZM12 70.5C12 67.191 14.691 64.5 18 64.5C21.309 64.5 24 67.191 24 70.5C24 73.809 21.309 76.5 18 76.5C14.691 76.5 12 73.809 12 70.5ZM4.5825 91.5C5.331 84.759 11.0625 79.5 18 79.5C24.9375 79.5 30.669 84.759 31.4175 91.5H4.5825ZM42 70.5C42 67.191 44.691 64.5 48 64.5C51.309 64.5 54 67.191 54 70.5C54 73.809 51.309 76.5 48 76.5C44.691 76.5 42 73.809 42 70.5ZM34.5825 91.5C35.331 84.759 41.0625 79.5 48 79.5C54.9375 79.5 60.669 84.759 61.4175 91.5H34.5825ZM72 70.5C72 67.191 74.691 64.5 78 64.5C81.309 64.5 84 67.191 84 70.5C84 73.809 81.309 76.5 78 76.5C74.691 76.5 72 73.809 72 70.5ZM64.5825 91.5C65.331 84.759 71.0625 79.5 78 79.5C84.9375 79.5 90.669 84.759 91.4175 91.5H64.5825Z" fill="#23C577" />
  <path d="M24.0795 33.33C24.0285 33.717 24 34.107 24 34.5C24 39.123 27.504 42.9435 31.9965 43.4445C33.2325 47.0145 36.6375 49.5 40.5 49.5C41.5605 49.5 42.597 49.2975 43.581 48.948L42.411 54.7965C42.228 55.71 42.4635 56.6475 43.053 57.3675C43.644 58.0875 44.517 58.5 45.447 58.5C46.6875 58.5 47.805 57.7635 48.2925 56.6235L51.7125 48.642C52.8915 49.1925 54.1695 49.5 55.5 49.5C59.3715 49.5 62.7345 47.043 63.9765 43.4835C69.1575 43.8045 73.5 39.636 73.5 34.5C73.5 33.7845 73.407 33.093 73.2495 32.4255C75.303 30.726 76.5 28.2105 76.5 25.5C76.5 22.1445 74.6505 19.2165 71.9205 17.67C71.9715 17.283 72 16.893 72 16.5C72 11.877 68.496 8.0565 64.0035 7.5555C62.7675 3.9855 59.3625 1.5 55.5 1.5C52.374 1.5 49.614 3.102 48 5.5305C46.386 3.102 43.626 1.5 40.5 1.5C36.6285 1.5 33.2655 3.957 32.0235 7.5165C26.832 7.176 22.5 11.364 22.5 16.5C22.5 17.2155 22.593 17.907 22.7505 18.5745C20.697 20.274 19.5 22.7895 19.5 25.5C19.5 28.8555 21.3495 31.7835 24.0795 33.33ZM45.5355 55.4415L45.372 55.4655C45.342 55.4295 45.3495 55.398 45.351 55.3845L48.33 40.5H42.5805L46.08 30H50.283L47.283 37.5H53.223L45.5355 55.4415ZM24.027 21.5085C25.644 23.913 28.389 25.5 31.5 25.5C35.751 25.5 39.453 22.4715 40.302 18.2985L37.362 17.7015C36.7965 20.481 34.3305 22.5 31.5 22.5C28.191 22.5 25.5 19.809 25.5 16.5C25.5 13.191 28.191 10.5 31.5 10.5C31.914 10.5 32.3415 10.551 32.8065 10.6545L34.3365 10.995L34.6095 9.4515C35.1165 6.582 37.593 4.5 40.5 4.5C43.809 4.5 46.5 7.191 46.5 10.5H49.5C49.5 7.191 52.191 4.5 55.5 4.5C58.3455 4.5 60.819 6.5235 61.38 9.312L61.6305 10.5525L62.895 10.5165C62.9775 10.512 63.06 10.503 63 10.5C66.309 10.5 69 13.191 69 16.5C69 16.545 68.9925 16.5885 68.991 16.6335C68.505 16.5525 68.0085 16.5 67.5 16.5C64.716 16.5 62.133 17.7585 60.4125 19.9515L62.7735 21.8025C63.921 20.34 65.6445 19.5 67.5 19.5C70.809 19.5 73.5 22.191 73.5 25.5C73.5 27 72.9435 28.407 71.973 29.4915C70.356 27.087 67.611 25.5 64.5 25.5C60.9315 25.5 57.7005 27.618 56.2695 30.897L59.019 32.097C59.9715 29.9115 62.124 28.5 64.5 28.5C67.809 28.5 70.5 31.191 70.5 34.5C70.5 37.809 67.809 40.5 64.5 40.5C64.086 40.5 63.6585 40.449 63.1935 40.3455L61.6635 40.005L61.3905 41.5485C60.8835 44.418 58.407 46.5 55.5 46.5C54.582 46.5 53.7 46.2855 52.8915 45.8925L57.7755 34.5H51.7155L54.7155 27H43.9185L38.418 43.5H44.6685L44.3415 45.1365C43.239 46.005 41.8995 46.5 40.5 46.5C37.6545 46.5 35.181 44.4765 34.62 41.688L34.3695 40.4475L33.105 40.4835C33.0225 40.488 32.94 40.497 33 40.5C29.691 40.5 27 37.809 27 34.5C27 34.455 27.0075 34.4115 27.009 34.3665C27.495 34.4475 27.9915 34.5 28.5 34.5C31.284 34.5 33.867 33.2415 35.5875 31.0485L33.2265 29.1975C32.079 30.66 30.3555 31.5 28.5 31.5C25.191 31.5 22.5 28.809 22.5 25.5C22.5 24 23.0565 22.593 24.027 21.5085Z" fill="#23C577" />
  <path d="M45 21C45.8265 21 46.5 21.6735 46.5 22.5H49.5C49.5 20.019 47.481 18 45 18V21Z" fill="#23C577" />
  <path d="M55.5 13.5H58.5C58.5 11.019 56.481 9 54 9V12C54.8265 12 55.5 12.6735 55.5 13.5Z" fill="#23C577" />
  <path d="M42 15H45C45 12.519 42.981 10.5 40.5 10.5V13.5C41.3265 13.5 42 14.1735 42 15Z" fill="#23C577" />
  <path d="M12 58.5C17.79 58.5 22.5 53.79 22.5 48C22.5 42.21 17.79 37.5 12 37.5C6.21 37.5 1.5 42.21 1.5 48C1.5 53.79 6.21 58.5 12 58.5ZM12 40.5C16.1355 40.5 19.5 43.8645 19.5 48C19.5 52.1355 16.1355 55.5 12 55.5C7.8645 55.5 4.5 52.1355 4.5 48C4.5 43.8645 7.8645 40.5 12 40.5Z" fill="#23C577" />
  <path d="M84 58.5C89.79 58.5 94.5 53.79 94.5 48C94.5 42.21 89.79 37.5 84 37.5C78.21 37.5 73.5 42.21 73.5 48C73.5 53.79 78.21 58.5 84 58.5ZM84 40.5C88.1355 40.5 91.5 43.8645 91.5 48C91.5 52.1355 88.1355 55.5 84 55.5C79.8645 55.5 76.5 52.1355 76.5 48C76.5 43.8645 79.8645 40.5 84 40.5Z" fill="#23C577" />
  <path d="M10.0605 52.0605L12 50.121L13.9395 52.0605L16.0605 49.9395L14.121 48L16.0605 46.0605L13.9395 43.9395L12 45.879L10.0605 43.9395L7.93951 46.0605L9.87901 48L7.93951 49.9395L10.0605 52.0605Z" fill="#23C577" />
  <path d="M82.5 53.121L89.5605 46.0605L87.4395 43.9395L82.5 48.879L80.5605 46.9395L78.4395 49.0605L82.5 53.121Z" fill="#23C577" />
</svg>
