<svg width="96" height="96" viewBox="0 0 96 96" fill="none" xmlns="http://www.w3.org/2000/svg">
  <path d="M76.5 22.5C75.6735 22.5 75 21.8265 75 21H72C72 23.481 74.019 25.5 76.5 25.5V28.5H79.5V25.5H84V21C84 18.519 81.981 16.5 79.5 16.5H76.5C75.6735 16.5 75 15.8265 75 15V13.5H79.5C80.3265 13.5 81 14.1735 81 15H84C84 12.519 81.981 10.5 79.5 10.5V7.5H76.5V10.5H72V15C72 17.481 74.019 19.5 76.5 19.5H79.5C80.3265 19.5 81 20.1735 81 21V22.5H76.5Z" fill="#23C577" />
  <path d="M90 79.5H87V74.0745C87 71.277 84.723 69 81.9255 69C81.0645 69 80.2125 69.2205 79.461 69.639L70.9365 74.3745C69.903 73.8345 68.745 73.5 67.5 73.5C66.255 73.5 65.097 73.8345 64.062 74.3745L55.5375 69.639C55.5255 69.633 55.512 69.63 55.5 69.624V57C55.5 54.519 53.481 52.5 51 52.5H32.733L39.4935 41.877C39.8175 41.952 40.152 42 40.5 42C42.453 42 44.103 40.7415 44.724 39H54.2775C54.8985 40.7415 56.5485 42 58.5015 42C60.9825 42 63.0015 39.981 63.0015 37.5C63.0015 36.807 62.832 36.159 62.55 35.5725L67.4505 30.672C70.3125 33.0585 73.9905 34.5 78 34.5C87.0975 34.5 94.5 27.0975 94.5 18C94.5 8.9025 87.0975 1.5 78 1.5C68.9025 1.5 61.5 8.9025 61.5 18C61.5 22.0095 62.9415 25.6875 65.328 28.551L60.4275 33.4515C59.841 33.1695 59.193 33 58.5 33C56.547 33 54.897 34.2585 54.276 36H44.7225C44.1015 34.2585 42.4515 33 40.4985 33C38.0175 33 35.9985 35.019 35.9985 37.5C35.9985 38.5425 36.369 39.492 36.9675 40.2555L30 51.2055V27H37.5C44.943 27 51 20.943 51 13.5V12H40.5C36.261 12 32.4765 13.968 30 17.034V15C30 7.557 23.943 1.5 16.5 1.5H6V3C6 10.443 12.057 16.5 19.5 16.5H27V27.534C24.5235 24.468 20.739 22.5 16.5 22.5H6V24C6 31.443 12.057 37.5 19.5 37.5H27V52.5H6C3.519 52.5 1.5 54.519 1.5 57V90C1.5 92.481 3.519 94.5 6 94.5H94.5V84C94.5 81.519 92.481 79.5 90 79.5ZM40.5 15H47.8935C47.163 20.082 42.7815 24 37.5 24H30.1065C30.837 18.918 35.2185 15 40.5 15ZM19.5 13.5C14.2185 13.5 9.837 9.582 9.1065 4.5H16.5C21.7815 4.5 26.163 8.418 26.8935 13.5H19.5ZM19.5 34.5C14.2185 34.5 9.837 30.582 9.1065 25.5H16.5C21.7815 25.5 26.163 29.418 26.8935 34.5H19.5ZM80.919 72.261C81.2265 72.09 81.5745 72 81.9255 72C83.07 72 84 72.93 84 74.0745V79.5H74.8485C74.6145 78.3555 74.0985 77.325 73.407 76.434L80.919 72.261ZM72 82.5V91.5H63V82.5H72ZM71.724 79.5H63.2775C63.8985 77.7585 65.5485 76.5 67.5015 76.5C69.4545 76.5 71.103 77.7585 71.724 79.5ZM61.593 76.434C60.903 77.325 60.3855 78.3555 60.1515 79.5H51V74.0745C51 72.93 51.93 72 53.0745 72C53.4255 72 53.7735 72.09 54.081 72.261L61.593 76.434ZM52.5 57V61.5H36V55.5H51C51.8265 55.5 52.5 56.1735 52.5 57ZM24 55.5H33V91.5H24V55.5ZM78 4.5C85.443 4.5 91.5 10.557 91.5 18C91.5 25.443 85.443 31.5 78 31.5C70.557 31.5 64.5 25.443 64.5 18C64.5 10.557 70.557 4.5 78 4.5ZM58.5 36C59.3265 36 60 36.6735 60 37.5C60 38.3265 59.3265 39 58.5 39C57.6735 39 57 38.3265 57 37.5C57 36.6735 57.6735 36 58.5 36ZM40.5 36C41.3265 36 42 36.6735 42 37.5C42 38.3265 41.3265 39 40.5 39C39.6735 39 39 38.3265 39 37.5C39 36.6735 39.6735 36 40.5 36ZM6 55.5H21V61.5H4.5V57C4.5 56.1735 5.1735 55.5 6 55.5ZM4.5 90V64.5H21V91.5H6C5.1735 91.5 4.5 90.8265 4.5 90ZM36 91.5V64.5H52.5V69.0585C49.9755 69.348 48 71.4735 48 74.0745V79.5H45C42.519 79.5 40.5 81.519 40.5 84V91.5H36ZM43.5 91.5V84C43.5 83.1735 44.1735 82.5 45 82.5H60V91.5H43.5ZM91.5 91.5H75V82.5H90C90.8265 82.5 91.5 83.1735 91.5 84V91.5Z" fill="#23C577" />
  <path d="M7.5 85.5H10.5V88.5H7.5V85.5Z" fill="#23C577" />
  <path d="M7.5 79.5H10.5V82.5H7.5V79.5Z" fill="#23C577" />
  <path d="M7.5 73.5H10.5V76.5H7.5V73.5Z" fill="#23C577" />
  <path d="M72 40.5H87V43.5H72V40.5Z" fill="#23C577" />
  <path d="M72 46.5H87V49.5H72V46.5Z" fill="#23C577" />
  <path d="M78 52.5H81V55.5H78V52.5Z" fill="#23C577" />
  <path d="M72 52.5H75V55.5H72V52.5Z" fill="#23C577" />
  <path d="M84 52.5H87V55.5H84V52.5Z" fill="#23C577" />
</svg>
